G04 #@! TF.GenerationSoftware,KiCad,Pcbnew,7.0.1*
G04 #@! TF.CreationDate,2024-07-31T19:39:54-07:00*
G04 #@! TF.ProjectId,DFTBoard,44465442-6f61-4726-942e-6b696361645f,rev?*
G04 #@! TF.SameCoordinates,Original*
G04 #@! TF.FileFunction,Legend,Top*
G04 #@! TF.FilePolarity,Positive*
%FSLAX46Y46*%
G04 Gerber Fmt 4.6, Leading zero omitted, Abs format (unit mm)*
G04 Created by KiCad (PCBNEW 7.0.1) date 2024-07-31 19:39:54*
%MOMM*%
%LPD*%
G01*
G04 APERTURE LIST*
G04 Aperture macros list*
%AMRoundRect*
0 Rectangle with rounded corners*
0 $1 Rounding radius*
0 $2 $3 $4 $5 $6 $7 $8 $9 X,Y pos of 4 corners*
0 Add a 4 corners polygon primitive as box body*
4,1,4,$2,$3,$4,$5,$6,$7,$8,$9,$2,$3,0*
0 Add four circle primitives for the rounded corners*
1,1,$1+$1,$2,$3*
1,1,$1+$1,$4,$5*
1,1,$1+$1,$6,$7*
1,1,$1+$1,$8,$9*
0 Add four rect primitives between the rounded corners*
20,1,$1+$1,$2,$3,$4,$5,0*
20,1,$1+$1,$4,$5,$6,$7,0*
20,1,$1+$1,$6,$7,$8,$9,0*
20,1,$1+$1,$8,$9,$2,$3,0*%
G04 Aperture macros list end*
%ADD10C,0.130000*%
%ADD11C,0.203200*%
%ADD12C,0.150000*%
%ADD13C,0.120000*%
%ADD14C,0.127000*%
%ADD15C,0.200000*%
%ADD16C,0.101600*%
%ADD17C,0.508000*%
%ADD18C,0.010000*%
%ADD19RoundRect,0.015000X1.440180X-0.560070X1.440180X0.560070X-1.440180X0.560070X-1.440180X-0.560070X0*%
%ADD20C,3.078000*%
%ADD21RoundRect,0.162500X0.147500X0.172500X-0.147500X0.172500X-0.147500X-0.172500X0.147500X-0.172500X0*%
%ADD22RoundRect,0.162500X-0.147500X-0.172500X0.147500X-0.172500X0.147500X0.172500X-0.147500X0.172500X0*%
%ADD23C,0.360000*%
%ADD24RoundRect,0.077500X-0.312500X-0.062500X0.312500X-0.062500X0.312500X0.062500X-0.312500X0.062500X0*%
%ADD25RoundRect,0.077500X-0.062500X-0.312500X0.062500X-0.312500X0.062500X0.312500X-0.062500X0.312500X0*%
%ADD26RoundRect,0.264999X-1.575001X-1.575001X1.575001X-1.575001X1.575001X1.575001X-1.575001X1.575001X0*%
%ADD27C,2.030000*%
%ADD28RoundRect,0.015000X0.950000X-0.150000X0.950000X0.150000X-0.950000X0.150000X-0.950000X-0.150000X0*%
%ADD29C,1.630000*%
%ADD30RoundRect,0.015000X1.400000X-1.100000X1.400000X1.100000X-1.400000X1.100000X-1.400000X-1.100000X0*%
%ADD31RoundRect,0.015000X1.100000X-1.400000X1.100000X1.400000X-1.100000X1.400000X-1.100000X-1.400000X0*%
%ADD32C,0.430000*%
%ADD33RoundRect,0.015000X0.800000X-0.150000X0.800000X0.150000X-0.800000X0.150000X-0.800000X-0.150000X0*%
%ADD34RoundRect,0.162500X-0.172500X0.147500X-0.172500X-0.147500X0.172500X-0.147500X0.172500X0.147500X0*%
%ADD35RoundRect,0.015000X-0.330000X0.450000X-0.330000X-0.450000X0.330000X-0.450000X0.330000X0.450000X0*%
%ADD36RoundRect,0.077500X0.062500X-0.117500X0.062500X0.117500X-0.062500X0.117500X-0.062500X-0.117500X0*%
%ADD37RoundRect,0.265000X0.475000X-0.250000X0.475000X0.250000X-0.475000X0.250000X-0.475000X-0.250000X0*%
%ADD38RoundRect,0.150000X-0.185000X0.135000X-0.185000X-0.135000X0.185000X-0.135000X0.185000X0.135000X0*%
%ADD39RoundRect,0.265000X0.450000X-0.262500X0.450000X0.262500X-0.450000X0.262500X-0.450000X-0.262500X0*%
%ADD40RoundRect,0.165000X-0.150000X0.512500X-0.150000X-0.512500X0.150000X-0.512500X0.150000X0.512500X0*%
%ADD41RoundRect,0.265000X-0.925000X0.787500X-0.925000X-0.787500X0.925000X-0.787500X0.925000X0.787500X0*%
%ADD42RoundRect,0.077500X0.062500X-0.350000X0.062500X0.350000X-0.062500X0.350000X-0.062500X-0.350000X0*%
%ADD43RoundRect,0.077500X0.350000X-0.062500X0.350000X0.062500X-0.350000X0.062500X-0.350000X-0.062500X0*%
%ADD44RoundRect,0.015000X0.840000X-0.840000X0.840000X0.840000X-0.840000X0.840000X-0.840000X-0.840000X0*%
%ADD45RoundRect,0.265000X-0.787500X-0.925000X0.787500X-0.925000X0.787500X0.925000X-0.787500X0.925000X0*%
%ADD46RoundRect,0.265000X-0.475000X0.250000X-0.475000X-0.250000X0.475000X-0.250000X0.475000X0.250000X0*%
%ADD47C,1.879600*%
%ADD48C,3.301600*%
%ADD49RoundRect,0.150000X0.185000X-0.135000X0.185000X0.135000X-0.185000X0.135000X-0.185000X-0.135000X0*%
%ADD50RoundRect,0.015000X0.150000X0.650000X-0.150000X0.650000X-0.150000X-0.650000X0.150000X-0.650000X0*%
%ADD51RoundRect,0.015000X0.900000X1.100000X-0.900000X1.100000X-0.900000X-1.100000X0.900000X-1.100000X0*%
%ADD52RoundRect,0.015000X0.150000X0.550000X-0.150000X0.550000X-0.150000X-0.550000X0.150000X-0.550000X0*%
%ADD53RoundRect,0.015000X1.150000X1.550000X-1.150000X1.550000X-1.150000X-1.550000X1.150000X-1.550000X0*%
%ADD54RoundRect,0.077500X-0.062500X0.117500X-0.062500X-0.117500X0.062500X-0.117500X0.062500X0.117500X0*%
%ADD55RoundRect,0.015000X-0.500000X1.100000X-0.500000X-1.100000X0.500000X-1.100000X0.500000X1.100000X0*%
%ADD56RoundRect,0.015000X-0.500000X0.500000X-0.500000X-0.500000X0.500000X-0.500000X0.500000X0.500000X0*%
%ADD57RoundRect,0.165000X0.150000X-0.512500X0.150000X0.512500X-0.150000X0.512500X-0.150000X-0.512500X0*%
%ADD58RoundRect,0.015000X-1.000000X-0.750000X1.000000X-0.750000X1.000000X0.750000X-1.000000X0.750000X0*%
%ADD59RoundRect,0.015000X-1.000000X-1.900000X1.000000X-1.900000X1.000000X1.900000X-1.000000X1.900000X0*%
%ADD60RoundRect,0.102000X0.952500X0.952500X-0.952500X0.952500X-0.952500X-0.952500X0.952500X-0.952500X0*%
%ADD61RoundRect,0.264999X0.450001X1.450001X-0.450001X1.450001X-0.450001X-1.450001X0.450001X-1.450001X0*%
%ADD62RoundRect,0.240000X-0.225000X-0.375000X0.225000X-0.375000X0.225000X0.375000X-0.225000X0.375000X0*%
%ADD63C,1.808000*%
G04 APERTURE END LIST*
D10*
X120841904Y-119067619D02*
X120270476Y-119067619D01*
X120556190Y-119067619D02*
X120556190Y-118067619D01*
X120556190Y-118067619D02*
X120460952Y-118210476D01*
X120460952Y-118210476D02*
X120365714Y-118305714D01*
X120365714Y-118305714D02*
X120270476Y-118353333D01*
X121794285Y-118115238D02*
X121699047Y-118067619D01*
X121699047Y-118067619D02*
X121556190Y-118067619D01*
X121556190Y-118067619D02*
X121413333Y-118115238D01*
X121413333Y-118115238D02*
X121318095Y-118210476D01*
X121318095Y-118210476D02*
X121270476Y-118305714D01*
X121270476Y-118305714D02*
X121222857Y-118496190D01*
X121222857Y-118496190D02*
X121222857Y-118639047D01*
X121222857Y-118639047D02*
X121270476Y-118829523D01*
X121270476Y-118829523D02*
X121318095Y-118924761D01*
X121318095Y-118924761D02*
X121413333Y-119020000D01*
X121413333Y-119020000D02*
X121556190Y-119067619D01*
X121556190Y-119067619D02*
X121651428Y-119067619D01*
X121651428Y-119067619D02*
X121794285Y-119020000D01*
X121794285Y-119020000D02*
X121841904Y-118972380D01*
X121841904Y-118972380D02*
X121841904Y-118639047D01*
X121841904Y-118639047D02*
X121651428Y-118639047D01*
X122603809Y-118543809D02*
X122746666Y-118591428D01*
X122746666Y-118591428D02*
X122794285Y-118639047D01*
X122794285Y-118639047D02*
X122841904Y-118734285D01*
X122841904Y-118734285D02*
X122841904Y-118877142D01*
X122841904Y-118877142D02*
X122794285Y-118972380D01*
X122794285Y-118972380D02*
X122746666Y-119020000D01*
X122746666Y-119020000D02*
X122651428Y-119067619D01*
X122651428Y-119067619D02*
X122270476Y-119067619D01*
X122270476Y-119067619D02*
X122270476Y-118067619D01*
X122270476Y-118067619D02*
X122603809Y-118067619D01*
X122603809Y-118067619D02*
X122699047Y-118115238D01*
X122699047Y-118115238D02*
X122746666Y-118162857D01*
X122746666Y-118162857D02*
X122794285Y-118258095D01*
X122794285Y-118258095D02*
X122794285Y-118353333D01*
X122794285Y-118353333D02*
X122746666Y-118448571D01*
X122746666Y-118448571D02*
X122699047Y-118496190D01*
X122699047Y-118496190D02*
X122603809Y-118543809D01*
X122603809Y-118543809D02*
X122270476Y-118543809D01*
X124032381Y-119067619D02*
X124032381Y-118067619D01*
X124032381Y-118067619D02*
X124270476Y-118067619D01*
X124270476Y-118067619D02*
X124413333Y-118115238D01*
X124413333Y-118115238D02*
X124508571Y-118210476D01*
X124508571Y-118210476D02*
X124556190Y-118305714D01*
X124556190Y-118305714D02*
X124603809Y-118496190D01*
X124603809Y-118496190D02*
X124603809Y-118639047D01*
X124603809Y-118639047D02*
X124556190Y-118829523D01*
X124556190Y-118829523D02*
X124508571Y-118924761D01*
X124508571Y-118924761D02*
X124413333Y-119020000D01*
X124413333Y-119020000D02*
X124270476Y-119067619D01*
X124270476Y-119067619D02*
X124032381Y-119067619D01*
X125032381Y-119067619D02*
X125032381Y-118067619D01*
X125032381Y-118067619D02*
X125270476Y-118067619D01*
X125270476Y-118067619D02*
X125413333Y-118115238D01*
X125413333Y-118115238D02*
X125508571Y-118210476D01*
X125508571Y-118210476D02*
X125556190Y-118305714D01*
X125556190Y-118305714D02*
X125603809Y-118496190D01*
X125603809Y-118496190D02*
X125603809Y-118639047D01*
X125603809Y-118639047D02*
X125556190Y-118829523D01*
X125556190Y-118829523D02*
X125508571Y-118924761D01*
X125508571Y-118924761D02*
X125413333Y-119020000D01*
X125413333Y-119020000D02*
X125270476Y-119067619D01*
X125270476Y-119067619D02*
X125032381Y-119067619D01*
X126603809Y-119067619D02*
X126270476Y-118591428D01*
X126032381Y-119067619D02*
X126032381Y-118067619D01*
X126032381Y-118067619D02*
X126413333Y-118067619D01*
X126413333Y-118067619D02*
X126508571Y-118115238D01*
X126508571Y-118115238D02*
X126556190Y-118162857D01*
X126556190Y-118162857D02*
X126603809Y-118258095D01*
X126603809Y-118258095D02*
X126603809Y-118400952D01*
X126603809Y-118400952D02*
X126556190Y-118496190D01*
X126556190Y-118496190D02*
X126508571Y-118543809D01*
X126508571Y-118543809D02*
X126413333Y-118591428D01*
X126413333Y-118591428D02*
X126032381Y-118591428D01*
X126937143Y-118067619D02*
X127556190Y-118067619D01*
X127556190Y-118067619D02*
X127222857Y-118448571D01*
X127222857Y-118448571D02*
X127365714Y-118448571D01*
X127365714Y-118448571D02*
X127460952Y-118496190D01*
X127460952Y-118496190D02*
X127508571Y-118543809D01*
X127508571Y-118543809D02*
X127556190Y-118639047D01*
X127556190Y-118639047D02*
X127556190Y-118877142D01*
X127556190Y-118877142D02*
X127508571Y-118972380D01*
X127508571Y-118972380D02*
X127460952Y-119020000D01*
X127460952Y-119020000D02*
X127365714Y-119067619D01*
X127365714Y-119067619D02*
X127080000Y-119067619D01*
X127080000Y-119067619D02*
X126984762Y-119020000D01*
X126984762Y-119020000D02*
X126937143Y-118972380D01*
X129318095Y-119067619D02*
X128984762Y-118591428D01*
X128746667Y-119067619D02*
X128746667Y-118067619D01*
X128746667Y-118067619D02*
X129127619Y-118067619D01*
X129127619Y-118067619D02*
X129222857Y-118115238D01*
X129222857Y-118115238D02*
X129270476Y-118162857D01*
X129270476Y-118162857D02*
X129318095Y-118258095D01*
X129318095Y-118258095D02*
X129318095Y-118400952D01*
X129318095Y-118400952D02*
X129270476Y-118496190D01*
X129270476Y-118496190D02*
X129222857Y-118543809D01*
X129222857Y-118543809D02*
X129127619Y-118591428D01*
X129127619Y-118591428D02*
X128746667Y-118591428D01*
X129699048Y-118781904D02*
X130175238Y-118781904D01*
X129603810Y-119067619D02*
X129937143Y-118067619D01*
X129937143Y-118067619D02*
X130270476Y-119067619D01*
X130603810Y-119067619D02*
X130603810Y-118067619D01*
X130603810Y-118067619D02*
X130937143Y-118781904D01*
X130937143Y-118781904D02*
X131270476Y-118067619D01*
X131270476Y-118067619D02*
X131270476Y-119067619D01*
X101328095Y-65107619D02*
X101328095Y-64440952D01*
X101328095Y-64107619D02*
X101280476Y-64155238D01*
X101280476Y-64155238D02*
X101328095Y-64202857D01*
X101328095Y-64202857D02*
X101375714Y-64155238D01*
X101375714Y-64155238D02*
X101328095Y-64107619D01*
X101328095Y-64107619D02*
X101328095Y-64202857D01*
X102375713Y-65012380D02*
X102328094Y-65060000D01*
X102328094Y-65060000D02*
X102185237Y-65107619D01*
X102185237Y-65107619D02*
X102089999Y-65107619D01*
X102089999Y-65107619D02*
X101947142Y-65060000D01*
X101947142Y-65060000D02*
X101851904Y-64964761D01*
X101851904Y-64964761D02*
X101804285Y-64869523D01*
X101804285Y-64869523D02*
X101756666Y-64679047D01*
X101756666Y-64679047D02*
X101756666Y-64536190D01*
X101756666Y-64536190D02*
X101804285Y-64345714D01*
X101804285Y-64345714D02*
X101851904Y-64250476D01*
X101851904Y-64250476D02*
X101947142Y-64155238D01*
X101947142Y-64155238D02*
X102089999Y-64107619D01*
X102089999Y-64107619D02*
X102185237Y-64107619D01*
X102185237Y-64107619D02*
X102328094Y-64155238D01*
X102328094Y-64155238D02*
X102375713Y-64202857D01*
X103185237Y-65060000D02*
X103089999Y-65107619D01*
X103089999Y-65107619D02*
X102899523Y-65107619D01*
X102899523Y-65107619D02*
X102804285Y-65060000D01*
X102804285Y-65060000D02*
X102756666Y-64964761D01*
X102756666Y-64964761D02*
X102756666Y-64583809D01*
X102756666Y-64583809D02*
X102804285Y-64488571D01*
X102804285Y-64488571D02*
X102899523Y-64440952D01*
X102899523Y-64440952D02*
X103089999Y-64440952D01*
X103089999Y-64440952D02*
X103185237Y-64488571D01*
X103185237Y-64488571D02*
X103232856Y-64583809D01*
X103232856Y-64583809D02*
X103232856Y-64679047D01*
X103232856Y-64679047D02*
X102756666Y-64774285D01*
X103804285Y-65107619D02*
X103709047Y-65060000D01*
X103709047Y-65060000D02*
X103661428Y-64964761D01*
X103661428Y-64964761D02*
X103661428Y-64107619D01*
X104566190Y-65060000D02*
X104470952Y-65107619D01*
X104470952Y-65107619D02*
X104280476Y-65107619D01*
X104280476Y-65107619D02*
X104185238Y-65060000D01*
X104185238Y-65060000D02*
X104137619Y-64964761D01*
X104137619Y-64964761D02*
X104137619Y-64583809D01*
X104137619Y-64583809D02*
X104185238Y-64488571D01*
X104185238Y-64488571D02*
X104280476Y-64440952D01*
X104280476Y-64440952D02*
X104470952Y-64440952D01*
X104470952Y-64440952D02*
X104566190Y-64488571D01*
X104566190Y-64488571D02*
X104613809Y-64583809D01*
X104613809Y-64583809D02*
X104613809Y-64679047D01*
X104613809Y-64679047D02*
X104137619Y-64774285D01*
X104994762Y-65060000D02*
X105090000Y-65107619D01*
X105090000Y-65107619D02*
X105280476Y-65107619D01*
X105280476Y-65107619D02*
X105375714Y-65060000D01*
X105375714Y-65060000D02*
X105423333Y-64964761D01*
X105423333Y-64964761D02*
X105423333Y-64917142D01*
X105423333Y-64917142D02*
X105375714Y-64821904D01*
X105375714Y-64821904D02*
X105280476Y-64774285D01*
X105280476Y-64774285D02*
X105137619Y-64774285D01*
X105137619Y-64774285D02*
X105042381Y-64726666D01*
X105042381Y-64726666D02*
X104994762Y-64631428D01*
X104994762Y-64631428D02*
X104994762Y-64583809D01*
X104994762Y-64583809D02*
X105042381Y-64488571D01*
X105042381Y-64488571D02*
X105137619Y-64440952D01*
X105137619Y-64440952D02*
X105280476Y-64440952D01*
X105280476Y-64440952D02*
X105375714Y-64488571D01*
X105709048Y-64440952D02*
X106090000Y-64440952D01*
X105851905Y-64107619D02*
X105851905Y-64964761D01*
X105851905Y-64964761D02*
X105899524Y-65060000D01*
X105899524Y-65060000D02*
X105994762Y-65107619D01*
X105994762Y-65107619D02*
X106090000Y-65107619D01*
X106423334Y-65107619D02*
X106423334Y-64440952D01*
X106423334Y-64107619D02*
X106375715Y-64155238D01*
X106375715Y-64155238D02*
X106423334Y-64202857D01*
X106423334Y-64202857D02*
X106470953Y-64155238D01*
X106470953Y-64155238D02*
X106423334Y-64107619D01*
X106423334Y-64107619D02*
X106423334Y-64202857D01*
X106899524Y-64440952D02*
X106899524Y-65107619D01*
X106899524Y-64536190D02*
X106947143Y-64488571D01*
X106947143Y-64488571D02*
X107042381Y-64440952D01*
X107042381Y-64440952D02*
X107185238Y-64440952D01*
X107185238Y-64440952D02*
X107280476Y-64488571D01*
X107280476Y-64488571D02*
X107328095Y-64583809D01*
X107328095Y-64583809D02*
X107328095Y-65107619D01*
X108185238Y-65060000D02*
X108090000Y-65107619D01*
X108090000Y-65107619D02*
X107899524Y-65107619D01*
X107899524Y-65107619D02*
X107804286Y-65060000D01*
X107804286Y-65060000D02*
X107756667Y-64964761D01*
X107756667Y-64964761D02*
X107756667Y-64583809D01*
X107756667Y-64583809D02*
X107804286Y-64488571D01*
X107804286Y-64488571D02*
X107899524Y-64440952D01*
X107899524Y-64440952D02*
X108090000Y-64440952D01*
X108090000Y-64440952D02*
X108185238Y-64488571D01*
X108185238Y-64488571D02*
X108232857Y-64583809D01*
X108232857Y-64583809D02*
X108232857Y-64679047D01*
X108232857Y-64679047D02*
X107756667Y-64774285D01*
X109947143Y-65107619D02*
X109375715Y-65107619D01*
X109661429Y-65107619D02*
X109661429Y-64107619D01*
X109661429Y-64107619D02*
X109566191Y-64250476D01*
X109566191Y-64250476D02*
X109470953Y-64345714D01*
X109470953Y-64345714D02*
X109375715Y-64393333D01*
X111042382Y-64440952D02*
X111280477Y-65107619D01*
X111280477Y-65107619D02*
X111518572Y-64440952D01*
X111899525Y-65012380D02*
X111947144Y-65060000D01*
X111947144Y-65060000D02*
X111899525Y-65107619D01*
X111899525Y-65107619D02*
X111851906Y-65060000D01*
X111851906Y-65060000D02*
X111899525Y-65012380D01*
X111899525Y-65012380D02*
X111899525Y-65107619D01*
X112566191Y-64107619D02*
X112661429Y-64107619D01*
X112661429Y-64107619D02*
X112756667Y-64155238D01*
X112756667Y-64155238D02*
X112804286Y-64202857D01*
X112804286Y-64202857D02*
X112851905Y-64298095D01*
X112851905Y-64298095D02*
X112899524Y-64488571D01*
X112899524Y-64488571D02*
X112899524Y-64726666D01*
X112899524Y-64726666D02*
X112851905Y-64917142D01*
X112851905Y-64917142D02*
X112804286Y-65012380D01*
X112804286Y-65012380D02*
X112756667Y-65060000D01*
X112756667Y-65060000D02*
X112661429Y-65107619D01*
X112661429Y-65107619D02*
X112566191Y-65107619D01*
X112566191Y-65107619D02*
X112470953Y-65060000D01*
X112470953Y-65060000D02*
X112423334Y-65012380D01*
X112423334Y-65012380D02*
X112375715Y-64917142D01*
X112375715Y-64917142D02*
X112328096Y-64726666D01*
X112328096Y-64726666D02*
X112328096Y-64488571D01*
X112328096Y-64488571D02*
X112375715Y-64298095D01*
X112375715Y-64298095D02*
X112423334Y-64202857D01*
X112423334Y-64202857D02*
X112470953Y-64155238D01*
X112470953Y-64155238D02*
X112566191Y-64107619D01*
X113851905Y-65107619D02*
X113280477Y-65107619D01*
X113566191Y-65107619D02*
X113566191Y-64107619D01*
X113566191Y-64107619D02*
X113470953Y-64250476D01*
X113470953Y-64250476D02*
X113375715Y-64345714D01*
X113375715Y-64345714D02*
X113280477Y-64393333D01*
X113481428Y-135563809D02*
X113624285Y-135611428D01*
X113624285Y-135611428D02*
X113671904Y-135659047D01*
X113671904Y-135659047D02*
X113719523Y-135754285D01*
X113719523Y-135754285D02*
X113719523Y-135897142D01*
X113719523Y-135897142D02*
X113671904Y-135992380D01*
X113671904Y-135992380D02*
X113624285Y-136040000D01*
X113624285Y-136040000D02*
X113529047Y-136087619D01*
X113529047Y-136087619D02*
X113148095Y-136087619D01*
X113148095Y-136087619D02*
X113148095Y-135087619D01*
X113148095Y-135087619D02*
X113481428Y-135087619D01*
X113481428Y-135087619D02*
X113576666Y-135135238D01*
X113576666Y-135135238D02*
X113624285Y-135182857D01*
X113624285Y-135182857D02*
X113671904Y-135278095D01*
X113671904Y-135278095D02*
X113671904Y-135373333D01*
X113671904Y-135373333D02*
X113624285Y-135468571D01*
X113624285Y-135468571D02*
X113576666Y-135516190D01*
X113576666Y-135516190D02*
X113481428Y-135563809D01*
X113481428Y-135563809D02*
X113148095Y-135563809D01*
X114290952Y-136087619D02*
X114195714Y-136040000D01*
X114195714Y-136040000D02*
X114148095Y-135944761D01*
X114148095Y-135944761D02*
X114148095Y-135087619D01*
X115100476Y-135420952D02*
X115100476Y-136087619D01*
X114671905Y-135420952D02*
X114671905Y-135944761D01*
X114671905Y-135944761D02*
X114719524Y-136040000D01*
X114719524Y-136040000D02*
X114814762Y-136087619D01*
X114814762Y-136087619D02*
X114957619Y-136087619D01*
X114957619Y-136087619D02*
X115052857Y-136040000D01*
X115052857Y-136040000D02*
X115100476Y-135992380D01*
X115957619Y-136040000D02*
X115862381Y-136087619D01*
X115862381Y-136087619D02*
X115671905Y-136087619D01*
X115671905Y-136087619D02*
X115576667Y-136040000D01*
X115576667Y-136040000D02*
X115529048Y-135944761D01*
X115529048Y-135944761D02*
X115529048Y-135563809D01*
X115529048Y-135563809D02*
X115576667Y-135468571D01*
X115576667Y-135468571D02*
X115671905Y-135420952D01*
X115671905Y-135420952D02*
X115862381Y-135420952D01*
X115862381Y-135420952D02*
X115957619Y-135468571D01*
X115957619Y-135468571D02*
X116005238Y-135563809D01*
X116005238Y-135563809D02*
X116005238Y-135659047D01*
X116005238Y-135659047D02*
X115529048Y-135754285D01*
X116290953Y-135420952D02*
X116671905Y-135420952D01*
X116433810Y-135087619D02*
X116433810Y-135944761D01*
X116433810Y-135944761D02*
X116481429Y-136040000D01*
X116481429Y-136040000D02*
X116576667Y-136087619D01*
X116576667Y-136087619D02*
X116671905Y-136087619D01*
X117148096Y-136087619D02*
X117052858Y-136040000D01*
X117052858Y-136040000D02*
X117005239Y-135992380D01*
X117005239Y-135992380D02*
X116957620Y-135897142D01*
X116957620Y-135897142D02*
X116957620Y-135611428D01*
X116957620Y-135611428D02*
X117005239Y-135516190D01*
X117005239Y-135516190D02*
X117052858Y-135468571D01*
X117052858Y-135468571D02*
X117148096Y-135420952D01*
X117148096Y-135420952D02*
X117290953Y-135420952D01*
X117290953Y-135420952D02*
X117386191Y-135468571D01*
X117386191Y-135468571D02*
X117433810Y-135516190D01*
X117433810Y-135516190D02*
X117481429Y-135611428D01*
X117481429Y-135611428D02*
X117481429Y-135897142D01*
X117481429Y-135897142D02*
X117433810Y-135992380D01*
X117433810Y-135992380D02*
X117386191Y-136040000D01*
X117386191Y-136040000D02*
X117290953Y-136087619D01*
X117290953Y-136087619D02*
X117148096Y-136087619D01*
X118052858Y-136087619D02*
X117957620Y-136040000D01*
X117957620Y-136040000D02*
X117910001Y-135992380D01*
X117910001Y-135992380D02*
X117862382Y-135897142D01*
X117862382Y-135897142D02*
X117862382Y-135611428D01*
X117862382Y-135611428D02*
X117910001Y-135516190D01*
X117910001Y-135516190D02*
X117957620Y-135468571D01*
X117957620Y-135468571D02*
X118052858Y-135420952D01*
X118052858Y-135420952D02*
X118195715Y-135420952D01*
X118195715Y-135420952D02*
X118290953Y-135468571D01*
X118290953Y-135468571D02*
X118338572Y-135516190D01*
X118338572Y-135516190D02*
X118386191Y-135611428D01*
X118386191Y-135611428D02*
X118386191Y-135897142D01*
X118386191Y-135897142D02*
X118338572Y-135992380D01*
X118338572Y-135992380D02*
X118290953Y-136040000D01*
X118290953Y-136040000D02*
X118195715Y-136087619D01*
X118195715Y-136087619D02*
X118052858Y-136087619D01*
X118671906Y-135420952D02*
X119052858Y-135420952D01*
X118814763Y-135087619D02*
X118814763Y-135944761D01*
X118814763Y-135944761D02*
X118862382Y-136040000D01*
X118862382Y-136040000D02*
X118957620Y-136087619D01*
X118957620Y-136087619D02*
X119052858Y-136087619D01*
X119386192Y-136087619D02*
X119386192Y-135087619D01*
X119814763Y-136087619D02*
X119814763Y-135563809D01*
X119814763Y-135563809D02*
X119767144Y-135468571D01*
X119767144Y-135468571D02*
X119671906Y-135420952D01*
X119671906Y-135420952D02*
X119529049Y-135420952D01*
X119529049Y-135420952D02*
X119433811Y-135468571D01*
X119433811Y-135468571D02*
X119386192Y-135516190D01*
X121005239Y-135040000D02*
X120148097Y-136325714D01*
X121243335Y-135087619D02*
X121481430Y-136087619D01*
X121481430Y-136087619D02*
X121671906Y-135373333D01*
X121671906Y-135373333D02*
X121862382Y-136087619D01*
X121862382Y-136087619D02*
X122100478Y-135087619D01*
X122481430Y-136087619D02*
X122481430Y-135087619D01*
X123290953Y-135563809D02*
X122957620Y-135563809D01*
X122957620Y-136087619D02*
X122957620Y-135087619D01*
X122957620Y-135087619D02*
X123433810Y-135087619D01*
X123814763Y-136087619D02*
X123814763Y-135087619D01*
X113148095Y-137183809D02*
X113481428Y-137183809D01*
X113624285Y-137707619D02*
X113148095Y-137707619D01*
X113148095Y-137707619D02*
X113148095Y-136707619D01*
X113148095Y-136707619D02*
X113624285Y-136707619D01*
X114005238Y-137660000D02*
X114148095Y-137707619D01*
X114148095Y-137707619D02*
X114386190Y-137707619D01*
X114386190Y-137707619D02*
X114481428Y-137660000D01*
X114481428Y-137660000D02*
X114529047Y-137612380D01*
X114529047Y-137612380D02*
X114576666Y-137517142D01*
X114576666Y-137517142D02*
X114576666Y-137421904D01*
X114576666Y-137421904D02*
X114529047Y-137326666D01*
X114529047Y-137326666D02*
X114481428Y-137279047D01*
X114481428Y-137279047D02*
X114386190Y-137231428D01*
X114386190Y-137231428D02*
X114195714Y-137183809D01*
X114195714Y-137183809D02*
X114100476Y-137136190D01*
X114100476Y-137136190D02*
X114052857Y-137088571D01*
X114052857Y-137088571D02*
X114005238Y-136993333D01*
X114005238Y-136993333D02*
X114005238Y-136898095D01*
X114005238Y-136898095D02*
X114052857Y-136802857D01*
X114052857Y-136802857D02*
X114100476Y-136755238D01*
X114100476Y-136755238D02*
X114195714Y-136707619D01*
X114195714Y-136707619D02*
X114433809Y-136707619D01*
X114433809Y-136707619D02*
X114576666Y-136755238D01*
X115005238Y-137707619D02*
X115005238Y-136707619D01*
X115005238Y-136707619D02*
X115386190Y-136707619D01*
X115386190Y-136707619D02*
X115481428Y-136755238D01*
X115481428Y-136755238D02*
X115529047Y-136802857D01*
X115529047Y-136802857D02*
X115576666Y-136898095D01*
X115576666Y-136898095D02*
X115576666Y-137040952D01*
X115576666Y-137040952D02*
X115529047Y-137136190D01*
X115529047Y-137136190D02*
X115481428Y-137183809D01*
X115481428Y-137183809D02*
X115386190Y-137231428D01*
X115386190Y-137231428D02*
X115005238Y-137231428D01*
X115910000Y-136707619D02*
X116529047Y-136707619D01*
X116529047Y-136707619D02*
X116195714Y-137088571D01*
X116195714Y-137088571D02*
X116338571Y-137088571D01*
X116338571Y-137088571D02*
X116433809Y-137136190D01*
X116433809Y-137136190D02*
X116481428Y-137183809D01*
X116481428Y-137183809D02*
X116529047Y-137279047D01*
X116529047Y-137279047D02*
X116529047Y-137517142D01*
X116529047Y-137517142D02*
X116481428Y-137612380D01*
X116481428Y-137612380D02*
X116433809Y-137660000D01*
X116433809Y-137660000D02*
X116338571Y-137707619D01*
X116338571Y-137707619D02*
X116052857Y-137707619D01*
X116052857Y-137707619D02*
X115957619Y-137660000D01*
X115957619Y-137660000D02*
X115910000Y-137612380D01*
X116910000Y-136802857D02*
X116957619Y-136755238D01*
X116957619Y-136755238D02*
X117052857Y-136707619D01*
X117052857Y-136707619D02*
X117290952Y-136707619D01*
X117290952Y-136707619D02*
X117386190Y-136755238D01*
X117386190Y-136755238D02*
X117433809Y-136802857D01*
X117433809Y-136802857D02*
X117481428Y-136898095D01*
X117481428Y-136898095D02*
X117481428Y-136993333D01*
X117481428Y-136993333D02*
X117433809Y-137136190D01*
X117433809Y-137136190D02*
X116862381Y-137707619D01*
X116862381Y-137707619D02*
X117481428Y-137707619D01*
X118576667Y-137040952D02*
X118814762Y-137707619D01*
X118814762Y-137707619D02*
X119052857Y-137040952D01*
X149208095Y-96567619D02*
X149208095Y-97377142D01*
X149208095Y-97377142D02*
X149255714Y-97472380D01*
X149255714Y-97472380D02*
X149303333Y-97520000D01*
X149303333Y-97520000D02*
X149398571Y-97567619D01*
X149398571Y-97567619D02*
X149589047Y-97567619D01*
X149589047Y-97567619D02*
X149684285Y-97520000D01*
X149684285Y-97520000D02*
X149731904Y-97472380D01*
X149731904Y-97472380D02*
X149779523Y-97377142D01*
X149779523Y-97377142D02*
X149779523Y-96567619D01*
X150208095Y-97520000D02*
X150350952Y-97567619D01*
X150350952Y-97567619D02*
X150589047Y-97567619D01*
X150589047Y-97567619D02*
X150684285Y-97520000D01*
X150684285Y-97520000D02*
X150731904Y-97472380D01*
X150731904Y-97472380D02*
X150779523Y-97377142D01*
X150779523Y-97377142D02*
X150779523Y-97281904D01*
X150779523Y-97281904D02*
X150731904Y-97186666D01*
X150731904Y-97186666D02*
X150684285Y-97139047D01*
X150684285Y-97139047D02*
X150589047Y-97091428D01*
X150589047Y-97091428D02*
X150398571Y-97043809D01*
X150398571Y-97043809D02*
X150303333Y-96996190D01*
X150303333Y-96996190D02*
X150255714Y-96948571D01*
X150255714Y-96948571D02*
X150208095Y-96853333D01*
X150208095Y-96853333D02*
X150208095Y-96758095D01*
X150208095Y-96758095D02*
X150255714Y-96662857D01*
X150255714Y-96662857D02*
X150303333Y-96615238D01*
X150303333Y-96615238D02*
X150398571Y-96567619D01*
X150398571Y-96567619D02*
X150636666Y-96567619D01*
X150636666Y-96567619D02*
X150779523Y-96615238D01*
X151541428Y-97043809D02*
X151684285Y-97091428D01*
X151684285Y-97091428D02*
X151731904Y-97139047D01*
X151731904Y-97139047D02*
X151779523Y-97234285D01*
X151779523Y-97234285D02*
X151779523Y-97377142D01*
X151779523Y-97377142D02*
X151731904Y-97472380D01*
X151731904Y-97472380D02*
X151684285Y-97520000D01*
X151684285Y-97520000D02*
X151589047Y-97567619D01*
X151589047Y-97567619D02*
X151208095Y-97567619D01*
X151208095Y-97567619D02*
X151208095Y-96567619D01*
X151208095Y-96567619D02*
X151541428Y-96567619D01*
X151541428Y-96567619D02*
X151636666Y-96615238D01*
X151636666Y-96615238D02*
X151684285Y-96662857D01*
X151684285Y-96662857D02*
X151731904Y-96758095D01*
X151731904Y-96758095D02*
X151731904Y-96853333D01*
X151731904Y-96853333D02*
X151684285Y-96948571D01*
X151684285Y-96948571D02*
X151636666Y-96996190D01*
X151636666Y-96996190D02*
X151541428Y-97043809D01*
X151541428Y-97043809D02*
X151208095Y-97043809D01*
X153160476Y-96567619D02*
X153255714Y-96567619D01*
X153255714Y-96567619D02*
X153350952Y-96615238D01*
X153350952Y-96615238D02*
X153398571Y-96662857D01*
X153398571Y-96662857D02*
X153446190Y-96758095D01*
X153446190Y-96758095D02*
X153493809Y-96948571D01*
X153493809Y-96948571D02*
X153493809Y-97186666D01*
X153493809Y-97186666D02*
X153446190Y-97377142D01*
X153446190Y-97377142D02*
X153398571Y-97472380D01*
X153398571Y-97472380D02*
X153350952Y-97520000D01*
X153350952Y-97520000D02*
X153255714Y-97567619D01*
X153255714Y-97567619D02*
X153160476Y-97567619D01*
X153160476Y-97567619D02*
X153065238Y-97520000D01*
X153065238Y-97520000D02*
X153017619Y-97472380D01*
X153017619Y-97472380D02*
X152970000Y-97377142D01*
X152970000Y-97377142D02*
X152922381Y-97186666D01*
X152922381Y-97186666D02*
X152922381Y-96948571D01*
X152922381Y-96948571D02*
X152970000Y-96758095D01*
X152970000Y-96758095D02*
X153017619Y-96662857D01*
X153017619Y-96662857D02*
X153065238Y-96615238D01*
X153065238Y-96615238D02*
X153160476Y-96567619D01*
X154541429Y-96662857D02*
X154731905Y-96520000D01*
X154731905Y-96520000D02*
X154922381Y-96662857D01*
X123400476Y-143181904D02*
X123876666Y-143181904D01*
X123305238Y-143467619D02*
X123638571Y-142467619D01*
X123638571Y-142467619D02*
X123971904Y-143467619D01*
X124733809Y-142800952D02*
X124733809Y-143467619D01*
X124305238Y-142800952D02*
X124305238Y-143324761D01*
X124305238Y-143324761D02*
X124352857Y-143420000D01*
X124352857Y-143420000D02*
X124448095Y-143467619D01*
X124448095Y-143467619D02*
X124590952Y-143467619D01*
X124590952Y-143467619D02*
X124686190Y-143420000D01*
X124686190Y-143420000D02*
X124733809Y-143372380D01*
X125638571Y-143467619D02*
X125638571Y-142467619D01*
X125638571Y-143420000D02*
X125543333Y-143467619D01*
X125543333Y-143467619D02*
X125352857Y-143467619D01*
X125352857Y-143467619D02*
X125257619Y-143420000D01*
X125257619Y-143420000D02*
X125210000Y-143372380D01*
X125210000Y-143372380D02*
X125162381Y-143277142D01*
X125162381Y-143277142D02*
X125162381Y-142991428D01*
X125162381Y-142991428D02*
X125210000Y-142896190D01*
X125210000Y-142896190D02*
X125257619Y-142848571D01*
X125257619Y-142848571D02*
X125352857Y-142800952D01*
X125352857Y-142800952D02*
X125543333Y-142800952D01*
X125543333Y-142800952D02*
X125638571Y-142848571D01*
X126114762Y-143467619D02*
X126114762Y-142800952D01*
X126114762Y-142467619D02*
X126067143Y-142515238D01*
X126067143Y-142515238D02*
X126114762Y-142562857D01*
X126114762Y-142562857D02*
X126162381Y-142515238D01*
X126162381Y-142515238D02*
X126114762Y-142467619D01*
X126114762Y-142467619D02*
X126114762Y-142562857D01*
X126733809Y-143467619D02*
X126638571Y-143420000D01*
X126638571Y-143420000D02*
X126590952Y-143372380D01*
X126590952Y-143372380D02*
X126543333Y-143277142D01*
X126543333Y-143277142D02*
X126543333Y-142991428D01*
X126543333Y-142991428D02*
X126590952Y-142896190D01*
X126590952Y-142896190D02*
X126638571Y-142848571D01*
X126638571Y-142848571D02*
X126733809Y-142800952D01*
X126733809Y-142800952D02*
X126876666Y-142800952D01*
X126876666Y-142800952D02*
X126971904Y-142848571D01*
X126971904Y-142848571D02*
X127019523Y-142896190D01*
X127019523Y-142896190D02*
X127067142Y-142991428D01*
X127067142Y-142991428D02*
X127067142Y-143277142D01*
X127067142Y-143277142D02*
X127019523Y-143372380D01*
X127019523Y-143372380D02*
X126971904Y-143420000D01*
X126971904Y-143420000D02*
X126876666Y-143467619D01*
X126876666Y-143467619D02*
X126733809Y-143467619D01*
X128162381Y-142800952D02*
X128400476Y-143467619D01*
X128400476Y-143467619D02*
X128638571Y-142800952D01*
X132338095Y-150377619D02*
X132338095Y-149377619D01*
X132338095Y-149377619D02*
X132671428Y-150091904D01*
X132671428Y-150091904D02*
X133004761Y-149377619D01*
X133004761Y-149377619D02*
X133004761Y-150377619D01*
X133480952Y-150377619D02*
X133480952Y-149710952D01*
X133480952Y-149377619D02*
X133433333Y-149425238D01*
X133433333Y-149425238D02*
X133480952Y-149472857D01*
X133480952Y-149472857D02*
X133528571Y-149425238D01*
X133528571Y-149425238D02*
X133480952Y-149377619D01*
X133480952Y-149377619D02*
X133480952Y-149472857D01*
X134385713Y-150330000D02*
X134290475Y-150377619D01*
X134290475Y-150377619D02*
X134099999Y-150377619D01*
X134099999Y-150377619D02*
X134004761Y-150330000D01*
X134004761Y-150330000D02*
X133957142Y-150282380D01*
X133957142Y-150282380D02*
X133909523Y-150187142D01*
X133909523Y-150187142D02*
X133909523Y-149901428D01*
X133909523Y-149901428D02*
X133957142Y-149806190D01*
X133957142Y-149806190D02*
X134004761Y-149758571D01*
X134004761Y-149758571D02*
X134099999Y-149710952D01*
X134099999Y-149710952D02*
X134290475Y-149710952D01*
X134290475Y-149710952D02*
X134385713Y-149758571D01*
X135480952Y-149710952D02*
X135719047Y-150377619D01*
X135719047Y-150377619D02*
X135957142Y-149710952D01*
X149268095Y-137247619D02*
X149268095Y-138057142D01*
X149268095Y-138057142D02*
X149315714Y-138152380D01*
X149315714Y-138152380D02*
X149363333Y-138200000D01*
X149363333Y-138200000D02*
X149458571Y-138247619D01*
X149458571Y-138247619D02*
X149649047Y-138247619D01*
X149649047Y-138247619D02*
X149744285Y-138200000D01*
X149744285Y-138200000D02*
X149791904Y-138152380D01*
X149791904Y-138152380D02*
X149839523Y-138057142D01*
X149839523Y-138057142D02*
X149839523Y-137247619D01*
X150268095Y-138200000D02*
X150410952Y-138247619D01*
X150410952Y-138247619D02*
X150649047Y-138247619D01*
X150649047Y-138247619D02*
X150744285Y-138200000D01*
X150744285Y-138200000D02*
X150791904Y-138152380D01*
X150791904Y-138152380D02*
X150839523Y-138057142D01*
X150839523Y-138057142D02*
X150839523Y-137961904D01*
X150839523Y-137961904D02*
X150791904Y-137866666D01*
X150791904Y-137866666D02*
X150744285Y-137819047D01*
X150744285Y-137819047D02*
X150649047Y-137771428D01*
X150649047Y-137771428D02*
X150458571Y-137723809D01*
X150458571Y-137723809D02*
X150363333Y-137676190D01*
X150363333Y-137676190D02*
X150315714Y-137628571D01*
X150315714Y-137628571D02*
X150268095Y-137533333D01*
X150268095Y-137533333D02*
X150268095Y-137438095D01*
X150268095Y-137438095D02*
X150315714Y-137342857D01*
X150315714Y-137342857D02*
X150363333Y-137295238D01*
X150363333Y-137295238D02*
X150458571Y-137247619D01*
X150458571Y-137247619D02*
X150696666Y-137247619D01*
X150696666Y-137247619D02*
X150839523Y-137295238D01*
X151601428Y-137723809D02*
X151744285Y-137771428D01*
X151744285Y-137771428D02*
X151791904Y-137819047D01*
X151791904Y-137819047D02*
X151839523Y-137914285D01*
X151839523Y-137914285D02*
X151839523Y-138057142D01*
X151839523Y-138057142D02*
X151791904Y-138152380D01*
X151791904Y-138152380D02*
X151744285Y-138200000D01*
X151744285Y-138200000D02*
X151649047Y-138247619D01*
X151649047Y-138247619D02*
X151268095Y-138247619D01*
X151268095Y-138247619D02*
X151268095Y-137247619D01*
X151268095Y-137247619D02*
X151601428Y-137247619D01*
X151601428Y-137247619D02*
X151696666Y-137295238D01*
X151696666Y-137295238D02*
X151744285Y-137342857D01*
X151744285Y-137342857D02*
X151791904Y-137438095D01*
X151791904Y-137438095D02*
X151791904Y-137533333D01*
X151791904Y-137533333D02*
X151744285Y-137628571D01*
X151744285Y-137628571D02*
X151696666Y-137676190D01*
X151696666Y-137676190D02*
X151601428Y-137723809D01*
X151601428Y-137723809D02*
X151268095Y-137723809D01*
X153553809Y-138247619D02*
X152982381Y-138247619D01*
X153268095Y-138247619D02*
X153268095Y-137247619D01*
X153268095Y-137247619D02*
X153172857Y-137390476D01*
X153172857Y-137390476D02*
X153077619Y-137485714D01*
X153077619Y-137485714D02*
X152982381Y-137533333D01*
X154601429Y-137342857D02*
X154791905Y-137200000D01*
X154791905Y-137200000D02*
X154982381Y-137342857D01*
X121879523Y-113742380D02*
X121831904Y-113790000D01*
X121831904Y-113790000D02*
X121689047Y-113837619D01*
X121689047Y-113837619D02*
X121593809Y-113837619D01*
X121593809Y-113837619D02*
X121450952Y-113790000D01*
X121450952Y-113790000D02*
X121355714Y-113694761D01*
X121355714Y-113694761D02*
X121308095Y-113599523D01*
X121308095Y-113599523D02*
X121260476Y-113409047D01*
X121260476Y-113409047D02*
X121260476Y-113266190D01*
X121260476Y-113266190D02*
X121308095Y-113075714D01*
X121308095Y-113075714D02*
X121355714Y-112980476D01*
X121355714Y-112980476D02*
X121450952Y-112885238D01*
X121450952Y-112885238D02*
X121593809Y-112837619D01*
X121593809Y-112837619D02*
X121689047Y-112837619D01*
X121689047Y-112837619D02*
X121831904Y-112885238D01*
X121831904Y-112885238D02*
X121879523Y-112932857D01*
X122736666Y-113170952D02*
X122736666Y-113837619D01*
X122308095Y-113170952D02*
X122308095Y-113694761D01*
X122308095Y-113694761D02*
X122355714Y-113790000D01*
X122355714Y-113790000D02*
X122450952Y-113837619D01*
X122450952Y-113837619D02*
X122593809Y-113837619D01*
X122593809Y-113837619D02*
X122689047Y-113790000D01*
X122689047Y-113790000D02*
X122736666Y-113742380D01*
X123165238Y-113790000D02*
X123260476Y-113837619D01*
X123260476Y-113837619D02*
X123450952Y-113837619D01*
X123450952Y-113837619D02*
X123546190Y-113790000D01*
X123546190Y-113790000D02*
X123593809Y-113694761D01*
X123593809Y-113694761D02*
X123593809Y-113647142D01*
X123593809Y-113647142D02*
X123546190Y-113551904D01*
X123546190Y-113551904D02*
X123450952Y-113504285D01*
X123450952Y-113504285D02*
X123308095Y-113504285D01*
X123308095Y-113504285D02*
X123212857Y-113456666D01*
X123212857Y-113456666D02*
X123165238Y-113361428D01*
X123165238Y-113361428D02*
X123165238Y-113313809D01*
X123165238Y-113313809D02*
X123212857Y-113218571D01*
X123212857Y-113218571D02*
X123308095Y-113170952D01*
X123308095Y-113170952D02*
X123450952Y-113170952D01*
X123450952Y-113170952D02*
X123546190Y-113218571D01*
X123879524Y-113170952D02*
X124260476Y-113170952D01*
X124022381Y-112837619D02*
X124022381Y-113694761D01*
X124022381Y-113694761D02*
X124070000Y-113790000D01*
X124070000Y-113790000D02*
X124165238Y-113837619D01*
X124165238Y-113837619D02*
X124260476Y-113837619D01*
X124736667Y-113837619D02*
X124641429Y-113790000D01*
X124641429Y-113790000D02*
X124593810Y-113742380D01*
X124593810Y-113742380D02*
X124546191Y-113647142D01*
X124546191Y-113647142D02*
X124546191Y-113361428D01*
X124546191Y-113361428D02*
X124593810Y-113266190D01*
X124593810Y-113266190D02*
X124641429Y-113218571D01*
X124641429Y-113218571D02*
X124736667Y-113170952D01*
X124736667Y-113170952D02*
X124879524Y-113170952D01*
X124879524Y-113170952D02*
X124974762Y-113218571D01*
X124974762Y-113218571D02*
X125022381Y-113266190D01*
X125022381Y-113266190D02*
X125070000Y-113361428D01*
X125070000Y-113361428D02*
X125070000Y-113647142D01*
X125070000Y-113647142D02*
X125022381Y-113742380D01*
X125022381Y-113742380D02*
X124974762Y-113790000D01*
X124974762Y-113790000D02*
X124879524Y-113837619D01*
X124879524Y-113837619D02*
X124736667Y-113837619D01*
X125498572Y-113837619D02*
X125498572Y-113170952D01*
X125498572Y-113266190D02*
X125546191Y-113218571D01*
X125546191Y-113218571D02*
X125641429Y-113170952D01*
X125641429Y-113170952D02*
X125784286Y-113170952D01*
X125784286Y-113170952D02*
X125879524Y-113218571D01*
X125879524Y-113218571D02*
X125927143Y-113313809D01*
X125927143Y-113313809D02*
X125927143Y-113837619D01*
X125927143Y-113313809D02*
X125974762Y-113218571D01*
X125974762Y-113218571D02*
X126070000Y-113170952D01*
X126070000Y-113170952D02*
X126212857Y-113170952D01*
X126212857Y-113170952D02*
X126308096Y-113218571D01*
X126308096Y-113218571D02*
X126355715Y-113313809D01*
X126355715Y-113313809D02*
X126355715Y-113837619D01*
X127546191Y-113790000D02*
X127689048Y-113837619D01*
X127689048Y-113837619D02*
X127927143Y-113837619D01*
X127927143Y-113837619D02*
X128022381Y-113790000D01*
X128022381Y-113790000D02*
X128070000Y-113742380D01*
X128070000Y-113742380D02*
X128117619Y-113647142D01*
X128117619Y-113647142D02*
X128117619Y-113551904D01*
X128117619Y-113551904D02*
X128070000Y-113456666D01*
X128070000Y-113456666D02*
X128022381Y-113409047D01*
X128022381Y-113409047D02*
X127927143Y-113361428D01*
X127927143Y-113361428D02*
X127736667Y-113313809D01*
X127736667Y-113313809D02*
X127641429Y-113266190D01*
X127641429Y-113266190D02*
X127593810Y-113218571D01*
X127593810Y-113218571D02*
X127546191Y-113123333D01*
X127546191Y-113123333D02*
X127546191Y-113028095D01*
X127546191Y-113028095D02*
X127593810Y-112932857D01*
X127593810Y-112932857D02*
X127641429Y-112885238D01*
X127641429Y-112885238D02*
X127736667Y-112837619D01*
X127736667Y-112837619D02*
X127974762Y-112837619D01*
X127974762Y-112837619D02*
X128117619Y-112885238D01*
X128689048Y-113837619D02*
X128593810Y-113790000D01*
X128593810Y-113790000D02*
X128546191Y-113742380D01*
X128546191Y-113742380D02*
X128498572Y-113647142D01*
X128498572Y-113647142D02*
X128498572Y-113361428D01*
X128498572Y-113361428D02*
X128546191Y-113266190D01*
X128546191Y-113266190D02*
X128593810Y-113218571D01*
X128593810Y-113218571D02*
X128689048Y-113170952D01*
X128689048Y-113170952D02*
X128831905Y-113170952D01*
X128831905Y-113170952D02*
X128927143Y-113218571D01*
X128927143Y-113218571D02*
X128974762Y-113266190D01*
X128974762Y-113266190D02*
X129022381Y-113361428D01*
X129022381Y-113361428D02*
X129022381Y-113647142D01*
X129022381Y-113647142D02*
X128974762Y-113742380D01*
X128974762Y-113742380D02*
X128927143Y-113790000D01*
X128927143Y-113790000D02*
X128831905Y-113837619D01*
X128831905Y-113837619D02*
X128689048Y-113837619D01*
X130022381Y-113742380D02*
X129974762Y-113790000D01*
X129974762Y-113790000D02*
X129831905Y-113837619D01*
X129831905Y-113837619D02*
X129736667Y-113837619D01*
X129736667Y-113837619D02*
X129593810Y-113790000D01*
X129593810Y-113790000D02*
X129498572Y-113694761D01*
X129498572Y-113694761D02*
X129450953Y-113599523D01*
X129450953Y-113599523D02*
X129403334Y-113409047D01*
X129403334Y-113409047D02*
X129403334Y-113266190D01*
X129403334Y-113266190D02*
X129450953Y-113075714D01*
X129450953Y-113075714D02*
X129498572Y-112980476D01*
X129498572Y-112980476D02*
X129593810Y-112885238D01*
X129593810Y-112885238D02*
X129736667Y-112837619D01*
X129736667Y-112837619D02*
X129831905Y-112837619D01*
X129831905Y-112837619D02*
X129974762Y-112885238D01*
X129974762Y-112885238D02*
X130022381Y-112932857D01*
X131070001Y-112932857D02*
X131260477Y-112790000D01*
X131260477Y-112790000D02*
X131450953Y-112932857D01*
X121212857Y-114457619D02*
X121879523Y-114457619D01*
X121879523Y-114457619D02*
X121212857Y-115457619D01*
X121212857Y-115457619D02*
X121879523Y-115457619D01*
X122165238Y-114790952D02*
X122403333Y-115457619D01*
X122641428Y-114790952D02*
X122403333Y-115457619D01*
X122403333Y-115457619D02*
X122308095Y-115695714D01*
X122308095Y-115695714D02*
X122260476Y-115743333D01*
X122260476Y-115743333D02*
X122165238Y-115790952D01*
X123022381Y-114790952D02*
X123022381Y-115457619D01*
X123022381Y-114886190D02*
X123070000Y-114838571D01*
X123070000Y-114838571D02*
X123165238Y-114790952D01*
X123165238Y-114790952D02*
X123308095Y-114790952D01*
X123308095Y-114790952D02*
X123403333Y-114838571D01*
X123403333Y-114838571D02*
X123450952Y-114933809D01*
X123450952Y-114933809D02*
X123450952Y-115457619D01*
X124355714Y-114790952D02*
X124355714Y-115790952D01*
X124355714Y-115410000D02*
X124260476Y-115457619D01*
X124260476Y-115457619D02*
X124070000Y-115457619D01*
X124070000Y-115457619D02*
X123974762Y-115410000D01*
X123974762Y-115410000D02*
X123927143Y-115362380D01*
X123927143Y-115362380D02*
X123879524Y-115267142D01*
X123879524Y-115267142D02*
X123879524Y-114981428D01*
X123879524Y-114981428D02*
X123927143Y-114886190D01*
X123927143Y-114886190D02*
X123974762Y-114838571D01*
X123974762Y-114838571D02*
X124070000Y-114790952D01*
X124070000Y-114790952D02*
X124260476Y-114790952D01*
X124260476Y-114790952D02*
X124355714Y-114838571D01*
X125498572Y-114457619D02*
X126165238Y-114457619D01*
X126165238Y-114457619D02*
X125736667Y-115457619D01*
X126736667Y-114457619D02*
X126831905Y-114457619D01*
X126831905Y-114457619D02*
X126927143Y-114505238D01*
X126927143Y-114505238D02*
X126974762Y-114552857D01*
X126974762Y-114552857D02*
X127022381Y-114648095D01*
X127022381Y-114648095D02*
X127070000Y-114838571D01*
X127070000Y-114838571D02*
X127070000Y-115076666D01*
X127070000Y-115076666D02*
X127022381Y-115267142D01*
X127022381Y-115267142D02*
X126974762Y-115362380D01*
X126974762Y-115362380D02*
X126927143Y-115410000D01*
X126927143Y-115410000D02*
X126831905Y-115457619D01*
X126831905Y-115457619D02*
X126736667Y-115457619D01*
X126736667Y-115457619D02*
X126641429Y-115410000D01*
X126641429Y-115410000D02*
X126593810Y-115362380D01*
X126593810Y-115362380D02*
X126546191Y-115267142D01*
X126546191Y-115267142D02*
X126498572Y-115076666D01*
X126498572Y-115076666D02*
X126498572Y-114838571D01*
X126498572Y-114838571D02*
X126546191Y-114648095D01*
X126546191Y-114648095D02*
X126593810Y-114552857D01*
X126593810Y-114552857D02*
X126641429Y-114505238D01*
X126641429Y-114505238D02*
X126736667Y-114457619D01*
X127450953Y-114552857D02*
X127498572Y-114505238D01*
X127498572Y-114505238D02*
X127593810Y-114457619D01*
X127593810Y-114457619D02*
X127831905Y-114457619D01*
X127831905Y-114457619D02*
X127927143Y-114505238D01*
X127927143Y-114505238D02*
X127974762Y-114552857D01*
X127974762Y-114552857D02*
X128022381Y-114648095D01*
X128022381Y-114648095D02*
X128022381Y-114743333D01*
X128022381Y-114743333D02*
X127974762Y-114886190D01*
X127974762Y-114886190D02*
X127403334Y-115457619D01*
X127403334Y-115457619D02*
X128022381Y-115457619D01*
X128641429Y-114457619D02*
X128736667Y-114457619D01*
X128736667Y-114457619D02*
X128831905Y-114505238D01*
X128831905Y-114505238D02*
X128879524Y-114552857D01*
X128879524Y-114552857D02*
X128927143Y-114648095D01*
X128927143Y-114648095D02*
X128974762Y-114838571D01*
X128974762Y-114838571D02*
X128974762Y-115076666D01*
X128974762Y-115076666D02*
X128927143Y-115267142D01*
X128927143Y-115267142D02*
X128879524Y-115362380D01*
X128879524Y-115362380D02*
X128831905Y-115410000D01*
X128831905Y-115410000D02*
X128736667Y-115457619D01*
X128736667Y-115457619D02*
X128641429Y-115457619D01*
X128641429Y-115457619D02*
X128546191Y-115410000D01*
X128546191Y-115410000D02*
X128498572Y-115362380D01*
X128498572Y-115362380D02*
X128450953Y-115267142D01*
X128450953Y-115267142D02*
X128403334Y-115076666D01*
X128403334Y-115076666D02*
X128403334Y-114838571D01*
X128403334Y-114838571D02*
X128450953Y-114648095D01*
X128450953Y-114648095D02*
X128498572Y-114552857D01*
X128498572Y-114552857D02*
X128546191Y-114505238D01*
X128546191Y-114505238D02*
X128641429Y-114457619D01*
X115878095Y-81837619D02*
X115878095Y-80837619D01*
X115878095Y-80837619D02*
X116259047Y-80837619D01*
X116259047Y-80837619D02*
X116354285Y-80885238D01*
X116354285Y-80885238D02*
X116401904Y-80932857D01*
X116401904Y-80932857D02*
X116449523Y-81028095D01*
X116449523Y-81028095D02*
X116449523Y-81170952D01*
X116449523Y-81170952D02*
X116401904Y-81266190D01*
X116401904Y-81266190D02*
X116354285Y-81313809D01*
X116354285Y-81313809D02*
X116259047Y-81361428D01*
X116259047Y-81361428D02*
X115878095Y-81361428D01*
X116878095Y-81837619D02*
X116878095Y-80837619D01*
X116878095Y-80837619D02*
X117211428Y-81551904D01*
X117211428Y-81551904D02*
X117544761Y-80837619D01*
X117544761Y-80837619D02*
X117544761Y-81837619D01*
X118211428Y-80837619D02*
X118401904Y-80837619D01*
X118401904Y-80837619D02*
X118497142Y-80885238D01*
X118497142Y-80885238D02*
X118592380Y-80980476D01*
X118592380Y-80980476D02*
X118639999Y-81170952D01*
X118639999Y-81170952D02*
X118639999Y-81504285D01*
X118639999Y-81504285D02*
X118592380Y-81694761D01*
X118592380Y-81694761D02*
X118497142Y-81790000D01*
X118497142Y-81790000D02*
X118401904Y-81837619D01*
X118401904Y-81837619D02*
X118211428Y-81837619D01*
X118211428Y-81837619D02*
X118116190Y-81790000D01*
X118116190Y-81790000D02*
X118020952Y-81694761D01*
X118020952Y-81694761D02*
X117973333Y-81504285D01*
X117973333Y-81504285D02*
X117973333Y-81170952D01*
X117973333Y-81170952D02*
X118020952Y-80980476D01*
X118020952Y-80980476D02*
X118116190Y-80885238D01*
X118116190Y-80885238D02*
X118211428Y-80837619D01*
X119068571Y-81837619D02*
X119068571Y-80837619D01*
X119068571Y-80837619D02*
X119306666Y-80837619D01*
X119306666Y-80837619D02*
X119449523Y-80885238D01*
X119449523Y-80885238D02*
X119544761Y-80980476D01*
X119544761Y-80980476D02*
X119592380Y-81075714D01*
X119592380Y-81075714D02*
X119639999Y-81266190D01*
X119639999Y-81266190D02*
X119639999Y-81409047D01*
X119639999Y-81409047D02*
X119592380Y-81599523D01*
X119592380Y-81599523D02*
X119544761Y-81694761D01*
X119544761Y-81694761D02*
X119449523Y-81790000D01*
X119449523Y-81790000D02*
X119306666Y-81837619D01*
X119306666Y-81837619D02*
X119068571Y-81837619D01*
X121020952Y-80837619D02*
X121116190Y-80837619D01*
X121116190Y-80837619D02*
X121211428Y-80885238D01*
X121211428Y-80885238D02*
X121259047Y-80932857D01*
X121259047Y-80932857D02*
X121306666Y-81028095D01*
X121306666Y-81028095D02*
X121354285Y-81218571D01*
X121354285Y-81218571D02*
X121354285Y-81456666D01*
X121354285Y-81456666D02*
X121306666Y-81647142D01*
X121306666Y-81647142D02*
X121259047Y-81742380D01*
X121259047Y-81742380D02*
X121211428Y-81790000D01*
X121211428Y-81790000D02*
X121116190Y-81837619D01*
X121116190Y-81837619D02*
X121020952Y-81837619D01*
X121020952Y-81837619D02*
X120925714Y-81790000D01*
X120925714Y-81790000D02*
X120878095Y-81742380D01*
X120878095Y-81742380D02*
X120830476Y-81647142D01*
X120830476Y-81647142D02*
X120782857Y-81456666D01*
X120782857Y-81456666D02*
X120782857Y-81218571D01*
X120782857Y-81218571D02*
X120830476Y-81028095D01*
X120830476Y-81028095D02*
X120878095Y-80932857D01*
X120878095Y-80932857D02*
X120925714Y-80885238D01*
X120925714Y-80885238D02*
X121020952Y-80837619D01*
X122401905Y-80932857D02*
X122592381Y-80790000D01*
X122592381Y-80790000D02*
X122782857Y-80932857D01*
X138588095Y-81447619D02*
X138588095Y-80447619D01*
X138588095Y-80447619D02*
X138969047Y-80447619D01*
X138969047Y-80447619D02*
X139064285Y-80495238D01*
X139064285Y-80495238D02*
X139111904Y-80542857D01*
X139111904Y-80542857D02*
X139159523Y-80638095D01*
X139159523Y-80638095D02*
X139159523Y-80780952D01*
X139159523Y-80780952D02*
X139111904Y-80876190D01*
X139111904Y-80876190D02*
X139064285Y-80923809D01*
X139064285Y-80923809D02*
X138969047Y-80971428D01*
X138969047Y-80971428D02*
X138588095Y-80971428D01*
X139588095Y-81447619D02*
X139588095Y-80447619D01*
X139588095Y-80447619D02*
X139921428Y-81161904D01*
X139921428Y-81161904D02*
X140254761Y-80447619D01*
X140254761Y-80447619D02*
X140254761Y-81447619D01*
X140921428Y-80447619D02*
X141111904Y-80447619D01*
X141111904Y-80447619D02*
X141207142Y-80495238D01*
X141207142Y-80495238D02*
X141302380Y-80590476D01*
X141302380Y-80590476D02*
X141349999Y-80780952D01*
X141349999Y-80780952D02*
X141349999Y-81114285D01*
X141349999Y-81114285D02*
X141302380Y-81304761D01*
X141302380Y-81304761D02*
X141207142Y-81400000D01*
X141207142Y-81400000D02*
X141111904Y-81447619D01*
X141111904Y-81447619D02*
X140921428Y-81447619D01*
X140921428Y-81447619D02*
X140826190Y-81400000D01*
X140826190Y-81400000D02*
X140730952Y-81304761D01*
X140730952Y-81304761D02*
X140683333Y-81114285D01*
X140683333Y-81114285D02*
X140683333Y-80780952D01*
X140683333Y-80780952D02*
X140730952Y-80590476D01*
X140730952Y-80590476D02*
X140826190Y-80495238D01*
X140826190Y-80495238D02*
X140921428Y-80447619D01*
X141778571Y-81447619D02*
X141778571Y-80447619D01*
X141778571Y-80447619D02*
X142016666Y-80447619D01*
X142016666Y-80447619D02*
X142159523Y-80495238D01*
X142159523Y-80495238D02*
X142254761Y-80590476D01*
X142254761Y-80590476D02*
X142302380Y-80685714D01*
X142302380Y-80685714D02*
X142349999Y-80876190D01*
X142349999Y-80876190D02*
X142349999Y-81019047D01*
X142349999Y-81019047D02*
X142302380Y-81209523D01*
X142302380Y-81209523D02*
X142254761Y-81304761D01*
X142254761Y-81304761D02*
X142159523Y-81400000D01*
X142159523Y-81400000D02*
X142016666Y-81447619D01*
X142016666Y-81447619D02*
X141778571Y-81447619D01*
X144064285Y-81447619D02*
X143492857Y-81447619D01*
X143778571Y-81447619D02*
X143778571Y-80447619D01*
X143778571Y-80447619D02*
X143683333Y-80590476D01*
X143683333Y-80590476D02*
X143588095Y-80685714D01*
X143588095Y-80685714D02*
X143492857Y-80733333D01*
X145111905Y-80542857D02*
X145302381Y-80400000D01*
X145302381Y-80400000D02*
X145492857Y-80542857D01*
X123946666Y-84270952D02*
X123946666Y-84937619D01*
X123708571Y-83890000D02*
X123470476Y-84604285D01*
X123470476Y-84604285D02*
X124089523Y-84604285D01*
X124470476Y-84937619D02*
X124470476Y-84270952D01*
X124470476Y-83937619D02*
X124422857Y-83985238D01*
X124422857Y-83985238D02*
X124470476Y-84032857D01*
X124470476Y-84032857D02*
X124518095Y-83985238D01*
X124518095Y-83985238D02*
X124470476Y-83937619D01*
X124470476Y-83937619D02*
X124470476Y-84032857D01*
X124946666Y-84270952D02*
X124946666Y-84937619D01*
X124946666Y-84366190D02*
X124994285Y-84318571D01*
X124994285Y-84318571D02*
X125089523Y-84270952D01*
X125089523Y-84270952D02*
X125232380Y-84270952D01*
X125232380Y-84270952D02*
X125327618Y-84318571D01*
X125327618Y-84318571D02*
X125375237Y-84413809D01*
X125375237Y-84413809D02*
X125375237Y-84937619D01*
X126279999Y-84890000D02*
X126184761Y-84937619D01*
X126184761Y-84937619D02*
X125994285Y-84937619D01*
X125994285Y-84937619D02*
X125899047Y-84890000D01*
X125899047Y-84890000D02*
X125851428Y-84842380D01*
X125851428Y-84842380D02*
X125803809Y-84747142D01*
X125803809Y-84747142D02*
X125803809Y-84461428D01*
X125803809Y-84461428D02*
X125851428Y-84366190D01*
X125851428Y-84366190D02*
X125899047Y-84318571D01*
X125899047Y-84318571D02*
X125994285Y-84270952D01*
X125994285Y-84270952D02*
X126184761Y-84270952D01*
X126184761Y-84270952D02*
X126279999Y-84318571D01*
X126708571Y-84937619D02*
X126708571Y-83937619D01*
X127137142Y-84937619D02*
X127137142Y-84413809D01*
X127137142Y-84413809D02*
X127089523Y-84318571D01*
X127089523Y-84318571D02*
X126994285Y-84270952D01*
X126994285Y-84270952D02*
X126851428Y-84270952D01*
X126851428Y-84270952D02*
X126756190Y-84318571D01*
X126756190Y-84318571D02*
X126708571Y-84366190D01*
X128851428Y-84937619D02*
X128375238Y-84937619D01*
X128375238Y-84937619D02*
X128375238Y-83937619D01*
X129756190Y-84842380D02*
X129708571Y-84890000D01*
X129708571Y-84890000D02*
X129565714Y-84937619D01*
X129565714Y-84937619D02*
X129470476Y-84937619D01*
X129470476Y-84937619D02*
X129327619Y-84890000D01*
X129327619Y-84890000D02*
X129232381Y-84794761D01*
X129232381Y-84794761D02*
X129184762Y-84699523D01*
X129184762Y-84699523D02*
X129137143Y-84509047D01*
X129137143Y-84509047D02*
X129137143Y-84366190D01*
X129137143Y-84366190D02*
X129184762Y-84175714D01*
X129184762Y-84175714D02*
X129232381Y-84080476D01*
X129232381Y-84080476D02*
X129327619Y-83985238D01*
X129327619Y-83985238D02*
X129470476Y-83937619D01*
X129470476Y-83937619D02*
X129565714Y-83937619D01*
X129565714Y-83937619D02*
X129708571Y-83985238D01*
X129708571Y-83985238D02*
X129756190Y-84032857D01*
X130184762Y-84937619D02*
X130184762Y-83937619D01*
X130184762Y-83937619D02*
X130422857Y-83937619D01*
X130422857Y-83937619D02*
X130565714Y-83985238D01*
X130565714Y-83985238D02*
X130660952Y-84080476D01*
X130660952Y-84080476D02*
X130708571Y-84175714D01*
X130708571Y-84175714D02*
X130756190Y-84366190D01*
X130756190Y-84366190D02*
X130756190Y-84509047D01*
X130756190Y-84509047D02*
X130708571Y-84699523D01*
X130708571Y-84699523D02*
X130660952Y-84794761D01*
X130660952Y-84794761D02*
X130565714Y-84890000D01*
X130565714Y-84890000D02*
X130422857Y-84937619D01*
X130422857Y-84937619D02*
X130184762Y-84937619D01*
X102203809Y-123757619D02*
X102203809Y-124471904D01*
X102203809Y-124471904D02*
X102156190Y-124614761D01*
X102156190Y-124614761D02*
X102060952Y-124710000D01*
X102060952Y-124710000D02*
X101918095Y-124757619D01*
X101918095Y-124757619D02*
X101822857Y-124757619D01*
X102537143Y-123757619D02*
X103108571Y-123757619D01*
X102822857Y-124757619D02*
X102822857Y-123757619D01*
X103394286Y-124471904D02*
X103870476Y-124471904D01*
X103299048Y-124757619D02*
X103632381Y-123757619D01*
X103632381Y-123757619D02*
X103965714Y-124757619D01*
X104822857Y-123805238D02*
X104727619Y-123757619D01*
X104727619Y-123757619D02*
X104584762Y-123757619D01*
X104584762Y-123757619D02*
X104441905Y-123805238D01*
X104441905Y-123805238D02*
X104346667Y-123900476D01*
X104346667Y-123900476D02*
X104299048Y-123995714D01*
X104299048Y-123995714D02*
X104251429Y-124186190D01*
X104251429Y-124186190D02*
X104251429Y-124329047D01*
X104251429Y-124329047D02*
X104299048Y-124519523D01*
X104299048Y-124519523D02*
X104346667Y-124614761D01*
X104346667Y-124614761D02*
X104441905Y-124710000D01*
X104441905Y-124710000D02*
X104584762Y-124757619D01*
X104584762Y-124757619D02*
X104680000Y-124757619D01*
X104680000Y-124757619D02*
X104822857Y-124710000D01*
X104822857Y-124710000D02*
X104870476Y-124662380D01*
X104870476Y-124662380D02*
X104870476Y-124329047D01*
X104870476Y-124329047D02*
X104680000Y-124329047D01*
X105918096Y-123852857D02*
X106108572Y-123710000D01*
X106108572Y-123710000D02*
X106299048Y-123852857D01*
X101515238Y-72137619D02*
X102086666Y-72137619D01*
X101800952Y-73137619D02*
X101800952Y-72137619D01*
X102562857Y-73137619D02*
X102467619Y-73090000D01*
X102467619Y-73090000D02*
X102420000Y-73042380D01*
X102420000Y-73042380D02*
X102372381Y-72947142D01*
X102372381Y-72947142D02*
X102372381Y-72661428D01*
X102372381Y-72661428D02*
X102420000Y-72566190D01*
X102420000Y-72566190D02*
X102467619Y-72518571D01*
X102467619Y-72518571D02*
X102562857Y-72470952D01*
X102562857Y-72470952D02*
X102705714Y-72470952D01*
X102705714Y-72470952D02*
X102800952Y-72518571D01*
X102800952Y-72518571D02*
X102848571Y-72566190D01*
X102848571Y-72566190D02*
X102896190Y-72661428D01*
X102896190Y-72661428D02*
X102896190Y-72947142D01*
X102896190Y-72947142D02*
X102848571Y-73042380D01*
X102848571Y-73042380D02*
X102800952Y-73090000D01*
X102800952Y-73090000D02*
X102705714Y-73137619D01*
X102705714Y-73137619D02*
X102562857Y-73137619D01*
X103753333Y-72470952D02*
X103753333Y-73137619D01*
X103324762Y-72470952D02*
X103324762Y-72994761D01*
X103324762Y-72994761D02*
X103372381Y-73090000D01*
X103372381Y-73090000D02*
X103467619Y-73137619D01*
X103467619Y-73137619D02*
X103610476Y-73137619D01*
X103610476Y-73137619D02*
X103705714Y-73090000D01*
X103705714Y-73090000D02*
X103753333Y-73042380D01*
X104658095Y-73090000D02*
X104562857Y-73137619D01*
X104562857Y-73137619D02*
X104372381Y-73137619D01*
X104372381Y-73137619D02*
X104277143Y-73090000D01*
X104277143Y-73090000D02*
X104229524Y-73042380D01*
X104229524Y-73042380D02*
X104181905Y-72947142D01*
X104181905Y-72947142D02*
X104181905Y-72661428D01*
X104181905Y-72661428D02*
X104229524Y-72566190D01*
X104229524Y-72566190D02*
X104277143Y-72518571D01*
X104277143Y-72518571D02*
X104372381Y-72470952D01*
X104372381Y-72470952D02*
X104562857Y-72470952D01*
X104562857Y-72470952D02*
X104658095Y-72518571D01*
X105086667Y-73137619D02*
X105086667Y-72137619D01*
X105515238Y-73137619D02*
X105515238Y-72613809D01*
X105515238Y-72613809D02*
X105467619Y-72518571D01*
X105467619Y-72518571D02*
X105372381Y-72470952D01*
X105372381Y-72470952D02*
X105229524Y-72470952D01*
X105229524Y-72470952D02*
X105134286Y-72518571D01*
X105134286Y-72518571D02*
X105086667Y-72566190D01*
X105943810Y-73090000D02*
X106039048Y-73137619D01*
X106039048Y-73137619D02*
X106229524Y-73137619D01*
X106229524Y-73137619D02*
X106324762Y-73090000D01*
X106324762Y-73090000D02*
X106372381Y-72994761D01*
X106372381Y-72994761D02*
X106372381Y-72947142D01*
X106372381Y-72947142D02*
X106324762Y-72851904D01*
X106324762Y-72851904D02*
X106229524Y-72804285D01*
X106229524Y-72804285D02*
X106086667Y-72804285D01*
X106086667Y-72804285D02*
X105991429Y-72756666D01*
X105991429Y-72756666D02*
X105943810Y-72661428D01*
X105943810Y-72661428D02*
X105943810Y-72613809D01*
X105943810Y-72613809D02*
X105991429Y-72518571D01*
X105991429Y-72518571D02*
X106086667Y-72470952D01*
X106086667Y-72470952D02*
X106229524Y-72470952D01*
X106229524Y-72470952D02*
X106324762Y-72518571D01*
X107229524Y-73090000D02*
X107134286Y-73137619D01*
X107134286Y-73137619D02*
X106943810Y-73137619D01*
X106943810Y-73137619D02*
X106848572Y-73090000D01*
X106848572Y-73090000D02*
X106800953Y-73042380D01*
X106800953Y-73042380D02*
X106753334Y-72947142D01*
X106753334Y-72947142D02*
X106753334Y-72661428D01*
X106753334Y-72661428D02*
X106800953Y-72566190D01*
X106800953Y-72566190D02*
X106848572Y-72518571D01*
X106848572Y-72518571D02*
X106943810Y-72470952D01*
X106943810Y-72470952D02*
X107134286Y-72470952D01*
X107134286Y-72470952D02*
X107229524Y-72518571D01*
X107658096Y-73137619D02*
X107658096Y-72470952D01*
X107658096Y-72661428D02*
X107705715Y-72566190D01*
X107705715Y-72566190D02*
X107753334Y-72518571D01*
X107753334Y-72518571D02*
X107848572Y-72470952D01*
X107848572Y-72470952D02*
X107943810Y-72470952D01*
X108658096Y-73090000D02*
X108562858Y-73137619D01*
X108562858Y-73137619D02*
X108372382Y-73137619D01*
X108372382Y-73137619D02*
X108277144Y-73090000D01*
X108277144Y-73090000D02*
X108229525Y-72994761D01*
X108229525Y-72994761D02*
X108229525Y-72613809D01*
X108229525Y-72613809D02*
X108277144Y-72518571D01*
X108277144Y-72518571D02*
X108372382Y-72470952D01*
X108372382Y-72470952D02*
X108562858Y-72470952D01*
X108562858Y-72470952D02*
X108658096Y-72518571D01*
X108658096Y-72518571D02*
X108705715Y-72613809D01*
X108705715Y-72613809D02*
X108705715Y-72709047D01*
X108705715Y-72709047D02*
X108229525Y-72804285D01*
X109515239Y-73090000D02*
X109420001Y-73137619D01*
X109420001Y-73137619D02*
X109229525Y-73137619D01*
X109229525Y-73137619D02*
X109134287Y-73090000D01*
X109134287Y-73090000D02*
X109086668Y-72994761D01*
X109086668Y-72994761D02*
X109086668Y-72613809D01*
X109086668Y-72613809D02*
X109134287Y-72518571D01*
X109134287Y-72518571D02*
X109229525Y-72470952D01*
X109229525Y-72470952D02*
X109420001Y-72470952D01*
X109420001Y-72470952D02*
X109515239Y-72518571D01*
X109515239Y-72518571D02*
X109562858Y-72613809D01*
X109562858Y-72613809D02*
X109562858Y-72709047D01*
X109562858Y-72709047D02*
X109086668Y-72804285D01*
X109991430Y-72470952D02*
X109991430Y-73137619D01*
X109991430Y-72566190D02*
X110039049Y-72518571D01*
X110039049Y-72518571D02*
X110134287Y-72470952D01*
X110134287Y-72470952D02*
X110277144Y-72470952D01*
X110277144Y-72470952D02*
X110372382Y-72518571D01*
X110372382Y-72518571D02*
X110420001Y-72613809D01*
X110420001Y-72613809D02*
X110420001Y-73137619D01*
X137081428Y-137533809D02*
X137224285Y-137581428D01*
X137224285Y-137581428D02*
X137271904Y-137629047D01*
X137271904Y-137629047D02*
X137319523Y-137724285D01*
X137319523Y-137724285D02*
X137319523Y-137867142D01*
X137319523Y-137867142D02*
X137271904Y-137962380D01*
X137271904Y-137962380D02*
X137224285Y-138010000D01*
X137224285Y-138010000D02*
X137129047Y-138057619D01*
X137129047Y-138057619D02*
X136748095Y-138057619D01*
X136748095Y-138057619D02*
X136748095Y-137057619D01*
X136748095Y-137057619D02*
X137081428Y-137057619D01*
X137081428Y-137057619D02*
X137176666Y-137105238D01*
X137176666Y-137105238D02*
X137224285Y-137152857D01*
X137224285Y-137152857D02*
X137271904Y-137248095D01*
X137271904Y-137248095D02*
X137271904Y-137343333D01*
X137271904Y-137343333D02*
X137224285Y-137438571D01*
X137224285Y-137438571D02*
X137176666Y-137486190D01*
X137176666Y-137486190D02*
X137081428Y-137533809D01*
X137081428Y-137533809D02*
X136748095Y-137533809D01*
X138176666Y-138057619D02*
X138176666Y-137533809D01*
X138176666Y-137533809D02*
X138129047Y-137438571D01*
X138129047Y-137438571D02*
X138033809Y-137390952D01*
X138033809Y-137390952D02*
X137843333Y-137390952D01*
X137843333Y-137390952D02*
X137748095Y-137438571D01*
X138176666Y-138010000D02*
X138081428Y-138057619D01*
X138081428Y-138057619D02*
X137843333Y-138057619D01*
X137843333Y-138057619D02*
X137748095Y-138010000D01*
X137748095Y-138010000D02*
X137700476Y-137914761D01*
X137700476Y-137914761D02*
X137700476Y-137819523D01*
X137700476Y-137819523D02*
X137748095Y-137724285D01*
X137748095Y-137724285D02*
X137843333Y-137676666D01*
X137843333Y-137676666D02*
X138081428Y-137676666D01*
X138081428Y-137676666D02*
X138176666Y-137629047D01*
X138510000Y-137390952D02*
X138890952Y-137390952D01*
X138652857Y-137057619D02*
X138652857Y-137914761D01*
X138652857Y-137914761D02*
X138700476Y-138010000D01*
X138700476Y-138010000D02*
X138795714Y-138057619D01*
X138795714Y-138057619D02*
X138890952Y-138057619D01*
X139081429Y-137390952D02*
X139462381Y-137390952D01*
X139224286Y-137057619D02*
X139224286Y-137914761D01*
X139224286Y-137914761D02*
X139271905Y-138010000D01*
X139271905Y-138010000D02*
X139367143Y-138057619D01*
X139367143Y-138057619D02*
X139462381Y-138057619D01*
X140176667Y-138010000D02*
X140081429Y-138057619D01*
X140081429Y-138057619D02*
X139890953Y-138057619D01*
X139890953Y-138057619D02*
X139795715Y-138010000D01*
X139795715Y-138010000D02*
X139748096Y-137914761D01*
X139748096Y-137914761D02*
X139748096Y-137533809D01*
X139748096Y-137533809D02*
X139795715Y-137438571D01*
X139795715Y-137438571D02*
X139890953Y-137390952D01*
X139890953Y-137390952D02*
X140081429Y-137390952D01*
X140081429Y-137390952D02*
X140176667Y-137438571D01*
X140176667Y-137438571D02*
X140224286Y-137533809D01*
X140224286Y-137533809D02*
X140224286Y-137629047D01*
X140224286Y-137629047D02*
X139748096Y-137724285D01*
X140652858Y-138057619D02*
X140652858Y-137390952D01*
X140652858Y-137581428D02*
X140700477Y-137486190D01*
X140700477Y-137486190D02*
X140748096Y-137438571D01*
X140748096Y-137438571D02*
X140843334Y-137390952D01*
X140843334Y-137390952D02*
X140938572Y-137390952D01*
X141176668Y-137390952D02*
X141414763Y-138057619D01*
X141652858Y-137390952D02*
X141414763Y-138057619D01*
X141414763Y-138057619D02*
X141319525Y-138295714D01*
X141319525Y-138295714D02*
X141271906Y-138343333D01*
X141271906Y-138343333D02*
X141176668Y-138390952D01*
X142700478Y-137390952D02*
X142938573Y-138057619D01*
X142938573Y-138057619D02*
X143176668Y-137390952D01*
X149698095Y-120817619D02*
X149698095Y-119817619D01*
X149698095Y-120293809D02*
X150269523Y-120293809D01*
X150269523Y-120817619D02*
X150269523Y-119817619D01*
X150745714Y-120817619D02*
X150745714Y-119817619D01*
X150745714Y-119817619D02*
X150983809Y-119817619D01*
X150983809Y-119817619D02*
X151126666Y-119865238D01*
X151126666Y-119865238D02*
X151221904Y-119960476D01*
X151221904Y-119960476D02*
X151269523Y-120055714D01*
X151269523Y-120055714D02*
X151317142Y-120246190D01*
X151317142Y-120246190D02*
X151317142Y-120389047D01*
X151317142Y-120389047D02*
X151269523Y-120579523D01*
X151269523Y-120579523D02*
X151221904Y-120674761D01*
X151221904Y-120674761D02*
X151126666Y-120770000D01*
X151126666Y-120770000D02*
X150983809Y-120817619D01*
X150983809Y-120817619D02*
X150745714Y-120817619D01*
X151745714Y-120817619D02*
X151745714Y-119817619D01*
X151745714Y-119817619D02*
X152079047Y-120531904D01*
X152079047Y-120531904D02*
X152412380Y-119817619D01*
X152412380Y-119817619D02*
X152412380Y-120817619D01*
X152888571Y-120817619D02*
X152888571Y-119817619D01*
X153983809Y-119912857D02*
X154174285Y-119770000D01*
X154174285Y-119770000D02*
X154364761Y-119912857D01*
D11*
X139605410Y-136113920D02*
X144004690Y-136113920D01*
X145604890Y-136113920D02*
X155904590Y-136113920D01*
X139605410Y-129515000D02*
X139605410Y-136113920D01*
X139605410Y-129515000D02*
X139605410Y-122916080D01*
X139605410Y-122916080D02*
X144004690Y-122916080D01*
X145604890Y-122916080D02*
X155904590Y-122916080D01*
X155904590Y-122916080D02*
X155904590Y-136113920D01*
D12*
X115575000Y-120075000D02*
X115575000Y-134075000D01*
X115575000Y-120325000D02*
X115825000Y-120075000D01*
X115575000Y-120475000D02*
X115975000Y-120075000D01*
X115575000Y-120575000D02*
X116075000Y-120075000D01*
X115575000Y-120675000D02*
X115575000Y-120575000D01*
X115575000Y-120775000D02*
X116275000Y-120075000D01*
X115575000Y-134075000D02*
X123575000Y-134075000D01*
X116175000Y-120075000D02*
X115575000Y-120675000D01*
X123575000Y-120075000D02*
X115575000Y-120075000D01*
X123575000Y-134075000D02*
X123575000Y-120075000D01*
X127575000Y-120075000D02*
X127575000Y-134075000D01*
X127575000Y-120325000D02*
X127825000Y-120075000D01*
X127575000Y-120475000D02*
X127975000Y-120075000D01*
X127575000Y-120575000D02*
X128075000Y-120075000D01*
X127575000Y-120675000D02*
X127575000Y-120575000D01*
X127575000Y-120775000D02*
X128275000Y-120075000D01*
X127575000Y-134075000D02*
X135575000Y-134075000D01*
X128175000Y-120075000D02*
X127575000Y-120675000D01*
X135575000Y-120075000D02*
X127575000Y-120075000D01*
X135575000Y-134075000D02*
X135575000Y-120075000D01*
D13*
X130720000Y-157865000D02*
X130720000Y-157390000D01*
X131195000Y-152645000D02*
X130720000Y-152645000D01*
X131195000Y-157865000D02*
X130720000Y-157865000D01*
X135465000Y-152645000D02*
X135940000Y-152645000D01*
X135465000Y-157865000D02*
X135940000Y-157865000D01*
X135940000Y-152645000D02*
X135940000Y-153120000D01*
X135940000Y-157865000D02*
X135940000Y-157390000D01*
D12*
X101640000Y-109415000D02*
X101640000Y-122115000D01*
X101640000Y-109415000D02*
X106720000Y-109415000D01*
X101640000Y-122115000D02*
X106720000Y-122115000D01*
X106720000Y-122115000D02*
X106720000Y-109415000D01*
X106445555Y-122750000D02*
G75*
G03*
X106445555Y-122750000I-360555J0D01*
G01*
X146290000Y-118990000D02*
X155790000Y-118990000D01*
X146290000Y-118990000D02*
X146290000Y-99990000D01*
X146290000Y-99990000D02*
X155790000Y-99990000D01*
X155790000Y-99990000D02*
X155790000Y-118990000D01*
X123575000Y-161937500D02*
X129075000Y-161937500D01*
X129075000Y-161937500D02*
X129075000Y-161037500D01*
X123575000Y-159037500D02*
X123575000Y-161937500D01*
X123575000Y-156137500D02*
X123575000Y-147637500D01*
X129075000Y-151537500D02*
X129075000Y-158037500D01*
X129075000Y-148787500D02*
X129075000Y-147637500D01*
X123574131Y-147637500D02*
X129075908Y-147637500D01*
D13*
X115475000Y-111675000D02*
X115475000Y-110475000D01*
X116675000Y-111675000D02*
X115475000Y-111675000D01*
X115675000Y-111475000D02*
X115675000Y-91675000D01*
X135475000Y-111475000D02*
X115675000Y-111475000D01*
X115675000Y-91675000D02*
X135475000Y-91675000D01*
X135475000Y-91675000D02*
X135475000Y-111475000D01*
X139890000Y-115220000D02*
X143890000Y-115220000D01*
X139890000Y-112220000D02*
X142890000Y-112220000D01*
D14*
X134250000Y-159112500D02*
X133450000Y-159112500D01*
X134250000Y-161712500D02*
X133450000Y-161712500D01*
D15*
X135150000Y-158712500D02*
G75*
G03*
X135150000Y-158712500I-100000J0D01*
G01*
D13*
X135805000Y-77922500D02*
X135005000Y-77922500D01*
X135805000Y-79282500D02*
X135805000Y-77922500D01*
X135005000Y-79282500D02*
X135005000Y-77922500D01*
X110225000Y-70661252D02*
X110225000Y-70138748D01*
X111695000Y-70661252D02*
X111695000Y-70138748D01*
X134825000Y-66156359D02*
X134825000Y-66463641D01*
X134065000Y-66156359D02*
X134065000Y-66463641D01*
X112305000Y-70691252D02*
X112305000Y-70168748D01*
X113775000Y-70691252D02*
X113775000Y-70168748D01*
X112365000Y-76321252D02*
X112365000Y-75798748D01*
X113835000Y-76321252D02*
X113835000Y-75798748D01*
X113315000Y-94077064D02*
X113315000Y-93622936D01*
X114785000Y-94077064D02*
X114785000Y-93622936D01*
X136930000Y-69360000D02*
X136930000Y-67560000D01*
X136930000Y-69360000D02*
X136930000Y-70160000D01*
X133810000Y-69360000D02*
X133810000Y-68560000D01*
X133810000Y-69360000D02*
X133810000Y-70160000D01*
X104235000Y-86540000D02*
X100815000Y-86540000D01*
X100815000Y-86540000D02*
X100815000Y-93300000D01*
X104235000Y-93300000D02*
X104235000Y-86540000D01*
X109200000Y-92817500D02*
X108725000Y-92817500D01*
X105980000Y-92342500D02*
X105980000Y-92817500D01*
X109200000Y-92342500D02*
X109200000Y-92817500D01*
X105980000Y-90072500D02*
X105980000Y-89597500D01*
X109200000Y-90072500D02*
X109200000Y-89597500D01*
X105980000Y-89597500D02*
X106455000Y-89597500D01*
X109200000Y-89597500D02*
X108725000Y-89597500D01*
X100752500Y-102040000D02*
X100752500Y-105460000D01*
X100752500Y-105460000D02*
X107512500Y-105460000D01*
X107512500Y-102040000D02*
X100752500Y-102040000D01*
X138985000Y-82718748D02*
X138985000Y-83241252D01*
X137515000Y-82718748D02*
X137515000Y-83241252D01*
D16*
X141565000Y-163130000D02*
X141565000Y-161780000D01*
X150505000Y-163130000D02*
X141565000Y-163130000D01*
X150505000Y-161780000D02*
X150505000Y-163130000D01*
D11*
X141050000Y-159447000D02*
G75*
G03*
X141050000Y-159447000I-2000000J0D01*
G01*
X155020000Y-159447000D02*
G75*
G03*
X155020000Y-159447000I-2000000J0D01*
G01*
X141050000Y-141667000D02*
G75*
G03*
X141050000Y-141667000I-2000000J0D01*
G01*
X155020000Y-141667000D02*
G75*
G03*
X155020000Y-141667000I-2000000J0D01*
G01*
D13*
X135000000Y-76888641D02*
X135000000Y-76581359D01*
X135760000Y-76888641D02*
X135760000Y-76581359D01*
D11*
X139479880Y-95719900D02*
X143879160Y-95719900D01*
X145479360Y-95719900D02*
X155779060Y-95719900D01*
X139479880Y-89120980D02*
X139479880Y-95719900D01*
X139479880Y-89120980D02*
X139479880Y-82522060D01*
X139479880Y-82522060D02*
X143879160Y-82522060D01*
X145479360Y-82522060D02*
X155779060Y-82522060D01*
X155779060Y-82522060D02*
X155779060Y-95719900D01*
D13*
X108775000Y-79825000D02*
X108775000Y-78485000D01*
X108775000Y-75765000D02*
X108775000Y-74025000D01*
X108775000Y-74025000D02*
X102475000Y-74025000D01*
X107285000Y-79825000D02*
X108775000Y-79825000D01*
X107285000Y-79825000D02*
X107285000Y-81025000D01*
X103965000Y-79825000D02*
X102475000Y-79825000D01*
X102475000Y-79825000D02*
X102475000Y-78485000D01*
X102475000Y-74025000D02*
X102475000Y-75765000D01*
X111040000Y-90777064D02*
X111040000Y-90322936D01*
X112510000Y-90777064D02*
X112510000Y-90322936D01*
X138920000Y-87185000D02*
X138920000Y-86585000D01*
X138810000Y-87185000D02*
X138920000Y-87185000D01*
X136045000Y-89775000D02*
X135845000Y-89375000D01*
X135845000Y-89375000D02*
X135645000Y-89775000D01*
X135645000Y-89775000D02*
X136045000Y-89775000D01*
X113380000Y-87185000D02*
X113270000Y-87185000D01*
X113270000Y-87185000D02*
X113270000Y-86585000D01*
X135090000Y-66473641D02*
X135090000Y-66166359D01*
X135850000Y-66473641D02*
X135850000Y-66166359D01*
X111065000Y-87261252D02*
X111065000Y-86738748D01*
X112535000Y-87261252D02*
X112535000Y-86738748D01*
X135045000Y-65150000D02*
X135845000Y-65150000D01*
X135045000Y-63790000D02*
X135045000Y-65150000D01*
X135845000Y-63790000D02*
X135845000Y-65150000D01*
D15*
X138445990Y-62665010D02*
X138445990Y-80079000D01*
X138445990Y-80079000D02*
X155094010Y-80079000D01*
X155094010Y-62665010D02*
X138445990Y-62665010D01*
X155094010Y-80079000D02*
X155094010Y-62665010D01*
D13*
X134020000Y-73775000D02*
X134020000Y-75575000D01*
X134020000Y-73775000D02*
X134020000Y-72975000D01*
X137140000Y-73775000D02*
X137140000Y-74575000D01*
X137140000Y-73775000D02*
X137140000Y-72975000D01*
X137150000Y-115765000D02*
X143160000Y-115765000D01*
X139400000Y-122585000D02*
X143160000Y-122585000D01*
X143160000Y-115765000D02*
X143160000Y-117025000D01*
X143160000Y-122585000D02*
X143160000Y-121325000D01*
D14*
X120275000Y-138875000D02*
X120275000Y-161575000D01*
X115775000Y-162875000D02*
X115775000Y-161575000D01*
X115775000Y-161575000D02*
X120275000Y-161575000D01*
X106775000Y-162875000D02*
X115775000Y-162875000D01*
X106775000Y-162875000D02*
X106775000Y-161575000D01*
X102275000Y-161575000D02*
X106775000Y-161575000D01*
X102275000Y-138875000D02*
X120275000Y-138875000D01*
X102275000Y-138875000D02*
X102275000Y-161575000D01*
D13*
X108961252Y-88360000D02*
X106638748Y-88360000D01*
X108961252Y-84940000D02*
X106638748Y-84940000D01*
D15*
X115805990Y-62968010D02*
X115805990Y-80382000D01*
X115805990Y-80382000D02*
X132454010Y-80382000D01*
X132454010Y-62968010D02*
X115805990Y-62968010D01*
X132454010Y-80382000D02*
X132454010Y-62968010D01*
D13*
X105615000Y-82275000D02*
X105615000Y-84275000D01*
X105615000Y-82275000D02*
X109625000Y-82275000D01*
X105615000Y-84275000D02*
X109625000Y-84275000D01*
X136000000Y-76888641D02*
X136000000Y-76581359D01*
X136760000Y-76888641D02*
X136760000Y-76581359D01*
D17*
X154369000Y-76524001D02*
G75*
G03*
X154369000Y-76524001I-381000J0D01*
G01*
%LPC*%
D18*
X141180980Y-75868000D02*
X139658990Y-75868000D01*
X139658990Y-73425990D01*
X141180980Y-73425990D01*
X141180980Y-75868000D01*
G36*
X141180980Y-75868000D02*
G01*
X139658990Y-75868000D01*
X139658990Y-73425990D01*
X141180980Y-73425990D01*
X141180980Y-75868000D01*
G37*
X141180980Y-79679000D02*
X139658990Y-79679000D01*
X139658990Y-77337010D01*
X141180980Y-77337010D01*
X141180980Y-79679000D01*
G36*
X141180980Y-79679000D02*
G01*
X139658990Y-79679000D01*
X139658990Y-77337010D01*
X141180980Y-77337010D01*
X141180980Y-79679000D01*
G37*
X143720980Y-75868000D02*
X142198990Y-75868000D01*
X142198990Y-73425990D01*
X143720980Y-73425990D01*
X143720980Y-75868000D01*
G36*
X143720980Y-75868000D02*
G01*
X142198990Y-75868000D01*
X142198990Y-73425990D01*
X143720980Y-73425990D01*
X143720980Y-75868000D01*
G37*
X143720980Y-79679000D02*
X142198990Y-79679000D01*
X142198990Y-77337010D01*
X143720980Y-77337010D01*
X143720980Y-79679000D01*
G36*
X143720980Y-79679000D02*
G01*
X142198990Y-79679000D01*
X142198990Y-77337010D01*
X143720980Y-77337010D01*
X143720980Y-79679000D01*
G37*
X146260984Y-75868000D02*
X144738990Y-75868000D01*
X144738990Y-73425990D01*
X146260984Y-73425990D01*
X146260984Y-75868000D01*
G36*
X146260984Y-75868000D02*
G01*
X144738990Y-75868000D01*
X144738990Y-73425990D01*
X146260984Y-73425990D01*
X146260984Y-75868000D01*
G37*
X146260984Y-79679000D02*
X144738990Y-79679000D01*
X144738990Y-77337010D01*
X146260984Y-77337010D01*
X146260984Y-79679000D01*
G36*
X146260984Y-79679000D02*
G01*
X144738990Y-79679000D01*
X144738990Y-77337010D01*
X146260984Y-77337010D01*
X146260984Y-79679000D01*
G37*
X148800980Y-75868000D02*
X147278991Y-75868000D01*
X147278991Y-73425990D01*
X148800980Y-73425990D01*
X148800980Y-75868000D01*
G36*
X148800980Y-75868000D02*
G01*
X147278991Y-75868000D01*
X147278991Y-73425990D01*
X148800980Y-73425990D01*
X148800980Y-75868000D01*
G37*
X148800980Y-79679000D02*
X147278991Y-79679000D01*
X147278991Y-77337010D01*
X148800980Y-77337010D01*
X148800980Y-79679000D01*
G36*
X148800980Y-79679000D02*
G01*
X147278991Y-79679000D01*
X147278991Y-77337010D01*
X148800980Y-77337010D01*
X148800980Y-79679000D01*
G37*
X151340980Y-75868000D02*
X149818990Y-75868000D01*
X149818990Y-73425990D01*
X151340980Y-73425990D01*
X151340980Y-75868000D01*
G36*
X151340980Y-75868000D02*
G01*
X149818990Y-75868000D01*
X149818990Y-73425990D01*
X151340980Y-73425990D01*
X151340980Y-75868000D01*
G37*
X151340980Y-79679000D02*
X149818990Y-79679000D01*
X149818990Y-77337010D01*
X151340980Y-77337010D01*
X151340980Y-79679000D01*
G36*
X151340980Y-79679000D02*
G01*
X149818990Y-79679000D01*
X149818990Y-77337010D01*
X151340980Y-77337010D01*
X151340980Y-79679000D01*
G37*
X153880980Y-75868000D02*
X152358990Y-75868000D01*
X152358990Y-73425990D01*
X153880980Y-73425990D01*
X153880980Y-75868000D01*
G36*
X153880980Y-75868000D02*
G01*
X152358990Y-75868000D01*
X152358990Y-73425990D01*
X153880980Y-73425990D01*
X153880980Y-75868000D01*
G37*
X153880980Y-79679000D02*
X152358990Y-79679000D01*
X152358990Y-77337010D01*
X153880980Y-77337010D01*
X153880980Y-79679000D01*
G36*
X153880980Y-79679000D02*
G01*
X152358990Y-79679000D01*
X152358990Y-77337010D01*
X153880980Y-77337010D01*
X153880980Y-79679000D01*
G37*
X118540980Y-76171000D02*
X117018990Y-76171000D01*
X117018990Y-73728990D01*
X118540980Y-73728990D01*
X118540980Y-76171000D01*
G36*
X118540980Y-76171000D02*
G01*
X117018990Y-76171000D01*
X117018990Y-73728990D01*
X118540980Y-73728990D01*
X118540980Y-76171000D01*
G37*
X118540980Y-79982000D02*
X117018990Y-79982000D01*
X117018990Y-77640010D01*
X118540980Y-77640010D01*
X118540980Y-79982000D01*
G36*
X118540980Y-79982000D02*
G01*
X117018990Y-79982000D01*
X117018990Y-77640010D01*
X118540980Y-77640010D01*
X118540980Y-79982000D01*
G37*
X121080980Y-76171000D02*
X119558990Y-76171000D01*
X119558990Y-73728990D01*
X121080980Y-73728990D01*
X121080980Y-76171000D01*
G36*
X121080980Y-76171000D02*
G01*
X119558990Y-76171000D01*
X119558990Y-73728990D01*
X121080980Y-73728990D01*
X121080980Y-76171000D01*
G37*
X121080980Y-79982000D02*
X119558990Y-79982000D01*
X119558990Y-77640010D01*
X121080980Y-77640010D01*
X121080980Y-79982000D01*
G36*
X121080980Y-79982000D02*
G01*
X119558990Y-79982000D01*
X119558990Y-77640010D01*
X121080980Y-77640010D01*
X121080980Y-79982000D01*
G37*
X123620984Y-76171000D02*
X122098990Y-76171000D01*
X122098990Y-73728990D01*
X123620984Y-73728990D01*
X123620984Y-76171000D01*
G36*
X123620984Y-76171000D02*
G01*
X122098990Y-76171000D01*
X122098990Y-73728990D01*
X123620984Y-73728990D01*
X123620984Y-76171000D01*
G37*
X123620984Y-79982000D02*
X122098990Y-79982000D01*
X122098990Y-77640010D01*
X123620984Y-77640010D01*
X123620984Y-79982000D01*
G36*
X123620984Y-79982000D02*
G01*
X122098990Y-79982000D01*
X122098990Y-77640010D01*
X123620984Y-77640010D01*
X123620984Y-79982000D01*
G37*
X126160980Y-76171000D02*
X124638991Y-76171000D01*
X124638991Y-73728990D01*
X126160980Y-73728990D01*
X126160980Y-76171000D01*
G36*
X126160980Y-76171000D02*
G01*
X124638991Y-76171000D01*
X124638991Y-73728990D01*
X126160980Y-73728990D01*
X126160980Y-76171000D01*
G37*
X126160980Y-79982000D02*
X124638991Y-79982000D01*
X124638991Y-77640010D01*
X126160980Y-77640010D01*
X126160980Y-79982000D01*
G36*
X126160980Y-79982000D02*
G01*
X124638991Y-79982000D01*
X124638991Y-77640010D01*
X126160980Y-77640010D01*
X126160980Y-79982000D01*
G37*
X128700980Y-76171000D02*
X127178990Y-76171000D01*
X127178990Y-73728990D01*
X128700980Y-73728990D01*
X128700980Y-76171000D01*
G36*
X128700980Y-76171000D02*
G01*
X127178990Y-76171000D01*
X127178990Y-73728990D01*
X128700980Y-73728990D01*
X128700980Y-76171000D01*
G37*
X128700980Y-79982000D02*
X127178990Y-79982000D01*
X127178990Y-77640010D01*
X128700980Y-77640010D01*
X128700980Y-79982000D01*
G36*
X128700980Y-79982000D02*
G01*
X127178990Y-79982000D01*
X127178990Y-77640010D01*
X128700980Y-77640010D01*
X128700980Y-79982000D01*
G37*
X131240980Y-76171000D02*
X129718990Y-76171000D01*
X129718990Y-73728990D01*
X131240980Y-73728990D01*
X131240980Y-76171000D01*
G36*
X131240980Y-76171000D02*
G01*
X129718990Y-76171000D01*
X129718990Y-73728990D01*
X131240980Y-73728990D01*
X131240980Y-76171000D01*
G37*
X131240980Y-79982000D02*
X129718990Y-79982000D01*
X129718990Y-77640010D01*
X131240980Y-77640010D01*
X131240980Y-79982000D01*
G36*
X131240980Y-79982000D02*
G01*
X129718990Y-79982000D01*
X129718990Y-77640010D01*
X131240980Y-77640010D01*
X131240980Y-79982000D01*
G37*
D19*
X142064130Y-133015120D03*
X142064130Y-130515760D03*
X142064130Y-128514240D03*
X142064130Y-126014880D03*
D20*
X145645530Y-136085980D03*
X145645530Y-122944020D03*
D21*
X126060000Y-129375000D03*
X125090000Y-129375000D03*
D22*
X137140000Y-128375000D03*
X138110000Y-128375000D03*
D23*
X116375000Y-121075000D03*
X117175000Y-121075000D03*
X117975000Y-121075000D03*
X121175000Y-121075000D03*
X121975000Y-121075000D03*
X122775000Y-121075000D03*
X116375000Y-121875000D03*
X117175000Y-121875000D03*
X117975000Y-121875000D03*
X121175000Y-121875000D03*
X121975000Y-121875000D03*
X122775000Y-121875000D03*
X116375000Y-122675000D03*
X117175000Y-122675000D03*
X117975000Y-122675000D03*
X121175000Y-122675000D03*
X121975000Y-122675000D03*
X122775000Y-122675000D03*
X116375000Y-123475000D03*
X117175000Y-123475000D03*
X117975000Y-123475000D03*
X121175000Y-123475000D03*
X121975000Y-123475000D03*
X122775000Y-123475000D03*
X116375000Y-124275000D03*
X117175000Y-124275000D03*
X117975000Y-124275000D03*
X121175000Y-124275000D03*
X121975000Y-124275000D03*
X122775000Y-124275000D03*
X116375000Y-125075000D03*
X117175000Y-125075000D03*
X117975000Y-125075000D03*
X121175000Y-125075000D03*
X121975000Y-125075000D03*
X122775000Y-125075000D03*
X116375000Y-125875000D03*
X117175000Y-125875000D03*
X117975000Y-125875000D03*
X121175000Y-125875000D03*
X121975000Y-125875000D03*
X122775000Y-125875000D03*
X116375000Y-126675000D03*
X117175000Y-126675000D03*
X117975000Y-126675000D03*
X121175000Y-126675000D03*
X121975000Y-126675000D03*
X122775000Y-126675000D03*
X116375000Y-127475000D03*
X117175000Y-127475000D03*
X117975000Y-127475000D03*
X121175000Y-127475000D03*
X121975000Y-127475000D03*
X122775000Y-127475000D03*
X116375000Y-128275000D03*
X117175000Y-128275000D03*
X117975000Y-128275000D03*
X121175000Y-128275000D03*
X121975000Y-128275000D03*
X122775000Y-128275000D03*
X116375000Y-129075000D03*
X117175000Y-129075000D03*
X117975000Y-129075000D03*
X121175000Y-129075000D03*
X121975000Y-129075000D03*
X122775000Y-129075000D03*
X116375000Y-129875000D03*
X117175000Y-129875000D03*
X117975000Y-129875000D03*
X121175000Y-129875000D03*
X121975000Y-129875000D03*
X122775000Y-129875000D03*
X116375000Y-130675000D03*
X117175000Y-130675000D03*
X117975000Y-130675000D03*
X121175000Y-130675000D03*
X121975000Y-130675000D03*
X122775000Y-130675000D03*
X116375000Y-131475000D03*
X117175000Y-131475000D03*
X117975000Y-131475000D03*
X121175000Y-131475000D03*
X121975000Y-131475000D03*
X122775000Y-131475000D03*
X116375000Y-132275000D03*
X117175000Y-132275000D03*
X117975000Y-132275000D03*
X121175000Y-132275000D03*
X121975000Y-132275000D03*
X122775000Y-132275000D03*
X116375000Y-133075000D03*
X117175000Y-133075000D03*
X117975000Y-133075000D03*
X121175000Y-133075000D03*
X121975000Y-133075000D03*
X122775000Y-133075000D03*
X128375000Y-121075000D03*
X129175000Y-121075000D03*
X129975000Y-121075000D03*
X133175000Y-121075000D03*
X133975000Y-121075000D03*
X134775000Y-121075000D03*
X128375000Y-121875000D03*
X129175000Y-121875000D03*
X129975000Y-121875000D03*
X133175000Y-121875000D03*
X133975000Y-121875000D03*
X134775000Y-121875000D03*
X128375000Y-122675000D03*
X129175000Y-122675000D03*
X129975000Y-122675000D03*
X133175000Y-122675000D03*
X133975000Y-122675000D03*
X134775000Y-122675000D03*
X128375000Y-123475000D03*
X129175000Y-123475000D03*
X129975000Y-123475000D03*
X133175000Y-123475000D03*
X133975000Y-123475000D03*
X134775000Y-123475000D03*
X128375000Y-124275000D03*
X129175000Y-124275000D03*
X129975000Y-124275000D03*
X133175000Y-124275000D03*
X133975000Y-124275000D03*
X134775000Y-124275000D03*
X128375000Y-125075000D03*
X129175000Y-125075000D03*
X129975000Y-125075000D03*
X133175000Y-125075000D03*
X133975000Y-125075000D03*
X134775000Y-125075000D03*
X128375000Y-125875000D03*
X129175000Y-125875000D03*
X129975000Y-125875000D03*
X133175000Y-125875000D03*
X133975000Y-125875000D03*
X134775000Y-125875000D03*
X128375000Y-126675000D03*
X129175000Y-126675000D03*
X129975000Y-126675000D03*
X133175000Y-126675000D03*
X133975000Y-126675000D03*
X134775000Y-126675000D03*
X128375000Y-127475000D03*
X129175000Y-127475000D03*
X129975000Y-127475000D03*
X133175000Y-127475000D03*
X133975000Y-127475000D03*
X134775000Y-127475000D03*
X128375000Y-128275000D03*
X129175000Y-128275000D03*
X129975000Y-128275000D03*
X133175000Y-128275000D03*
X133975000Y-128275000D03*
X134775000Y-128275000D03*
X128375000Y-129075000D03*
X129175000Y-129075000D03*
X129975000Y-129075000D03*
X133175000Y-129075000D03*
X133975000Y-129075000D03*
X134775000Y-129075000D03*
X128375000Y-129875000D03*
X129175000Y-129875000D03*
X129975000Y-129875000D03*
X133175000Y-129875000D03*
X133975000Y-129875000D03*
X134775000Y-129875000D03*
X128375000Y-130675000D03*
X129175000Y-130675000D03*
X129975000Y-130675000D03*
X133175000Y-130675000D03*
X133975000Y-130675000D03*
X134775000Y-130675000D03*
X128375000Y-131475000D03*
X129175000Y-131475000D03*
X129975000Y-131475000D03*
X133175000Y-131475000D03*
X133975000Y-131475000D03*
X134775000Y-131475000D03*
X128375000Y-132275000D03*
X129175000Y-132275000D03*
X129975000Y-132275000D03*
X133175000Y-132275000D03*
X133975000Y-132275000D03*
X134775000Y-132275000D03*
X128375000Y-133075000D03*
X129175000Y-133075000D03*
X129975000Y-133075000D03*
X133175000Y-133075000D03*
X133975000Y-133075000D03*
X134775000Y-133075000D03*
D24*
X130855000Y-153505000D03*
X130855000Y-154005000D03*
X130855000Y-154505000D03*
X130855000Y-155005000D03*
X130855000Y-155505000D03*
X130855000Y-156005000D03*
X130855000Y-156505000D03*
X130855000Y-157005000D03*
D25*
X131580000Y-157730000D03*
X132080000Y-157730000D03*
X132580000Y-157730000D03*
X133080000Y-157730000D03*
X133580000Y-157730000D03*
X134080000Y-157730000D03*
X134580000Y-157730000D03*
X135080000Y-157730000D03*
D24*
X135805000Y-157005000D03*
X135805000Y-156505000D03*
X135805000Y-156005000D03*
X135805000Y-155505000D03*
X135805000Y-155005000D03*
X135805000Y-154505000D03*
X135805000Y-154005000D03*
X135805000Y-153505000D03*
D25*
X135080000Y-152780000D03*
X134580000Y-152780000D03*
X134080000Y-152780000D03*
X133580000Y-152780000D03*
X133080000Y-152780000D03*
X132580000Y-152780000D03*
X132080000Y-152780000D03*
X131580000Y-152780000D03*
D26*
X133330000Y-155255000D03*
D27*
X105450000Y-120845000D03*
X102910000Y-120845000D03*
X105450000Y-118305000D03*
X102910000Y-118305000D03*
X105450000Y-115765000D03*
X102910000Y-115765000D03*
X105450000Y-113225000D03*
X102910000Y-113225000D03*
X105450000Y-110685000D03*
X102910000Y-110685000D03*
D22*
X137190000Y-104375000D03*
X138160000Y-104375000D03*
D28*
X147340000Y-104740000D03*
X147340000Y-105240000D03*
X147340000Y-105740000D03*
X147340000Y-106240000D03*
X147340000Y-106740000D03*
X147340000Y-107240000D03*
X147340000Y-107740000D03*
X147340000Y-108240000D03*
X147340000Y-108740000D03*
X147340000Y-109240000D03*
X147340000Y-109740000D03*
X147340000Y-110240000D03*
X147340000Y-110740000D03*
X147340000Y-111240000D03*
X147340000Y-111740000D03*
X147340000Y-112240000D03*
X147340000Y-112740000D03*
X147340000Y-113240000D03*
X147340000Y-113740000D03*
D29*
X153290000Y-117340000D03*
X148340000Y-116740000D03*
X148340000Y-102240000D03*
X153290000Y-101640000D03*
D30*
X130025000Y-159537500D03*
X130025000Y-150137500D03*
X122625000Y-157537500D03*
D31*
X125575000Y-146237500D03*
D27*
X126325000Y-158437500D03*
X126325000Y-151237500D03*
D32*
X117175000Y-109975000D03*
X117175000Y-109175000D03*
X117175000Y-108375000D03*
X117175000Y-107575000D03*
X117175000Y-106775000D03*
X117175000Y-105975000D03*
X117175000Y-105175000D03*
X117175000Y-104375000D03*
X117175000Y-103575000D03*
X117175000Y-102775000D03*
X117175000Y-101975000D03*
X117175000Y-101175000D03*
X117175000Y-100375000D03*
X117175000Y-99575000D03*
X117175000Y-98775000D03*
X117175000Y-97975000D03*
X117175000Y-97175000D03*
X117175000Y-96375000D03*
X117175000Y-95575000D03*
X117175000Y-94775000D03*
X117175000Y-93975000D03*
X117175000Y-93175000D03*
X133175000Y-109975000D03*
X133175000Y-109175000D03*
X133175000Y-108375000D03*
X133175000Y-107575000D03*
X133175000Y-106775000D03*
X133175000Y-105975000D03*
X133175000Y-105175000D03*
X133175000Y-104375000D03*
X133175000Y-103575000D03*
X133175000Y-102775000D03*
X133175000Y-101975000D03*
X133175000Y-101175000D03*
X133175000Y-100375000D03*
X133175000Y-99575000D03*
X133175000Y-98775000D03*
X133175000Y-97975000D03*
X133175000Y-97175000D03*
X133175000Y-96375000D03*
X133175000Y-95575000D03*
X133175000Y-94775000D03*
X133175000Y-93975000D03*
X133175000Y-93175000D03*
X133975000Y-109975000D03*
X133975000Y-109175000D03*
X133975000Y-108375000D03*
X133975000Y-107575000D03*
X133975000Y-106775000D03*
X133975000Y-105975000D03*
X133975000Y-105175000D03*
X133975000Y-104375000D03*
X133975000Y-103575000D03*
X133975000Y-102775000D03*
X133975000Y-101975000D03*
X133975000Y-101175000D03*
X133975000Y-100375000D03*
X133975000Y-99575000D03*
X133975000Y-98775000D03*
X133975000Y-97975000D03*
X133975000Y-97175000D03*
X133975000Y-96375000D03*
X133975000Y-95575000D03*
X133975000Y-94775000D03*
X133975000Y-93975000D03*
X133975000Y-93175000D03*
X117975000Y-109975000D03*
X117975000Y-109175000D03*
X117975000Y-108375000D03*
X117975000Y-107575000D03*
X117975000Y-106775000D03*
X117975000Y-105975000D03*
X117975000Y-105175000D03*
X117975000Y-104375000D03*
X117975000Y-103575000D03*
X117975000Y-102775000D03*
X117975000Y-101975000D03*
X117975000Y-101175000D03*
X117975000Y-100375000D03*
X117975000Y-99575000D03*
X117975000Y-98775000D03*
X117975000Y-97975000D03*
X117975000Y-97175000D03*
X117975000Y-96375000D03*
X117975000Y-95575000D03*
X117975000Y-94775000D03*
X117975000Y-93975000D03*
X117975000Y-93175000D03*
X118775000Y-109975000D03*
X118775000Y-109175000D03*
X118775000Y-108375000D03*
X118775000Y-107575000D03*
X118775000Y-106775000D03*
X118775000Y-105975000D03*
X118775000Y-105175000D03*
X118775000Y-104375000D03*
X118775000Y-103575000D03*
X118775000Y-102775000D03*
X118775000Y-101975000D03*
X118775000Y-101175000D03*
X118775000Y-100375000D03*
X118775000Y-99575000D03*
X118775000Y-98775000D03*
X118775000Y-97975000D03*
X118775000Y-97175000D03*
X118775000Y-96375000D03*
X118775000Y-95575000D03*
X118775000Y-94775000D03*
X118775000Y-93975000D03*
X118775000Y-93175000D03*
X119575000Y-109975000D03*
X119575000Y-109175000D03*
X119575000Y-108375000D03*
X119575000Y-107575000D03*
X119575000Y-106775000D03*
X119575000Y-105975000D03*
X119575000Y-105175000D03*
X119575000Y-104375000D03*
X119575000Y-103575000D03*
X119575000Y-102775000D03*
X119575000Y-101975000D03*
X119575000Y-101175000D03*
X119575000Y-100375000D03*
X119575000Y-99575000D03*
X119575000Y-98775000D03*
X119575000Y-97975000D03*
X119575000Y-97175000D03*
X119575000Y-96375000D03*
X119575000Y-95575000D03*
X119575000Y-94775000D03*
X119575000Y-93975000D03*
X119575000Y-93175000D03*
X120375000Y-109975000D03*
X120375000Y-109175000D03*
X120375000Y-108375000D03*
X120375000Y-107575000D03*
X120375000Y-106775000D03*
X120375000Y-105975000D03*
X120375000Y-105175000D03*
X120375000Y-104375000D03*
X120375000Y-103575000D03*
X120375000Y-102775000D03*
X120375000Y-101975000D03*
X120375000Y-101175000D03*
X120375000Y-100375000D03*
X120375000Y-99575000D03*
X120375000Y-98775000D03*
X120375000Y-97975000D03*
X120375000Y-97175000D03*
X120375000Y-96375000D03*
X120375000Y-95575000D03*
X120375000Y-94775000D03*
X120375000Y-93975000D03*
X120375000Y-93175000D03*
X121175000Y-109975000D03*
X121175000Y-109175000D03*
X121175000Y-108375000D03*
X121175000Y-107575000D03*
X121175000Y-106775000D03*
X121175000Y-105975000D03*
X121175000Y-105175000D03*
X121175000Y-104375000D03*
X121175000Y-103575000D03*
X121175000Y-102775000D03*
X121175000Y-101975000D03*
X121175000Y-101175000D03*
X121175000Y-100375000D03*
X121175000Y-99575000D03*
X121175000Y-98775000D03*
X121175000Y-97975000D03*
X121175000Y-97175000D03*
X121175000Y-96375000D03*
X121175000Y-95575000D03*
X121175000Y-94775000D03*
X121175000Y-93975000D03*
X121175000Y-93175000D03*
X121975000Y-109975000D03*
X121975000Y-109175000D03*
X121975000Y-108375000D03*
X121975000Y-107575000D03*
X121975000Y-106775000D03*
X121975000Y-105975000D03*
X121975000Y-105175000D03*
X121975000Y-104375000D03*
X121975000Y-103575000D03*
X121975000Y-102775000D03*
X121975000Y-101975000D03*
X121975000Y-101175000D03*
X121975000Y-100375000D03*
X121975000Y-99575000D03*
X121975000Y-98775000D03*
X121975000Y-97975000D03*
X121975000Y-97175000D03*
X121975000Y-96375000D03*
X121975000Y-95575000D03*
X121975000Y-94775000D03*
X121975000Y-93975000D03*
X121975000Y-93175000D03*
X122775000Y-109975000D03*
X122775000Y-109175000D03*
X122775000Y-108375000D03*
X122775000Y-107575000D03*
X122775000Y-106775000D03*
X122775000Y-105975000D03*
X122775000Y-105175000D03*
X122775000Y-104375000D03*
X122775000Y-103575000D03*
X122775000Y-102775000D03*
X122775000Y-101975000D03*
X122775000Y-101175000D03*
X122775000Y-100375000D03*
X122775000Y-99575000D03*
X122775000Y-98775000D03*
X122775000Y-97975000D03*
X122775000Y-97175000D03*
X122775000Y-96375000D03*
X122775000Y-95575000D03*
X122775000Y-94775000D03*
X122775000Y-93975000D03*
X122775000Y-93175000D03*
X123575000Y-109975000D03*
X123575000Y-109175000D03*
X123575000Y-108375000D03*
X123575000Y-107575000D03*
X123575000Y-106775000D03*
X123575000Y-105975000D03*
X123575000Y-105175000D03*
X123575000Y-104375000D03*
X123575000Y-103575000D03*
X123575000Y-102775000D03*
X123575000Y-101975000D03*
X123575000Y-101175000D03*
X123575000Y-100375000D03*
X123575000Y-99575000D03*
X123575000Y-98775000D03*
X123575000Y-97975000D03*
X123575000Y-97175000D03*
X123575000Y-96375000D03*
X123575000Y-95575000D03*
X123575000Y-94775000D03*
X123575000Y-93975000D03*
X123575000Y-93175000D03*
X124375000Y-109975000D03*
X124375000Y-109175000D03*
X124375000Y-108375000D03*
X124375000Y-107575000D03*
X124375000Y-106775000D03*
X124375000Y-105975000D03*
X124375000Y-105175000D03*
X124375000Y-104375000D03*
X124375000Y-103575000D03*
X124375000Y-102775000D03*
X124375000Y-101975000D03*
X124375000Y-101175000D03*
X124375000Y-100375000D03*
X124375000Y-99575000D03*
X124375000Y-98775000D03*
X124375000Y-97975000D03*
X124375000Y-97175000D03*
X124375000Y-96375000D03*
X124375000Y-95575000D03*
X124375000Y-94775000D03*
X124375000Y-93975000D03*
X124375000Y-93175000D03*
X125175000Y-109975000D03*
X125175000Y-109175000D03*
X125175000Y-108375000D03*
X125175000Y-107575000D03*
X125175000Y-106775000D03*
X125175000Y-105975000D03*
X125175000Y-105175000D03*
X125175000Y-104375000D03*
X125175000Y-103575000D03*
X125175000Y-102775000D03*
X125175000Y-101975000D03*
X125175000Y-101175000D03*
X125175000Y-100375000D03*
X125175000Y-99575000D03*
X125175000Y-98775000D03*
X125175000Y-97975000D03*
X125175000Y-97175000D03*
X125175000Y-96375000D03*
X125175000Y-95575000D03*
X125175000Y-94775000D03*
X125175000Y-93975000D03*
X125175000Y-93175000D03*
X125975000Y-109975000D03*
X125975000Y-109175000D03*
X125975000Y-108375000D03*
X125975000Y-107575000D03*
X125975000Y-106775000D03*
X125975000Y-105975000D03*
X125975000Y-105175000D03*
X125975000Y-104375000D03*
X125975000Y-103575000D03*
X125975000Y-102775000D03*
X125975000Y-101975000D03*
X125975000Y-101175000D03*
X125975000Y-100375000D03*
X125975000Y-99575000D03*
X125975000Y-98775000D03*
X125975000Y-97975000D03*
X125975000Y-97175000D03*
X125975000Y-96375000D03*
X125975000Y-95575000D03*
X125975000Y-94775000D03*
X125975000Y-93975000D03*
X125975000Y-93175000D03*
X126775000Y-109975000D03*
X126775000Y-109175000D03*
X126775000Y-108375000D03*
X126775000Y-107575000D03*
X126775000Y-106775000D03*
X126775000Y-105975000D03*
X126775000Y-105175000D03*
X126775000Y-104375000D03*
X126775000Y-103575000D03*
X126775000Y-102775000D03*
X126775000Y-101975000D03*
X126775000Y-101175000D03*
X126775000Y-100375000D03*
X126775000Y-99575000D03*
X126775000Y-98775000D03*
X126775000Y-97975000D03*
X126775000Y-97175000D03*
X126775000Y-96375000D03*
X126775000Y-95575000D03*
X126775000Y-94775000D03*
X126775000Y-93975000D03*
X126775000Y-93175000D03*
X127575000Y-109975000D03*
X127575000Y-109175000D03*
X127575000Y-108375000D03*
X127575000Y-107575000D03*
X127575000Y-106775000D03*
X127575000Y-105975000D03*
X127575000Y-105175000D03*
X127575000Y-104375000D03*
X127575000Y-103575000D03*
X127575000Y-102775000D03*
X127575000Y-101975000D03*
X127575000Y-101175000D03*
X127575000Y-100375000D03*
X127575000Y-99575000D03*
X127575000Y-98775000D03*
X127575000Y-97975000D03*
X127575000Y-97175000D03*
X127575000Y-96375000D03*
X127575000Y-95575000D03*
X127575000Y-94775000D03*
X127575000Y-93975000D03*
X127575000Y-93175000D03*
X128375000Y-109975000D03*
X128375000Y-109175000D03*
X128375000Y-108375000D03*
X128375000Y-107575000D03*
X128375000Y-106775000D03*
X128375000Y-105975000D03*
X128375000Y-105175000D03*
X128375000Y-104375000D03*
X128375000Y-103575000D03*
X128375000Y-102775000D03*
X128375000Y-101975000D03*
X128375000Y-101175000D03*
X128375000Y-100375000D03*
X128375000Y-99575000D03*
X128375000Y-98775000D03*
X128375000Y-97975000D03*
X128375000Y-97175000D03*
X128375000Y-96375000D03*
X128375000Y-95575000D03*
X128375000Y-94775000D03*
X128375000Y-93975000D03*
X128375000Y-93175000D03*
X129175000Y-109975000D03*
X129175000Y-109175000D03*
X129175000Y-108375000D03*
X129175000Y-107575000D03*
X129175000Y-106775000D03*
X129175000Y-105975000D03*
X129175000Y-105175000D03*
X129175000Y-104375000D03*
X129175000Y-103575000D03*
X129175000Y-102775000D03*
X129175000Y-101975000D03*
X129175000Y-101175000D03*
X129175000Y-100375000D03*
X129175000Y-99575000D03*
X129175000Y-98775000D03*
X129175000Y-97975000D03*
X129175000Y-97175000D03*
X129175000Y-96375000D03*
X129175000Y-95575000D03*
X129175000Y-94775000D03*
X129175000Y-93975000D03*
X129175000Y-93175000D03*
X129975000Y-109975000D03*
X129975000Y-109175000D03*
X129975000Y-108375000D03*
X129975000Y-107575000D03*
X129975000Y-106775000D03*
X129975000Y-105975000D03*
X129975000Y-105175000D03*
X129975000Y-104375000D03*
X129975000Y-103575000D03*
X129975000Y-102775000D03*
X129975000Y-101975000D03*
X129975000Y-101175000D03*
X129975000Y-100375000D03*
X129975000Y-99575000D03*
X129975000Y-98775000D03*
X129975000Y-97975000D03*
X129975000Y-97175000D03*
X129975000Y-96375000D03*
X129975000Y-95575000D03*
X129975000Y-94775000D03*
X129975000Y-93975000D03*
X129975000Y-93175000D03*
X130775000Y-109975000D03*
X130775000Y-109175000D03*
X130775000Y-108375000D03*
X130775000Y-107575000D03*
X130775000Y-106775000D03*
X130775000Y-105975000D03*
X130775000Y-105175000D03*
X130775000Y-104375000D03*
X130775000Y-103575000D03*
X130775000Y-102775000D03*
X130775000Y-101975000D03*
X130775000Y-101175000D03*
X130775000Y-100375000D03*
X130775000Y-99575000D03*
X130775000Y-98775000D03*
X130775000Y-97975000D03*
X130775000Y-97175000D03*
X130775000Y-96375000D03*
X130775000Y-95575000D03*
X130775000Y-94775000D03*
X130775000Y-93975000D03*
X130775000Y-93175000D03*
X131575000Y-109975000D03*
X131575000Y-109175000D03*
X131575000Y-108375000D03*
X131575000Y-107575000D03*
X131575000Y-106775000D03*
X131575000Y-105975000D03*
X131575000Y-105175000D03*
X131575000Y-104375000D03*
X131575000Y-103575000D03*
X131575000Y-102775000D03*
X131575000Y-101975000D03*
X131575000Y-101175000D03*
X131575000Y-100375000D03*
X131575000Y-99575000D03*
X131575000Y-98775000D03*
X131575000Y-97975000D03*
X131575000Y-97175000D03*
X131575000Y-96375000D03*
X131575000Y-95575000D03*
X131575000Y-94775000D03*
X131575000Y-93975000D03*
X131575000Y-93175000D03*
X132375000Y-109975000D03*
X132375000Y-109175000D03*
X132375000Y-108375000D03*
X132375000Y-107575000D03*
X132375000Y-106775000D03*
X132375000Y-105975000D03*
X132375000Y-105175000D03*
X132375000Y-104375000D03*
X132375000Y-103575000D03*
X132375000Y-102775000D03*
X132375000Y-101975000D03*
X132375000Y-101175000D03*
X132375000Y-100375000D03*
X132375000Y-99575000D03*
X132375000Y-98775000D03*
X132375000Y-97975000D03*
X132375000Y-97175000D03*
X132375000Y-96375000D03*
X132375000Y-95575000D03*
X132375000Y-94775000D03*
X132375000Y-93975000D03*
X132375000Y-93175000D03*
D33*
X143090000Y-114695000D03*
X143090000Y-114045000D03*
X143090000Y-113395000D03*
X143090000Y-112745000D03*
X139690000Y-112745000D03*
X139690000Y-113395000D03*
X139690000Y-114045000D03*
X139690000Y-114695000D03*
D34*
X125720000Y-134425000D03*
X125720000Y-135395000D03*
D35*
X134945000Y-159737500D03*
X132755000Y-159737500D03*
X132755000Y-161087500D03*
X134945000Y-161087500D03*
D36*
X135405000Y-78362500D03*
X135405000Y-79202500D03*
D37*
X110960000Y-71350000D03*
X110960000Y-69450000D03*
D38*
X134445000Y-65800000D03*
X134445000Y-66820000D03*
D37*
X113040000Y-71380000D03*
X113040000Y-69480000D03*
X113100000Y-77010000D03*
X113100000Y-75110000D03*
D39*
X114050000Y-94762500D03*
X114050000Y-92937500D03*
D40*
X136320000Y-68222500D03*
X134420000Y-68222500D03*
X135370000Y-70497500D03*
D41*
X102525000Y-87837500D03*
X102525000Y-92762500D03*
D42*
X106840000Y-92670000D03*
X107340000Y-92670000D03*
X107840000Y-92670000D03*
X108340000Y-92670000D03*
D43*
X109052500Y-91957500D03*
X109052500Y-91457500D03*
X109052500Y-90957500D03*
X109052500Y-90457500D03*
D42*
X108340000Y-89745000D03*
X107840000Y-89745000D03*
X107340000Y-89745000D03*
X106840000Y-89745000D03*
D43*
X106127500Y-90457500D03*
X106127500Y-90957500D03*
X106127500Y-91457500D03*
X106127500Y-91957500D03*
D44*
X107590000Y-91207500D03*
D45*
X102050000Y-103750000D03*
X106975000Y-103750000D03*
D46*
X138250000Y-82030000D03*
X138250000Y-83930000D03*
D47*
X139050000Y-155637000D03*
X139050000Y-153097000D03*
X139050000Y-150557000D03*
X139050000Y-148017000D03*
X139050000Y-145477000D03*
D48*
X139050000Y-159447000D03*
X139050000Y-159447000D03*
X153020000Y-159447000D03*
X153020000Y-159447000D03*
X139050000Y-141667000D03*
X139050000Y-141667000D03*
X153020000Y-141667000D03*
D49*
X135380000Y-77245000D03*
X135380000Y-76225000D03*
D19*
X141938600Y-92621100D03*
X141938600Y-90121740D03*
X141938600Y-88120220D03*
X141938600Y-85620860D03*
D20*
X145520000Y-95691960D03*
X145520000Y-82550000D03*
D50*
X106875000Y-80375000D03*
X106375000Y-80375000D03*
X105875000Y-80375000D03*
X105375000Y-80375000D03*
X104875000Y-80375000D03*
X104375000Y-80375000D03*
D51*
X108775000Y-77125000D03*
X102475000Y-77125000D03*
D39*
X111775000Y-91462500D03*
X111775000Y-89637500D03*
D52*
X135845000Y-90575000D03*
X135345000Y-90575000D03*
X134845000Y-90575000D03*
X134345000Y-90575000D03*
X133845000Y-90575000D03*
X133345000Y-90575000D03*
X132845000Y-90575000D03*
X132345000Y-90575000D03*
X131845000Y-90575000D03*
X131345000Y-90575000D03*
X130845000Y-90575000D03*
X130345000Y-90575000D03*
X129845000Y-90575000D03*
X129345000Y-90575000D03*
X128845000Y-90575000D03*
X128345000Y-90575000D03*
X127845000Y-90575000D03*
X127345000Y-90575000D03*
X126845000Y-90575000D03*
X126345000Y-90575000D03*
X125845000Y-90575000D03*
X125345000Y-90575000D03*
X124845000Y-90575000D03*
X124345000Y-90575000D03*
X123845000Y-90575000D03*
X123345000Y-90575000D03*
X122845000Y-90575000D03*
X122345000Y-90575000D03*
X121845000Y-90575000D03*
X121345000Y-90575000D03*
X120845000Y-90575000D03*
X120345000Y-90575000D03*
X119845000Y-90575000D03*
X119345000Y-90575000D03*
X118845000Y-90575000D03*
X118345000Y-90575000D03*
X117845000Y-90575000D03*
X117345000Y-90575000D03*
X116845000Y-90575000D03*
X116345000Y-90575000D03*
D53*
X137515000Y-88875000D03*
X114675000Y-88875000D03*
D49*
X135470000Y-66830000D03*
X135470000Y-65810000D03*
D37*
X111800000Y-87950000D03*
X111800000Y-86050000D03*
D54*
X135445000Y-64710000D03*
X135445000Y-63870000D03*
D55*
X104250000Y-84175000D03*
X101350000Y-84175000D03*
D56*
X102800000Y-82675000D03*
D57*
X134630000Y-74912500D03*
X136530000Y-74912500D03*
X135580000Y-72637500D03*
D58*
X138100000Y-116875000D03*
X138100000Y-119175000D03*
D59*
X144400000Y-119175000D03*
D58*
X138100000Y-121475000D03*
D60*
X103655000Y-142345000D03*
X103655000Y-144885000D03*
X103655000Y-147425000D03*
X103655000Y-149965000D03*
X103655000Y-155045000D03*
X103655000Y-152505000D03*
X118895000Y-160125000D03*
X103655000Y-160125000D03*
X118895000Y-157585000D03*
X118895000Y-155045000D03*
X118895000Y-152505000D03*
X118895000Y-149965000D03*
X118895000Y-147425000D03*
X118895000Y-144885000D03*
X118895000Y-142345000D03*
X103655000Y-157585000D03*
D61*
X109850000Y-86650000D03*
X105750000Y-86650000D03*
D62*
X106325000Y-83275000D03*
X109625000Y-83275000D03*
D49*
X136380000Y-77245000D03*
X136380000Y-76225000D03*
D63*
X108550000Y-158600000D03*
X108550000Y-156060000D03*
X108550000Y-153520000D03*
X108550000Y-150980000D03*
X108550000Y-148440000D03*
X108550000Y-145900000D03*
M02*
