G04 #@! TF.GenerationSoftware,KiCad,Pcbnew,9.0.0-9.0.0-2~ubuntu24.10.1*
G04 #@! TF.CreationDate,2025-04-01T16:44:13+02:00*
G04 #@! TF.ProjectId,Zynq_SoM,5a796e71-5f53-46f4-9d2e-6b696361645f,1.0*
G04 #@! TF.SameCoordinates,Original*
G04 #@! TF.FileFunction,Legend,Top*
G04 #@! TF.FilePolarity,Positive*
%FSLAX46Y46*%
G04 Gerber Fmt 4.6, Leading zero omitted, Abs format (unit mm)*
G04 Created by KiCad (PCBNEW 9.0.0-9.0.0-2~ubuntu24.10.1) date 2025-04-01 16:44:13*
%MOMM*%
%LPD*%
G01*
G04 APERTURE LIST*
G04 Aperture macros list*
%AMRoundRect*
0 Rectangle with rounded corners*
0 $1 Rounding radius*
0 $2 $3 $4 $5 $6 $7 $8 $9 X,Y pos of 4 corners*
0 Add a 4 corners polygon primitive as box body*
4,1,4,$2,$3,$4,$5,$6,$7,$8,$9,$2,$3,0*
0 Add four circle primitives for the rounded corners*
1,1,$1+$1,$2,$3*
1,1,$1+$1,$4,$5*
1,1,$1+$1,$6,$7*
1,1,$1+$1,$8,$9*
0 Add four rect primitives between the rounded corners*
20,1,$1+$1,$2,$3,$4,$5,0*
20,1,$1+$1,$4,$5,$6,$7,0*
20,1,$1+$1,$6,$7,$8,$9,0*
20,1,$1+$1,$8,$9,$2,$3,0*%
%AMFreePoly0*
4,1,14,0.330075,0.140035,0.330090,0.140000,0.330040,0.069961,0.330025,0.069926,0.090025,-0.170070,0.089990,-0.170085,-0.130002,-0.170089,-0.130037,-0.170074,-0.130052,-0.170039,-0.130110,0.140000,-0.130095,0.140035,-0.130060,0.140050,0.330040,0.140050,0.330075,0.140035,0.330075,0.140035,$1*%
%AMFreePoly1*
4,1,14,0.089990,0.170085,0.090025,0.170070,0.330025,-0.069926,0.330040,-0.069961,0.330090,-0.140000,0.330075,-0.140035,0.330040,-0.140050,-0.130060,-0.140050,-0.130095,-0.140035,-0.130110,-0.140000,-0.130052,0.170039,-0.130037,0.170074,-0.130002,0.170089,0.089990,0.170085,0.089990,0.170085,$1*%
%AMFreePoly2*
4,1,14,0.130037,0.170074,0.130052,0.170039,0.130110,-0.140000,0.130095,-0.140035,0.130060,-0.140050,-0.330040,-0.140050,-0.330075,-0.140035,-0.330090,-0.140000,-0.330040,-0.069961,-0.330025,-0.069926,-0.090025,0.170070,-0.089990,0.170085,0.130002,0.170089,0.130037,0.170074,0.130037,0.170074,$1*%
%AMFreePoly3*
4,1,17,-0.298000,0.551600,0.299000,0.551600,0.299000,-0.551601,-0.299000,-0.551601,-0.299000,-0.551600,-0.806000,-0.551600,-0.806000,-0.348400,-0.299000,-0.348400,-0.299000,-0.101601,-0.806000,-0.101601,-0.806000,0.101599,-0.299000,0.101599,-0.299000,0.348401,-0.806000,0.348401,-0.806000,0.551601,-0.298000,0.551601,-0.298000,0.551600,-0.298000,0.551600,$1*%
%AMFreePoly4*
4,1,15,0.806000,0.348400,0.299000,0.348400,0.299000,0.101600,0.806000,0.101600,0.806000,-0.101600,0.299000,-0.101600,0.299000,-0.348400,0.806000,-0.348400,0.806000,-0.551600,0.299000,-0.551600,0.299000,-0.551601,-0.299000,-0.551601,-0.299000,0.551600,0.806000,0.551600,0.806000,0.348400,0.806000,0.348400,$1*%
%AMFreePoly5*
4,1,17,0.250002,0.499999,0.250002,-0.200000,0.200002,-0.250000,-0.499999,-0.250000,-0.549999,-0.200000,-0.549999,-0.050000,-0.499999,0.000000,-0.299999,0.000000,-0.250000,0.049999,-0.250000,0.199999,-0.200000,0.249999,-0.050000,0.249999,0.000000,0.299999,0.000000,0.499999,0.050000,0.549998,0.200000,0.549998,0.250002,0.499999,0.250002,0.499999,$1*%
%AMFreePoly6*
4,1,17,0.249999,0.200000,0.250002,-0.499999,0.200000,-0.549998,0.050000,-0.549998,0.000000,-0.499999,0.000002,-0.299999,-0.050000,-0.249999,-0.200000,-0.249999,-0.250000,-0.199999,-0.249997,-0.049999,-0.299999,0.000000,-0.499999,0.000000,-0.549999,0.050000,-0.549999,0.200000,-0.499999,0.250000,0.200002,0.250000,0.249999,0.200000,0.249999,0.200000,$1*%
%AMFreePoly7*
4,1,17,0.500001,0.250000,0.550001,0.200000,0.550001,0.050000,0.500001,0.000000,0.300001,0.000000,0.249999,-0.049999,0.250002,-0.199999,0.200002,-0.249999,0.050002,-0.249999,0.000000,-0.299999,0.000002,-0.499999,-0.049998,-0.549998,-0.200000,-0.549998,-0.250000,-0.499999,-0.250000,0.200003,-0.200000,0.250002,0.500001,0.250000,0.500001,0.250000,$1*%
%AMFreePoly8*
4,1,17,0.000002,0.500002,0.000000,0.300002,0.050002,0.250002,0.200002,0.250002,0.250002,0.200002,0.249999,0.050002,0.300001,0.000003,0.500001,0.000003,0.550001,-0.049997,0.550001,-0.199997,0.500001,-0.249997,-0.200000,-0.249999,-0.250000,-0.199997,-0.250000,0.500002,-0.200000,0.550001,-0.049998,0.550001,0.000002,0.500002,0.000002,0.500002,$1*%
G04 Aperture macros list end*
%ADD10C,0.200000*%
%ADD11C,0.400000*%
%ADD12C,0.300000*%
%ADD13C,0.120000*%
%ADD14C,0.152400*%
%ADD15C,0.150000*%
%ADD16C,0.000000*%
%ADD17C,0.127000*%
%ADD18C,0.250000*%
%ADD19C,2.505000*%
%ADD20RoundRect,0.250000X-0.250000X-0.650000X0.250000X-0.650000X0.250000X0.650000X-0.250000X0.650000X0*%
%ADD21RoundRect,0.135000X-0.135000X-0.185000X0.135000X-0.185000X0.135000X0.185000X-0.135000X0.185000X0*%
%ADD22RoundRect,0.135000X-0.226274X-0.035355X-0.035355X-0.226274X0.226274X0.035355X0.035355X0.226274X0*%
%ADD23RoundRect,0.135000X0.135000X0.185000X-0.135000X0.185000X-0.135000X-0.185000X0.135000X-0.185000X0*%
%ADD24RoundRect,0.140000X0.140000X0.170000X-0.140000X0.170000X-0.140000X-0.170000X0.140000X-0.170000X0*%
%ADD25RoundRect,0.140000X-0.140000X-0.170000X0.140000X-0.170000X0.140000X0.170000X-0.140000X0.170000X0*%
%ADD26RoundRect,0.250000X-0.650000X0.325000X-0.650000X-0.325000X0.650000X-0.325000X0.650000X0.325000X0*%
%ADD27RoundRect,0.250000X-0.475000X0.250000X-0.475000X-0.250000X0.475000X-0.250000X0.475000X0.250000X0*%
%ADD28C,2.700000*%
%ADD29RoundRect,0.140000X0.170000X-0.140000X0.170000X0.140000X-0.170000X0.140000X-0.170000X-0.140000X0*%
%ADD30RoundRect,0.135000X-0.185000X0.135000X-0.185000X-0.135000X0.185000X-0.135000X0.185000X0.135000X0*%
%ADD31RoundRect,0.100000X0.100000X-0.130000X0.100000X0.130000X-0.100000X0.130000X-0.100000X-0.130000X0*%
%ADD32RoundRect,0.100000X-0.130000X-0.100000X0.130000X-0.100000X0.130000X0.100000X-0.130000X0.100000X0*%
%ADD33RoundRect,0.100000X0.130000X0.100000X-0.130000X0.100000X-0.130000X-0.100000X0.130000X-0.100000X0*%
%ADD34RoundRect,0.125000X-0.200000X-0.125000X0.200000X-0.125000X0.200000X0.125000X-0.200000X0.125000X0*%
%ADD35R,3.400000X4.300000*%
%ADD36R,0.203200X0.711200*%
%ADD37R,0.711200X0.203200*%
%ADD38R,3.708400X3.708400*%
%ADD39FreePoly0,180.000000*%
%ADD40FreePoly1,180.000000*%
%ADD41FreePoly2,180.000000*%
%ADD42FreePoly1,0.000000*%
%ADD43RoundRect,0.027000X0.000000X0.343654X-0.343654X0.000000X0.000000X-0.343654X0.343654X0.000000X0*%
%ADD44RoundRect,0.050960X0.353039X-0.076440X0.353039X0.076440X-0.353039X0.076440X-0.353039X-0.076440X0*%
%ADD45RoundRect,0.050960X-0.076440X-0.353039X0.076440X-0.353039X0.076440X0.353039X-0.076440X0.353039X0*%
%ADD46RoundRect,0.170688X-2.674112X-2.674112X2.674112X-2.674112X2.674112X2.674112X-2.674112X2.674112X0*%
%ADD47RoundRect,0.218750X-0.218750X-0.256250X0.218750X-0.256250X0.218750X0.256250X-0.218750X0.256250X0*%
%ADD48R,0.203200X0.812800*%
%ADD49FreePoly3,90.000000*%
%ADD50FreePoly4,90.000000*%
%ADD51R,1.092200X0.254000*%
%ADD52R,0.508000X0.254000*%
%ADD53RoundRect,0.135000X0.185000X-0.135000X0.185000X0.135000X-0.185000X0.135000X-0.185000X-0.135000X0*%
%ADD54RoundRect,0.250000X0.325000X0.650000X-0.325000X0.650000X-0.325000X-0.650000X0.325000X-0.650000X0*%
%ADD55C,0.420000*%
%ADD56RoundRect,0.250000X0.250000X0.475000X-0.250000X0.475000X-0.250000X-0.475000X0.250000X-0.475000X0*%
%ADD57RoundRect,0.147500X0.172500X-0.147500X0.172500X0.147500X-0.172500X0.147500X-0.172500X-0.147500X0*%
%ADD58R,0.250000X0.600000*%
%ADD59R,0.250000X0.900000*%
%ADD60R,0.450000X0.250000*%
%ADD61RoundRect,0.250000X-0.250000X-0.475000X0.250000X-0.475000X0.250000X0.475000X-0.250000X0.475000X0*%
%ADD62R,0.482600X0.254000*%
%ADD63R,0.254000X0.482600*%
%ADD64RoundRect,0.147500X-0.172500X0.147500X-0.172500X-0.147500X0.172500X-0.147500X0.172500X0.147500X0*%
%ADD65RoundRect,0.100000X-0.100000X0.130000X-0.100000X-0.130000X0.100000X-0.130000X0.100000X0.130000X0*%
%ADD66RoundRect,0.140000X-0.170000X0.140000X-0.170000X-0.140000X0.170000X-0.140000X0.170000X0.140000X0*%
%ADD67R,0.800000X0.600000*%
%ADD68C,0.406400*%
%ADD69FreePoly5,0.000000*%
%ADD70R,0.700001X0.249999*%
%ADD71FreePoly6,0.000000*%
%ADD72R,0.249999X0.700001*%
%ADD73FreePoly7,0.000000*%
%ADD74FreePoly8,0.000000*%
%ADD75R,1.599999X1.799999*%
G04 APERTURE END LIST*
D10*
X119320000Y-100460000D02*
G75*
G02*
X119120000Y-100460000I-100000J0D01*
G01*
X119120000Y-100460000D02*
G75*
G02*
X119320000Y-100460000I100000J0D01*
G01*
X124700000Y-97400000D02*
G75*
G02*
X124500000Y-97400000I-100000J0D01*
G01*
X124500000Y-97400000D02*
G75*
G02*
X124700000Y-97400000I100000J0D01*
G01*
X146960000Y-96860000D02*
G75*
G02*
X146760000Y-96860000I-100000J0D01*
G01*
X146760000Y-96860000D02*
G75*
G02*
X146960000Y-96860000I100000J0D01*
G01*
X131800000Y-107500000D02*
G75*
G02*
X131600000Y-107500000I-100000J0D01*
G01*
X131600000Y-107500000D02*
G75*
G02*
X131800000Y-107500000I100000J0D01*
G01*
D11*
X131150000Y-104720000D02*
G75*
G02*
X130750000Y-104720000I-200000J0D01*
G01*
X130750000Y-104720000D02*
G75*
G02*
X131150000Y-104720000I200000J0D01*
G01*
D10*
X154050000Y-99700000D02*
G75*
G02*
X153850000Y-99700000I-100000J0D01*
G01*
X153850000Y-99700000D02*
G75*
G02*
X154050000Y-99700000I100000J0D01*
G01*
D12*
G36*
X151936998Y-125343879D02*
G01*
X152019131Y-125352234D01*
X152031406Y-125353771D01*
X152113399Y-125366572D01*
X152188835Y-125382212D01*
X152267019Y-125403564D01*
X152336640Y-125428626D01*
X152352707Y-125435471D01*
X152419541Y-125468997D01*
X152484285Y-125511415D01*
X152543932Y-125564356D01*
X152553475Y-125574689D01*
X152599194Y-125635320D01*
X152634091Y-125702358D01*
X152656423Y-125768862D01*
X152672693Y-125847447D01*
X152681623Y-125923697D01*
X152684972Y-126004526D01*
X152685000Y-126012861D01*
X152685000Y-126088868D01*
X152685000Y-126164182D01*
X152685000Y-126215460D01*
X152685000Y-126291490D01*
X152685000Y-126363838D01*
X151395397Y-126180655D01*
X151391688Y-126106557D01*
X151383674Y-126035942D01*
X151376083Y-125960319D01*
X151374151Y-125917972D01*
X151606423Y-125917972D01*
X152450526Y-126038506D01*
X152450526Y-126007365D01*
X152450526Y-125959371D01*
X152440401Y-125884317D01*
X152405875Y-125814567D01*
X152353224Y-125762804D01*
X152346845Y-125758237D01*
X152279715Y-125720741D01*
X152205251Y-125692616D01*
X152128675Y-125672027D01*
X152054555Y-125657366D01*
X152028108Y-125653091D01*
X151948085Y-125644315D01*
X151866022Y-125640719D01*
X151787133Y-125645367D01*
X151710869Y-125664315D01*
X151704609Y-125667013D01*
X151644777Y-125711320D01*
X151612560Y-125778296D01*
X151606423Y-125835540D01*
X151606423Y-125883534D01*
X151606423Y-125917972D01*
X151374151Y-125917972D01*
X151372511Y-125882035D01*
X151371950Y-125832609D01*
X151374123Y-125758614D01*
X151381637Y-125682651D01*
X151396100Y-125606694D01*
X151399427Y-125593740D01*
X151426561Y-125522419D01*
X151471305Y-125457829D01*
X151502009Y-125428510D01*
X151565860Y-125387706D01*
X151637605Y-125361164D01*
X151705708Y-125347177D01*
X151783313Y-125340144D01*
X151861492Y-125339732D01*
X151936998Y-125343879D01*
G37*
G36*
X151920349Y-124196955D02*
G01*
X152000788Y-124204179D01*
X152043129Y-124209616D01*
X152125687Y-124223331D01*
X152202635Y-124240299D01*
X152273973Y-124260517D01*
X152355257Y-124290363D01*
X152427775Y-124325289D01*
X152491527Y-124365296D01*
X152546514Y-124410383D01*
X152601546Y-124470541D01*
X152645192Y-124536985D01*
X152677452Y-124609714D01*
X152698326Y-124688729D01*
X152707814Y-124774028D01*
X152708447Y-124803859D01*
X152702702Y-124889991D01*
X152685469Y-124966490D01*
X152650842Y-125043562D01*
X152600578Y-125107520D01*
X152545048Y-125151905D01*
X152477514Y-125186075D01*
X152397461Y-125209452D01*
X152321186Y-125220688D01*
X152236218Y-125224429D01*
X152161983Y-125222025D01*
X152082184Y-125214823D01*
X152040198Y-125209424D01*
X151956954Y-125195628D01*
X151879410Y-125178603D01*
X151807569Y-125158350D01*
X151725784Y-125128494D01*
X151652908Y-125093593D01*
X151588941Y-125053647D01*
X151533883Y-125008656D01*
X151478851Y-124948498D01*
X151435205Y-124882054D01*
X151402945Y-124809325D01*
X151382071Y-124730311D01*
X151373014Y-124648886D01*
X151606423Y-124648886D01*
X151624925Y-124725881D01*
X151674848Y-124785146D01*
X151718531Y-124814483D01*
X151789412Y-124847024D01*
X151865897Y-124871765D01*
X151943226Y-124890183D01*
X152017239Y-124903570D01*
X152043496Y-124907540D01*
X152118603Y-124916843D01*
X152197438Y-124922391D01*
X152275943Y-124921732D01*
X152349481Y-124912069D01*
X152363698Y-124908639D01*
X152430897Y-124876027D01*
X152470097Y-124811803D01*
X152473974Y-124775648D01*
X152458260Y-124699021D01*
X152411119Y-124636201D01*
X152362233Y-124601992D01*
X152291434Y-124569505D01*
X152215511Y-124545251D01*
X152139048Y-124527597D01*
X152066057Y-124515116D01*
X152040198Y-124511500D01*
X151963983Y-124502299D01*
X151884182Y-124497133D01*
X151805001Y-124498569D01*
X151731250Y-124509546D01*
X151717065Y-124513332D01*
X151649643Y-124547335D01*
X151610313Y-124612531D01*
X151606423Y-124648886D01*
X151373014Y-124648886D01*
X151372583Y-124645011D01*
X151371950Y-124615181D01*
X151377694Y-124529993D01*
X151394928Y-124454129D01*
X151429554Y-124377408D01*
X151479818Y-124313380D01*
X151535348Y-124268600D01*
X151602986Y-124233820D01*
X151683348Y-124209988D01*
X151760038Y-124198491D01*
X151845565Y-124194596D01*
X151920349Y-124196955D01*
G37*
G36*
X152685000Y-123218967D02*
G01*
X152685000Y-123476154D01*
X151895851Y-123764117D01*
X151935785Y-123760453D01*
X152008514Y-123769790D01*
X152019682Y-123771810D01*
X152685000Y-123863035D01*
X152685000Y-124123154D01*
X151395397Y-123939972D01*
X151395397Y-123679487D01*
X151473158Y-123651189D01*
X151550095Y-123623175D01*
X151626207Y-123595445D01*
X151701495Y-123567997D01*
X151775958Y-123540833D01*
X151800596Y-123531842D01*
X151874527Y-123505159D01*
X151948768Y-123478965D01*
X152023317Y-123453261D01*
X152098176Y-123428046D01*
X152173343Y-123403321D01*
X152198468Y-123395188D01*
X152198468Y-123397752D01*
X152143513Y-123398485D01*
X152069390Y-123393173D01*
X152061448Y-123392623D01*
X151395397Y-123298468D01*
X151395397Y-123035418D01*
X152685000Y-123218967D01*
G37*
G36*
X152685000Y-122987424D02*
G01*
X151395397Y-122804242D01*
X151395397Y-122090565D01*
X151629870Y-122128300D01*
X151629870Y-122541559D01*
X151887791Y-122580760D01*
X151887791Y-122265321D01*
X152122264Y-122296828D01*
X152122264Y-122614832D01*
X152450526Y-122659528D01*
X152450526Y-122240041D01*
X152685000Y-122271549D01*
X152685000Y-122987424D01*
G37*
D13*
X149660000Y-102660000D02*
X150060000Y-102660000D01*
X149660000Y-104660000D02*
X150060000Y-104660000D01*
X117621359Y-102470000D02*
X117928641Y-102470000D01*
X117621359Y-103230000D02*
X117928641Y-103230000D01*
X154221359Y-125720000D02*
X154528641Y-125720000D01*
X154221359Y-126480000D02*
X154528641Y-126480000D01*
X131652659Y-104020060D02*
X131869940Y-104237341D01*
X132190060Y-103482659D02*
X132407341Y-103699940D01*
X125153641Y-95720000D02*
X124846359Y-95720000D01*
X125153641Y-96480000D02*
X124846359Y-96480000D01*
X129563641Y-112919999D02*
X129256359Y-112919999D01*
X129563641Y-113679999D02*
X129256359Y-113679999D01*
X123957836Y-108390000D02*
X123742164Y-108390000D01*
X123957836Y-109110000D02*
X123742164Y-109110000D01*
X147442164Y-104340000D02*
X147657836Y-104340000D01*
X147442164Y-105060000D02*
X147657836Y-105060000D01*
X112700000Y-125118748D02*
X112700000Y-126541252D01*
X114520000Y-125118748D02*
X114520000Y-126541252D01*
X115540002Y-128888748D02*
X115540002Y-129411252D01*
X117010002Y-128888748D02*
X117010002Y-129411252D01*
X108260000Y-98552836D02*
X108260000Y-98337164D01*
X108980000Y-98552836D02*
X108980000Y-98337164D01*
X147442164Y-103365000D02*
X147657836Y-103365000D01*
X147442164Y-104085000D02*
X147657836Y-104085000D01*
X150120000Y-130696359D02*
X150120000Y-131003641D01*
X150880000Y-130696359D02*
X150880000Y-131003641D01*
X147650000Y-97757836D02*
X147650000Y-97542164D01*
X148370000Y-97757836D02*
X148370000Y-97542164D01*
X148740000Y-101207836D02*
X148740000Y-100992164D01*
X149460000Y-101207836D02*
X149460000Y-100992164D01*
X150217164Y-95015000D02*
X150432836Y-95015000D01*
X150217164Y-95735000D02*
X150432836Y-95735000D01*
X144853641Y-104420000D02*
X144546359Y-104420000D01*
X144853641Y-105180000D02*
X144546359Y-105180000D01*
X128321359Y-104020000D02*
X128628641Y-104020000D01*
X128321359Y-104780000D02*
X128628641Y-104780000D01*
X120866359Y-124810000D02*
X121173641Y-124810000D01*
X120866359Y-125570000D02*
X121173641Y-125570000D01*
X156337836Y-109830000D02*
X156122164Y-109830000D01*
X156337836Y-110550000D02*
X156122164Y-110550000D01*
X119175000Y-107110000D02*
X127175000Y-107110000D01*
X119185000Y-100890000D02*
X127175000Y-100890000D01*
D14*
X142131100Y-97651100D02*
X142131100Y-98045661D01*
X142131100Y-102514339D02*
X142131100Y-102908900D01*
X142131100Y-102908900D02*
X142525661Y-102908900D01*
X142525661Y-97651100D02*
X142131100Y-97651100D01*
X146994339Y-102908900D02*
X147388900Y-102908900D01*
X147388900Y-97651100D02*
X146994339Y-97651100D01*
X147388900Y-98045661D02*
X147388900Y-97651100D01*
X147388900Y-102908900D02*
X147388900Y-102514339D01*
D13*
X129563641Y-113919999D02*
X129256359Y-113919999D01*
X129563641Y-114679999D02*
X129256359Y-114679999D01*
X149820000Y-98346359D02*
X149820000Y-98653641D01*
X150580000Y-98346359D02*
X150580000Y-98653641D01*
X148117164Y-128890000D02*
X148332836Y-128890000D01*
X148117164Y-129610000D02*
X148332836Y-129610000D01*
X119707836Y-126240000D02*
X119492164Y-126240000D01*
X119707836Y-126960000D02*
X119492164Y-126960000D01*
X110510000Y-97815000D02*
X109710000Y-97815000D01*
X110510000Y-99115000D02*
X109710000Y-99115000D01*
D15*
X111135000Y-99215000D02*
G75*
G02*
X110985000Y-99215000I-75000J0D01*
G01*
X110985000Y-99215000D02*
G75*
G02*
X111135000Y-99215000I75000J0D01*
G01*
D13*
X113646359Y-97770000D02*
X113953641Y-97770000D01*
X113646359Y-98530000D02*
X113953641Y-98530000D01*
X117621359Y-101520000D02*
X117928641Y-101520000D01*
X117621359Y-102280000D02*
X117928641Y-102280000D01*
X117608642Y-131770000D02*
X117301360Y-131770000D01*
X117608642Y-132530000D02*
X117301360Y-132530000D01*
X115869000Y-92517000D02*
X115869000Y-92989860D01*
X115869000Y-99410140D02*
X115869000Y-99883000D01*
X115869000Y-99883000D02*
X116341860Y-99883000D01*
X116341860Y-92517000D02*
X115869000Y-92517000D01*
X122762140Y-99883000D02*
X123235000Y-99883000D01*
X123235000Y-92517000D02*
X122762140Y-92517000D01*
X123235000Y-92989860D02*
X123235000Y-92517000D01*
X123235000Y-99883000D02*
X123235000Y-99410140D01*
D10*
X115202000Y-93450000D02*
G75*
G02*
X115002000Y-93450000I-100000J0D01*
G01*
X115002000Y-93450000D02*
G75*
G02*
X115202000Y-93450000I100000J0D01*
G01*
D13*
X153315000Y-123740000D02*
X153315000Y-125210000D01*
X153315000Y-125210000D02*
X155600000Y-125210000D01*
X155600000Y-123740000D02*
X153315000Y-123740000D01*
X138856359Y-99520000D02*
X139163641Y-99520000D01*
X138856359Y-100280000D02*
X139163641Y-100280000D01*
D14*
X117494601Y-127877600D02*
X117494601Y-128590260D01*
X117494601Y-130009740D02*
X117494601Y-130722400D01*
X121355401Y-130722400D02*
X121355401Y-127877600D01*
D10*
X118125001Y-131500000D02*
G75*
G02*
X117925001Y-131500000I-100000J0D01*
G01*
X117925001Y-131500000D02*
G75*
G02*
X118125001Y-131500000I100000J0D01*
G01*
D13*
X121740002Y-128982048D02*
X121740002Y-129504552D01*
X123210002Y-128982048D02*
X123210002Y-129504552D01*
X107970000Y-111703641D02*
X107970000Y-111396359D01*
X108730000Y-111703641D02*
X108730000Y-111396359D01*
X110901252Y-124460000D02*
X109478748Y-124460000D01*
X110901252Y-126280000D02*
X109478748Y-126280000D01*
D16*
G36*
X144322074Y-130354435D02*
G01*
X144328271Y-130357086D01*
X144357665Y-130374907D01*
X144382707Y-130399359D01*
X144403867Y-130431300D01*
X144421619Y-130471586D01*
X144436434Y-130521072D01*
X144447518Y-130573475D01*
X144450418Y-130595606D01*
X144452977Y-130626876D01*
X144455163Y-130665417D01*
X144456944Y-130709362D01*
X144458289Y-130756844D01*
X144459167Y-130805996D01*
X144459546Y-130854950D01*
X144459395Y-130901839D01*
X144458681Y-130944796D01*
X144457374Y-130981954D01*
X144455442Y-131011445D01*
X144454988Y-131016153D01*
X144445706Y-131084481D01*
X144432937Y-131142600D01*
X144416568Y-131190779D01*
X144396486Y-131229289D01*
X144372579Y-131258402D01*
X144346186Y-131277619D01*
X144308999Y-131292320D01*
X144272558Y-131296037D01*
X144236869Y-131288769D01*
X144205743Y-131273064D01*
X144182107Y-131252950D01*
X144161752Y-131225229D01*
X144144529Y-131189403D01*
X144130288Y-131144976D01*
X144118882Y-131091451D01*
X144110162Y-131028331D01*
X144103978Y-130955119D01*
X144102417Y-130927634D01*
X144100604Y-130874371D01*
X144100236Y-130817624D01*
X144101219Y-130759845D01*
X144103458Y-130703482D01*
X144106859Y-130650985D01*
X144111327Y-130604805D01*
X144116191Y-130570616D01*
X144125904Y-130524252D01*
X144138050Y-130481149D01*
X144151836Y-130443697D01*
X144166468Y-130414281D01*
X144170084Y-130408582D01*
X144194275Y-130381057D01*
X144223605Y-130361217D01*
X144256039Y-130349724D01*
X144289541Y-130347243D01*
X144322074Y-130354435D01*
G37*
G36*
X137067266Y-127121430D02*
G01*
X137050822Y-127213505D01*
X137047395Y-127229829D01*
X137018868Y-127337848D01*
X136980380Y-127441868D01*
X136931850Y-127542002D01*
X136873202Y-127638361D01*
X136804355Y-127731057D01*
X136725233Y-127820202D01*
X136635756Y-127905908D01*
X136535845Y-127988285D01*
X136491785Y-128021170D01*
X136399625Y-128086177D01*
X136309009Y-128146421D01*
X136220832Y-128201396D01*
X136135992Y-128250594D01*
X136055384Y-128293508D01*
X135979904Y-128329629D01*
X135910448Y-128358451D01*
X135872614Y-128371841D01*
X135798726Y-128393906D01*
X135724067Y-128411645D01*
X135646627Y-128425363D01*
X135564394Y-128435364D01*
X135475359Y-128441951D01*
X135386959Y-128445230D01*
X135289317Y-128445572D01*
X135201473Y-128441866D01*
X135122910Y-128433918D01*
X135053114Y-128421537D01*
X134991570Y-128404529D01*
X134937762Y-128382701D01*
X134891175Y-128355862D01*
X134851292Y-128323817D01*
X134817600Y-128286374D01*
X134789583Y-128243340D01*
X134776173Y-128216714D01*
X134756032Y-128161221D01*
X134742622Y-128097931D01*
X134735891Y-128027723D01*
X134735788Y-127951471D01*
X134738361Y-127919104D01*
X135053508Y-127919104D01*
X135053794Y-127925074D01*
X135061215Y-127954231D01*
X135078093Y-127981711D01*
X135104843Y-128007943D01*
X135141879Y-128033357D01*
X135176245Y-128051936D01*
X135217298Y-128070728D01*
X135254776Y-128083974D01*
X135291425Y-128092071D01*
X135329992Y-128095421D01*
X135373224Y-128094422D01*
X135423867Y-128089474D01*
X135429508Y-128088769D01*
X135462035Y-128084846D01*
X135502101Y-128080331D01*
X135546275Y-128075593D01*
X135591126Y-128071000D01*
X135633008Y-128066940D01*
X135692732Y-128060910D01*
X135743311Y-128054668D01*
X135786608Y-128047769D01*
X135824484Y-128039766D01*
X135858804Y-128030213D01*
X135891429Y-128018664D01*
X135924221Y-128004671D01*
X135955189Y-127989736D01*
X136003283Y-127963209D01*
X136056913Y-127929467D01*
X136114520Y-127889713D01*
X136174542Y-127845147D01*
X136235416Y-127796970D01*
X136295583Y-127746385D01*
X136353479Y-127694593D01*
X136407544Y-127642794D01*
X136412324Y-127638017D01*
X136477481Y-127569184D01*
X136532799Y-127502973D01*
X136578827Y-127438356D01*
X136616114Y-127374307D01*
X136645208Y-127309799D01*
X136666658Y-127243806D01*
X136681014Y-127175299D01*
X136687285Y-127123604D01*
X136689258Y-127046674D01*
X136681447Y-126974420D01*
X136664097Y-126907225D01*
X136637452Y-126845473D01*
X136601756Y-126789545D01*
X136557252Y-126739826D01*
X136504184Y-126696697D01*
X136442796Y-126660542D01*
X136374356Y-126632093D01*
X136332298Y-126618865D01*
X136293069Y-126609370D01*
X136253590Y-126603183D01*
X136210781Y-126599879D01*
X136161563Y-126599034D01*
X136136854Y-126599336D01*
X136100857Y-126600220D01*
X136073184Y-126601518D01*
X136051150Y-126603545D01*
X136032069Y-126606618D01*
X136013255Y-126611052D01*
X135996476Y-126615825D01*
X135922654Y-126643028D01*
X135847596Y-126680943D01*
X135771562Y-126729371D01*
X135694809Y-126788117D01*
X135617595Y-126856983D01*
X135540180Y-126935771D01*
X135465563Y-127020980D01*
X135386866Y-127122579D01*
X135314107Y-127230396D01*
X135248789Y-127341995D01*
X135192417Y-127454937D01*
X135178578Y-127486151D01*
X135160381Y-127530565D01*
X135142315Y-127578720D01*
X135124804Y-127629118D01*
X135108274Y-127680265D01*
X135093150Y-127730665D01*
X135079858Y-127778822D01*
X135068822Y-127823240D01*
X135060469Y-127862423D01*
X135055222Y-127894877D01*
X135053508Y-127919104D01*
X134738361Y-127919104D01*
X134742260Y-127870054D01*
X134755257Y-127784348D01*
X134774726Y-127695230D01*
X134800617Y-127603576D01*
X134814784Y-127560469D01*
X134851735Y-127462231D01*
X134896358Y-127359706D01*
X134947486Y-127255176D01*
X135003956Y-127150922D01*
X135064602Y-127049225D01*
X135116330Y-126969788D01*
X135192104Y-126864209D01*
X135269301Y-126769048D01*
X135348587Y-126683737D01*
X135430626Y-126607710D01*
X135516084Y-126540400D01*
X135605626Y-126481240D01*
X135699918Y-126429663D01*
X135799623Y-126385103D01*
X135805102Y-126382914D01*
X135903816Y-126348159D01*
X136005787Y-126320702D01*
X136109005Y-126300863D01*
X136211460Y-126288963D01*
X136311141Y-126285322D01*
X136394277Y-126289141D01*
X136480235Y-126300601D01*
X136564095Y-126319282D01*
X136644002Y-126344576D01*
X136718101Y-126375871D01*
X136784538Y-126412556D01*
X136800059Y-126422720D01*
X136846009Y-126459328D01*
X136890741Y-126505352D01*
X136933241Y-126559201D01*
X136972492Y-126619282D01*
X137007480Y-126684003D01*
X137037189Y-126751772D01*
X137060604Y-126820998D01*
X137065485Y-126838847D01*
X137076059Y-126896745D01*
X137079882Y-126963105D01*
X137076952Y-127037982D01*
X137075943Y-127046674D01*
X137067266Y-127121430D01*
G37*
G36*
X139221351Y-126359139D02*
G01*
X139222507Y-126361758D01*
X139227151Y-126376364D01*
X139233782Y-126399807D01*
X139241930Y-126430193D01*
X139251127Y-126465627D01*
X139260902Y-126504214D01*
X139270786Y-126544058D01*
X139280308Y-126583266D01*
X139289001Y-126619942D01*
X139296394Y-126652191D01*
X139302017Y-126678118D01*
X139305402Y-126695829D01*
X139305599Y-126697076D01*
X139312352Y-126769173D01*
X139310679Y-126840060D01*
X139301002Y-126908640D01*
X139283746Y-126973818D01*
X139259334Y-127034498D01*
X139228191Y-127089585D01*
X139190739Y-127137984D01*
X139147402Y-127178598D01*
X139109365Y-127204413D01*
X139074451Y-127221021D01*
X139036028Y-127233326D01*
X138996336Y-127241125D01*
X138957614Y-127244217D01*
X138922102Y-127242400D01*
X138892041Y-127235473D01*
X138872831Y-127225697D01*
X138855513Y-127207219D01*
X138842528Y-127181445D01*
X138835303Y-127151697D01*
X138834296Y-127135998D01*
X138838710Y-127092995D01*
X138852252Y-127051075D01*
X138875372Y-127009374D01*
X138908521Y-126967030D01*
X138938858Y-126935653D01*
X138967715Y-126906339D01*
X138987920Y-126882104D01*
X139000089Y-126862083D01*
X139004837Y-126845410D01*
X139004951Y-126842637D01*
X139003216Y-126829344D01*
X138998620Y-126809535D01*
X138992079Y-126787037D01*
X138990537Y-126782311D01*
X138983011Y-126760705D01*
X138976803Y-126746981D01*
X138970055Y-126738478D01*
X138960914Y-126732536D01*
X138953378Y-126729036D01*
X138934108Y-126722342D01*
X138909334Y-126716989D01*
X138878200Y-126712921D01*
X138839855Y-126710084D01*
X138793443Y-126708420D01*
X138738111Y-126707876D01*
X138673005Y-126708394D01*
X138644374Y-126708879D01*
X138574030Y-126710587D01*
X138513288Y-126712968D01*
X138460747Y-126716243D01*
X138415007Y-126720633D01*
X138374670Y-126726358D01*
X138338336Y-126733639D01*
X138304605Y-126742698D01*
X138272077Y-126753755D01*
X138239353Y-126767030D01*
X138219591Y-126775899D01*
X138183524Y-126793887D01*
X138144393Y-126815683D01*
X138104100Y-126840018D01*
X138064551Y-126865626D01*
X138027651Y-126891239D01*
X137995303Y-126915588D01*
X137969413Y-126937408D01*
X137954529Y-126952303D01*
X137933207Y-126982772D01*
X137913546Y-127023685D01*
X137895748Y-127074575D01*
X137885517Y-127111812D01*
X137876759Y-127147819D01*
X137870909Y-127175228D01*
X137867813Y-127196020D01*
X137867318Y-127212174D01*
X137869273Y-127225669D01*
X137873525Y-127238485D01*
X137875406Y-127242902D01*
X137882598Y-127256276D01*
X137892555Y-127268916D01*
X137906439Y-127281628D01*
X137925410Y-127295217D01*
X137950632Y-127310490D01*
X137983266Y-127328254D01*
X138024475Y-127349314D01*
X138039716Y-127356908D01*
X138103765Y-127387736D01*
X138164545Y-127415146D01*
X138221094Y-127438782D01*
X138272453Y-127458287D01*
X138317659Y-127473305D01*
X138355752Y-127483478D01*
X138385772Y-127488451D01*
X138395310Y-127488904D01*
X138418701Y-127491288D01*
X138448786Y-127497843D01*
X138482482Y-127507673D01*
X138516709Y-127519882D01*
X138547560Y-127533177D01*
X138603640Y-127563335D01*
X138662686Y-127601180D01*
X138723356Y-127645432D01*
X138784310Y-127694807D01*
X138844206Y-127748027D01*
X138901702Y-127803809D01*
X138955458Y-127860871D01*
X139004131Y-127917934D01*
X139046380Y-127973715D01*
X139080865Y-128026933D01*
X139098344Y-128059267D01*
X139117388Y-128104031D01*
X139130379Y-128147817D01*
X139136520Y-128187733D01*
X139136908Y-128199047D01*
X139131994Y-128245116D01*
X139117353Y-128295819D01*
X139093131Y-128350923D01*
X139059476Y-128410196D01*
X139016537Y-128473404D01*
X138964460Y-128540316D01*
X138903394Y-128610697D01*
X138833487Y-128684315D01*
X138820622Y-128697248D01*
X138716950Y-128794066D01*
X138610302Y-128880377D01*
X138500478Y-128956328D01*
X138387277Y-129022065D01*
X138356235Y-129038019D01*
X138306648Y-129061621D01*
X138258537Y-129081804D01*
X138210578Y-129098801D01*
X138161448Y-129112848D01*
X138109822Y-129124180D01*
X138054377Y-129133031D01*
X137993789Y-129139635D01*
X137926734Y-129144228D01*
X137851888Y-129147044D01*
X137767928Y-129148318D01*
X137733299Y-129148446D01*
X137673742Y-129148383D01*
X137623863Y-129147973D01*
X137582333Y-129147100D01*
X137547822Y-129145643D01*
X137519000Y-129143484D01*
X137494539Y-129140504D01*
X137473108Y-129136585D01*
X137453377Y-129131608D01*
X137434019Y-129125455D01*
X137420281Y-129120497D01*
X137374057Y-129098586D01*
X137327772Y-129068193D01*
X137283397Y-129031239D01*
X137242902Y-128989651D01*
X137208259Y-128945351D01*
X137181437Y-128900265D01*
X137171354Y-128877457D01*
X137162138Y-128844576D01*
X137156983Y-128806734D01*
X137156129Y-128768269D01*
X137159812Y-128733520D01*
X137162756Y-128721128D01*
X137176703Y-128686432D01*
X137195914Y-128658049D01*
X137219085Y-128637259D01*
X137244911Y-128625339D01*
X137262918Y-128622951D01*
X137282769Y-128625357D01*
X137304104Y-128633102D01*
X137328121Y-128646929D01*
X137356018Y-128667576D01*
X137388994Y-128695784D01*
X137406081Y-128711394D01*
X137433711Y-128736567D01*
X137456176Y-128755678D01*
X137475984Y-128770561D01*
X137495646Y-128783048D01*
X137517671Y-128794970D01*
X137526862Y-128799576D01*
X137563928Y-128816964D01*
X137596948Y-128830009D01*
X137628675Y-128839297D01*
X137661865Y-128845418D01*
X137699272Y-128848960D01*
X137743651Y-128850511D01*
X137766329Y-128850715D01*
X137817251Y-128850261D01*
X137860795Y-128848234D01*
X137900533Y-128844221D01*
X137940035Y-128837809D01*
X137982874Y-128828584D01*
X138005796Y-128823005D01*
X138099037Y-128794685D01*
X138190836Y-128756641D01*
X138281802Y-128708555D01*
X138372544Y-128650106D01*
X138455544Y-128587558D01*
X138517212Y-128535243D01*
X138572071Y-128483239D01*
X138619801Y-128432078D01*
X138660084Y-128382291D01*
X138692601Y-128334409D01*
X138717034Y-128288962D01*
X138733065Y-128246481D01*
X138740374Y-128207498D01*
X138738644Y-128172543D01*
X138727555Y-128142148D01*
X138725179Y-128138194D01*
X138700190Y-128106636D01*
X138664420Y-128073649D01*
X138617989Y-128039320D01*
X138561022Y-128003736D01*
X138493640Y-127966984D01*
X138462710Y-127951440D01*
X138419387Y-127930653D01*
X138376292Y-127911096D01*
X138331752Y-127892110D01*
X138284093Y-127873033D01*
X138231642Y-127853206D01*
X138172727Y-127831967D01*
X138105673Y-127808657D01*
X138071542Y-127797025D01*
X137988201Y-127767586D01*
X137914762Y-127739013D01*
X137850206Y-127710775D01*
X137793513Y-127682343D01*
X137743665Y-127653184D01*
X137699642Y-127622768D01*
X137660425Y-127590565D01*
X137641956Y-127573291D01*
X137596523Y-127523626D01*
X137561465Y-127472918D01*
X137536154Y-127419692D01*
X137519966Y-127362472D01*
X137512272Y-127299784D01*
X137511415Y-127265952D01*
X137515033Y-127201137D01*
X137525865Y-127137653D01*
X137544447Y-127073578D01*
X137571311Y-127006997D01*
X137599375Y-126950167D01*
X137652138Y-126858608D01*
X137708224Y-126777263D01*
X137768064Y-126705721D01*
X137832090Y-126643574D01*
X137900734Y-126590412D01*
X137974428Y-126545824D01*
X138053605Y-126509400D01*
X138070993Y-126502741D01*
X138131928Y-126482651D01*
X138202855Y-126463693D01*
X138282794Y-126446046D01*
X138370768Y-126429885D01*
X138465799Y-126415389D01*
X138566910Y-126402735D01*
X138673123Y-126392100D01*
X138688414Y-126390776D01*
X138707573Y-126389243D01*
X138734910Y-126387188D01*
X138769066Y-126384703D01*
X138808684Y-126381881D01*
X138852408Y-126378813D01*
X138898880Y-126375591D01*
X138946743Y-126372307D01*
X138994640Y-126369055D01*
X139041214Y-126365925D01*
X139085107Y-126363010D01*
X139124962Y-126360402D01*
X139159423Y-126358193D01*
X139187132Y-126356476D01*
X139206731Y-126355341D01*
X139216864Y-126354882D01*
X139217369Y-126354877D01*
X139221351Y-126359139D01*
G37*
G36*
X134473591Y-126100015D02*
G01*
X134490949Y-126106336D01*
X134506881Y-126116955D01*
X134520510Y-126130986D01*
X134531817Y-126148908D01*
X134540781Y-126171202D01*
X134547383Y-126198349D01*
X134551602Y-126230828D01*
X134553418Y-126269120D01*
X134552811Y-126313706D01*
X134549761Y-126365066D01*
X134544248Y-126423680D01*
X134536252Y-126490030D01*
X134525752Y-126564594D01*
X134512730Y-126647854D01*
X134497163Y-126740290D01*
X134479033Y-126842383D01*
X134458319Y-126954613D01*
X134454643Y-126974188D01*
X134436748Y-127068081D01*
X134417093Y-127169086D01*
X134395898Y-127276165D01*
X134373386Y-127388280D01*
X134349776Y-127504393D01*
X134325291Y-127623468D01*
X134300151Y-127744466D01*
X134274577Y-127866351D01*
X134248790Y-127988085D01*
X134223013Y-128108629D01*
X134197464Y-128226947D01*
X134172367Y-128342002D01*
X134147941Y-128452755D01*
X134124408Y-128558169D01*
X134101989Y-128657207D01*
X134080906Y-128748830D01*
X134061379Y-128832003D01*
X134043629Y-128905686D01*
X134039030Y-128924385D01*
X134020834Y-128995643D01*
X134003924Y-129056742D01*
X133988017Y-129108422D01*
X133972833Y-129151421D01*
X133958091Y-129186480D01*
X133943508Y-129214338D01*
X133928803Y-129235733D01*
X133914974Y-129250303D01*
X133869192Y-129284851D01*
X133822987Y-129308441D01*
X133776252Y-129321120D01*
X133747690Y-129323513D01*
X133716819Y-129321509D01*
X133692660Y-129313518D01*
X133671893Y-129298081D01*
X133659994Y-129285020D01*
X133648067Y-129268416D01*
X133637230Y-129248441D01*
X133627310Y-129224282D01*
X133618138Y-129195127D01*
X133609542Y-129160163D01*
X133601352Y-129118579D01*
X133593397Y-129069561D01*
X133585507Y-129012298D01*
X133577511Y-128945977D01*
X133569237Y-128869786D01*
X133565911Y-128837343D01*
X133550607Y-128697635D01*
X133533932Y-128568088D01*
X133515742Y-128447924D01*
X133495893Y-128336362D01*
X133474244Y-128232623D01*
X133450650Y-128135928D01*
X133424969Y-128045496D01*
X133414489Y-128012166D01*
X133400205Y-127970496D01*
X133385748Y-127932924D01*
X133371698Y-127900651D01*
X133358634Y-127874879D01*
X133347135Y-127856807D01*
X133337781Y-127847636D01*
X133334650Y-127846728D01*
X133328131Y-127850553D01*
X133315397Y-127861193D01*
X133297718Y-127877391D01*
X133276371Y-127897892D01*
X133252627Y-127921441D01*
X133227761Y-127946781D01*
X133203045Y-127972658D01*
X133179754Y-127997815D01*
X133167138Y-128011877D01*
X133103204Y-128085605D01*
X133034123Y-128167972D01*
X132960488Y-128258218D01*
X132882891Y-128355587D01*
X132801925Y-128459321D01*
X132718181Y-128568661D01*
X132632253Y-128682850D01*
X132544733Y-128801130D01*
X132467997Y-128906437D01*
X132429922Y-128958974D01*
X132397457Y-129003473D01*
X132369810Y-129040859D01*
X132346193Y-129072055D01*
X132325814Y-129097983D01*
X132307885Y-129119566D01*
X132291615Y-129137727D01*
X132276213Y-129153390D01*
X132260891Y-129167477D01*
X132244858Y-129180910D01*
X132227324Y-129194614D01*
X132210473Y-129207295D01*
X132181584Y-129226961D01*
X132147853Y-129246957D01*
X132112188Y-129265806D01*
X132077496Y-129282033D01*
X132046684Y-129294161D01*
X132029073Y-129299400D01*
X132000487Y-129303886D01*
X131968493Y-129305304D01*
X131937802Y-129303662D01*
X131913751Y-129299160D01*
X131887598Y-129286532D01*
X131862461Y-129265857D01*
X131841407Y-129239905D01*
X131834063Y-129227207D01*
X131825360Y-129207789D01*
X131818084Y-129186314D01*
X131812289Y-129162308D01*
X131808029Y-129135298D01*
X131805358Y-129104812D01*
X131804332Y-129070377D01*
X131805003Y-129031520D01*
X131807427Y-128987768D01*
X131811657Y-128938648D01*
X131817747Y-128883687D01*
X131825753Y-128822412D01*
X131835728Y-128754350D01*
X131847727Y-128679030D01*
X131861804Y-128595976D01*
X131878012Y-128504718D01*
X131896407Y-128404781D01*
X131917042Y-128295693D01*
X131939972Y-128176981D01*
X131965251Y-128048172D01*
X131974938Y-127999233D01*
X132002503Y-127859389D01*
X132027726Y-127729590D01*
X132050727Y-127609150D01*
X132071630Y-127497384D01*
X132090557Y-127393607D01*
X132107629Y-127297133D01*
X132122969Y-127207276D01*
X132136698Y-127123352D01*
X132148940Y-127044675D01*
X132159815Y-126970558D01*
X132165816Y-126927395D01*
X132170454Y-126892256D01*
X132174079Y-126861640D01*
X132176819Y-126833300D01*
X132178808Y-126804987D01*
X132180175Y-126774452D01*
X132181051Y-126739447D01*
X132181568Y-126697721D01*
X132181835Y-126652146D01*
X132182123Y-126603476D01*
X132182593Y-126564409D01*
X132183318Y-126533538D01*
X132184374Y-126509455D01*
X132185834Y-126490754D01*
X132187772Y-126476027D01*
X132190263Y-126463869D01*
X132192132Y-126456954D01*
X132207676Y-126413927D01*
X132226736Y-126379860D01*
X132250313Y-126352996D01*
X132252405Y-126351122D01*
X132273423Y-126335130D01*
X132295659Y-126324179D01*
X132322296Y-126317112D01*
X132356513Y-126312772D01*
X132358280Y-126312623D01*
X132406534Y-126313298D01*
X132451097Y-126323178D01*
X132490793Y-126341637D01*
X132524448Y-126368045D01*
X132550889Y-126401776D01*
X132560956Y-126421010D01*
X132568163Y-126438551D01*
X132572585Y-126454398D01*
X132574853Y-126472286D01*
X132575597Y-126495949D01*
X132575609Y-126507769D01*
X132574414Y-126539072D01*
X132571021Y-126581077D01*
X132565442Y-126633699D01*
X132557691Y-126696854D01*
X132547781Y-126770458D01*
X132535723Y-126854427D01*
X132521532Y-126948677D01*
X132505219Y-127053123D01*
X132486798Y-127167682D01*
X132466281Y-127292269D01*
X132443681Y-127426799D01*
X132419010Y-127571190D01*
X132392283Y-127725356D01*
X132379715Y-127797172D01*
X132364385Y-127884888D01*
X132349340Y-127971655D01*
X132334692Y-128056798D01*
X132320550Y-128139643D01*
X132307025Y-128219514D01*
X132294228Y-128295737D01*
X132282270Y-128367638D01*
X132271260Y-128434542D01*
X132261310Y-128495775D01*
X132252530Y-128550661D01*
X132245031Y-128598526D01*
X132238923Y-128638696D01*
X132234317Y-128670495D01*
X132231324Y-128693250D01*
X132230053Y-128706286D01*
X132230217Y-128709244D01*
X132234440Y-128705941D01*
X132244484Y-128693836D01*
X132260082Y-128673296D01*
X132280966Y-128644692D01*
X132306868Y-128608391D01*
X132337520Y-128564765D01*
X132372654Y-128514181D01*
X132390673Y-128488059D01*
X132435353Y-128423946D01*
X132480456Y-128360895D01*
X132527211Y-128297268D01*
X132576846Y-128231430D01*
X132630589Y-128161745D01*
X132689668Y-128086576D01*
X132731594Y-128033898D01*
X132776786Y-127977864D01*
X132816698Y-127929649D01*
X132852473Y-127888132D01*
X132885253Y-127852188D01*
X132916180Y-127820695D01*
X132946397Y-127792529D01*
X132977044Y-127766567D01*
X133009265Y-127741686D01*
X133044202Y-127716762D01*
X133075738Y-127695466D01*
X133162360Y-127641904D01*
X133245101Y-127598571D01*
X133323940Y-127565476D01*
X133398852Y-127542630D01*
X133467846Y-127530260D01*
X133497020Y-127529455D01*
X133523350Y-127534560D01*
X133548090Y-127546425D01*
X133572492Y-127565897D01*
X133597812Y-127593824D01*
X133625303Y-127631055D01*
X133632468Y-127641626D01*
X133656521Y-127679575D01*
X133679482Y-127720158D01*
X133702168Y-127765055D01*
X133725392Y-127815948D01*
X133749971Y-127874517D01*
X133770282Y-127925774D01*
X133782494Y-127956823D01*
X133793366Y-127983703D01*
X133802290Y-128004974D01*
X133808658Y-128019194D01*
X133811861Y-128024922D01*
X133812094Y-128024864D01*
X133813456Y-128018869D01*
X133816951Y-128002922D01*
X133822403Y-127977836D01*
X133829637Y-127944426D01*
X133838477Y-127903503D01*
X133848748Y-127855883D01*
X133860275Y-127802377D01*
X133872881Y-127743799D01*
X133886392Y-127680964D01*
X133900631Y-127614683D01*
X133906953Y-127585241D01*
X133925868Y-127497130D01*
X133942646Y-127418986D01*
X133957462Y-127350008D01*
X133970489Y-127289398D01*
X133981904Y-127236359D01*
X133991881Y-127190090D01*
X134000595Y-127149794D01*
X134008221Y-127114672D01*
X134014933Y-127083924D01*
X134020906Y-127056753D01*
X134026316Y-127032359D01*
X134031337Y-127009945D01*
X134036143Y-126988710D01*
X134040910Y-126967857D01*
X134045813Y-126946587D01*
X134051026Y-126924102D01*
X134056724Y-126899602D01*
X134062002Y-126876928D01*
X134089219Y-126762999D01*
X134115389Y-126659629D01*
X134140634Y-126566430D01*
X134165072Y-126483013D01*
X134188822Y-126408990D01*
X134212003Y-126343972D01*
X134234735Y-126287571D01*
X134257138Y-126239397D01*
X134258597Y-126236520D01*
X134280904Y-126198625D01*
X134306682Y-126164645D01*
X134334256Y-126136343D01*
X134361951Y-126115483D01*
X134383120Y-126105322D01*
X134413780Y-126098196D01*
X134445192Y-126096439D01*
X134473591Y-126100015D01*
G37*
G36*
X146304131Y-126257566D02*
G01*
X146304496Y-126287117D01*
X146304832Y-126320762D01*
X146305141Y-126358803D01*
X146305422Y-126401541D01*
X146305679Y-126449277D01*
X146305911Y-126502313D01*
X146305984Y-126522837D01*
X146306120Y-126560949D01*
X146306307Y-126625487D01*
X146306474Y-126696229D01*
X146306621Y-126773476D01*
X146306750Y-126857528D01*
X146306862Y-126948688D01*
X146306959Y-127047256D01*
X146307040Y-127153533D01*
X146307108Y-127267822D01*
X146307164Y-127390423D01*
X146307209Y-127521637D01*
X146307244Y-127661766D01*
X146307270Y-127811112D01*
X146307289Y-127969975D01*
X146307301Y-128138656D01*
X146307309Y-128317457D01*
X146307312Y-128506680D01*
X146307313Y-128697248D01*
X146307312Y-128896696D01*
X146307308Y-129085436D01*
X146307301Y-129263768D01*
X146307288Y-129431994D01*
X146307269Y-129590415D01*
X146307242Y-129739333D01*
X146307207Y-129879048D01*
X146307162Y-130009862D01*
X146307105Y-130132077D01*
X146307037Y-130245993D01*
X146307010Y-130279927D01*
X146306954Y-130351911D01*
X146306858Y-130450134D01*
X146306745Y-130540962D01*
X146306615Y-130624697D01*
X146306467Y-130701639D01*
X146306299Y-130772091D01*
X146306111Y-130836353D01*
X146305901Y-130894727D01*
X146305668Y-130947514D01*
X146305410Y-130995015D01*
X146305127Y-131037532D01*
X146304817Y-131075365D01*
X146304480Y-131108817D01*
X146304113Y-131138187D01*
X146303717Y-131163779D01*
X146303288Y-131185892D01*
X146302827Y-131204829D01*
X146302333Y-131220890D01*
X146301803Y-131234376D01*
X146301237Y-131245590D01*
X146300634Y-131254832D01*
X146299992Y-131262404D01*
X146299310Y-131268606D01*
X146298587Y-131273741D01*
X146297822Y-131278108D01*
X146297051Y-131281838D01*
X146270779Y-131377169D01*
X146235239Y-131466864D01*
X146190872Y-131550484D01*
X146138116Y-131627590D01*
X146077410Y-131697742D01*
X146009194Y-131760501D01*
X145933906Y-131815429D01*
X145851987Y-131862085D01*
X145763876Y-131900031D01*
X145670011Y-131928827D01*
X145643962Y-131934927D01*
X145640045Y-131935734D01*
X145635649Y-131936497D01*
X145630472Y-131937218D01*
X145624214Y-131937898D01*
X145616572Y-131938538D01*
X145607247Y-131939140D01*
X145595936Y-131939704D01*
X145582338Y-131940232D01*
X145566152Y-131940725D01*
X145547077Y-131941185D01*
X145524811Y-131941611D01*
X145499054Y-131942007D01*
X145469503Y-131942372D01*
X145435858Y-131942708D01*
X145397817Y-131943017D01*
X145355079Y-131943298D01*
X145307343Y-131943555D01*
X145254307Y-131943787D01*
X145195671Y-131943996D01*
X145131132Y-131944183D01*
X145060391Y-131944350D01*
X144983144Y-131944497D01*
X144899092Y-131944626D01*
X144807932Y-131944738D01*
X144709364Y-131944835D01*
X144603087Y-131944916D01*
X144488798Y-131944984D01*
X144366197Y-131945040D01*
X144234983Y-131945085D01*
X144094853Y-131945120D01*
X143945508Y-131945146D01*
X143786645Y-131945165D01*
X143617964Y-131945177D01*
X143439163Y-131945185D01*
X143249940Y-131945188D01*
X143059372Y-131945189D01*
X142859811Y-131945188D01*
X142670959Y-131945183D01*
X142492515Y-131945175D01*
X142324178Y-131945160D01*
X142165647Y-131945139D01*
X142016622Y-131945111D01*
X141876801Y-131945073D01*
X141745883Y-131945025D01*
X141623567Y-131944966D01*
X141509553Y-131944894D01*
X141403540Y-131944809D01*
X141305226Y-131944709D01*
X141214311Y-131944593D01*
X141130493Y-131944459D01*
X141053472Y-131944308D01*
X140982947Y-131944137D01*
X140918617Y-131943945D01*
X140860181Y-131943732D01*
X140807337Y-131943496D01*
X140759786Y-131943235D01*
X140717225Y-131942949D01*
X140679355Y-131942637D01*
X140645874Y-131942298D01*
X140616481Y-131941929D01*
X140590875Y-131941531D01*
X140568756Y-131941102D01*
X140549822Y-131940640D01*
X140533773Y-131940145D01*
X140520307Y-131939616D01*
X140509123Y-131939050D01*
X140499921Y-131938448D01*
X140492400Y-131937808D01*
X140486258Y-131937129D01*
X140481195Y-131936409D01*
X140476910Y-131935648D01*
X140474782Y-131935212D01*
X140380317Y-131909809D01*
X140291685Y-131875088D01*
X140208698Y-131830945D01*
X140131166Y-131777279D01*
X140058901Y-131713987D01*
X140050804Y-131705971D01*
X139999246Y-131650464D01*
X139955990Y-131595040D01*
X139918807Y-131536573D01*
X139888577Y-131478529D01*
X139861000Y-131415926D01*
X139840043Y-131356741D01*
X139824651Y-131297122D01*
X139813764Y-131233220D01*
X139808563Y-131187145D01*
X139808040Y-131177259D01*
X139807549Y-131158926D01*
X139807090Y-131132029D01*
X139806663Y-131096450D01*
X139806267Y-131052071D01*
X139805903Y-130998777D01*
X139805571Y-130936448D01*
X139805269Y-130864967D01*
X139805132Y-130824132D01*
X143777777Y-130824132D01*
X143781128Y-130930961D01*
X143791125Y-131030088D01*
X143807700Y-131121312D01*
X143830784Y-131204435D01*
X143860311Y-131279254D01*
X143896212Y-131345572D01*
X143938419Y-131403188D01*
X143986865Y-131451902D01*
X143992422Y-131456585D01*
X144024782Y-131479972D01*
X144063876Y-131502989D01*
X144105571Y-131523500D01*
X144145733Y-131539373D01*
X144163121Y-131544682D01*
X144193903Y-131550472D01*
X144232147Y-131553903D01*
X144274571Y-131555018D01*
X144317893Y-131553860D01*
X144358830Y-131550470D01*
X144394101Y-131544891D01*
X144407782Y-131541527D01*
X144473784Y-131517193D01*
X144533625Y-131483758D01*
X144587274Y-131441261D01*
X144634701Y-131389745D01*
X144675876Y-131329252D01*
X144710769Y-131259823D01*
X144739350Y-131181499D01*
X144761590Y-131094324D01*
X144772449Y-131034114D01*
X144776472Y-130999853D01*
X144779510Y-130957209D01*
X144781564Y-130908554D01*
X144782634Y-130856258D01*
X144782718Y-130802693D01*
X144781817Y-130750230D01*
X144779931Y-130701239D01*
X144777059Y-130658092D01*
X144773201Y-130623160D01*
X144772491Y-130618488D01*
X144756371Y-130533934D01*
X144750845Y-130513278D01*
X144968827Y-130513278D01*
X144975848Y-130571590D01*
X144991220Y-130626149D01*
X145002825Y-130652995D01*
X145029841Y-130696742D01*
X145065717Y-130738226D01*
X145108312Y-130775569D01*
X145149156Y-130802693D01*
X145155483Y-130806895D01*
X145205088Y-130830328D01*
X145205359Y-130830430D01*
X145223350Y-130837538D01*
X145236432Y-130843385D01*
X145241997Y-130846796D01*
X145242039Y-130846945D01*
X145237506Y-130850551D01*
X145225437Y-130857722D01*
X145208151Y-130867106D01*
X145202164Y-130870217D01*
X145151928Y-130900693D01*
X145108990Y-130936316D01*
X145074958Y-130975715D01*
X145069973Y-130982994D01*
X145049690Y-131016241D01*
X145035381Y-131046556D01*
X145025977Y-131077411D01*
X145020412Y-131112281D01*
X145017668Y-131153410D01*
X145018472Y-131215681D01*
X145026355Y-131270619D01*
X145041867Y-131319757D01*
X145065559Y-131364627D01*
X145097981Y-131406760D01*
X145115060Y-131424735D01*
X145148471Y-131455439D01*
X145181333Y-131479598D01*
X145217133Y-131499340D01*
X145259352Y-131516794D01*
X145274479Y-131522139D01*
X145334992Y-131539651D01*
X145396537Y-131550682D01*
X145462140Y-131555638D01*
X145522853Y-131555394D01*
X145583996Y-131551278D01*
X145638237Y-131542839D01*
X145689130Y-131529207D01*
X145740225Y-131509511D01*
X145773329Y-131493989D01*
X145796258Y-131481826D01*
X145822131Y-131466816D01*
X145849170Y-131450144D01*
X145875592Y-131432997D01*
X145899616Y-131416561D01*
X145919462Y-131402022D01*
X145933349Y-131390567D01*
X145939495Y-131383381D01*
X145939522Y-131383304D01*
X145936638Y-131377890D01*
X145927795Y-131365535D01*
X145914173Y-131347680D01*
X145896950Y-131325766D01*
X145877304Y-131301237D01*
X145856414Y-131275534D01*
X145835458Y-131250099D01*
X145815615Y-131226375D01*
X145798062Y-131205802D01*
X145783979Y-131189824D01*
X145774543Y-131179882D01*
X145771133Y-131177244D01*
X145765062Y-131180396D01*
X145752884Y-131188709D01*
X145737093Y-131200471D01*
X145735072Y-131202033D01*
X145693859Y-131232127D01*
X145656766Y-131254687D01*
X145621235Y-131270934D01*
X145584706Y-131282084D01*
X145554673Y-131287905D01*
X145508108Y-131290988D01*
X145465920Y-131285476D01*
X145429109Y-131271765D01*
X145398673Y-131250250D01*
X145375614Y-131221328D01*
X145372538Y-131215779D01*
X145364907Y-131200289D01*
X145360391Y-131187299D01*
X145358368Y-131173175D01*
X145358219Y-131154287D01*
X145358913Y-131135956D01*
X145361782Y-131102206D01*
X145366859Y-131077736D01*
X145370532Y-131068594D01*
X145392175Y-131036772D01*
X145420837Y-131010677D01*
X145457150Y-130990020D01*
X145501747Y-130974515D01*
X145555259Y-130963872D01*
X145613102Y-130958116D01*
X145674240Y-130954292D01*
X145675721Y-130835369D01*
X145677202Y-130716445D01*
X145607080Y-130712549D01*
X145539722Y-130707071D01*
X145482435Y-130698470D01*
X145434633Y-130686394D01*
X145395732Y-130670494D01*
X145365147Y-130650417D01*
X145342293Y-130625815D01*
X145326586Y-130596335D01*
X145317441Y-130561628D01*
X145314806Y-130537265D01*
X145314449Y-130500426D01*
X145318967Y-130471035D01*
X145329278Y-130446267D01*
X145346298Y-130423295D01*
X145354646Y-130414519D01*
X145381774Y-130392181D01*
X145412915Y-130376139D01*
X145449755Y-130365855D01*
X145493983Y-130360793D01*
X145525605Y-130360039D01*
X145576695Y-130363229D01*
X145624722Y-130372985D01*
X145671411Y-130390025D01*
X145718487Y-130415065D01*
X145767674Y-130448823D01*
X145799220Y-130473810D01*
X145825110Y-130495218D01*
X145854682Y-130455011D01*
X145888614Y-130408808D01*
X145916413Y-130370802D01*
X145938526Y-130340362D01*
X145955405Y-130316860D01*
X145967497Y-130299666D01*
X145975253Y-130288152D01*
X145979122Y-130281689D01*
X145979766Y-130279927D01*
X145975768Y-130273654D01*
X145965029Y-130262231D01*
X145949437Y-130247349D01*
X145930875Y-130230703D01*
X145911231Y-130213983D01*
X145892389Y-130198883D01*
X145876613Y-130187349D01*
X145818256Y-130153261D01*
X145752798Y-130124714D01*
X145683189Y-130102753D01*
X145612378Y-130088420D01*
X145588912Y-130085507D01*
X145562498Y-130083715D01*
X145529252Y-130082826D01*
X145492712Y-130082801D01*
X145456419Y-130083602D01*
X145423910Y-130085189D01*
X145398724Y-130087523D01*
X145398013Y-130087619D01*
X145322364Y-130102066D01*
X145252266Y-130123774D01*
X145188380Y-130152255D01*
X145131369Y-130187020D01*
X145081892Y-130227583D01*
X145040613Y-130273456D01*
X145008191Y-130324152D01*
X144985289Y-130379182D01*
X144980684Y-130395258D01*
X144970368Y-130453680D01*
X144968827Y-130513278D01*
X144750845Y-130513278D01*
X144736182Y-130458468D01*
X144711395Y-130390748D01*
X144681481Y-130329436D01*
X144645911Y-130273192D01*
X144625200Y-130245749D01*
X144578387Y-130195631D01*
X144525319Y-130154184D01*
X144466937Y-130121743D01*
X144404180Y-130098648D01*
X144337990Y-130085234D01*
X144269308Y-130081840D01*
X144199073Y-130088801D01*
X144191347Y-130090204D01*
X144125361Y-130108041D01*
X144064646Y-130135370D01*
X144009344Y-130171938D01*
X143959594Y-130217496D01*
X143915540Y-130271791D01*
X143877322Y-130334572D01*
X143845082Y-130405588D01*
X143818963Y-130484588D01*
X143799104Y-130571320D01*
X143785649Y-130665534D01*
X143778738Y-130766978D01*
X143777777Y-130824132D01*
X139805132Y-130824132D01*
X139804998Y-130784218D01*
X139804758Y-130694081D01*
X139804548Y-130594441D01*
X139804369Y-130485180D01*
X139804220Y-130366179D01*
X139804100Y-130237322D01*
X139804010Y-130098491D01*
X139803950Y-129949568D01*
X139803919Y-129790437D01*
X139803917Y-129620979D01*
X139803944Y-129441077D01*
X139804000Y-129250614D01*
X139804084Y-129049472D01*
X139804196Y-128837534D01*
X139804309Y-128655961D01*
X139804440Y-128459193D01*
X139804568Y-128273130D01*
X139804693Y-128097464D01*
X139804817Y-127931891D01*
X139804941Y-127776103D01*
X139805068Y-127629795D01*
X139805197Y-127492661D01*
X139805332Y-127364395D01*
X139805472Y-127244691D01*
X139805620Y-127133242D01*
X139805778Y-127029744D01*
X139805945Y-126933889D01*
X139806124Y-126845372D01*
X139806317Y-126763886D01*
X139806524Y-126689126D01*
X139806747Y-126620786D01*
X139806988Y-126558560D01*
X139807248Y-126502141D01*
X139807528Y-126451224D01*
X139807830Y-126405502D01*
X139808154Y-126364671D01*
X139808504Y-126328422D01*
X139808880Y-126296451D01*
X139809283Y-126268452D01*
X139809704Y-126244690D01*
X140606529Y-126244690D01*
X140608383Y-127151680D01*
X140608632Y-127269697D01*
X140608876Y-127377231D01*
X140609123Y-127474810D01*
X140609378Y-127562960D01*
X140609647Y-127642209D01*
X140609938Y-127713083D01*
X140610256Y-127776110D01*
X140610607Y-127831816D01*
X140610997Y-127880729D01*
X140611433Y-127923377D01*
X140611921Y-127960285D01*
X140612466Y-127991982D01*
X140613076Y-128018994D01*
X140613757Y-128041849D01*
X140614513Y-128061072D01*
X140615353Y-128077193D01*
X140616282Y-128090737D01*
X140617306Y-128102233D01*
X140618431Y-128112206D01*
X140619663Y-128121184D01*
X140619782Y-128121977D01*
X140637554Y-128221274D01*
X140659619Y-128311028D01*
X140686286Y-128391957D01*
X140717863Y-128464780D01*
X140754659Y-128530217D01*
X140796980Y-128588988D01*
X140840403Y-128637129D01*
X140898463Y-128688269D01*
X140961612Y-128730481D01*
X141030520Y-128764073D01*
X141105858Y-128789357D01*
X141188297Y-128806643D01*
X141214353Y-128810296D01*
X141247113Y-128813114D01*
X141286690Y-128814499D01*
X141330234Y-128814537D01*
X141374896Y-128813317D01*
X141417828Y-128810926D01*
X141456180Y-128807450D01*
X141487103Y-128802978D01*
X141493204Y-128801745D01*
X141575708Y-128779116D01*
X141650835Y-128748667D01*
X141719347Y-128709992D01*
X141782005Y-128662687D01*
X141818148Y-128628946D01*
X141863392Y-128578758D01*
X141900751Y-128526541D01*
X141932829Y-128468502D01*
X141942622Y-128447597D01*
X141966579Y-128394474D01*
X141966606Y-128574762D01*
X141966632Y-128755050D01*
X142294179Y-128755050D01*
X142621726Y-128755050D01*
X142621726Y-127499870D01*
X142621726Y-126244777D01*
X143166719Y-126244777D01*
X143166719Y-126536523D01*
X143166719Y-126828268D01*
X143957017Y-126829663D01*
X144747314Y-126831058D01*
X143973532Y-127937075D01*
X143199749Y-129043093D01*
X143199749Y-129317450D01*
X143199749Y-129591808D01*
X144331023Y-129591808D01*
X145462298Y-129591808D01*
X145462298Y-129300064D01*
X145462298Y-129008320D01*
X144736528Y-129006924D01*
X144010758Y-129005527D01*
X144761300Y-127899542D01*
X145511843Y-126793557D01*
X145511843Y-126522837D01*
X145511770Y-126469263D01*
X145511562Y-126419063D01*
X145511233Y-126373308D01*
X145510798Y-126333067D01*
X145510270Y-126299411D01*
X145509663Y-126273409D01*
X145508993Y-126256132D01*
X145508273Y-126248649D01*
X145508173Y-126248447D01*
X145502395Y-126248094D01*
X145486114Y-126247749D01*
X145459840Y-126247416D01*
X145424079Y-126247095D01*
X145379341Y-126246787D01*
X145326131Y-126246496D01*
X145264959Y-126246222D01*
X145196333Y-126245967D01*
X145120759Y-126245732D01*
X145038747Y-126245519D01*
X144950804Y-126245329D01*
X144857438Y-126245165D01*
X144759157Y-126245028D01*
X144656468Y-126244919D01*
X144549881Y-126244839D01*
X144439901Y-126244792D01*
X144335611Y-126244777D01*
X143166719Y-126244777D01*
X142621726Y-126244777D01*
X142621726Y-126244690D01*
X142295555Y-126246110D01*
X141969385Y-126247530D01*
X141966285Y-127043000D01*
X141965847Y-127153173D01*
X141965430Y-127252892D01*
X141965024Y-127342712D01*
X141964622Y-127423188D01*
X141964215Y-127494877D01*
X141963795Y-127558334D01*
X141963354Y-127614113D01*
X141962883Y-127662772D01*
X141962375Y-127704865D01*
X141961820Y-127740948D01*
X141961210Y-127771577D01*
X141960538Y-127797306D01*
X141959795Y-127818692D01*
X141958973Y-127836290D01*
X141958063Y-127850656D01*
X141957057Y-127862345D01*
X141955947Y-127871912D01*
X141954724Y-127879914D01*
X141953720Y-127885263D01*
X141942927Y-127934559D01*
X141931716Y-127976383D01*
X141918950Y-128014246D01*
X141903490Y-128051663D01*
X141891563Y-128077189D01*
X141877073Y-128106081D01*
X141864398Y-128128169D01*
X141851169Y-128146837D01*
X141835019Y-128165467D01*
X141816235Y-128184791D01*
X141774637Y-128221917D01*
X141733017Y-128249209D01*
X141689104Y-128267613D01*
X141640625Y-128278074D01*
X141585308Y-128281535D01*
X141583540Y-128281540D01*
X141524666Y-128277951D01*
X141472579Y-128266744D01*
X141426901Y-128247562D01*
X141387257Y-128220048D01*
X141353267Y-128183846D01*
X141324554Y-128138600D01*
X141300741Y-128083952D01*
X141281450Y-128019546D01*
X141274681Y-127989857D01*
X141273363Y-127983037D01*
X141272162Y-127975348D01*
X141271072Y-127966253D01*
X141270083Y-127955213D01*
X141269190Y-127941689D01*
X141268383Y-127925142D01*
X141267656Y-127905034D01*
X141267001Y-127880825D01*
X141266410Y-127851978D01*
X141265876Y-127817953D01*
X141265391Y-127778211D01*
X141264948Y-127732215D01*
X141264538Y-127679424D01*
X141264154Y-127619301D01*
X141263789Y-127551307D01*
X141263435Y-127474902D01*
X141263085Y-127389549D01*
X141262730Y-127294708D01*
X141262364Y-127189841D01*
X141262047Y-127095297D01*
X141259242Y-126247530D01*
X140932886Y-126246110D01*
X140606529Y-126244690D01*
X139809704Y-126244690D01*
X139809714Y-126244118D01*
X139810176Y-126223144D01*
X139810670Y-126205223D01*
X139811197Y-126190050D01*
X139811759Y-126177318D01*
X139812356Y-126166722D01*
X139812991Y-126157955D01*
X139813664Y-126150711D01*
X139814378Y-126144685D01*
X139815134Y-126139570D01*
X139815932Y-126135061D01*
X139816005Y-126134678D01*
X139839620Y-126039773D01*
X139872802Y-125949612D01*
X139915118Y-125864776D01*
X139966133Y-125785844D01*
X140025413Y-125713397D01*
X140092524Y-125648015D01*
X140167031Y-125590277D01*
X140248501Y-125540764D01*
X140268345Y-125530516D01*
X140324002Y-125505258D01*
X140382846Y-125483893D01*
X140448652Y-125465060D01*
X140452762Y-125464017D01*
X140510564Y-125449435D01*
X143040105Y-125448415D01*
X143239243Y-125448336D01*
X143427675Y-125448264D01*
X143605703Y-125448200D01*
X143773631Y-125448145D01*
X143931761Y-125448101D01*
X144080397Y-125448068D01*
X144219842Y-125448048D01*
X144350398Y-125448041D01*
X144472370Y-125448049D01*
X144586059Y-125448073D01*
X144691770Y-125448113D01*
X144789806Y-125448172D01*
X144880468Y-125448249D01*
X144964062Y-125448347D01*
X145040889Y-125448465D01*
X145111253Y-125448606D01*
X145175457Y-125448771D01*
X145233805Y-125448960D01*
X145286598Y-125449174D01*
X145334141Y-125449415D01*
X145376737Y-125449683D01*
X145414688Y-125449980D01*
X145448298Y-125450308D01*
X145477869Y-125450666D01*
X145503706Y-125451056D01*
X145526111Y-125451479D01*
X145545387Y-125451936D01*
X145561838Y-125452429D01*
X145575766Y-125452957D01*
X145587474Y-125453524D01*
X145597267Y-125454128D01*
X145605446Y-125454773D01*
X145612315Y-125455458D01*
X145618177Y-125456184D01*
X145623336Y-125456954D01*
X145627447Y-125457652D01*
X145719458Y-125479397D01*
X145807007Y-125510896D01*
X145889544Y-125551611D01*
X145966520Y-125601004D01*
X146037385Y-125658538D01*
X146101589Y-125723675D01*
X146158583Y-125795877D01*
X146207817Y-125874607D01*
X146248741Y-125959327D01*
X146280806Y-126049499D01*
X146297051Y-126112658D01*
X146297858Y-126116575D01*
X146298621Y-126120971D01*
X146299342Y-126126148D01*
X146300022Y-126132406D01*
X146300662Y-126140047D01*
X146301264Y-126149373D01*
X146301828Y-126160684D01*
X146302356Y-126174282D01*
X146302849Y-126190468D01*
X146303309Y-126209543D01*
X146303735Y-126231809D01*
X146303933Y-126244690D01*
X146304131Y-126257566D01*
G37*
D13*
X114340000Y-92757836D02*
X114340000Y-92542164D01*
X115060000Y-92757836D02*
X115060000Y-92542164D01*
D17*
X114989998Y-116399999D02*
X114989998Y-118399999D01*
X114989998Y-116399999D02*
X118489998Y-116399999D01*
X114989998Y-124399999D02*
X114989998Y-122399999D01*
X114989998Y-124399999D02*
X118489998Y-124399999D01*
X128989998Y-116399999D02*
X125489998Y-116399999D01*
X128989998Y-116399999D02*
X128989998Y-118399999D01*
X128989998Y-124399999D02*
X125489998Y-124399999D01*
X128989998Y-124399999D02*
X128989998Y-122399999D01*
D10*
X128089998Y-115899999D02*
G75*
G02*
X127889998Y-115899999I-100000J0D01*
G01*
X127889998Y-115899999D02*
G75*
G02*
X128089998Y-115899999I100000J0D01*
G01*
D13*
X110861252Y-99735000D02*
X110338748Y-99735000D01*
X110861252Y-101205000D02*
X110338748Y-101205000D01*
X123790000Y-128063748D02*
X123790000Y-129486252D01*
X125610000Y-128063748D02*
X125610000Y-129486252D01*
X115730000Y-105376359D02*
X115730000Y-105683641D01*
X116490000Y-105376359D02*
X116490000Y-105683641D01*
X114803641Y-100920000D02*
X114496359Y-100920000D01*
X114803641Y-101680000D02*
X114496359Y-101680000D01*
X134967164Y-94140000D02*
X135182836Y-94140000D01*
X134967164Y-94860000D02*
X135182836Y-94860000D01*
X110861252Y-104655000D02*
X110338748Y-104655000D01*
X110861252Y-106125000D02*
X110338748Y-106125000D01*
X126500000Y-98657836D02*
X126500000Y-98442164D01*
X127220000Y-98657836D02*
X127220000Y-98442164D01*
X137000000Y-98246359D02*
X137000000Y-98553641D01*
X137760000Y-98246359D02*
X137760000Y-98553641D01*
X113646359Y-95720000D02*
X113953641Y-95720000D01*
X113646359Y-96480000D02*
X113953641Y-96480000D01*
X149890000Y-101257836D02*
X149890000Y-101042164D01*
X150610000Y-101257836D02*
X150610000Y-101042164D01*
X117617836Y-105600000D02*
X117402164Y-105600000D01*
X117617836Y-106320000D02*
X117402164Y-106320000D01*
X121336359Y-131770000D02*
X121643641Y-131770000D01*
X121336359Y-132530000D02*
X121643641Y-132530000D01*
X110861252Y-107435000D02*
X110338748Y-107435000D01*
X110861252Y-108905000D02*
X110338748Y-108905000D01*
X119503641Y-131770000D02*
X119196359Y-131770000D01*
X119503641Y-132530000D02*
X119196359Y-132530000D01*
X107970000Y-109828641D02*
X107970000Y-109521359D01*
X108730000Y-109828641D02*
X108730000Y-109521359D01*
X124843641Y-98910000D02*
X124536359Y-98910000D01*
X124843641Y-99670000D02*
X124536359Y-99670000D01*
X109120000Y-101460000D02*
X109120000Y-102010000D01*
X109120000Y-103710000D02*
X109120000Y-104360000D01*
X109120000Y-104360000D02*
X109670000Y-104360000D01*
X109770000Y-101460000D02*
X109120000Y-101460000D01*
X111370000Y-104360000D02*
X112020000Y-104360000D01*
X112020000Y-101460000D02*
X111470000Y-101460000D01*
X112020000Y-102110000D02*
X112020000Y-101460000D01*
X112020000Y-104360000D02*
X112020000Y-103810000D01*
D10*
X112520000Y-101485000D02*
G75*
G02*
X112320000Y-101485000I-100000J0D01*
G01*
X112320000Y-101485000D02*
G75*
G02*
X112520000Y-101485000I100000J0D01*
G01*
D13*
X109225000Y-109195000D02*
X109225000Y-109745000D01*
X109225000Y-111445000D02*
X109225000Y-112095000D01*
X109225000Y-112095000D02*
X109775000Y-112095000D01*
X109875000Y-109195000D02*
X109225000Y-109195000D01*
X111475000Y-112095000D02*
X112125000Y-112095000D01*
X112125000Y-109195000D02*
X111575000Y-109195000D01*
X112125000Y-109845000D02*
X112125000Y-109195000D01*
X112125000Y-112095000D02*
X112125000Y-111545000D01*
D10*
X112625000Y-109220000D02*
G75*
G02*
X112425000Y-109220000I-100000J0D01*
G01*
X112425000Y-109220000D02*
G75*
G02*
X112625000Y-109220000I100000J0D01*
G01*
D13*
X155461252Y-121565000D02*
X154938748Y-121565000D01*
X155461252Y-123035000D02*
X154938748Y-123035000D01*
X129563641Y-109880000D02*
X129256359Y-109880000D01*
X129563641Y-110640000D02*
X129256359Y-110640000D01*
X110328748Y-115297503D02*
X110851252Y-115297503D01*
X110328748Y-116767503D02*
X110851252Y-116767503D01*
X107870000Y-104063641D02*
X107870000Y-103756359D01*
X108630000Y-104063641D02*
X108630000Y-103756359D01*
D14*
X147624400Y-128520800D02*
X148334110Y-128520800D01*
X148334110Y-125879200D02*
X147624400Y-125879200D01*
X150165890Y-128520800D02*
X150875600Y-128520800D01*
X150875600Y-125879200D02*
X150165890Y-125879200D01*
D15*
X147305000Y-126380000D02*
G75*
G02*
X147155000Y-126380000I-75000J0D01*
G01*
X147155000Y-126380000D02*
G75*
G02*
X147305000Y-126380000I75000J0D01*
G01*
D13*
X129693641Y-108480000D02*
X129386359Y-108480000D01*
X129693641Y-109240000D02*
X129386359Y-109240000D01*
X130640000Y-128557836D02*
X130640000Y-128342164D01*
X131360000Y-128557836D02*
X131360000Y-128342164D01*
X154438748Y-100665000D02*
X154961252Y-100665000D01*
X154438748Y-102135000D02*
X154961252Y-102135000D01*
X111751252Y-122035000D02*
X111228748Y-122035000D01*
X111751252Y-123505000D02*
X111228748Y-123505000D01*
X129563641Y-111894999D02*
X129256359Y-111894999D01*
X129563641Y-112654999D02*
X129256359Y-112654999D01*
X133640000Y-97523641D02*
X133640000Y-97216359D01*
X134400000Y-97523641D02*
X134400000Y-97216359D01*
X117596359Y-104595000D02*
X117903641Y-104595000D01*
X117596359Y-105355000D02*
X117903641Y-105355000D01*
X111210000Y-98602836D02*
X111210000Y-98387164D01*
X111930000Y-98602836D02*
X111930000Y-98387164D01*
X147738748Y-130365000D02*
X148261252Y-130365000D01*
X147738748Y-131835000D02*
X148261252Y-131835000D01*
X129563641Y-114950000D02*
X129256359Y-114950000D01*
X129563641Y-115710000D02*
X129256359Y-115710000D01*
X131036252Y-96365000D02*
X130513748Y-96365000D01*
X131036252Y-97835000D02*
X130513748Y-97835000D01*
X114046359Y-94470000D02*
X114353641Y-94470000D01*
X114046359Y-95230000D02*
X114353641Y-95230000D01*
X114496359Y-99920000D02*
X114803641Y-99920000D01*
X114496359Y-100680000D02*
X114803641Y-100680000D01*
X126790000Y-126897164D02*
X126790000Y-127112836D01*
X127510000Y-126897164D02*
X127510000Y-127112836D01*
X149165000Y-93632836D02*
X149165000Y-93417164D01*
X149885000Y-93632836D02*
X149885000Y-93417164D01*
X150970000Y-99900000D02*
X153370000Y-99900000D01*
X153370000Y-97100000D01*
X150970000Y-97100000D01*
X150970000Y-99900000D01*
X152367164Y-117290000D02*
X152582836Y-117290000D01*
X152367164Y-118010000D02*
X152582836Y-118010000D01*
X110861252Y-112360000D02*
X110338748Y-112360000D01*
X110861252Y-113830000D02*
X110338748Y-113830000D01*
X123903641Y-109330000D02*
X123596359Y-109330000D01*
X123903641Y-110090000D02*
X123596359Y-110090000D01*
X112990000Y-112988748D02*
X112990000Y-114411252D01*
X114810000Y-112988748D02*
X114810000Y-114411252D01*
X135147659Y-103285060D02*
X135364940Y-103502341D01*
X135685060Y-102747659D02*
X135902341Y-102964940D01*
X153705000Y-98507836D02*
X153705000Y-98292164D01*
X154425000Y-98507836D02*
X154425000Y-98292164D01*
X132670000Y-97346359D02*
X132670000Y-97653641D01*
X133430000Y-97346359D02*
X133430000Y-97653641D01*
X150257836Y-128890000D02*
X150042164Y-128890000D01*
X150257836Y-129610000D02*
X150042164Y-129610000D01*
X118990000Y-108362164D02*
X118990000Y-108577836D01*
X119710000Y-108362164D02*
X119710000Y-108577836D01*
D14*
X130773399Y-105573400D02*
X130773399Y-124826600D01*
X130773399Y-124826600D02*
X150026599Y-124826600D01*
X130900399Y-110000112D02*
X130646399Y-110000112D01*
X130900399Y-114000104D02*
X130646399Y-114000104D01*
X130900399Y-118000096D02*
X130646399Y-118000096D01*
X130900399Y-122000088D02*
X130646399Y-122000088D01*
X135200111Y-105700400D02*
X135200111Y-105446400D01*
X135200111Y-124699600D02*
X135200111Y-124953600D01*
X139200103Y-105700400D02*
X139200103Y-105446400D01*
X139200103Y-124699600D02*
X139200103Y-124953600D01*
X143200095Y-105700400D02*
X143200095Y-105446400D01*
X143200095Y-124699600D02*
X143200095Y-124953600D01*
X147200087Y-105700400D02*
X147200087Y-105446400D01*
X147200087Y-124699600D02*
X147200087Y-124953600D01*
X149899599Y-110000112D02*
X150153599Y-110000112D01*
X149899599Y-114000104D02*
X150153599Y-114000104D01*
X149899599Y-118000096D02*
X150153599Y-118000096D01*
X149899599Y-122000088D02*
X150153599Y-122000088D01*
X150026599Y-105573400D02*
X130773399Y-105573400D01*
X150026599Y-124826600D02*
X150026599Y-105573400D01*
D13*
X138020000Y-98553641D02*
X138020000Y-98246359D01*
X138780000Y-98553641D02*
X138780000Y-98246359D01*
X129563641Y-110890000D02*
X129256359Y-110890000D01*
X129563641Y-111650000D02*
X129256359Y-111650000D01*
X117903641Y-103620000D02*
X117596359Y-103620000D01*
X117903641Y-104380000D02*
X117596359Y-104380000D01*
X107870000Y-102163641D02*
X107870000Y-101856359D01*
X108630000Y-102163641D02*
X108630000Y-101856359D01*
X113646359Y-96720000D02*
X113953641Y-96720000D01*
X113646359Y-97480000D02*
X113953641Y-97480000D01*
X108652500Y-117107501D02*
X108652500Y-117907501D01*
X108652500Y-120907501D02*
X108652500Y-121807501D01*
X108652500Y-121807501D02*
X109452500Y-121807501D01*
X109552500Y-117107501D02*
X108652500Y-117107501D01*
X111952500Y-121907501D02*
X112852500Y-121907501D01*
X112852500Y-117107501D02*
X112052500Y-117107501D01*
X112852500Y-118007501D02*
X112852500Y-117107501D01*
X112852500Y-121907501D02*
X112852500Y-121107501D01*
D18*
X108377501Y-118007501D02*
G75*
G02*
X108127499Y-118007501I-125001J0D01*
G01*
X108127499Y-118007501D02*
G75*
G02*
X108377501Y-118007501I125001J0D01*
G01*
D13*
X107867500Y-119483863D02*
X107867500Y-119791145D01*
X108627500Y-119483863D02*
X108627500Y-119791145D01*
X131440000Y-98867164D02*
X131440000Y-99082836D01*
X132160000Y-98867164D02*
X132160000Y-99082836D01*
X114760000Y-105376359D02*
X114760000Y-105683641D01*
X115520000Y-105376359D02*
X115520000Y-105683641D01*
X117917291Y-100620000D02*
X117610009Y-100620000D01*
X117917291Y-101380000D02*
X117610009Y-101380000D01*
X115680000Y-109633641D02*
X115680000Y-109326359D01*
X116440000Y-109633641D02*
X116440000Y-109326359D01*
X141110000Y-97697836D02*
X141110000Y-97482164D01*
X141830000Y-97697836D02*
X141830000Y-97482164D01*
X118028641Y-109395000D02*
X117721359Y-109395000D01*
X118028641Y-110155000D02*
X117721359Y-110155000D01*
%LPC*%
D19*
X111752500Y-94000000D02*
G75*
G02*
X109247500Y-94000000I-1252500J0D01*
G01*
X109247500Y-94000000D02*
G75*
G02*
X111752500Y-94000000I1252500J0D01*
G01*
D16*
G36*
X109860000Y-98095000D02*
G01*
X109680000Y-98275000D01*
X109500000Y-98275000D01*
X109500000Y-98055000D01*
X109860000Y-98055000D01*
X109860000Y-98095000D01*
G37*
G36*
X109860000Y-98845000D02*
G01*
X109860000Y-98885000D01*
X109500000Y-98885000D01*
X109500000Y-98665000D01*
X109680000Y-98665000D01*
X109860000Y-98845000D01*
G37*
G36*
X110720000Y-98265000D02*
G01*
X110540000Y-98265000D01*
X110360000Y-98085000D01*
X110360000Y-98045000D01*
X110720000Y-98045000D01*
X110720000Y-98265000D01*
G37*
G36*
X110720000Y-98885000D02*
G01*
X110360000Y-98885000D01*
X110360000Y-98845000D01*
X110540000Y-98665000D01*
X110720000Y-98665000D01*
X110720000Y-98885000D01*
G37*
D19*
X155752500Y-94000000D02*
G75*
G02*
X153247500Y-94000000I-1252500J0D01*
G01*
X153247500Y-94000000D02*
G75*
G02*
X155752500Y-94000000I1252500J0D01*
G01*
D16*
G36*
X120876601Y-128850000D02*
G01*
X119773400Y-128850000D01*
X119773400Y-128252000D01*
X120876601Y-128252000D01*
X120876601Y-128850000D01*
G37*
G36*
X120876601Y-130348000D02*
G01*
X119773400Y-130348000D01*
X119773400Y-129750000D01*
X120876601Y-129750000D01*
X120876601Y-130348000D01*
G37*
D19*
X111752500Y-130000000D02*
G75*
G02*
X109247500Y-130000000I-1252500J0D01*
G01*
X109247500Y-130000000D02*
G75*
G02*
X111752500Y-130000000I1252500J0D01*
G01*
X155752500Y-130000000D02*
G75*
G02*
X153247500Y-130000000I-1252500J0D01*
G01*
X153247500Y-130000000D02*
G75*
G02*
X155752500Y-130000000I1252500J0D01*
G01*
D16*
G36*
X109627498Y-120932502D02*
G01*
X109627501Y-121632501D01*
X109577499Y-121682500D01*
X109427499Y-121682500D01*
X109377499Y-121632501D01*
X109377501Y-121432501D01*
X109327499Y-121382501D01*
X109177499Y-121382501D01*
X109127499Y-121332501D01*
X109127502Y-121182501D01*
X109077500Y-121132502D01*
X108877500Y-121132502D01*
X108827500Y-121082502D01*
X108827500Y-120932502D01*
X108877500Y-120882502D01*
X109577501Y-120882502D01*
X109627498Y-120932502D01*
G37*
G36*
X112127501Y-117382501D02*
G01*
X112127499Y-117582501D01*
X112177501Y-117632501D01*
X112327501Y-117632501D01*
X112377501Y-117682501D01*
X112377498Y-117832501D01*
X112427500Y-117882500D01*
X112627500Y-117882500D01*
X112677500Y-117932500D01*
X112677500Y-118082500D01*
X112627500Y-118132500D01*
X111927499Y-118132502D01*
X111877499Y-118082500D01*
X111877499Y-117382501D01*
X111927499Y-117332502D01*
X112077501Y-117332502D01*
X112127501Y-117382501D01*
G37*
D20*
X149060000Y-103660000D03*
X150660000Y-103660000D03*
D21*
X117265000Y-102850000D03*
X118285000Y-102850000D03*
X153865000Y-126100000D03*
X154885000Y-126100000D03*
D22*
X131669376Y-103499376D03*
X132390624Y-104220624D03*
D23*
X125510000Y-96100000D03*
X124490000Y-96100000D03*
X129920000Y-113299999D03*
X128900000Y-113299999D03*
D24*
X124330000Y-108750000D03*
X123370000Y-108750000D03*
D25*
X147070000Y-104700000D03*
X148030000Y-104700000D03*
D26*
X113610000Y-124355000D03*
X113610000Y-127305000D03*
D27*
X116275002Y-128200000D03*
X116275002Y-130100000D03*
D28*
X110500000Y-94000000D03*
D29*
X108620000Y-98925000D03*
X108620000Y-97965000D03*
D25*
X147070000Y-103725000D03*
X148030000Y-103725000D03*
D30*
X150500000Y-130340000D03*
X150500000Y-131360000D03*
D31*
X124100000Y-94045000D03*
X124100000Y-93405000D03*
D29*
X148010000Y-98130000D03*
X148010000Y-97170000D03*
X149100000Y-101580000D03*
X149100000Y-100620000D03*
D25*
X149845000Y-95375000D03*
X150805000Y-95375000D03*
D23*
X145210000Y-104800000D03*
X144190000Y-104800000D03*
D21*
X127965000Y-104400000D03*
X128985000Y-104400000D03*
X120510000Y-125190000D03*
X121530000Y-125190000D03*
D24*
X156710000Y-110190000D03*
X155750000Y-110190000D03*
D32*
X118470000Y-115850000D03*
X119110000Y-115850000D03*
X123180000Y-100300000D03*
X123820000Y-100300000D03*
D33*
X116710000Y-124970000D03*
X116070000Y-124970000D03*
D34*
X119425000Y-102095000D03*
X119425000Y-103365000D03*
X119425000Y-104635000D03*
X119425000Y-105905000D03*
X126925000Y-105905000D03*
X126925000Y-104635000D03*
X126925000Y-103365000D03*
X126925000Y-102095000D03*
D35*
X123175000Y-104000000D03*
D36*
X146559999Y-97930500D03*
X146160000Y-97930500D03*
X145760001Y-97930500D03*
X145359999Y-97930500D03*
X144960000Y-97930500D03*
X144560000Y-97930500D03*
X144160001Y-97930500D03*
X143759999Y-97930500D03*
X143360000Y-97930500D03*
X142960001Y-97930500D03*
D37*
X142410500Y-98480001D03*
X142410500Y-98880000D03*
X142410500Y-99279999D03*
X142410500Y-99680001D03*
X142410500Y-100080000D03*
X142410500Y-100480000D03*
X142410500Y-100879999D03*
X142410500Y-101280001D03*
X142410500Y-101680000D03*
X142410500Y-102079999D03*
D36*
X142960001Y-102629500D03*
X143360000Y-102629500D03*
X143759999Y-102629500D03*
X144160001Y-102629500D03*
X144560000Y-102629500D03*
X144960000Y-102629500D03*
X145359999Y-102629500D03*
X145760001Y-102629500D03*
X146160000Y-102629500D03*
X146559999Y-102629500D03*
D37*
X147109500Y-102079999D03*
X147109500Y-101680000D03*
X147109500Y-101280001D03*
X147109500Y-100879999D03*
X147109500Y-100480000D03*
X147109500Y-100080000D03*
X147109500Y-99680001D03*
X147109500Y-99279999D03*
X147109500Y-98880000D03*
X147109500Y-98480001D03*
D38*
X144760000Y-100280000D03*
D23*
X129920000Y-114299999D03*
X128900000Y-114299999D03*
D30*
X150200000Y-97990000D03*
X150200000Y-99010000D03*
D25*
X147745000Y-129250000D03*
X148705000Y-129250000D03*
D24*
X120080000Y-126600000D03*
X119120000Y-126600000D03*
D39*
X110640000Y-98790000D03*
D40*
X110640000Y-98140000D03*
D41*
X109580000Y-98140000D03*
D42*
X109580000Y-98790000D03*
D43*
X110110000Y-98465000D03*
D28*
X154500000Y-94000000D03*
D21*
X113290000Y-98150000D03*
X114310000Y-98150000D03*
X117265000Y-101900000D03*
X118285000Y-101900000D03*
D23*
X117965001Y-132150000D03*
X116945001Y-132150000D03*
D44*
X116100000Y-93450000D03*
X116100000Y-93949999D03*
X116100000Y-94450001D03*
X116100000Y-94950000D03*
X116100000Y-95449999D03*
X116100000Y-95950000D03*
X116100000Y-96450000D03*
X116100000Y-96950001D03*
X116100000Y-97450000D03*
X116100000Y-97949999D03*
X116100000Y-98450001D03*
X116100000Y-98950000D03*
D45*
X116802000Y-99652000D03*
X117301999Y-99652000D03*
X117802001Y-99652000D03*
X118302000Y-99652000D03*
X118801999Y-99652000D03*
X119302000Y-99652000D03*
X119802000Y-99652000D03*
X120302001Y-99652000D03*
X120802000Y-99652000D03*
X121301999Y-99652000D03*
X121802001Y-99652000D03*
X122302000Y-99652000D03*
D44*
X123004000Y-98950000D03*
X123004000Y-98450001D03*
X123004000Y-97949999D03*
X123004000Y-97450000D03*
X123004000Y-96950001D03*
X123004000Y-96450000D03*
X123004000Y-95950000D03*
X123004000Y-95449999D03*
X123004000Y-94950000D03*
X123004000Y-94450001D03*
X123004000Y-93949999D03*
X123004000Y-93450000D03*
D45*
X122302000Y-92748000D03*
X121802001Y-92748000D03*
X121301999Y-92748000D03*
X120802000Y-92748000D03*
X120302001Y-92748000D03*
X119802000Y-92748000D03*
X119302000Y-92748000D03*
X118801999Y-92748000D03*
X118302000Y-92748000D03*
X117802001Y-92748000D03*
X117301999Y-92748000D03*
X116802000Y-92748000D03*
D46*
X119552000Y-96200000D03*
D47*
X154012500Y-124475000D03*
X155587500Y-124475000D03*
D21*
X138500000Y-99900000D03*
X139520000Y-99900000D03*
D48*
X118075001Y-130450000D03*
X118525000Y-130450000D03*
X118975002Y-130450000D03*
X119425001Y-130450000D03*
D49*
X120325001Y-130050000D03*
D50*
X120325001Y-128550000D03*
D48*
X119425001Y-128150000D03*
X118975002Y-128150000D03*
X118525000Y-128150000D03*
X118075001Y-128150000D03*
D51*
X117925001Y-129050000D03*
X117925001Y-129550000D03*
D52*
X119200000Y-129550000D03*
X119200000Y-129050000D03*
D27*
X122475002Y-128293300D03*
X122475002Y-130193300D03*
D53*
X108350000Y-112060000D03*
X108350000Y-111040000D03*
D54*
X111665000Y-125370000D03*
X108715000Y-125370000D03*
D29*
X114700000Y-93130000D03*
X114700000Y-92170000D03*
D55*
X127989998Y-117199999D03*
X127989998Y-117999999D03*
X127989998Y-118799999D03*
X127989998Y-121999999D03*
X127989998Y-122799999D03*
X127989998Y-123599999D03*
X127189998Y-117199999D03*
X127189998Y-117999999D03*
X127189998Y-118799999D03*
X127189998Y-121999999D03*
X127189998Y-122799999D03*
X127189998Y-123599999D03*
X126389998Y-117199999D03*
X126389998Y-117999999D03*
X126389998Y-118799999D03*
X126389998Y-121999999D03*
X126389998Y-122799999D03*
X126389998Y-123599999D03*
X125589998Y-117199999D03*
X125589998Y-117999999D03*
X125589998Y-118799999D03*
X125589998Y-121999999D03*
X125589998Y-122799999D03*
X125589998Y-123599999D03*
X124789998Y-117199999D03*
X124789998Y-117999999D03*
X124789998Y-118799999D03*
X124789998Y-121999999D03*
X124789998Y-122799999D03*
X124789998Y-123599999D03*
X123989998Y-117199999D03*
X123989998Y-117999999D03*
X123989998Y-118799999D03*
X123989998Y-121999999D03*
X123989998Y-122799999D03*
X123989998Y-123599999D03*
X123189998Y-117199999D03*
X123189998Y-117999999D03*
X123189998Y-118799999D03*
X123189998Y-121999999D03*
X123189998Y-122799999D03*
X123189998Y-123599999D03*
X122389998Y-117199999D03*
X122389998Y-117999999D03*
X122389998Y-118799999D03*
X122389998Y-121999999D03*
X122389998Y-122799999D03*
X122389998Y-123599999D03*
X121589998Y-117199999D03*
X121589998Y-117999999D03*
X121589998Y-118799999D03*
X121589998Y-121999999D03*
X121589998Y-122799999D03*
X121589998Y-123599999D03*
X120789998Y-117199999D03*
X120789998Y-117999999D03*
X120789998Y-118799999D03*
X120789998Y-121999999D03*
X120789998Y-122799999D03*
X120789998Y-123599999D03*
X119989998Y-117199999D03*
X119989998Y-117999999D03*
X119989998Y-118799999D03*
X119989998Y-121999999D03*
X119989998Y-122799999D03*
X119989998Y-123599999D03*
X119189998Y-117199999D03*
X119189998Y-117999999D03*
X119189998Y-118799999D03*
X119189998Y-121999999D03*
X119189998Y-122799999D03*
X119189998Y-123599999D03*
X118389998Y-117199999D03*
X118389998Y-117999999D03*
X118389998Y-118799999D03*
X118389998Y-121999999D03*
X118389998Y-122799999D03*
X118389998Y-123599999D03*
X117589998Y-117199999D03*
X117589998Y-117999999D03*
X117589998Y-118799999D03*
X117589998Y-121999999D03*
X117589998Y-122799999D03*
X117589998Y-123599999D03*
X116789998Y-117199999D03*
X116789998Y-117999999D03*
X116789998Y-118799999D03*
X116789998Y-121999999D03*
X116789998Y-122799999D03*
X116789998Y-123599999D03*
X115989998Y-117199999D03*
X115989998Y-117999999D03*
X115989998Y-118799999D03*
X115989998Y-121999999D03*
X115989998Y-122799999D03*
X115989998Y-123599999D03*
D56*
X111550000Y-100470000D03*
X109650000Y-100470000D03*
D28*
X110500000Y-130000000D03*
D26*
X124700000Y-127300000D03*
X124700000Y-130250000D03*
D30*
X116110000Y-105020000D03*
X116110000Y-106040000D03*
D23*
X115160000Y-101300000D03*
X114140000Y-101300000D03*
D28*
X154500000Y-130000000D03*
D25*
X134595000Y-94500000D03*
X135555000Y-94500000D03*
D33*
X121320000Y-110380000D03*
X120680000Y-110380000D03*
D31*
X115350000Y-107950000D03*
X115350000Y-107310000D03*
D56*
X111550000Y-105390000D03*
X109650000Y-105390000D03*
D32*
X116919998Y-115850000D03*
X117559998Y-115850000D03*
D29*
X126860000Y-99030000D03*
X126860000Y-98070000D03*
D30*
X137380000Y-97890000D03*
X137380000Y-98910000D03*
D57*
X155100000Y-98885000D03*
X155100000Y-97915000D03*
D21*
X113290000Y-96100000D03*
X114310000Y-96100000D03*
D29*
X150250000Y-101630000D03*
X150250000Y-100670000D03*
D24*
X117990000Y-105960000D03*
X117030000Y-105960000D03*
D21*
X120980000Y-132150000D03*
X122000000Y-132150000D03*
D56*
X111550000Y-108170000D03*
X109650000Y-108170000D03*
D23*
X119860000Y-132150000D03*
X118840000Y-132150000D03*
D53*
X108350000Y-110185000D03*
X108350000Y-109165000D03*
D23*
X125200000Y-99290000D03*
X124180000Y-99290000D03*
D58*
X110820000Y-102060000D03*
D59*
X110320000Y-102210000D03*
D60*
X109645000Y-101910000D03*
X109645000Y-102410000D03*
X109645000Y-102910000D03*
X109645000Y-103410000D03*
X109645000Y-103910000D03*
D59*
X110320000Y-103610000D03*
X110820000Y-103610000D03*
D60*
X111495000Y-103910000D03*
X111495000Y-103410000D03*
X111495000Y-102910000D03*
X111495000Y-102410000D03*
X111495000Y-101910000D03*
D58*
X110925000Y-109795000D03*
D59*
X110425000Y-109945000D03*
D60*
X109750000Y-109645000D03*
X109750000Y-110145000D03*
X109750000Y-110645000D03*
X109750000Y-111145000D03*
X109750000Y-111645000D03*
D59*
X110425000Y-111345000D03*
X110925000Y-111345000D03*
D60*
X111600000Y-111645000D03*
X111600000Y-111145000D03*
X111600000Y-110645000D03*
X111600000Y-110145000D03*
X111600000Y-109645000D03*
D56*
X156150000Y-122300000D03*
X154250000Y-122300000D03*
D23*
X129920000Y-110260000D03*
X128900000Y-110260000D03*
D32*
X138480000Y-92950000D03*
X139120000Y-92950000D03*
D61*
X109640000Y-116032503D03*
X111540000Y-116032503D03*
D53*
X108250000Y-104420000D03*
X108250000Y-103400000D03*
D62*
X148094300Y-126449999D03*
X148094300Y-126950000D03*
X148094300Y-127450000D03*
X148094300Y-127950001D03*
D63*
X148750001Y-128114400D03*
X149250000Y-128114400D03*
X149749999Y-128114400D03*
D62*
X150405700Y-127950001D03*
X150405700Y-127450000D03*
X150405700Y-126950000D03*
X150405700Y-126449999D03*
D63*
X149749999Y-126285600D03*
X149250000Y-126285600D03*
X148750001Y-126285600D03*
D23*
X130050000Y-108860000D03*
X129030000Y-108860000D03*
D29*
X131000000Y-128930000D03*
X131000000Y-127970000D03*
D33*
X118300000Y-124970000D03*
X117660000Y-124970000D03*
D61*
X153750000Y-101400000D03*
X155650000Y-101400000D03*
D56*
X112440000Y-122770000D03*
X110540000Y-122770000D03*
D23*
X129920000Y-112274999D03*
X128900000Y-112274999D03*
D53*
X134020000Y-97880000D03*
X134020000Y-96860000D03*
D21*
X117240000Y-104975000D03*
X118260000Y-104975000D03*
D29*
X111570000Y-98975000D03*
X111570000Y-98015000D03*
D61*
X147050000Y-131100000D03*
X148950000Y-131100000D03*
D64*
X127880000Y-99095000D03*
X127880000Y-100065000D03*
D65*
X137050000Y-130155000D03*
X137050000Y-130795000D03*
D23*
X129920000Y-115330000D03*
X128900000Y-115330000D03*
D56*
X131725000Y-97100000D03*
X129825000Y-97100000D03*
D21*
X113690000Y-94850000D03*
X114710000Y-94850000D03*
X114140000Y-100300000D03*
X115160000Y-100300000D03*
D66*
X127150000Y-126525000D03*
X127150000Y-127485000D03*
D29*
X149525000Y-94005000D03*
X149525000Y-93045000D03*
D67*
X152770000Y-99400000D03*
X152770000Y-97600000D03*
X151570000Y-97600000D03*
X151570000Y-99400000D03*
D25*
X151995000Y-117650000D03*
X152955000Y-117650000D03*
D56*
X111550000Y-113095000D03*
X109650000Y-113095000D03*
D33*
X125720000Y-100300000D03*
X125080000Y-100300000D03*
D23*
X124260000Y-109710000D03*
X123240000Y-109710000D03*
D26*
X113900000Y-112225000D03*
X113900000Y-115175000D03*
D22*
X135164376Y-102764376D03*
X135885624Y-103485624D03*
D65*
X140975000Y-91955000D03*
X140975000Y-92595000D03*
D29*
X154065000Y-98880000D03*
X154065000Y-97920000D03*
D30*
X133050000Y-96990000D03*
X133050000Y-98010000D03*
D24*
X150630000Y-129250000D03*
X149670000Y-129250000D03*
D66*
X119350000Y-107990000D03*
X119350000Y-108950000D03*
D68*
X132000000Y-106800001D03*
X132800000Y-106800001D03*
X133600000Y-106800001D03*
X134400000Y-106800001D03*
X135200000Y-106800001D03*
X136000000Y-106800001D03*
X136799999Y-106800001D03*
X137599999Y-106800001D03*
X138399999Y-106800001D03*
X139199999Y-106800001D03*
X139999999Y-106800001D03*
X140799999Y-106800001D03*
X141599999Y-106800001D03*
X142399999Y-106800001D03*
X143199999Y-106800001D03*
X143999999Y-106800001D03*
X144799999Y-106800001D03*
X145599998Y-106800001D03*
X146399998Y-106800001D03*
X147199998Y-106800001D03*
X147999998Y-106800001D03*
X148799998Y-106800001D03*
X132000000Y-122799999D03*
X132800000Y-122799999D03*
X133600000Y-122799999D03*
X134400000Y-122799999D03*
X135200000Y-122799999D03*
X136000000Y-122799999D03*
X136799999Y-122799999D03*
X137599999Y-122799999D03*
X138399999Y-122799999D03*
X139199999Y-122799999D03*
X139999999Y-122799999D03*
X140799999Y-122799999D03*
X141599999Y-122799999D03*
X142399999Y-122799999D03*
X143199999Y-122799999D03*
X143999999Y-122799999D03*
X144799999Y-122799999D03*
X145599998Y-122799999D03*
X146399998Y-122799999D03*
X147199998Y-122799999D03*
X147999998Y-122799999D03*
X148799998Y-122799999D03*
X132000000Y-123599999D03*
X132800000Y-123599999D03*
X133600000Y-123599999D03*
X134400000Y-123599999D03*
X135200000Y-123599999D03*
X136000000Y-123599999D03*
X136799999Y-123599999D03*
X137599999Y-123599999D03*
X138399999Y-123599999D03*
X139199999Y-123599999D03*
X139999999Y-123599999D03*
X140799999Y-123599999D03*
X141599999Y-123599999D03*
X142399999Y-123599999D03*
X143199999Y-123599999D03*
X143999999Y-123599999D03*
X144799999Y-123599999D03*
X145599998Y-123599999D03*
X146399998Y-123599999D03*
X147199998Y-123599999D03*
X147999998Y-123599999D03*
X148799998Y-123599999D03*
X132000000Y-107600001D03*
X132800000Y-107600001D03*
X133600000Y-107600001D03*
X134400000Y-107600001D03*
X135200000Y-107600001D03*
X136000000Y-107600001D03*
X136799999Y-107600001D03*
X137599999Y-107600001D03*
X138399999Y-107600001D03*
X139199999Y-107600001D03*
X139999999Y-107600001D03*
X140799999Y-107600001D03*
X141599999Y-107600001D03*
X142399999Y-107600001D03*
X143199999Y-107600001D03*
X143999999Y-107600001D03*
X144799999Y-107600001D03*
X145599998Y-107600001D03*
X146399998Y-107600001D03*
X147199998Y-107600001D03*
X147999998Y-107600001D03*
X148799998Y-107600001D03*
X132000000Y-108400001D03*
X132800000Y-108400001D03*
X133600000Y-108400001D03*
X134400000Y-108400001D03*
X135200000Y-108400001D03*
X136000000Y-108400001D03*
X136799999Y-108400001D03*
X137599999Y-108400001D03*
X138399999Y-108400001D03*
X139199999Y-108400001D03*
X139999999Y-108400001D03*
X140799999Y-108400001D03*
X141599999Y-108400001D03*
X142399999Y-108400001D03*
X143199999Y-108400001D03*
X143999999Y-108400001D03*
X144799999Y-108400001D03*
X145599998Y-108400001D03*
X146399998Y-108400001D03*
X147199998Y-108400001D03*
X147999998Y-108400001D03*
X148799998Y-108400001D03*
X132000000Y-109200001D03*
X132800000Y-109200001D03*
X133600000Y-109200001D03*
X134400000Y-109200001D03*
X135200000Y-109200001D03*
X136000000Y-109200001D03*
X136799999Y-109200001D03*
X137599999Y-109200001D03*
X138399999Y-109200001D03*
X139199999Y-109200001D03*
X139999999Y-109200001D03*
X140799999Y-109200001D03*
X141599999Y-109200001D03*
X142399999Y-109200001D03*
X143199999Y-109200001D03*
X143999999Y-109200001D03*
X144799999Y-109200001D03*
X145599998Y-109200001D03*
X146399998Y-109200001D03*
X147199998Y-109200001D03*
X147999998Y-109200001D03*
X148799998Y-109200001D03*
X132000000Y-110000001D03*
X132800000Y-110000001D03*
X133600000Y-110000001D03*
X134400000Y-110000001D03*
X135200000Y-110000001D03*
X136000000Y-110000001D03*
X136799999Y-110000001D03*
X137599999Y-110000001D03*
X138399999Y-110000001D03*
X139199999Y-110000001D03*
X139999999Y-110000001D03*
X140799999Y-110000001D03*
X141599999Y-110000001D03*
X142399999Y-110000001D03*
X143199999Y-110000001D03*
X143999999Y-110000001D03*
X144799999Y-110000001D03*
X145599998Y-110000001D03*
X146399998Y-110000001D03*
X147199998Y-110000001D03*
X147999998Y-110000001D03*
X148799998Y-110000001D03*
X132000000Y-110800001D03*
X132800000Y-110800001D03*
X133600000Y-110800001D03*
X134400000Y-110800001D03*
X135200000Y-110800001D03*
X136000000Y-110800001D03*
X136799999Y-110800001D03*
X137599999Y-110800001D03*
X138399999Y-110800001D03*
X139199999Y-110800001D03*
X139999999Y-110800001D03*
X140799999Y-110800001D03*
X141599999Y-110800001D03*
X142399999Y-110800001D03*
X143199999Y-110800001D03*
X143999999Y-110800001D03*
X144799999Y-110800001D03*
X145599998Y-110800001D03*
X146399998Y-110800001D03*
X147199998Y-110800001D03*
X147999998Y-110800001D03*
X148799998Y-110800001D03*
X132000000Y-111600000D03*
X132800000Y-111600000D03*
X133600000Y-111600000D03*
X134400000Y-111600000D03*
X135200000Y-111600000D03*
X136000000Y-111600000D03*
X136799999Y-111600000D03*
X137599999Y-111600000D03*
X138399999Y-111600000D03*
X139199999Y-111600000D03*
X139999999Y-111600000D03*
X140799999Y-111600000D03*
X141599999Y-111600000D03*
X142399999Y-111600000D03*
X143199999Y-111600000D03*
X143999999Y-111600000D03*
X144799999Y-111600000D03*
X145599998Y-111600000D03*
X146399998Y-111600000D03*
X147199998Y-111600000D03*
X147999998Y-111600000D03*
X148799998Y-111600000D03*
X132000000Y-112400000D03*
X132800000Y-112400000D03*
X133600000Y-112400000D03*
X134400000Y-112400000D03*
X135200000Y-112400000D03*
X136000000Y-112400000D03*
X136799999Y-112400000D03*
X137599999Y-112400000D03*
X138399999Y-112400000D03*
X139199999Y-112400000D03*
X139999999Y-112400000D03*
X140799999Y-112400000D03*
X141599999Y-112400000D03*
X142399999Y-112400000D03*
X143199999Y-112400000D03*
X143999999Y-112400000D03*
X144799999Y-112400000D03*
X145599998Y-112400000D03*
X146399998Y-112400000D03*
X147199998Y-112400000D03*
X147999998Y-112400000D03*
X148799998Y-112400000D03*
X132000000Y-113200000D03*
X132800000Y-113200000D03*
X133600000Y-113200000D03*
X134400000Y-113200000D03*
X135200000Y-113200000D03*
X136000000Y-113200000D03*
X136799999Y-113200000D03*
X137599999Y-113200000D03*
X138399999Y-113200000D03*
X139199999Y-113200000D03*
X139999999Y-113200000D03*
X140799999Y-113200000D03*
X141599999Y-113200000D03*
X142399999Y-113200000D03*
X143199999Y-113200000D03*
X143999999Y-113200000D03*
X144799999Y-113200000D03*
X145599998Y-113200000D03*
X146399998Y-113200000D03*
X147199998Y-113200000D03*
X147999998Y-113200000D03*
X148799998Y-113200000D03*
X132000000Y-114000000D03*
X132800000Y-114000000D03*
X133600000Y-114000000D03*
X134400000Y-114000000D03*
X135200000Y-114000000D03*
X136000000Y-114000000D03*
X136799999Y-114000000D03*
X137599999Y-114000000D03*
X138399999Y-114000000D03*
X139199999Y-114000000D03*
X139999999Y-114000000D03*
X140799999Y-114000000D03*
X141599999Y-114000000D03*
X142399999Y-114000000D03*
X143199999Y-114000000D03*
X143999999Y-114000000D03*
X144799999Y-114000000D03*
X145599998Y-114000000D03*
X146399998Y-114000000D03*
X147199998Y-114000000D03*
X147999998Y-114000000D03*
X148799998Y-114000000D03*
X132000000Y-114800000D03*
X132800000Y-114800000D03*
X133600000Y-114800000D03*
X134400000Y-114800000D03*
X135200000Y-114800000D03*
X136000000Y-114800000D03*
X136799999Y-114800000D03*
X137599999Y-114800000D03*
X138399999Y-114800000D03*
X139199999Y-114800000D03*
X139999999Y-114800000D03*
X140799999Y-114800000D03*
X141599999Y-114800000D03*
X142399999Y-114800000D03*
X143199999Y-114800000D03*
X143999999Y-114800000D03*
X144799999Y-114800000D03*
X145599998Y-114800000D03*
X146399998Y-114800000D03*
X147199998Y-114800000D03*
X147999998Y-114800000D03*
X148799998Y-114800000D03*
X132000000Y-115600000D03*
X132800000Y-115600000D03*
X133600000Y-115600000D03*
X134400000Y-115600000D03*
X135200000Y-115600000D03*
X136000000Y-115600000D03*
X136799999Y-115600000D03*
X137599999Y-115600000D03*
X138399999Y-115600000D03*
X139199999Y-115600000D03*
X139999999Y-115600000D03*
X140799999Y-115600000D03*
X141599999Y-115600000D03*
X142399999Y-115600000D03*
X143199999Y-115600000D03*
X143999999Y-115600000D03*
X144799999Y-115600000D03*
X145599998Y-115600000D03*
X146399998Y-115600000D03*
X147199998Y-115600000D03*
X147999998Y-115600000D03*
X148799998Y-115600000D03*
X132000000Y-116400000D03*
X132800000Y-116400000D03*
X133600000Y-116400000D03*
X134400000Y-116400000D03*
X135200000Y-116400000D03*
X136000000Y-116400000D03*
X136799999Y-116400000D03*
X137599999Y-116400000D03*
X138399999Y-116400000D03*
X139199999Y-116400000D03*
X139999999Y-116400000D03*
X140799999Y-116400000D03*
X141599999Y-116400000D03*
X142399999Y-116400000D03*
X143199999Y-116400000D03*
X143999999Y-116400000D03*
X144799999Y-116400000D03*
X145599998Y-116400000D03*
X146399998Y-116400000D03*
X147199998Y-116400000D03*
X147999998Y-116400000D03*
X148799998Y-116400000D03*
X132000000Y-117200000D03*
X132800000Y-117200000D03*
X133600000Y-117200000D03*
X134400000Y-117200000D03*
X135200000Y-117200000D03*
X136000000Y-117200000D03*
X136799999Y-117200000D03*
X137599999Y-117200000D03*
X138399999Y-117200000D03*
X139199999Y-117200000D03*
X139999999Y-117200000D03*
X140799999Y-117200000D03*
X141599999Y-117200000D03*
X142399999Y-117200000D03*
X143199999Y-117200000D03*
X143999999Y-117200000D03*
X144799999Y-117200000D03*
X145599998Y-117200000D03*
X146399998Y-117200000D03*
X147199998Y-117200000D03*
X147999998Y-117200000D03*
X148799998Y-117200000D03*
X132000000Y-118000000D03*
X132800000Y-118000000D03*
X133600000Y-118000000D03*
X134400000Y-118000000D03*
X135200000Y-118000000D03*
X136000000Y-118000000D03*
X136799999Y-118000000D03*
X137599999Y-118000000D03*
X138399999Y-118000000D03*
X139199999Y-118000000D03*
X139999999Y-118000000D03*
X140799999Y-118000000D03*
X141599999Y-118000000D03*
X142399999Y-118000000D03*
X143199999Y-118000000D03*
X143999999Y-118000000D03*
X144799999Y-118000000D03*
X145599998Y-118000000D03*
X146399998Y-118000000D03*
X147199998Y-118000000D03*
X147999998Y-118000000D03*
X148799998Y-118000000D03*
X132000000Y-118800000D03*
X132800000Y-118800000D03*
X133600000Y-118800000D03*
X134400000Y-118800000D03*
X135200000Y-118800000D03*
X136000000Y-118800000D03*
X136799999Y-118800000D03*
X137599999Y-118800000D03*
X138399999Y-118800000D03*
X139199999Y-118800000D03*
X139999999Y-118800000D03*
X140799999Y-118800000D03*
X141599999Y-118800000D03*
X142399999Y-118800000D03*
X143199999Y-118800000D03*
X143999999Y-118800000D03*
X144799999Y-118800000D03*
X145599998Y-118800000D03*
X146399998Y-118800000D03*
X147199998Y-118800000D03*
X147999998Y-118800000D03*
X148799998Y-118800000D03*
X132000000Y-119600000D03*
X132800000Y-119600000D03*
X133600000Y-119600000D03*
X134400000Y-119600000D03*
X135200000Y-119600000D03*
X136000000Y-119600000D03*
X136799999Y-119600000D03*
X137599999Y-119600000D03*
X138399999Y-119600000D03*
X139199999Y-119600000D03*
X139999999Y-119600000D03*
X140799999Y-119600000D03*
X141599999Y-119600000D03*
X142399999Y-119600000D03*
X143199999Y-119600000D03*
X143999999Y-119600000D03*
X144799999Y-119600000D03*
X145599998Y-119600000D03*
X146399998Y-119600000D03*
X147199998Y-119600000D03*
X147999998Y-119600000D03*
X148799998Y-119600000D03*
X132000000Y-120399999D03*
X132800000Y-120399999D03*
X133600000Y-120399999D03*
X134400000Y-120399999D03*
X135200000Y-120399999D03*
X136000000Y-120399999D03*
X136799999Y-120399999D03*
X137599999Y-120399999D03*
X138399999Y-120399999D03*
X139199999Y-120399999D03*
X139999999Y-120399999D03*
X140799999Y-120399999D03*
X141599999Y-120399999D03*
X142399999Y-120399999D03*
X143199999Y-120399999D03*
X143999999Y-120399999D03*
X144799999Y-120399999D03*
X145599998Y-120399999D03*
X146399998Y-120399999D03*
X147199998Y-120399999D03*
X147999998Y-120399999D03*
X148799998Y-120399999D03*
X132000000Y-121199999D03*
X132800000Y-121199999D03*
X133600000Y-121199999D03*
X134400000Y-121199999D03*
X135200000Y-121199999D03*
X136000000Y-121199999D03*
X136799999Y-121199999D03*
X137599999Y-121199999D03*
X138399999Y-121199999D03*
X139199999Y-121199999D03*
X139999999Y-121199999D03*
X140799999Y-121199999D03*
X141599999Y-121199999D03*
X142399999Y-121199999D03*
X143199999Y-121199999D03*
X143999999Y-121199999D03*
X144799999Y-121199999D03*
X145599998Y-121199999D03*
X146399998Y-121199999D03*
X147199998Y-121199999D03*
X147999998Y-121199999D03*
X148799998Y-121199999D03*
X132000000Y-121999999D03*
X132800000Y-121999999D03*
X133600000Y-121999999D03*
X134400000Y-121999999D03*
X135200000Y-121999999D03*
X136000000Y-121999999D03*
X136799999Y-121999999D03*
X137599999Y-121999999D03*
X138399999Y-121999999D03*
X139199999Y-121999999D03*
X139999999Y-121999999D03*
X140799999Y-121999999D03*
X141599999Y-121999999D03*
X142399999Y-121999999D03*
X143199999Y-121999999D03*
X143999999Y-121999999D03*
X144799999Y-121999999D03*
X145599998Y-121999999D03*
X146399998Y-121999999D03*
X147199998Y-121999999D03*
X147999998Y-121999999D03*
X148799998Y-121999999D03*
D53*
X138400000Y-98910000D03*
X138400000Y-97890000D03*
D23*
X129920000Y-111270000D03*
X128900000Y-111270000D03*
X118260000Y-104000000D03*
X117240000Y-104000000D03*
D53*
X108250000Y-102520000D03*
X108250000Y-101500000D03*
D21*
X113290000Y-97100000D03*
X114310000Y-97100000D03*
D69*
X109377499Y-117882500D03*
D70*
X109177499Y-118507500D03*
X109177499Y-119007502D03*
X109177499Y-119507501D03*
X109177499Y-120007500D03*
X109177499Y-120507502D03*
D71*
X109377499Y-121132502D03*
D72*
X110002499Y-121332501D03*
X110502500Y-121332501D03*
X111002500Y-121332501D03*
X111502501Y-121332501D03*
D73*
X112127499Y-121132502D03*
D70*
X112327501Y-120507502D03*
X112327501Y-120007500D03*
X112327501Y-119507501D03*
X112327501Y-119007502D03*
X112327501Y-118507500D03*
D74*
X112127499Y-117882503D03*
D72*
X111502501Y-117682501D03*
X111002500Y-117682501D03*
X110502500Y-117682501D03*
X110002499Y-117682501D03*
D75*
X110752500Y-119807500D03*
D30*
X108247500Y-119127504D03*
X108247500Y-120147504D03*
D31*
X117930000Y-108650000D03*
X117930000Y-108010000D03*
D66*
X131800000Y-98495000D03*
X131800000Y-99455000D03*
D30*
X115140000Y-105020000D03*
X115140000Y-106040000D03*
D23*
X118273650Y-101000000D03*
X117253650Y-101000000D03*
D53*
X116060000Y-109990000D03*
X116060000Y-108970000D03*
D33*
X116745000Y-91775000D03*
X116105000Y-91775000D03*
D29*
X141470000Y-98070000D03*
X141470000Y-97110000D03*
D23*
X118385000Y-109775000D03*
X117365000Y-109775000D03*
%LPD*%
M02*
