G04 #@! TF.GenerationSoftware,KiCad,Pcbnew,9.0.0-9.0.0-2~ubuntu24.10.1*
G04 #@! TF.CreationDate,2025-04-01T16:44:13+02:00*
G04 #@! TF.ProjectId,Zynq_SoM,5a796e71-5f53-46f4-9d2e-6b696361645f,1.0*
G04 #@! TF.SameCoordinates,Original*
G04 #@! TF.FileFunction,Legend,Bot*
G04 #@! TF.FilePolarity,Positive*
%FSLAX46Y46*%
G04 Gerber Fmt 4.6, Leading zero omitted, Abs format (unit mm)*
G04 Created by KiCad (PCBNEW 9.0.0-9.0.0-2~ubuntu24.10.1) date 2025-04-01 16:44:13*
%MOMM*%
%LPD*%
G01*
G04 APERTURE LIST*
G04 Aperture macros list*
%AMRoundRect*
0 Rectangle with rounded corners*
0 $1 Rounding radius*
0 $2 $3 $4 $5 $6 $7 $8 $9 X,Y pos of 4 corners*
0 Add a 4 corners polygon primitive as box body*
4,1,4,$2,$3,$4,$5,$6,$7,$8,$9,$2,$3,0*
0 Add four circle primitives for the rounded corners*
1,1,$1+$1,$2,$3*
1,1,$1+$1,$4,$5*
1,1,$1+$1,$6,$7*
1,1,$1+$1,$8,$9*
0 Add four rect primitives between the rounded corners*
20,1,$1+$1,$2,$3,$4,$5,0*
20,1,$1+$1,$4,$5,$6,$7,0*
20,1,$1+$1,$6,$7,$8,$9,0*
20,1,$1+$1,$8,$9,$2,$3,0*%
G04 Aperture macros list end*
%ADD10C,0.150000*%
%ADD11C,0.120000*%
%ADD12C,0.127000*%
%ADD13C,0.200000*%
%ADD14C,2.700005*%
%ADD15C,2.700000*%
%ADD16RoundRect,0.135000X-0.135000X-0.185000X0.135000X-0.185000X0.135000X0.185000X-0.135000X0.185000X0*%
%ADD17RoundRect,0.100000X0.100000X-0.130000X0.100000X0.130000X-0.100000X0.130000X-0.100000X-0.130000X0*%
%ADD18RoundRect,0.100000X-0.162635X0.021213X0.021213X-0.162635X0.162635X-0.021213X-0.021213X0.162635X0*%
%ADD19RoundRect,0.135000X0.135000X0.185000X-0.135000X0.185000X-0.135000X-0.185000X0.135000X-0.185000X0*%
%ADD20C,0.700000*%
%ADD21RoundRect,0.100000X0.021213X0.162635X-0.162635X-0.021213X-0.021213X-0.162635X0.162635X0.021213X0*%
%ADD22RoundRect,0.100000X-0.100000X0.130000X-0.100000X-0.130000X0.100000X-0.130000X0.100000X0.130000X0*%
%ADD23RoundRect,0.100000X-0.130000X-0.100000X0.130000X-0.100000X0.130000X0.100000X-0.130000X0.100000X0*%
%ADD24RoundRect,0.140000X-0.140000X-0.170000X0.140000X-0.170000X0.140000X0.170000X-0.140000X0.170000X0*%
%ADD25RoundRect,0.150000X-0.587500X-0.150000X0.587500X-0.150000X0.587500X0.150000X-0.587500X0.150000X0*%
%ADD26RoundRect,0.062500X-0.062500X0.350000X-0.062500X-0.350000X0.062500X-0.350000X0.062500X0.350000X0*%
%ADD27RoundRect,0.062500X-0.350000X0.062500X-0.350000X-0.062500X0.350000X-0.062500X0.350000X0.062500X0*%
%ADD28R,2.600000X2.600000*%
%ADD29RoundRect,0.140000X-0.170000X0.140000X-0.170000X-0.140000X0.170000X-0.140000X0.170000X0.140000X0*%
%ADD30RoundRect,0.140000X0.170000X-0.140000X0.170000X0.140000X-0.170000X0.140000X-0.170000X-0.140000X0*%
%ADD31RoundRect,0.135000X-0.185000X0.135000X-0.185000X-0.135000X0.185000X-0.135000X0.185000X0.135000X0*%
%ADD32RoundRect,0.147500X0.147500X0.172500X-0.147500X0.172500X-0.147500X-0.172500X0.147500X-0.172500X0*%
%ADD33RoundRect,0.250000X0.325000X0.650000X-0.325000X0.650000X-0.325000X-0.650000X0.325000X-0.650000X0*%
%ADD34RoundRect,0.140000X0.140000X0.170000X-0.140000X0.170000X-0.140000X-0.170000X0.140000X-0.170000X0*%
%ADD35RoundRect,0.147500X0.172500X-0.147500X0.172500X0.147500X-0.172500X0.147500X-0.172500X-0.147500X0*%
%ADD36RoundRect,0.100000X0.130000X0.100000X-0.130000X0.100000X-0.130000X-0.100000X0.130000X-0.100000X0*%
%ADD37RoundRect,0.135000X0.185000X-0.135000X0.185000X0.135000X-0.185000X0.135000X-0.185000X-0.135000X0*%
%ADD38R,0.200000X0.700000*%
%ADD39RoundRect,0.250000X-0.250000X-0.475000X0.250000X-0.475000X0.250000X0.475000X-0.250000X0.475000X0*%
%ADD40RoundRect,0.250000X0.475000X-0.250000X0.475000X0.250000X-0.475000X0.250000X-0.475000X-0.250000X0*%
%ADD41RoundRect,0.147500X-0.147500X-0.172500X0.147500X-0.172500X0.147500X0.172500X-0.147500X0.172500X0*%
%ADD42RoundRect,0.135000X0.226274X0.035355X0.035355X0.226274X-0.226274X-0.035355X-0.035355X-0.226274X0*%
%ADD43C,0.390000*%
%ADD44RoundRect,0.135000X0.220016X-0.063585X0.127670X0.190132X-0.220016X0.063585X-0.127670X-0.190132X0*%
%ADD45RoundRect,0.100000X-0.021213X-0.162635X0.162635X0.021213X0.021213X0.162635X-0.162635X-0.021213X0*%
%ADD46RoundRect,0.135000X-0.226274X-0.035355X-0.035355X-0.226274X0.226274X0.035355X0.035355X0.226274X0*%
%ADD47R,0.800000X0.600000*%
%ADD48R,0.700000X0.200000*%
%ADD49R,0.600000X0.800000*%
%ADD50RoundRect,0.140000X-0.002028X0.220218X-0.216520X0.040237X0.002028X-0.220218X0.216520X-0.040237X0*%
%ADD51RoundRect,0.147500X-0.172500X0.147500X-0.172500X-0.147500X0.172500X-0.147500X0.172500X0.147500X0*%
G04 APERTURE END LIST*
D10*
X153708628Y-119415601D02*
X154780057Y-119415601D01*
X154780057Y-119415601D02*
X154994342Y-119487030D01*
X154994342Y-119487030D02*
X155137200Y-119629887D01*
X155137200Y-119629887D02*
X155208628Y-119844173D01*
X155208628Y-119844173D02*
X155208628Y-119987030D01*
X155208628Y-117987030D02*
X155208628Y-118701316D01*
X155208628Y-118701316D02*
X153708628Y-118701316D01*
X155065771Y-116629887D02*
X155137200Y-116701315D01*
X155137200Y-116701315D02*
X155208628Y-116915601D01*
X155208628Y-116915601D02*
X155208628Y-117058458D01*
X155208628Y-117058458D02*
X155137200Y-117272744D01*
X155137200Y-117272744D02*
X154994342Y-117415601D01*
X154994342Y-117415601D02*
X154851485Y-117487030D01*
X154851485Y-117487030D02*
X154565771Y-117558458D01*
X154565771Y-117558458D02*
X154351485Y-117558458D01*
X154351485Y-117558458D02*
X154065771Y-117487030D01*
X154065771Y-117487030D02*
X153922914Y-117415601D01*
X153922914Y-117415601D02*
X153780057Y-117272744D01*
X153780057Y-117272744D02*
X153708628Y-117058458D01*
X153708628Y-117058458D02*
X153708628Y-116915601D01*
X153708628Y-116915601D02*
X153780057Y-116701315D01*
X153780057Y-116701315D02*
X153851485Y-116629887D01*
X153708628Y-115558458D02*
X154780057Y-115558458D01*
X154780057Y-115558458D02*
X154994342Y-115629887D01*
X154994342Y-115629887D02*
X155137200Y-115772744D01*
X155137200Y-115772744D02*
X155208628Y-115987030D01*
X155208628Y-115987030D02*
X155208628Y-116129887D01*
X155208628Y-114129887D02*
X155208628Y-114844173D01*
X155208628Y-114844173D02*
X153708628Y-114844173D01*
X155065771Y-112772744D02*
X155137200Y-112844172D01*
X155137200Y-112844172D02*
X155208628Y-113058458D01*
X155208628Y-113058458D02*
X155208628Y-113201315D01*
X155208628Y-113201315D02*
X155137200Y-113415601D01*
X155137200Y-113415601D02*
X154994342Y-113558458D01*
X154994342Y-113558458D02*
X154851485Y-113629887D01*
X154851485Y-113629887D02*
X154565771Y-113701315D01*
X154565771Y-113701315D02*
X154351485Y-113701315D01*
X154351485Y-113701315D02*
X154065771Y-113629887D01*
X154065771Y-113629887D02*
X153922914Y-113558458D01*
X153922914Y-113558458D02*
X153780057Y-113415601D01*
X153780057Y-113415601D02*
X153708628Y-113201315D01*
X153708628Y-113201315D02*
X153708628Y-113058458D01*
X153708628Y-113058458D02*
X153780057Y-112844172D01*
X153780057Y-112844172D02*
X153851485Y-112772744D01*
X153708628Y-111701315D02*
X154780057Y-111701315D01*
X154780057Y-111701315D02*
X154994342Y-111772744D01*
X154994342Y-111772744D02*
X155137200Y-111915601D01*
X155137200Y-111915601D02*
X155208628Y-112129887D01*
X155208628Y-112129887D02*
X155208628Y-112272744D01*
X155208628Y-110272744D02*
X155208628Y-110987030D01*
X155208628Y-110987030D02*
X153708628Y-110987030D01*
X155065771Y-108915601D02*
X155137200Y-108987029D01*
X155137200Y-108987029D02*
X155208628Y-109201315D01*
X155208628Y-109201315D02*
X155208628Y-109344172D01*
X155208628Y-109344172D02*
X155137200Y-109558458D01*
X155137200Y-109558458D02*
X154994342Y-109701315D01*
X154994342Y-109701315D02*
X154851485Y-109772744D01*
X154851485Y-109772744D02*
X154565771Y-109844172D01*
X154565771Y-109844172D02*
X154351485Y-109844172D01*
X154351485Y-109844172D02*
X154065771Y-109772744D01*
X154065771Y-109772744D02*
X153922914Y-109701315D01*
X153922914Y-109701315D02*
X153780057Y-109558458D01*
X153780057Y-109558458D02*
X153708628Y-109344172D01*
X153708628Y-109344172D02*
X153708628Y-109201315D01*
X153708628Y-109201315D02*
X153780057Y-108987029D01*
X153780057Y-108987029D02*
X153851485Y-108915601D01*
X153708628Y-107844172D02*
X154780057Y-107844172D01*
X154780057Y-107844172D02*
X154994342Y-107915601D01*
X154994342Y-107915601D02*
X155137200Y-108058458D01*
X155137200Y-108058458D02*
X155208628Y-108272744D01*
X155208628Y-108272744D02*
X155208628Y-108415601D01*
X155208628Y-106415601D02*
X155208628Y-107129887D01*
X155208628Y-107129887D02*
X153708628Y-107129887D01*
X155065771Y-105058458D02*
X155137200Y-105129886D01*
X155137200Y-105129886D02*
X155208628Y-105344172D01*
X155208628Y-105344172D02*
X155208628Y-105487029D01*
X155208628Y-105487029D02*
X155137200Y-105701315D01*
X155137200Y-105701315D02*
X154994342Y-105844172D01*
X154994342Y-105844172D02*
X154851485Y-105915601D01*
X154851485Y-105915601D02*
X154565771Y-105987029D01*
X154565771Y-105987029D02*
X154351485Y-105987029D01*
X154351485Y-105987029D02*
X154065771Y-105915601D01*
X154065771Y-105915601D02*
X153922914Y-105844172D01*
X153922914Y-105844172D02*
X153780057Y-105701315D01*
X153780057Y-105701315D02*
X153708628Y-105487029D01*
X153708628Y-105487029D02*
X153708628Y-105344172D01*
X153708628Y-105344172D02*
X153780057Y-105129886D01*
X153780057Y-105129886D02*
X153851485Y-105058458D01*
D11*
X138953641Y-118570000D02*
X138646359Y-118570000D01*
X138953641Y-119330000D02*
X138646359Y-119330000D01*
X129446359Y-117700000D02*
X129753641Y-117700000D01*
X129446359Y-118460000D02*
X129753641Y-118460000D01*
X129446359Y-111680000D02*
X129753641Y-111680000D01*
X129446359Y-112440000D02*
X129753641Y-112440000D01*
X149800000Y-128700000D02*
G75*
G02*
X148800000Y-128700000I-500000J0D01*
G01*
X148800000Y-128700000D02*
G75*
G02*
X149800000Y-128700000I500000J0D01*
G01*
X118710000Y-127020000D02*
G75*
G02*
X117710000Y-127020000I-500000J0D01*
G01*
X117710000Y-127020000D02*
G75*
G02*
X118710000Y-127020000I500000J0D01*
G01*
X132882836Y-111615000D02*
X132667164Y-111615000D01*
X132882836Y-112335000D02*
X132667164Y-112335000D01*
X109913641Y-109220000D02*
X109606359Y-109220000D01*
X109913641Y-109980000D02*
X109606359Y-109980000D01*
X150250000Y-124502500D02*
X150900000Y-124502500D01*
X150250000Y-127622500D02*
X150900000Y-127622500D01*
X151550000Y-124502500D02*
X150900000Y-124502500D01*
X151550000Y-127622500D02*
X150900000Y-127622500D01*
X149977500Y-127902500D02*
X149497500Y-127902500D01*
X149737500Y-127572500D01*
X149977500Y-127902500D01*
G36*
X149977500Y-127902500D02*
G01*
X149497500Y-127902500D01*
X149737500Y-127572500D01*
X149977500Y-127902500D01*
G37*
X129390000Y-98065000D02*
X129390000Y-98240000D01*
X129390000Y-101985000D02*
X129390000Y-101510000D01*
X129630000Y-97765000D02*
X129865000Y-97765000D01*
X129865000Y-101985000D02*
X129390000Y-101985000D01*
X133135000Y-97765000D02*
X133610000Y-97765000D01*
X133135000Y-101985000D02*
X133610000Y-101985000D01*
X133610000Y-97765000D02*
X133610000Y-98240000D01*
X133610000Y-101985000D02*
X133610000Y-101510000D01*
X129390000Y-97765000D02*
X129060000Y-98005000D01*
X129060000Y-97525000D01*
X129390000Y-97765000D01*
G36*
X129390000Y-97765000D02*
G01*
X129060000Y-98005000D01*
X129060000Y-97525000D01*
X129390000Y-97765000D01*
G37*
X128090000Y-100877836D02*
X128090000Y-100662164D01*
X128810000Y-100877836D02*
X128810000Y-100662164D01*
X121300000Y-128100000D02*
G75*
G02*
X120300000Y-128100000I-500000J0D01*
G01*
X120300000Y-128100000D02*
G75*
G02*
X121300000Y-128100000I500000J0D01*
G01*
X121340000Y-98817164D02*
X121340000Y-99032836D01*
X122060000Y-98817164D02*
X122060000Y-99032836D01*
X142290000Y-108382836D02*
X142290000Y-108167164D01*
X143010000Y-108382836D02*
X143010000Y-108167164D01*
X126520000Y-102653641D02*
X126520000Y-102346359D01*
X127280000Y-102653641D02*
X127280000Y-102346359D01*
X110588748Y-111890000D02*
X112011252Y-111890000D01*
X110588748Y-113710000D02*
X112011252Y-113710000D01*
X139542164Y-116830000D02*
X139757836Y-116830000D01*
X139542164Y-117550000D02*
X139757836Y-117550000D01*
X126920000Y-100346359D02*
X126920000Y-100653641D01*
X127680000Y-100346359D02*
X127680000Y-100653641D01*
X118650000Y-102300000D02*
G75*
G02*
X117650000Y-102300000I-500000J0D01*
G01*
X117650000Y-102300000D02*
G75*
G02*
X118650000Y-102300000I500000J0D01*
G01*
X138917834Y-113609999D02*
X138702162Y-113609999D01*
X138917834Y-114329999D02*
X138702162Y-114329999D01*
X117870000Y-93353641D02*
X117870000Y-93046359D01*
X118630000Y-93353641D02*
X118630000Y-93046359D01*
X123900000Y-96600000D02*
G75*
G02*
X122900000Y-96600000I-500000J0D01*
G01*
X122900000Y-96600000D02*
G75*
G02*
X123900000Y-96600000I500000J0D01*
G01*
X128971359Y-96620000D02*
X129278641Y-96620000D01*
X128971359Y-97380000D02*
X129278641Y-97380000D01*
X117920000Y-99946359D02*
X117920000Y-100253641D01*
X118680000Y-99946359D02*
X118680000Y-100253641D01*
X109903641Y-101495000D02*
X109596359Y-101495000D01*
X109903641Y-102255000D02*
X109596359Y-102255000D01*
X110588748Y-118990000D02*
X112011252Y-118990000D01*
X110588748Y-120810000D02*
X112011252Y-120810000D01*
X117396359Y-95620000D02*
X117703641Y-95620000D01*
X117396359Y-96380000D02*
X117703641Y-96380000D01*
D12*
X125200000Y-95940000D02*
X125200000Y-93060000D01*
X126280000Y-93060000D02*
X125200000Y-93060000D01*
X126280000Y-95940000D02*
X125200000Y-95940000D01*
X146720000Y-95940000D02*
X147800000Y-95940000D01*
X147800000Y-93060000D02*
X146720000Y-93060000D01*
X147800000Y-95940000D02*
X147800000Y-93060000D01*
D13*
X126000000Y-92020000D02*
G75*
G02*
X125800000Y-92020000I-100000J0D01*
G01*
X125800000Y-92020000D02*
G75*
G02*
X126000000Y-92020000I100000J0D01*
G01*
D11*
X116800000Y-98450000D02*
G75*
G02*
X115800000Y-98450000I-500000J0D01*
G01*
X115800000Y-98450000D02*
G75*
G02*
X116800000Y-98450000I500000J0D01*
G01*
X129446357Y-116669999D02*
X129753639Y-116669999D01*
X129446357Y-117429999D02*
X129753639Y-117429999D01*
X129446359Y-118730000D02*
X129753641Y-118730000D01*
X129446359Y-119490000D02*
X129753641Y-119490000D01*
X115480000Y-120423641D02*
X115480000Y-120116359D01*
X116240000Y-120423641D02*
X116240000Y-120116359D01*
X139061252Y-98105000D02*
X138538748Y-98105000D01*
X139061252Y-99575000D02*
X138538748Y-99575000D01*
X117576359Y-124800000D02*
X117883641Y-124800000D01*
X117576359Y-125560000D02*
X117883641Y-125560000D01*
X142615000Y-102017164D02*
X142615000Y-102232836D01*
X143335000Y-102017164D02*
X143335000Y-102232836D01*
X123175000Y-130178748D02*
X123175000Y-130701252D01*
X124645000Y-130178748D02*
X124645000Y-130701252D01*
X129596359Y-122470000D02*
X129903641Y-122470000D01*
X129596359Y-123230000D02*
X129903641Y-123230000D01*
X143400000Y-97997836D02*
X143400000Y-97782164D01*
X144120000Y-97997836D02*
X144120000Y-97782164D01*
X130342164Y-102560000D02*
X130557836Y-102560000D01*
X130342164Y-103280000D02*
X130557836Y-103280000D01*
X121046357Y-121694999D02*
X121353639Y-121694999D01*
X121046357Y-122454999D02*
X121353639Y-122454999D01*
X148940000Y-98356359D02*
X148940000Y-98663641D01*
X149700000Y-98356359D02*
X149700000Y-98663641D01*
X140272164Y-115610000D02*
X140487836Y-115610000D01*
X140272164Y-116330000D02*
X140487836Y-116330000D01*
X129446359Y-108540000D02*
X129753641Y-108540000D01*
X129446359Y-109300000D02*
X129753641Y-109300000D01*
X141683283Y-104520684D02*
X141900564Y-104737965D01*
X142220684Y-103983283D02*
X142437965Y-104200564D01*
X113220000Y-117300000D02*
G75*
G02*
X112220000Y-117300000I-500000J0D01*
G01*
X112220000Y-117300000D02*
G75*
G02*
X113220000Y-117300000I500000J0D01*
G01*
X129446359Y-109590000D02*
X129753641Y-109590000D01*
X129446359Y-110350000D02*
X129753641Y-110350000D01*
X119486359Y-124810000D02*
X119793641Y-124810000D01*
X119486359Y-125570000D02*
X119793641Y-125570000D01*
X150006359Y-102270000D02*
X150313641Y-102270000D01*
X150006359Y-103030000D02*
X150313641Y-103030000D01*
X115900000Y-126200000D02*
G75*
G02*
X114900000Y-126200000I-500000J0D01*
G01*
X114900000Y-126200000D02*
G75*
G02*
X115900000Y-126200000I500000J0D01*
G01*
X129446359Y-110644999D02*
X129753641Y-110644999D01*
X129446359Y-111404999D02*
X129753641Y-111404999D01*
X143595000Y-101921359D02*
X143595000Y-102228641D01*
X144355000Y-101921359D02*
X144355000Y-102228641D01*
X147753641Y-102370000D02*
X147446359Y-102370000D01*
X147753641Y-103130000D02*
X147446359Y-103130000D01*
X119120000Y-102346359D02*
X119120000Y-102653641D01*
X119880000Y-102346359D02*
X119880000Y-102653641D01*
D12*
X114014998Y-103769999D02*
X114014998Y-115369999D01*
X114014998Y-103769999D02*
X127114998Y-103769999D01*
X114014998Y-115369999D02*
X127114998Y-115369999D01*
X127114998Y-103769999D02*
X127114998Y-115369999D01*
D13*
X117404998Y-103169999D02*
G75*
G02*
X117204998Y-103169999I-100000J0D01*
G01*
X117204998Y-103169999D02*
G75*
G02*
X117404998Y-103169999I100000J0D01*
G01*
D11*
X146971359Y-100645000D02*
X147278641Y-100645000D01*
X146971359Y-101405000D02*
X147278641Y-101405000D01*
X141390369Y-118585592D02*
X141495466Y-118874343D01*
X142104534Y-118325657D02*
X142209631Y-118614408D01*
X145390000Y-97987836D02*
X145390000Y-97772164D01*
X146110000Y-97987836D02*
X146110000Y-97772164D01*
X110688748Y-104090000D02*
X112111252Y-104090000D01*
X110688748Y-105910000D02*
X112111252Y-105910000D01*
X144815000Y-99942164D02*
X144815000Y-100157836D01*
X145535000Y-99942164D02*
X145535000Y-100157836D01*
X141009940Y-105587341D02*
X140792659Y-105370060D01*
X141547341Y-105049940D02*
X141330060Y-104832659D01*
X116200000Y-102800000D02*
G75*
G02*
X115200000Y-102800000I-500000J0D01*
G01*
X115200000Y-102800000D02*
G75*
G02*
X116200000Y-102800000I500000J0D01*
G01*
X125486359Y-99820000D02*
X125793641Y-99820000D01*
X125486359Y-100580000D02*
X125793641Y-100580000D01*
X125520000Y-102346359D02*
X125520000Y-102653641D01*
X126280000Y-102346359D02*
X126280000Y-102653641D01*
X139960000Y-118723641D02*
X139960000Y-118416359D01*
X140720000Y-118723641D02*
X140720000Y-118416359D01*
X148432836Y-123240000D02*
X148217164Y-123240000D01*
X148432836Y-123960000D02*
X148217164Y-123960000D01*
X122350000Y-102400000D02*
G75*
G02*
X121350000Y-102400000I-500000J0D01*
G01*
X121350000Y-102400000D02*
G75*
G02*
X122350000Y-102400000I500000J0D01*
G01*
X150400000Y-132000000D02*
G75*
G02*
X149400000Y-132000000I-500000J0D01*
G01*
X149400000Y-132000000D02*
G75*
G02*
X150400000Y-132000000I500000J0D01*
G01*
X140564940Y-102852341D02*
X140347659Y-102635060D01*
X141102341Y-102314940D02*
X140885060Y-102097659D01*
X134750000Y-107750000D02*
X132350000Y-107750000D01*
X132350000Y-104950000D01*
X134750000Y-104950000D01*
X134750000Y-107750000D01*
X129596359Y-120070000D02*
X129903641Y-120070000D01*
X129596359Y-120830000D02*
X129903641Y-120830000D01*
X152230000Y-97620000D02*
G75*
G02*
X151230000Y-97620000I-500000J0D01*
G01*
X151230000Y-97620000D02*
G75*
G02*
X152230000Y-97620000I500000J0D01*
G01*
X151930000Y-100230000D02*
G75*
G02*
X150930000Y-100230000I-500000J0D01*
G01*
X150930000Y-100230000D02*
G75*
G02*
X151930000Y-100230000I500000J0D01*
G01*
X110588748Y-121490000D02*
X112011252Y-121490000D01*
X110588748Y-123310000D02*
X112011252Y-123310000D01*
X134290000Y-98142164D02*
X134290000Y-98357836D01*
X135010000Y-98142164D02*
X135010000Y-98357836D01*
X120120000Y-102653641D02*
X120120000Y-102346359D01*
X120880000Y-102653641D02*
X120880000Y-102346359D01*
D12*
X153060000Y-100700000D02*
X155940000Y-100700000D01*
X153060000Y-101780000D02*
X153060000Y-100700000D01*
X153060000Y-122220000D02*
X153060000Y-123300000D01*
X153060000Y-123300000D02*
X155940000Y-123300000D01*
X155940000Y-101780000D02*
X155940000Y-100700000D01*
X155940000Y-123300000D02*
X155940000Y-122220000D01*
D13*
X157080000Y-101400000D02*
G75*
G02*
X156880000Y-101400000I-100000J0D01*
G01*
X156880000Y-101400000D02*
G75*
G02*
X157080000Y-101400000I100000J0D01*
G01*
D11*
X129446359Y-112700000D02*
X129753641Y-112700000D01*
X129446359Y-113460000D02*
X129753641Y-113460000D01*
X124500000Y-99400000D02*
G75*
G02*
X123500000Y-99400000I-500000J0D01*
G01*
X123500000Y-99400000D02*
G75*
G02*
X124500000Y-99400000I500000J0D01*
G01*
X129446359Y-107530000D02*
X129753641Y-107530000D01*
X129446359Y-108290000D02*
X129753641Y-108290000D01*
X136240000Y-98357836D02*
X136240000Y-98142164D01*
X136960000Y-98357836D02*
X136960000Y-98142164D01*
X128900000Y-98693641D02*
X128900000Y-98386359D01*
X122820000Y-102346359D02*
X122820000Y-102653641D01*
X123580000Y-102346359D02*
X123580000Y-102653641D01*
X129446359Y-113730000D02*
X129753641Y-113730000D01*
X129446359Y-114490000D02*
X129753641Y-114490000D01*
X114778641Y-99895000D02*
X114471359Y-99895000D01*
X114778641Y-100655000D02*
X114471359Y-100655000D01*
X129446359Y-106520000D02*
X129753641Y-106520000D01*
X129446359Y-107280000D02*
X129753641Y-107280000D01*
X110843641Y-117290000D02*
X110536359Y-117290000D01*
X110843641Y-118050000D02*
X110536359Y-118050000D01*
X136050000Y-105500000D02*
G75*
G02*
X135050000Y-105500000I-500000J0D01*
G01*
X135050000Y-105500000D02*
G75*
G02*
X136050000Y-105500000I500000J0D01*
G01*
X142450000Y-112362164D02*
X142450000Y-112577836D01*
X143170000Y-112362164D02*
X143170000Y-112577836D01*
X119190000Y-98092164D02*
X119190000Y-98307836D01*
X119910000Y-98092164D02*
X119910000Y-98307836D01*
X137240000Y-117542163D02*
X137240000Y-117757835D01*
X137960000Y-117542163D02*
X137960000Y-117757835D01*
X142865000Y-100132836D02*
X142865000Y-99917164D01*
X143585000Y-100132836D02*
X143585000Y-99917164D01*
X124950000Y-102700000D02*
G75*
G02*
X123950000Y-102700000I-500000J0D01*
G01*
X123950000Y-102700000D02*
G75*
G02*
X124950000Y-102700000I500000J0D01*
G01*
X142530000Y-115297836D02*
X142530000Y-115082164D01*
X143250000Y-115297836D02*
X143250000Y-115082164D01*
X144566359Y-104420000D02*
X144873641Y-104420000D01*
X144566359Y-105180000D02*
X144873641Y-105180000D01*
X129596359Y-123920000D02*
X129903641Y-123920000D01*
X129596359Y-124680000D02*
X129903641Y-124680000D01*
X129446359Y-115660000D02*
X129753641Y-115660000D01*
X129446359Y-116420000D02*
X129753641Y-116420000D01*
X135720000Y-107153641D02*
X135720000Y-106846359D01*
X136480000Y-107153641D02*
X136480000Y-106846359D01*
X113645000Y-101596359D02*
X113645000Y-101903641D01*
X114405000Y-101596359D02*
X114405000Y-101903641D01*
X129436359Y-114720000D02*
X129743641Y-114720000D01*
X129436359Y-115480000D02*
X129743641Y-115480000D01*
X129596359Y-121270000D02*
X129903641Y-121270000D01*
X129596359Y-122030000D02*
X129903641Y-122030000D01*
X125225000Y-99325000D02*
X128025000Y-99325000D01*
X128025000Y-96925000D01*
X125225000Y-96925000D01*
X125225000Y-99325000D01*
X138905988Y-111643541D02*
X139071203Y-111504909D01*
X139368795Y-112195093D02*
X139534010Y-112056461D01*
X110588748Y-124090000D02*
X112011252Y-124090000D01*
X110588748Y-125910000D02*
X112011252Y-125910000D01*
X147303641Y-99695000D02*
X146996359Y-99695000D01*
X147303641Y-100455000D02*
X146996359Y-100455000D01*
X147067164Y-98765000D02*
X147282836Y-98765000D01*
X147067164Y-99485000D02*
X147282836Y-99485000D01*
D12*
X125200000Y-130940000D02*
X125200000Y-128060000D01*
X126280000Y-128060000D02*
X125200000Y-128060000D01*
X126280000Y-130940000D02*
X125200000Y-130940000D01*
X146720000Y-130940000D02*
X147800000Y-130940000D01*
X147800000Y-128060000D02*
X146720000Y-128060000D01*
X147800000Y-130940000D02*
X147800000Y-128060000D01*
D13*
X126000000Y-127020000D02*
G75*
G02*
X125800000Y-127020000I-100000J0D01*
G01*
X125800000Y-127020000D02*
G75*
G02*
X126000000Y-127020000I100000J0D01*
G01*
D11*
X145740000Y-103367164D02*
X145740000Y-103582836D01*
X146460000Y-103367164D02*
X146460000Y-103582836D01*
X142540000Y-117492164D02*
X142540000Y-117707836D01*
X143260000Y-117492164D02*
X143260000Y-117707836D01*
%LPC*%
D14*
X111850002Y-94000000D02*
G75*
G02*
X109149998Y-94000000I-1350002J0D01*
G01*
X109149998Y-94000000D02*
G75*
G02*
X111850002Y-94000000I1350002J0D01*
G01*
X155850002Y-94000000D02*
G75*
G02*
X153149998Y-94000000I-1350002J0D01*
G01*
X153149998Y-94000000D02*
G75*
G02*
X155850002Y-94000000I1350002J0D01*
G01*
X111850002Y-130000000D02*
G75*
G02*
X109149998Y-130000000I-1350002J0D01*
G01*
X109149998Y-130000000D02*
G75*
G02*
X111850002Y-130000000I1350002J0D01*
G01*
X155850002Y-130000000D02*
G75*
G02*
X153149998Y-130000000I-1350002J0D01*
G01*
X153149998Y-130000000D02*
G75*
G02*
X155850002Y-130000000I1350002J0D01*
G01*
D15*
X110500000Y-94000000D03*
X154500000Y-94000000D03*
X110500000Y-130000000D03*
X154500000Y-130000000D03*
D16*
X138290000Y-118950000D03*
X139310000Y-118950000D03*
D17*
X131800000Y-106545000D03*
X131800000Y-105905000D03*
D18*
X146323726Y-112333726D03*
X146776274Y-112786274D03*
D19*
X130110000Y-118080000D03*
X129090000Y-118080000D03*
X130110000Y-112060000D03*
X129090000Y-112060000D03*
D20*
X149300000Y-128700000D03*
D21*
X144356274Y-114443726D03*
X143903726Y-114896274D03*
D22*
X136750000Y-117255000D03*
X136750000Y-117895000D03*
D20*
X118210000Y-127020000D03*
D23*
X136104998Y-116400000D03*
X136744998Y-116400000D03*
D24*
X132295000Y-111975000D03*
X133255000Y-111975000D03*
D16*
X109250000Y-109600000D03*
X110270000Y-109600000D03*
D25*
X149962500Y-127012500D03*
X149962500Y-125112500D03*
X151837500Y-126062500D03*
D26*
X130250000Y-97937500D03*
X130750000Y-97937500D03*
X131250000Y-97937500D03*
X131750000Y-97937500D03*
X132250000Y-97937500D03*
X132750000Y-97937500D03*
D27*
X133437500Y-98625000D03*
X133437500Y-99125000D03*
X133437500Y-99625000D03*
X133437500Y-100125000D03*
X133437500Y-100625000D03*
X133437500Y-101125000D03*
D26*
X132750000Y-101812500D03*
X132250000Y-101812500D03*
X131750000Y-101812500D03*
X131250000Y-101812500D03*
X130750000Y-101812500D03*
X130250000Y-101812500D03*
D27*
X129562500Y-101125000D03*
X129562500Y-100625000D03*
X129562500Y-100125000D03*
X129562500Y-99625000D03*
X129562500Y-99125000D03*
X129562500Y-98625000D03*
D28*
X131500000Y-99875000D03*
D29*
X128450000Y-100290000D03*
X128450000Y-101250000D03*
D20*
X120800000Y-128100000D03*
D30*
X121700000Y-99405000D03*
X121700000Y-98445000D03*
D29*
X142650000Y-107795000D03*
X142650000Y-108755000D03*
D31*
X126900000Y-101990000D03*
X126900000Y-103010000D03*
D32*
X140825000Y-114870000D03*
X139855000Y-114870000D03*
D33*
X112775000Y-112800000D03*
X109825000Y-112800000D03*
D34*
X140130000Y-117190000D03*
X139170000Y-117190000D03*
D35*
X144175000Y-100510000D03*
X144175000Y-99540000D03*
D23*
X124054998Y-117199999D03*
X124694998Y-117199999D03*
X144880000Y-116000000D03*
X145520000Y-116000000D03*
D36*
X145920000Y-109600000D03*
X145280000Y-109600000D03*
D37*
X127300000Y-101010000D03*
X127300000Y-99990000D03*
D20*
X118150000Y-102300000D03*
D22*
X140390000Y-120880000D03*
X140390000Y-121520000D03*
D32*
X130455000Y-105530000D03*
X129485000Y-105530000D03*
D24*
X138329998Y-113969999D03*
X139289998Y-113969999D03*
D31*
X118250000Y-92690000D03*
X118250000Y-93710000D03*
D18*
X143648726Y-111248726D03*
X144101274Y-111701274D03*
D17*
X143825000Y-107670000D03*
X143825000Y-107030000D03*
D20*
X123400000Y-96600000D03*
D23*
X126440000Y-124274999D03*
X127080000Y-124274999D03*
D19*
X129635000Y-97000000D03*
X128615000Y-97000000D03*
D36*
X137990000Y-112550000D03*
X137350000Y-112550000D03*
D37*
X118300000Y-100610000D03*
X118300000Y-99590000D03*
D16*
X109240000Y-101875000D03*
X110260000Y-101875000D03*
D33*
X112775000Y-119900000D03*
X109825000Y-119900000D03*
D36*
X139119998Y-116389999D03*
X138479998Y-116389999D03*
D22*
X145600000Y-122980000D03*
X145600000Y-123620000D03*
D23*
X140100000Y-113999999D03*
X140740000Y-113999999D03*
D19*
X118060000Y-96000000D03*
X117040000Y-96000000D03*
D38*
X126700000Y-92960000D03*
X126700000Y-96040000D03*
X127100000Y-92960000D03*
X127100000Y-96040000D03*
X127500000Y-92960000D03*
X127500000Y-96040000D03*
X127900000Y-92960000D03*
X127900000Y-96040000D03*
X128300000Y-92960000D03*
X128300000Y-96040000D03*
X128700000Y-92960000D03*
X128700000Y-96040000D03*
X129100000Y-92960000D03*
X129100000Y-96040000D03*
X129500000Y-92960000D03*
X129500000Y-96040000D03*
X129900000Y-92960000D03*
X129900000Y-96040000D03*
X130300000Y-92960000D03*
X130300000Y-96040000D03*
X130700000Y-92960000D03*
X130700000Y-96040000D03*
X131100000Y-92960000D03*
X131100000Y-96040000D03*
X131500000Y-92960000D03*
X131500000Y-96040000D03*
X131900000Y-92960000D03*
X131900000Y-96040000D03*
X132300000Y-92960000D03*
X132300000Y-96040000D03*
X132700000Y-92960000D03*
X132700000Y-96040000D03*
X133100000Y-92960000D03*
X133100000Y-96040000D03*
X133500000Y-92960000D03*
X133500000Y-96040000D03*
X133900000Y-92960000D03*
X133900000Y-96040000D03*
X134300000Y-92960000D03*
X134300000Y-96040000D03*
X134700000Y-92960000D03*
X134700000Y-96040000D03*
X135100000Y-92960000D03*
X135100000Y-96040000D03*
X135500000Y-92960000D03*
X135500000Y-96040000D03*
X135900000Y-92960000D03*
X135900000Y-96040000D03*
X136300000Y-92960000D03*
X136300000Y-96040000D03*
X136700000Y-92960000D03*
X136700000Y-96040000D03*
X137100000Y-92960000D03*
X137100000Y-96040000D03*
X137500000Y-92960000D03*
X137500000Y-96040000D03*
X137900000Y-92960000D03*
X137900000Y-96040000D03*
X138300000Y-92960000D03*
X138300000Y-96040000D03*
X138700000Y-92960000D03*
X138700000Y-96040000D03*
X139100000Y-92960000D03*
X139100000Y-96040000D03*
X139500000Y-92960000D03*
X139500000Y-96040000D03*
X139900000Y-92960000D03*
X139900000Y-96040000D03*
X140300000Y-92960000D03*
X140300000Y-96040000D03*
X140700000Y-92960000D03*
X140700000Y-96040000D03*
X141100000Y-92960000D03*
X141100000Y-96040000D03*
X141500000Y-92960000D03*
X141500000Y-96040000D03*
X141900000Y-92960000D03*
X141900000Y-96040000D03*
X142300000Y-92960000D03*
X142300000Y-96040000D03*
X142700000Y-92960000D03*
X142700000Y-96040000D03*
X143100000Y-92960000D03*
X143100000Y-96040000D03*
X143500000Y-92960000D03*
X143500000Y-96040000D03*
X143900000Y-92960000D03*
X143900000Y-96040000D03*
X144300000Y-92960000D03*
X144300000Y-96040000D03*
X144700000Y-92960000D03*
X144700000Y-96040000D03*
X145100000Y-92960000D03*
X145100000Y-96040000D03*
X145500000Y-92960000D03*
X145500000Y-96040000D03*
X145900000Y-92960000D03*
X145900000Y-96040000D03*
X146300000Y-92960000D03*
X146300000Y-96040000D03*
D20*
X116300000Y-98450000D03*
D21*
X145036274Y-120163726D03*
X144583726Y-120616274D03*
D19*
X130109998Y-117049999D03*
X129089998Y-117049999D03*
X130110000Y-119110000D03*
X129090000Y-119110000D03*
D31*
X115860000Y-119760000D03*
X115860000Y-120780000D03*
D36*
X133495000Y-108450000D03*
X132855000Y-108450000D03*
D39*
X137850000Y-98840000D03*
X139750000Y-98840000D03*
D23*
X141680000Y-114000000D03*
X142320000Y-114000000D03*
X138480000Y-115600000D03*
X139120000Y-115600000D03*
D19*
X118240000Y-125180000D03*
X117220000Y-125180000D03*
D30*
X142975000Y-102605000D03*
X142975000Y-101645000D03*
D40*
X123910000Y-131390000D03*
X123910000Y-129490000D03*
D19*
X130260000Y-122850000D03*
X129240000Y-122850000D03*
D29*
X143760000Y-97410000D03*
X143760000Y-98370000D03*
D34*
X130930000Y-102920000D03*
X129970000Y-102920000D03*
D23*
X122554998Y-117199999D03*
X123194998Y-117199999D03*
D19*
X121709998Y-122074999D03*
X120689998Y-122074999D03*
D23*
X137679998Y-114799999D03*
X138319998Y-114799999D03*
D41*
X138764999Y-110375002D03*
X139734999Y-110375000D03*
D23*
X116930000Y-96900000D03*
X117570000Y-96900000D03*
D37*
X149320000Y-99020000D03*
X149320000Y-98000000D03*
D34*
X140860000Y-115970000D03*
X139900000Y-115970000D03*
D23*
X140879998Y-113200000D03*
X141519998Y-113200000D03*
X138079999Y-111275000D03*
X138719999Y-111275000D03*
D22*
X137300000Y-122480000D03*
X137300000Y-123120000D03*
D35*
X135650000Y-98735000D03*
X135650000Y-97765000D03*
D19*
X130110000Y-108920000D03*
X129090000Y-108920000D03*
D42*
X142421248Y-104721248D03*
X141700000Y-104000000D03*
D20*
X112720000Y-117300000D03*
D36*
X136370000Y-112000000D03*
X135730000Y-112000000D03*
D19*
X130110000Y-109970000D03*
X129090000Y-109970000D03*
D22*
X139999999Y-112480001D03*
X139999999Y-113120001D03*
D19*
X120150000Y-125190000D03*
X119130000Y-125190000D03*
X150670000Y-102650000D03*
X149650000Y-102650000D03*
D20*
X115400000Y-126200000D03*
D19*
X130110000Y-111024999D03*
X129090000Y-111024999D03*
D37*
X143975000Y-102584999D03*
X143975000Y-101565001D03*
D16*
X147090000Y-102750000D03*
X148110000Y-102750000D03*
D37*
X119500000Y-103010000D03*
X119500000Y-101990000D03*
D43*
X117314998Y-106319999D03*
X117314998Y-106819999D03*
X117314998Y-107319999D03*
X117314998Y-107819999D03*
X117314998Y-108319999D03*
X117314998Y-108819999D03*
X117314998Y-109319999D03*
X117314998Y-109819999D03*
X117314998Y-110319999D03*
X117314998Y-110819999D03*
X117314998Y-111319999D03*
X117314998Y-111819999D03*
X117314998Y-112319999D03*
X117314998Y-112819999D03*
X117814998Y-106319999D03*
X117814998Y-106819999D03*
X117814998Y-107319999D03*
X117814998Y-107819999D03*
X117814998Y-108319999D03*
X117814998Y-108819999D03*
X117814998Y-109319999D03*
X117814998Y-109819999D03*
X117814998Y-110319999D03*
X117814998Y-110819999D03*
X117814998Y-111319999D03*
X117814998Y-111819999D03*
X117814998Y-112319999D03*
X117814998Y-112819999D03*
X118314998Y-106319999D03*
X118314998Y-106819999D03*
X118314998Y-107319999D03*
X118314998Y-107819999D03*
X118314998Y-108319999D03*
X118314998Y-108819999D03*
X118314998Y-109319999D03*
X118314998Y-109819999D03*
X118314998Y-110319999D03*
X118314998Y-110819999D03*
X118314998Y-111319999D03*
X118314998Y-111819999D03*
X118314998Y-112319999D03*
X118314998Y-112819999D03*
X118814998Y-106319999D03*
X118814998Y-106819999D03*
X118814998Y-107319999D03*
X118814998Y-107819999D03*
X118814998Y-111819999D03*
X118814998Y-112319999D03*
X118814998Y-112819999D03*
X119314998Y-106319999D03*
X119314998Y-106819999D03*
X119314998Y-107319999D03*
X119314998Y-108319999D03*
X119314998Y-108819999D03*
X119314998Y-109319999D03*
X119314998Y-109819999D03*
X119314998Y-110319999D03*
X119314998Y-110819999D03*
X119314998Y-111819999D03*
X119314998Y-112319999D03*
X119314998Y-112819999D03*
X119814998Y-106319999D03*
X119814998Y-106819999D03*
X119814998Y-107319999D03*
X119814998Y-108319999D03*
X119814998Y-110819999D03*
X119814998Y-111819999D03*
X119814998Y-112319999D03*
X119814998Y-112819999D03*
X120314998Y-106319999D03*
X120314998Y-106819999D03*
X120314998Y-107319999D03*
X120314998Y-108319999D03*
X120314998Y-110819999D03*
X120314998Y-111819999D03*
X120314998Y-112319999D03*
X120314998Y-112819999D03*
X120814998Y-106319999D03*
X120814998Y-106819999D03*
X120814998Y-107319999D03*
X120814998Y-108319999D03*
X120814998Y-110819999D03*
X120814998Y-111819999D03*
X120814998Y-112319999D03*
X120814998Y-112819999D03*
X121314998Y-106319999D03*
X121314998Y-106819999D03*
X121314998Y-107319999D03*
X121314998Y-108319999D03*
X121314998Y-110819999D03*
X121314998Y-111819999D03*
X121314998Y-112319999D03*
X121314998Y-112819999D03*
X121814998Y-106319999D03*
X121814998Y-106819999D03*
X121814998Y-107319999D03*
X121814998Y-108319999D03*
X121814998Y-108819999D03*
X121814998Y-109319999D03*
X121814998Y-109819999D03*
X121814998Y-110319999D03*
X121814998Y-110819999D03*
X121814998Y-111819999D03*
X121814998Y-112319999D03*
X121814998Y-112819999D03*
X122314998Y-106319999D03*
X122314998Y-106819999D03*
X122314998Y-107319999D03*
X122314998Y-111819999D03*
X122314998Y-112319999D03*
X122314998Y-112819999D03*
X122814998Y-106319999D03*
X122814998Y-106819999D03*
X122814998Y-107319999D03*
X122814998Y-107819999D03*
X122814998Y-108319999D03*
X122814998Y-108819999D03*
X122814998Y-109319999D03*
X122814998Y-109819999D03*
X122814998Y-110319999D03*
X122814998Y-110819999D03*
X122814998Y-111319999D03*
X122814998Y-111819999D03*
X122814998Y-112319999D03*
X122814998Y-112819999D03*
X123314998Y-106319999D03*
X123314998Y-106819999D03*
X123314998Y-107319999D03*
X123314998Y-107819999D03*
X123314998Y-108319999D03*
X123314998Y-108819999D03*
X123314998Y-109319999D03*
X123314998Y-109819999D03*
X123314998Y-110319999D03*
X123314998Y-110819999D03*
X123314998Y-111319999D03*
X123314998Y-111819999D03*
X123314998Y-112319999D03*
X123314998Y-112819999D03*
X123814998Y-106319999D03*
X123814998Y-106819999D03*
X123814998Y-107319999D03*
X123814998Y-107819999D03*
X123814998Y-108319999D03*
X123814998Y-108819999D03*
X123814998Y-109319999D03*
X123814998Y-109819999D03*
X123814998Y-110319999D03*
X123814998Y-110819999D03*
X123814998Y-111319999D03*
X123814998Y-111819999D03*
X123814998Y-112319999D03*
X123814998Y-112819999D03*
D19*
X147635000Y-101025000D03*
X146615000Y-101025000D03*
D44*
X141974430Y-119079243D03*
X141625570Y-118120757D03*
D17*
X120500000Y-98620000D03*
X120500000Y-97980000D03*
D29*
X145750000Y-97400000D03*
X145750000Y-98360000D03*
D33*
X112875000Y-105000000D03*
X109925000Y-105000000D03*
D45*
X143598726Y-119201274D03*
X144051274Y-118748726D03*
X120798724Y-117976273D03*
X121251272Y-117523725D03*
D30*
X145175000Y-100530000D03*
X145175000Y-99570000D03*
D23*
X132510000Y-119960000D03*
X133150000Y-119960000D03*
X133279998Y-117549999D03*
X133919998Y-117549999D03*
D46*
X140809376Y-104849376D03*
X141530624Y-105570624D03*
D17*
X141640000Y-115520000D03*
X141640000Y-114880000D03*
X142000000Y-120720000D03*
X142000000Y-120080000D03*
D20*
X115700000Y-102800000D03*
D19*
X126150000Y-100200000D03*
X125130000Y-100200000D03*
D37*
X125900000Y-103010000D03*
X125900000Y-101990000D03*
D36*
X116710000Y-123599999D03*
X116070000Y-123599999D03*
D31*
X140340000Y-118060000D03*
X140340000Y-119080000D03*
D24*
X147845000Y-123600000D03*
X148805000Y-123600000D03*
D20*
X121850000Y-102400000D03*
X149900000Y-132000000D03*
D17*
X140400000Y-109370000D03*
X140400000Y-108730000D03*
D46*
X140364376Y-102114376D03*
X141085624Y-102835624D03*
D47*
X132950000Y-107250000D03*
X132950000Y-105450000D03*
X134150000Y-105450000D03*
X134150000Y-107250000D03*
D19*
X130260000Y-120450000D03*
X129240000Y-120450000D03*
D23*
X146860000Y-118020000D03*
X147500000Y-118020000D03*
D20*
X151730000Y-97620000D03*
X151430000Y-100230000D03*
D33*
X112775000Y-122400000D03*
X109825000Y-122400000D03*
D30*
X134650000Y-98730000D03*
X134650000Y-97770000D03*
D31*
X120500000Y-101990000D03*
X120500000Y-103010000D03*
D48*
X156040000Y-102200000D03*
X152960000Y-102200000D03*
X156040000Y-102600000D03*
X152960000Y-102600000D03*
X156040000Y-103000000D03*
X152960000Y-103000000D03*
X156040000Y-103400000D03*
X152960000Y-103400000D03*
X156040000Y-103800000D03*
X152960000Y-103800000D03*
X156040000Y-104200000D03*
X152960000Y-104200000D03*
X156040000Y-104600000D03*
X152960000Y-104600000D03*
X156040000Y-105000000D03*
X152960000Y-105000000D03*
X156040000Y-105400000D03*
X152960000Y-105400000D03*
X156040000Y-105800000D03*
X152960000Y-105800000D03*
X156040000Y-106200000D03*
X152960000Y-106200000D03*
X156040000Y-106600000D03*
X152960000Y-106600000D03*
X156040000Y-107000000D03*
X152960000Y-107000000D03*
X156040000Y-107400000D03*
X152960000Y-107400000D03*
X156040000Y-107800000D03*
X152960000Y-107800000D03*
X156040000Y-108200000D03*
X152960000Y-108200000D03*
X156040000Y-108600000D03*
X152960000Y-108600000D03*
X156040000Y-109000000D03*
X152960000Y-109000000D03*
X156040000Y-109400000D03*
X152960000Y-109400000D03*
X156040000Y-109800000D03*
X152960000Y-109800000D03*
X156040000Y-110200000D03*
X152960000Y-110200000D03*
X156040000Y-110600000D03*
X152960000Y-110600000D03*
X156040000Y-111000000D03*
X152960000Y-111000000D03*
X156040000Y-111400000D03*
X152960000Y-111400000D03*
X156040000Y-111800000D03*
X152960000Y-111800000D03*
X156040000Y-112200000D03*
X152960000Y-112200000D03*
X156040000Y-112600000D03*
X152960000Y-112600000D03*
X156040000Y-113000000D03*
X152960000Y-113000000D03*
X156040000Y-113400000D03*
X152960000Y-113400000D03*
X156040000Y-113800000D03*
X152960000Y-113800000D03*
X156040000Y-114200000D03*
X152960000Y-114200000D03*
X156040000Y-114600000D03*
X152960000Y-114600000D03*
X156040000Y-115000000D03*
X152960000Y-115000000D03*
X156040000Y-115400000D03*
X152960000Y-115400000D03*
X156040000Y-115800000D03*
X152960000Y-115800000D03*
X156040000Y-116200000D03*
X152960000Y-116200000D03*
X156040000Y-116600000D03*
X152960000Y-116600000D03*
X156040000Y-117000000D03*
X152960000Y-117000000D03*
X156040000Y-117400000D03*
X152960000Y-117400000D03*
X156040000Y-117800000D03*
X152960000Y-117800000D03*
X156040000Y-118200000D03*
X152960000Y-118200000D03*
X156040000Y-118600000D03*
X152960000Y-118600000D03*
X156040000Y-119000000D03*
X152960000Y-119000000D03*
X156040000Y-119400000D03*
X152960000Y-119400000D03*
X156040000Y-119800000D03*
X152960000Y-119800000D03*
X156040000Y-120200000D03*
X152960000Y-120200000D03*
X156040000Y-120600000D03*
X152960000Y-120600000D03*
X156040000Y-121000000D03*
X152960000Y-121000000D03*
X156040000Y-121400000D03*
X152960000Y-121400000D03*
X156040000Y-121800000D03*
X152960000Y-121800000D03*
D19*
X130110000Y-113080000D03*
X129090000Y-113080000D03*
D23*
X126429998Y-123599999D03*
X127069998Y-123599999D03*
X136880000Y-115600000D03*
X137520000Y-115600000D03*
D22*
X138400000Y-117280000D03*
X138400000Y-117920000D03*
D36*
X127894998Y-117199999D03*
X127254998Y-117199999D03*
X134219998Y-113849999D03*
X133579998Y-113849999D03*
D20*
X124000000Y-99400000D03*
D19*
X130110000Y-107910000D03*
X129090000Y-107910000D03*
D17*
X141600000Y-117120000D03*
X141600000Y-116480000D03*
D29*
X136600000Y-97770000D03*
X136600000Y-98730000D03*
D31*
X128525000Y-98030000D03*
X128525000Y-99050000D03*
D37*
X123200000Y-103010000D03*
X123200000Y-101990000D03*
D19*
X130110000Y-114110000D03*
X129090000Y-114110000D03*
D22*
X137300000Y-110880000D03*
X137300000Y-111520000D03*
D16*
X114115000Y-100275000D03*
X115135000Y-100275000D03*
D19*
X130110000Y-106900000D03*
X129090000Y-106900000D03*
D36*
X126294998Y-117224999D03*
X125654998Y-117224999D03*
D16*
X110180000Y-117670000D03*
X111200000Y-117670000D03*
D20*
X135550000Y-105500000D03*
D30*
X142810000Y-112950000D03*
X142810000Y-111990000D03*
X119550000Y-98680000D03*
X119550000Y-97720000D03*
X137600000Y-118129999D03*
X137600000Y-117169999D03*
D29*
X143225000Y-99545000D03*
X143225000Y-100505000D03*
D17*
X133400000Y-123020000D03*
X133400000Y-122380000D03*
D20*
X124450000Y-102700000D03*
D29*
X142890000Y-114710000D03*
X142890000Y-115670000D03*
D19*
X145230000Y-104800000D03*
X144210000Y-104800000D03*
D23*
X140630000Y-111750000D03*
X141270000Y-111750000D03*
D19*
X130260000Y-124300000D03*
X129240000Y-124300000D03*
X130110000Y-116040000D03*
X129090000Y-116040000D03*
D31*
X136100000Y-106490000D03*
X136100000Y-107510000D03*
D37*
X114025000Y-102260000D03*
X114025000Y-101240000D03*
D19*
X130100000Y-115100000D03*
X129080000Y-115100000D03*
X130260000Y-121650000D03*
X129240000Y-121650000D03*
D22*
X137124999Y-113355001D03*
X137124999Y-113995001D03*
D49*
X125725000Y-97525000D03*
X127525000Y-97525000D03*
X127525000Y-98725000D03*
X125725000Y-98725000D03*
D23*
X147900000Y-122630000D03*
X148540000Y-122630000D03*
D50*
X139587700Y-111541463D03*
X138852298Y-112158539D03*
D51*
X118300000Y-97715000D03*
X118300000Y-98685000D03*
D33*
X112775000Y-125000000D03*
X109825000Y-125000000D03*
D16*
X146640000Y-100075000D03*
X147660000Y-100075000D03*
D34*
X147655000Y-99125000D03*
X146695000Y-99125000D03*
D38*
X126700000Y-127960000D03*
X126700000Y-131040000D03*
X127100000Y-127960000D03*
X127100000Y-131040000D03*
X127500000Y-127960000D03*
X127500000Y-131040000D03*
X127900000Y-127960000D03*
X127900000Y-131040000D03*
X128300000Y-127960000D03*
X128300000Y-131040000D03*
X128700000Y-127960000D03*
X128700000Y-131040000D03*
X129100000Y-127960000D03*
X129100000Y-131040000D03*
X129500000Y-127960000D03*
X129500000Y-131040000D03*
X129900000Y-127960000D03*
X129900000Y-131040000D03*
X130300000Y-127960000D03*
X130300000Y-131040000D03*
X130700000Y-127960000D03*
X130700000Y-131040000D03*
X131100000Y-127960000D03*
X131100000Y-131040000D03*
X131500000Y-127960000D03*
X131500000Y-131040000D03*
X131900000Y-127960000D03*
X131900000Y-131040000D03*
X132300000Y-127960000D03*
X132300000Y-131040000D03*
X132700000Y-127960000D03*
X132700000Y-131040000D03*
X133100000Y-127960000D03*
X133100000Y-131040000D03*
X133500000Y-127960000D03*
X133500000Y-131040000D03*
X133900000Y-127960000D03*
X133900000Y-131040000D03*
X134300000Y-127960000D03*
X134300000Y-131040000D03*
X134700000Y-127960000D03*
X134700000Y-131040000D03*
X135100000Y-127960000D03*
X135100000Y-131040000D03*
X135500000Y-127960000D03*
X135500000Y-131040000D03*
X135900000Y-127960000D03*
X135900000Y-131040000D03*
X136300000Y-127960000D03*
X136300000Y-131040000D03*
X136700000Y-127960000D03*
X136700000Y-131040000D03*
X137100000Y-127960000D03*
X137100000Y-131040000D03*
X137500000Y-127960000D03*
X137500000Y-131040000D03*
X137900000Y-127960000D03*
X137900000Y-131040000D03*
X138300000Y-127960000D03*
X138300000Y-131040000D03*
X138700000Y-127960000D03*
X138700000Y-131040000D03*
X139100000Y-127960000D03*
X139100000Y-131040000D03*
X139500000Y-127960000D03*
X139500000Y-131040000D03*
X139900000Y-127960000D03*
X139900000Y-131040000D03*
X140300000Y-127960000D03*
X140300000Y-131040000D03*
X140700000Y-127960000D03*
X140700000Y-131040000D03*
X141100000Y-127960000D03*
X141100000Y-131040000D03*
X141500000Y-127960000D03*
X141500000Y-131040000D03*
X141900000Y-127960000D03*
X141900000Y-131040000D03*
X142300000Y-127960000D03*
X142300000Y-131040000D03*
X142700000Y-127960000D03*
X142700000Y-131040000D03*
X143100000Y-127960000D03*
X143100000Y-131040000D03*
X143500000Y-127960000D03*
X143500000Y-131040000D03*
X143900000Y-127960000D03*
X143900000Y-131040000D03*
X144300000Y-127960000D03*
X144300000Y-131040000D03*
X144700000Y-127960000D03*
X144700000Y-131040000D03*
X145100000Y-127960000D03*
X145100000Y-131040000D03*
X145500000Y-127960000D03*
X145500000Y-131040000D03*
X145900000Y-127960000D03*
X145900000Y-131040000D03*
X146300000Y-127960000D03*
X146300000Y-131040000D03*
D23*
X122479998Y-123599999D03*
X123119998Y-123599999D03*
D36*
X124719998Y-123599999D03*
X124079998Y-123599999D03*
D18*
X137473726Y-120273726D03*
X137926274Y-120726274D03*
D30*
X146100000Y-103955000D03*
X146100000Y-102995000D03*
X142900000Y-118080000D03*
X142900000Y-117120000D03*
%LPD*%
M02*
