%TF.GenerationSoftware,KiCad,Pcbnew,9.0.0-9.0.0-2~ubuntu24.10.1*%
%TF.CreationDate,2025-04-01T16:44:13+02:00*%
%TF.ProjectId,Zynq_SoM,5a796e71-5f53-46f4-9d2e-6b696361645f,1.0*%
%TF.SameCoordinates,Original*%
%TF.FileFunction,Drillmap*%
%TF.FilePolarity,Positive*%
%FSLAX45Y45*%
G04 Gerber Fmt 4.5, Leading zero omitted, Abs format (unit mm)*
G04 Created by KiCad (PCBNEW 9.0.0-9.0.0-2~ubuntu24.10.1) date 2025-04-01 16:44:13*
%MOMM*%
%LPD*%
G01*
G04 APERTURE LIST*
%ADD10C,0.100000*%
%ADD11C,0.200000*%
G04 APERTURE END LIST*
D10*
X15750000Y-13000000D02*
G75*
G02*
X15450000Y-13300000I-300000J0D01*
G01*
X10750000Y-9400000D02*
G75*
G02*
X11050000Y-9100000I300000J0D01*
G01*
X11050000Y-9100000D02*
X15450000Y-9100000D01*
X11050000Y-13300000D02*
G75*
G02*
X10750000Y-13000000I0J300000D01*
G01*
X15750000Y-13000000D02*
X15750000Y-9400000D01*
X10750000Y-13000000D02*
X10750000Y-9400000D01*
X11050000Y-13300000D02*
X15450000Y-13300000D01*
X15450000Y-9100000D02*
G75*
G02*
X15750000Y-9400000I0J-300000D01*
G01*
D11*
D10*
X11514000Y-11598000D02*
X11534000Y-11618000D01*
X11534000Y-11598000D02*
X11514000Y-11618000D01*
X11519000Y-11515000D02*
X11539000Y-11535000D01*
X11539000Y-11515000D02*
X11519000Y-11535000D01*
X11535000Y-11389000D02*
X11555000Y-11409000D01*
X11555000Y-11389000D02*
X11535000Y-11409000D01*
X11589000Y-11710000D02*
X11609000Y-11730000D01*
X11609000Y-11710000D02*
X11589000Y-11730000D01*
X11589000Y-11790000D02*
X11609000Y-11810000D01*
X11609000Y-11790000D02*
X11589000Y-11810000D01*
X11589000Y-11870000D02*
X11609000Y-11890000D01*
X11609000Y-11870000D02*
X11589000Y-11890000D01*
X11589000Y-12190000D02*
X11609000Y-12210000D01*
X11609000Y-12190000D02*
X11589000Y-12210000D01*
X11589000Y-12270000D02*
X11609000Y-12290000D01*
X11609000Y-12270000D02*
X11589000Y-12290000D01*
X11589000Y-12350000D02*
X11609000Y-12370000D01*
X11609000Y-12350000D02*
X11589000Y-12370000D01*
X11596000Y-10887000D02*
X11616000Y-10907000D01*
X11616000Y-10887000D02*
X11596000Y-10907000D01*
X11627000Y-11448000D02*
X11647000Y-11468000D01*
X11647000Y-11448000D02*
X11627000Y-11468000D01*
X11634000Y-11522500D02*
X11654000Y-11542500D01*
X11654000Y-11522500D02*
X11634000Y-11542500D01*
X11669000Y-11710000D02*
X11689000Y-11730000D01*
X11689000Y-11710000D02*
X11669000Y-11730000D01*
X11669000Y-11790000D02*
X11689000Y-11810000D01*
X11689000Y-11790000D02*
X11669000Y-11810000D01*
X11669000Y-11870000D02*
X11689000Y-11890000D01*
X11689000Y-11870000D02*
X11669000Y-11890000D01*
X11669000Y-12190000D02*
X11689000Y-12210000D01*
X11689000Y-12190000D02*
X11669000Y-12210000D01*
X11669000Y-12270000D02*
X11689000Y-12290000D01*
X11689000Y-12270000D02*
X11669000Y-12290000D01*
X11669000Y-12350000D02*
X11689000Y-12370000D01*
X11689000Y-12350000D02*
X11669000Y-12370000D01*
X11672000Y-10906000D02*
X11692000Y-10926000D01*
X11692000Y-10906000D02*
X11672000Y-10926000D01*
X11680000Y-10825000D02*
X11700000Y-10845000D01*
X11700000Y-10825000D02*
X11680000Y-10845000D01*
X11683000Y-10583000D02*
X11703000Y-10603000D01*
X11703000Y-10583000D02*
X11683000Y-10603000D01*
X11749000Y-11710000D02*
X11769000Y-11730000D01*
X11769000Y-11710000D02*
X11749000Y-11730000D01*
X11749000Y-11790000D02*
X11769000Y-11810000D01*
X11769000Y-11790000D02*
X11749000Y-11810000D01*
X11749000Y-11870000D02*
X11769000Y-11890000D01*
X11769000Y-11870000D02*
X11749000Y-11890000D01*
X11749000Y-12190000D02*
X11769000Y-12210000D01*
X11769000Y-12190000D02*
X11749000Y-12210000D01*
X11749000Y-12270000D02*
X11769000Y-12290000D01*
X11769000Y-12270000D02*
X11749000Y-12290000D01*
X11749000Y-12350000D02*
X11769000Y-12370000D01*
X11769000Y-12350000D02*
X11749000Y-12370000D01*
X11771500Y-10672000D02*
X11791500Y-10692000D01*
X11791500Y-10672000D02*
X11771500Y-10692000D01*
X11791000Y-11378000D02*
X11811000Y-11398000D01*
X11811000Y-11378000D02*
X11791000Y-11398000D01*
X11792354Y-10579100D02*
X11812354Y-10599100D01*
X11812354Y-10579100D02*
X11792354Y-10599100D01*
X11821000Y-10772000D02*
X11841000Y-10792000D01*
X11841000Y-10772000D02*
X11821000Y-10792000D01*
X11821000Y-10872000D02*
X11841000Y-10892000D01*
X11841000Y-10872000D02*
X11821000Y-10892000D01*
X11829000Y-11710000D02*
X11849000Y-11730000D01*
X11849000Y-11710000D02*
X11829000Y-11730000D01*
X11829000Y-11790000D02*
X11849000Y-11810000D01*
X11849000Y-11790000D02*
X11829000Y-11810000D01*
X11829000Y-11870000D02*
X11849000Y-11890000D01*
X11849000Y-11870000D02*
X11829000Y-11890000D01*
X11829000Y-12190000D02*
X11849000Y-12210000D01*
X11849000Y-12190000D02*
X11829000Y-12210000D01*
X11829000Y-12270000D02*
X11849000Y-12290000D01*
X11849000Y-12270000D02*
X11829000Y-12290000D01*
X11829000Y-12350000D02*
X11849000Y-12370000D01*
X11849000Y-12350000D02*
X11829000Y-12370000D01*
X11830000Y-11470000D02*
X11850000Y-11490000D01*
X11850000Y-11470000D02*
X11830000Y-11490000D01*
X11874000Y-10820000D02*
X11894000Y-10840000D01*
X11894000Y-10820000D02*
X11874000Y-10840000D01*
X11909000Y-11710000D02*
X11929000Y-11730000D01*
X11929000Y-11710000D02*
X11909000Y-11730000D01*
X11909000Y-11790000D02*
X11929000Y-11810000D01*
X11929000Y-11790000D02*
X11909000Y-11810000D01*
X11909000Y-11870000D02*
X11929000Y-11890000D01*
X11929000Y-11870000D02*
X11909000Y-11890000D01*
X11909000Y-12270000D02*
X11929000Y-12290000D01*
X11929000Y-12270000D02*
X11909000Y-12290000D01*
X11909000Y-12350000D02*
X11929000Y-12370000D01*
X11929000Y-12350000D02*
X11909000Y-12370000D01*
X11922500Y-11497500D02*
X11942500Y-11517500D01*
X11942500Y-11497500D02*
X11922500Y-11517500D01*
X11971000Y-10778000D02*
X11991000Y-10798000D01*
X11991000Y-10778000D02*
X11971000Y-10798000D01*
X11980000Y-10876000D02*
X12000000Y-10896000D01*
X12000000Y-10876000D02*
X11980000Y-10896000D01*
X11989000Y-11790000D02*
X12009000Y-11810000D01*
X12009000Y-11790000D02*
X11989000Y-11810000D01*
X11989000Y-11870000D02*
X12009000Y-11890000D01*
X12009000Y-11870000D02*
X11989000Y-11890000D01*
X11989000Y-12190000D02*
X12009000Y-12210000D01*
X12009000Y-12190000D02*
X11989000Y-12210000D01*
X11989000Y-11425000D02*
X12009000Y-11445000D01*
X12009000Y-11425000D02*
X11989000Y-11445000D01*
X11990000Y-11654000D02*
X12010000Y-11674000D01*
X12010000Y-11654000D02*
X11990000Y-11674000D01*
X12044000Y-10777000D02*
X12064000Y-10797000D01*
X12064000Y-10777000D02*
X12044000Y-10797000D01*
X12044000Y-11002000D02*
X12064000Y-11022000D01*
X12064000Y-11002000D02*
X12044000Y-11022000D01*
X12069000Y-11710000D02*
X12089000Y-11730000D01*
X12089000Y-11710000D02*
X12069000Y-11730000D01*
X12069000Y-11790000D02*
X12089000Y-11810000D01*
X12089000Y-11790000D02*
X12069000Y-11810000D01*
X12069000Y-11870000D02*
X12089000Y-11890000D01*
X12089000Y-11870000D02*
X12069000Y-11890000D01*
X12069000Y-12190000D02*
X12089000Y-12210000D01*
X12089000Y-12190000D02*
X12069000Y-12210000D01*
X12069000Y-12270000D02*
X12089000Y-12290000D01*
X12089000Y-12270000D02*
X12069000Y-12290000D01*
X12069000Y-12350000D02*
X12089000Y-12370000D01*
X12089000Y-12350000D02*
X12069000Y-12370000D01*
X12070000Y-11454000D02*
X12090000Y-11474000D01*
X12090000Y-11454000D02*
X12070000Y-11474000D01*
X12135000Y-11032000D02*
X12155000Y-11052000D01*
X12155000Y-11032000D02*
X12135000Y-11052000D01*
X12149000Y-11790000D02*
X12169000Y-11810000D01*
X12169000Y-11790000D02*
X12149000Y-11810000D01*
X12149000Y-11870000D02*
X12169000Y-11890000D01*
X12169000Y-11870000D02*
X12149000Y-11890000D01*
X12149000Y-12190000D02*
X12169000Y-12210000D01*
X12169000Y-12190000D02*
X12149000Y-12210000D01*
X12149000Y-12270000D02*
X12169000Y-12290000D01*
X12169000Y-12270000D02*
X12149000Y-12290000D01*
X12150000Y-10771000D02*
X12170000Y-10791000D01*
X12170000Y-10771000D02*
X12150000Y-10791000D01*
X12189000Y-11663000D02*
X12209000Y-11683000D01*
X12209000Y-11663000D02*
X12189000Y-11683000D01*
X12220000Y-10844000D02*
X12240000Y-10864000D01*
X12240000Y-10844000D02*
X12220000Y-10864000D01*
X12221000Y-10921000D02*
X12241000Y-10941000D01*
X12241000Y-10921000D02*
X12221000Y-10941000D01*
X12221000Y-11033000D02*
X12241000Y-11053000D01*
X12241000Y-11033000D02*
X12221000Y-11053000D01*
X12229000Y-11790000D02*
X12249000Y-11810000D01*
X12249000Y-11790000D02*
X12229000Y-11810000D01*
X12229000Y-12350000D02*
X12249000Y-12370000D01*
X12249000Y-12350000D02*
X12229000Y-12370000D01*
X12309000Y-11710000D02*
X12329000Y-11730000D01*
X12329000Y-11710000D02*
X12309000Y-11730000D01*
X12309000Y-12190000D02*
X12329000Y-12210000D01*
X12329000Y-12190000D02*
X12309000Y-12210000D01*
X12309000Y-12270000D02*
X12329000Y-12290000D01*
X12329000Y-12270000D02*
X12309000Y-12290000D01*
X12309000Y-12350000D02*
X12329000Y-12370000D01*
X12329000Y-12350000D02*
X12309000Y-12370000D01*
X12321000Y-10772000D02*
X12341000Y-10792000D01*
X12341000Y-10772000D02*
X12321000Y-10792000D01*
X12321000Y-10871000D02*
X12341000Y-10891000D01*
X12341000Y-10871000D02*
X12321000Y-10891000D01*
X12389000Y-11710000D02*
X12409000Y-11730000D01*
X12409000Y-11710000D02*
X12389000Y-11730000D01*
X12389000Y-12350000D02*
X12409000Y-12370000D01*
X12409000Y-12350000D02*
X12389000Y-12370000D01*
X12410000Y-10771000D02*
X12430000Y-10791000D01*
X12430000Y-10771000D02*
X12410000Y-10791000D01*
X12435000Y-10867500D02*
X12455000Y-10887500D01*
X12455000Y-10867500D02*
X12435000Y-10887500D01*
X12469000Y-11710000D02*
X12489000Y-11730000D01*
X12489000Y-11710000D02*
X12469000Y-11730000D01*
X12469000Y-11790000D02*
X12489000Y-11810000D01*
X12489000Y-11790000D02*
X12469000Y-11810000D01*
X12469000Y-12270000D02*
X12489000Y-12290000D01*
X12489000Y-12270000D02*
X12469000Y-12290000D01*
X12469000Y-12350000D02*
X12489000Y-12370000D01*
X12489000Y-12350000D02*
X12469000Y-12370000D01*
X12469000Y-11542000D02*
X12489000Y-11562000D01*
X12489000Y-11542000D02*
X12469000Y-11562000D01*
X12492000Y-11468000D02*
X12512000Y-11488000D01*
X12512000Y-11468000D02*
X12492000Y-11488000D01*
X12523000Y-10805000D02*
X12543000Y-10825000D01*
X12543000Y-10805000D02*
X12523000Y-10825000D01*
X12549000Y-11710000D02*
X12569000Y-11730000D01*
X12569000Y-11710000D02*
X12549000Y-11730000D01*
X12549000Y-11790000D02*
X12569000Y-11810000D01*
X12569000Y-11790000D02*
X12549000Y-11810000D01*
X12549000Y-11870000D02*
X12569000Y-11890000D01*
X12569000Y-11870000D02*
X12549000Y-11890000D01*
X12549000Y-12190000D02*
X12569000Y-12210000D01*
X12569000Y-12190000D02*
X12549000Y-12210000D01*
X12549000Y-12270000D02*
X12569000Y-12290000D01*
X12569000Y-12270000D02*
X12549000Y-12290000D01*
X12549000Y-12350000D02*
X12569000Y-12370000D01*
X12569000Y-12350000D02*
X12549000Y-12370000D01*
X12629000Y-11710000D02*
X12649000Y-11730000D01*
X12649000Y-11710000D02*
X12629000Y-11730000D01*
X12629000Y-11790000D02*
X12649000Y-11810000D01*
X12649000Y-11790000D02*
X12629000Y-11810000D01*
X12629000Y-11870000D02*
X12649000Y-11890000D01*
X12649000Y-11870000D02*
X12629000Y-11890000D01*
X12629000Y-12190000D02*
X12649000Y-12210000D01*
X12649000Y-12190000D02*
X12629000Y-12210000D01*
X12629000Y-12270000D02*
X12649000Y-12290000D01*
X12649000Y-12270000D02*
X12629000Y-12290000D01*
X12629000Y-12350000D02*
X12649000Y-12370000D01*
X12649000Y-12350000D02*
X12629000Y-12370000D01*
X12656000Y-10779000D02*
X12676000Y-10799000D01*
X12676000Y-10779000D02*
X12656000Y-10799000D01*
X12686000Y-11333000D02*
X12706000Y-11353000D01*
X12706000Y-11333000D02*
X12686000Y-11353000D01*
X12709000Y-11710000D02*
X12729000Y-11730000D01*
X12729000Y-11710000D02*
X12709000Y-11730000D01*
X12709000Y-11790000D02*
X12729000Y-11810000D01*
X12729000Y-11790000D02*
X12709000Y-11810000D01*
X12709000Y-11870000D02*
X12729000Y-11890000D01*
X12729000Y-11870000D02*
X12709000Y-11890000D01*
X12709000Y-12190000D02*
X12729000Y-12210000D01*
X12729000Y-12190000D02*
X12709000Y-12210000D01*
X12709000Y-12270000D02*
X12729000Y-12290000D01*
X12729000Y-12270000D02*
X12709000Y-12290000D01*
X12709000Y-12350000D02*
X12729000Y-12370000D01*
X12729000Y-12350000D02*
X12709000Y-12370000D01*
X12717500Y-11202500D02*
X12737500Y-11222500D01*
X12737500Y-11202500D02*
X12717500Y-11222500D01*
X12720000Y-11020000D02*
X12740000Y-11040000D01*
X12740000Y-11020000D02*
X12720000Y-11040000D01*
X12723000Y-11117500D02*
X12743000Y-11137500D01*
X12743000Y-11117500D02*
X12723000Y-11137500D01*
X12740000Y-12785000D02*
X12760000Y-12805000D01*
X12760000Y-12785000D02*
X12740000Y-12805000D01*
X12740000Y-13094000D02*
X12760000Y-13114000D01*
X12760000Y-13094000D02*
X12740000Y-13114000D01*
X12741000Y-10918000D02*
X12761000Y-10938000D01*
X12761000Y-10918000D02*
X12741000Y-10938000D01*
X12780000Y-11270000D02*
X12800000Y-11290000D01*
X12800000Y-11270000D02*
X12780000Y-11290000D01*
X12789000Y-11710000D02*
X12809000Y-11730000D01*
X12809000Y-11710000D02*
X12789000Y-11730000D01*
X12789000Y-11790000D02*
X12809000Y-11810000D01*
X12809000Y-11790000D02*
X12789000Y-11810000D01*
X12789000Y-11870000D02*
X12809000Y-11890000D01*
X12809000Y-11870000D02*
X12789000Y-11890000D01*
X12789000Y-12190000D02*
X12809000Y-12210000D01*
X12809000Y-12190000D02*
X12789000Y-12210000D01*
X12789000Y-12270000D02*
X12809000Y-12290000D01*
X12809000Y-12270000D02*
X12789000Y-12290000D01*
X12789000Y-12350000D02*
X12809000Y-12370000D01*
X12809000Y-12350000D02*
X12789000Y-12370000D01*
X12811000Y-11333000D02*
X12831000Y-11353000D01*
X12831000Y-11333000D02*
X12811000Y-11353000D01*
X12820000Y-11077500D02*
X12840000Y-11097500D01*
X12840000Y-11077500D02*
X12820000Y-11097500D01*
X12820000Y-10789000D02*
X12840000Y-10809000D01*
X12840000Y-10789000D02*
X12820000Y-10809000D01*
X12827000Y-10925000D02*
X12847000Y-10945000D01*
X12847000Y-10925000D02*
X12827000Y-10945000D01*
X12940000Y-12786000D02*
X12960000Y-12806000D01*
X12960000Y-12786000D02*
X12940000Y-12806000D01*
X12940000Y-13094000D02*
X12960000Y-13114000D01*
X12960000Y-13094000D02*
X12940000Y-13114000D01*
X12962500Y-10052500D02*
X12982500Y-10072500D01*
X12982500Y-10052500D02*
X12962500Y-10072500D01*
X13006000Y-9365000D02*
X13026000Y-9385000D01*
X13026000Y-9365000D02*
X13006000Y-9385000D01*
X13025000Y-10460000D02*
X13045000Y-10480000D01*
X13045000Y-10460000D02*
X13025000Y-10480000D01*
X13055000Y-12700000D02*
X13075000Y-12720000D01*
X13075000Y-12700000D02*
X13055000Y-12720000D01*
X13070000Y-10082500D02*
X13090000Y-10102500D01*
X13090000Y-10082500D02*
X13070000Y-10102500D01*
X13076000Y-9365000D02*
X13096000Y-9385000D01*
X13096000Y-9365000D02*
X13076000Y-9385000D01*
X13078750Y-11673750D02*
X13098750Y-11693750D01*
X13098750Y-11673750D02*
X13078750Y-11693750D01*
X13092500Y-12885000D02*
X13112500Y-12905000D01*
X13112500Y-12885000D02*
X13092500Y-12905000D01*
X13100000Y-9286000D02*
X13120000Y-9306000D01*
X13120000Y-9286000D02*
X13100000Y-9306000D01*
X13115000Y-10171250D02*
X13135000Y-10191250D01*
X13135000Y-10171250D02*
X13115000Y-10191250D01*
X13117500Y-10440000D02*
X13137500Y-10460000D01*
X13137500Y-10440000D02*
X13117500Y-10460000D01*
X13137500Y-12700000D02*
X13157500Y-12720000D01*
X13157500Y-12700000D02*
X13137500Y-12720000D01*
X13140000Y-10710000D02*
X13160000Y-10730000D01*
X13160000Y-10710000D02*
X13140000Y-10730000D01*
X13140000Y-12786000D02*
X13160000Y-12806000D01*
X13160000Y-12786000D02*
X13140000Y-12806000D01*
X13140000Y-13094000D02*
X13160000Y-13114000D01*
X13160000Y-13094000D02*
X13140000Y-13114000D01*
X13147500Y-11792500D02*
X13167500Y-11812500D01*
X13167500Y-11792500D02*
X13147500Y-11812500D01*
X13147500Y-13180000D02*
X13167500Y-13200000D01*
X13167500Y-13180000D02*
X13147500Y-13200000D01*
X13150000Y-11590000D02*
X13170000Y-11610000D01*
X13170000Y-11590000D02*
X13150000Y-11610000D01*
X13150000Y-11670000D02*
X13170000Y-11690000D01*
X13170000Y-11670000D02*
X13150000Y-11690000D01*
X13150000Y-11870000D02*
X13170000Y-11890000D01*
X13170000Y-11870000D02*
X13150000Y-11890000D01*
X13161000Y-13000000D02*
X13181000Y-13020000D01*
X13181000Y-13000000D02*
X13161000Y-13020000D01*
X13180000Y-9594000D02*
X13200000Y-9614000D01*
X13200000Y-9594000D02*
X13180000Y-9614000D01*
X13190000Y-11230000D02*
X13210000Y-11250000D01*
X13210000Y-11230000D02*
X13190000Y-11250000D01*
X13190000Y-12030000D02*
X13210000Y-12050000D01*
X13210000Y-12030000D02*
X13190000Y-12050000D01*
X13227991Y-13180000D02*
X13247991Y-13200000D01*
X13247991Y-13180000D02*
X13227991Y-13200000D01*
X13230000Y-10790000D02*
X13250000Y-10810000D01*
X13250000Y-10790000D02*
X13230000Y-10810000D01*
X13230000Y-11670000D02*
X13250000Y-11690000D01*
X13250000Y-11670000D02*
X13230000Y-11690000D01*
X13230000Y-11830000D02*
X13250000Y-11850000D01*
X13250000Y-11830000D02*
X13230000Y-11850000D01*
X13230000Y-11590000D02*
X13250000Y-11610000D01*
X13250000Y-11590000D02*
X13230000Y-11610000D01*
X13230000Y-11750000D02*
X13250000Y-11770000D01*
X13250000Y-11750000D02*
X13230000Y-11770000D01*
X13231000Y-13000000D02*
X13251000Y-13020000D01*
X13251000Y-13000000D02*
X13231000Y-13020000D01*
X13247500Y-9905000D02*
X13267500Y-9925000D01*
X13267500Y-9905000D02*
X13247500Y-9925000D01*
X13247500Y-10052500D02*
X13267500Y-10072500D01*
X13267500Y-10052500D02*
X13247500Y-10072500D01*
X13270000Y-10990000D02*
X13290000Y-11010000D01*
X13290000Y-10990000D02*
X13270000Y-11010000D01*
X13270000Y-11390000D02*
X13290000Y-11410000D01*
X13290000Y-11390000D02*
X13270000Y-11410000D01*
X13270000Y-12190000D02*
X13290000Y-12210000D01*
X13290000Y-12190000D02*
X13270000Y-12210000D01*
X13270000Y-12350000D02*
X13290000Y-12370000D01*
X13290000Y-12350000D02*
X13270000Y-12370000D01*
X13295000Y-9687500D02*
X13315000Y-9707500D01*
X13315000Y-9687500D02*
X13295000Y-9707500D01*
X13300000Y-9594000D02*
X13320000Y-9614000D01*
X13320000Y-9594000D02*
X13300000Y-9614000D01*
X13303000Y-13179000D02*
X13323000Y-13199000D01*
X13323000Y-13179000D02*
X13303000Y-13199000D01*
X13310000Y-10790000D02*
X13330000Y-10810000D01*
X13330000Y-10790000D02*
X13310000Y-10810000D01*
X13310000Y-11590000D02*
X13330000Y-11610000D01*
X13330000Y-11590000D02*
X13310000Y-11610000D01*
X13310000Y-11670000D02*
X13330000Y-11690000D01*
X13330000Y-11670000D02*
X13310000Y-11690000D01*
X13310000Y-11750000D02*
X13330000Y-11770000D01*
X13330000Y-11750000D02*
X13310000Y-11770000D01*
X13310000Y-11830000D02*
X13330000Y-11850000D01*
X13330000Y-11830000D02*
X13310000Y-11850000D01*
X13310000Y-11990000D02*
X13330000Y-12010000D01*
X13330000Y-11990000D02*
X13310000Y-12010000D01*
X13310000Y-11910000D02*
X13330000Y-11930000D01*
X13330000Y-11910000D02*
X13310000Y-11930000D01*
X13310000Y-12070000D02*
X13330000Y-12090000D01*
X13330000Y-12070000D02*
X13310000Y-12090000D01*
X13330000Y-9902500D02*
X13350000Y-9922500D01*
X13350000Y-9902500D02*
X13330000Y-9922500D01*
X13332000Y-10133000D02*
X13352000Y-10153000D01*
X13352000Y-10133000D02*
X13332000Y-10153000D01*
X13333750Y-10052500D02*
X13353750Y-10072500D01*
X13353750Y-10052500D02*
X13333750Y-10072500D01*
X13340000Y-12786000D02*
X13360000Y-12806000D01*
X13360000Y-12786000D02*
X13340000Y-12806000D01*
X13340000Y-13094000D02*
X13360000Y-13114000D01*
X13360000Y-13094000D02*
X13340000Y-13114000D01*
X13350000Y-11070000D02*
X13370000Y-11090000D01*
X13370000Y-11070000D02*
X13350000Y-11090000D01*
X13350000Y-11150000D02*
X13370000Y-11170000D01*
X13370000Y-11150000D02*
X13350000Y-11170000D01*
X13350000Y-11310000D02*
X13370000Y-11330000D01*
X13370000Y-11310000D02*
X13350000Y-11330000D01*
X13350000Y-12350000D02*
X13370000Y-12370000D01*
X13370000Y-12350000D02*
X13350000Y-12370000D01*
X13367500Y-12870000D02*
X13387500Y-12890000D01*
X13387500Y-12870000D02*
X13367500Y-12890000D01*
X13367500Y-13007500D02*
X13387500Y-13027500D01*
X13387500Y-13007500D02*
X13367500Y-13027500D01*
X13390000Y-10792500D02*
X13410000Y-10812500D01*
X13410000Y-10792500D02*
X13390000Y-10812500D01*
X13390000Y-11590000D02*
X13410000Y-11610000D01*
X13410000Y-11590000D02*
X13390000Y-11610000D01*
X13390000Y-11750000D02*
X13410000Y-11770000D01*
X13410000Y-11750000D02*
X13390000Y-11770000D01*
X13390000Y-12150000D02*
X13410000Y-12170000D01*
X13410000Y-12150000D02*
X13390000Y-12170000D01*
X13390000Y-10870000D02*
X13410000Y-10890000D01*
X13410000Y-10870000D02*
X13390000Y-10890000D01*
X13390000Y-11670000D02*
X13410000Y-11690000D01*
X13410000Y-11670000D02*
X13390000Y-11690000D01*
X13390000Y-11830000D02*
X13410000Y-11850000D01*
X13410000Y-11830000D02*
X13390000Y-11850000D01*
X13390000Y-12230000D02*
X13410000Y-12250000D01*
X13410000Y-12230000D02*
X13390000Y-12250000D01*
X13392500Y-9687500D02*
X13412500Y-9707500D01*
X13412500Y-9687500D02*
X13392500Y-9707500D01*
X13400000Y-9515000D02*
X13420000Y-9535000D01*
X13420000Y-9515000D02*
X13400000Y-9535000D01*
X13405000Y-13185000D02*
X13425000Y-13205000D01*
X13425000Y-13185000D02*
X13405000Y-13205000D01*
X13418200Y-9201800D02*
X13438200Y-9221800D01*
X13438200Y-9201800D02*
X13418200Y-9221800D01*
X13420000Y-9286000D02*
X13440000Y-9306000D01*
X13440000Y-9286000D02*
X13420000Y-9306000D01*
X13430000Y-11310000D02*
X13450000Y-11330000D01*
X13450000Y-11310000D02*
X13430000Y-11330000D01*
X13430000Y-11230000D02*
X13450000Y-11250000D01*
X13450000Y-11230000D02*
X13430000Y-11250000D01*
X13449000Y-9440000D02*
X13469000Y-9460000D01*
X13469000Y-9440000D02*
X13449000Y-9460000D01*
X13470000Y-10870000D02*
X13490000Y-10890000D01*
X13490000Y-10870000D02*
X13470000Y-10890000D01*
X13470000Y-10950000D02*
X13490000Y-10970000D01*
X13490000Y-10950000D02*
X13470000Y-10970000D01*
X13470000Y-11110000D02*
X13490000Y-11130000D01*
X13490000Y-11110000D02*
X13470000Y-11130000D01*
X13470000Y-11430000D02*
X13490000Y-11450000D01*
X13490000Y-11430000D02*
X13470000Y-11450000D01*
X13470000Y-11510000D02*
X13490000Y-11530000D01*
X13490000Y-11510000D02*
X13470000Y-11530000D01*
X13470000Y-11590000D02*
X13490000Y-11610000D01*
X13490000Y-11590000D02*
X13470000Y-11610000D01*
X13470000Y-11670000D02*
X13490000Y-11690000D01*
X13490000Y-11670000D02*
X13470000Y-11690000D01*
X13470000Y-11750000D02*
X13490000Y-11770000D01*
X13490000Y-11750000D02*
X13470000Y-11770000D01*
X13470000Y-11830000D02*
X13490000Y-11850000D01*
X13490000Y-11830000D02*
X13470000Y-11850000D01*
X13470000Y-12070000D02*
X13490000Y-12090000D01*
X13490000Y-12070000D02*
X13470000Y-12090000D01*
X13470000Y-12150000D02*
X13490000Y-12170000D01*
X13490000Y-12150000D02*
X13470000Y-12170000D01*
X13470000Y-10790000D02*
X13490000Y-10810000D01*
X13490000Y-10790000D02*
X13470000Y-10810000D01*
X13470000Y-11030000D02*
X13490000Y-11050000D01*
X13490000Y-11030000D02*
X13470000Y-11050000D01*
X13470000Y-11910000D02*
X13490000Y-11930000D01*
X13490000Y-11910000D02*
X13470000Y-11930000D01*
X13470000Y-12230000D02*
X13490000Y-12250000D01*
X13490000Y-12230000D02*
X13470000Y-12250000D01*
X13470000Y-12310000D02*
X13490000Y-12330000D01*
X13490000Y-12310000D02*
X13470000Y-12330000D01*
X13475000Y-13185000D02*
X13495000Y-13205000D01*
X13495000Y-13185000D02*
X13475000Y-13205000D01*
X13479000Y-9690000D02*
X13499000Y-9710000D01*
X13499000Y-9690000D02*
X13479000Y-9710000D01*
X13485000Y-9512500D02*
X13505000Y-9532500D01*
X13505000Y-9512500D02*
X13485000Y-9532500D01*
X13495000Y-12865000D02*
X13515000Y-12885000D01*
X13515000Y-12865000D02*
X13495000Y-12885000D01*
X13500000Y-9205000D02*
X13520000Y-9225000D01*
X13520000Y-9205000D02*
X13500000Y-9225000D01*
X13500000Y-9362500D02*
X13520000Y-9382500D01*
X13520000Y-9362500D02*
X13500000Y-9382500D01*
X13500000Y-9594000D02*
X13520000Y-9614000D01*
X13520000Y-9594000D02*
X13500000Y-9614000D01*
X13510000Y-10670000D02*
X13530000Y-10690000D01*
X13530000Y-10670000D02*
X13510000Y-10690000D01*
X13520000Y-9995000D02*
X13540000Y-10015000D01*
X13540000Y-9995000D02*
X13520000Y-10015000D01*
X13532500Y-12412500D02*
X13552500Y-12432500D01*
X13552500Y-12412500D02*
X13532500Y-12432500D01*
X13540000Y-12786000D02*
X13560000Y-12806000D01*
X13560000Y-12786000D02*
X13540000Y-12806000D01*
X13540000Y-13094000D02*
X13560000Y-13114000D01*
X13560000Y-13094000D02*
X13540000Y-13114000D01*
X13545000Y-9440000D02*
X13565000Y-9460000D01*
X13565000Y-9440000D02*
X13545000Y-9460000D01*
X13550000Y-10870000D02*
X13570000Y-10890000D01*
X13570000Y-10870000D02*
X13550000Y-10890000D01*
X13550000Y-10950000D02*
X13570000Y-10970000D01*
X13570000Y-10950000D02*
X13550000Y-10970000D01*
X13550000Y-11030000D02*
X13570000Y-11050000D01*
X13570000Y-11030000D02*
X13550000Y-11050000D01*
X13550000Y-11110000D02*
X13570000Y-11130000D01*
X13570000Y-11110000D02*
X13550000Y-11130000D01*
X13550000Y-11190000D02*
X13570000Y-11210000D01*
X13570000Y-11190000D02*
X13550000Y-11210000D01*
X13550000Y-11430000D02*
X13570000Y-11450000D01*
X13570000Y-11430000D02*
X13550000Y-11450000D01*
X13550000Y-11510000D02*
X13570000Y-11530000D01*
X13570000Y-11510000D02*
X13550000Y-11530000D01*
X13550000Y-11590000D02*
X13570000Y-11610000D01*
X13570000Y-11590000D02*
X13550000Y-11610000D01*
X13550000Y-11750000D02*
X13570000Y-11770000D01*
X13570000Y-11750000D02*
X13550000Y-11770000D01*
X13550000Y-11830000D02*
X13570000Y-11850000D01*
X13570000Y-11830000D02*
X13550000Y-11850000D01*
X13550000Y-11990000D02*
X13570000Y-12010000D01*
X13570000Y-11990000D02*
X13550000Y-12010000D01*
X13550000Y-12070000D02*
X13570000Y-12090000D01*
X13570000Y-12070000D02*
X13550000Y-12090000D01*
X13550000Y-10790000D02*
X13570000Y-10810000D01*
X13570000Y-10790000D02*
X13550000Y-10810000D01*
X13550000Y-11350000D02*
X13570000Y-11370000D01*
X13570000Y-11350000D02*
X13550000Y-11370000D01*
X13550000Y-11670000D02*
X13570000Y-11690000D01*
X13570000Y-11670000D02*
X13550000Y-11690000D01*
X13550000Y-12150000D02*
X13570000Y-12170000D01*
X13570000Y-12150000D02*
X13550000Y-12170000D01*
X13550000Y-12230000D02*
X13570000Y-12250000D01*
X13570000Y-12230000D02*
X13550000Y-12250000D01*
X13565000Y-13019000D02*
X13585000Y-13039000D01*
X13585000Y-13019000D02*
X13565000Y-13039000D01*
X13565000Y-13192500D02*
X13585000Y-13212500D01*
X13585000Y-13192500D02*
X13565000Y-13212500D01*
X13580000Y-9286000D02*
X13600000Y-9306000D01*
X13600000Y-9286000D02*
X13580000Y-9306000D01*
X13600000Y-10440000D02*
X13620000Y-10460000D01*
X13620000Y-10440000D02*
X13600000Y-10460000D01*
X13602500Y-9510000D02*
X13622500Y-9530000D01*
X13622500Y-9510000D02*
X13602500Y-9530000D01*
X13606000Y-10001000D02*
X13626000Y-10021000D01*
X13626000Y-10001000D02*
X13606000Y-10021000D01*
X13630000Y-10870000D02*
X13650000Y-10890000D01*
X13650000Y-10870000D02*
X13630000Y-10890000D01*
X13630000Y-10950000D02*
X13650000Y-10970000D01*
X13650000Y-10950000D02*
X13630000Y-10970000D01*
X13630000Y-11110000D02*
X13650000Y-11130000D01*
X13650000Y-11110000D02*
X13630000Y-11130000D01*
X13630000Y-11190000D02*
X13650000Y-11210000D01*
X13650000Y-11190000D02*
X13630000Y-11210000D01*
X13630000Y-11270000D02*
X13650000Y-11290000D01*
X13650000Y-11270000D02*
X13630000Y-11290000D01*
X13630000Y-11430000D02*
X13650000Y-11450000D01*
X13650000Y-11430000D02*
X13630000Y-11450000D01*
X13630000Y-11030000D02*
X13650000Y-11050000D01*
X13650000Y-11030000D02*
X13630000Y-11050000D01*
X13630000Y-11350000D02*
X13650000Y-11370000D01*
X13650000Y-11350000D02*
X13630000Y-11370000D01*
X13630000Y-11990000D02*
X13650000Y-12010000D01*
X13650000Y-11990000D02*
X13630000Y-12010000D01*
X13630000Y-12070000D02*
X13650000Y-12090000D01*
X13650000Y-12070000D02*
X13630000Y-12090000D01*
X13630000Y-12150000D02*
X13650000Y-12170000D01*
X13650000Y-12150000D02*
X13630000Y-12170000D01*
X13630000Y-12310000D02*
X13650000Y-12330000D01*
X13650000Y-12310000D02*
X13630000Y-12330000D01*
X13635000Y-9365000D02*
X13655000Y-9385000D01*
X13655000Y-9365000D02*
X13635000Y-9385000D01*
X13635000Y-13019000D02*
X13655000Y-13039000D01*
X13655000Y-13019000D02*
X13635000Y-13039000D01*
X13637500Y-10185000D02*
X13657500Y-10205000D01*
X13657500Y-10185000D02*
X13637500Y-10205000D01*
X13655000Y-13185000D02*
X13675000Y-13205000D01*
X13675000Y-13185000D02*
X13655000Y-13205000D01*
X13660000Y-9286000D02*
X13680000Y-9306000D01*
X13680000Y-9286000D02*
X13660000Y-9306000D01*
X13660000Y-10492000D02*
X13680000Y-10512000D01*
X13680000Y-10492000D02*
X13660000Y-10512000D01*
X13661000Y-9205000D02*
X13681000Y-9225000D01*
X13681000Y-9205000D02*
X13661000Y-9225000D01*
X13670000Y-11550000D02*
X13690000Y-11570000D01*
X13690000Y-11550000D02*
X13670000Y-11570000D01*
X13670000Y-11630000D02*
X13690000Y-11650000D01*
X13690000Y-11630000D02*
X13670000Y-11650000D01*
X13670000Y-11710000D02*
X13690000Y-11730000D01*
X13690000Y-11710000D02*
X13670000Y-11730000D01*
X13697000Y-10400000D02*
X13717000Y-10420000D01*
X13717000Y-10400000D02*
X13697000Y-10420000D01*
X13710000Y-10870000D02*
X13730000Y-10890000D01*
X13730000Y-10870000D02*
X13710000Y-10890000D01*
X13710000Y-10950000D02*
X13730000Y-10970000D01*
X13730000Y-10950000D02*
X13710000Y-10970000D01*
X13710000Y-11030000D02*
X13730000Y-11050000D01*
X13730000Y-11030000D02*
X13710000Y-11050000D01*
X13710000Y-10710000D02*
X13730000Y-10730000D01*
X13730000Y-10710000D02*
X13710000Y-10730000D01*
X13710000Y-10790000D02*
X13730000Y-10810000D01*
X13730000Y-10790000D02*
X13710000Y-10810000D01*
X13710000Y-11190000D02*
X13730000Y-11210000D01*
X13730000Y-11190000D02*
X13710000Y-11210000D01*
X13710000Y-11990000D02*
X13730000Y-12010000D01*
X13730000Y-11990000D02*
X13710000Y-12010000D01*
X13710000Y-12070000D02*
X13730000Y-12090000D01*
X13730000Y-12070000D02*
X13710000Y-12090000D01*
X13710000Y-12150000D02*
X13730000Y-12170000D01*
X13730000Y-12150000D02*
X13710000Y-12170000D01*
X13710000Y-12230000D02*
X13730000Y-12250000D01*
X13730000Y-12230000D02*
X13710000Y-12250000D01*
X13720000Y-9501000D02*
X13740000Y-9521000D01*
X13740000Y-9501000D02*
X13720000Y-9521000D01*
X13722500Y-9385000D02*
X13742500Y-9405000D01*
X13742500Y-9385000D02*
X13722500Y-9405000D01*
X13740000Y-12786000D02*
X13760000Y-12806000D01*
X13760000Y-12786000D02*
X13740000Y-12806000D01*
X13740000Y-13094000D02*
X13760000Y-13114000D01*
X13760000Y-13094000D02*
X13740000Y-13114000D01*
X13745000Y-13185000D02*
X13765000Y-13205000D01*
X13765000Y-13185000D02*
X13745000Y-13205000D01*
X13750000Y-11310000D02*
X13770000Y-11330000D01*
X13770000Y-11310000D02*
X13750000Y-11330000D01*
X13750000Y-11390000D02*
X13770000Y-11410000D01*
X13770000Y-11390000D02*
X13750000Y-11410000D01*
X13750000Y-11470000D02*
X13770000Y-11490000D01*
X13770000Y-11470000D02*
X13750000Y-11490000D01*
X13750000Y-11550000D02*
X13770000Y-11570000D01*
X13770000Y-11550000D02*
X13750000Y-11570000D01*
X13750000Y-11630000D02*
X13770000Y-11650000D01*
X13770000Y-11630000D02*
X13750000Y-11650000D01*
X13750000Y-11710000D02*
X13770000Y-11730000D01*
X13770000Y-11710000D02*
X13750000Y-11730000D01*
X13750000Y-11790000D02*
X13770000Y-11810000D01*
X13770000Y-11790000D02*
X13750000Y-11810000D01*
X13750000Y-12350000D02*
X13770000Y-12370000D01*
X13770000Y-12350000D02*
X13750000Y-12370000D01*
X13755000Y-9207500D02*
X13775000Y-9227500D01*
X13775000Y-9207500D02*
X13755000Y-9227500D01*
X13756000Y-13007000D02*
X13776000Y-13027000D01*
X13776000Y-13007000D02*
X13756000Y-13027000D01*
X13767500Y-9997500D02*
X13787500Y-10017500D01*
X13787500Y-9997500D02*
X13767500Y-10017500D01*
X13790000Y-10950000D02*
X13810000Y-10970000D01*
X13810000Y-10950000D02*
X13790000Y-10970000D01*
X13790000Y-11030000D02*
X13810000Y-11050000D01*
X13810000Y-11030000D02*
X13790000Y-11050000D01*
X13790000Y-11110000D02*
X13810000Y-11130000D01*
X13810000Y-11110000D02*
X13790000Y-11130000D01*
X13790000Y-10710000D02*
X13810000Y-10730000D01*
X13810000Y-10710000D02*
X13790000Y-10730000D01*
X13790000Y-10790000D02*
X13810000Y-10810000D01*
X13810000Y-10790000D02*
X13790000Y-10810000D01*
X13790000Y-10870000D02*
X13810000Y-10890000D01*
X13810000Y-10870000D02*
X13790000Y-10890000D01*
X13790000Y-11190000D02*
X13810000Y-11210000D01*
X13810000Y-11190000D02*
X13790000Y-11210000D01*
X13790000Y-11990000D02*
X13810000Y-12010000D01*
X13810000Y-11990000D02*
X13790000Y-12010000D01*
X13790000Y-12070000D02*
X13810000Y-12090000D01*
X13810000Y-12070000D02*
X13790000Y-12090000D01*
X13790000Y-12230000D02*
X13810000Y-12250000D01*
X13810000Y-12230000D02*
X13790000Y-12250000D01*
X13805000Y-9443000D02*
X13825000Y-9463000D01*
X13825000Y-9443000D02*
X13805000Y-9463000D01*
X13807500Y-9370000D02*
X13827500Y-9390000D01*
X13827500Y-9370000D02*
X13807500Y-9390000D01*
X13815000Y-12712500D02*
X13835000Y-12732500D01*
X13835000Y-12712500D02*
X13815000Y-12732500D01*
X13817500Y-12867500D02*
X13837500Y-12887500D01*
X13837500Y-12867500D02*
X13817500Y-12887500D01*
X13825000Y-10060000D02*
X13845000Y-10080000D01*
X13845000Y-10060000D02*
X13825000Y-10080000D01*
X13826000Y-13007000D02*
X13846000Y-13027000D01*
X13846000Y-13007000D02*
X13826000Y-13027000D01*
X13830000Y-11310000D02*
X13850000Y-11330000D01*
X13850000Y-11310000D02*
X13830000Y-11330000D01*
X13830000Y-11390000D02*
X13850000Y-11410000D01*
X13850000Y-11390000D02*
X13830000Y-11410000D01*
X13830000Y-11470000D02*
X13850000Y-11490000D01*
X13850000Y-11470000D02*
X13830000Y-11490000D01*
X13830000Y-11550000D02*
X13850000Y-11570000D01*
X13850000Y-11550000D02*
X13830000Y-11570000D01*
X13830000Y-11630000D02*
X13850000Y-11650000D01*
X13850000Y-11630000D02*
X13830000Y-11650000D01*
X13830000Y-11710000D02*
X13850000Y-11730000D01*
X13850000Y-11710000D02*
X13830000Y-11730000D01*
X13830000Y-11790000D02*
X13850000Y-11810000D01*
X13850000Y-11790000D02*
X13830000Y-11810000D01*
X13830000Y-11870000D02*
X13850000Y-11890000D01*
X13850000Y-11870000D02*
X13830000Y-11890000D01*
X13831000Y-10482000D02*
X13851000Y-10502000D01*
X13851000Y-10482000D02*
X13831000Y-10502000D01*
X13847000Y-13182000D02*
X13867000Y-13202000D01*
X13867000Y-13182000D02*
X13847000Y-13202000D01*
X13848000Y-9206000D02*
X13868000Y-9226000D01*
X13868000Y-9206000D02*
X13848000Y-9226000D01*
X13860000Y-9594000D02*
X13880000Y-9614000D01*
X13880000Y-9594000D02*
X13860000Y-9614000D01*
X13862500Y-9515000D02*
X13882500Y-9535000D01*
X13882500Y-9515000D02*
X13862500Y-9535000D01*
X13870000Y-10710000D02*
X13890000Y-10730000D01*
X13890000Y-10710000D02*
X13870000Y-10730000D01*
X13870000Y-11110000D02*
X13890000Y-11130000D01*
X13890000Y-11110000D02*
X13870000Y-11130000D01*
X13870000Y-11190000D02*
X13890000Y-11210000D01*
X13890000Y-11190000D02*
X13870000Y-11210000D01*
X13870000Y-10790000D02*
X13890000Y-10810000D01*
X13890000Y-10790000D02*
X13870000Y-10810000D01*
X13870000Y-10870000D02*
X13890000Y-10890000D01*
X13890000Y-10870000D02*
X13870000Y-10890000D01*
X13870000Y-10950000D02*
X13890000Y-10970000D01*
X13890000Y-10950000D02*
X13870000Y-10970000D01*
X13870000Y-11030000D02*
X13890000Y-11050000D01*
X13890000Y-11030000D02*
X13870000Y-11050000D01*
X13870000Y-11990000D02*
X13890000Y-12010000D01*
X13890000Y-11990000D02*
X13870000Y-12010000D01*
X13870000Y-12070000D02*
X13890000Y-12090000D01*
X13890000Y-12070000D02*
X13870000Y-12090000D01*
X13870000Y-12150000D02*
X13890000Y-12170000D01*
X13890000Y-12150000D02*
X13870000Y-12170000D01*
X13870000Y-12230000D02*
X13890000Y-12250000D01*
X13890000Y-12230000D02*
X13870000Y-12250000D01*
X13870000Y-12310000D02*
X13890000Y-12330000D01*
X13890000Y-12310000D02*
X13870000Y-12330000D01*
X13872500Y-10632500D02*
X13892500Y-10652500D01*
X13892500Y-10632500D02*
X13872500Y-10652500D01*
X13895000Y-9417000D02*
X13915000Y-9437000D01*
X13915000Y-9417000D02*
X13895000Y-9437000D01*
X13900000Y-9287500D02*
X13920000Y-9307500D01*
X13920000Y-9287500D02*
X13900000Y-9307500D01*
X13900000Y-10140000D02*
X13920000Y-10160000D01*
X13920000Y-10140000D02*
X13900000Y-10160000D01*
X13910000Y-11310000D02*
X13930000Y-11330000D01*
X13930000Y-11310000D02*
X13910000Y-11330000D01*
X13910000Y-11390000D02*
X13930000Y-11410000D01*
X13930000Y-11390000D02*
X13910000Y-11410000D01*
X13910000Y-11470000D02*
X13930000Y-11490000D01*
X13930000Y-11470000D02*
X13910000Y-11490000D01*
X13910000Y-11550000D02*
X13930000Y-11570000D01*
X13930000Y-11550000D02*
X13910000Y-11570000D01*
X13910000Y-11630000D02*
X13930000Y-11650000D01*
X13930000Y-11630000D02*
X13910000Y-11650000D01*
X13910000Y-11710000D02*
X13930000Y-11730000D01*
X13930000Y-11710000D02*
X13910000Y-11730000D01*
X13910000Y-11790000D02*
X13930000Y-11810000D01*
X13930000Y-11790000D02*
X13910000Y-11810000D01*
X13910000Y-10535000D02*
X13930000Y-10555000D01*
X13930000Y-10535000D02*
X13910000Y-10555000D01*
X13917000Y-13182000D02*
X13937000Y-13202000D01*
X13937000Y-13182000D02*
X13917000Y-13202000D01*
X13934000Y-9982000D02*
X13954000Y-10002000D01*
X13954000Y-9982000D02*
X13934000Y-10002000D01*
X13940000Y-12786000D02*
X13960000Y-12806000D01*
X13960000Y-12786000D02*
X13940000Y-12806000D01*
X13940000Y-13094000D02*
X13960000Y-13114000D01*
X13960000Y-13094000D02*
X13940000Y-13114000D01*
X13942000Y-9700000D02*
X13962000Y-9720000D01*
X13962000Y-9700000D02*
X13942000Y-9720000D01*
X13946000Y-9478000D02*
X13966000Y-9498000D01*
X13966000Y-9478000D02*
X13946000Y-9498000D01*
X13950000Y-10710000D02*
X13970000Y-10730000D01*
X13970000Y-10710000D02*
X13950000Y-10730000D01*
X13950000Y-10870000D02*
X13970000Y-10890000D01*
X13970000Y-10870000D02*
X13950000Y-10890000D01*
X13950000Y-10950000D02*
X13970000Y-10970000D01*
X13970000Y-10950000D02*
X13950000Y-10970000D01*
X13950000Y-10790000D02*
X13970000Y-10810000D01*
X13970000Y-10790000D02*
X13950000Y-10810000D01*
X13950000Y-11190000D02*
X13970000Y-11210000D01*
X13970000Y-11190000D02*
X13950000Y-11210000D01*
X13950000Y-11990000D02*
X13970000Y-12010000D01*
X13970000Y-11990000D02*
X13950000Y-12010000D01*
X13950000Y-12070000D02*
X13970000Y-12090000D01*
X13970000Y-12070000D02*
X13950000Y-12090000D01*
X13950000Y-12150000D02*
X13970000Y-12170000D01*
X13970000Y-12150000D02*
X13950000Y-12170000D01*
X13950000Y-12230000D02*
X13970000Y-12250000D01*
X13970000Y-12230000D02*
X13950000Y-12250000D01*
X13960000Y-13004000D02*
X13980000Y-13024000D01*
X13980000Y-13004000D02*
X13960000Y-13024000D01*
X13961000Y-9371000D02*
X13981000Y-9391000D01*
X13981000Y-9371000D02*
X13961000Y-9391000D01*
X13975000Y-10600000D02*
X13995000Y-10620000D01*
X13995000Y-10600000D02*
X13975000Y-10620000D01*
X13980000Y-9286000D02*
X14000000Y-9306000D01*
X14000000Y-9286000D02*
X13980000Y-9306000D01*
X13990000Y-11310000D02*
X14010000Y-11330000D01*
X14010000Y-11310000D02*
X13990000Y-11330000D01*
X13990000Y-11390000D02*
X14010000Y-11410000D01*
X14010000Y-11390000D02*
X13990000Y-11410000D01*
X13990000Y-11710000D02*
X14010000Y-11730000D01*
X14010000Y-11710000D02*
X13990000Y-11730000D01*
X14003000Y-9208000D02*
X14023000Y-9228000D01*
X14023000Y-9208000D02*
X14003000Y-9228000D01*
X14012000Y-9424000D02*
X14032000Y-9444000D01*
X14032000Y-9424000D02*
X14012000Y-9444000D01*
X14020000Y-10098000D02*
X14040000Y-10118000D01*
X14040000Y-10098000D02*
X14020000Y-10118000D01*
X14030000Y-10790000D02*
X14050000Y-10810000D01*
X14050000Y-10790000D02*
X14030000Y-10810000D01*
X14030000Y-10870000D02*
X14050000Y-10890000D01*
X14050000Y-10870000D02*
X14030000Y-10890000D01*
X14030000Y-10950000D02*
X14050000Y-10970000D01*
X14050000Y-10950000D02*
X14030000Y-10970000D01*
X14030000Y-11110000D02*
X14050000Y-11130000D01*
X14050000Y-11110000D02*
X14030000Y-11130000D01*
X14030000Y-11190000D02*
X14050000Y-11210000D01*
X14050000Y-11190000D02*
X14030000Y-11210000D01*
X14030000Y-10012500D02*
X14050000Y-10032500D01*
X14050000Y-10012500D02*
X14030000Y-10032500D01*
X14030000Y-11030000D02*
X14050000Y-11050000D01*
X14050000Y-11030000D02*
X14030000Y-11050000D01*
X14030000Y-11910000D02*
X14050000Y-11930000D01*
X14050000Y-11910000D02*
X14030000Y-11930000D01*
X14030000Y-11990000D02*
X14050000Y-12010000D01*
X14050000Y-11990000D02*
X14030000Y-12010000D01*
X14030000Y-12070000D02*
X14050000Y-12090000D01*
X14050000Y-12070000D02*
X14030000Y-12090000D01*
X14030000Y-12150000D02*
X14050000Y-12170000D01*
X14050000Y-12150000D02*
X14030000Y-12170000D01*
X14030000Y-12230000D02*
X14050000Y-12250000D01*
X14050000Y-12230000D02*
X14030000Y-12250000D01*
X14030000Y-13004000D02*
X14050000Y-13024000D01*
X14050000Y-13004000D02*
X14030000Y-13024000D01*
X14032000Y-9521000D02*
X14052000Y-9541000D01*
X14052000Y-9521000D02*
X14032000Y-9541000D01*
X14037000Y-9690000D02*
X14057000Y-9710000D01*
X14057000Y-9690000D02*
X14037000Y-9710000D01*
X14051134Y-13176326D02*
X14071134Y-13196326D01*
X14071134Y-13176326D02*
X14051134Y-13196326D01*
X14056000Y-9890000D02*
X14076000Y-9910000D01*
X14076000Y-9890000D02*
X14056000Y-9910000D01*
X14060000Y-9594000D02*
X14080000Y-9614000D01*
X14080000Y-9594000D02*
X14060000Y-9614000D01*
X14070000Y-11310000D02*
X14090000Y-11330000D01*
X14090000Y-11310000D02*
X14070000Y-11330000D01*
X14070000Y-11710000D02*
X14090000Y-11730000D01*
X14090000Y-11710000D02*
X14070000Y-11730000D01*
X14070000Y-11390000D02*
X14090000Y-11410000D01*
X14090000Y-11390000D02*
X14070000Y-11410000D01*
X14070000Y-11790000D02*
X14090000Y-11810000D01*
X14090000Y-11790000D02*
X14070000Y-11810000D01*
X14074000Y-10464000D02*
X14094000Y-10484000D01*
X14094000Y-10464000D02*
X14074000Y-10484000D01*
X14097500Y-10362500D02*
X14117500Y-10382500D01*
X14117500Y-10362500D02*
X14097500Y-10382500D01*
X14098000Y-10284000D02*
X14118000Y-10304000D01*
X14118000Y-10284000D02*
X14098000Y-10304000D01*
X14100000Y-9437500D02*
X14120000Y-9457500D01*
X14120000Y-9437500D02*
X14100000Y-9457500D01*
X14100000Y-10140000D02*
X14120000Y-10160000D01*
X14120000Y-10140000D02*
X14100000Y-10160000D01*
X14110000Y-11110000D02*
X14130000Y-11130000D01*
X14130000Y-11110000D02*
X14110000Y-11130000D01*
X14110000Y-11190000D02*
X14130000Y-11210000D01*
X14130000Y-11190000D02*
X14110000Y-11210000D01*
X14110000Y-10870000D02*
X14130000Y-10890000D01*
X14130000Y-10870000D02*
X14110000Y-10890000D01*
X14110000Y-10950000D02*
X14130000Y-10970000D01*
X14130000Y-10950000D02*
X14110000Y-10970000D01*
X14110000Y-11030000D02*
X14130000Y-11050000D01*
X14130000Y-11030000D02*
X14110000Y-11050000D01*
X14110000Y-11910000D02*
X14130000Y-11930000D01*
X14130000Y-11910000D02*
X14110000Y-11930000D01*
X14110000Y-11990000D02*
X14130000Y-12010000D01*
X14130000Y-11990000D02*
X14110000Y-12010000D01*
X14110000Y-12070000D02*
X14130000Y-12090000D01*
X14130000Y-12070000D02*
X14110000Y-12090000D01*
X14110000Y-12150000D02*
X14130000Y-12170000D01*
X14130000Y-12150000D02*
X14110000Y-12170000D01*
X14111000Y-10053000D02*
X14131000Y-10073000D01*
X14131000Y-10053000D02*
X14111000Y-10073000D01*
X14121134Y-13176326D02*
X14141134Y-13196326D01*
X14141134Y-13176326D02*
X14121134Y-13196326D01*
X14131000Y-9983000D02*
X14151000Y-10003000D01*
X14151000Y-9983000D02*
X14131000Y-10003000D01*
X14132500Y-9142500D02*
X14152500Y-9162500D01*
X14152500Y-9142500D02*
X14132500Y-9162500D01*
X14137500Y-9500000D02*
X14157500Y-9520000D01*
X14157500Y-9500000D02*
X14137500Y-9520000D01*
X14140000Y-9286000D02*
X14160000Y-9306000D01*
X14160000Y-9286000D02*
X14140000Y-9306000D01*
X14140000Y-12786000D02*
X14160000Y-12806000D01*
X14160000Y-12786000D02*
X14140000Y-12806000D01*
X14140000Y-13094000D02*
X14160000Y-13114000D01*
X14160000Y-13094000D02*
X14140000Y-13114000D01*
X14145000Y-12999000D02*
X14165000Y-13019000D01*
X14165000Y-12999000D02*
X14145000Y-13019000D01*
X14150000Y-11310000D02*
X14170000Y-11330000D01*
X14170000Y-11310000D02*
X14150000Y-11330000D01*
X14150000Y-11390000D02*
X14170000Y-11410000D01*
X14170000Y-11390000D02*
X14150000Y-11410000D01*
X14150000Y-11470000D02*
X14170000Y-11490000D01*
X14170000Y-11470000D02*
X14150000Y-11490000D01*
X14150000Y-11550000D02*
X14170000Y-11570000D01*
X14170000Y-11550000D02*
X14150000Y-11570000D01*
X14150000Y-11630000D02*
X14170000Y-11650000D01*
X14170000Y-11630000D02*
X14150000Y-11650000D01*
X14150000Y-11710000D02*
X14170000Y-11730000D01*
X14170000Y-11710000D02*
X14150000Y-11730000D01*
X14150000Y-10542000D02*
X14170000Y-10562000D01*
X14170000Y-10542000D02*
X14150000Y-10562000D01*
X14150000Y-12350000D02*
X14170000Y-12370000D01*
X14170000Y-12350000D02*
X14150000Y-12370000D01*
X14160000Y-12870000D02*
X14180000Y-12890000D01*
X14180000Y-12870000D02*
X14160000Y-12890000D01*
X14163000Y-10398000D02*
X14183000Y-10418000D01*
X14183000Y-10398000D02*
X14163000Y-10418000D01*
X14165000Y-9207500D02*
X14185000Y-9227500D01*
X14185000Y-9207500D02*
X14165000Y-9227500D01*
X14182000Y-10158000D02*
X14202000Y-10178000D01*
X14202000Y-10158000D02*
X14182000Y-10178000D01*
X14185000Y-10038000D02*
X14205000Y-10058000D01*
X14205000Y-10038000D02*
X14185000Y-10058000D01*
X14190000Y-11110000D02*
X14210000Y-11130000D01*
X14210000Y-11110000D02*
X14190000Y-11130000D01*
X14190000Y-11190000D02*
X14210000Y-11210000D01*
X14210000Y-11190000D02*
X14190000Y-11210000D01*
X14190000Y-10870000D02*
X14210000Y-10890000D01*
X14210000Y-10870000D02*
X14190000Y-10890000D01*
X14190000Y-11030000D02*
X14210000Y-11050000D01*
X14210000Y-11030000D02*
X14190000Y-11050000D01*
X14190000Y-11910000D02*
X14210000Y-11930000D01*
X14210000Y-11910000D02*
X14190000Y-11930000D01*
X14190000Y-11990000D02*
X14210000Y-12010000D01*
X14210000Y-11990000D02*
X14190000Y-12010000D01*
X14190000Y-12070000D02*
X14210000Y-12090000D01*
X14210000Y-12070000D02*
X14190000Y-12090000D01*
X14190000Y-12150000D02*
X14210000Y-12170000D01*
X14210000Y-12150000D02*
X14190000Y-12170000D01*
X14191500Y-10949500D02*
X14211500Y-10969500D01*
X14211500Y-10949500D02*
X14191500Y-10969500D01*
X14192500Y-10792500D02*
X14212500Y-10812500D01*
X14212500Y-10792500D02*
X14192500Y-10812500D01*
X14215000Y-12999000D02*
X14235000Y-13019000D01*
X14235000Y-12999000D02*
X14215000Y-13019000D01*
X14217500Y-12705000D02*
X14237500Y-12725000D01*
X14237500Y-12705000D02*
X14217500Y-12725000D01*
X14230000Y-11310000D02*
X14250000Y-11330000D01*
X14250000Y-11310000D02*
X14230000Y-11330000D01*
X14230000Y-11390000D02*
X14250000Y-11410000D01*
X14250000Y-11390000D02*
X14230000Y-11410000D01*
X14230000Y-11470000D02*
X14250000Y-11490000D01*
X14250000Y-11470000D02*
X14230000Y-11490000D01*
X14230000Y-11550000D02*
X14250000Y-11570000D01*
X14250000Y-11550000D02*
X14230000Y-11570000D01*
X14230000Y-11630000D02*
X14250000Y-11650000D01*
X14250000Y-11630000D02*
X14230000Y-11650000D01*
X14230000Y-11710000D02*
X14250000Y-11730000D01*
X14250000Y-11710000D02*
X14230000Y-11730000D01*
X14230000Y-11790000D02*
X14250000Y-11810000D01*
X14250000Y-11790000D02*
X14230000Y-11810000D01*
X14230000Y-10670000D02*
X14250000Y-10690000D01*
X14250000Y-10670000D02*
X14230000Y-10690000D01*
X14235000Y-9207500D02*
X14255000Y-9227500D01*
X14255000Y-9207500D02*
X14235000Y-9227500D01*
X14245000Y-13179000D02*
X14265000Y-13199000D01*
X14265000Y-13179000D02*
X14245000Y-13199000D01*
X14258000Y-9513000D02*
X14278000Y-9533000D01*
X14278000Y-9513000D02*
X14258000Y-9533000D01*
X14260000Y-9286000D02*
X14280000Y-9306000D01*
X14280000Y-9286000D02*
X14260000Y-9306000D01*
X14260000Y-9425000D02*
X14280000Y-9445000D01*
X14280000Y-9425000D02*
X14260000Y-9445000D01*
X14260000Y-9594000D02*
X14280000Y-9614000D01*
X14280000Y-9594000D02*
X14260000Y-9614000D01*
X14270000Y-11110000D02*
X14290000Y-11130000D01*
X14290000Y-11110000D02*
X14270000Y-11130000D01*
X14270000Y-10870000D02*
X14290000Y-10890000D01*
X14290000Y-10870000D02*
X14270000Y-10890000D01*
X14270000Y-10950000D02*
X14290000Y-10970000D01*
X14290000Y-10950000D02*
X14270000Y-10970000D01*
X14270000Y-11030000D02*
X14290000Y-11050000D01*
X14290000Y-11030000D02*
X14270000Y-11050000D01*
X14270000Y-11190000D02*
X14290000Y-11210000D01*
X14290000Y-11190000D02*
X14270000Y-11210000D01*
X14270000Y-11910000D02*
X14290000Y-11930000D01*
X14290000Y-11910000D02*
X14270000Y-11930000D01*
X14270000Y-11990000D02*
X14290000Y-12010000D01*
X14290000Y-11990000D02*
X14270000Y-12010000D01*
X14270000Y-12070000D02*
X14290000Y-12090000D01*
X14290000Y-12070000D02*
X14270000Y-12090000D01*
X14270000Y-12150000D02*
X14290000Y-12170000D01*
X14290000Y-12150000D02*
X14270000Y-12170000D01*
X14270000Y-12230000D02*
X14290000Y-12250000D01*
X14290000Y-12230000D02*
X14270000Y-12250000D01*
X14270000Y-12310000D02*
X14290000Y-12330000D01*
X14290000Y-12310000D02*
X14270000Y-12330000D01*
X14285150Y-9353945D02*
X14305150Y-9373945D01*
X14305150Y-9353945D02*
X14285150Y-9373945D01*
X14298000Y-10348000D02*
X14318000Y-10368000D01*
X14318000Y-10348000D02*
X14298000Y-10368000D01*
X14310000Y-10670000D02*
X14330000Y-10690000D01*
X14330000Y-10670000D02*
X14310000Y-10690000D01*
X14315000Y-13179000D02*
X14335000Y-13199000D01*
X14335000Y-13179000D02*
X14315000Y-13199000D01*
X14340000Y-12786000D02*
X14360000Y-12806000D01*
X14360000Y-12786000D02*
X14340000Y-12806000D01*
X14340000Y-13094000D02*
X14360000Y-13114000D01*
X14360000Y-13094000D02*
X14340000Y-13114000D01*
X14350000Y-11110000D02*
X14370000Y-11130000D01*
X14370000Y-11110000D02*
X14350000Y-11130000D01*
X14350000Y-11190000D02*
X14370000Y-11210000D01*
X14370000Y-11190000D02*
X14350000Y-11210000D01*
X14350000Y-11510000D02*
X14370000Y-11530000D01*
X14370000Y-11510000D02*
X14350000Y-11530000D01*
X14350000Y-11910000D02*
X14370000Y-11930000D01*
X14370000Y-11910000D02*
X14350000Y-11930000D01*
X14350000Y-11990000D02*
X14370000Y-12010000D01*
X14370000Y-11990000D02*
X14350000Y-12010000D01*
X14350000Y-12070000D02*
X14370000Y-12090000D01*
X14370000Y-12070000D02*
X14350000Y-12090000D01*
X14350000Y-12150000D02*
X14370000Y-12170000D01*
X14370000Y-12150000D02*
X14350000Y-12170000D01*
X14350000Y-12230000D02*
X14370000Y-12250000D01*
X14370000Y-12230000D02*
X14350000Y-12250000D01*
X14355150Y-9353945D02*
X14375150Y-9373945D01*
X14375150Y-9353945D02*
X14355150Y-9373945D01*
X14362581Y-13010567D02*
X14382581Y-13030567D01*
X14382581Y-13010567D02*
X14362581Y-13030567D01*
X14366000Y-10303000D02*
X14386000Y-10323000D01*
X14386000Y-10303000D02*
X14366000Y-10323000D01*
X14380000Y-9286000D02*
X14400000Y-9306000D01*
X14400000Y-9286000D02*
X14380000Y-9306000D01*
X14390000Y-10177500D02*
X14410000Y-10197500D01*
X14410000Y-10177500D02*
X14390000Y-10197500D01*
X14405000Y-9195000D02*
X14425000Y-9215000D01*
X14425000Y-9195000D02*
X14405000Y-9215000D01*
X14422000Y-10472000D02*
X14442000Y-10492000D01*
X14442000Y-10472000D02*
X14422000Y-10492000D01*
X14430000Y-10710000D02*
X14450000Y-10730000D01*
X14450000Y-10710000D02*
X14430000Y-10730000D01*
X14430000Y-10790000D02*
X14450000Y-10810000D01*
X14450000Y-10790000D02*
X14430000Y-10810000D01*
X14430000Y-10950000D02*
X14450000Y-10970000D01*
X14450000Y-10950000D02*
X14430000Y-10970000D01*
X14430000Y-11030000D02*
X14450000Y-11050000D01*
X14450000Y-11030000D02*
X14430000Y-11050000D01*
X14430000Y-11110000D02*
X14450000Y-11130000D01*
X14450000Y-11110000D02*
X14430000Y-11130000D01*
X14430000Y-11190000D02*
X14450000Y-11210000D01*
X14450000Y-11190000D02*
X14430000Y-11210000D01*
X14430000Y-11350000D02*
X14450000Y-11370000D01*
X14450000Y-11350000D02*
X14430000Y-11370000D01*
X14430000Y-11430000D02*
X14450000Y-11450000D01*
X14450000Y-11430000D02*
X14430000Y-11450000D01*
X14430000Y-11510000D02*
X14450000Y-11530000D01*
X14450000Y-11510000D02*
X14430000Y-11530000D01*
X14430000Y-11590000D02*
X14450000Y-11610000D01*
X14450000Y-11590000D02*
X14430000Y-11610000D01*
X14430000Y-11670000D02*
X14450000Y-11690000D01*
X14450000Y-11670000D02*
X14430000Y-11690000D01*
X14430000Y-11750000D02*
X14450000Y-11770000D01*
X14450000Y-11750000D02*
X14430000Y-11770000D01*
X14430000Y-11830000D02*
X14450000Y-11850000D01*
X14450000Y-11830000D02*
X14430000Y-11850000D01*
X14430000Y-11990000D02*
X14450000Y-12010000D01*
X14450000Y-11990000D02*
X14430000Y-12010000D01*
X14430000Y-12070000D02*
X14450000Y-12090000D01*
X14450000Y-12070000D02*
X14430000Y-12090000D01*
X14430000Y-12150000D02*
X14450000Y-12170000D01*
X14450000Y-12150000D02*
X14430000Y-12170000D01*
X14430000Y-12230000D02*
X14450000Y-12250000D01*
X14450000Y-12230000D02*
X14430000Y-12250000D01*
X14432581Y-13010567D02*
X14452581Y-13030567D01*
X14452581Y-13010567D02*
X14432581Y-13030567D01*
X14443798Y-13177729D02*
X14463798Y-13197729D01*
X14463798Y-13177729D02*
X14443798Y-13197729D01*
X14450000Y-10400000D02*
X14470000Y-10420000D01*
X14470000Y-10400000D02*
X14450000Y-10420000D01*
X14475000Y-9195000D02*
X14495000Y-9215000D01*
X14495000Y-9195000D02*
X14475000Y-9215000D01*
X14500000Y-9286000D02*
X14520000Y-9306000D01*
X14520000Y-9286000D02*
X14500000Y-9306000D01*
X14510000Y-10790000D02*
X14530000Y-10810000D01*
X14530000Y-10790000D02*
X14510000Y-10810000D01*
X14510000Y-10870000D02*
X14530000Y-10890000D01*
X14530000Y-10870000D02*
X14510000Y-10890000D01*
X14510000Y-10950000D02*
X14530000Y-10970000D01*
X14530000Y-10950000D02*
X14510000Y-10970000D01*
X14510000Y-11030000D02*
X14530000Y-11050000D01*
X14530000Y-11030000D02*
X14510000Y-11050000D01*
X14510000Y-11110000D02*
X14530000Y-11130000D01*
X14530000Y-11110000D02*
X14510000Y-11130000D01*
X14510000Y-11190000D02*
X14530000Y-11210000D01*
X14530000Y-11190000D02*
X14510000Y-11210000D01*
X14510000Y-11510000D02*
X14530000Y-11530000D01*
X14530000Y-11510000D02*
X14510000Y-11530000D01*
X14510000Y-11670000D02*
X14530000Y-11690000D01*
X14530000Y-11670000D02*
X14510000Y-11690000D01*
X14510000Y-11750000D02*
X14530000Y-11770000D01*
X14530000Y-11750000D02*
X14510000Y-11770000D01*
X14510000Y-11990000D02*
X14530000Y-12010000D01*
X14530000Y-11990000D02*
X14510000Y-12010000D01*
X14510000Y-12070000D02*
X14530000Y-12090000D01*
X14530000Y-12070000D02*
X14510000Y-12090000D01*
X14510000Y-12230000D02*
X14530000Y-12250000D01*
X14530000Y-12230000D02*
X14510000Y-12250000D01*
X14513798Y-13177729D02*
X14533798Y-13197729D01*
X14533798Y-13177729D02*
X14513798Y-13197729D01*
X14522500Y-9352500D02*
X14542500Y-9372500D01*
X14542500Y-9352500D02*
X14522500Y-9372500D01*
X14526000Y-10322500D02*
X14546000Y-10342500D01*
X14546000Y-10322500D02*
X14526000Y-10342500D01*
X14540000Y-9594000D02*
X14560000Y-9614000D01*
X14560000Y-9594000D02*
X14540000Y-9614000D01*
X14540000Y-13094000D02*
X14560000Y-13114000D01*
X14560000Y-13094000D02*
X14540000Y-13114000D01*
X14550000Y-12350000D02*
X14570000Y-12370000D01*
X14570000Y-12350000D02*
X14550000Y-12370000D01*
X14560000Y-12787000D02*
X14580000Y-12807000D01*
X14580000Y-12787000D02*
X14560000Y-12807000D01*
X14590000Y-10710000D02*
X14610000Y-10730000D01*
X14610000Y-10710000D02*
X14590000Y-10730000D01*
X14590000Y-10790000D02*
X14610000Y-10810000D01*
X14610000Y-10790000D02*
X14590000Y-10810000D01*
X14590000Y-10870000D02*
X14610000Y-10890000D01*
X14610000Y-10870000D02*
X14590000Y-10890000D01*
X14590000Y-10950000D02*
X14610000Y-10970000D01*
X14610000Y-10950000D02*
X14590000Y-10970000D01*
X14590000Y-11030000D02*
X14610000Y-11050000D01*
X14610000Y-11030000D02*
X14590000Y-11050000D01*
X14590000Y-11110000D02*
X14610000Y-11130000D01*
X14610000Y-11110000D02*
X14590000Y-11130000D01*
X14590000Y-11190000D02*
X14610000Y-11210000D01*
X14610000Y-11190000D02*
X14590000Y-11210000D01*
X14590000Y-11350000D02*
X14610000Y-11370000D01*
X14610000Y-11350000D02*
X14590000Y-11370000D01*
X14590000Y-11430000D02*
X14610000Y-11450000D01*
X14610000Y-11430000D02*
X14590000Y-11450000D01*
X14590000Y-11510000D02*
X14610000Y-11530000D01*
X14610000Y-11510000D02*
X14590000Y-11530000D01*
X14590000Y-11590000D02*
X14610000Y-11610000D01*
X14610000Y-11590000D02*
X14590000Y-11610000D01*
X14590000Y-11670000D02*
X14610000Y-11690000D01*
X14610000Y-11670000D02*
X14590000Y-11690000D01*
X14590000Y-11750000D02*
X14610000Y-11770000D01*
X14610000Y-11750000D02*
X14590000Y-11770000D01*
X14590000Y-11830000D02*
X14610000Y-11850000D01*
X14610000Y-11830000D02*
X14590000Y-11850000D01*
X14590000Y-11990000D02*
X14610000Y-12010000D01*
X14610000Y-11990000D02*
X14590000Y-12010000D01*
X14590000Y-12150000D02*
X14610000Y-12170000D01*
X14610000Y-12150000D02*
X14590000Y-12170000D01*
X14592500Y-9352500D02*
X14612500Y-9372500D01*
X14612500Y-9352500D02*
X14592500Y-9372500D01*
X14620000Y-9286000D02*
X14640000Y-9306000D01*
X14640000Y-9286000D02*
X14620000Y-9306000D01*
X14670000Y-10870000D02*
X14690000Y-10890000D01*
X14690000Y-10870000D02*
X14670000Y-10890000D01*
X14670000Y-10950000D02*
X14690000Y-10970000D01*
X14690000Y-10950000D02*
X14670000Y-10970000D01*
X14670000Y-11030000D02*
X14690000Y-11050000D01*
X14690000Y-11030000D02*
X14670000Y-11050000D01*
X14670000Y-11110000D02*
X14690000Y-11130000D01*
X14690000Y-11110000D02*
X14670000Y-11130000D01*
X14670000Y-11190000D02*
X14690000Y-11210000D01*
X14690000Y-11190000D02*
X14670000Y-11210000D01*
X14670000Y-11270000D02*
X14690000Y-11290000D01*
X14690000Y-11270000D02*
X14670000Y-11290000D01*
X14670000Y-11350000D02*
X14690000Y-11370000D01*
X14690000Y-11350000D02*
X14670000Y-11370000D01*
X14670000Y-11430000D02*
X14690000Y-11450000D01*
X14690000Y-11430000D02*
X14670000Y-11450000D01*
X14670000Y-11510000D02*
X14690000Y-11530000D01*
X14690000Y-11510000D02*
X14670000Y-11530000D01*
X14670000Y-11590000D02*
X14690000Y-11610000D01*
X14690000Y-11590000D02*
X14670000Y-11610000D01*
X14670000Y-11670000D02*
X14690000Y-11690000D01*
X14690000Y-11670000D02*
X14670000Y-11690000D01*
X14670000Y-11750000D02*
X14690000Y-11770000D01*
X14690000Y-11750000D02*
X14670000Y-11770000D01*
X14670000Y-11910000D02*
X14690000Y-11930000D01*
X14690000Y-11910000D02*
X14670000Y-11930000D01*
X14670000Y-12150000D02*
X14690000Y-12170000D01*
X14690000Y-12150000D02*
X14670000Y-12170000D01*
X14670000Y-12230000D02*
X14690000Y-12250000D01*
X14690000Y-12230000D02*
X14670000Y-12250000D01*
X14670000Y-12310000D02*
X14690000Y-12330000D01*
X14690000Y-12310000D02*
X14670000Y-12330000D01*
X14710000Y-10670000D02*
X14730000Y-10690000D01*
X14730000Y-10670000D02*
X14710000Y-10690000D01*
X14750000Y-10790000D02*
X14770000Y-10810000D01*
X14770000Y-10790000D02*
X14750000Y-10810000D01*
X14750000Y-10870000D02*
X14770000Y-10890000D01*
X14770000Y-10870000D02*
X14750000Y-10890000D01*
X14750000Y-10950000D02*
X14770000Y-10970000D01*
X14770000Y-10950000D02*
X14750000Y-10970000D01*
X14750000Y-11030000D02*
X14770000Y-11050000D01*
X14770000Y-11030000D02*
X14750000Y-11050000D01*
X14750000Y-11110000D02*
X14770000Y-11130000D01*
X14770000Y-11110000D02*
X14750000Y-11130000D01*
X14750000Y-11190000D02*
X14770000Y-11210000D01*
X14770000Y-11190000D02*
X14750000Y-11210000D01*
X14750000Y-11270000D02*
X14770000Y-11290000D01*
X14770000Y-11270000D02*
X14750000Y-11290000D01*
X14750000Y-11430000D02*
X14770000Y-11450000D01*
X14770000Y-11430000D02*
X14750000Y-11450000D01*
X14750000Y-11510000D02*
X14770000Y-11530000D01*
X14770000Y-11510000D02*
X14750000Y-11530000D01*
X14750000Y-11590000D02*
X14770000Y-11610000D01*
X14770000Y-11590000D02*
X14750000Y-11610000D01*
X14750000Y-11670000D02*
X14770000Y-11690000D01*
X14770000Y-11670000D02*
X14750000Y-11690000D01*
X14750000Y-11830000D02*
X14770000Y-11850000D01*
X14770000Y-11830000D02*
X14750000Y-11850000D01*
X14750000Y-11910000D02*
X14770000Y-11930000D01*
X14770000Y-11910000D02*
X14750000Y-11930000D01*
X14750000Y-11990000D02*
X14770000Y-12010000D01*
X14770000Y-11990000D02*
X14750000Y-12010000D01*
X14750000Y-12070000D02*
X14770000Y-12090000D01*
X14770000Y-12070000D02*
X14750000Y-12090000D01*
X14750000Y-12230000D02*
X14770000Y-12250000D01*
X14770000Y-12230000D02*
X14750000Y-12250000D01*
X14758000Y-10159000D02*
X14778000Y-10179000D01*
X14778000Y-10159000D02*
X14758000Y-10179000D01*
X14803000Y-10002000D02*
X14823000Y-10022000D01*
X14823000Y-10002000D02*
X14803000Y-10022000D01*
X14805000Y-10080000D02*
X14825000Y-10100000D01*
X14825000Y-10080000D02*
X14805000Y-10100000D01*
X14823000Y-10187000D02*
X14843000Y-10207000D01*
X14843000Y-10187000D02*
X14823000Y-10207000D01*
X14830000Y-10870000D02*
X14850000Y-10890000D01*
X14850000Y-10870000D02*
X14830000Y-10890000D01*
X14830000Y-11190000D02*
X14850000Y-11210000D01*
X14850000Y-11190000D02*
X14830000Y-11210000D01*
X14830000Y-11670000D02*
X14850000Y-11690000D01*
X14850000Y-11670000D02*
X14830000Y-11690000D01*
X14830000Y-11910000D02*
X14850000Y-11930000D01*
X14850000Y-11910000D02*
X14830000Y-11930000D01*
X14830000Y-12070000D02*
X14850000Y-12090000D01*
X14850000Y-12070000D02*
X14830000Y-12090000D01*
X14870000Y-10990000D02*
X14890000Y-11010000D01*
X14890000Y-10990000D02*
X14870000Y-11010000D01*
X14870000Y-11390000D02*
X14890000Y-11410000D01*
X14890000Y-11390000D02*
X14870000Y-11410000D01*
X14870000Y-11790000D02*
X14890000Y-11810000D01*
X14890000Y-11790000D02*
X14870000Y-11810000D01*
X14870000Y-12190000D02*
X14890000Y-12210000D01*
X14890000Y-12190000D02*
X14870000Y-12210000D01*
X15100000Y-11780000D02*
X15120000Y-11800000D01*
X15120000Y-11780000D02*
X15100000Y-11800000D01*
X15175000Y-11130000D02*
X15195000Y-11150000D01*
X15195000Y-11130000D02*
X15175000Y-11150000D01*
X15177500Y-10927500D02*
X15197500Y-10947500D01*
X15197500Y-10927500D02*
X15177500Y-10947500D01*
X15180000Y-11967500D02*
X15200000Y-11987500D01*
X15200000Y-11967500D02*
X15180000Y-11987500D01*
X15186000Y-11330000D02*
X15206000Y-11350000D01*
X15206000Y-11330000D02*
X15186000Y-11350000D01*
X15286000Y-10290000D02*
X15306000Y-10310000D01*
X15306000Y-10290000D02*
X15286000Y-10310000D01*
X15286000Y-10410000D02*
X15306000Y-10430000D01*
X15306000Y-10410000D02*
X15286000Y-10430000D01*
X15286000Y-10530000D02*
X15306000Y-10550000D01*
X15306000Y-10530000D02*
X15286000Y-10550000D01*
X15286000Y-10730000D02*
X15306000Y-10750000D01*
X15306000Y-10730000D02*
X15286000Y-10750000D01*
X15286000Y-10930000D02*
X15306000Y-10950000D01*
X15306000Y-10930000D02*
X15286000Y-10950000D01*
X15286000Y-11130000D02*
X15306000Y-11150000D01*
X15306000Y-11130000D02*
X15286000Y-11150000D01*
X15286000Y-11330000D02*
X15306000Y-11350000D01*
X15306000Y-11330000D02*
X15286000Y-11350000D01*
X15286000Y-11530000D02*
X15306000Y-11550000D01*
X15306000Y-11530000D02*
X15286000Y-11550000D01*
X15286000Y-11770000D02*
X15306000Y-11790000D01*
X15306000Y-11770000D02*
X15286000Y-11790000D01*
X15286000Y-11970000D02*
X15306000Y-11990000D01*
X15306000Y-11970000D02*
X15286000Y-11990000D01*
X15286000Y-12170000D02*
X15306000Y-12190000D01*
X15306000Y-12170000D02*
X15286000Y-12190000D01*
X15360000Y-10735000D02*
X15380000Y-10755000D01*
X15380000Y-10735000D02*
X15360000Y-10755000D01*
X15362500Y-10932500D02*
X15382500Y-10952500D01*
X15382500Y-10932500D02*
X15362500Y-10952500D01*
X15375000Y-11742500D02*
X15395000Y-11762500D01*
X15395000Y-11742500D02*
X15375000Y-11762500D01*
X15439000Y-11989000D02*
X15459000Y-12009000D01*
X15459000Y-11989000D02*
X15439000Y-12009000D01*
X15490000Y-10505000D02*
X15510000Y-10525000D01*
X15510000Y-10505000D02*
X15490000Y-10525000D01*
X15492000Y-11265000D02*
X15512000Y-11285000D01*
X15512000Y-11265000D02*
X15492000Y-11285000D01*
X15492000Y-11335000D02*
X15512000Y-11355000D01*
X15512000Y-11335000D02*
X15492000Y-11355000D01*
X15497500Y-10635000D02*
X15517500Y-10655000D01*
X15517500Y-10635000D02*
X15497500Y-10655000D01*
X15501000Y-10991000D02*
X15521000Y-11011000D01*
X15521000Y-10991000D02*
X15501000Y-11011000D01*
X15501000Y-11869923D02*
X15521000Y-11889923D01*
X15521000Y-11869923D02*
X15501000Y-11889923D01*
X15501000Y-11939923D02*
X15521000Y-11959923D01*
X15521000Y-11939923D02*
X15501000Y-11959923D01*
X15503000Y-11066000D02*
X15523000Y-11086000D01*
X15523000Y-11066000D02*
X15503000Y-11086000D01*
X15503000Y-11136000D02*
X15523000Y-11156000D01*
X15523000Y-11136000D02*
X15503000Y-11156000D01*
X15508000Y-11462000D02*
X15528000Y-11482000D01*
X15528000Y-11462000D02*
X15508000Y-11482000D01*
X15508000Y-11532000D02*
X15528000Y-11552000D01*
X15528000Y-11532000D02*
X15508000Y-11552000D01*
X15514805Y-11730000D02*
X15534805Y-11750000D01*
X15534805Y-11730000D02*
X15514805Y-11750000D01*
X15515000Y-10765000D02*
X15535000Y-10785000D01*
X15535000Y-10765000D02*
X15515000Y-10785000D01*
X15515000Y-10835000D02*
X15535000Y-10855000D01*
X15535000Y-10835000D02*
X15515000Y-10855000D01*
X15515000Y-11660000D02*
X15535000Y-11680000D01*
X15535000Y-11660000D02*
X15515000Y-11680000D01*
X15517500Y-10360000D02*
X15537500Y-10380000D01*
X15537500Y-10360000D02*
X15517500Y-10380000D01*
X15517500Y-10430000D02*
X15537500Y-10450000D01*
X15537500Y-10430000D02*
X15517500Y-10450000D01*
X15594000Y-10250000D02*
X15614000Y-10270000D01*
X15614000Y-10250000D02*
X15594000Y-10270000D01*
X15594000Y-10850000D02*
X15614000Y-10870000D01*
X15614000Y-10850000D02*
X15594000Y-10870000D01*
X15594000Y-11050000D02*
X15614000Y-11070000D01*
X15614000Y-11050000D02*
X15594000Y-11070000D01*
X15594000Y-11250000D02*
X15614000Y-11270000D01*
X15614000Y-11250000D02*
X15594000Y-11270000D01*
X15594000Y-11450000D02*
X15614000Y-11470000D01*
X15614000Y-11450000D02*
X15594000Y-11470000D01*
X15594000Y-11650000D02*
X15614000Y-11670000D01*
X15614000Y-11650000D02*
X15594000Y-11670000D01*
X15594000Y-11850000D02*
X15614000Y-11870000D01*
X15614000Y-11850000D02*
X15594000Y-11870000D01*
X15594000Y-12090000D02*
X15614000Y-12110000D01*
X15614000Y-12090000D02*
X15594000Y-12110000D01*
X15595000Y-10450000D02*
X15615000Y-10470000D01*
X15615000Y-10450000D02*
X15595000Y-10470000D01*
X15595000Y-10650000D02*
X15615000Y-10670000D01*
X15615000Y-10650000D02*
X15595000Y-10670000D01*
X15675000Y-10665000D02*
X15695000Y-10685000D01*
X15695000Y-10665000D02*
X15675000Y-10685000D01*
X15675000Y-10735000D02*
X15695000Y-10755000D01*
X15695000Y-10735000D02*
X15675000Y-10755000D01*
X15680586Y-11989650D02*
X15700586Y-12009650D01*
X15700586Y-11989650D02*
X15680586Y-12009650D01*
X15680586Y-12059650D02*
X15700586Y-12079650D01*
X15700586Y-12059650D02*
X15680586Y-12079650D01*
X15681152Y-11755000D02*
X15701152Y-11775000D01*
X15701152Y-11755000D02*
X15681152Y-11775000D01*
X15681152Y-11825000D02*
X15701152Y-11845000D01*
X15701152Y-11825000D02*
X15681152Y-11845000D01*
X15681311Y-10466154D02*
X15701311Y-10486154D01*
X15701311Y-10466154D02*
X15681311Y-10486154D01*
X15681311Y-10546154D02*
X15701311Y-10566154D01*
X15701311Y-10546154D02*
X15681311Y-10566154D01*
X15682500Y-11155000D02*
X15702500Y-11175000D01*
X15702500Y-11155000D02*
X15682500Y-11175000D01*
X15682500Y-11225000D02*
X15702500Y-11245000D01*
X15702500Y-11225000D02*
X15682500Y-11245000D01*
X15684000Y-11082000D02*
X15704000Y-11102000D01*
X15704000Y-11082000D02*
X15684000Y-11102000D01*
X15685000Y-10870000D02*
X15705000Y-10890000D01*
X15705000Y-10870000D02*
X15685000Y-10890000D01*
X15685000Y-10940000D02*
X15705000Y-10960000D01*
X15705000Y-10940000D02*
X15685000Y-10960000D01*
X15685000Y-11010000D02*
X15705000Y-11030000D01*
X15705000Y-11010000D02*
X15685000Y-11030000D01*
X15685408Y-10268246D02*
X15705408Y-10288246D01*
X15705408Y-10268246D02*
X15685408Y-10288246D01*
X15685408Y-10348246D02*
X15705408Y-10368246D01*
X15705408Y-10348246D02*
X15685408Y-10368246D01*
X15687152Y-11552500D02*
X15707152Y-11572500D01*
X15707152Y-11552500D02*
X15687152Y-11572500D01*
X15687152Y-11622500D02*
X15707152Y-11642500D01*
X15707152Y-11622500D02*
X15687152Y-11642500D01*
X15687500Y-11355000D02*
X15707500Y-11375000D01*
X15707500Y-11355000D02*
X15687500Y-11375000D01*
X15687500Y-11425000D02*
X15707500Y-11445000D01*
X15707500Y-11425000D02*
X15687500Y-11445000D01*
X10847750Y-11820750D02*
G75*
G02*
X10822750Y-11820750I-12500J0D01*
G01*
X10822750Y-11820750D02*
G75*
G02*
X10847750Y-11820750I12500J0D01*
G01*
X10872500Y-9892000D02*
G75*
G02*
X10847500Y-9892000I-12500J0D01*
G01*
X10847500Y-9892000D02*
G75*
G02*
X10872500Y-9892000I12500J0D01*
G01*
X10875000Y-9794500D02*
G75*
G02*
X10850000Y-9794500I-12500J0D01*
G01*
X10850000Y-9794500D02*
G75*
G02*
X10875000Y-9794500I12500J0D01*
G01*
X10922500Y-10342000D02*
G75*
G02*
X10897500Y-10342000I-12500J0D01*
G01*
X10897500Y-10342000D02*
G75*
G02*
X10922500Y-10342000I12500J0D01*
G01*
X10925000Y-11142000D02*
G75*
G02*
X10900000Y-11142000I-12500J0D01*
G01*
X10900000Y-11142000D02*
G75*
G02*
X10925000Y-11142000I12500J0D01*
G01*
X10937500Y-10187500D02*
G75*
G02*
X10912500Y-10187500I-12500J0D01*
G01*
X10912500Y-10187500D02*
G75*
G02*
X10937500Y-10187500I12500J0D01*
G01*
X10937500Y-10959500D02*
G75*
G02*
X10912500Y-10959500I-12500J0D01*
G01*
X10912500Y-10959500D02*
G75*
G02*
X10937500Y-10959500I12500J0D01*
G01*
X10950250Y-11788250D02*
G75*
G02*
X10925250Y-11788250I-12500J0D01*
G01*
X10925250Y-11788250D02*
G75*
G02*
X10950250Y-11788250I12500J0D01*
G01*
X11022500Y-9847000D02*
G75*
G02*
X10997500Y-9847000I-12500J0D01*
G01*
X10997500Y-9847000D02*
G75*
G02*
X11022500Y-9847000I12500J0D01*
G01*
X11042500Y-10289500D02*
G75*
G02*
X11017500Y-10289500I-12500J0D01*
G01*
X11017500Y-10289500D02*
G75*
G02*
X11042500Y-10289500I12500J0D01*
G01*
X11052500Y-11062000D02*
G75*
G02*
X11027500Y-11062000I-12500J0D01*
G01*
X11027500Y-11062000D02*
G75*
G02*
X11052500Y-11062000I12500J0D01*
G01*
X11052500Y-11137000D02*
G75*
G02*
X11027500Y-11137000I-12500J0D01*
G01*
X11027500Y-11137000D02*
G75*
G02*
X11052500Y-11137000I12500J0D01*
G01*
X11170000Y-9797000D02*
G75*
G02*
X11145000Y-9797000I-12500J0D01*
G01*
X11145000Y-9797000D02*
G75*
G02*
X11170000Y-9797000I12500J0D01*
G01*
X11380500Y-10980000D02*
G75*
G02*
X11355500Y-10980000I-12500J0D01*
G01*
X11355500Y-10980000D02*
G75*
G02*
X11380500Y-10980000I12500J0D01*
G01*
X11441112Y-9709993D02*
G75*
G02*
X11416112Y-9709993I-12500J0D01*
G01*
X11416112Y-9709993D02*
G75*
G02*
X11441112Y-9709993I12500J0D01*
G01*
X11482500Y-9180000D02*
G75*
G02*
X11457500Y-9180000I-12500J0D01*
G01*
X11457500Y-9180000D02*
G75*
G02*
X11482500Y-9180000I12500J0D01*
G01*
X11486500Y-9433000D02*
G75*
G02*
X11461500Y-9433000I-12500J0D01*
G01*
X11461500Y-9433000D02*
G75*
G02*
X11486500Y-9433000I12500J0D01*
G01*
X11497500Y-9605000D02*
G75*
G02*
X11472500Y-9605000I-12500J0D01*
G01*
X11472500Y-9605000D02*
G75*
G02*
X11497500Y-9605000I12500J0D01*
G01*
X11522500Y-9720000D02*
G75*
G02*
X11497500Y-9720000I-12500J0D01*
G01*
X11497500Y-9720000D02*
G75*
G02*
X11522500Y-9720000I12500J0D01*
G01*
X11527500Y-10025000D02*
G75*
G02*
X11502500Y-10025000I-12500J0D01*
G01*
X11502500Y-10025000D02*
G75*
G02*
X11527500Y-10025000I12500J0D01*
G01*
X11528500Y-10130000D02*
G75*
G02*
X11503500Y-10130000I-12500J0D01*
G01*
X11503500Y-10130000D02*
G75*
G02*
X11528500Y-10130000I12500J0D01*
G01*
X11532500Y-9915000D02*
G75*
G02*
X11507500Y-9915000I-12500J0D01*
G01*
X11507500Y-9915000D02*
G75*
G02*
X11532500Y-9915000I12500J0D01*
G01*
X11547500Y-9283000D02*
G75*
G02*
X11522500Y-9283000I-12500J0D01*
G01*
X11522500Y-9283000D02*
G75*
G02*
X11547500Y-9283000I12500J0D01*
G01*
X11552500Y-12620000D02*
G75*
G02*
X11527500Y-12620000I-12500J0D01*
G01*
X11527500Y-12620000D02*
G75*
G02*
X11552500Y-12620000I12500J0D01*
G01*
X11582500Y-10280000D02*
G75*
G02*
X11557500Y-10280000I-12500J0D01*
G01*
X11557500Y-10280000D02*
G75*
G02*
X11582500Y-10280000I12500J0D01*
G01*
X11587500Y-10817000D02*
G75*
G02*
X11562500Y-10817000I-12500J0D01*
G01*
X11562500Y-10817000D02*
G75*
G02*
X11587500Y-10817000I12500J0D01*
G01*
X11590500Y-10720000D02*
G75*
G02*
X11565500Y-10720000I-12500J0D01*
G01*
X11565500Y-10720000D02*
G75*
G02*
X11590500Y-10720000I12500J0D01*
G01*
X11592500Y-9445000D02*
G75*
G02*
X11567500Y-9445000I-12500J0D01*
G01*
X11567500Y-9445000D02*
G75*
G02*
X11592500Y-9445000I12500J0D01*
G01*
X11598500Y-12078000D02*
G75*
G02*
X11573500Y-12078000I-12500J0D01*
G01*
X11573500Y-12078000D02*
G75*
G02*
X11598500Y-12078000I12500J0D01*
G01*
X11605500Y-9177500D02*
G75*
G02*
X11580500Y-9177500I-12500J0D01*
G01*
X11580500Y-9177500D02*
G75*
G02*
X11605500Y-9177500I12500J0D01*
G01*
X11622500Y-9545000D02*
G75*
G02*
X11597500Y-9545000I-12500J0D01*
G01*
X11597500Y-9545000D02*
G75*
G02*
X11622500Y-9545000I12500J0D01*
G01*
X11622500Y-9645000D02*
G75*
G02*
X11597500Y-9645000I-12500J0D01*
G01*
X11597500Y-9645000D02*
G75*
G02*
X11622500Y-9645000I12500J0D01*
G01*
X11622500Y-9745000D02*
G75*
G02*
X11597500Y-9745000I-12500J0D01*
G01*
X11597500Y-9745000D02*
G75*
G02*
X11622500Y-9745000I12500J0D01*
G01*
X11623500Y-10503000D02*
G75*
G02*
X11598500Y-10503000I-12500J0D01*
G01*
X11598500Y-10503000D02*
G75*
G02*
X11623500Y-10503000I12500J0D01*
G01*
X11625000Y-9282500D02*
G75*
G02*
X11600000Y-9282500I-12500J0D01*
G01*
X11600000Y-9282500D02*
G75*
G02*
X11625000Y-9282500I12500J0D01*
G01*
X11637500Y-9965000D02*
G75*
G02*
X11612500Y-9965000I-12500J0D01*
G01*
X11612500Y-9965000D02*
G75*
G02*
X11637500Y-9965000I12500J0D01*
G01*
X11637500Y-10080000D02*
G75*
G02*
X11612500Y-10080000I-12500J0D01*
G01*
X11612500Y-10080000D02*
G75*
G02*
X11637500Y-10080000I12500J0D01*
G01*
X11671500Y-10730000D02*
G75*
G02*
X11646500Y-10730000I-12500J0D01*
G01*
X11646500Y-10730000D02*
G75*
G02*
X11671500Y-10730000I12500J0D01*
G01*
X11672500Y-10170000D02*
G75*
G02*
X11647500Y-10170000I-12500J0D01*
G01*
X11647500Y-10170000D02*
G75*
G02*
X11672500Y-10170000I12500J0D01*
G01*
X11730000Y-9760000D02*
G75*
G02*
X11705000Y-9760000I-12500J0D01*
G01*
X11705000Y-9760000D02*
G75*
G02*
X11730000Y-9760000I12500J0D01*
G01*
X11737500Y-10102500D02*
G75*
G02*
X11712500Y-10102500I-12500J0D01*
G01*
X11712500Y-10102500D02*
G75*
G02*
X11737500Y-10102500I12500J0D01*
G01*
X11737500Y-10400000D02*
G75*
G02*
X11712500Y-10400000I-12500J0D01*
G01*
X11712500Y-10400000D02*
G75*
G02*
X11737500Y-10400000I12500J0D01*
G01*
X11737500Y-12685000D02*
G75*
G02*
X11712500Y-12685000I-12500J0D01*
G01*
X11712500Y-12685000D02*
G75*
G02*
X11737500Y-12685000I12500J0D01*
G01*
X11741500Y-12589000D02*
G75*
G02*
X11716500Y-12589000I-12500J0D01*
G01*
X11716500Y-12589000D02*
G75*
G02*
X11741500Y-12589000I12500J0D01*
G01*
X11742500Y-10290000D02*
G75*
G02*
X11717500Y-10290000I-12500J0D01*
G01*
X11717500Y-10290000D02*
G75*
G02*
X11742500Y-10290000I12500J0D01*
G01*
X11742700Y-9274800D02*
G75*
G02*
X11717700Y-9274800I-12500J0D01*
G01*
X11717700Y-9274800D02*
G75*
G02*
X11742700Y-9274800I12500J0D01*
G01*
X11742700Y-9965200D02*
G75*
G02*
X11717700Y-9965200I-12500J0D01*
G01*
X11717700Y-9965200D02*
G75*
G02*
X11742700Y-9965200I12500J0D01*
G01*
X11762500Y-9852500D02*
G75*
G02*
X11737500Y-9852500I-12500J0D01*
G01*
X11737500Y-9852500D02*
G75*
G02*
X11762500Y-9852500I12500J0D01*
G01*
X11769500Y-9690000D02*
G75*
G02*
X11744500Y-9690000I-12500J0D01*
G01*
X11744500Y-9690000D02*
G75*
G02*
X11769500Y-9690000I12500J0D01*
G01*
X11770000Y-9182500D02*
G75*
G02*
X11745000Y-9182500I-12500J0D01*
G01*
X11745000Y-9182500D02*
G75*
G02*
X11770000Y-9182500I12500J0D01*
G01*
X11835000Y-9370000D02*
G75*
G02*
X11810000Y-9370000I-12500J0D01*
G01*
X11810000Y-9370000D02*
G75*
G02*
X11835000Y-9370000I12500J0D01*
G01*
X11842500Y-9965000D02*
G75*
G02*
X11817500Y-9965000I-12500J0D01*
G01*
X11817500Y-9965000D02*
G75*
G02*
X11842500Y-9965000I12500J0D01*
G01*
X11872500Y-12610000D02*
G75*
G02*
X11847500Y-12610000I-12500J0D01*
G01*
X11847500Y-12610000D02*
G75*
G02*
X11872500Y-12610000I12500J0D01*
G01*
X11892700Y-9180000D02*
G75*
G02*
X11867700Y-9180000I-12500J0D01*
G01*
X11867700Y-9180000D02*
G75*
G02*
X11892700Y-9180000I12500J0D01*
G01*
X11910000Y-13112300D02*
G75*
G02*
X11885000Y-13112300I-12500J0D01*
G01*
X11885000Y-13112300D02*
G75*
G02*
X11910000Y-13112300I12500J0D01*
G01*
X11910000Y-12815000D02*
G75*
G02*
X11885000Y-12815000I-12500J0D01*
G01*
X11885000Y-12815000D02*
G75*
G02*
X11910000Y-12815000I12500J0D01*
G01*
X11942500Y-9275000D02*
G75*
G02*
X11917500Y-9275000I-12500J0D01*
G01*
X11917500Y-9275000D02*
G75*
G02*
X11942500Y-9275000I12500J0D01*
G01*
X11951500Y-12586000D02*
G75*
G02*
X11926500Y-12586000I-12500J0D01*
G01*
X11926500Y-12586000D02*
G75*
G02*
X11951500Y-12586000I12500J0D01*
G01*
X11952500Y-10090000D02*
G75*
G02*
X11927500Y-10090000I-12500J0D01*
G01*
X11927500Y-10090000D02*
G75*
G02*
X11952500Y-10090000I12500J0D01*
G01*
X11952500Y-10570000D02*
G75*
G02*
X11927500Y-10570000I-12500J0D01*
G01*
X11927500Y-10570000D02*
G75*
G02*
X11952500Y-10570000I12500J0D01*
G01*
X11967500Y-9772000D02*
G75*
G02*
X11942500Y-9772000I-12500J0D01*
G01*
X11942500Y-9772000D02*
G75*
G02*
X11967500Y-9772000I12500J0D01*
G01*
X11970000Y-9370000D02*
G75*
G02*
X11945000Y-9370000I-12500J0D01*
G01*
X11945000Y-9370000D02*
G75*
G02*
X11970000Y-9370000I12500J0D01*
G01*
X11982500Y-9170000D02*
G75*
G02*
X11957500Y-9170000I-12500J0D01*
G01*
X11957500Y-9170000D02*
G75*
G02*
X11982500Y-9170000I12500J0D01*
G01*
X11982500Y-10400000D02*
G75*
G02*
X11957500Y-10400000I-12500J0D01*
G01*
X11957500Y-10400000D02*
G75*
G02*
X11982500Y-10400000I12500J0D01*
G01*
X12007500Y-13135000D02*
G75*
G02*
X11982500Y-13135000I-12500J0D01*
G01*
X11982500Y-13135000D02*
G75*
G02*
X12007500Y-13135000I12500J0D01*
G01*
X12047500Y-10470000D02*
G75*
G02*
X12022500Y-10470000I-12500J0D01*
G01*
X12022500Y-10470000D02*
G75*
G02*
X12047500Y-10470000I12500J0D01*
G01*
X12087500Y-10065000D02*
G75*
G02*
X12062500Y-10065000I-12500J0D01*
G01*
X12062500Y-10065000D02*
G75*
G02*
X12087500Y-10065000I12500J0D01*
G01*
X12092500Y-9277500D02*
G75*
G02*
X12067500Y-9277500I-12500J0D01*
G01*
X12067500Y-9277500D02*
G75*
G02*
X12092500Y-9277500I12500J0D01*
G01*
X12092500Y-9960000D02*
G75*
G02*
X12067500Y-9960000I-12500J0D01*
G01*
X12067500Y-9960000D02*
G75*
G02*
X12092500Y-9960000I12500J0D01*
G01*
X12112500Y-9367500D02*
G75*
G02*
X12087500Y-9367500I-12500J0D01*
G01*
X12087500Y-9367500D02*
G75*
G02*
X12112500Y-9367500I12500J0D01*
G01*
X12142500Y-12575000D02*
G75*
G02*
X12117500Y-12575000I-12500J0D01*
G01*
X12117500Y-12575000D02*
G75*
G02*
X12142500Y-12575000I12500J0D01*
G01*
X12157500Y-9770000D02*
G75*
G02*
X12132500Y-9770000I-12500J0D01*
G01*
X12132500Y-9770000D02*
G75*
G02*
X12157500Y-9770000I12500J0D01*
G01*
X12182500Y-10080000D02*
G75*
G02*
X12157500Y-10080000I-12500J0D01*
G01*
X12157500Y-10080000D02*
G75*
G02*
X12182500Y-10080000I12500J0D01*
G01*
X12202500Y-10350000D02*
G75*
G02*
X12177500Y-10350000I-12500J0D01*
G01*
X12177500Y-10350000D02*
G75*
G02*
X12202500Y-10350000I12500J0D01*
G01*
X12264500Y-10069000D02*
G75*
G02*
X12239500Y-10069000I-12500J0D01*
G01*
X12239500Y-10069000D02*
G75*
G02*
X12264500Y-10069000I12500J0D01*
G01*
X12292500Y-9950000D02*
G75*
G02*
X12267500Y-9950000I-12500J0D01*
G01*
X12267500Y-9950000D02*
G75*
G02*
X12292500Y-9950000I12500J0D01*
G01*
X12302500Y-9795000D02*
G75*
G02*
X12277500Y-9795000I-12500J0D01*
G01*
X12277500Y-9795000D02*
G75*
G02*
X12302500Y-9795000I12500J0D01*
G01*
X12320500Y-12588000D02*
G75*
G02*
X12295500Y-12588000I-12500J0D01*
G01*
X12295500Y-12588000D02*
G75*
G02*
X12320500Y-12588000I12500J0D01*
G01*
X12332500Y-10199000D02*
G75*
G02*
X12307500Y-10199000I-12500J0D01*
G01*
X12307500Y-10199000D02*
G75*
G02*
X12332500Y-10199000I12500J0D01*
G01*
X12342500Y-10580000D02*
G75*
G02*
X12317500Y-10580000I-12500J0D01*
G01*
X12317500Y-10580000D02*
G75*
G02*
X12342500Y-10580000I12500J0D01*
G01*
X12392500Y-9845000D02*
G75*
G02*
X12367500Y-9845000I-12500J0D01*
G01*
X12367500Y-9845000D02*
G75*
G02*
X12392500Y-9845000I12500J0D01*
G01*
X12392500Y-10030000D02*
G75*
G02*
X12367500Y-10030000I-12500J0D01*
G01*
X12367500Y-10030000D02*
G75*
G02*
X12392500Y-10030000I12500J0D01*
G01*
X12422500Y-9317500D02*
G75*
G02*
X12397500Y-9317500I-12500J0D01*
G01*
X12397500Y-9317500D02*
G75*
G02*
X12422500Y-9317500I12500J0D01*
G01*
X12422500Y-10120000D02*
G75*
G02*
X12397500Y-10120000I-12500J0D01*
G01*
X12397500Y-10120000D02*
G75*
G02*
X12422500Y-10120000I12500J0D01*
G01*
X12427500Y-9735000D02*
G75*
G02*
X12402500Y-9735000I-12500J0D01*
G01*
X12402500Y-9735000D02*
G75*
G02*
X12427500Y-9735000I12500J0D01*
G01*
X12480500Y-9869000D02*
G75*
G02*
X12455500Y-9869000I-12500J0D01*
G01*
X12455500Y-9869000D02*
G75*
G02*
X12480500Y-9869000I12500J0D01*
G01*
X12502500Y-9412500D02*
G75*
G02*
X12477500Y-9412500I-12500J0D01*
G01*
X12477500Y-9412500D02*
G75*
G02*
X12502500Y-9412500I12500J0D01*
G01*
X12542500Y-10095000D02*
G75*
G02*
X12517500Y-10095000I-12500J0D01*
G01*
X12517500Y-10095000D02*
G75*
G02*
X12542500Y-10095000I12500J0D01*
G01*
X12563500Y-9610000D02*
G75*
G02*
X12538500Y-9610000I-12500J0D01*
G01*
X12538500Y-9610000D02*
G75*
G02*
X12563500Y-9610000I12500J0D01*
G01*
X12586200Y-10000197D02*
G75*
G02*
X12561200Y-10000197I-12500J0D01*
G01*
X12561200Y-10000197D02*
G75*
G02*
X12586200Y-10000197I12500J0D01*
G01*
X12627500Y-9662000D02*
G75*
G02*
X12602500Y-9662000I-12500J0D01*
G01*
X12602500Y-9662000D02*
G75*
G02*
X12627500Y-9662000I12500J0D01*
G01*
X12645000Y-12700000D02*
G75*
G02*
X12620000Y-12700000I-12500J0D01*
G01*
X12620000Y-12700000D02*
G75*
G02*
X12645000Y-12700000I12500J0D01*
G01*
X12692500Y-10590000D02*
G75*
G02*
X12667500Y-10590000I-12500J0D01*
G01*
X12667500Y-10590000D02*
G75*
G02*
X12692500Y-10590000I12500J0D01*
G01*
X12695500Y-9899000D02*
G75*
G02*
X12670500Y-9899000I-12500J0D01*
G01*
X12670500Y-9899000D02*
G75*
G02*
X12695500Y-9899000I12500J0D01*
G01*
X12702500Y-9760000D02*
G75*
G02*
X12677500Y-9760000I-12500J0D01*
G01*
X12677500Y-9760000D02*
G75*
G02*
X12702500Y-9760000I12500J0D01*
G01*
X12702500Y-10330000D02*
G75*
G02*
X12677500Y-10330000I-12500J0D01*
G01*
X12677500Y-10330000D02*
G75*
G02*
X12702500Y-10330000I12500J0D01*
G01*
X12705000Y-10463500D02*
G75*
G02*
X12680000Y-10463500I-12500J0D01*
G01*
X12680000Y-10463500D02*
G75*
G02*
X12705000Y-10463500I12500J0D01*
G01*
X12727500Y-12655000D02*
G75*
G02*
X12702500Y-12655000I-12500J0D01*
G01*
X12702500Y-12655000D02*
G75*
G02*
X12727500Y-12655000I12500J0D01*
G01*
X12747500Y-13190000D02*
G75*
G02*
X12722500Y-13190000I-12500J0D01*
G01*
X12722500Y-13190000D02*
G75*
G02*
X12747500Y-13190000I12500J0D01*
G01*
X12807500Y-12637500D02*
G75*
G02*
X12782500Y-12637500I-12500J0D01*
G01*
X12782500Y-12637500D02*
G75*
G02*
X12807500Y-12637500I12500J0D01*
G01*
X12842500Y-13187000D02*
G75*
G02*
X12817500Y-13187000I-12500J0D01*
G01*
X12817500Y-13187000D02*
G75*
G02*
X12842500Y-13187000I12500J0D01*
G01*
X12891500Y-12599000D02*
G75*
G02*
X12866500Y-12599000I-12500J0D01*
G01*
X12866500Y-12599000D02*
G75*
G02*
X12891500Y-12599000I12500J0D01*
G01*
X12902500Y-12865000D02*
G75*
G02*
X12877500Y-12865000I-12500J0D01*
G01*
X12877500Y-12865000D02*
G75*
G02*
X12902500Y-12865000I12500J0D01*
G01*
X12928500Y-13021000D02*
G75*
G02*
X12903500Y-13021000I-12500J0D01*
G01*
X12903500Y-13021000D02*
G75*
G02*
X12928500Y-13021000I12500J0D01*
G01*
X12930500Y-13185000D02*
G75*
G02*
X12905500Y-13185000I-12500J0D01*
G01*
X12905500Y-13185000D02*
G75*
G02*
X12930500Y-13185000I12500J0D01*
G01*
X12935000Y-12935000D02*
G75*
G02*
X12910000Y-12935000I-12500J0D01*
G01*
X12910000Y-12935000D02*
G75*
G02*
X12935000Y-12935000I12500J0D01*
G01*
X12965000Y-10542500D02*
G75*
G02*
X12940000Y-10542500I-12500J0D01*
G01*
X12940000Y-10542500D02*
G75*
G02*
X12965000Y-10542500I12500J0D01*
G01*
X13007500Y-13020000D02*
G75*
G02*
X12982500Y-13020000I-12500J0D01*
G01*
X12982500Y-13020000D02*
G75*
G02*
X13007500Y-13020000I12500J0D01*
G01*
X13016500Y-13188000D02*
G75*
G02*
X12991500Y-13188000I-12500J0D01*
G01*
X12991500Y-13188000D02*
G75*
G02*
X13016500Y-13188000I12500J0D01*
G01*
X13034500Y-12917000D02*
G75*
G02*
X13009500Y-12917000I-12500J0D01*
G01*
X13009500Y-12917000D02*
G75*
G02*
X13034500Y-12917000I12500J0D01*
G01*
X13095000Y-13020000D02*
G75*
G02*
X13070000Y-13020000I-12500J0D01*
G01*
X13070000Y-13020000D02*
G75*
G02*
X13095000Y-13020000I12500J0D01*
G01*
X13490000Y-9782500D02*
G75*
G02*
X13465000Y-9782500I-12500J0D01*
G01*
X13465000Y-9782500D02*
G75*
G02*
X13490000Y-9782500I12500J0D01*
G01*
X13585000Y-9692500D02*
G75*
G02*
X13560000Y-9692500I-12500J0D01*
G01*
X13560000Y-9692500D02*
G75*
G02*
X13585000Y-9692500I12500J0D01*
G01*
X13607500Y-9160000D02*
G75*
G02*
X13582500Y-9160000I-12500J0D01*
G01*
X13582500Y-9160000D02*
G75*
G02*
X13607500Y-9160000I12500J0D01*
G01*
X13672500Y-9872500D02*
G75*
G02*
X13647500Y-9872500I-12500J0D01*
G01*
X13647500Y-9872500D02*
G75*
G02*
X13672500Y-9872500I12500J0D01*
G01*
X13700000Y-12950000D02*
G75*
G02*
X13675000Y-12950000I-12500J0D01*
G01*
X13675000Y-12950000D02*
G75*
G02*
X13700000Y-12950000I12500J0D01*
G01*
X13792500Y-9593000D02*
G75*
G02*
X13767500Y-9593000I-12500J0D01*
G01*
X13767500Y-9593000D02*
G75*
G02*
X13792500Y-9593000I12500J0D01*
G01*
X13792500Y-9661000D02*
G75*
G02*
X13767500Y-9661000I-12500J0D01*
G01*
X13767500Y-9661000D02*
G75*
G02*
X13792500Y-9661000I12500J0D01*
G01*
X14303500Y-10267000D02*
G75*
G02*
X14278500Y-10267000I-12500J0D01*
G01*
X14278500Y-10267000D02*
G75*
G02*
X14303500Y-10267000I12500J0D01*
G01*
X14388500Y-9737000D02*
G75*
G02*
X14363500Y-9737000I-12500J0D01*
G01*
X14363500Y-9737000D02*
G75*
G02*
X14388500Y-9737000I12500J0D01*
G01*
X14588500Y-9737000D02*
G75*
G02*
X14563500Y-9737000I-12500J0D01*
G01*
X14563500Y-9737000D02*
G75*
G02*
X14588500Y-9737000I12500J0D01*
G01*
X14781500Y-9928000D02*
G75*
G02*
X14756500Y-9928000I-12500J0D01*
G01*
X14756500Y-9928000D02*
G75*
G02*
X14781500Y-9928000I12500J0D01*
G01*
X14850000Y-9410000D02*
G75*
G02*
X14825000Y-9410000I-12500J0D01*
G01*
X14825000Y-9410000D02*
G75*
G02*
X14850000Y-9410000I12500J0D01*
G01*
X14897500Y-9730000D02*
G75*
G02*
X14872500Y-9730000I-12500J0D01*
G01*
X14872500Y-9730000D02*
G75*
G02*
X14897500Y-9730000I12500J0D01*
G01*
X14937500Y-9910000D02*
G75*
G02*
X14912500Y-9910000I-12500J0D01*
G01*
X14912500Y-9910000D02*
G75*
G02*
X14937500Y-9910000I12500J0D01*
G01*
X14965000Y-9302500D02*
G75*
G02*
X14940000Y-9302500I-12500J0D01*
G01*
X14940000Y-9302500D02*
G75*
G02*
X14965000Y-9302500I12500J0D01*
G01*
X14965000Y-9400500D02*
G75*
G02*
X14940000Y-9400500I-12500J0D01*
G01*
X14940000Y-9400500D02*
G75*
G02*
X14965000Y-9400500I12500J0D01*
G01*
X14965000Y-9657500D02*
G75*
G02*
X14940000Y-9657500I-12500J0D01*
G01*
X14940000Y-9657500D02*
G75*
G02*
X14965000Y-9657500I12500J0D01*
G01*
X14995000Y-9537500D02*
G75*
G02*
X14970000Y-9537500I-12500J0D01*
G01*
X14970000Y-9537500D02*
G75*
G02*
X14995000Y-9537500I12500J0D01*
G01*
X15050000Y-9362500D02*
G75*
G02*
X15025000Y-9362500I-12500J0D01*
G01*
X15025000Y-9362500D02*
G75*
G02*
X15050000Y-9362500I12500J0D01*
G01*
X15059500Y-9612000D02*
G75*
G02*
X15034500Y-9612000I-12500J0D01*
G01*
X15034500Y-9612000D02*
G75*
G02*
X15059500Y-9612000I12500J0D01*
G01*
X15062500Y-13136000D02*
G75*
G02*
X15037500Y-13136000I-12500J0D01*
G01*
X15037500Y-13136000D02*
G75*
G02*
X15062500Y-13136000I12500J0D01*
G01*
X15067500Y-9462500D02*
G75*
G02*
X15042500Y-9462500I-12500J0D01*
G01*
X15042500Y-9462500D02*
G75*
G02*
X15067500Y-9462500I12500J0D01*
G01*
X15137500Y-9540000D02*
G75*
G02*
X15112500Y-9540000I-12500J0D01*
G01*
X15112500Y-9540000D02*
G75*
G02*
X15137500Y-9540000I12500J0D01*
G01*
X15187500Y-9755000D02*
G75*
G02*
X15162500Y-9755000I-12500J0D01*
G01*
X15162500Y-9755000D02*
G75*
G02*
X15187500Y-9755000I12500J0D01*
G01*
X15212000Y-11765000D02*
G75*
G02*
X15187000Y-11765000I-12500J0D01*
G01*
X15187000Y-11765000D02*
G75*
G02*
X15212000Y-11765000I12500J0D01*
G01*
X15407500Y-9790000D02*
G75*
G02*
X15382500Y-9790000I-12500J0D01*
G01*
X15382500Y-9790000D02*
G75*
G02*
X15407500Y-9790000I12500J0D01*
G01*
X15412500Y-12450000D02*
G75*
G02*
X15387500Y-12450000I-12500J0D01*
G01*
X15387500Y-12450000D02*
G75*
G02*
X15412500Y-12450000I12500J0D01*
G01*
X12845000Y-10014000D02*
X12845000Y-10044000D01*
X12830000Y-10029000D02*
X12860000Y-10029000D01*
X12845000Y-10110000D02*
X12845000Y-10140000D01*
X12830000Y-10125000D02*
X12860000Y-10125000D01*
X12965000Y-9745000D02*
X12965000Y-9775000D01*
X12950000Y-9760000D02*
X12980000Y-9760000D01*
X12967500Y-9587500D02*
X12967500Y-9617500D01*
X12952500Y-9602500D02*
X12982500Y-9602500D01*
X12970000Y-9280000D02*
X12970000Y-9310000D01*
X12955000Y-9295000D02*
X12985000Y-9295000D01*
X12997500Y-10277500D02*
X12997500Y-10307500D01*
X12982500Y-10292500D02*
X13012500Y-10292500D01*
X13092500Y-10277500D02*
X13092500Y-10307500D01*
X13077500Y-10292500D02*
X13107500Y-10292500D01*
X13145000Y-9902500D02*
X13145000Y-9932500D01*
X13130000Y-9917500D02*
X13160000Y-9917500D01*
X13150000Y-9785000D02*
X13150000Y-9815000D01*
X13135000Y-9800000D02*
X13165000Y-9800000D01*
X13152500Y-9690000D02*
X13152500Y-9720000D01*
X13137500Y-9705000D02*
X13167500Y-9705000D01*
X13182500Y-9365000D02*
X13182500Y-9395000D01*
X13167500Y-9380000D02*
X13197500Y-9380000D01*
X13465000Y-9860000D02*
X13465000Y-9890000D01*
X13450000Y-9875000D02*
X13480000Y-9875000D01*
X13845000Y-9880000D02*
X13845000Y-9910000D01*
X13830000Y-9895000D02*
X13860000Y-9895000D01*
X13995000Y-9840000D02*
X13995000Y-9870000D01*
X13980000Y-9855000D02*
X14010000Y-9855000D01*
X14155000Y-9697500D02*
X14155000Y-9727500D01*
X14140000Y-9712500D02*
X14170000Y-9712500D01*
X14240000Y-9797500D02*
X14240000Y-9827500D01*
X14225000Y-9812500D02*
X14255000Y-9812500D01*
X14322500Y-10035500D02*
X14322500Y-10065500D01*
X14307500Y-10050500D02*
X14337500Y-10050500D01*
X14325000Y-10149500D02*
X14325000Y-10179500D01*
X14310000Y-10164500D02*
X14340000Y-10164500D01*
X14377500Y-9852500D02*
X14377500Y-9882500D01*
X14362500Y-9867500D02*
X14392500Y-9867500D01*
X14517500Y-9942000D02*
X14517500Y-9972000D01*
X14502500Y-9957000D02*
X14532500Y-9957000D01*
X14550000Y-10175000D02*
X14550000Y-10205000D01*
X14535000Y-10190000D02*
X14565000Y-10190000D01*
X14572500Y-9855000D02*
X14572500Y-9885000D01*
X14557500Y-9870000D02*
X14587500Y-9870000D01*
X14587500Y-10382500D02*
X14587500Y-10412500D01*
X14572500Y-10397500D02*
X14602500Y-10397500D01*
X14635000Y-9910000D02*
X14635000Y-9940000D01*
X14620000Y-9925000D02*
X14650000Y-9925000D01*
X14707500Y-10357500D02*
X14707500Y-10387500D01*
X14692500Y-10372500D02*
X14722500Y-10372500D01*
X14707500Y-10455000D02*
X14707500Y-10485000D01*
X14692500Y-10470000D02*
X14722500Y-10470000D01*
X14719000Y-9811000D02*
X14719000Y-9841000D01*
X14704000Y-9826000D02*
X14734000Y-9826000D01*
X14732000Y-9702000D02*
X14732000Y-9732000D01*
X14717000Y-9717000D02*
X14747000Y-9717000D01*
X14802500Y-10357500D02*
X14802500Y-10387500D01*
X14787500Y-10372500D02*
X14817500Y-10372500D01*
X14802500Y-10452500D02*
X14802500Y-10482500D01*
X14787500Y-10467500D02*
X14817500Y-10467500D01*
X14910000Y-10045000D02*
X14910000Y-10075000D01*
X14895000Y-10060000D02*
X14925000Y-10060000D01*
X14910000Y-10143000D02*
X14910000Y-10173000D01*
X14895000Y-10158000D02*
X14925000Y-10158000D01*
X15020000Y-10160000D02*
X15020000Y-10190000D01*
X15005000Y-10175000D02*
X15035000Y-10175000D01*
X15025000Y-10048000D02*
X15025000Y-10078000D01*
X15010000Y-10063000D02*
X15040000Y-10063000D01*
X15047500Y-12495000D02*
X15047500Y-12525000D01*
X15032500Y-12510000D02*
X15062500Y-12510000D01*
X15165000Y-12722500D02*
X15165000Y-12752500D01*
X15150000Y-12737500D02*
X15180000Y-12737500D01*
X15185000Y-12592500D02*
X15185000Y-12622500D01*
X15170000Y-12607500D02*
X15200000Y-12607500D01*
X15322500Y-12600000D02*
X15322500Y-12630000D01*
X15307500Y-12615000D02*
X15337500Y-12615000D01*
X15640000Y-9755000D02*
X15640000Y-9785000D01*
X15625000Y-9770000D02*
X15655000Y-9770000D01*
X10844142Y-10017142D02*
X10844142Y-9988858D01*
X10815858Y-9988858D01*
X10815858Y-10017142D01*
X10844142Y-10017142D01*
X10844142Y-10116142D02*
X10844142Y-10087858D01*
X10815858Y-10087858D01*
X10815858Y-10116142D01*
X10844142Y-10116142D01*
X10849142Y-10791142D02*
X10849142Y-10762858D01*
X10820858Y-10762858D01*
X10820858Y-10791142D01*
X10849142Y-10791142D01*
X10849142Y-10889142D02*
X10849142Y-10860858D01*
X10820858Y-10860858D01*
X10820858Y-10889142D01*
X10849142Y-10889142D01*
X10874142Y-12264142D02*
X10874142Y-12235858D01*
X10845858Y-12235858D01*
X10845858Y-12264142D01*
X10874142Y-12264142D01*
X10874142Y-12384142D02*
X10874142Y-12355858D01*
X10845858Y-12355858D01*
X10845858Y-12384142D01*
X10874142Y-12384142D01*
X10883142Y-12546142D02*
X10883142Y-12517858D01*
X10854858Y-12517858D01*
X10854858Y-12546142D01*
X10883142Y-12546142D01*
X10913142Y-11555892D02*
X10913142Y-11527608D01*
X10884858Y-11527608D01*
X10884858Y-11555892D01*
X10913142Y-11555892D01*
X10913142Y-11661142D02*
X10913142Y-11632858D01*
X10884858Y-11632858D01*
X10884858Y-11661142D01*
X10913142Y-11661142D01*
X10934142Y-11261142D02*
X10934142Y-11232858D01*
X10905858Y-11232858D01*
X10905858Y-11261142D01*
X10934142Y-11261142D01*
X10934142Y-11361142D02*
X10934142Y-11332858D01*
X10905858Y-11332858D01*
X10905858Y-11361142D01*
X10934142Y-11361142D01*
X10935142Y-10472642D02*
X10935142Y-10444358D01*
X10906858Y-10444358D01*
X10906858Y-10472642D01*
X10935142Y-10472642D01*
X10935142Y-10572642D02*
X10935142Y-10544358D01*
X10906858Y-10544358D01*
X10906858Y-10572642D01*
X10935142Y-10572642D01*
X10944142Y-10016142D02*
X10944142Y-9987858D01*
X10915858Y-9987858D01*
X10915858Y-10016142D01*
X10944142Y-10016142D01*
X10944142Y-10115142D02*
X10944142Y-10086858D01*
X10915858Y-10086858D01*
X10915858Y-10115142D01*
X10944142Y-10115142D01*
X10944142Y-10791142D02*
X10944142Y-10762858D01*
X10915858Y-10762858D01*
X10915858Y-10791142D01*
X10944142Y-10791142D01*
X10944142Y-10889142D02*
X10944142Y-10860858D01*
X10915858Y-10860858D01*
X10915858Y-10889142D01*
X10944142Y-10889142D01*
X10984142Y-12264142D02*
X10984142Y-12235858D01*
X10955858Y-12235858D01*
X10955858Y-12264142D01*
X10984142Y-12264142D01*
X10984142Y-12384142D02*
X10984142Y-12355858D01*
X10955858Y-12355858D01*
X10955858Y-12384142D01*
X10984142Y-12384142D01*
X11013142Y-11555892D02*
X11013142Y-11527608D01*
X10984858Y-11527608D01*
X10984858Y-11555892D01*
X11013142Y-11555892D01*
X11013142Y-11661142D02*
X11013142Y-11632858D01*
X10984858Y-11632858D01*
X10984858Y-11661142D01*
X11013142Y-11661142D01*
X11031892Y-11972392D02*
X11031892Y-11944108D01*
X11003608Y-11944108D01*
X11003608Y-11972392D01*
X11031892Y-11972392D01*
X11031892Y-12072392D02*
X11031892Y-12044108D01*
X11003608Y-12044108D01*
X11003608Y-12072392D01*
X11031892Y-12072392D01*
X11032142Y-11872142D02*
X11032142Y-11843858D01*
X11003858Y-11843858D01*
X11003858Y-11872142D01*
X11032142Y-11872142D01*
X11034142Y-10472642D02*
X11034142Y-10444358D01*
X11005858Y-10444358D01*
X11005858Y-10472642D01*
X11034142Y-10472642D01*
X11034142Y-10572642D02*
X11034142Y-10544358D01*
X11005858Y-10544358D01*
X11005858Y-10572642D01*
X11034142Y-10572642D01*
X11034142Y-11261142D02*
X11034142Y-11232858D01*
X11005858Y-11232858D01*
X11005858Y-11261142D01*
X11034142Y-11261142D01*
X11034142Y-11361142D02*
X11034142Y-11332858D01*
X11005858Y-11332858D01*
X11005858Y-11361142D01*
X11034142Y-11361142D01*
X11044142Y-10016142D02*
X11044142Y-9987858D01*
X11015858Y-9987858D01*
X11015858Y-10016142D01*
X11044142Y-10016142D01*
X11044142Y-10115142D02*
X11044142Y-10086858D01*
X11015858Y-10086858D01*
X11015858Y-10115142D01*
X11044142Y-10115142D01*
X11044142Y-10791142D02*
X11044142Y-10762858D01*
X11015858Y-10762858D01*
X11015858Y-10791142D01*
X11044142Y-10791142D01*
X11044142Y-10889142D02*
X11044142Y-10860858D01*
X11015858Y-10860858D01*
X11015858Y-10889142D01*
X11044142Y-10889142D01*
X11131892Y-11972392D02*
X11131892Y-11944108D01*
X11103608Y-11944108D01*
X11103608Y-11972392D01*
X11131892Y-11972392D01*
X11131892Y-12072392D02*
X11131892Y-12044108D01*
X11103608Y-12044108D01*
X11103608Y-12072392D01*
X11131892Y-12072392D01*
X11132142Y-11872142D02*
X11132142Y-11843858D01*
X11103858Y-11843858D01*
X11103858Y-11872142D01*
X11132142Y-11872142D01*
X11134142Y-11399142D02*
X11134142Y-11370858D01*
X11105858Y-11370858D01*
X11105858Y-11399142D01*
X11134142Y-11399142D01*
X11136642Y-11241642D02*
X11136642Y-11213358D01*
X11108358Y-11213358D01*
X11108358Y-11241642D01*
X11136642Y-11241642D01*
X11149142Y-11611142D02*
X11149142Y-11582858D01*
X11120858Y-11582858D01*
X11120858Y-11611142D01*
X11149142Y-11611142D01*
X11159142Y-10016142D02*
X11159142Y-9987858D01*
X11130858Y-9987858D01*
X11130858Y-10016142D01*
X11159142Y-10016142D01*
X11159142Y-10116142D02*
X11159142Y-10087858D01*
X11130858Y-10087858D01*
X11130858Y-10116142D01*
X11159142Y-10116142D01*
X11164142Y-10801142D02*
X11164142Y-10772858D01*
X11135858Y-10772858D01*
X11135858Y-10801142D01*
X11164142Y-10801142D01*
X11164142Y-10901142D02*
X11164142Y-10872858D01*
X11135858Y-10872858D01*
X11135858Y-10901142D01*
X11164142Y-10901142D01*
X11269142Y-10016142D02*
X11269142Y-9987858D01*
X11240858Y-9987858D01*
X11240858Y-10016142D01*
X11269142Y-10016142D01*
X11269142Y-10116142D02*
X11269142Y-10087858D01*
X11240858Y-10087858D01*
X11240858Y-10116142D01*
X11269142Y-10116142D01*
X11269142Y-10216142D02*
X11269142Y-10187858D01*
X11240858Y-10187858D01*
X11240858Y-10216142D01*
X11269142Y-10216142D01*
X11274142Y-10801142D02*
X11274142Y-10772858D01*
X11245858Y-10772858D01*
X11245858Y-10801142D01*
X11274142Y-10801142D01*
X11274142Y-10901142D02*
X11274142Y-10872858D01*
X11245858Y-10872858D01*
X11245858Y-10901142D01*
X11274142Y-10901142D01*
X11274142Y-11001142D02*
X11274142Y-10972858D01*
X11245858Y-10972858D01*
X11245858Y-11001142D01*
X11274142Y-11001142D01*
X11284142Y-11211142D02*
X11284142Y-11182858D01*
X11255858Y-11182858D01*
X11255858Y-11211142D01*
X11284142Y-11211142D01*
X11284142Y-11316142D02*
X11284142Y-11287858D01*
X11255858Y-11287858D01*
X11255858Y-11316142D01*
X11284142Y-11316142D01*
X11284142Y-11421142D02*
X11284142Y-11392858D01*
X11255858Y-11392858D01*
X11255858Y-11421142D01*
X11284142Y-11421142D01*
X11334142Y-10466142D02*
X11334142Y-10437858D01*
X11305858Y-10437858D01*
X11305858Y-10466142D01*
X11334142Y-10466142D01*
X11334142Y-10566142D02*
X11334142Y-10537858D01*
X11305858Y-10537858D01*
X11305858Y-10566142D01*
X11334142Y-10566142D01*
X11344142Y-11561142D02*
X11344142Y-11532858D01*
X11315858Y-11532858D01*
X11315858Y-11561142D01*
X11344142Y-11561142D01*
X11374142Y-12754142D02*
X11374142Y-12725858D01*
X11345858Y-12725858D01*
X11345858Y-12754142D01*
X11374142Y-12754142D01*
X11378142Y-11971142D02*
X11378142Y-11942858D01*
X11349858Y-11942858D01*
X11349858Y-11971142D01*
X11378142Y-11971142D01*
X11378142Y-12064892D02*
X11378142Y-12036608D01*
X11349858Y-12036608D01*
X11349858Y-12064892D01*
X11378142Y-12064892D01*
X11378142Y-12159892D02*
X11378142Y-12131608D01*
X11349858Y-12131608D01*
X11349858Y-12159892D01*
X11378142Y-12159892D01*
X11378142Y-12254892D02*
X11378142Y-12226608D01*
X11349858Y-12226608D01*
X11349858Y-12254892D01*
X11378142Y-12254892D01*
X11378142Y-12349892D02*
X11378142Y-12321608D01*
X11349858Y-12321608D01*
X11349858Y-12349892D01*
X11378142Y-12349892D01*
X11378142Y-12444892D02*
X11378142Y-12416608D01*
X11349858Y-12416608D01*
X11349858Y-12444892D01*
X11378142Y-12444892D01*
X11424142Y-10416142D02*
X11424142Y-10387858D01*
X11395858Y-10387858D01*
X11395858Y-10416142D01*
X11424142Y-10416142D01*
X11424142Y-10511142D02*
X11424142Y-10482858D01*
X11395858Y-10482858D01*
X11395858Y-10511142D01*
X11424142Y-10511142D01*
X11424142Y-10606142D02*
X11424142Y-10577858D01*
X11395858Y-10577858D01*
X11395858Y-10606142D01*
X11424142Y-10606142D01*
X11598642Y-12833142D02*
X11598642Y-12804858D01*
X11570358Y-12804858D01*
X11570358Y-12833142D01*
X11598642Y-12833142D01*
X11654142Y-13034142D02*
X11654142Y-13005858D01*
X11625858Y-13005858D01*
X11625858Y-13034142D01*
X11654142Y-13034142D01*
X11654142Y-13144142D02*
X11654142Y-13115858D01*
X11625858Y-13115858D01*
X11625858Y-13144142D01*
X11654142Y-13144142D01*
X11699142Y-12829142D02*
X11699142Y-12800858D01*
X11670858Y-12800858D01*
X11670858Y-12829142D01*
X11699142Y-12829142D01*
X11764142Y-13034142D02*
X11764142Y-13005858D01*
X11735858Y-13005858D01*
X11735858Y-13034142D01*
X11764142Y-13034142D01*
X11764142Y-13144142D02*
X11764142Y-13115858D01*
X11735858Y-13115858D01*
X11735858Y-13144142D01*
X11764142Y-13144142D01*
X12036642Y-12743942D02*
X12036642Y-12715658D01*
X12008358Y-12715658D01*
X12008358Y-12743942D01*
X12036642Y-12743942D01*
X12036642Y-12906442D02*
X12036642Y-12878158D01*
X12008358Y-12878158D01*
X12008358Y-12906442D01*
X12036642Y-12906442D01*
X12166642Y-12746442D02*
X12166642Y-12718158D01*
X12138358Y-12718158D01*
X12138358Y-12746442D01*
X12166642Y-12746442D01*
X12166642Y-12906442D02*
X12166642Y-12878158D01*
X12138358Y-12878158D01*
X12138358Y-12906442D01*
X12166642Y-12906442D01*
X12234142Y-13034142D02*
X12234142Y-13005858D01*
X12205858Y-13005858D01*
X12205858Y-13034142D01*
X12234142Y-13034142D01*
X12274142Y-13170142D02*
X12274142Y-13141858D01*
X12245858Y-13141858D01*
X12245858Y-13170142D01*
X12274142Y-13170142D01*
X12464142Y-13044142D02*
X12464142Y-13015858D01*
X12435858Y-13015858D01*
X12435858Y-13044142D01*
X12464142Y-13044142D01*
X12624142Y-13074142D02*
X12624142Y-13045858D01*
X12595858Y-13045858D01*
X12595858Y-13074142D01*
X12624142Y-13074142D01*
X12624142Y-13184142D02*
X12624142Y-13155858D01*
X12595858Y-13155858D01*
X12595858Y-13184142D01*
X12624142Y-13184142D01*
X12704142Y-9309142D02*
X12704142Y-9280858D01*
X12675858Y-9280858D01*
X12675858Y-9309142D01*
X12704142Y-9309142D01*
X12714142Y-9619142D02*
X12714142Y-9590858D01*
X12685858Y-9590858D01*
X12685858Y-9619142D01*
X12714142Y-9619142D01*
X12789142Y-9309142D02*
X12789142Y-9280858D01*
X12760858Y-9280858D01*
X12760858Y-9309142D01*
X12789142Y-9309142D01*
X12799142Y-9619142D02*
X12799142Y-9590858D01*
X12770858Y-9590858D01*
X12770858Y-9619142D01*
X12799142Y-9619142D01*
X12849142Y-10284142D02*
X12849142Y-10255858D01*
X12820858Y-10255858D01*
X12820858Y-10284142D01*
X12849142Y-10284142D01*
X12879142Y-9309142D02*
X12879142Y-9280858D01*
X12850858Y-9280858D01*
X12850858Y-9309142D01*
X12879142Y-9309142D01*
X12886642Y-9619142D02*
X12886642Y-9590858D01*
X12858358Y-9590858D01*
X12858358Y-9619142D01*
X12886642Y-9619142D01*
X14709142Y-13119142D02*
X14709142Y-13090858D01*
X14680858Y-13090858D01*
X14680858Y-13119142D01*
X14709142Y-13119142D01*
X14914142Y-13124142D02*
X14914142Y-13095858D01*
X14885858Y-13095858D01*
X14885858Y-13124142D01*
X14914142Y-13124142D01*
X15409142Y-10191642D02*
X15409142Y-10163358D01*
X15380858Y-10163358D01*
X15380858Y-10191642D01*
X15409142Y-10191642D01*
X15434142Y-12244142D02*
X15434142Y-12215858D01*
X15405858Y-12215858D01*
X15405858Y-12244142D01*
X15434142Y-12244142D01*
X15579142Y-10111642D02*
X15579142Y-10083358D01*
X15550858Y-10083358D01*
X15550858Y-10111642D01*
X15579142Y-10111642D01*
X15616642Y-12244142D02*
X15616642Y-12215858D01*
X15588358Y-12215858D01*
X15588358Y-12244142D01*
X15616642Y-12244142D01*
D11*
X11005777Y-13616484D02*
X11005777Y-13416484D01*
X11005777Y-13416484D02*
X11053396Y-13416484D01*
X11053396Y-13416484D02*
X11081967Y-13426008D01*
X11081967Y-13426008D02*
X11101015Y-13445055D01*
X11101015Y-13445055D02*
X11110539Y-13464103D01*
X11110539Y-13464103D02*
X11120063Y-13502198D01*
X11120063Y-13502198D02*
X11120063Y-13530769D01*
X11120063Y-13530769D02*
X11110539Y-13568865D01*
X11110539Y-13568865D02*
X11101015Y-13587912D01*
X11101015Y-13587912D02*
X11081967Y-13606960D01*
X11081967Y-13606960D02*
X11053396Y-13616484D01*
X11053396Y-13616484D02*
X11005777Y-13616484D01*
X11205777Y-13616484D02*
X11205777Y-13483150D01*
X11205777Y-13521246D02*
X11215301Y-13502198D01*
X11215301Y-13502198D02*
X11224824Y-13492674D01*
X11224824Y-13492674D02*
X11243872Y-13483150D01*
X11243872Y-13483150D02*
X11262920Y-13483150D01*
X11329586Y-13616484D02*
X11329586Y-13483150D01*
X11329586Y-13416484D02*
X11320062Y-13426008D01*
X11320062Y-13426008D02*
X11329586Y-13435531D01*
X11329586Y-13435531D02*
X11339110Y-13426008D01*
X11339110Y-13426008D02*
X11329586Y-13416484D01*
X11329586Y-13416484D02*
X11329586Y-13435531D01*
X11453396Y-13616484D02*
X11434348Y-13606960D01*
X11434348Y-13606960D02*
X11424824Y-13587912D01*
X11424824Y-13587912D02*
X11424824Y-13416484D01*
X11558158Y-13616484D02*
X11539110Y-13606960D01*
X11539110Y-13606960D02*
X11529586Y-13587912D01*
X11529586Y-13587912D02*
X11529586Y-13416484D01*
X11786729Y-13616484D02*
X11786729Y-13416484D01*
X11786729Y-13416484D02*
X11853396Y-13559341D01*
X11853396Y-13559341D02*
X11920062Y-13416484D01*
X11920062Y-13416484D02*
X11920062Y-13616484D01*
X12101015Y-13616484D02*
X12101015Y-13511722D01*
X12101015Y-13511722D02*
X12091491Y-13492674D01*
X12091491Y-13492674D02*
X12072443Y-13483150D01*
X12072443Y-13483150D02*
X12034348Y-13483150D01*
X12034348Y-13483150D02*
X12015301Y-13492674D01*
X12101015Y-13606960D02*
X12081967Y-13616484D01*
X12081967Y-13616484D02*
X12034348Y-13616484D01*
X12034348Y-13616484D02*
X12015301Y-13606960D01*
X12015301Y-13606960D02*
X12005777Y-13587912D01*
X12005777Y-13587912D02*
X12005777Y-13568865D01*
X12005777Y-13568865D02*
X12015301Y-13549817D01*
X12015301Y-13549817D02*
X12034348Y-13540293D01*
X12034348Y-13540293D02*
X12081967Y-13540293D01*
X12081967Y-13540293D02*
X12101015Y-13530769D01*
X12196253Y-13483150D02*
X12196253Y-13683150D01*
X12196253Y-13492674D02*
X12215301Y-13483150D01*
X12215301Y-13483150D02*
X12253396Y-13483150D01*
X12253396Y-13483150D02*
X12272443Y-13492674D01*
X12272443Y-13492674D02*
X12281967Y-13502198D01*
X12281967Y-13502198D02*
X12291491Y-13521246D01*
X12291491Y-13521246D02*
X12291491Y-13578388D01*
X12291491Y-13578388D02*
X12281967Y-13597436D01*
X12281967Y-13597436D02*
X12272443Y-13606960D01*
X12272443Y-13606960D02*
X12253396Y-13616484D01*
X12253396Y-13616484D02*
X12215301Y-13616484D01*
X12215301Y-13616484D02*
X12196253Y-13606960D01*
X12377205Y-13597436D02*
X12386729Y-13606960D01*
X12386729Y-13606960D02*
X12377205Y-13616484D01*
X12377205Y-13616484D02*
X12367682Y-13606960D01*
X12367682Y-13606960D02*
X12377205Y-13597436D01*
X12377205Y-13597436D02*
X12377205Y-13616484D01*
X12377205Y-13492674D02*
X12386729Y-13502198D01*
X12386729Y-13502198D02*
X12377205Y-13511722D01*
X12377205Y-13511722D02*
X12367682Y-13502198D01*
X12367682Y-13502198D02*
X12377205Y-13492674D01*
X12377205Y-13492674D02*
X12377205Y-13511722D01*
D10*
X10725000Y-13935000D02*
X10745000Y-13955000D01*
X10745000Y-13935000D02*
X10725000Y-13955000D01*
D11*
X11043872Y-13836484D02*
X11062920Y-13836484D01*
X11062920Y-13836484D02*
X11081967Y-13846008D01*
X11081967Y-13846008D02*
X11091491Y-13855531D01*
X11091491Y-13855531D02*
X11101015Y-13874579D01*
X11101015Y-13874579D02*
X11110539Y-13912674D01*
X11110539Y-13912674D02*
X11110539Y-13960293D01*
X11110539Y-13960293D02*
X11101015Y-13998388D01*
X11101015Y-13998388D02*
X11091491Y-14017436D01*
X11091491Y-14017436D02*
X11081967Y-14026960D01*
X11081967Y-14026960D02*
X11062920Y-14036484D01*
X11062920Y-14036484D02*
X11043872Y-14036484D01*
X11043872Y-14036484D02*
X11024824Y-14026960D01*
X11024824Y-14026960D02*
X11015301Y-14017436D01*
X11015301Y-14017436D02*
X11005777Y-13998388D01*
X11005777Y-13998388D02*
X10996253Y-13960293D01*
X10996253Y-13960293D02*
X10996253Y-13912674D01*
X10996253Y-13912674D02*
X11005777Y-13874579D01*
X11005777Y-13874579D02*
X11015301Y-13855531D01*
X11015301Y-13855531D02*
X11024824Y-13846008D01*
X11024824Y-13846008D02*
X11043872Y-13836484D01*
X11196253Y-14017436D02*
X11205777Y-14026960D01*
X11205777Y-14026960D02*
X11196253Y-14036484D01*
X11196253Y-14036484D02*
X11186729Y-14026960D01*
X11186729Y-14026960D02*
X11196253Y-14017436D01*
X11196253Y-14017436D02*
X11196253Y-14036484D01*
X11281967Y-13855531D02*
X11291491Y-13846008D01*
X11291491Y-13846008D02*
X11310539Y-13836484D01*
X11310539Y-13836484D02*
X11358158Y-13836484D01*
X11358158Y-13836484D02*
X11377205Y-13846008D01*
X11377205Y-13846008D02*
X11386729Y-13855531D01*
X11386729Y-13855531D02*
X11396253Y-13874579D01*
X11396253Y-13874579D02*
X11396253Y-13893627D01*
X11396253Y-13893627D02*
X11386729Y-13922198D01*
X11386729Y-13922198D02*
X11272443Y-14036484D01*
X11272443Y-14036484D02*
X11396253Y-14036484D01*
X11520062Y-13836484D02*
X11539110Y-13836484D01*
X11539110Y-13836484D02*
X11558158Y-13846008D01*
X11558158Y-13846008D02*
X11567682Y-13855531D01*
X11567682Y-13855531D02*
X11577205Y-13874579D01*
X11577205Y-13874579D02*
X11586729Y-13912674D01*
X11586729Y-13912674D02*
X11586729Y-13960293D01*
X11586729Y-13960293D02*
X11577205Y-13998388D01*
X11577205Y-13998388D02*
X11567682Y-14017436D01*
X11567682Y-14017436D02*
X11558158Y-14026960D01*
X11558158Y-14026960D02*
X11539110Y-14036484D01*
X11539110Y-14036484D02*
X11520062Y-14036484D01*
X11520062Y-14036484D02*
X11501015Y-14026960D01*
X11501015Y-14026960D02*
X11491491Y-14017436D01*
X11491491Y-14017436D02*
X11481967Y-13998388D01*
X11481967Y-13998388D02*
X11472443Y-13960293D01*
X11472443Y-13960293D02*
X11472443Y-13912674D01*
X11472443Y-13912674D02*
X11481967Y-13874579D01*
X11481967Y-13874579D02*
X11491491Y-13855531D01*
X11491491Y-13855531D02*
X11501015Y-13846008D01*
X11501015Y-13846008D02*
X11520062Y-13836484D01*
X11710539Y-13836484D02*
X11729586Y-13836484D01*
X11729586Y-13836484D02*
X11748634Y-13846008D01*
X11748634Y-13846008D02*
X11758158Y-13855531D01*
X11758158Y-13855531D02*
X11767682Y-13874579D01*
X11767682Y-13874579D02*
X11777205Y-13912674D01*
X11777205Y-13912674D02*
X11777205Y-13960293D01*
X11777205Y-13960293D02*
X11767682Y-13998388D01*
X11767682Y-13998388D02*
X11758158Y-14017436D01*
X11758158Y-14017436D02*
X11748634Y-14026960D01*
X11748634Y-14026960D02*
X11729586Y-14036484D01*
X11729586Y-14036484D02*
X11710539Y-14036484D01*
X11710539Y-14036484D02*
X11691491Y-14026960D01*
X11691491Y-14026960D02*
X11681967Y-14017436D01*
X11681967Y-14017436D02*
X11672443Y-13998388D01*
X11672443Y-13998388D02*
X11662920Y-13960293D01*
X11662920Y-13960293D02*
X11662920Y-13912674D01*
X11662920Y-13912674D02*
X11672443Y-13874579D01*
X11672443Y-13874579D02*
X11681967Y-13855531D01*
X11681967Y-13855531D02*
X11691491Y-13846008D01*
X11691491Y-13846008D02*
X11710539Y-13836484D01*
X11862920Y-14036484D02*
X11862920Y-13903150D01*
X11862920Y-13922198D02*
X11872443Y-13912674D01*
X11872443Y-13912674D02*
X11891491Y-13903150D01*
X11891491Y-13903150D02*
X11920063Y-13903150D01*
X11920063Y-13903150D02*
X11939110Y-13912674D01*
X11939110Y-13912674D02*
X11948634Y-13931722D01*
X11948634Y-13931722D02*
X11948634Y-14036484D01*
X11948634Y-13931722D02*
X11958158Y-13912674D01*
X11958158Y-13912674D02*
X11977205Y-13903150D01*
X11977205Y-13903150D02*
X12005777Y-13903150D01*
X12005777Y-13903150D02*
X12024824Y-13912674D01*
X12024824Y-13912674D02*
X12034348Y-13931722D01*
X12034348Y-13931722D02*
X12034348Y-14036484D01*
X12129586Y-14036484D02*
X12129586Y-13903150D01*
X12129586Y-13922198D02*
X12139110Y-13912674D01*
X12139110Y-13912674D02*
X12158158Y-13903150D01*
X12158158Y-13903150D02*
X12186729Y-13903150D01*
X12186729Y-13903150D02*
X12205777Y-13912674D01*
X12205777Y-13912674D02*
X12215301Y-13931722D01*
X12215301Y-13931722D02*
X12215301Y-14036484D01*
X12215301Y-13931722D02*
X12224824Y-13912674D01*
X12224824Y-13912674D02*
X12243872Y-13903150D01*
X12243872Y-13903150D02*
X12272443Y-13903150D01*
X12272443Y-13903150D02*
X12291491Y-13912674D01*
X12291491Y-13912674D02*
X12301015Y-13931722D01*
X12301015Y-13931722D02*
X12301015Y-14036484D01*
X12691491Y-13826960D02*
X12520063Y-14084103D01*
X12948634Y-13836484D02*
X12967682Y-13836484D01*
X12967682Y-13836484D02*
X12986729Y-13846008D01*
X12986729Y-13846008D02*
X12996253Y-13855531D01*
X12996253Y-13855531D02*
X13005777Y-13874579D01*
X13005777Y-13874579D02*
X13015301Y-13912674D01*
X13015301Y-13912674D02*
X13015301Y-13960293D01*
X13015301Y-13960293D02*
X13005777Y-13998388D01*
X13005777Y-13998388D02*
X12996253Y-14017436D01*
X12996253Y-14017436D02*
X12986729Y-14026960D01*
X12986729Y-14026960D02*
X12967682Y-14036484D01*
X12967682Y-14036484D02*
X12948634Y-14036484D01*
X12948634Y-14036484D02*
X12929586Y-14026960D01*
X12929586Y-14026960D02*
X12920063Y-14017436D01*
X12920063Y-14017436D02*
X12910539Y-13998388D01*
X12910539Y-13998388D02*
X12901015Y-13960293D01*
X12901015Y-13960293D02*
X12901015Y-13912674D01*
X12901015Y-13912674D02*
X12910539Y-13874579D01*
X12910539Y-13874579D02*
X12920063Y-13855531D01*
X12920063Y-13855531D02*
X12929586Y-13846008D01*
X12929586Y-13846008D02*
X12948634Y-13836484D01*
X13101015Y-14017436D02*
X13110539Y-14026960D01*
X13110539Y-14026960D02*
X13101015Y-14036484D01*
X13101015Y-14036484D02*
X13091491Y-14026960D01*
X13091491Y-14026960D02*
X13101015Y-14017436D01*
X13101015Y-14017436D02*
X13101015Y-14036484D01*
X13234348Y-13836484D02*
X13253396Y-13836484D01*
X13253396Y-13836484D02*
X13272444Y-13846008D01*
X13272444Y-13846008D02*
X13281967Y-13855531D01*
X13281967Y-13855531D02*
X13291491Y-13874579D01*
X13291491Y-13874579D02*
X13301015Y-13912674D01*
X13301015Y-13912674D02*
X13301015Y-13960293D01*
X13301015Y-13960293D02*
X13291491Y-13998388D01*
X13291491Y-13998388D02*
X13281967Y-14017436D01*
X13281967Y-14017436D02*
X13272444Y-14026960D01*
X13272444Y-14026960D02*
X13253396Y-14036484D01*
X13253396Y-14036484D02*
X13234348Y-14036484D01*
X13234348Y-14036484D02*
X13215301Y-14026960D01*
X13215301Y-14026960D02*
X13205777Y-14017436D01*
X13205777Y-14017436D02*
X13196253Y-13998388D01*
X13196253Y-13998388D02*
X13186729Y-13960293D01*
X13186729Y-13960293D02*
X13186729Y-13912674D01*
X13186729Y-13912674D02*
X13196253Y-13874579D01*
X13196253Y-13874579D02*
X13205777Y-13855531D01*
X13205777Y-13855531D02*
X13215301Y-13846008D01*
X13215301Y-13846008D02*
X13234348Y-13836484D01*
X13424825Y-13836484D02*
X13443872Y-13836484D01*
X13443872Y-13836484D02*
X13462920Y-13846008D01*
X13462920Y-13846008D02*
X13472444Y-13855531D01*
X13472444Y-13855531D02*
X13481967Y-13874579D01*
X13481967Y-13874579D02*
X13491491Y-13912674D01*
X13491491Y-13912674D02*
X13491491Y-13960293D01*
X13491491Y-13960293D02*
X13481967Y-13998388D01*
X13481967Y-13998388D02*
X13472444Y-14017436D01*
X13472444Y-14017436D02*
X13462920Y-14026960D01*
X13462920Y-14026960D02*
X13443872Y-14036484D01*
X13443872Y-14036484D02*
X13424825Y-14036484D01*
X13424825Y-14036484D02*
X13405777Y-14026960D01*
X13405777Y-14026960D02*
X13396253Y-14017436D01*
X13396253Y-14017436D02*
X13386729Y-13998388D01*
X13386729Y-13998388D02*
X13377206Y-13960293D01*
X13377206Y-13960293D02*
X13377206Y-13912674D01*
X13377206Y-13912674D02*
X13386729Y-13874579D01*
X13386729Y-13874579D02*
X13396253Y-13855531D01*
X13396253Y-13855531D02*
X13405777Y-13846008D01*
X13405777Y-13846008D02*
X13424825Y-13836484D01*
X13558158Y-13836484D02*
X13691491Y-13836484D01*
X13691491Y-13836484D02*
X13605777Y-14036484D01*
X13777206Y-14036484D02*
X13815301Y-14036484D01*
X13815301Y-14036484D02*
X13834348Y-14026960D01*
X13834348Y-14026960D02*
X13843872Y-14017436D01*
X13843872Y-14017436D02*
X13862920Y-13988865D01*
X13862920Y-13988865D02*
X13872444Y-13950769D01*
X13872444Y-13950769D02*
X13872444Y-13874579D01*
X13872444Y-13874579D02*
X13862920Y-13855531D01*
X13862920Y-13855531D02*
X13853396Y-13846008D01*
X13853396Y-13846008D02*
X13834348Y-13836484D01*
X13834348Y-13836484D02*
X13796253Y-13836484D01*
X13796253Y-13836484D02*
X13777206Y-13846008D01*
X13777206Y-13846008D02*
X13767682Y-13855531D01*
X13767682Y-13855531D02*
X13758158Y-13874579D01*
X13758158Y-13874579D02*
X13758158Y-13922198D01*
X13758158Y-13922198D02*
X13767682Y-13941246D01*
X13767682Y-13941246D02*
X13777206Y-13950769D01*
X13777206Y-13950769D02*
X13796253Y-13960293D01*
X13796253Y-13960293D02*
X13834348Y-13960293D01*
X13834348Y-13960293D02*
X13853396Y-13950769D01*
X13853396Y-13950769D02*
X13862920Y-13941246D01*
X13862920Y-13941246D02*
X13872444Y-13922198D01*
X13948634Y-13836484D02*
X13948634Y-13874579D01*
X14024825Y-13836484D02*
X14024825Y-13874579D01*
X14320063Y-14112674D02*
X14310539Y-14103150D01*
X14310539Y-14103150D02*
X14291491Y-14074579D01*
X14291491Y-14074579D02*
X14281968Y-14055531D01*
X14281968Y-14055531D02*
X14272444Y-14026960D01*
X14272444Y-14026960D02*
X14262920Y-13979341D01*
X14262920Y-13979341D02*
X14262920Y-13941246D01*
X14262920Y-13941246D02*
X14272444Y-13893627D01*
X14272444Y-13893627D02*
X14281968Y-13865055D01*
X14281968Y-13865055D02*
X14291491Y-13846008D01*
X14291491Y-13846008D02*
X14310539Y-13817436D01*
X14310539Y-13817436D02*
X14320063Y-13807912D01*
X14481968Y-13836484D02*
X14443872Y-13836484D01*
X14443872Y-13836484D02*
X14424825Y-13846008D01*
X14424825Y-13846008D02*
X14415301Y-13855531D01*
X14415301Y-13855531D02*
X14396253Y-13884103D01*
X14396253Y-13884103D02*
X14386729Y-13922198D01*
X14386729Y-13922198D02*
X14386729Y-13998388D01*
X14386729Y-13998388D02*
X14396253Y-14017436D01*
X14396253Y-14017436D02*
X14405777Y-14026960D01*
X14405777Y-14026960D02*
X14424825Y-14036484D01*
X14424825Y-14036484D02*
X14462920Y-14036484D01*
X14462920Y-14036484D02*
X14481968Y-14026960D01*
X14481968Y-14026960D02*
X14491491Y-14017436D01*
X14491491Y-14017436D02*
X14501015Y-13998388D01*
X14501015Y-13998388D02*
X14501015Y-13950769D01*
X14501015Y-13950769D02*
X14491491Y-13931722D01*
X14491491Y-13931722D02*
X14481968Y-13922198D01*
X14481968Y-13922198D02*
X14462920Y-13912674D01*
X14462920Y-13912674D02*
X14424825Y-13912674D01*
X14424825Y-13912674D02*
X14405777Y-13922198D01*
X14405777Y-13922198D02*
X14396253Y-13931722D01*
X14396253Y-13931722D02*
X14386729Y-13950769D01*
X14567682Y-13836484D02*
X14701015Y-13836484D01*
X14701015Y-13836484D02*
X14615301Y-14036484D01*
X14767682Y-13855531D02*
X14777206Y-13846008D01*
X14777206Y-13846008D02*
X14796253Y-13836484D01*
X14796253Y-13836484D02*
X14843872Y-13836484D01*
X14843872Y-13836484D02*
X14862920Y-13846008D01*
X14862920Y-13846008D02*
X14872444Y-13855531D01*
X14872444Y-13855531D02*
X14881968Y-13874579D01*
X14881968Y-13874579D02*
X14881968Y-13893627D01*
X14881968Y-13893627D02*
X14872444Y-13922198D01*
X14872444Y-13922198D02*
X14758158Y-14036484D01*
X14758158Y-14036484D02*
X14881968Y-14036484D01*
X15120063Y-14036484D02*
X15120063Y-13836484D01*
X15205777Y-14036484D02*
X15205777Y-13931722D01*
X15205777Y-13931722D02*
X15196253Y-13912674D01*
X15196253Y-13912674D02*
X15177206Y-13903150D01*
X15177206Y-13903150D02*
X15148634Y-13903150D01*
X15148634Y-13903150D02*
X15129587Y-13912674D01*
X15129587Y-13912674D02*
X15120063Y-13922198D01*
X15329587Y-14036484D02*
X15310539Y-14026960D01*
X15310539Y-14026960D02*
X15301015Y-14017436D01*
X15301015Y-14017436D02*
X15291491Y-13998388D01*
X15291491Y-13998388D02*
X15291491Y-13941246D01*
X15291491Y-13941246D02*
X15301015Y-13922198D01*
X15301015Y-13922198D02*
X15310539Y-13912674D01*
X15310539Y-13912674D02*
X15329587Y-13903150D01*
X15329587Y-13903150D02*
X15358158Y-13903150D01*
X15358158Y-13903150D02*
X15377206Y-13912674D01*
X15377206Y-13912674D02*
X15386730Y-13922198D01*
X15386730Y-13922198D02*
X15396253Y-13941246D01*
X15396253Y-13941246D02*
X15396253Y-13998388D01*
X15396253Y-13998388D02*
X15386730Y-14017436D01*
X15386730Y-14017436D02*
X15377206Y-14026960D01*
X15377206Y-14026960D02*
X15358158Y-14036484D01*
X15358158Y-14036484D02*
X15329587Y-14036484D01*
X15510539Y-14036484D02*
X15491491Y-14026960D01*
X15491491Y-14026960D02*
X15481968Y-14007912D01*
X15481968Y-14007912D02*
X15481968Y-13836484D01*
X15662920Y-14026960D02*
X15643872Y-14036484D01*
X15643872Y-14036484D02*
X15605777Y-14036484D01*
X15605777Y-14036484D02*
X15586730Y-14026960D01*
X15586730Y-14026960D02*
X15577206Y-14007912D01*
X15577206Y-14007912D02*
X15577206Y-13931722D01*
X15577206Y-13931722D02*
X15586730Y-13912674D01*
X15586730Y-13912674D02*
X15605777Y-13903150D01*
X15605777Y-13903150D02*
X15643872Y-13903150D01*
X15643872Y-13903150D02*
X15662920Y-13912674D01*
X15662920Y-13912674D02*
X15672444Y-13931722D01*
X15672444Y-13931722D02*
X15672444Y-13950769D01*
X15672444Y-13950769D02*
X15577206Y-13969817D01*
X15748634Y-14026960D02*
X15767682Y-14036484D01*
X15767682Y-14036484D02*
X15805777Y-14036484D01*
X15805777Y-14036484D02*
X15824825Y-14026960D01*
X15824825Y-14026960D02*
X15834349Y-14007912D01*
X15834349Y-14007912D02*
X15834349Y-13998388D01*
X15834349Y-13998388D02*
X15824825Y-13979341D01*
X15824825Y-13979341D02*
X15805777Y-13969817D01*
X15805777Y-13969817D02*
X15777206Y-13969817D01*
X15777206Y-13969817D02*
X15758158Y-13960293D01*
X15758158Y-13960293D02*
X15748634Y-13941246D01*
X15748634Y-13941246D02*
X15748634Y-13931722D01*
X15748634Y-13931722D02*
X15758158Y-13912674D01*
X15758158Y-13912674D02*
X15777206Y-13903150D01*
X15777206Y-13903150D02*
X15805777Y-13903150D01*
X15805777Y-13903150D02*
X15824825Y-13912674D01*
X15901015Y-14112674D02*
X15910539Y-14103150D01*
X15910539Y-14103150D02*
X15929587Y-14074579D01*
X15929587Y-14074579D02*
X15939111Y-14055531D01*
X15939111Y-14055531D02*
X15948634Y-14026960D01*
X15948634Y-14026960D02*
X15958158Y-13979341D01*
X15958158Y-13979341D02*
X15958158Y-13941246D01*
X15958158Y-13941246D02*
X15948634Y-13893627D01*
X15948634Y-13893627D02*
X15939111Y-13865055D01*
X15939111Y-13865055D02*
X15929587Y-13846008D01*
X15929587Y-13846008D02*
X15910539Y-13817436D01*
X15910539Y-13817436D02*
X15901015Y-13807912D01*
D10*
X10745000Y-14209000D02*
G75*
G02*
X10720000Y-14209000I-12500J0D01*
G01*
X10720000Y-14209000D02*
G75*
G02*
X10745000Y-14209000I12500J0D01*
G01*
D11*
X11043872Y-14100484D02*
X11062920Y-14100484D01*
X11062920Y-14100484D02*
X11081967Y-14110008D01*
X11081967Y-14110008D02*
X11091491Y-14119531D01*
X11091491Y-14119531D02*
X11101015Y-14138579D01*
X11101015Y-14138579D02*
X11110539Y-14176674D01*
X11110539Y-14176674D02*
X11110539Y-14224293D01*
X11110539Y-14224293D02*
X11101015Y-14262388D01*
X11101015Y-14262388D02*
X11091491Y-14281436D01*
X11091491Y-14281436D02*
X11081967Y-14290960D01*
X11081967Y-14290960D02*
X11062920Y-14300484D01*
X11062920Y-14300484D02*
X11043872Y-14300484D01*
X11043872Y-14300484D02*
X11024824Y-14290960D01*
X11024824Y-14290960D02*
X11015301Y-14281436D01*
X11015301Y-14281436D02*
X11005777Y-14262388D01*
X11005777Y-14262388D02*
X10996253Y-14224293D01*
X10996253Y-14224293D02*
X10996253Y-14176674D01*
X10996253Y-14176674D02*
X11005777Y-14138579D01*
X11005777Y-14138579D02*
X11015301Y-14119531D01*
X11015301Y-14119531D02*
X11024824Y-14110008D01*
X11024824Y-14110008D02*
X11043872Y-14100484D01*
X11196253Y-14281436D02*
X11205777Y-14290960D01*
X11205777Y-14290960D02*
X11196253Y-14300484D01*
X11196253Y-14300484D02*
X11186729Y-14290960D01*
X11186729Y-14290960D02*
X11196253Y-14281436D01*
X11196253Y-14281436D02*
X11196253Y-14300484D01*
X11281967Y-14119531D02*
X11291491Y-14110008D01*
X11291491Y-14110008D02*
X11310539Y-14100484D01*
X11310539Y-14100484D02*
X11358158Y-14100484D01*
X11358158Y-14100484D02*
X11377205Y-14110008D01*
X11377205Y-14110008D02*
X11386729Y-14119531D01*
X11386729Y-14119531D02*
X11396253Y-14138579D01*
X11396253Y-14138579D02*
X11396253Y-14157627D01*
X11396253Y-14157627D02*
X11386729Y-14186198D01*
X11386729Y-14186198D02*
X11272443Y-14300484D01*
X11272443Y-14300484D02*
X11396253Y-14300484D01*
X11577205Y-14100484D02*
X11481967Y-14100484D01*
X11481967Y-14100484D02*
X11472443Y-14195722D01*
X11472443Y-14195722D02*
X11481967Y-14186198D01*
X11481967Y-14186198D02*
X11501015Y-14176674D01*
X11501015Y-14176674D02*
X11548634Y-14176674D01*
X11548634Y-14176674D02*
X11567682Y-14186198D01*
X11567682Y-14186198D02*
X11577205Y-14195722D01*
X11577205Y-14195722D02*
X11586729Y-14214769D01*
X11586729Y-14214769D02*
X11586729Y-14262388D01*
X11586729Y-14262388D02*
X11577205Y-14281436D01*
X11577205Y-14281436D02*
X11567682Y-14290960D01*
X11567682Y-14290960D02*
X11548634Y-14300484D01*
X11548634Y-14300484D02*
X11501015Y-14300484D01*
X11501015Y-14300484D02*
X11481967Y-14290960D01*
X11481967Y-14290960D02*
X11472443Y-14281436D01*
X11710539Y-14100484D02*
X11729586Y-14100484D01*
X11729586Y-14100484D02*
X11748634Y-14110008D01*
X11748634Y-14110008D02*
X11758158Y-14119531D01*
X11758158Y-14119531D02*
X11767682Y-14138579D01*
X11767682Y-14138579D02*
X11777205Y-14176674D01*
X11777205Y-14176674D02*
X11777205Y-14224293D01*
X11777205Y-14224293D02*
X11767682Y-14262388D01*
X11767682Y-14262388D02*
X11758158Y-14281436D01*
X11758158Y-14281436D02*
X11748634Y-14290960D01*
X11748634Y-14290960D02*
X11729586Y-14300484D01*
X11729586Y-14300484D02*
X11710539Y-14300484D01*
X11710539Y-14300484D02*
X11691491Y-14290960D01*
X11691491Y-14290960D02*
X11681967Y-14281436D01*
X11681967Y-14281436D02*
X11672443Y-14262388D01*
X11672443Y-14262388D02*
X11662920Y-14224293D01*
X11662920Y-14224293D02*
X11662920Y-14176674D01*
X11662920Y-14176674D02*
X11672443Y-14138579D01*
X11672443Y-14138579D02*
X11681967Y-14119531D01*
X11681967Y-14119531D02*
X11691491Y-14110008D01*
X11691491Y-14110008D02*
X11710539Y-14100484D01*
X11862920Y-14300484D02*
X11862920Y-14167150D01*
X11862920Y-14186198D02*
X11872443Y-14176674D01*
X11872443Y-14176674D02*
X11891491Y-14167150D01*
X11891491Y-14167150D02*
X11920063Y-14167150D01*
X11920063Y-14167150D02*
X11939110Y-14176674D01*
X11939110Y-14176674D02*
X11948634Y-14195722D01*
X11948634Y-14195722D02*
X11948634Y-14300484D01*
X11948634Y-14195722D02*
X11958158Y-14176674D01*
X11958158Y-14176674D02*
X11977205Y-14167150D01*
X11977205Y-14167150D02*
X12005777Y-14167150D01*
X12005777Y-14167150D02*
X12024824Y-14176674D01*
X12024824Y-14176674D02*
X12034348Y-14195722D01*
X12034348Y-14195722D02*
X12034348Y-14300484D01*
X12129586Y-14300484D02*
X12129586Y-14167150D01*
X12129586Y-14186198D02*
X12139110Y-14176674D01*
X12139110Y-14176674D02*
X12158158Y-14167150D01*
X12158158Y-14167150D02*
X12186729Y-14167150D01*
X12186729Y-14167150D02*
X12205777Y-14176674D01*
X12205777Y-14176674D02*
X12215301Y-14195722D01*
X12215301Y-14195722D02*
X12215301Y-14300484D01*
X12215301Y-14195722D02*
X12224824Y-14176674D01*
X12224824Y-14176674D02*
X12243872Y-14167150D01*
X12243872Y-14167150D02*
X12272443Y-14167150D01*
X12272443Y-14167150D02*
X12291491Y-14176674D01*
X12291491Y-14176674D02*
X12301015Y-14195722D01*
X12301015Y-14195722D02*
X12301015Y-14300484D01*
X12691491Y-14090960D02*
X12520063Y-14348103D01*
X12948634Y-14100484D02*
X12967682Y-14100484D01*
X12967682Y-14100484D02*
X12986729Y-14110008D01*
X12986729Y-14110008D02*
X12996253Y-14119531D01*
X12996253Y-14119531D02*
X13005777Y-14138579D01*
X13005777Y-14138579D02*
X13015301Y-14176674D01*
X13015301Y-14176674D02*
X13015301Y-14224293D01*
X13015301Y-14224293D02*
X13005777Y-14262388D01*
X13005777Y-14262388D02*
X12996253Y-14281436D01*
X12996253Y-14281436D02*
X12986729Y-14290960D01*
X12986729Y-14290960D02*
X12967682Y-14300484D01*
X12967682Y-14300484D02*
X12948634Y-14300484D01*
X12948634Y-14300484D02*
X12929586Y-14290960D01*
X12929586Y-14290960D02*
X12920063Y-14281436D01*
X12920063Y-14281436D02*
X12910539Y-14262388D01*
X12910539Y-14262388D02*
X12901015Y-14224293D01*
X12901015Y-14224293D02*
X12901015Y-14176674D01*
X12901015Y-14176674D02*
X12910539Y-14138579D01*
X12910539Y-14138579D02*
X12920063Y-14119531D01*
X12920063Y-14119531D02*
X12929586Y-14110008D01*
X12929586Y-14110008D02*
X12948634Y-14100484D01*
X13101015Y-14281436D02*
X13110539Y-14290960D01*
X13110539Y-14290960D02*
X13101015Y-14300484D01*
X13101015Y-14300484D02*
X13091491Y-14290960D01*
X13091491Y-14290960D02*
X13101015Y-14281436D01*
X13101015Y-14281436D02*
X13101015Y-14300484D01*
X13234348Y-14100484D02*
X13253396Y-14100484D01*
X13253396Y-14100484D02*
X13272444Y-14110008D01*
X13272444Y-14110008D02*
X13281967Y-14119531D01*
X13281967Y-14119531D02*
X13291491Y-14138579D01*
X13291491Y-14138579D02*
X13301015Y-14176674D01*
X13301015Y-14176674D02*
X13301015Y-14224293D01*
X13301015Y-14224293D02*
X13291491Y-14262388D01*
X13291491Y-14262388D02*
X13281967Y-14281436D01*
X13281967Y-14281436D02*
X13272444Y-14290960D01*
X13272444Y-14290960D02*
X13253396Y-14300484D01*
X13253396Y-14300484D02*
X13234348Y-14300484D01*
X13234348Y-14300484D02*
X13215301Y-14290960D01*
X13215301Y-14290960D02*
X13205777Y-14281436D01*
X13205777Y-14281436D02*
X13196253Y-14262388D01*
X13196253Y-14262388D02*
X13186729Y-14224293D01*
X13186729Y-14224293D02*
X13186729Y-14176674D01*
X13186729Y-14176674D02*
X13196253Y-14138579D01*
X13196253Y-14138579D02*
X13205777Y-14119531D01*
X13205777Y-14119531D02*
X13215301Y-14110008D01*
X13215301Y-14110008D02*
X13234348Y-14100484D01*
X13424825Y-14100484D02*
X13443872Y-14100484D01*
X13443872Y-14100484D02*
X13462920Y-14110008D01*
X13462920Y-14110008D02*
X13472444Y-14119531D01*
X13472444Y-14119531D02*
X13481967Y-14138579D01*
X13481967Y-14138579D02*
X13491491Y-14176674D01*
X13491491Y-14176674D02*
X13491491Y-14224293D01*
X13491491Y-14224293D02*
X13481967Y-14262388D01*
X13481967Y-14262388D02*
X13472444Y-14281436D01*
X13472444Y-14281436D02*
X13462920Y-14290960D01*
X13462920Y-14290960D02*
X13443872Y-14300484D01*
X13443872Y-14300484D02*
X13424825Y-14300484D01*
X13424825Y-14300484D02*
X13405777Y-14290960D01*
X13405777Y-14290960D02*
X13396253Y-14281436D01*
X13396253Y-14281436D02*
X13386729Y-14262388D01*
X13386729Y-14262388D02*
X13377206Y-14224293D01*
X13377206Y-14224293D02*
X13377206Y-14176674D01*
X13377206Y-14176674D02*
X13386729Y-14138579D01*
X13386729Y-14138579D02*
X13396253Y-14119531D01*
X13396253Y-14119531D02*
X13405777Y-14110008D01*
X13405777Y-14110008D02*
X13424825Y-14100484D01*
X13586729Y-14300484D02*
X13624825Y-14300484D01*
X13624825Y-14300484D02*
X13643872Y-14290960D01*
X13643872Y-14290960D02*
X13653396Y-14281436D01*
X13653396Y-14281436D02*
X13672444Y-14252865D01*
X13672444Y-14252865D02*
X13681967Y-14214769D01*
X13681967Y-14214769D02*
X13681967Y-14138579D01*
X13681967Y-14138579D02*
X13672444Y-14119531D01*
X13672444Y-14119531D02*
X13662920Y-14110008D01*
X13662920Y-14110008D02*
X13643872Y-14100484D01*
X13643872Y-14100484D02*
X13605777Y-14100484D01*
X13605777Y-14100484D02*
X13586729Y-14110008D01*
X13586729Y-14110008D02*
X13577206Y-14119531D01*
X13577206Y-14119531D02*
X13567682Y-14138579D01*
X13567682Y-14138579D02*
X13567682Y-14186198D01*
X13567682Y-14186198D02*
X13577206Y-14205246D01*
X13577206Y-14205246D02*
X13586729Y-14214769D01*
X13586729Y-14214769D02*
X13605777Y-14224293D01*
X13605777Y-14224293D02*
X13643872Y-14224293D01*
X13643872Y-14224293D02*
X13662920Y-14214769D01*
X13662920Y-14214769D02*
X13672444Y-14205246D01*
X13672444Y-14205246D02*
X13681967Y-14186198D01*
X13796253Y-14186198D02*
X13777206Y-14176674D01*
X13777206Y-14176674D02*
X13767682Y-14167150D01*
X13767682Y-14167150D02*
X13758158Y-14148103D01*
X13758158Y-14148103D02*
X13758158Y-14138579D01*
X13758158Y-14138579D02*
X13767682Y-14119531D01*
X13767682Y-14119531D02*
X13777206Y-14110008D01*
X13777206Y-14110008D02*
X13796253Y-14100484D01*
X13796253Y-14100484D02*
X13834348Y-14100484D01*
X13834348Y-14100484D02*
X13853396Y-14110008D01*
X13853396Y-14110008D02*
X13862920Y-14119531D01*
X13862920Y-14119531D02*
X13872444Y-14138579D01*
X13872444Y-14138579D02*
X13872444Y-14148103D01*
X13872444Y-14148103D02*
X13862920Y-14167150D01*
X13862920Y-14167150D02*
X13853396Y-14176674D01*
X13853396Y-14176674D02*
X13834348Y-14186198D01*
X13834348Y-14186198D02*
X13796253Y-14186198D01*
X13796253Y-14186198D02*
X13777206Y-14195722D01*
X13777206Y-14195722D02*
X13767682Y-14205246D01*
X13767682Y-14205246D02*
X13758158Y-14224293D01*
X13758158Y-14224293D02*
X13758158Y-14262388D01*
X13758158Y-14262388D02*
X13767682Y-14281436D01*
X13767682Y-14281436D02*
X13777206Y-14290960D01*
X13777206Y-14290960D02*
X13796253Y-14300484D01*
X13796253Y-14300484D02*
X13834348Y-14300484D01*
X13834348Y-14300484D02*
X13853396Y-14290960D01*
X13853396Y-14290960D02*
X13862920Y-14281436D01*
X13862920Y-14281436D02*
X13872444Y-14262388D01*
X13872444Y-14262388D02*
X13872444Y-14224293D01*
X13872444Y-14224293D02*
X13862920Y-14205246D01*
X13862920Y-14205246D02*
X13853396Y-14195722D01*
X13853396Y-14195722D02*
X13834348Y-14186198D01*
X13948634Y-14100484D02*
X13948634Y-14138579D01*
X14024825Y-14100484D02*
X14024825Y-14138579D01*
X14320063Y-14376674D02*
X14310539Y-14367150D01*
X14310539Y-14367150D02*
X14291491Y-14338579D01*
X14291491Y-14338579D02*
X14281968Y-14319531D01*
X14281968Y-14319531D02*
X14272444Y-14290960D01*
X14272444Y-14290960D02*
X14262920Y-14243341D01*
X14262920Y-14243341D02*
X14262920Y-14205246D01*
X14262920Y-14205246D02*
X14272444Y-14157627D01*
X14272444Y-14157627D02*
X14281968Y-14129055D01*
X14281968Y-14129055D02*
X14291491Y-14110008D01*
X14291491Y-14110008D02*
X14310539Y-14081436D01*
X14310539Y-14081436D02*
X14320063Y-14071912D01*
X14501015Y-14300484D02*
X14386729Y-14300484D01*
X14443872Y-14300484D02*
X14443872Y-14100484D01*
X14443872Y-14100484D02*
X14424825Y-14129055D01*
X14424825Y-14129055D02*
X14405777Y-14148103D01*
X14405777Y-14148103D02*
X14386729Y-14157627D01*
X14567682Y-14100484D02*
X14691491Y-14100484D01*
X14691491Y-14100484D02*
X14624825Y-14176674D01*
X14624825Y-14176674D02*
X14653396Y-14176674D01*
X14653396Y-14176674D02*
X14672444Y-14186198D01*
X14672444Y-14186198D02*
X14681968Y-14195722D01*
X14681968Y-14195722D02*
X14691491Y-14214769D01*
X14691491Y-14214769D02*
X14691491Y-14262388D01*
X14691491Y-14262388D02*
X14681968Y-14281436D01*
X14681968Y-14281436D02*
X14672444Y-14290960D01*
X14672444Y-14290960D02*
X14653396Y-14300484D01*
X14653396Y-14300484D02*
X14596253Y-14300484D01*
X14596253Y-14300484D02*
X14577206Y-14290960D01*
X14577206Y-14290960D02*
X14567682Y-14281436D01*
X14805777Y-14186198D02*
X14786729Y-14176674D01*
X14786729Y-14176674D02*
X14777206Y-14167150D01*
X14777206Y-14167150D02*
X14767682Y-14148103D01*
X14767682Y-14148103D02*
X14767682Y-14138579D01*
X14767682Y-14138579D02*
X14777206Y-14119531D01*
X14777206Y-14119531D02*
X14786729Y-14110008D01*
X14786729Y-14110008D02*
X14805777Y-14100484D01*
X14805777Y-14100484D02*
X14843872Y-14100484D01*
X14843872Y-14100484D02*
X14862920Y-14110008D01*
X14862920Y-14110008D02*
X14872444Y-14119531D01*
X14872444Y-14119531D02*
X14881968Y-14138579D01*
X14881968Y-14138579D02*
X14881968Y-14148103D01*
X14881968Y-14148103D02*
X14872444Y-14167150D01*
X14872444Y-14167150D02*
X14862920Y-14176674D01*
X14862920Y-14176674D02*
X14843872Y-14186198D01*
X14843872Y-14186198D02*
X14805777Y-14186198D01*
X14805777Y-14186198D02*
X14786729Y-14195722D01*
X14786729Y-14195722D02*
X14777206Y-14205246D01*
X14777206Y-14205246D02*
X14767682Y-14224293D01*
X14767682Y-14224293D02*
X14767682Y-14262388D01*
X14767682Y-14262388D02*
X14777206Y-14281436D01*
X14777206Y-14281436D02*
X14786729Y-14290960D01*
X14786729Y-14290960D02*
X14805777Y-14300484D01*
X14805777Y-14300484D02*
X14843872Y-14300484D01*
X14843872Y-14300484D02*
X14862920Y-14290960D01*
X14862920Y-14290960D02*
X14872444Y-14281436D01*
X14872444Y-14281436D02*
X14881968Y-14262388D01*
X14881968Y-14262388D02*
X14881968Y-14224293D01*
X14881968Y-14224293D02*
X14872444Y-14205246D01*
X14872444Y-14205246D02*
X14862920Y-14195722D01*
X14862920Y-14195722D02*
X14843872Y-14186198D01*
X15120063Y-14300484D02*
X15120063Y-14100484D01*
X15205777Y-14300484D02*
X15205777Y-14195722D01*
X15205777Y-14195722D02*
X15196253Y-14176674D01*
X15196253Y-14176674D02*
X15177206Y-14167150D01*
X15177206Y-14167150D02*
X15148634Y-14167150D01*
X15148634Y-14167150D02*
X15129587Y-14176674D01*
X15129587Y-14176674D02*
X15120063Y-14186198D01*
X15329587Y-14300484D02*
X15310539Y-14290960D01*
X15310539Y-14290960D02*
X15301015Y-14281436D01*
X15301015Y-14281436D02*
X15291491Y-14262388D01*
X15291491Y-14262388D02*
X15291491Y-14205246D01*
X15291491Y-14205246D02*
X15301015Y-14186198D01*
X15301015Y-14186198D02*
X15310539Y-14176674D01*
X15310539Y-14176674D02*
X15329587Y-14167150D01*
X15329587Y-14167150D02*
X15358158Y-14167150D01*
X15358158Y-14167150D02*
X15377206Y-14176674D01*
X15377206Y-14176674D02*
X15386730Y-14186198D01*
X15386730Y-14186198D02*
X15396253Y-14205246D01*
X15396253Y-14205246D02*
X15396253Y-14262388D01*
X15396253Y-14262388D02*
X15386730Y-14281436D01*
X15386730Y-14281436D02*
X15377206Y-14290960D01*
X15377206Y-14290960D02*
X15358158Y-14300484D01*
X15358158Y-14300484D02*
X15329587Y-14300484D01*
X15510539Y-14300484D02*
X15491491Y-14290960D01*
X15491491Y-14290960D02*
X15481968Y-14271912D01*
X15481968Y-14271912D02*
X15481968Y-14100484D01*
X15662920Y-14290960D02*
X15643872Y-14300484D01*
X15643872Y-14300484D02*
X15605777Y-14300484D01*
X15605777Y-14300484D02*
X15586730Y-14290960D01*
X15586730Y-14290960D02*
X15577206Y-14271912D01*
X15577206Y-14271912D02*
X15577206Y-14195722D01*
X15577206Y-14195722D02*
X15586730Y-14176674D01*
X15586730Y-14176674D02*
X15605777Y-14167150D01*
X15605777Y-14167150D02*
X15643872Y-14167150D01*
X15643872Y-14167150D02*
X15662920Y-14176674D01*
X15662920Y-14176674D02*
X15672444Y-14195722D01*
X15672444Y-14195722D02*
X15672444Y-14214769D01*
X15672444Y-14214769D02*
X15577206Y-14233817D01*
X15748634Y-14290960D02*
X15767682Y-14300484D01*
X15767682Y-14300484D02*
X15805777Y-14300484D01*
X15805777Y-14300484D02*
X15824825Y-14290960D01*
X15824825Y-14290960D02*
X15834349Y-14271912D01*
X15834349Y-14271912D02*
X15834349Y-14262388D01*
X15834349Y-14262388D02*
X15824825Y-14243341D01*
X15824825Y-14243341D02*
X15805777Y-14233817D01*
X15805777Y-14233817D02*
X15777206Y-14233817D01*
X15777206Y-14233817D02*
X15758158Y-14224293D01*
X15758158Y-14224293D02*
X15748634Y-14205246D01*
X15748634Y-14205246D02*
X15748634Y-14195722D01*
X15748634Y-14195722D02*
X15758158Y-14176674D01*
X15758158Y-14176674D02*
X15777206Y-14167150D01*
X15777206Y-14167150D02*
X15805777Y-14167150D01*
X15805777Y-14167150D02*
X15824825Y-14176674D01*
X15901015Y-14376674D02*
X15910539Y-14367150D01*
X15910539Y-14367150D02*
X15929587Y-14338579D01*
X15929587Y-14338579D02*
X15939111Y-14319531D01*
X15939111Y-14319531D02*
X15948634Y-14290960D01*
X15948634Y-14290960D02*
X15958158Y-14243341D01*
X15958158Y-14243341D02*
X15958158Y-14205246D01*
X15958158Y-14205246D02*
X15948634Y-14157627D01*
X15948634Y-14157627D02*
X15939111Y-14129055D01*
X15939111Y-14129055D02*
X15929587Y-14110008D01*
X15929587Y-14110008D02*
X15910539Y-14081436D01*
X15910539Y-14081436D02*
X15901015Y-14071912D01*
D10*
X10730000Y-14458000D02*
X10730000Y-14488000D01*
X10715000Y-14473000D02*
X10745000Y-14473000D01*
D11*
X11043872Y-14364484D02*
X11062920Y-14364484D01*
X11062920Y-14364484D02*
X11081967Y-14374008D01*
X11081967Y-14374008D02*
X11091491Y-14383531D01*
X11091491Y-14383531D02*
X11101015Y-14402579D01*
X11101015Y-14402579D02*
X11110539Y-14440674D01*
X11110539Y-14440674D02*
X11110539Y-14488293D01*
X11110539Y-14488293D02*
X11101015Y-14526388D01*
X11101015Y-14526388D02*
X11091491Y-14545436D01*
X11091491Y-14545436D02*
X11081967Y-14554960D01*
X11081967Y-14554960D02*
X11062920Y-14564484D01*
X11062920Y-14564484D02*
X11043872Y-14564484D01*
X11043872Y-14564484D02*
X11024824Y-14554960D01*
X11024824Y-14554960D02*
X11015301Y-14545436D01*
X11015301Y-14545436D02*
X11005777Y-14526388D01*
X11005777Y-14526388D02*
X10996253Y-14488293D01*
X10996253Y-14488293D02*
X10996253Y-14440674D01*
X10996253Y-14440674D02*
X11005777Y-14402579D01*
X11005777Y-14402579D02*
X11015301Y-14383531D01*
X11015301Y-14383531D02*
X11024824Y-14374008D01*
X11024824Y-14374008D02*
X11043872Y-14364484D01*
X11196253Y-14545436D02*
X11205777Y-14554960D01*
X11205777Y-14554960D02*
X11196253Y-14564484D01*
X11196253Y-14564484D02*
X11186729Y-14554960D01*
X11186729Y-14554960D02*
X11196253Y-14545436D01*
X11196253Y-14545436D02*
X11196253Y-14564484D01*
X11272443Y-14364484D02*
X11396253Y-14364484D01*
X11396253Y-14364484D02*
X11329586Y-14440674D01*
X11329586Y-14440674D02*
X11358158Y-14440674D01*
X11358158Y-14440674D02*
X11377205Y-14450198D01*
X11377205Y-14450198D02*
X11386729Y-14459722D01*
X11386729Y-14459722D02*
X11396253Y-14478769D01*
X11396253Y-14478769D02*
X11396253Y-14526388D01*
X11396253Y-14526388D02*
X11386729Y-14545436D01*
X11386729Y-14545436D02*
X11377205Y-14554960D01*
X11377205Y-14554960D02*
X11358158Y-14564484D01*
X11358158Y-14564484D02*
X11301015Y-14564484D01*
X11301015Y-14564484D02*
X11281967Y-14554960D01*
X11281967Y-14554960D02*
X11272443Y-14545436D01*
X11520062Y-14364484D02*
X11539110Y-14364484D01*
X11539110Y-14364484D02*
X11558158Y-14374008D01*
X11558158Y-14374008D02*
X11567682Y-14383531D01*
X11567682Y-14383531D02*
X11577205Y-14402579D01*
X11577205Y-14402579D02*
X11586729Y-14440674D01*
X11586729Y-14440674D02*
X11586729Y-14488293D01*
X11586729Y-14488293D02*
X11577205Y-14526388D01*
X11577205Y-14526388D02*
X11567682Y-14545436D01*
X11567682Y-14545436D02*
X11558158Y-14554960D01*
X11558158Y-14554960D02*
X11539110Y-14564484D01*
X11539110Y-14564484D02*
X11520062Y-14564484D01*
X11520062Y-14564484D02*
X11501015Y-14554960D01*
X11501015Y-14554960D02*
X11491491Y-14545436D01*
X11491491Y-14545436D02*
X11481967Y-14526388D01*
X11481967Y-14526388D02*
X11472443Y-14488293D01*
X11472443Y-14488293D02*
X11472443Y-14440674D01*
X11472443Y-14440674D02*
X11481967Y-14402579D01*
X11481967Y-14402579D02*
X11491491Y-14383531D01*
X11491491Y-14383531D02*
X11501015Y-14374008D01*
X11501015Y-14374008D02*
X11520062Y-14364484D01*
X11710539Y-14364484D02*
X11729586Y-14364484D01*
X11729586Y-14364484D02*
X11748634Y-14374008D01*
X11748634Y-14374008D02*
X11758158Y-14383531D01*
X11758158Y-14383531D02*
X11767682Y-14402579D01*
X11767682Y-14402579D02*
X11777205Y-14440674D01*
X11777205Y-14440674D02*
X11777205Y-14488293D01*
X11777205Y-14488293D02*
X11767682Y-14526388D01*
X11767682Y-14526388D02*
X11758158Y-14545436D01*
X11758158Y-14545436D02*
X11748634Y-14554960D01*
X11748634Y-14554960D02*
X11729586Y-14564484D01*
X11729586Y-14564484D02*
X11710539Y-14564484D01*
X11710539Y-14564484D02*
X11691491Y-14554960D01*
X11691491Y-14554960D02*
X11681967Y-14545436D01*
X11681967Y-14545436D02*
X11672443Y-14526388D01*
X11672443Y-14526388D02*
X11662920Y-14488293D01*
X11662920Y-14488293D02*
X11662920Y-14440674D01*
X11662920Y-14440674D02*
X11672443Y-14402579D01*
X11672443Y-14402579D02*
X11681967Y-14383531D01*
X11681967Y-14383531D02*
X11691491Y-14374008D01*
X11691491Y-14374008D02*
X11710539Y-14364484D01*
X11862920Y-14564484D02*
X11862920Y-14431150D01*
X11862920Y-14450198D02*
X11872443Y-14440674D01*
X11872443Y-14440674D02*
X11891491Y-14431150D01*
X11891491Y-14431150D02*
X11920063Y-14431150D01*
X11920063Y-14431150D02*
X11939110Y-14440674D01*
X11939110Y-14440674D02*
X11948634Y-14459722D01*
X11948634Y-14459722D02*
X11948634Y-14564484D01*
X11948634Y-14459722D02*
X11958158Y-14440674D01*
X11958158Y-14440674D02*
X11977205Y-14431150D01*
X11977205Y-14431150D02*
X12005777Y-14431150D01*
X12005777Y-14431150D02*
X12024824Y-14440674D01*
X12024824Y-14440674D02*
X12034348Y-14459722D01*
X12034348Y-14459722D02*
X12034348Y-14564484D01*
X12129586Y-14564484D02*
X12129586Y-14431150D01*
X12129586Y-14450198D02*
X12139110Y-14440674D01*
X12139110Y-14440674D02*
X12158158Y-14431150D01*
X12158158Y-14431150D02*
X12186729Y-14431150D01*
X12186729Y-14431150D02*
X12205777Y-14440674D01*
X12205777Y-14440674D02*
X12215301Y-14459722D01*
X12215301Y-14459722D02*
X12215301Y-14564484D01*
X12215301Y-14459722D02*
X12224824Y-14440674D01*
X12224824Y-14440674D02*
X12243872Y-14431150D01*
X12243872Y-14431150D02*
X12272443Y-14431150D01*
X12272443Y-14431150D02*
X12291491Y-14440674D01*
X12291491Y-14440674D02*
X12301015Y-14459722D01*
X12301015Y-14459722D02*
X12301015Y-14564484D01*
X12691491Y-14354960D02*
X12520063Y-14612103D01*
X12948634Y-14364484D02*
X12967682Y-14364484D01*
X12967682Y-14364484D02*
X12986729Y-14374008D01*
X12986729Y-14374008D02*
X12996253Y-14383531D01*
X12996253Y-14383531D02*
X13005777Y-14402579D01*
X13005777Y-14402579D02*
X13015301Y-14440674D01*
X13015301Y-14440674D02*
X13015301Y-14488293D01*
X13015301Y-14488293D02*
X13005777Y-14526388D01*
X13005777Y-14526388D02*
X12996253Y-14545436D01*
X12996253Y-14545436D02*
X12986729Y-14554960D01*
X12986729Y-14554960D02*
X12967682Y-14564484D01*
X12967682Y-14564484D02*
X12948634Y-14564484D01*
X12948634Y-14564484D02*
X12929586Y-14554960D01*
X12929586Y-14554960D02*
X12920063Y-14545436D01*
X12920063Y-14545436D02*
X12910539Y-14526388D01*
X12910539Y-14526388D02*
X12901015Y-14488293D01*
X12901015Y-14488293D02*
X12901015Y-14440674D01*
X12901015Y-14440674D02*
X12910539Y-14402579D01*
X12910539Y-14402579D02*
X12920063Y-14383531D01*
X12920063Y-14383531D02*
X12929586Y-14374008D01*
X12929586Y-14374008D02*
X12948634Y-14364484D01*
X13101015Y-14545436D02*
X13110539Y-14554960D01*
X13110539Y-14554960D02*
X13101015Y-14564484D01*
X13101015Y-14564484D02*
X13091491Y-14554960D01*
X13091491Y-14554960D02*
X13101015Y-14545436D01*
X13101015Y-14545436D02*
X13101015Y-14564484D01*
X13234348Y-14364484D02*
X13253396Y-14364484D01*
X13253396Y-14364484D02*
X13272444Y-14374008D01*
X13272444Y-14374008D02*
X13281967Y-14383531D01*
X13281967Y-14383531D02*
X13291491Y-14402579D01*
X13291491Y-14402579D02*
X13301015Y-14440674D01*
X13301015Y-14440674D02*
X13301015Y-14488293D01*
X13301015Y-14488293D02*
X13291491Y-14526388D01*
X13291491Y-14526388D02*
X13281967Y-14545436D01*
X13281967Y-14545436D02*
X13272444Y-14554960D01*
X13272444Y-14554960D02*
X13253396Y-14564484D01*
X13253396Y-14564484D02*
X13234348Y-14564484D01*
X13234348Y-14564484D02*
X13215301Y-14554960D01*
X13215301Y-14554960D02*
X13205777Y-14545436D01*
X13205777Y-14545436D02*
X13196253Y-14526388D01*
X13196253Y-14526388D02*
X13186729Y-14488293D01*
X13186729Y-14488293D02*
X13186729Y-14440674D01*
X13186729Y-14440674D02*
X13196253Y-14402579D01*
X13196253Y-14402579D02*
X13205777Y-14383531D01*
X13205777Y-14383531D02*
X13215301Y-14374008D01*
X13215301Y-14374008D02*
X13234348Y-14364484D01*
X13491491Y-14564484D02*
X13377206Y-14564484D01*
X13434348Y-14564484D02*
X13434348Y-14364484D01*
X13434348Y-14364484D02*
X13415301Y-14393055D01*
X13415301Y-14393055D02*
X13396253Y-14412103D01*
X13396253Y-14412103D02*
X13377206Y-14421627D01*
X13681967Y-14564484D02*
X13567682Y-14564484D01*
X13624825Y-14564484D02*
X13624825Y-14364484D01*
X13624825Y-14364484D02*
X13605777Y-14393055D01*
X13605777Y-14393055D02*
X13586729Y-14412103D01*
X13586729Y-14412103D02*
X13567682Y-14421627D01*
X13796253Y-14450198D02*
X13777206Y-14440674D01*
X13777206Y-14440674D02*
X13767682Y-14431150D01*
X13767682Y-14431150D02*
X13758158Y-14412103D01*
X13758158Y-14412103D02*
X13758158Y-14402579D01*
X13758158Y-14402579D02*
X13767682Y-14383531D01*
X13767682Y-14383531D02*
X13777206Y-14374008D01*
X13777206Y-14374008D02*
X13796253Y-14364484D01*
X13796253Y-14364484D02*
X13834348Y-14364484D01*
X13834348Y-14364484D02*
X13853396Y-14374008D01*
X13853396Y-14374008D02*
X13862920Y-14383531D01*
X13862920Y-14383531D02*
X13872444Y-14402579D01*
X13872444Y-14402579D02*
X13872444Y-14412103D01*
X13872444Y-14412103D02*
X13862920Y-14431150D01*
X13862920Y-14431150D02*
X13853396Y-14440674D01*
X13853396Y-14440674D02*
X13834348Y-14450198D01*
X13834348Y-14450198D02*
X13796253Y-14450198D01*
X13796253Y-14450198D02*
X13777206Y-14459722D01*
X13777206Y-14459722D02*
X13767682Y-14469246D01*
X13767682Y-14469246D02*
X13758158Y-14488293D01*
X13758158Y-14488293D02*
X13758158Y-14526388D01*
X13758158Y-14526388D02*
X13767682Y-14545436D01*
X13767682Y-14545436D02*
X13777206Y-14554960D01*
X13777206Y-14554960D02*
X13796253Y-14564484D01*
X13796253Y-14564484D02*
X13834348Y-14564484D01*
X13834348Y-14564484D02*
X13853396Y-14554960D01*
X13853396Y-14554960D02*
X13862920Y-14545436D01*
X13862920Y-14545436D02*
X13872444Y-14526388D01*
X13872444Y-14526388D02*
X13872444Y-14488293D01*
X13872444Y-14488293D02*
X13862920Y-14469246D01*
X13862920Y-14469246D02*
X13853396Y-14459722D01*
X13853396Y-14459722D02*
X13834348Y-14450198D01*
X13948634Y-14364484D02*
X13948634Y-14402579D01*
X14024825Y-14364484D02*
X14024825Y-14402579D01*
X14320063Y-14640674D02*
X14310539Y-14631150D01*
X14310539Y-14631150D02*
X14291491Y-14602579D01*
X14291491Y-14602579D02*
X14281968Y-14583531D01*
X14281968Y-14583531D02*
X14272444Y-14554960D01*
X14272444Y-14554960D02*
X14262920Y-14507341D01*
X14262920Y-14507341D02*
X14262920Y-14469246D01*
X14262920Y-14469246D02*
X14272444Y-14421627D01*
X14272444Y-14421627D02*
X14281968Y-14393055D01*
X14281968Y-14393055D02*
X14291491Y-14374008D01*
X14291491Y-14374008D02*
X14310539Y-14345436D01*
X14310539Y-14345436D02*
X14320063Y-14335912D01*
X14377206Y-14364484D02*
X14501015Y-14364484D01*
X14501015Y-14364484D02*
X14434348Y-14440674D01*
X14434348Y-14440674D02*
X14462920Y-14440674D01*
X14462920Y-14440674D02*
X14481968Y-14450198D01*
X14481968Y-14450198D02*
X14491491Y-14459722D01*
X14491491Y-14459722D02*
X14501015Y-14478769D01*
X14501015Y-14478769D02*
X14501015Y-14526388D01*
X14501015Y-14526388D02*
X14491491Y-14545436D01*
X14491491Y-14545436D02*
X14481968Y-14554960D01*
X14481968Y-14554960D02*
X14462920Y-14564484D01*
X14462920Y-14564484D02*
X14405777Y-14564484D01*
X14405777Y-14564484D02*
X14386729Y-14554960D01*
X14386729Y-14554960D02*
X14377206Y-14545436D01*
X14596253Y-14564484D02*
X14634348Y-14564484D01*
X14634348Y-14564484D02*
X14653396Y-14554960D01*
X14653396Y-14554960D02*
X14662920Y-14545436D01*
X14662920Y-14545436D02*
X14681968Y-14516865D01*
X14681968Y-14516865D02*
X14691491Y-14478769D01*
X14691491Y-14478769D02*
X14691491Y-14402579D01*
X14691491Y-14402579D02*
X14681968Y-14383531D01*
X14681968Y-14383531D02*
X14672444Y-14374008D01*
X14672444Y-14374008D02*
X14653396Y-14364484D01*
X14653396Y-14364484D02*
X14615301Y-14364484D01*
X14615301Y-14364484D02*
X14596253Y-14374008D01*
X14596253Y-14374008D02*
X14586729Y-14383531D01*
X14586729Y-14383531D02*
X14577206Y-14402579D01*
X14577206Y-14402579D02*
X14577206Y-14450198D01*
X14577206Y-14450198D02*
X14586729Y-14469246D01*
X14586729Y-14469246D02*
X14596253Y-14478769D01*
X14596253Y-14478769D02*
X14615301Y-14488293D01*
X14615301Y-14488293D02*
X14653396Y-14488293D01*
X14653396Y-14488293D02*
X14672444Y-14478769D01*
X14672444Y-14478769D02*
X14681968Y-14469246D01*
X14681968Y-14469246D02*
X14691491Y-14450198D01*
X14929587Y-14564484D02*
X14929587Y-14364484D01*
X15015301Y-14564484D02*
X15015301Y-14459722D01*
X15015301Y-14459722D02*
X15005777Y-14440674D01*
X15005777Y-14440674D02*
X14986730Y-14431150D01*
X14986730Y-14431150D02*
X14958158Y-14431150D01*
X14958158Y-14431150D02*
X14939110Y-14440674D01*
X14939110Y-14440674D02*
X14929587Y-14450198D01*
X15139110Y-14564484D02*
X15120063Y-14554960D01*
X15120063Y-14554960D02*
X15110539Y-14545436D01*
X15110539Y-14545436D02*
X15101015Y-14526388D01*
X15101015Y-14526388D02*
X15101015Y-14469246D01*
X15101015Y-14469246D02*
X15110539Y-14450198D01*
X15110539Y-14450198D02*
X15120063Y-14440674D01*
X15120063Y-14440674D02*
X15139110Y-14431150D01*
X15139110Y-14431150D02*
X15167682Y-14431150D01*
X15167682Y-14431150D02*
X15186730Y-14440674D01*
X15186730Y-14440674D02*
X15196253Y-14450198D01*
X15196253Y-14450198D02*
X15205777Y-14469246D01*
X15205777Y-14469246D02*
X15205777Y-14526388D01*
X15205777Y-14526388D02*
X15196253Y-14545436D01*
X15196253Y-14545436D02*
X15186730Y-14554960D01*
X15186730Y-14554960D02*
X15167682Y-14564484D01*
X15167682Y-14564484D02*
X15139110Y-14564484D01*
X15320063Y-14564484D02*
X15301015Y-14554960D01*
X15301015Y-14554960D02*
X15291491Y-14535912D01*
X15291491Y-14535912D02*
X15291491Y-14364484D01*
X15472444Y-14554960D02*
X15453396Y-14564484D01*
X15453396Y-14564484D02*
X15415301Y-14564484D01*
X15415301Y-14564484D02*
X15396253Y-14554960D01*
X15396253Y-14554960D02*
X15386730Y-14535912D01*
X15386730Y-14535912D02*
X15386730Y-14459722D01*
X15386730Y-14459722D02*
X15396253Y-14440674D01*
X15396253Y-14440674D02*
X15415301Y-14431150D01*
X15415301Y-14431150D02*
X15453396Y-14431150D01*
X15453396Y-14431150D02*
X15472444Y-14440674D01*
X15472444Y-14440674D02*
X15481968Y-14459722D01*
X15481968Y-14459722D02*
X15481968Y-14478769D01*
X15481968Y-14478769D02*
X15386730Y-14497817D01*
X15558158Y-14554960D02*
X15577206Y-14564484D01*
X15577206Y-14564484D02*
X15615301Y-14564484D01*
X15615301Y-14564484D02*
X15634349Y-14554960D01*
X15634349Y-14554960D02*
X15643872Y-14535912D01*
X15643872Y-14535912D02*
X15643872Y-14526388D01*
X15643872Y-14526388D02*
X15634349Y-14507341D01*
X15634349Y-14507341D02*
X15615301Y-14497817D01*
X15615301Y-14497817D02*
X15586730Y-14497817D01*
X15586730Y-14497817D02*
X15567682Y-14488293D01*
X15567682Y-14488293D02*
X15558158Y-14469246D01*
X15558158Y-14469246D02*
X15558158Y-14459722D01*
X15558158Y-14459722D02*
X15567682Y-14440674D01*
X15567682Y-14440674D02*
X15586730Y-14431150D01*
X15586730Y-14431150D02*
X15615301Y-14431150D01*
X15615301Y-14431150D02*
X15634349Y-14440674D01*
X15710539Y-14640674D02*
X15720063Y-14631150D01*
X15720063Y-14631150D02*
X15739111Y-14602579D01*
X15739111Y-14602579D02*
X15748634Y-14583531D01*
X15748634Y-14583531D02*
X15758158Y-14554960D01*
X15758158Y-14554960D02*
X15767682Y-14507341D01*
X15767682Y-14507341D02*
X15767682Y-14469246D01*
X15767682Y-14469246D02*
X15758158Y-14421627D01*
X15758158Y-14421627D02*
X15748634Y-14393055D01*
X15748634Y-14393055D02*
X15739111Y-14374008D01*
X15739111Y-14374008D02*
X15720063Y-14345436D01*
X15720063Y-14345436D02*
X15710539Y-14335912D01*
D10*
X10739142Y-14751142D02*
X10739142Y-14722858D01*
X10710858Y-14722858D01*
X10710858Y-14751142D01*
X10739142Y-14751142D01*
D11*
X11043872Y-14628484D02*
X11062920Y-14628484D01*
X11062920Y-14628484D02*
X11081967Y-14638008D01*
X11081967Y-14638008D02*
X11091491Y-14647531D01*
X11091491Y-14647531D02*
X11101015Y-14666579D01*
X11101015Y-14666579D02*
X11110539Y-14704674D01*
X11110539Y-14704674D02*
X11110539Y-14752293D01*
X11110539Y-14752293D02*
X11101015Y-14790388D01*
X11101015Y-14790388D02*
X11091491Y-14809436D01*
X11091491Y-14809436D02*
X11081967Y-14818960D01*
X11081967Y-14818960D02*
X11062920Y-14828484D01*
X11062920Y-14828484D02*
X11043872Y-14828484D01*
X11043872Y-14828484D02*
X11024824Y-14818960D01*
X11024824Y-14818960D02*
X11015301Y-14809436D01*
X11015301Y-14809436D02*
X11005777Y-14790388D01*
X11005777Y-14790388D02*
X10996253Y-14752293D01*
X10996253Y-14752293D02*
X10996253Y-14704674D01*
X10996253Y-14704674D02*
X11005777Y-14666579D01*
X11005777Y-14666579D02*
X11015301Y-14647531D01*
X11015301Y-14647531D02*
X11024824Y-14638008D01*
X11024824Y-14638008D02*
X11043872Y-14628484D01*
X11196253Y-14809436D02*
X11205777Y-14818960D01*
X11205777Y-14818960D02*
X11196253Y-14828484D01*
X11196253Y-14828484D02*
X11186729Y-14818960D01*
X11186729Y-14818960D02*
X11196253Y-14809436D01*
X11196253Y-14809436D02*
X11196253Y-14828484D01*
X11377205Y-14695150D02*
X11377205Y-14828484D01*
X11329586Y-14618960D02*
X11281967Y-14761817D01*
X11281967Y-14761817D02*
X11405777Y-14761817D01*
X11520062Y-14628484D02*
X11539110Y-14628484D01*
X11539110Y-14628484D02*
X11558158Y-14638008D01*
X11558158Y-14638008D02*
X11567682Y-14647531D01*
X11567682Y-14647531D02*
X11577205Y-14666579D01*
X11577205Y-14666579D02*
X11586729Y-14704674D01*
X11586729Y-14704674D02*
X11586729Y-14752293D01*
X11586729Y-14752293D02*
X11577205Y-14790388D01*
X11577205Y-14790388D02*
X11567682Y-14809436D01*
X11567682Y-14809436D02*
X11558158Y-14818960D01*
X11558158Y-14818960D02*
X11539110Y-14828484D01*
X11539110Y-14828484D02*
X11520062Y-14828484D01*
X11520062Y-14828484D02*
X11501015Y-14818960D01*
X11501015Y-14818960D02*
X11491491Y-14809436D01*
X11491491Y-14809436D02*
X11481967Y-14790388D01*
X11481967Y-14790388D02*
X11472443Y-14752293D01*
X11472443Y-14752293D02*
X11472443Y-14704674D01*
X11472443Y-14704674D02*
X11481967Y-14666579D01*
X11481967Y-14666579D02*
X11491491Y-14647531D01*
X11491491Y-14647531D02*
X11501015Y-14638008D01*
X11501015Y-14638008D02*
X11520062Y-14628484D01*
X11710539Y-14628484D02*
X11729586Y-14628484D01*
X11729586Y-14628484D02*
X11748634Y-14638008D01*
X11748634Y-14638008D02*
X11758158Y-14647531D01*
X11758158Y-14647531D02*
X11767682Y-14666579D01*
X11767682Y-14666579D02*
X11777205Y-14704674D01*
X11777205Y-14704674D02*
X11777205Y-14752293D01*
X11777205Y-14752293D02*
X11767682Y-14790388D01*
X11767682Y-14790388D02*
X11758158Y-14809436D01*
X11758158Y-14809436D02*
X11748634Y-14818960D01*
X11748634Y-14818960D02*
X11729586Y-14828484D01*
X11729586Y-14828484D02*
X11710539Y-14828484D01*
X11710539Y-14828484D02*
X11691491Y-14818960D01*
X11691491Y-14818960D02*
X11681967Y-14809436D01*
X11681967Y-14809436D02*
X11672443Y-14790388D01*
X11672443Y-14790388D02*
X11662920Y-14752293D01*
X11662920Y-14752293D02*
X11662920Y-14704674D01*
X11662920Y-14704674D02*
X11672443Y-14666579D01*
X11672443Y-14666579D02*
X11681967Y-14647531D01*
X11681967Y-14647531D02*
X11691491Y-14638008D01*
X11691491Y-14638008D02*
X11710539Y-14628484D01*
X11862920Y-14828484D02*
X11862920Y-14695150D01*
X11862920Y-14714198D02*
X11872443Y-14704674D01*
X11872443Y-14704674D02*
X11891491Y-14695150D01*
X11891491Y-14695150D02*
X11920063Y-14695150D01*
X11920063Y-14695150D02*
X11939110Y-14704674D01*
X11939110Y-14704674D02*
X11948634Y-14723722D01*
X11948634Y-14723722D02*
X11948634Y-14828484D01*
X11948634Y-14723722D02*
X11958158Y-14704674D01*
X11958158Y-14704674D02*
X11977205Y-14695150D01*
X11977205Y-14695150D02*
X12005777Y-14695150D01*
X12005777Y-14695150D02*
X12024824Y-14704674D01*
X12024824Y-14704674D02*
X12034348Y-14723722D01*
X12034348Y-14723722D02*
X12034348Y-14828484D01*
X12129586Y-14828484D02*
X12129586Y-14695150D01*
X12129586Y-14714198D02*
X12139110Y-14704674D01*
X12139110Y-14704674D02*
X12158158Y-14695150D01*
X12158158Y-14695150D02*
X12186729Y-14695150D01*
X12186729Y-14695150D02*
X12205777Y-14704674D01*
X12205777Y-14704674D02*
X12215301Y-14723722D01*
X12215301Y-14723722D02*
X12215301Y-14828484D01*
X12215301Y-14723722D02*
X12224824Y-14704674D01*
X12224824Y-14704674D02*
X12243872Y-14695150D01*
X12243872Y-14695150D02*
X12272443Y-14695150D01*
X12272443Y-14695150D02*
X12291491Y-14704674D01*
X12291491Y-14704674D02*
X12301015Y-14723722D01*
X12301015Y-14723722D02*
X12301015Y-14828484D01*
X12691491Y-14618960D02*
X12520063Y-14876103D01*
X12948634Y-14628484D02*
X12967682Y-14628484D01*
X12967682Y-14628484D02*
X12986729Y-14638008D01*
X12986729Y-14638008D02*
X12996253Y-14647531D01*
X12996253Y-14647531D02*
X13005777Y-14666579D01*
X13005777Y-14666579D02*
X13015301Y-14704674D01*
X13015301Y-14704674D02*
X13015301Y-14752293D01*
X13015301Y-14752293D02*
X13005777Y-14790388D01*
X13005777Y-14790388D02*
X12996253Y-14809436D01*
X12996253Y-14809436D02*
X12986729Y-14818960D01*
X12986729Y-14818960D02*
X12967682Y-14828484D01*
X12967682Y-14828484D02*
X12948634Y-14828484D01*
X12948634Y-14828484D02*
X12929586Y-14818960D01*
X12929586Y-14818960D02*
X12920063Y-14809436D01*
X12920063Y-14809436D02*
X12910539Y-14790388D01*
X12910539Y-14790388D02*
X12901015Y-14752293D01*
X12901015Y-14752293D02*
X12901015Y-14704674D01*
X12901015Y-14704674D02*
X12910539Y-14666579D01*
X12910539Y-14666579D02*
X12920063Y-14647531D01*
X12920063Y-14647531D02*
X12929586Y-14638008D01*
X12929586Y-14638008D02*
X12948634Y-14628484D01*
X13101015Y-14809436D02*
X13110539Y-14818960D01*
X13110539Y-14818960D02*
X13101015Y-14828484D01*
X13101015Y-14828484D02*
X13091491Y-14818960D01*
X13091491Y-14818960D02*
X13101015Y-14809436D01*
X13101015Y-14809436D02*
X13101015Y-14828484D01*
X13234348Y-14628484D02*
X13253396Y-14628484D01*
X13253396Y-14628484D02*
X13272444Y-14638008D01*
X13272444Y-14638008D02*
X13281967Y-14647531D01*
X13281967Y-14647531D02*
X13291491Y-14666579D01*
X13291491Y-14666579D02*
X13301015Y-14704674D01*
X13301015Y-14704674D02*
X13301015Y-14752293D01*
X13301015Y-14752293D02*
X13291491Y-14790388D01*
X13291491Y-14790388D02*
X13281967Y-14809436D01*
X13281967Y-14809436D02*
X13272444Y-14818960D01*
X13272444Y-14818960D02*
X13253396Y-14828484D01*
X13253396Y-14828484D02*
X13234348Y-14828484D01*
X13234348Y-14828484D02*
X13215301Y-14818960D01*
X13215301Y-14818960D02*
X13205777Y-14809436D01*
X13205777Y-14809436D02*
X13196253Y-14790388D01*
X13196253Y-14790388D02*
X13186729Y-14752293D01*
X13186729Y-14752293D02*
X13186729Y-14704674D01*
X13186729Y-14704674D02*
X13196253Y-14666579D01*
X13196253Y-14666579D02*
X13205777Y-14647531D01*
X13205777Y-14647531D02*
X13215301Y-14638008D01*
X13215301Y-14638008D02*
X13234348Y-14628484D01*
X13491491Y-14828484D02*
X13377206Y-14828484D01*
X13434348Y-14828484D02*
X13434348Y-14628484D01*
X13434348Y-14628484D02*
X13415301Y-14657055D01*
X13415301Y-14657055D02*
X13396253Y-14676103D01*
X13396253Y-14676103D02*
X13377206Y-14685627D01*
X13672444Y-14628484D02*
X13577206Y-14628484D01*
X13577206Y-14628484D02*
X13567682Y-14723722D01*
X13567682Y-14723722D02*
X13577206Y-14714198D01*
X13577206Y-14714198D02*
X13596253Y-14704674D01*
X13596253Y-14704674D02*
X13643872Y-14704674D01*
X13643872Y-14704674D02*
X13662920Y-14714198D01*
X13662920Y-14714198D02*
X13672444Y-14723722D01*
X13672444Y-14723722D02*
X13681967Y-14742769D01*
X13681967Y-14742769D02*
X13681967Y-14790388D01*
X13681967Y-14790388D02*
X13672444Y-14809436D01*
X13672444Y-14809436D02*
X13662920Y-14818960D01*
X13662920Y-14818960D02*
X13643872Y-14828484D01*
X13643872Y-14828484D02*
X13596253Y-14828484D01*
X13596253Y-14828484D02*
X13577206Y-14818960D01*
X13577206Y-14818960D02*
X13567682Y-14809436D01*
X13748634Y-14628484D02*
X13881967Y-14628484D01*
X13881967Y-14628484D02*
X13796253Y-14828484D01*
X13948634Y-14628484D02*
X13948634Y-14666579D01*
X14024825Y-14628484D02*
X14024825Y-14666579D01*
X14320063Y-14904674D02*
X14310539Y-14895150D01*
X14310539Y-14895150D02*
X14291491Y-14866579D01*
X14291491Y-14866579D02*
X14281968Y-14847531D01*
X14281968Y-14847531D02*
X14272444Y-14818960D01*
X14272444Y-14818960D02*
X14262920Y-14771341D01*
X14262920Y-14771341D02*
X14262920Y-14733246D01*
X14262920Y-14733246D02*
X14272444Y-14685627D01*
X14272444Y-14685627D02*
X14281968Y-14657055D01*
X14281968Y-14657055D02*
X14291491Y-14638008D01*
X14291491Y-14638008D02*
X14310539Y-14609436D01*
X14310539Y-14609436D02*
X14320063Y-14599912D01*
X14405777Y-14828484D02*
X14443872Y-14828484D01*
X14443872Y-14828484D02*
X14462920Y-14818960D01*
X14462920Y-14818960D02*
X14472444Y-14809436D01*
X14472444Y-14809436D02*
X14491491Y-14780865D01*
X14491491Y-14780865D02*
X14501015Y-14742769D01*
X14501015Y-14742769D02*
X14501015Y-14666579D01*
X14501015Y-14666579D02*
X14491491Y-14647531D01*
X14491491Y-14647531D02*
X14481968Y-14638008D01*
X14481968Y-14638008D02*
X14462920Y-14628484D01*
X14462920Y-14628484D02*
X14424825Y-14628484D01*
X14424825Y-14628484D02*
X14405777Y-14638008D01*
X14405777Y-14638008D02*
X14396253Y-14647531D01*
X14396253Y-14647531D02*
X14386729Y-14666579D01*
X14386729Y-14666579D02*
X14386729Y-14714198D01*
X14386729Y-14714198D02*
X14396253Y-14733246D01*
X14396253Y-14733246D02*
X14405777Y-14742769D01*
X14405777Y-14742769D02*
X14424825Y-14752293D01*
X14424825Y-14752293D02*
X14462920Y-14752293D01*
X14462920Y-14752293D02*
X14481968Y-14742769D01*
X14481968Y-14742769D02*
X14491491Y-14733246D01*
X14491491Y-14733246D02*
X14501015Y-14714198D01*
X14577206Y-14647531D02*
X14586729Y-14638008D01*
X14586729Y-14638008D02*
X14605777Y-14628484D01*
X14605777Y-14628484D02*
X14653396Y-14628484D01*
X14653396Y-14628484D02*
X14672444Y-14638008D01*
X14672444Y-14638008D02*
X14681968Y-14647531D01*
X14681968Y-14647531D02*
X14691491Y-14666579D01*
X14691491Y-14666579D02*
X14691491Y-14685627D01*
X14691491Y-14685627D02*
X14681968Y-14714198D01*
X14681968Y-14714198D02*
X14567682Y-14828484D01*
X14567682Y-14828484D02*
X14691491Y-14828484D01*
X14929587Y-14828484D02*
X14929587Y-14628484D01*
X15015301Y-14828484D02*
X15015301Y-14723722D01*
X15015301Y-14723722D02*
X15005777Y-14704674D01*
X15005777Y-14704674D02*
X14986730Y-14695150D01*
X14986730Y-14695150D02*
X14958158Y-14695150D01*
X14958158Y-14695150D02*
X14939110Y-14704674D01*
X14939110Y-14704674D02*
X14929587Y-14714198D01*
X15139110Y-14828484D02*
X15120063Y-14818960D01*
X15120063Y-14818960D02*
X15110539Y-14809436D01*
X15110539Y-14809436D02*
X15101015Y-14790388D01*
X15101015Y-14790388D02*
X15101015Y-14733246D01*
X15101015Y-14733246D02*
X15110539Y-14714198D01*
X15110539Y-14714198D02*
X15120063Y-14704674D01*
X15120063Y-14704674D02*
X15139110Y-14695150D01*
X15139110Y-14695150D02*
X15167682Y-14695150D01*
X15167682Y-14695150D02*
X15186730Y-14704674D01*
X15186730Y-14704674D02*
X15196253Y-14714198D01*
X15196253Y-14714198D02*
X15205777Y-14733246D01*
X15205777Y-14733246D02*
X15205777Y-14790388D01*
X15205777Y-14790388D02*
X15196253Y-14809436D01*
X15196253Y-14809436D02*
X15186730Y-14818960D01*
X15186730Y-14818960D02*
X15167682Y-14828484D01*
X15167682Y-14828484D02*
X15139110Y-14828484D01*
X15320063Y-14828484D02*
X15301015Y-14818960D01*
X15301015Y-14818960D02*
X15291491Y-14799912D01*
X15291491Y-14799912D02*
X15291491Y-14628484D01*
X15472444Y-14818960D02*
X15453396Y-14828484D01*
X15453396Y-14828484D02*
X15415301Y-14828484D01*
X15415301Y-14828484D02*
X15396253Y-14818960D01*
X15396253Y-14818960D02*
X15386730Y-14799912D01*
X15386730Y-14799912D02*
X15386730Y-14723722D01*
X15386730Y-14723722D02*
X15396253Y-14704674D01*
X15396253Y-14704674D02*
X15415301Y-14695150D01*
X15415301Y-14695150D02*
X15453396Y-14695150D01*
X15453396Y-14695150D02*
X15472444Y-14704674D01*
X15472444Y-14704674D02*
X15481968Y-14723722D01*
X15481968Y-14723722D02*
X15481968Y-14742769D01*
X15481968Y-14742769D02*
X15386730Y-14761817D01*
X15558158Y-14818960D02*
X15577206Y-14828484D01*
X15577206Y-14828484D02*
X15615301Y-14828484D01*
X15615301Y-14828484D02*
X15634349Y-14818960D01*
X15634349Y-14818960D02*
X15643872Y-14799912D01*
X15643872Y-14799912D02*
X15643872Y-14790388D01*
X15643872Y-14790388D02*
X15634349Y-14771341D01*
X15634349Y-14771341D02*
X15615301Y-14761817D01*
X15615301Y-14761817D02*
X15586730Y-14761817D01*
X15586730Y-14761817D02*
X15567682Y-14752293D01*
X15567682Y-14752293D02*
X15558158Y-14733246D01*
X15558158Y-14733246D02*
X15558158Y-14723722D01*
X15558158Y-14723722D02*
X15567682Y-14704674D01*
X15567682Y-14704674D02*
X15586730Y-14695150D01*
X15586730Y-14695150D02*
X15615301Y-14695150D01*
X15615301Y-14695150D02*
X15634349Y-14704674D01*
X15710539Y-14904674D02*
X15720063Y-14895150D01*
X15720063Y-14895150D02*
X15739111Y-14866579D01*
X15739111Y-14866579D02*
X15748634Y-14847531D01*
X15748634Y-14847531D02*
X15758158Y-14818960D01*
X15758158Y-14818960D02*
X15767682Y-14771341D01*
X15767682Y-14771341D02*
X15767682Y-14733246D01*
X15767682Y-14733246D02*
X15758158Y-14685627D01*
X15758158Y-14685627D02*
X15748634Y-14657055D01*
X15748634Y-14657055D02*
X15739111Y-14638008D01*
X15739111Y-14638008D02*
X15720063Y-14609436D01*
X15720063Y-14609436D02*
X15710539Y-14599912D01*
M02*
