G04 #@! TF.GenerationSoftware,KiCad,Pcbnew,9.0.0-9.0.0-2~ubuntu24.10.1*
G04 #@! TF.CreationDate,2025-04-01T16:44:13+02:00*
G04 #@! TF.ProjectId,Zynq_SoM,5a796e71-5f53-46f4-9d2e-6b696361645f,1.0*
G04 #@! TF.SameCoordinates,Original*
G04 #@! TF.FileFunction,Soldermask,Bot*
G04 #@! TF.FilePolarity,Negative*
%FSLAX46Y46*%
G04 Gerber Fmt 4.6, Leading zero omitted, Abs format (unit mm)*
G04 Created by KiCad (PCBNEW 9.0.0-9.0.0-2~ubuntu24.10.1) date 2025-04-01 16:44:13*
%MOMM*%
%LPD*%
G01*
G04 APERTURE LIST*
G04 Aperture macros list*
%AMRoundRect*
0 Rectangle with rounded corners*
0 $1 Rounding radius*
0 $2 $3 $4 $5 $6 $7 $8 $9 X,Y pos of 4 corners*
0 Add a 4 corners polygon primitive as box body*
4,1,4,$2,$3,$4,$5,$6,$7,$8,$9,$2,$3,0*
0 Add four circle primitives for the rounded corners*
1,1,$1+$1,$2,$3*
1,1,$1+$1,$4,$5*
1,1,$1+$1,$6,$7*
1,1,$1+$1,$8,$9*
0 Add four rect primitives between the rounded corners*
20,1,$1+$1,$2,$3,$4,$5,0*
20,1,$1+$1,$4,$5,$6,$7,0*
20,1,$1+$1,$6,$7,$8,$9,0*
20,1,$1+$1,$8,$9,$2,$3,0*%
G04 Aperture macros list end*
%ADD10C,2.700005*%
%ADD11C,2.700000*%
%ADD12RoundRect,0.135000X-0.135000X-0.185000X0.135000X-0.185000X0.135000X0.185000X-0.135000X0.185000X0*%
%ADD13RoundRect,0.100000X0.100000X-0.130000X0.100000X0.130000X-0.100000X0.130000X-0.100000X-0.130000X0*%
%ADD14RoundRect,0.100000X-0.162635X0.021213X0.021213X-0.162635X0.162635X-0.021213X-0.021213X0.162635X0*%
%ADD15RoundRect,0.135000X0.135000X0.185000X-0.135000X0.185000X-0.135000X-0.185000X0.135000X-0.185000X0*%
%ADD16C,0.700000*%
%ADD17RoundRect,0.100000X0.021213X0.162635X-0.162635X-0.021213X-0.021213X-0.162635X0.162635X0.021213X0*%
%ADD18RoundRect,0.100000X-0.100000X0.130000X-0.100000X-0.130000X0.100000X-0.130000X0.100000X0.130000X0*%
%ADD19RoundRect,0.100000X-0.130000X-0.100000X0.130000X-0.100000X0.130000X0.100000X-0.130000X0.100000X0*%
%ADD20RoundRect,0.140000X-0.140000X-0.170000X0.140000X-0.170000X0.140000X0.170000X-0.140000X0.170000X0*%
%ADD21RoundRect,0.150000X-0.587500X-0.150000X0.587500X-0.150000X0.587500X0.150000X-0.587500X0.150000X0*%
%ADD22RoundRect,0.062500X-0.062500X0.350000X-0.062500X-0.350000X0.062500X-0.350000X0.062500X0.350000X0*%
%ADD23RoundRect,0.062500X-0.350000X0.062500X-0.350000X-0.062500X0.350000X-0.062500X0.350000X0.062500X0*%
%ADD24R,2.600000X2.600000*%
%ADD25RoundRect,0.140000X-0.170000X0.140000X-0.170000X-0.140000X0.170000X-0.140000X0.170000X0.140000X0*%
%ADD26RoundRect,0.140000X0.170000X-0.140000X0.170000X0.140000X-0.170000X0.140000X-0.170000X-0.140000X0*%
%ADD27RoundRect,0.135000X-0.185000X0.135000X-0.185000X-0.135000X0.185000X-0.135000X0.185000X0.135000X0*%
%ADD28RoundRect,0.147500X0.147500X0.172500X-0.147500X0.172500X-0.147500X-0.172500X0.147500X-0.172500X0*%
%ADD29RoundRect,0.250000X0.325000X0.650000X-0.325000X0.650000X-0.325000X-0.650000X0.325000X-0.650000X0*%
%ADD30RoundRect,0.140000X0.140000X0.170000X-0.140000X0.170000X-0.140000X-0.170000X0.140000X-0.170000X0*%
%ADD31RoundRect,0.147500X0.172500X-0.147500X0.172500X0.147500X-0.172500X0.147500X-0.172500X-0.147500X0*%
%ADD32RoundRect,0.100000X0.130000X0.100000X-0.130000X0.100000X-0.130000X-0.100000X0.130000X-0.100000X0*%
%ADD33RoundRect,0.135000X0.185000X-0.135000X0.185000X0.135000X-0.185000X0.135000X-0.185000X-0.135000X0*%
%ADD34R,0.200000X0.700000*%
%ADD35RoundRect,0.250000X-0.250000X-0.475000X0.250000X-0.475000X0.250000X0.475000X-0.250000X0.475000X0*%
%ADD36RoundRect,0.250000X0.475000X-0.250000X0.475000X0.250000X-0.475000X0.250000X-0.475000X-0.250000X0*%
%ADD37RoundRect,0.147500X-0.147500X-0.172500X0.147500X-0.172500X0.147500X0.172500X-0.147500X0.172500X0*%
%ADD38RoundRect,0.135000X0.226274X0.035355X0.035355X0.226274X-0.226274X-0.035355X-0.035355X-0.226274X0*%
%ADD39C,0.390000*%
%ADD40RoundRect,0.135000X0.220016X-0.063585X0.127670X0.190132X-0.220016X0.063585X-0.127670X-0.190132X0*%
%ADD41RoundRect,0.100000X-0.021213X-0.162635X0.162635X0.021213X0.021213X0.162635X-0.162635X-0.021213X0*%
%ADD42RoundRect,0.135000X-0.226274X-0.035355X-0.035355X-0.226274X0.226274X0.035355X0.035355X0.226274X0*%
%ADD43R,0.800000X0.600000*%
%ADD44R,0.700000X0.200000*%
%ADD45R,0.600000X0.800000*%
%ADD46RoundRect,0.140000X-0.002028X0.220218X-0.216520X0.040237X0.002028X-0.220218X0.216520X-0.040237X0*%
%ADD47RoundRect,0.147500X-0.172500X0.147500X-0.172500X-0.147500X0.172500X-0.147500X0.172500X0.147500X0*%
G04 APERTURE END LIST*
D10*
X111850002Y-94000000D02*
G75*
G02*
X109149998Y-94000000I-1350002J0D01*
G01*
X109149998Y-94000000D02*
G75*
G02*
X111850002Y-94000000I1350002J0D01*
G01*
X155850002Y-94000000D02*
G75*
G02*
X153149998Y-94000000I-1350002J0D01*
G01*
X153149998Y-94000000D02*
G75*
G02*
X155850002Y-94000000I1350002J0D01*
G01*
X111850002Y-130000000D02*
G75*
G02*
X109149998Y-130000000I-1350002J0D01*
G01*
X109149998Y-130000000D02*
G75*
G02*
X111850002Y-130000000I1350002J0D01*
G01*
X155850002Y-130000000D02*
G75*
G02*
X153149998Y-130000000I-1350002J0D01*
G01*
X153149998Y-130000000D02*
G75*
G02*
X155850002Y-130000000I1350002J0D01*
G01*
D11*
X110500000Y-94000000D03*
X154500000Y-94000000D03*
X110500000Y-130000000D03*
X154500000Y-130000000D03*
D12*
X138290000Y-118950000D03*
X139310000Y-118950000D03*
D13*
X131800000Y-106545000D03*
X131800000Y-105905000D03*
D14*
X146323726Y-112333726D03*
X146776274Y-112786274D03*
D15*
X130110000Y-118080000D03*
X129090000Y-118080000D03*
X130110000Y-112060000D03*
X129090000Y-112060000D03*
D16*
X149300000Y-128700000D03*
D17*
X144356274Y-114443726D03*
X143903726Y-114896274D03*
D18*
X136750000Y-117255000D03*
X136750000Y-117895000D03*
D16*
X118210000Y-127020000D03*
D19*
X136104998Y-116400000D03*
X136744998Y-116400000D03*
D20*
X132295000Y-111975000D03*
X133255000Y-111975000D03*
D12*
X109250000Y-109600000D03*
X110270000Y-109600000D03*
D21*
X149962500Y-127012500D03*
X149962500Y-125112500D03*
X151837500Y-126062500D03*
D22*
X130250000Y-97937500D03*
X130750000Y-97937500D03*
X131250000Y-97937500D03*
X131750000Y-97937500D03*
X132250000Y-97937500D03*
X132750000Y-97937500D03*
D23*
X133437500Y-98625000D03*
X133437500Y-99125000D03*
X133437500Y-99625000D03*
X133437500Y-100125000D03*
X133437500Y-100625000D03*
X133437500Y-101125000D03*
D22*
X132750000Y-101812500D03*
X132250000Y-101812500D03*
X131750000Y-101812500D03*
X131250000Y-101812500D03*
X130750000Y-101812500D03*
X130250000Y-101812500D03*
D23*
X129562500Y-101125000D03*
X129562500Y-100625000D03*
X129562500Y-100125000D03*
X129562500Y-99625000D03*
X129562500Y-99125000D03*
X129562500Y-98625000D03*
D24*
X131500000Y-99875000D03*
D25*
X128450000Y-100290000D03*
X128450000Y-101250000D03*
D16*
X120800000Y-128100000D03*
D26*
X121700000Y-99405000D03*
X121700000Y-98445000D03*
D25*
X142650000Y-107795000D03*
X142650000Y-108755000D03*
D27*
X126900000Y-101990000D03*
X126900000Y-103010000D03*
D28*
X140825000Y-114870000D03*
X139855000Y-114870000D03*
D29*
X112775000Y-112800000D03*
X109825000Y-112800000D03*
D30*
X140130000Y-117190000D03*
X139170000Y-117190000D03*
D31*
X144175000Y-100510000D03*
X144175000Y-99540000D03*
D19*
X124054998Y-117199999D03*
X124694998Y-117199999D03*
X144880000Y-116000000D03*
X145520000Y-116000000D03*
D32*
X145920000Y-109600000D03*
X145280000Y-109600000D03*
D33*
X127300000Y-101010000D03*
X127300000Y-99990000D03*
D16*
X118150000Y-102300000D03*
D18*
X140390000Y-120880000D03*
X140390000Y-121520000D03*
D28*
X130455000Y-105530000D03*
X129485000Y-105530000D03*
D20*
X138329998Y-113969999D03*
X139289998Y-113969999D03*
D27*
X118250000Y-92690000D03*
X118250000Y-93710000D03*
D14*
X143648726Y-111248726D03*
X144101274Y-111701274D03*
D13*
X143825000Y-107670000D03*
X143825000Y-107030000D03*
D16*
X123400000Y-96600000D03*
D19*
X126440000Y-124274999D03*
X127080000Y-124274999D03*
D15*
X129635000Y-97000000D03*
X128615000Y-97000000D03*
D32*
X137990000Y-112550000D03*
X137350000Y-112550000D03*
D33*
X118300000Y-100610000D03*
X118300000Y-99590000D03*
D12*
X109240000Y-101875000D03*
X110260000Y-101875000D03*
D29*
X112775000Y-119900000D03*
X109825000Y-119900000D03*
D32*
X139119998Y-116389999D03*
X138479998Y-116389999D03*
D18*
X145600000Y-122980000D03*
X145600000Y-123620000D03*
D19*
X140100000Y-113999999D03*
X140740000Y-113999999D03*
D15*
X118060000Y-96000000D03*
X117040000Y-96000000D03*
D34*
X126700000Y-92960000D03*
X126700000Y-96040000D03*
X127100000Y-92960000D03*
X127100000Y-96040000D03*
X127500000Y-92960000D03*
X127500000Y-96040000D03*
X127900000Y-92960000D03*
X127900000Y-96040000D03*
X128300000Y-92960000D03*
X128300000Y-96040000D03*
X128700000Y-92960000D03*
X128700000Y-96040000D03*
X129100000Y-92960000D03*
X129100000Y-96040000D03*
X129500000Y-92960000D03*
X129500000Y-96040000D03*
X129900000Y-92960000D03*
X129900000Y-96040000D03*
X130300000Y-92960000D03*
X130300000Y-96040000D03*
X130700000Y-92960000D03*
X130700000Y-96040000D03*
X131100000Y-92960000D03*
X131100000Y-96040000D03*
X131500000Y-92960000D03*
X131500000Y-96040000D03*
X131900000Y-92960000D03*
X131900000Y-96040000D03*
X132300000Y-92960000D03*
X132300000Y-96040000D03*
X132700000Y-92960000D03*
X132700000Y-96040000D03*
X133100000Y-92960000D03*
X133100000Y-96040000D03*
X133500000Y-92960000D03*
X133500000Y-96040000D03*
X133900000Y-92960000D03*
X133900000Y-96040000D03*
X134300000Y-92960000D03*
X134300000Y-96040000D03*
X134700000Y-92960000D03*
X134700000Y-96040000D03*
X135100000Y-92960000D03*
X135100000Y-96040000D03*
X135500000Y-92960000D03*
X135500000Y-96040000D03*
X135900000Y-92960000D03*
X135900000Y-96040000D03*
X136300000Y-92960000D03*
X136300000Y-96040000D03*
X136700000Y-92960000D03*
X136700000Y-96040000D03*
X137100000Y-92960000D03*
X137100000Y-96040000D03*
X137500000Y-92960000D03*
X137500000Y-96040000D03*
X137900000Y-92960000D03*
X137900000Y-96040000D03*
X138300000Y-92960000D03*
X138300000Y-96040000D03*
X138700000Y-92960000D03*
X138700000Y-96040000D03*
X139100000Y-92960000D03*
X139100000Y-96040000D03*
X139500000Y-92960000D03*
X139500000Y-96040000D03*
X139900000Y-92960000D03*
X139900000Y-96040000D03*
X140300000Y-92960000D03*
X140300000Y-96040000D03*
X140700000Y-92960000D03*
X140700000Y-96040000D03*
X141100000Y-92960000D03*
X141100000Y-96040000D03*
X141500000Y-92960000D03*
X141500000Y-96040000D03*
X141900000Y-92960000D03*
X141900000Y-96040000D03*
X142300000Y-92960000D03*
X142300000Y-96040000D03*
X142700000Y-92960000D03*
X142700000Y-96040000D03*
X143100000Y-92960000D03*
X143100000Y-96040000D03*
X143500000Y-92960000D03*
X143500000Y-96040000D03*
X143900000Y-92960000D03*
X143900000Y-96040000D03*
X144300000Y-92960000D03*
X144300000Y-96040000D03*
X144700000Y-92960000D03*
X144700000Y-96040000D03*
X145100000Y-92960000D03*
X145100000Y-96040000D03*
X145500000Y-92960000D03*
X145500000Y-96040000D03*
X145900000Y-92960000D03*
X145900000Y-96040000D03*
X146300000Y-92960000D03*
X146300000Y-96040000D03*
D16*
X116300000Y-98450000D03*
D17*
X145036274Y-120163726D03*
X144583726Y-120616274D03*
D15*
X130109998Y-117049999D03*
X129089998Y-117049999D03*
X130110000Y-119110000D03*
X129090000Y-119110000D03*
D27*
X115860000Y-119760000D03*
X115860000Y-120780000D03*
D32*
X133495000Y-108450000D03*
X132855000Y-108450000D03*
D35*
X137850000Y-98840000D03*
X139750000Y-98840000D03*
D19*
X141680000Y-114000000D03*
X142320000Y-114000000D03*
X138480000Y-115600000D03*
X139120000Y-115600000D03*
D15*
X118240000Y-125180000D03*
X117220000Y-125180000D03*
D26*
X142975000Y-102605000D03*
X142975000Y-101645000D03*
D36*
X123910000Y-131390000D03*
X123910000Y-129490000D03*
D15*
X130260000Y-122850000D03*
X129240000Y-122850000D03*
D25*
X143760000Y-97410000D03*
X143760000Y-98370000D03*
D30*
X130930000Y-102920000D03*
X129970000Y-102920000D03*
D19*
X122554998Y-117199999D03*
X123194998Y-117199999D03*
D15*
X121709998Y-122074999D03*
X120689998Y-122074999D03*
D19*
X137679998Y-114799999D03*
X138319998Y-114799999D03*
D37*
X138764999Y-110375002D03*
X139734999Y-110375000D03*
D19*
X116930000Y-96900000D03*
X117570000Y-96900000D03*
D33*
X149320000Y-99020000D03*
X149320000Y-98000000D03*
D30*
X140860000Y-115970000D03*
X139900000Y-115970000D03*
D19*
X140879998Y-113200000D03*
X141519998Y-113200000D03*
X138079999Y-111275000D03*
X138719999Y-111275000D03*
D18*
X137300000Y-122480000D03*
X137300000Y-123120000D03*
D31*
X135650000Y-98735000D03*
X135650000Y-97765000D03*
D15*
X130110000Y-108920000D03*
X129090000Y-108920000D03*
D38*
X142421248Y-104721248D03*
X141700000Y-104000000D03*
D16*
X112720000Y-117300000D03*
D32*
X136370000Y-112000000D03*
X135730000Y-112000000D03*
D15*
X130110000Y-109970000D03*
X129090000Y-109970000D03*
D18*
X139999999Y-112480001D03*
X139999999Y-113120001D03*
D15*
X120150000Y-125190000D03*
X119130000Y-125190000D03*
X150670000Y-102650000D03*
X149650000Y-102650000D03*
D16*
X115400000Y-126200000D03*
D15*
X130110000Y-111024999D03*
X129090000Y-111024999D03*
D33*
X143975000Y-102584999D03*
X143975000Y-101565001D03*
D12*
X147090000Y-102750000D03*
X148110000Y-102750000D03*
D33*
X119500000Y-103010000D03*
X119500000Y-101990000D03*
D39*
X117314998Y-106319999D03*
X117314998Y-106819999D03*
X117314998Y-107319999D03*
X117314998Y-107819999D03*
X117314998Y-108319999D03*
X117314998Y-108819999D03*
X117314998Y-109319999D03*
X117314998Y-109819999D03*
X117314998Y-110319999D03*
X117314998Y-110819999D03*
X117314998Y-111319999D03*
X117314998Y-111819999D03*
X117314998Y-112319999D03*
X117314998Y-112819999D03*
X117814998Y-106319999D03*
X117814998Y-106819999D03*
X117814998Y-107319999D03*
X117814998Y-107819999D03*
X117814998Y-108319999D03*
X117814998Y-108819999D03*
X117814998Y-109319999D03*
X117814998Y-109819999D03*
X117814998Y-110319999D03*
X117814998Y-110819999D03*
X117814998Y-111319999D03*
X117814998Y-111819999D03*
X117814998Y-112319999D03*
X117814998Y-112819999D03*
X118314998Y-106319999D03*
X118314998Y-106819999D03*
X118314998Y-107319999D03*
X118314998Y-107819999D03*
X118314998Y-108319999D03*
X118314998Y-108819999D03*
X118314998Y-109319999D03*
X118314998Y-109819999D03*
X118314998Y-110319999D03*
X118314998Y-110819999D03*
X118314998Y-111319999D03*
X118314998Y-111819999D03*
X118314998Y-112319999D03*
X118314998Y-112819999D03*
X118814998Y-106319999D03*
X118814998Y-106819999D03*
X118814998Y-107319999D03*
X118814998Y-107819999D03*
X118814998Y-111819999D03*
X118814998Y-112319999D03*
X118814998Y-112819999D03*
X119314998Y-106319999D03*
X119314998Y-106819999D03*
X119314998Y-107319999D03*
X119314998Y-108319999D03*
X119314998Y-108819999D03*
X119314998Y-109319999D03*
X119314998Y-109819999D03*
X119314998Y-110319999D03*
X119314998Y-110819999D03*
X119314998Y-111819999D03*
X119314998Y-112319999D03*
X119314998Y-112819999D03*
X119814998Y-106319999D03*
X119814998Y-106819999D03*
X119814998Y-107319999D03*
X119814998Y-108319999D03*
X119814998Y-110819999D03*
X119814998Y-111819999D03*
X119814998Y-112319999D03*
X119814998Y-112819999D03*
X120314998Y-106319999D03*
X120314998Y-106819999D03*
X120314998Y-107319999D03*
X120314998Y-108319999D03*
X120314998Y-110819999D03*
X120314998Y-111819999D03*
X120314998Y-112319999D03*
X120314998Y-112819999D03*
X120814998Y-106319999D03*
X120814998Y-106819999D03*
X120814998Y-107319999D03*
X120814998Y-108319999D03*
X120814998Y-110819999D03*
X120814998Y-111819999D03*
X120814998Y-112319999D03*
X120814998Y-112819999D03*
X121314998Y-106319999D03*
X121314998Y-106819999D03*
X121314998Y-107319999D03*
X121314998Y-108319999D03*
X121314998Y-110819999D03*
X121314998Y-111819999D03*
X121314998Y-112319999D03*
X121314998Y-112819999D03*
X121814998Y-106319999D03*
X121814998Y-106819999D03*
X121814998Y-107319999D03*
X121814998Y-108319999D03*
X121814998Y-108819999D03*
X121814998Y-109319999D03*
X121814998Y-109819999D03*
X121814998Y-110319999D03*
X121814998Y-110819999D03*
X121814998Y-111819999D03*
X121814998Y-112319999D03*
X121814998Y-112819999D03*
X122314998Y-106319999D03*
X122314998Y-106819999D03*
X122314998Y-107319999D03*
X122314998Y-111819999D03*
X122314998Y-112319999D03*
X122314998Y-112819999D03*
X122814998Y-106319999D03*
X122814998Y-106819999D03*
X122814998Y-107319999D03*
X122814998Y-107819999D03*
X122814998Y-108319999D03*
X122814998Y-108819999D03*
X122814998Y-109319999D03*
X122814998Y-109819999D03*
X122814998Y-110319999D03*
X122814998Y-110819999D03*
X122814998Y-111319999D03*
X122814998Y-111819999D03*
X122814998Y-112319999D03*
X122814998Y-112819999D03*
X123314998Y-106319999D03*
X123314998Y-106819999D03*
X123314998Y-107319999D03*
X123314998Y-107819999D03*
X123314998Y-108319999D03*
X123314998Y-108819999D03*
X123314998Y-109319999D03*
X123314998Y-109819999D03*
X123314998Y-110319999D03*
X123314998Y-110819999D03*
X123314998Y-111319999D03*
X123314998Y-111819999D03*
X123314998Y-112319999D03*
X123314998Y-112819999D03*
X123814998Y-106319999D03*
X123814998Y-106819999D03*
X123814998Y-107319999D03*
X123814998Y-107819999D03*
X123814998Y-108319999D03*
X123814998Y-108819999D03*
X123814998Y-109319999D03*
X123814998Y-109819999D03*
X123814998Y-110319999D03*
X123814998Y-110819999D03*
X123814998Y-111319999D03*
X123814998Y-111819999D03*
X123814998Y-112319999D03*
X123814998Y-112819999D03*
D15*
X147635000Y-101025000D03*
X146615000Y-101025000D03*
D40*
X141974430Y-119079243D03*
X141625570Y-118120757D03*
D13*
X120500000Y-98620000D03*
X120500000Y-97980000D03*
D25*
X145750000Y-97400000D03*
X145750000Y-98360000D03*
D29*
X112875000Y-105000000D03*
X109925000Y-105000000D03*
D41*
X143598726Y-119201274D03*
X144051274Y-118748726D03*
X120798724Y-117976273D03*
X121251272Y-117523725D03*
D26*
X145175000Y-100530000D03*
X145175000Y-99570000D03*
D19*
X132510000Y-119960000D03*
X133150000Y-119960000D03*
X133279998Y-117549999D03*
X133919998Y-117549999D03*
D42*
X140809376Y-104849376D03*
X141530624Y-105570624D03*
D13*
X141640000Y-115520000D03*
X141640000Y-114880000D03*
X142000000Y-120720000D03*
X142000000Y-120080000D03*
D16*
X115700000Y-102800000D03*
D15*
X126150000Y-100200000D03*
X125130000Y-100200000D03*
D33*
X125900000Y-103010000D03*
X125900000Y-101990000D03*
D32*
X116710000Y-123599999D03*
X116070000Y-123599999D03*
D27*
X140340000Y-118060000D03*
X140340000Y-119080000D03*
D20*
X147845000Y-123600000D03*
X148805000Y-123600000D03*
D16*
X121850000Y-102400000D03*
X149900000Y-132000000D03*
D13*
X140400000Y-109370000D03*
X140400000Y-108730000D03*
D42*
X140364376Y-102114376D03*
X141085624Y-102835624D03*
D43*
X132950000Y-107250000D03*
X132950000Y-105450000D03*
X134150000Y-105450000D03*
X134150000Y-107250000D03*
D15*
X130260000Y-120450000D03*
X129240000Y-120450000D03*
D19*
X146860000Y-118020000D03*
X147500000Y-118020000D03*
D16*
X151730000Y-97620000D03*
X151430000Y-100230000D03*
D29*
X112775000Y-122400000D03*
X109825000Y-122400000D03*
D26*
X134650000Y-98730000D03*
X134650000Y-97770000D03*
D27*
X120500000Y-101990000D03*
X120500000Y-103010000D03*
D44*
X156040000Y-102200000D03*
X152960000Y-102200000D03*
X156040000Y-102600000D03*
X152960000Y-102600000D03*
X156040000Y-103000000D03*
X152960000Y-103000000D03*
X156040000Y-103400000D03*
X152960000Y-103400000D03*
X156040000Y-103800000D03*
X152960000Y-103800000D03*
X156040000Y-104200000D03*
X152960000Y-104200000D03*
X156040000Y-104600000D03*
X152960000Y-104600000D03*
X156040000Y-105000000D03*
X152960000Y-105000000D03*
X156040000Y-105400000D03*
X152960000Y-105400000D03*
X156040000Y-105800000D03*
X152960000Y-105800000D03*
X156040000Y-106200000D03*
X152960000Y-106200000D03*
X156040000Y-106600000D03*
X152960000Y-106600000D03*
X156040000Y-107000000D03*
X152960000Y-107000000D03*
X156040000Y-107400000D03*
X152960000Y-107400000D03*
X156040000Y-107800000D03*
X152960000Y-107800000D03*
X156040000Y-108200000D03*
X152960000Y-108200000D03*
X156040000Y-108600000D03*
X152960000Y-108600000D03*
X156040000Y-109000000D03*
X152960000Y-109000000D03*
X156040000Y-109400000D03*
X152960000Y-109400000D03*
X156040000Y-109800000D03*
X152960000Y-109800000D03*
X156040000Y-110200000D03*
X152960000Y-110200000D03*
X156040000Y-110600000D03*
X152960000Y-110600000D03*
X156040000Y-111000000D03*
X152960000Y-111000000D03*
X156040000Y-111400000D03*
X152960000Y-111400000D03*
X156040000Y-111800000D03*
X152960000Y-111800000D03*
X156040000Y-112200000D03*
X152960000Y-112200000D03*
X156040000Y-112600000D03*
X152960000Y-112600000D03*
X156040000Y-113000000D03*
X152960000Y-113000000D03*
X156040000Y-113400000D03*
X152960000Y-113400000D03*
X156040000Y-113800000D03*
X152960000Y-113800000D03*
X156040000Y-114200000D03*
X152960000Y-114200000D03*
X156040000Y-114600000D03*
X152960000Y-114600000D03*
X156040000Y-115000000D03*
X152960000Y-115000000D03*
X156040000Y-115400000D03*
X152960000Y-115400000D03*
X156040000Y-115800000D03*
X152960000Y-115800000D03*
X156040000Y-116200000D03*
X152960000Y-116200000D03*
X156040000Y-116600000D03*
X152960000Y-116600000D03*
X156040000Y-117000000D03*
X152960000Y-117000000D03*
X156040000Y-117400000D03*
X152960000Y-117400000D03*
X156040000Y-117800000D03*
X152960000Y-117800000D03*
X156040000Y-118200000D03*
X152960000Y-118200000D03*
X156040000Y-118600000D03*
X152960000Y-118600000D03*
X156040000Y-119000000D03*
X152960000Y-119000000D03*
X156040000Y-119400000D03*
X152960000Y-119400000D03*
X156040000Y-119800000D03*
X152960000Y-119800000D03*
X156040000Y-120200000D03*
X152960000Y-120200000D03*
X156040000Y-120600000D03*
X152960000Y-120600000D03*
X156040000Y-121000000D03*
X152960000Y-121000000D03*
X156040000Y-121400000D03*
X152960000Y-121400000D03*
X156040000Y-121800000D03*
X152960000Y-121800000D03*
D15*
X130110000Y-113080000D03*
X129090000Y-113080000D03*
D19*
X126429998Y-123599999D03*
X127069998Y-123599999D03*
X136880000Y-115600000D03*
X137520000Y-115600000D03*
D18*
X138400000Y-117280000D03*
X138400000Y-117920000D03*
D32*
X127894998Y-117199999D03*
X127254998Y-117199999D03*
X134219998Y-113849999D03*
X133579998Y-113849999D03*
D16*
X124000000Y-99400000D03*
D15*
X130110000Y-107910000D03*
X129090000Y-107910000D03*
D13*
X141600000Y-117120000D03*
X141600000Y-116480000D03*
D25*
X136600000Y-97770000D03*
X136600000Y-98730000D03*
D27*
X128525000Y-98030000D03*
X128525000Y-99050000D03*
D33*
X123200000Y-103010000D03*
X123200000Y-101990000D03*
D15*
X130110000Y-114110000D03*
X129090000Y-114110000D03*
D18*
X137300000Y-110880000D03*
X137300000Y-111520000D03*
D12*
X114115000Y-100275000D03*
X115135000Y-100275000D03*
D15*
X130110000Y-106900000D03*
X129090000Y-106900000D03*
D32*
X126294998Y-117224999D03*
X125654998Y-117224999D03*
D12*
X110180000Y-117670000D03*
X111200000Y-117670000D03*
D16*
X135550000Y-105500000D03*
D26*
X142810000Y-112950000D03*
X142810000Y-111990000D03*
X119550000Y-98680000D03*
X119550000Y-97720000D03*
X137600000Y-118129999D03*
X137600000Y-117169999D03*
D25*
X143225000Y-99545000D03*
X143225000Y-100505000D03*
D13*
X133400000Y-123020000D03*
X133400000Y-122380000D03*
D16*
X124450000Y-102700000D03*
D25*
X142890000Y-114710000D03*
X142890000Y-115670000D03*
D15*
X145230000Y-104800000D03*
X144210000Y-104800000D03*
D19*
X140630000Y-111750000D03*
X141270000Y-111750000D03*
D15*
X130260000Y-124300000D03*
X129240000Y-124300000D03*
X130110000Y-116040000D03*
X129090000Y-116040000D03*
D27*
X136100000Y-106490000D03*
X136100000Y-107510000D03*
D33*
X114025000Y-102260000D03*
X114025000Y-101240000D03*
D15*
X130100000Y-115100000D03*
X129080000Y-115100000D03*
X130260000Y-121650000D03*
X129240000Y-121650000D03*
D18*
X137124999Y-113355001D03*
X137124999Y-113995001D03*
D45*
X125725000Y-97525000D03*
X127525000Y-97525000D03*
X127525000Y-98725000D03*
X125725000Y-98725000D03*
D19*
X147900000Y-122630000D03*
X148540000Y-122630000D03*
D46*
X139587700Y-111541463D03*
X138852298Y-112158539D03*
D47*
X118300000Y-97715000D03*
X118300000Y-98685000D03*
D29*
X112775000Y-125000000D03*
X109825000Y-125000000D03*
D12*
X146640000Y-100075000D03*
X147660000Y-100075000D03*
D30*
X147655000Y-99125000D03*
X146695000Y-99125000D03*
D34*
X126700000Y-127960000D03*
X126700000Y-131040000D03*
X127100000Y-127960000D03*
X127100000Y-131040000D03*
X127500000Y-127960000D03*
X127500000Y-131040000D03*
X127900000Y-127960000D03*
X127900000Y-131040000D03*
X128300000Y-127960000D03*
X128300000Y-131040000D03*
X128700000Y-127960000D03*
X128700000Y-131040000D03*
X129100000Y-127960000D03*
X129100000Y-131040000D03*
X129500000Y-127960000D03*
X129500000Y-131040000D03*
X129900000Y-127960000D03*
X129900000Y-131040000D03*
X130300000Y-127960000D03*
X130300000Y-131040000D03*
X130700000Y-127960000D03*
X130700000Y-131040000D03*
X131100000Y-127960000D03*
X131100000Y-131040000D03*
X131500000Y-127960000D03*
X131500000Y-131040000D03*
X131900000Y-127960000D03*
X131900000Y-131040000D03*
X132300000Y-127960000D03*
X132300000Y-131040000D03*
X132700000Y-127960000D03*
X132700000Y-131040000D03*
X133100000Y-127960000D03*
X133100000Y-131040000D03*
X133500000Y-127960000D03*
X133500000Y-131040000D03*
X133900000Y-127960000D03*
X133900000Y-131040000D03*
X134300000Y-127960000D03*
X134300000Y-131040000D03*
X134700000Y-127960000D03*
X134700000Y-131040000D03*
X135100000Y-127960000D03*
X135100000Y-131040000D03*
X135500000Y-127960000D03*
X135500000Y-131040000D03*
X135900000Y-127960000D03*
X135900000Y-131040000D03*
X136300000Y-127960000D03*
X136300000Y-131040000D03*
X136700000Y-127960000D03*
X136700000Y-131040000D03*
X137100000Y-127960000D03*
X137100000Y-131040000D03*
X137500000Y-127960000D03*
X137500000Y-131040000D03*
X137900000Y-127960000D03*
X137900000Y-131040000D03*
X138300000Y-127960000D03*
X138300000Y-131040000D03*
X138700000Y-127960000D03*
X138700000Y-131040000D03*
X139100000Y-127960000D03*
X139100000Y-131040000D03*
X139500000Y-127960000D03*
X139500000Y-131040000D03*
X139900000Y-127960000D03*
X139900000Y-131040000D03*
X140300000Y-127960000D03*
X140300000Y-131040000D03*
X140700000Y-127960000D03*
X140700000Y-131040000D03*
X141100000Y-127960000D03*
X141100000Y-131040000D03*
X141500000Y-127960000D03*
X141500000Y-131040000D03*
X141900000Y-127960000D03*
X141900000Y-131040000D03*
X142300000Y-127960000D03*
X142300000Y-131040000D03*
X142700000Y-127960000D03*
X142700000Y-131040000D03*
X143100000Y-127960000D03*
X143100000Y-131040000D03*
X143500000Y-127960000D03*
X143500000Y-131040000D03*
X143900000Y-127960000D03*
X143900000Y-131040000D03*
X144300000Y-127960000D03*
X144300000Y-131040000D03*
X144700000Y-127960000D03*
X144700000Y-131040000D03*
X145100000Y-127960000D03*
X145100000Y-131040000D03*
X145500000Y-127960000D03*
X145500000Y-131040000D03*
X145900000Y-127960000D03*
X145900000Y-131040000D03*
X146300000Y-127960000D03*
X146300000Y-131040000D03*
D19*
X122479998Y-123599999D03*
X123119998Y-123599999D03*
D32*
X124719998Y-123599999D03*
X124079998Y-123599999D03*
D14*
X137473726Y-120273726D03*
X137926274Y-120726274D03*
D26*
X146100000Y-103955000D03*
X146100000Y-102995000D03*
X142900000Y-118080000D03*
X142900000Y-117120000D03*
M02*
