M48
; DRILL file {KiCad 9.0.0-9.0.0-2~ubuntu24.10.1} date 2025-04-01T16:44:13+0200
; FORMAT={-:-/ absolute / metric / decimal}
; #@! TF.CreationDate,2025-04-01T16:44:13+02:00
; #@! TF.GenerationSoftware,Kicad,Pcbnew,9.0.0-9.0.0-2~ubuntu24.10.1
; #@! TF.FileFunction,Plated,1,8,PTH
FMAT,2
METRIC
; #@! TA.AperFunction,Plated,PTH,ViaDrill
T1C0.200
; #@! TA.AperFunction,Plated,PTH,ViaDrill
T2C0.250
; #@! TA.AperFunction,Plated,PTH,ViaDrill
T3C0.300
; #@! TA.AperFunction,Plated,PTH,ViaDrill
T4C0.400
%
G90
G05
T1
X115.24Y-116.08
X115.29Y-115.25
X115.45Y-113.99
X115.99Y-117.2
X115.99Y-118.0
X115.99Y-118.8
X115.99Y-122.0
X115.99Y-122.8
X115.99Y-123.6
X116.06Y-108.97
X116.37Y-114.58
X116.44Y-115.325
X116.79Y-117.2
X116.79Y-118.0
X116.79Y-118.8
X116.79Y-122.0
X116.79Y-122.8
X116.79Y-123.6
X116.82Y-109.16
X116.9Y-108.35
X116.93Y-105.93
X117.59Y-117.2
X117.59Y-118.0
X117.59Y-118.8
X117.59Y-122.0
X117.59Y-122.8
X117.59Y-123.6
X117.815Y-106.82
X118.01Y-113.88
X118.024Y-105.891
X118.31Y-107.82
X118.31Y-108.82
X118.39Y-117.2
X118.39Y-118.0
X118.39Y-118.8
X118.39Y-122.0
X118.39Y-122.8
X118.39Y-123.6
X118.4Y-114.8
X118.84Y-108.3
X119.19Y-117.2
X119.19Y-118.0
X119.19Y-118.8
X119.19Y-122.8
X119.19Y-123.6
X119.325Y-115.075
X119.81Y-107.88
X119.9Y-108.86
X119.99Y-118.0
X119.99Y-118.8
X119.99Y-122.0
X119.99Y-114.35
X120.0Y-116.64
X120.54Y-107.87
X120.54Y-110.12
X120.79Y-117.2
X120.79Y-118.0
X120.79Y-118.8
X120.79Y-122.0
X120.79Y-122.8
X120.79Y-123.6
X120.8Y-114.64
X121.45Y-110.42
X121.59Y-118.0
X121.59Y-118.8
X121.59Y-122.0
X121.59Y-122.8
X121.6Y-107.81
X121.99Y-116.73
X122.3Y-108.54
X122.31Y-109.31
X122.31Y-110.43
X122.39Y-118.0
X122.39Y-123.6
X123.19Y-117.2
X123.19Y-122.0
X123.19Y-122.8
X123.19Y-123.6
X123.31Y-107.82
X123.31Y-108.81
X123.99Y-117.2
X123.99Y-123.6
X124.2Y-107.81
X124.45Y-108.775
X124.79Y-117.2
X124.79Y-118.0
X124.79Y-122.8
X124.79Y-123.6
X124.79Y-115.52
X125.02Y-114.78
X125.33Y-108.15
X125.59Y-117.2
X125.59Y-118.0
X125.59Y-118.8
X125.59Y-122.0
X125.59Y-122.8
X125.59Y-123.6
X126.39Y-117.2
X126.39Y-118.0
X126.39Y-118.8
X126.39Y-122.0
X126.39Y-122.8
X126.39Y-123.6
X126.66Y-107.89
X126.96Y-113.43
X127.19Y-117.2
X127.19Y-118.0
X127.19Y-118.8
X127.19Y-122.0
X127.19Y-122.8
X127.19Y-123.6
X127.275Y-112.125
X127.3Y-110.3
X127.33Y-111.275
X127.5Y-127.95
X127.5Y-131.04
X127.51Y-109.28
X127.9Y-112.8
X127.99Y-117.2
X127.99Y-118.0
X127.99Y-118.8
X127.99Y-122.0
X127.99Y-122.8
X127.99Y-123.6
X128.21Y-113.43
X128.3Y-110.875
X128.3Y-107.99
X128.37Y-109.35
X129.5Y-127.96
X129.5Y-131.04
X129.725Y-100.625
X130.16Y-93.75
X130.35Y-104.7
X130.65Y-127.1
X130.8Y-100.925
X130.86Y-93.75
X130.887Y-116.837
X131.025Y-128.95
X131.1Y-92.96
X131.25Y-101.812
X131.275Y-104.5
X131.475Y-127.1
X131.5Y-107.2
X131.5Y-127.96
X131.5Y-131.04
X131.575Y-118.025
X131.575Y-131.9
X131.6Y-116.0
X131.6Y-116.8
X131.6Y-118.8
X131.71Y-130.1
X131.9Y-96.04
X132.0Y-112.4
X132.0Y-120.4
X132.38Y-131.9
X132.4Y-108.0
X132.4Y-116.8
X132.4Y-118.4
X132.4Y-116.0
X132.4Y-117.6
X132.41Y-130.1
X132.575Y-99.15
X132.575Y-100.625
X132.8Y-110.0
X132.8Y-114.0
X132.8Y-122.0
X132.8Y-123.6
X133.05Y-96.975
X133.1Y-96.04
X133.13Y-131.89
X133.2Y-108.0
X133.2Y-116.0
X133.2Y-116.8
X133.2Y-117.6
X133.2Y-118.4
X133.2Y-120.0
X133.2Y-119.2
X133.2Y-120.8
X133.4Y-99.125
X133.42Y-101.43
X133.438Y-100.625
X133.5Y-127.96
X133.5Y-131.04
X133.6Y-110.8
X133.6Y-111.6
X133.6Y-113.2
X133.6Y-123.6
X133.775Y-128.8
X133.775Y-130.175
X134.0Y-108.025
X134.0Y-116.0
X134.0Y-117.6
X134.0Y-121.6
X134.0Y-108.8
X134.0Y-116.8
X134.0Y-118.4
X134.0Y-122.4
X134.025Y-96.975
X134.1Y-95.25
X134.15Y-131.95
X134.282Y-92.118
X134.3Y-92.96
X134.4Y-113.2
X134.4Y-112.4
X134.59Y-94.5
X134.8Y-108.8
X134.8Y-109.6
X134.8Y-111.2
X134.8Y-114.4
X134.8Y-115.2
X134.8Y-116.0
X134.8Y-116.8
X134.8Y-117.6
X134.8Y-118.4
X134.8Y-120.8
X134.8Y-121.6
X134.8Y-108.0
X134.8Y-110.4
X134.8Y-119.2
X134.8Y-122.4
X134.8Y-123.2
X134.85Y-131.95
X134.89Y-97.0
X134.95Y-95.225
X135.05Y-128.75
X135.1Y-92.15
X135.1Y-93.725
X135.1Y-96.04
X135.2Y-106.8
X135.3Y-100.05
X135.425Y-124.225
X135.5Y-127.96
X135.5Y-131.04
X135.55Y-94.5
X135.6Y-108.8
X135.6Y-109.6
X135.6Y-110.4
X135.6Y-111.2
X135.6Y-112.0
X135.6Y-114.4
X135.6Y-115.2
X135.6Y-116.0
X135.6Y-117.6
X135.6Y-118.4
X135.6Y-120.0
X135.6Y-120.8
X135.6Y-108.0
X135.6Y-113.6
X135.6Y-116.8
X135.6Y-121.6
X135.6Y-122.4
X135.75Y-130.29
X135.75Y-132.025
X135.9Y-92.96
X136.1Y-104.5
X136.125Y-95.2
X136.16Y-100.11
X136.4Y-108.8
X136.4Y-109.6
X136.4Y-111.2
X136.4Y-112.0
X136.4Y-112.8
X136.4Y-114.4
X136.4Y-110.4
X136.4Y-113.6
X136.4Y-120.0
X136.4Y-120.8
X136.4Y-121.6
X136.4Y-123.2
X136.45Y-93.75
X136.45Y-130.29
X136.475Y-101.95
X136.65Y-131.95
X136.7Y-92.96
X136.7Y-105.02
X136.71Y-92.15
X136.8Y-115.6
X136.8Y-116.4
X136.8Y-117.2
X137.07Y-104.1
X137.2Y-108.8
X137.2Y-109.6
X137.2Y-110.4
X137.2Y-107.2
X137.2Y-108.0
X137.2Y-112.0
X137.2Y-120.0
X137.2Y-120.8
X137.2Y-121.6
X137.2Y-122.4
X137.3Y-95.11
X137.325Y-93.95
X137.5Y-127.96
X137.5Y-131.04
X137.55Y-131.95
X137.6Y-113.2
X137.6Y-114.0
X137.6Y-114.8
X137.6Y-115.6
X137.6Y-116.4
X137.6Y-117.2
X137.6Y-118.0
X137.6Y-123.6
X137.65Y-92.175
X137.66Y-130.17
X137.775Y-100.075
X138.0Y-109.6
X138.0Y-110.4
X138.0Y-111.2
X138.0Y-107.2
X138.0Y-108.0
X138.0Y-108.8
X138.0Y-112.0
X138.0Y-120.0
X138.0Y-120.8
X138.0Y-122.4
X138.15Y-94.53
X138.175Y-93.8
X138.25Y-127.225
X138.275Y-128.775
X138.35Y-100.7
X138.36Y-130.17
X138.4Y-113.2
X138.4Y-114.0
X138.4Y-114.8
X138.4Y-115.6
X138.4Y-116.4
X138.4Y-117.2
X138.4Y-118.0
X138.4Y-118.8
X138.41Y-104.92
X138.57Y-131.92
X138.58Y-92.16
X138.7Y-96.04
X138.725Y-95.25
X138.8Y-107.2
X138.8Y-111.2
X138.8Y-112.0
X138.8Y-108.0
X138.8Y-108.8
X138.8Y-109.6
X138.8Y-110.4
X138.8Y-120.0
X138.8Y-120.8
X138.8Y-121.6
X138.8Y-122.4
X138.8Y-123.2
X138.825Y-106.425
X139.05Y-94.27
X139.1Y-92.975
X139.1Y-101.5
X139.2Y-113.2
X139.2Y-114.0
X139.2Y-114.8
X139.2Y-115.6
X139.2Y-116.4
X139.2Y-117.2
X139.2Y-118.0
X139.2Y-105.45
X139.27Y-131.92
X139.44Y-99.92
X139.5Y-127.96
X139.5Y-131.04
X139.52Y-97.1
X139.56Y-94.88
X139.6Y-107.2
X139.6Y-108.8
X139.6Y-109.6
X139.6Y-108.0
X139.6Y-112.0
X139.6Y-120.0
X139.6Y-120.8
X139.6Y-121.6
X139.6Y-122.4
X139.7Y-130.14
X139.71Y-93.81
X139.85Y-106.1
X139.9Y-92.96
X140.0Y-113.2
X140.0Y-114.0
X140.0Y-117.2
X140.13Y-92.18
X140.22Y-94.34
X140.3Y-101.08
X140.4Y-108.0
X140.4Y-108.8
X140.4Y-109.6
X140.4Y-111.2
X140.4Y-112.0
X140.4Y-100.225
X140.4Y-110.4
X140.4Y-119.2
X140.4Y-120.0
X140.4Y-120.8
X140.4Y-121.6
X140.4Y-122.4
X140.4Y-130.14
X140.42Y-95.31
X140.47Y-97.0
X140.611Y-131.863
X140.66Y-99.0
X140.7Y-96.04
X140.8Y-113.2
X140.8Y-117.2
X140.8Y-114.0
X140.8Y-118.0
X140.84Y-104.74
X141.075Y-103.725
X141.08Y-102.94
X141.1Y-94.475
X141.1Y-101.5
X141.2Y-111.2
X141.2Y-112.0
X141.2Y-108.8
X141.2Y-109.6
X141.2Y-110.4
X141.2Y-119.2
X141.2Y-120.0
X141.2Y-120.8
X141.2Y-121.6
X141.21Y-100.63
X141.311Y-131.863
X141.41Y-99.93
X141.425Y-91.525
X141.475Y-95.1
X141.5Y-92.96
X141.5Y-127.96
X141.5Y-131.04
X141.55Y-130.09
X141.6Y-113.2
X141.6Y-114.0
X141.6Y-114.8
X141.6Y-115.6
X141.6Y-116.4
X141.6Y-117.2
X141.6Y-105.52
X141.6Y-123.6
X141.7Y-128.8
X141.73Y-104.08
X141.75Y-92.175
X141.92Y-101.68
X141.95Y-100.48
X142.0Y-111.2
X142.0Y-112.0
X142.0Y-108.8
X142.0Y-110.4
X142.0Y-119.2
X142.0Y-120.0
X142.0Y-120.8
X142.0Y-121.6
X142.015Y-109.595
X142.025Y-108.025
X142.25Y-130.09
X142.275Y-127.15
X142.4Y-113.2
X142.4Y-114.0
X142.4Y-114.8
X142.4Y-115.6
X142.4Y-116.4
X142.4Y-117.2
X142.4Y-118.0
X142.4Y-106.8
X142.45Y-92.175
X142.55Y-131.89
X142.68Y-95.23
X142.7Y-92.96
X142.7Y-94.35
X142.7Y-96.04
X142.8Y-111.2
X142.8Y-108.8
X142.8Y-109.6
X142.8Y-110.4
X142.8Y-112.0
X142.8Y-119.2
X142.8Y-120.0
X142.8Y-120.8
X142.8Y-121.6
X142.8Y-122.4
X142.8Y-123.2
X142.952Y-93.639
X143.08Y-103.58
X143.2Y-106.8
X143.25Y-131.89
X143.5Y-127.96
X143.5Y-131.04
X143.6Y-111.2
X143.6Y-112.0
X143.6Y-115.2
X143.6Y-119.2
X143.6Y-120.0
X143.6Y-120.8
X143.6Y-121.6
X143.6Y-122.4
X143.652Y-93.639
X143.726Y-130.206
X143.76Y-103.13
X143.9Y-92.96
X144.0Y-101.875
X144.15Y-92.05
X144.32Y-104.82
X144.4Y-107.2
X144.4Y-108.0
X144.4Y-109.6
X144.4Y-110.4
X144.4Y-111.2
X144.4Y-112.0
X144.4Y-113.6
X144.4Y-114.4
X144.4Y-115.2
X144.4Y-116.0
X144.4Y-116.8
X144.4Y-117.6
X144.4Y-118.4
X144.4Y-120.0
X144.4Y-120.8
X144.4Y-121.6
X144.4Y-122.4
X144.426Y-130.206
X144.538Y-131.877
X144.6Y-104.1
X144.85Y-92.05
X145.1Y-92.96
X145.2Y-108.0
X145.2Y-108.8
X145.2Y-109.6
X145.2Y-110.4
X145.2Y-111.2
X145.2Y-112.0
X145.2Y-115.2
X145.2Y-116.8
X145.2Y-117.6
X145.2Y-120.0
X145.2Y-120.8
X145.2Y-122.4
X145.238Y-131.877
X145.325Y-93.625
X145.36Y-103.325
X145.5Y-96.04
X145.5Y-131.04
X145.6Y-123.6
X145.7Y-127.97
X146.0Y-107.2
X146.0Y-108.0
X146.0Y-108.8
X146.0Y-109.6
X146.0Y-110.4
X146.0Y-111.2
X146.0Y-112.0
X146.0Y-113.6
X146.0Y-114.4
X146.0Y-115.2
X146.0Y-116.0
X146.0Y-116.8
X146.0Y-117.6
X146.0Y-118.4
X146.0Y-120.0
X146.0Y-121.6
X146.025Y-93.625
X146.3Y-92.96
X146.8Y-108.8
X146.8Y-109.6
X146.8Y-110.4
X146.8Y-111.2
X146.8Y-112.0
X146.8Y-112.8
X146.8Y-113.6
X146.8Y-114.4
X146.8Y-115.2
X146.8Y-116.0
X146.8Y-116.8
X146.8Y-117.6
X146.8Y-119.2
X146.8Y-121.6
X146.8Y-122.4
X146.8Y-123.2
X147.2Y-106.8
X147.6Y-108.0
X147.6Y-108.8
X147.6Y-109.6
X147.6Y-110.4
X147.6Y-111.2
X147.6Y-112.0
X147.6Y-112.8
X147.6Y-114.4
X147.6Y-115.2
X147.6Y-116.0
X147.6Y-116.8
X147.6Y-118.4
X147.6Y-119.2
X147.6Y-120.0
X147.6Y-120.8
X147.6Y-122.4
X147.68Y-101.69
X148.13Y-100.12
X148.15Y-100.9
X148.33Y-101.97
X148.4Y-108.8
X148.4Y-112.0
X148.4Y-116.8
X148.4Y-119.2
X148.4Y-120.8
X148.8Y-110.0
X148.8Y-114.0
X148.8Y-118.0
X148.8Y-122.0
X151.1Y-117.9
X151.85Y-111.4
X151.875Y-109.375
X151.9Y-119.775
X151.96Y-113.4
X152.96Y-103.0
X152.96Y-104.2
X152.96Y-105.4
X152.96Y-107.4
X152.96Y-109.4
X152.96Y-111.4
X152.96Y-113.4
X152.96Y-115.4
X152.96Y-117.8
X152.96Y-119.8
X152.96Y-121.8
X153.7Y-107.45
X153.725Y-109.425
X153.85Y-117.525
X154.49Y-119.99
X155.0Y-105.15
X155.02Y-112.75
X155.02Y-113.45
X155.075Y-106.45
X155.11Y-110.01
X155.11Y-118.799
X155.11Y-119.499
X155.13Y-110.76
X155.13Y-111.46
X155.18Y-114.72
X155.18Y-115.42
X155.248Y-117.4
X155.25Y-107.75
X155.25Y-108.45
X155.25Y-116.7
X155.275Y-103.7
X155.275Y-104.4
X156.04Y-102.6
X156.04Y-108.6
X156.04Y-110.6
X156.04Y-112.6
X156.04Y-114.6
X156.04Y-116.6
X156.04Y-118.6
X156.04Y-121.0
X156.05Y-104.6
X156.05Y-106.6
X156.85Y-106.75
X156.85Y-107.45
X156.906Y-119.996
X156.906Y-120.696
X156.912Y-117.65
X156.912Y-118.35
X156.913Y-104.762
X156.913Y-105.562
X156.925Y-111.65
X156.925Y-112.35
X156.94Y-110.92
X156.95Y-108.8
X156.95Y-109.5
X156.95Y-110.2
X156.954Y-102.782
X156.954Y-103.582
X156.972Y-115.625
X156.972Y-116.325
X156.975Y-113.65
X156.975Y-114.35
T2
X108.352Y-118.208
X108.6Y-98.92
X108.625Y-97.945
X109.1Y-103.42
X109.125Y-111.42
X109.25Y-101.875
X109.25Y-109.595
X109.377Y-117.882
X110.1Y-98.47
X110.3Y-102.895
X110.4Y-110.62
X110.4Y-111.37
X111.575Y-97.97
X113.68Y-109.8
X114.286Y-97.1
X114.7Y-91.8
X114.74Y-94.33
X114.85Y-96.05
X115.1Y-97.2
X115.15Y-100.25
X115.16Y-101.3
X115.2Y-99.15
X115.35Y-92.83
X115.4Y-126.2
X115.7Y-102.8
X115.75Y-108.17
X115.78Y-107.2
X115.8Y-94.45
X115.86Y-120.78
X115.93Y-91.775
X116.1Y-95.45
X116.1Y-96.45
X116.1Y-97.45
X116.11Y-105.03
X116.125Y-92.825
X116.25Y-99.65
X116.25Y-100.8
X116.59Y-107.3
X116.6Y-101.7
X117.175Y-97.6
X117.25Y-101.025
X117.25Y-104.0
X117.25Y-126.85
X117.29Y-125.89
X117.3Y-102.9
X117.302Y-92.748
X117.302Y-99.652
X117.5Y-98.525
X117.57Y-96.9
X117.575Y-91.825
X118.225Y-93.7
X118.3Y-99.65
X118.6Y-126.1
X118.802Y-91.8
X118.975Y-131.123
X118.975Y-128.15
X119.3Y-92.75
X119.39Y-125.86
X119.4Y-100.9
X119.4Y-105.7
X119.55Y-97.72
X119.575Y-93.7
X119.7Y-91.7
X119.7Y-104.0
X119.95Y-131.35
X120.35Y-104.7
X120.75Y-100.65
X120.8Y-92.775
X120.8Y-99.6
X121.0Y-93.675
X121.3Y-125.75
X121.45Y-97.7
X121.7Y-100.8
X121.9Y-103.5
X122.52Y-100.69
X122.8Y-99.5
X122.9Y-97.95
X123.08Y-125.88
X123.2Y-101.99
X123.3Y-105.8
X123.8Y-98.45
X123.8Y-100.3
X124.1Y-93.175
X124.1Y-101.2
X124.15Y-97.35
X124.68Y-98.69
X124.9Y-94.125
X125.3Y-100.95
X125.51Y-96.1
X125.737Y-100.002
X126.15Y-96.62
X126.325Y-127.0
X126.8Y-105.9
X126.83Y-98.99
X126.9Y-97.6
X126.9Y-103.3
X126.925Y-104.635
X127.15Y-126.55
X127.35Y-131.9
X127.95Y-126.375
X128.3Y-131.87
X128.79Y-125.99
X128.9Y-128.65
X129.16Y-130.21
X129.18Y-131.85
X129.225Y-129.35
X129.525Y-105.425
X129.95Y-130.2
X130.04Y-131.88
X130.22Y-129.17
X130.825Y-130.2
X134.775Y-97.825
X135.725Y-96.925
X135.95Y-91.6
X136.6Y-98.725
X136.875Y-129.5
X137.8Y-95.93
X137.8Y-96.61
X142.91Y-102.67
X143.76Y-97.37
X145.76Y-97.37
X147.69Y-99.28
X148.375Y-94.1
X148.85Y-97.3
X149.25Y-99.1
X149.525Y-93.025
X149.525Y-94.005
X149.525Y-96.575
X149.825Y-95.375
X150.375Y-93.625
X150.47Y-96.12
X150.5Y-131.36
X150.55Y-94.625
X151.25Y-95.4
X151.75Y-97.55
X151.995Y-117.65
X153.95Y-97.9
X154.0Y-124.5
T3
X128.45Y-100.29
X128.45Y-101.25
X129.65Y-97.6
X129.675Y-96.025
X129.7Y-92.95
X129.975Y-102.925
X130.925Y-102.925
X131.45Y-99.175
X131.5Y-98.0
X131.525Y-97.05
X131.825Y-93.8
X134.65Y-98.75
X138.45Y-98.95
X139.95Y-98.55
X141.55Y-97.125
X142.4Y-98.125
X143.225Y-100.505
X143.25Y-101.645
X143.775Y-98.675
X145.175Y-99.57
X145.5Y-101.9
X145.725Y-98.7
X145.875Y-103.975
X146.35Y-99.25
X147.075Y-103.725
X147.075Y-104.7
X147.19Y-98.26
X147.32Y-97.17
X148.025Y-103.725
X148.025Y-104.675
X149.1Y-100.6
X149.1Y-101.58
X150.2Y-101.75
X150.25Y-100.63
X150.475Y-125.1
X151.65Y-127.375
X151.85Y-126.075
X153.225Y-126.15
X156.4Y-97.7
T4
X108.3Y-100.03
X108.3Y-101.02
X108.35Y-107.77
X108.35Y-108.75
X108.6Y-122.5
X108.6Y-123.7
X108.69Y-125.32
X108.99Y-115.417
X108.99Y-116.47
X109.2Y-112.47
X109.2Y-113.47
X109.21Y-104.585
X109.21Y-105.585
X109.3Y-100.02
X109.3Y-101.01
X109.3Y-107.77
X109.3Y-108.75
X109.7Y-122.5
X109.7Y-123.7
X109.99Y-115.417
X109.99Y-116.47
X110.177Y-119.583
X110.177Y-120.583
X110.18Y-118.58
X110.2Y-104.585
X110.2Y-105.585
X110.2Y-112.47
X110.2Y-113.47
X110.3Y-100.02
X110.3Y-101.01
X110.3Y-107.77
X110.3Y-108.75
X111.177Y-119.583
X111.177Y-120.583
X111.18Y-118.58
X111.2Y-113.85
X111.225Y-112.275
X111.35Y-115.97
X111.45Y-100.02
X111.45Y-101.02
X111.5Y-107.87
X111.5Y-108.87
X112.55Y-100.02
X112.55Y-101.02
X112.55Y-102.02
X112.6Y-107.87
X112.6Y-108.87
X112.6Y-109.87
X112.7Y-111.97
X112.7Y-113.02
X112.7Y-114.07
X113.2Y-104.52
X113.2Y-105.52
X113.3Y-115.47
X113.6Y-127.4
X113.64Y-119.57
X113.64Y-120.507
X113.64Y-121.457
X113.64Y-122.407
X113.64Y-123.357
X113.64Y-124.307
X114.1Y-104.02
X114.1Y-104.97
X114.1Y-105.92
X115.845Y-128.19
X116.4Y-130.2
X116.4Y-131.3
X116.85Y-128.15
X117.5Y-130.2
X117.5Y-131.3
X120.225Y-127.298
X120.225Y-128.923
X121.525Y-127.323
X121.525Y-128.923
X122.2Y-130.2
X122.6Y-131.56
X124.5Y-130.3
X126.1Y-130.6
X126.1Y-131.7
X126.9Y-92.95
X127.0Y-96.05
X127.75Y-92.95
X127.85Y-96.05
X128.35Y-102.7
X128.65Y-92.95
X128.725Y-96.05
X146.95Y-131.05
X149.0Y-131.1
X153.95Y-101.775
X154.2Y-122.3
X155.65Y-100.975
X156.025Y-122.3
M30
