%TF.GenerationSoftware,KiCad,Pcbnew,8.0.6*%
%TF.CreationDate,2024-12-01T18:19:07-08:00*%
%TF.ProjectId,SYNC-VT,53594e43-2d56-4542-9e6b-696361645f70,rev?*%
%TF.SameCoordinates,Original*%
%TF.FileFunction,Soldermask,Top*%
%TF.FilePolarity,Negative*%
%FSLAX46Y46*%
G04 Gerber Fmt 4.6, Leading zero omitted, Abs format (unit mm)*
G04 Created by KiCad (PCBNEW 8.0.6) date 2024-12-01 18:19:07*
%MOMM*%
%LPD*%
G01*
G04 APERTURE LIST*
G04 Aperture macros list*
%AMRoundRect*
0 Rectangle with rounded corners*
0 $1 Rounding radius*
0 $2 $3 $4 $5 $6 $7 $8 $9 X,Y pos of 4 corners*
0 Add a 4 corners polygon primitive as box body*
4,1,4,$2,$3,$4,$5,$6,$7,$8,$9,$2,$3,0*
0 Add four circle primitives for the rounded corners*
1,1,$1+$1,$2,$3*
1,1,$1+$1,$4,$5*
1,1,$1+$1,$6,$7*
1,1,$1+$1,$8,$9*
0 Add four rect primitives between the rounded corners*
20,1,$1+$1,$2,$3,$4,$5,0*
20,1,$1+$1,$4,$5,$6,$7,0*
20,1,$1+$1,$6,$7,$8,$9,0*
20,1,$1+$1,$8,$9,$2,$3,0*%
G04 Aperture macros list end*
%ADD10R,1.700000X1.700000*%
%ADD11O,1.700000X1.700000*%
%ADD12RoundRect,0.140000X0.170000X-0.140000X0.170000X0.140000X-0.170000X0.140000X-0.170000X-0.140000X0*%
%ADD13C,1.500000*%
%ADD14R,1.000000X1.000000*%
%ADD15C,0.574000*%
%ADD16RoundRect,0.140000X0.140000X0.170000X-0.140000X0.170000X-0.140000X-0.170000X0.140000X-0.170000X0*%
%ADD17R,1.244600X0.609600*%
%ADD18R,3.784600X1.193800*%
%ADD19R,1.400000X1.447800*%
%ADD20R,0.609600X0.990600*%
%ADD21R,0.838200X0.939800*%
%ADD22C,0.650000*%
%ADD23RoundRect,0.150000X0.425000X-0.150000X0.425000X0.150000X-0.425000X0.150000X-0.425000X-0.150000X0*%
%ADD24RoundRect,0.075000X0.500000X-0.075000X0.500000X0.075000X-0.500000X0.075000X-0.500000X-0.075000X0*%
%ADD25O,2.100000X1.000000*%
%ADD26O,1.800000X1.000000*%
%ADD27C,0.406400*%
%ADD28R,0.508000X0.774700*%
G04 APERTURE END LIST*
D10*
%TO.C,J5*%
X146150000Y-37920000D03*
D11*
X143610000Y-37920000D03*
X141070000Y-37920000D03*
X138530000Y-37920000D03*
X135990000Y-37920000D03*
X133450000Y-37920000D03*
X130910000Y-37920000D03*
X128370000Y-37920000D03*
X125830000Y-37920000D03*
X123290000Y-37920000D03*
X120750000Y-37920000D03*
X118210000Y-37920000D03*
X115670000Y-37920000D03*
X113130000Y-37920000D03*
X110590000Y-37920000D03*
X108050000Y-37920000D03*
X105510000Y-37920000D03*
X102970000Y-37920000D03*
X100430000Y-37920000D03*
X97890000Y-37920000D03*
X95350000Y-37920000D03*
X92810000Y-37920000D03*
X90270000Y-37920000D03*
%TD*%
D12*
%TO.C,R9*%
X116050002Y-43917300D03*
X116050002Y-42957300D03*
%TD*%
D10*
%TO.C,J6*%
X121370000Y-55130000D03*
D11*
X121370000Y-57670000D03*
X123910000Y-55130000D03*
X123910000Y-57670000D03*
%TD*%
D13*
%TO.C,TP9*%
X127380000Y-47790000D03*
%TD*%
D14*
%TO.C,TP4*%
X119040000Y-50610000D03*
%TD*%
D10*
%TO.C,J4*%
X146160000Y-60790000D03*
D11*
X143620000Y-60790000D03*
X141080000Y-60790000D03*
X138540000Y-60790000D03*
X136000000Y-60790000D03*
X133460000Y-60790000D03*
X130920000Y-60790000D03*
X128380000Y-60790000D03*
X125840000Y-60790000D03*
X123300000Y-60790000D03*
X120760000Y-60790000D03*
X118220000Y-60790000D03*
X115680000Y-60790000D03*
X113140000Y-60790000D03*
X110600000Y-60790000D03*
X108060000Y-60790000D03*
X105520000Y-60790000D03*
X102980000Y-60790000D03*
X100440000Y-60790000D03*
X97900000Y-60790000D03*
X95360000Y-60790000D03*
X92820000Y-60790000D03*
X90280000Y-60790000D03*
%TD*%
D15*
%TO.C,U3*%
X94490000Y-40790000D03*
X95290000Y-40790000D03*
X96090000Y-40790000D03*
X96890000Y-40790000D03*
X97690000Y-40790000D03*
X98490000Y-40790000D03*
X99290000Y-40790000D03*
X100090000Y-40790000D03*
X100890000Y-40790000D03*
X101690000Y-40790000D03*
X102490000Y-40790000D03*
X103290000Y-40790000D03*
X104090000Y-40790000D03*
X104890000Y-40790000D03*
X105690000Y-40790000D03*
X94490000Y-41590000D03*
X95290000Y-41590000D03*
X96090000Y-41590000D03*
X96890000Y-41590000D03*
X97690000Y-41590000D03*
X98490000Y-41590000D03*
X99290000Y-41590000D03*
X100090000Y-41590000D03*
X100890000Y-41590000D03*
X101690000Y-41590000D03*
X102490000Y-41590000D03*
X103290000Y-41590000D03*
X104090000Y-41590000D03*
X104890000Y-41590000D03*
X105690000Y-41590000D03*
X94490000Y-42390000D03*
X95290000Y-42390000D03*
X96090000Y-42390000D03*
X96890000Y-42390000D03*
X97690000Y-42390000D03*
X98490000Y-42390000D03*
X99290000Y-42390000D03*
X100090000Y-42390000D03*
X100890000Y-42390000D03*
X101690000Y-42390000D03*
X102490000Y-42390000D03*
X103290000Y-42390000D03*
X104090000Y-42390000D03*
X104890000Y-42390000D03*
X105690000Y-42390000D03*
X94490000Y-43190000D03*
X95290000Y-43190000D03*
X96090000Y-43190000D03*
X96890000Y-43190000D03*
X97690000Y-43190000D03*
X98490000Y-43190000D03*
X99290000Y-43190000D03*
X100090000Y-43190000D03*
X100890000Y-43190000D03*
X101690000Y-43190000D03*
X102490000Y-43190000D03*
X103290000Y-43190000D03*
X104090000Y-43190000D03*
X104890000Y-43190000D03*
X105690000Y-43190000D03*
X94490000Y-43990000D03*
X95290000Y-43990000D03*
X96090000Y-43990000D03*
X96890000Y-43990000D03*
X97690000Y-43990000D03*
X98490000Y-43990000D03*
X99290000Y-43990000D03*
X100090000Y-43990000D03*
X100890000Y-43990000D03*
X101690000Y-43990000D03*
X102490000Y-43990000D03*
X103290000Y-43990000D03*
X104090000Y-43990000D03*
X104890000Y-43990000D03*
X105690000Y-43990000D03*
X94490000Y-44790000D03*
X95290000Y-44790000D03*
X96090000Y-44790000D03*
X96890000Y-44790000D03*
X97690000Y-44790000D03*
X98490000Y-44790000D03*
X99290000Y-44790000D03*
X100090000Y-44790000D03*
X100890000Y-44790000D03*
X101690000Y-44790000D03*
X102490000Y-44790000D03*
X103290000Y-44790000D03*
X104090000Y-44790000D03*
X104890000Y-44790000D03*
X105690000Y-44790000D03*
X94490000Y-45590000D03*
X95290000Y-45590000D03*
X96090000Y-45590000D03*
X96890000Y-45590000D03*
X97690000Y-45590000D03*
X98490000Y-45590000D03*
X99290000Y-45590000D03*
X100090000Y-45590000D03*
X100890000Y-45590000D03*
X101690000Y-45590000D03*
X102490000Y-45590000D03*
X103290000Y-45590000D03*
X104090000Y-45590000D03*
X104890000Y-45590000D03*
X105690000Y-45590000D03*
X94490000Y-46390000D03*
X95290000Y-46390000D03*
X96090000Y-46390000D03*
X96890000Y-46390000D03*
X97690000Y-46390000D03*
X98490000Y-46390000D03*
X99290000Y-46390000D03*
X100090000Y-46390000D03*
X100890000Y-46390000D03*
X101690000Y-46390000D03*
X102490000Y-46390000D03*
X103290000Y-46390000D03*
X104090000Y-46390000D03*
X104890000Y-46390000D03*
X105690000Y-46390000D03*
X94490000Y-47190000D03*
X95290000Y-47190000D03*
X96090000Y-47190000D03*
X96890000Y-47190000D03*
X97690000Y-47190000D03*
X98490000Y-47190000D03*
X99290000Y-47190000D03*
X100090000Y-47190000D03*
X100890000Y-47190000D03*
X101690000Y-47190000D03*
X102490000Y-47190000D03*
X103290000Y-47190000D03*
X104090000Y-47190000D03*
X104890000Y-47190000D03*
X105690000Y-47190000D03*
X94490000Y-47990000D03*
X95290000Y-47990000D03*
X96090000Y-47990000D03*
X96890000Y-47990000D03*
X97690000Y-47990000D03*
X98490000Y-47990000D03*
X99290000Y-47990000D03*
X100090000Y-47990000D03*
X100890000Y-47990000D03*
X101690000Y-47990000D03*
X102490000Y-47990000D03*
X103290000Y-47990000D03*
X104090000Y-47990000D03*
X104890000Y-47990000D03*
X105690000Y-47990000D03*
X94490000Y-48790000D03*
X95290000Y-48790000D03*
X96090000Y-48790000D03*
X96890000Y-48790000D03*
X97690000Y-48790000D03*
X98490000Y-48790000D03*
X99290000Y-48790000D03*
X100090000Y-48790000D03*
X100890000Y-48790000D03*
X101690000Y-48790000D03*
X102490000Y-48790000D03*
X103290000Y-48790000D03*
X104090000Y-48790000D03*
X104890000Y-48790000D03*
X105690000Y-48790000D03*
X94490000Y-49590000D03*
X95290000Y-49590000D03*
X96090000Y-49590000D03*
X96890000Y-49590000D03*
X97690000Y-49590000D03*
X98490000Y-49590000D03*
X99290000Y-49590000D03*
X100090000Y-49590000D03*
X100890000Y-49590000D03*
X101690000Y-49590000D03*
X102490000Y-49590000D03*
X103290000Y-49590000D03*
X104090000Y-49590000D03*
X104890000Y-49590000D03*
X105690000Y-49590000D03*
X94490000Y-50390000D03*
X95290000Y-50390000D03*
X96090000Y-50390000D03*
X96890000Y-50390000D03*
X97690000Y-50390000D03*
X98490000Y-50390000D03*
X99290000Y-50390000D03*
X100090000Y-50390000D03*
X100890000Y-50390000D03*
X101690000Y-50390000D03*
X102490000Y-50390000D03*
X103290000Y-50390000D03*
X104090000Y-50390000D03*
X104890000Y-50390000D03*
X105690000Y-50390000D03*
X94490000Y-51190000D03*
X95290000Y-51190000D03*
X96090000Y-51190000D03*
X96890000Y-51190000D03*
X97690000Y-51190000D03*
X98490000Y-51190000D03*
X99290000Y-51190000D03*
X100090000Y-51190000D03*
X100890000Y-51190000D03*
X101690000Y-51190000D03*
X102490000Y-51190000D03*
X103290000Y-51190000D03*
X104090000Y-51190000D03*
X104890000Y-51190000D03*
X105690000Y-51190000D03*
X94490000Y-51990000D03*
X95290000Y-51990000D03*
X96090000Y-51990000D03*
X96890000Y-51990000D03*
X97690000Y-51990000D03*
X98490000Y-51990000D03*
X99290000Y-51990000D03*
X100090000Y-51990000D03*
X100890000Y-51990000D03*
X101690000Y-51990000D03*
X102490000Y-51990000D03*
X103290000Y-51990000D03*
X104090000Y-51990000D03*
X104890000Y-51990000D03*
X105690000Y-51990000D03*
%TD*%
D16*
%TO.C,R7*%
X116710002Y-49067300D03*
X115750002Y-49067300D03*
%TD*%
D14*
%TO.C,TP11*%
X129150000Y-43170000D03*
%TD*%
%TO.C,TP5*%
X118600000Y-43670000D03*
%TD*%
D13*
%TO.C,TP7*%
X140158750Y-53490000D03*
%TD*%
D14*
%TO.C,TP2*%
X118440000Y-45350000D03*
%TD*%
D17*
%TO.C,U6*%
X111953900Y-50530012D03*
X111953900Y-49430011D03*
X111953900Y-48330011D03*
X111953900Y-47230010D03*
X111953900Y-46130013D03*
X111953900Y-45030012D03*
X111953900Y-43930012D03*
X111953900Y-42830012D03*
D18*
X109473593Y-41374589D03*
D19*
X110225895Y-51858400D03*
D20*
X108971094Y-52087000D03*
D21*
X107983200Y-51134500D03*
%TD*%
D14*
%TO.C,TP1*%
X118820000Y-52260000D03*
%TD*%
D13*
%TO.C,TP6*%
X139238750Y-51130000D03*
%TD*%
D22*
%TO.C,USB_C_ESP1*%
X143663750Y-54690000D03*
X143663750Y-48910000D03*
D23*
X142588750Y-55000000D03*
X142588750Y-54200000D03*
D24*
X142588750Y-53050000D03*
X142588750Y-52050000D03*
X142588750Y-51550000D03*
X142588750Y-50550000D03*
D23*
X142588750Y-49400000D03*
X142588750Y-48600000D03*
X142588750Y-48600000D03*
X142588750Y-49400000D03*
D24*
X142588750Y-50050000D03*
X142588750Y-51050000D03*
X142588750Y-52550000D03*
X142588750Y-53550000D03*
D23*
X142588750Y-54200000D03*
X142588750Y-55000000D03*
D25*
X143163750Y-56120000D03*
D26*
X147343750Y-56120000D03*
D25*
X143163750Y-47480000D03*
D26*
X147343750Y-47480000D03*
%TD*%
D14*
%TO.C,TP3*%
X116910000Y-52220000D03*
%TD*%
D13*
%TO.C,TP8*%
X127250000Y-50590000D03*
%TD*%
D27*
%TO.C,U7*%
X99680000Y-55220000D03*
X99680000Y-56220000D03*
X99680000Y-57220000D03*
X99680000Y-58220000D03*
X98680000Y-54220000D03*
X98680000Y-55220000D03*
X98680000Y-56220000D03*
X98680000Y-57220000D03*
X98680000Y-58220000D03*
X97680000Y-54220000D03*
X97680000Y-55220000D03*
X97680000Y-56220000D03*
X97680000Y-57220000D03*
X97680000Y-58220000D03*
X96680000Y-54220000D03*
X96680000Y-55220000D03*
X96680000Y-56220000D03*
X96680000Y-57220000D03*
X96680000Y-58220000D03*
X95680000Y-54220000D03*
X95680000Y-55220000D03*
X95680000Y-56220000D03*
X95680000Y-57220000D03*
X95680000Y-58220000D03*
%TD*%
D14*
%TO.C,TP10*%
X126440000Y-44260000D03*
%TD*%
D28*
%TO.C,U4*%
X114500000Y-47817300D03*
X115450001Y-47817300D03*
X116400002Y-47817300D03*
X116400002Y-45290000D03*
X115450001Y-45290000D03*
X114500000Y-45290000D03*
%TD*%
D10*
%TO.C,J3*%
X105500000Y-55640000D03*
D11*
X105500000Y-58180000D03*
X108040000Y-55640000D03*
X108040000Y-58180000D03*
X110580000Y-55640000D03*
X110580000Y-58180000D03*
X113120000Y-55640000D03*
X113120000Y-58180000D03*
X115660000Y-55640000D03*
X115660000Y-58180000D03*
X118200000Y-55640000D03*
X118200000Y-58180000D03*
%TD*%
M02*
