%TF.GenerationSoftware,KiCad,Pcbnew,8.0.6*%
%TF.CreationDate,2024-12-01T18:19:07-08:00*%
%TF.ProjectId,SYNC-VT,53594e43-2d56-4542-9e6b-696361645f70,rev?*%
%TF.SameCoordinates,Original*%
%TF.FileFunction,Legend,Top*%
%TF.FilePolarity,Positive*%
%FSLAX46Y46*%
G04 Gerber Fmt 4.6, Leading zero omitted, Abs format (unit mm)*
G04 Created by KiCad (PCBNEW 8.0.6) date 2024-12-01 18:19:07*
%MOMM*%
%LPD*%
G01*
G04 APERTURE LIST*
%ADD10C,0.100000*%
%ADD11C,0.150000*%
%ADD12C,0.120000*%
%ADD13C,0.127000*%
%ADD14C,0.200000*%
%ADD15C,0.152400*%
%ADD16C,0.508000*%
G04 APERTURE END LIST*
D10*
X119883609Y-45563258D02*
X119883609Y-45848972D01*
X119883609Y-45706115D02*
X119383609Y-45706115D01*
X119383609Y-45706115D02*
X119455038Y-45753734D01*
X119455038Y-45753734D02*
X119502657Y-45801353D01*
X119502657Y-45801353D02*
X119526466Y-45848972D01*
X119550276Y-45396592D02*
X119883609Y-45277544D01*
X119883609Y-45277544D02*
X119550276Y-45158497D01*
X119621704Y-44968021D02*
X119621704Y-44801354D01*
X119883609Y-44729926D02*
X119883609Y-44968021D01*
X119883609Y-44968021D02*
X119383609Y-44968021D01*
X119383609Y-44968021D02*
X119383609Y-44729926D01*
X119550276Y-44515640D02*
X119883609Y-44515640D01*
X119597895Y-44515640D02*
X119574085Y-44491830D01*
X119574085Y-44491830D02*
X119550276Y-44444211D01*
X119550276Y-44444211D02*
X119550276Y-44372783D01*
X119550276Y-44372783D02*
X119574085Y-44325164D01*
X119574085Y-44325164D02*
X119621704Y-44301354D01*
X119621704Y-44301354D02*
X119883609Y-44301354D01*
X137893609Y-51415163D02*
X137393609Y-51415163D01*
X137393609Y-51415163D02*
X137393609Y-51296115D01*
X137393609Y-51296115D02*
X137417419Y-51224687D01*
X137417419Y-51224687D02*
X137465038Y-51177068D01*
X137465038Y-51177068D02*
X137512657Y-51153258D01*
X137512657Y-51153258D02*
X137607895Y-51129449D01*
X137607895Y-51129449D02*
X137679323Y-51129449D01*
X137679323Y-51129449D02*
X137774561Y-51153258D01*
X137774561Y-51153258D02*
X137822180Y-51177068D01*
X137822180Y-51177068D02*
X137869800Y-51224687D01*
X137869800Y-51224687D02*
X137893609Y-51296115D01*
X137893609Y-51296115D02*
X137893609Y-51415163D01*
X137703133Y-50915163D02*
X137703133Y-50534211D01*
X137893609Y-50724687D02*
X137512657Y-50724687D01*
X124903609Y-44247068D02*
X124903609Y-44485163D01*
X124903609Y-44485163D02*
X125141704Y-44508972D01*
X125141704Y-44508972D02*
X125117895Y-44485163D01*
X125117895Y-44485163D02*
X125094085Y-44437544D01*
X125094085Y-44437544D02*
X125094085Y-44318496D01*
X125094085Y-44318496D02*
X125117895Y-44270877D01*
X125117895Y-44270877D02*
X125141704Y-44247068D01*
X125141704Y-44247068D02*
X125189323Y-44223258D01*
X125189323Y-44223258D02*
X125308371Y-44223258D01*
X125308371Y-44223258D02*
X125355990Y-44247068D01*
X125355990Y-44247068D02*
X125379800Y-44270877D01*
X125379800Y-44270877D02*
X125403609Y-44318496D01*
X125403609Y-44318496D02*
X125403609Y-44437544D01*
X125403609Y-44437544D02*
X125379800Y-44485163D01*
X125379800Y-44485163D02*
X125355990Y-44508972D01*
X124903609Y-44080401D02*
X125403609Y-43913735D01*
X125403609Y-43913735D02*
X124903609Y-43747068D01*
X120603609Y-50893258D02*
X120603609Y-51178972D01*
X120603609Y-51036115D02*
X120103609Y-51036115D01*
X120103609Y-51036115D02*
X120175038Y-51083734D01*
X120175038Y-51083734D02*
X120222657Y-51131353D01*
X120222657Y-51131353D02*
X120246466Y-51178972D01*
X120103609Y-50750401D02*
X120603609Y-50583735D01*
X120603609Y-50583735D02*
X120103609Y-50417068D01*
X120317895Y-50178973D02*
X120294085Y-50226592D01*
X120294085Y-50226592D02*
X120270276Y-50250402D01*
X120270276Y-50250402D02*
X120222657Y-50274211D01*
X120222657Y-50274211D02*
X120198847Y-50274211D01*
X120198847Y-50274211D02*
X120151228Y-50250402D01*
X120151228Y-50250402D02*
X120127419Y-50226592D01*
X120127419Y-50226592D02*
X120103609Y-50178973D01*
X120103609Y-50178973D02*
X120103609Y-50083735D01*
X120103609Y-50083735D02*
X120127419Y-50036116D01*
X120127419Y-50036116D02*
X120151228Y-50012307D01*
X120151228Y-50012307D02*
X120198847Y-49988497D01*
X120198847Y-49988497D02*
X120222657Y-49988497D01*
X120222657Y-49988497D02*
X120270276Y-50012307D01*
X120270276Y-50012307D02*
X120294085Y-50036116D01*
X120294085Y-50036116D02*
X120317895Y-50083735D01*
X120317895Y-50083735D02*
X120317895Y-50178973D01*
X120317895Y-50178973D02*
X120341704Y-50226592D01*
X120341704Y-50226592D02*
X120365514Y-50250402D01*
X120365514Y-50250402D02*
X120413133Y-50274211D01*
X120413133Y-50274211D02*
X120508371Y-50274211D01*
X120508371Y-50274211D02*
X120555990Y-50250402D01*
X120555990Y-50250402D02*
X120579800Y-50226592D01*
X120579800Y-50226592D02*
X120603609Y-50178973D01*
X120603609Y-50178973D02*
X120603609Y-50083735D01*
X120603609Y-50083735D02*
X120579800Y-50036116D01*
X120579800Y-50036116D02*
X120555990Y-50012307D01*
X120555990Y-50012307D02*
X120508371Y-49988497D01*
X120508371Y-49988497D02*
X120413133Y-49988497D01*
X120413133Y-49988497D02*
X120365514Y-50012307D01*
X120365514Y-50012307D02*
X120341704Y-50036116D01*
X120341704Y-50036116D02*
X120317895Y-50083735D01*
X115443609Y-52752782D02*
X115443609Y-52443258D01*
X115443609Y-52443258D02*
X115634085Y-52609925D01*
X115634085Y-52609925D02*
X115634085Y-52538496D01*
X115634085Y-52538496D02*
X115657895Y-52490877D01*
X115657895Y-52490877D02*
X115681704Y-52467068D01*
X115681704Y-52467068D02*
X115729323Y-52443258D01*
X115729323Y-52443258D02*
X115848371Y-52443258D01*
X115848371Y-52443258D02*
X115895990Y-52467068D01*
X115895990Y-52467068D02*
X115919800Y-52490877D01*
X115919800Y-52490877D02*
X115943609Y-52538496D01*
X115943609Y-52538496D02*
X115943609Y-52681353D01*
X115943609Y-52681353D02*
X115919800Y-52728972D01*
X115919800Y-52728972D02*
X115895990Y-52752782D01*
X115610276Y-52276592D02*
X115943609Y-52157544D01*
X115943609Y-52157544D02*
X115610276Y-52038497D01*
X115443609Y-51895640D02*
X115443609Y-51586116D01*
X115443609Y-51586116D02*
X115634085Y-51752783D01*
X115634085Y-51752783D02*
X115634085Y-51681354D01*
X115634085Y-51681354D02*
X115657895Y-51633735D01*
X115657895Y-51633735D02*
X115681704Y-51609926D01*
X115681704Y-51609926D02*
X115729323Y-51586116D01*
X115729323Y-51586116D02*
X115848371Y-51586116D01*
X115848371Y-51586116D02*
X115895990Y-51609926D01*
X115895990Y-51609926D02*
X115919800Y-51633735D01*
X115919800Y-51633735D02*
X115943609Y-51681354D01*
X115943609Y-51681354D02*
X115943609Y-51824211D01*
X115943609Y-51824211D02*
X115919800Y-51871830D01*
X115919800Y-51871830D02*
X115895990Y-51895640D01*
X120193609Y-43723258D02*
X120193609Y-44008972D01*
X120193609Y-43866115D02*
X119693609Y-43866115D01*
X119693609Y-43866115D02*
X119765038Y-43913734D01*
X119765038Y-43913734D02*
X119812657Y-43961353D01*
X119812657Y-43961353D02*
X119836466Y-44008972D01*
X119693609Y-43580401D02*
X120193609Y-43413735D01*
X120193609Y-43413735D02*
X119693609Y-43247068D01*
X120363609Y-53143258D02*
X120363609Y-53428972D01*
X120363609Y-53286115D02*
X119863609Y-53286115D01*
X119863609Y-53286115D02*
X119935038Y-53333734D01*
X119935038Y-53333734D02*
X119982657Y-53381353D01*
X119982657Y-53381353D02*
X120006466Y-53428972D01*
X120030276Y-52976592D02*
X120363609Y-52857544D01*
X120363609Y-52857544D02*
X120030276Y-52738497D01*
X120077895Y-52476592D02*
X120054085Y-52524211D01*
X120054085Y-52524211D02*
X120030276Y-52548021D01*
X120030276Y-52548021D02*
X119982657Y-52571830D01*
X119982657Y-52571830D02*
X119958847Y-52571830D01*
X119958847Y-52571830D02*
X119911228Y-52548021D01*
X119911228Y-52548021D02*
X119887419Y-52524211D01*
X119887419Y-52524211D02*
X119863609Y-52476592D01*
X119863609Y-52476592D02*
X119863609Y-52381354D01*
X119863609Y-52381354D02*
X119887419Y-52333735D01*
X119887419Y-52333735D02*
X119911228Y-52309926D01*
X119911228Y-52309926D02*
X119958847Y-52286116D01*
X119958847Y-52286116D02*
X119982657Y-52286116D01*
X119982657Y-52286116D02*
X120030276Y-52309926D01*
X120030276Y-52309926D02*
X120054085Y-52333735D01*
X120054085Y-52333735D02*
X120077895Y-52381354D01*
X120077895Y-52381354D02*
X120077895Y-52476592D01*
X120077895Y-52476592D02*
X120101704Y-52524211D01*
X120101704Y-52524211D02*
X120125514Y-52548021D01*
X120125514Y-52548021D02*
X120173133Y-52571830D01*
X120173133Y-52571830D02*
X120268371Y-52571830D01*
X120268371Y-52571830D02*
X120315990Y-52548021D01*
X120315990Y-52548021D02*
X120339800Y-52524211D01*
X120339800Y-52524211D02*
X120363609Y-52476592D01*
X120363609Y-52476592D02*
X120363609Y-52381354D01*
X120363609Y-52381354D02*
X120339800Y-52333735D01*
X120339800Y-52333735D02*
X120315990Y-52309926D01*
X120315990Y-52309926D02*
X120268371Y-52286116D01*
X120268371Y-52286116D02*
X120173133Y-52286116D01*
X120173133Y-52286116D02*
X120125514Y-52309926D01*
X120125514Y-52309926D02*
X120101704Y-52333735D01*
X120101704Y-52333735D02*
X120077895Y-52381354D01*
X120101704Y-52071831D02*
X120101704Y-51905164D01*
X120363609Y-51833736D02*
X120363609Y-52071831D01*
X120363609Y-52071831D02*
X119863609Y-52071831D01*
X119863609Y-52071831D02*
X119863609Y-51833736D01*
X120030276Y-51619450D02*
X120363609Y-51619450D01*
X120077895Y-51619450D02*
X120054085Y-51595640D01*
X120054085Y-51595640D02*
X120030276Y-51548021D01*
X120030276Y-51548021D02*
X120030276Y-51476593D01*
X120030276Y-51476593D02*
X120054085Y-51428974D01*
X120054085Y-51428974D02*
X120101704Y-51405164D01*
X120101704Y-51405164D02*
X120363609Y-51405164D01*
X138893609Y-53805163D02*
X138393609Y-53805163D01*
X138393609Y-53805163D02*
X138393609Y-53686115D01*
X138393609Y-53686115D02*
X138417419Y-53614687D01*
X138417419Y-53614687D02*
X138465038Y-53567068D01*
X138465038Y-53567068D02*
X138512657Y-53543258D01*
X138512657Y-53543258D02*
X138607895Y-53519449D01*
X138607895Y-53519449D02*
X138679323Y-53519449D01*
X138679323Y-53519449D02*
X138774561Y-53543258D01*
X138774561Y-53543258D02*
X138822180Y-53567068D01*
X138822180Y-53567068D02*
X138869800Y-53614687D01*
X138869800Y-53614687D02*
X138893609Y-53686115D01*
X138893609Y-53686115D02*
X138893609Y-53805163D01*
X138703133Y-53305163D02*
X138703133Y-52924211D01*
X129179800Y-48488972D02*
X129203609Y-48417544D01*
X129203609Y-48417544D02*
X129203609Y-48298496D01*
X129203609Y-48298496D02*
X129179800Y-48250877D01*
X129179800Y-48250877D02*
X129155990Y-48227068D01*
X129155990Y-48227068D02*
X129108371Y-48203258D01*
X129108371Y-48203258D02*
X129060752Y-48203258D01*
X129060752Y-48203258D02*
X129013133Y-48227068D01*
X129013133Y-48227068D02*
X128989323Y-48250877D01*
X128989323Y-48250877D02*
X128965514Y-48298496D01*
X128965514Y-48298496D02*
X128941704Y-48393734D01*
X128941704Y-48393734D02*
X128917895Y-48441353D01*
X128917895Y-48441353D02*
X128894085Y-48465163D01*
X128894085Y-48465163D02*
X128846466Y-48488972D01*
X128846466Y-48488972D02*
X128798847Y-48488972D01*
X128798847Y-48488972D02*
X128751228Y-48465163D01*
X128751228Y-48465163D02*
X128727419Y-48441353D01*
X128727419Y-48441353D02*
X128703609Y-48393734D01*
X128703609Y-48393734D02*
X128703609Y-48274687D01*
X128703609Y-48274687D02*
X128727419Y-48203258D01*
X128703609Y-48036592D02*
X129203609Y-47917544D01*
X129203609Y-47917544D02*
X128846466Y-47822306D01*
X128846466Y-47822306D02*
X129203609Y-47727068D01*
X129203609Y-47727068D02*
X128703609Y-47608021D01*
X129203609Y-47417544D02*
X128703609Y-47417544D01*
X128703609Y-47417544D02*
X128703609Y-47298496D01*
X128703609Y-47298496D02*
X128727419Y-47227068D01*
X128727419Y-47227068D02*
X128775038Y-47179449D01*
X128775038Y-47179449D02*
X128822657Y-47155639D01*
X128822657Y-47155639D02*
X128917895Y-47131830D01*
X128917895Y-47131830D02*
X128989323Y-47131830D01*
X128989323Y-47131830D02*
X129084561Y-47155639D01*
X129084561Y-47155639D02*
X129132180Y-47179449D01*
X129132180Y-47179449D02*
X129179800Y-47227068D01*
X129179800Y-47227068D02*
X129203609Y-47298496D01*
X129203609Y-47298496D02*
X129203609Y-47417544D01*
X129049800Y-51378972D02*
X129073609Y-51307544D01*
X129073609Y-51307544D02*
X129073609Y-51188496D01*
X129073609Y-51188496D02*
X129049800Y-51140877D01*
X129049800Y-51140877D02*
X129025990Y-51117068D01*
X129025990Y-51117068D02*
X128978371Y-51093258D01*
X128978371Y-51093258D02*
X128930752Y-51093258D01*
X128930752Y-51093258D02*
X128883133Y-51117068D01*
X128883133Y-51117068D02*
X128859323Y-51140877D01*
X128859323Y-51140877D02*
X128835514Y-51188496D01*
X128835514Y-51188496D02*
X128811704Y-51283734D01*
X128811704Y-51283734D02*
X128787895Y-51331353D01*
X128787895Y-51331353D02*
X128764085Y-51355163D01*
X128764085Y-51355163D02*
X128716466Y-51378972D01*
X128716466Y-51378972D02*
X128668847Y-51378972D01*
X128668847Y-51378972D02*
X128621228Y-51355163D01*
X128621228Y-51355163D02*
X128597419Y-51331353D01*
X128597419Y-51331353D02*
X128573609Y-51283734D01*
X128573609Y-51283734D02*
X128573609Y-51164687D01*
X128573609Y-51164687D02*
X128597419Y-51093258D01*
X128573609Y-50926592D02*
X129073609Y-50807544D01*
X129073609Y-50807544D02*
X128716466Y-50712306D01*
X128716466Y-50712306D02*
X129073609Y-50617068D01*
X129073609Y-50617068D02*
X128573609Y-50498021D01*
X129025990Y-50021830D02*
X129049800Y-50045639D01*
X129049800Y-50045639D02*
X129073609Y-50117068D01*
X129073609Y-50117068D02*
X129073609Y-50164687D01*
X129073609Y-50164687D02*
X129049800Y-50236115D01*
X129049800Y-50236115D02*
X129002180Y-50283734D01*
X129002180Y-50283734D02*
X128954561Y-50307544D01*
X128954561Y-50307544D02*
X128859323Y-50331353D01*
X128859323Y-50331353D02*
X128787895Y-50331353D01*
X128787895Y-50331353D02*
X128692657Y-50307544D01*
X128692657Y-50307544D02*
X128645038Y-50283734D01*
X128645038Y-50283734D02*
X128597419Y-50236115D01*
X128597419Y-50236115D02*
X128573609Y-50164687D01*
X128573609Y-50164687D02*
X128573609Y-50117068D01*
X128573609Y-50117068D02*
X128597419Y-50045639D01*
X128597419Y-50045639D02*
X128621228Y-50021830D01*
X129073609Y-49569449D02*
X129073609Y-49807544D01*
X129073609Y-49807544D02*
X128573609Y-49807544D01*
X129073609Y-49402782D02*
X128573609Y-49402782D01*
X128883133Y-49355163D02*
X129073609Y-49212306D01*
X128740276Y-49212306D02*
X128930752Y-49402782D01*
D11*
X147934819Y-38253333D02*
X148649104Y-38253333D01*
X148649104Y-38253333D02*
X148791961Y-38300952D01*
X148791961Y-38300952D02*
X148887200Y-38396190D01*
X148887200Y-38396190D02*
X148934819Y-38539047D01*
X148934819Y-38539047D02*
X148934819Y-38634285D01*
X147934819Y-37300952D02*
X147934819Y-37777142D01*
X147934819Y-37777142D02*
X148411009Y-37824761D01*
X148411009Y-37824761D02*
X148363390Y-37777142D01*
X148363390Y-37777142D02*
X148315771Y-37681904D01*
X148315771Y-37681904D02*
X148315771Y-37443809D01*
X148315771Y-37443809D02*
X148363390Y-37348571D01*
X148363390Y-37348571D02*
X148411009Y-37300952D01*
X148411009Y-37300952D02*
X148506247Y-37253333D01*
X148506247Y-37253333D02*
X148744342Y-37253333D01*
X148744342Y-37253333D02*
X148839580Y-37300952D01*
X148839580Y-37300952D02*
X148887200Y-37348571D01*
X148887200Y-37348571D02*
X148934819Y-37443809D01*
X148934819Y-37443809D02*
X148934819Y-37681904D01*
X148934819Y-37681904D02*
X148887200Y-37777142D01*
X148887200Y-37777142D02*
X148839580Y-37824761D01*
X147944819Y-61123333D02*
X148659104Y-61123333D01*
X148659104Y-61123333D02*
X148801961Y-61170952D01*
X148801961Y-61170952D02*
X148897200Y-61266190D01*
X148897200Y-61266190D02*
X148944819Y-61409047D01*
X148944819Y-61409047D02*
X148944819Y-61504285D01*
X148278152Y-60218571D02*
X148944819Y-60218571D01*
X147897200Y-60456666D02*
X148611485Y-60694761D01*
X148611485Y-60694761D02*
X148611485Y-60075714D01*
D12*
%TO.C,J5*%
X88940000Y-36590000D02*
X88940000Y-39250000D01*
X144880000Y-36590000D02*
X88940000Y-36590000D01*
X144880000Y-36590000D02*
X144880000Y-39250000D01*
X144880000Y-39250000D02*
X88940000Y-39250000D01*
X146150000Y-36590000D02*
X147480000Y-36590000D01*
X147480000Y-36590000D02*
X147480000Y-37920000D01*
%TO.C,R9*%
X115690002Y-43545136D02*
X115690002Y-43329464D01*
X116410002Y-43545136D02*
X116410002Y-43329464D01*
%TO.C,J6*%
X120040000Y-53800000D02*
X121370000Y-53800000D01*
X120040000Y-55130000D02*
X120040000Y-53800000D01*
X120040000Y-56400000D02*
X122640000Y-56400000D01*
X120040000Y-59000000D02*
X120040000Y-56400000D01*
X120040000Y-59000000D02*
X125240000Y-59000000D01*
X122640000Y-53800000D02*
X125240000Y-53800000D01*
X122640000Y-56400000D02*
X122640000Y-53800000D01*
X125240000Y-59000000D02*
X125240000Y-53800000D01*
%TO.C,TP9*%
X128330000Y-47790000D02*
G75*
G02*
X126430000Y-47790000I-950000J0D01*
G01*
X126430000Y-47790000D02*
G75*
G02*
X128330000Y-47790000I950000J0D01*
G01*
%TO.C,TP4*%
X118340000Y-49910000D02*
X119740000Y-49910000D01*
X118340000Y-51310000D02*
X118340000Y-49910000D01*
X119740000Y-49910000D02*
X119740000Y-51310000D01*
X119740000Y-51310000D02*
X118340000Y-51310000D01*
%TO.C,J4*%
X88950000Y-59460000D02*
X88950000Y-62120000D01*
X144890000Y-59460000D02*
X88950000Y-59460000D01*
X144890000Y-59460000D02*
X144890000Y-62120000D01*
X144890000Y-62120000D02*
X88950000Y-62120000D01*
X146160000Y-59460000D02*
X147490000Y-59460000D01*
X147490000Y-59460000D02*
X147490000Y-60790000D01*
D13*
%TO.C,U3*%
X93590000Y-39890000D02*
X106590000Y-39890000D01*
X93590000Y-52890000D02*
X93590000Y-39890000D01*
X106590000Y-39890000D02*
X106590000Y-52890000D01*
X106590000Y-52890000D02*
X93590000Y-52890000D01*
D14*
X93371000Y-40790000D02*
G75*
G02*
X93171000Y-40790000I-100000J0D01*
G01*
X93171000Y-40790000D02*
G75*
G02*
X93371000Y-40790000I100000J0D01*
G01*
D12*
%TO.C,R7*%
X116337838Y-48707300D02*
X116122166Y-48707300D01*
X116337838Y-49427300D02*
X116122166Y-49427300D01*
%TO.C,TP11*%
X128450000Y-42470000D02*
X129850000Y-42470000D01*
X128450000Y-43870000D02*
X128450000Y-42470000D01*
X129850000Y-42470000D02*
X129850000Y-43870000D01*
X129850000Y-43870000D02*
X128450000Y-43870000D01*
%TO.C,TP5*%
X117900000Y-42970000D02*
X119300000Y-42970000D01*
X117900000Y-44370000D02*
X117900000Y-42970000D01*
X119300000Y-42970000D02*
X119300000Y-44370000D01*
X119300000Y-44370000D02*
X117900000Y-44370000D01*
%TO.C,TP7*%
X141108750Y-53490000D02*
G75*
G02*
X139208750Y-53490000I-950000J0D01*
G01*
X139208750Y-53490000D02*
G75*
G02*
X141108750Y-53490000I950000J0D01*
G01*
%TO.C,TP2*%
X117740000Y-44650000D02*
X119140000Y-44650000D01*
X117740000Y-46050000D02*
X117740000Y-44650000D01*
X119140000Y-44650000D02*
X119140000Y-46050000D01*
X119140000Y-46050000D02*
X117740000Y-46050000D01*
D15*
%TO.C,U6*%
X107637101Y-50331860D02*
X107637101Y-42304229D01*
X107637101Y-52509300D02*
X107637101Y-51937140D01*
X108333554Y-52509300D02*
X107637101Y-52509300D01*
X111698633Y-40850700D02*
X113402900Y-40850700D01*
X113402900Y-40850700D02*
X113402900Y-52509300D01*
X113402900Y-52509300D02*
X111258635Y-52509300D01*
D16*
X112334900Y-53144300D02*
G75*
G02*
X111572900Y-53144300I-381000J0D01*
G01*
X111572900Y-53144300D02*
G75*
G02*
X112334900Y-53144300I381000J0D01*
G01*
D12*
%TO.C,TP1*%
X118120000Y-51560000D02*
X119520000Y-51560000D01*
X118120000Y-52960000D02*
X118120000Y-51560000D01*
X119520000Y-51560000D02*
X119520000Y-52960000D01*
X119520000Y-52960000D02*
X118120000Y-52960000D01*
%TO.C,TP6*%
X140188750Y-51130000D02*
G75*
G02*
X138288750Y-51130000I-950000J0D01*
G01*
X138288750Y-51130000D02*
G75*
G02*
X140188750Y-51130000I950000J0D01*
G01*
%TO.C,USB_C_ESP1*%
X146168750Y-47130000D02*
X144468750Y-47130000D01*
X146168750Y-56470000D02*
X144468750Y-56470000D01*
%TO.C,TP3*%
X116210000Y-51520000D02*
X117610000Y-51520000D01*
X116210000Y-52920000D02*
X116210000Y-51520000D01*
X117610000Y-51520000D02*
X117610000Y-52920000D01*
X117610000Y-52920000D02*
X116210000Y-52920000D01*
%TO.C,TP8*%
X128200000Y-50590000D02*
G75*
G02*
X126300000Y-50590000I-950000J0D01*
G01*
X126300000Y-50590000D02*
G75*
G02*
X128200000Y-50590000I950000J0D01*
G01*
D15*
%TO.C,U7*%
X93552500Y-53095800D02*
X93552500Y-59344200D01*
X93552500Y-59344200D02*
X101807500Y-59344200D01*
X93679500Y-58219996D02*
X93425500Y-58219996D01*
X95680004Y-53222800D02*
X95680004Y-52968800D01*
X95680004Y-59217200D02*
X95680004Y-59471200D01*
X101680500Y-58219996D02*
X101934500Y-58219996D01*
X101807500Y-53095800D02*
X93552500Y-53095800D01*
X101807500Y-59344200D02*
X101807500Y-53095800D01*
D12*
%TO.C,TP10*%
X125740000Y-43560000D02*
X127140000Y-43560000D01*
X125740000Y-44960000D02*
X125740000Y-43560000D01*
X127140000Y-43560000D02*
X127140000Y-44960000D01*
X127140000Y-44960000D02*
X125740000Y-44960000D01*
D15*
%TO.C,U4*%
X113799001Y-45550350D02*
X113799001Y-47556950D01*
X117101001Y-47556950D02*
X117101001Y-45550350D01*
D12*
%TO.C,J3*%
X104170000Y-54310000D02*
X105500000Y-54310000D01*
X104170000Y-55640000D02*
X104170000Y-54310000D01*
X104170000Y-56910000D02*
X106770000Y-56910000D01*
X104170000Y-59510000D02*
X104170000Y-56910000D01*
X104170000Y-59510000D02*
X119530000Y-59510000D01*
X106770000Y-54310000D02*
X119530000Y-54310000D01*
X106770000Y-56910000D02*
X106770000Y-54310000D01*
X119530000Y-59510000D02*
X119530000Y-54310000D01*
%TD*%
M02*
