G04 #@! TF.GenerationSoftware,KiCad,Pcbnew,7.0.1*
G04 #@! TF.CreationDate,2024-07-28T16:45:09-07:00*
G04 #@! TF.ProjectId,DFTBoard,44465442-6f61-4726-942e-6b696361645f,rev?*
G04 #@! TF.SameCoordinates,Original*
G04 #@! TF.FileFunction,Soldermask,Top*
G04 #@! TF.FilePolarity,Negative*
%FSLAX46Y46*%
G04 Gerber Fmt 4.6, Leading zero omitted, Abs format (unit mm)*
G04 Created by KiCad (PCBNEW 7.0.1) date 2024-07-28 16:45:09*
%MOMM*%
%LPD*%
G01*
G04 APERTURE LIST*
G04 Aperture macros list*
%AMRoundRect*
0 Rectangle with rounded corners*
0 $1 Rounding radius*
0 $2 $3 $4 $5 $6 $7 $8 $9 X,Y pos of 4 corners*
0 Add a 4 corners polygon primitive as box body*
4,1,4,$2,$3,$4,$5,$6,$7,$8,$9,$2,$3,0*
0 Add four circle primitives for the rounded corners*
1,1,$1+$1,$2,$3*
1,1,$1+$1,$4,$5*
1,1,$1+$1,$6,$7*
1,1,$1+$1,$8,$9*
0 Add four rect primitives between the rounded corners*
20,1,$1+$1,$2,$3,$4,$5,0*
20,1,$1+$1,$4,$5,$6,$7,0*
20,1,$1+$1,$6,$7,$8,$9,0*
20,1,$1+$1,$8,$9,$2,$3,0*%
G04 Aperture macros list end*
%ADD10C,0.010000*%
%ADD11C,3.078000*%
%ADD12RoundRect,0.015000X1.440180X-0.560070X1.440180X0.560070X-1.440180X0.560070X-1.440180X-0.560070X0*%
%ADD13RoundRect,0.162500X0.147500X0.172500X-0.147500X0.172500X-0.147500X-0.172500X0.147500X-0.172500X0*%
%ADD14RoundRect,0.162500X-0.147500X-0.172500X0.147500X-0.172500X0.147500X0.172500X-0.147500X0.172500X0*%
%ADD15C,0.360000*%
%ADD16RoundRect,0.077500X-0.312500X-0.062500X0.312500X-0.062500X0.312500X0.062500X-0.312500X0.062500X0*%
%ADD17RoundRect,0.077500X-0.062500X-0.312500X0.062500X-0.312500X0.062500X0.312500X-0.062500X0.312500X0*%
%ADD18RoundRect,0.264999X-1.575001X-1.575001X1.575001X-1.575001X1.575001X1.575001X-1.575001X1.575001X0*%
%ADD19C,2.030000*%
%ADD20RoundRect,0.015000X0.950000X-0.150000X0.950000X0.150000X-0.950000X0.150000X-0.950000X-0.150000X0*%
%ADD21C,1.630000*%
%ADD22RoundRect,0.015000X1.400000X-1.100000X1.400000X1.100000X-1.400000X1.100000X-1.400000X-1.100000X0*%
%ADD23RoundRect,0.015000X1.100000X-1.400000X1.100000X1.400000X-1.100000X1.400000X-1.100000X-1.400000X0*%
%ADD24C,0.430000*%
%ADD25RoundRect,0.015000X0.800000X-0.150000X0.800000X0.150000X-0.800000X0.150000X-0.800000X-0.150000X0*%
%ADD26RoundRect,0.162500X-0.172500X0.147500X-0.172500X-0.147500X0.172500X-0.147500X0.172500X0.147500X0*%
%ADD27RoundRect,0.015000X-0.330000X0.450000X-0.330000X-0.450000X0.330000X-0.450000X0.330000X0.450000X0*%
%ADD28RoundRect,0.077500X0.062500X-0.117500X0.062500X0.117500X-0.062500X0.117500X-0.062500X-0.117500X0*%
%ADD29RoundRect,0.265000X0.475000X-0.250000X0.475000X0.250000X-0.475000X0.250000X-0.475000X-0.250000X0*%
%ADD30RoundRect,0.150000X-0.185000X0.135000X-0.185000X-0.135000X0.185000X-0.135000X0.185000X0.135000X0*%
%ADD31RoundRect,0.265000X0.450000X-0.262500X0.450000X0.262500X-0.450000X0.262500X-0.450000X-0.262500X0*%
%ADD32RoundRect,0.165000X-0.150000X0.512500X-0.150000X-0.512500X0.150000X-0.512500X0.150000X0.512500X0*%
%ADD33RoundRect,0.265000X-0.925000X0.787500X-0.925000X-0.787500X0.925000X-0.787500X0.925000X0.787500X0*%
%ADD34RoundRect,0.077500X0.062500X-0.350000X0.062500X0.350000X-0.062500X0.350000X-0.062500X-0.350000X0*%
%ADD35RoundRect,0.077500X0.350000X-0.062500X0.350000X0.062500X-0.350000X0.062500X-0.350000X-0.062500X0*%
%ADD36RoundRect,0.015000X0.840000X-0.840000X0.840000X0.840000X-0.840000X0.840000X-0.840000X-0.840000X0*%
%ADD37RoundRect,0.265000X-0.787500X-0.925000X0.787500X-0.925000X0.787500X0.925000X-0.787500X0.925000X0*%
%ADD38RoundRect,0.265000X-0.475000X0.250000X-0.475000X-0.250000X0.475000X-0.250000X0.475000X0.250000X0*%
%ADD39C,1.879600*%
%ADD40C,3.301600*%
%ADD41RoundRect,0.150000X0.185000X-0.135000X0.185000X0.135000X-0.185000X0.135000X-0.185000X-0.135000X0*%
%ADD42RoundRect,0.015000X0.150000X0.650000X-0.150000X0.650000X-0.150000X-0.650000X0.150000X-0.650000X0*%
%ADD43RoundRect,0.015000X0.900000X1.100000X-0.900000X1.100000X-0.900000X-1.100000X0.900000X-1.100000X0*%
%ADD44RoundRect,0.015000X0.150000X0.550000X-0.150000X0.550000X-0.150000X-0.550000X0.150000X-0.550000X0*%
%ADD45RoundRect,0.015000X1.150000X1.550000X-1.150000X1.550000X-1.150000X-1.550000X1.150000X-1.550000X0*%
%ADD46RoundRect,0.077500X-0.062500X0.117500X-0.062500X-0.117500X0.062500X-0.117500X0.062500X0.117500X0*%
%ADD47RoundRect,0.015000X-0.500000X1.100000X-0.500000X-1.100000X0.500000X-1.100000X0.500000X1.100000X0*%
%ADD48RoundRect,0.015000X-0.500000X0.500000X-0.500000X-0.500000X0.500000X-0.500000X0.500000X0.500000X0*%
%ADD49RoundRect,0.165000X0.150000X-0.512500X0.150000X0.512500X-0.150000X0.512500X-0.150000X-0.512500X0*%
%ADD50RoundRect,0.015000X-1.000000X-0.750000X1.000000X-0.750000X1.000000X0.750000X-1.000000X0.750000X0*%
%ADD51RoundRect,0.015000X-1.000000X-1.900000X1.000000X-1.900000X1.000000X1.900000X-1.000000X1.900000X0*%
%ADD52RoundRect,0.102000X0.952500X0.952500X-0.952500X0.952500X-0.952500X-0.952500X0.952500X-0.952500X0*%
%ADD53RoundRect,0.264999X0.450001X1.450001X-0.450001X1.450001X-0.450001X-1.450001X0.450001X-1.450001X0*%
%ADD54RoundRect,0.240000X-0.225000X-0.375000X0.225000X-0.375000X0.225000X0.375000X-0.225000X0.375000X0*%
%ADD55C,1.808000*%
G04 APERTURE END LIST*
D10*
X141180980Y-75868000D02*
X139658990Y-75868000D01*
X139658990Y-73425990D01*
X141180980Y-73425990D01*
X141180980Y-75868000D01*
G36*
X141180980Y-75868000D02*
G01*
X139658990Y-75868000D01*
X139658990Y-73425990D01*
X141180980Y-73425990D01*
X141180980Y-75868000D01*
G37*
X141180980Y-79679000D02*
X139658990Y-79679000D01*
X139658990Y-77337010D01*
X141180980Y-77337010D01*
X141180980Y-79679000D01*
G36*
X141180980Y-79679000D02*
G01*
X139658990Y-79679000D01*
X139658990Y-77337010D01*
X141180980Y-77337010D01*
X141180980Y-79679000D01*
G37*
X143720980Y-75868000D02*
X142198990Y-75868000D01*
X142198990Y-73425990D01*
X143720980Y-73425990D01*
X143720980Y-75868000D01*
G36*
X143720980Y-75868000D02*
G01*
X142198990Y-75868000D01*
X142198990Y-73425990D01*
X143720980Y-73425990D01*
X143720980Y-75868000D01*
G37*
X143720980Y-79679000D02*
X142198990Y-79679000D01*
X142198990Y-77337010D01*
X143720980Y-77337010D01*
X143720980Y-79679000D01*
G36*
X143720980Y-79679000D02*
G01*
X142198990Y-79679000D01*
X142198990Y-77337010D01*
X143720980Y-77337010D01*
X143720980Y-79679000D01*
G37*
X146260984Y-75868000D02*
X144738990Y-75868000D01*
X144738990Y-73425990D01*
X146260984Y-73425990D01*
X146260984Y-75868000D01*
G36*
X146260984Y-75868000D02*
G01*
X144738990Y-75868000D01*
X144738990Y-73425990D01*
X146260984Y-73425990D01*
X146260984Y-75868000D01*
G37*
X146260984Y-79679000D02*
X144738990Y-79679000D01*
X144738990Y-77337010D01*
X146260984Y-77337010D01*
X146260984Y-79679000D01*
G36*
X146260984Y-79679000D02*
G01*
X144738990Y-79679000D01*
X144738990Y-77337010D01*
X146260984Y-77337010D01*
X146260984Y-79679000D01*
G37*
X148800980Y-75868000D02*
X147278991Y-75868000D01*
X147278991Y-73425990D01*
X148800980Y-73425990D01*
X148800980Y-75868000D01*
G36*
X148800980Y-75868000D02*
G01*
X147278991Y-75868000D01*
X147278991Y-73425990D01*
X148800980Y-73425990D01*
X148800980Y-75868000D01*
G37*
X148800980Y-79679000D02*
X147278991Y-79679000D01*
X147278991Y-77337010D01*
X148800980Y-77337010D01*
X148800980Y-79679000D01*
G36*
X148800980Y-79679000D02*
G01*
X147278991Y-79679000D01*
X147278991Y-77337010D01*
X148800980Y-77337010D01*
X148800980Y-79679000D01*
G37*
X151340980Y-75868000D02*
X149818990Y-75868000D01*
X149818990Y-73425990D01*
X151340980Y-73425990D01*
X151340980Y-75868000D01*
G36*
X151340980Y-75868000D02*
G01*
X149818990Y-75868000D01*
X149818990Y-73425990D01*
X151340980Y-73425990D01*
X151340980Y-75868000D01*
G37*
X151340980Y-79679000D02*
X149818990Y-79679000D01*
X149818990Y-77337010D01*
X151340980Y-77337010D01*
X151340980Y-79679000D01*
G36*
X151340980Y-79679000D02*
G01*
X149818990Y-79679000D01*
X149818990Y-77337010D01*
X151340980Y-77337010D01*
X151340980Y-79679000D01*
G37*
X153880980Y-75868000D02*
X152358990Y-75868000D01*
X152358990Y-73425990D01*
X153880980Y-73425990D01*
X153880980Y-75868000D01*
G36*
X153880980Y-75868000D02*
G01*
X152358990Y-75868000D01*
X152358990Y-73425990D01*
X153880980Y-73425990D01*
X153880980Y-75868000D01*
G37*
X153880980Y-79679000D02*
X152358990Y-79679000D01*
X152358990Y-77337010D01*
X153880980Y-77337010D01*
X153880980Y-79679000D01*
G36*
X153880980Y-79679000D02*
G01*
X152358990Y-79679000D01*
X152358990Y-77337010D01*
X153880980Y-77337010D01*
X153880980Y-79679000D01*
G37*
X118540980Y-76171000D02*
X117018990Y-76171000D01*
X117018990Y-73728990D01*
X118540980Y-73728990D01*
X118540980Y-76171000D01*
G36*
X118540980Y-76171000D02*
G01*
X117018990Y-76171000D01*
X117018990Y-73728990D01*
X118540980Y-73728990D01*
X118540980Y-76171000D01*
G37*
X118540980Y-79982000D02*
X117018990Y-79982000D01*
X117018990Y-77640010D01*
X118540980Y-77640010D01*
X118540980Y-79982000D01*
G36*
X118540980Y-79982000D02*
G01*
X117018990Y-79982000D01*
X117018990Y-77640010D01*
X118540980Y-77640010D01*
X118540980Y-79982000D01*
G37*
X121080980Y-76171000D02*
X119558990Y-76171000D01*
X119558990Y-73728990D01*
X121080980Y-73728990D01*
X121080980Y-76171000D01*
G36*
X121080980Y-76171000D02*
G01*
X119558990Y-76171000D01*
X119558990Y-73728990D01*
X121080980Y-73728990D01*
X121080980Y-76171000D01*
G37*
X121080980Y-79982000D02*
X119558990Y-79982000D01*
X119558990Y-77640010D01*
X121080980Y-77640010D01*
X121080980Y-79982000D01*
G36*
X121080980Y-79982000D02*
G01*
X119558990Y-79982000D01*
X119558990Y-77640010D01*
X121080980Y-77640010D01*
X121080980Y-79982000D01*
G37*
X123620984Y-76171000D02*
X122098990Y-76171000D01*
X122098990Y-73728990D01*
X123620984Y-73728990D01*
X123620984Y-76171000D01*
G36*
X123620984Y-76171000D02*
G01*
X122098990Y-76171000D01*
X122098990Y-73728990D01*
X123620984Y-73728990D01*
X123620984Y-76171000D01*
G37*
X123620984Y-79982000D02*
X122098990Y-79982000D01*
X122098990Y-77640010D01*
X123620984Y-77640010D01*
X123620984Y-79982000D01*
G36*
X123620984Y-79982000D02*
G01*
X122098990Y-79982000D01*
X122098990Y-77640010D01*
X123620984Y-77640010D01*
X123620984Y-79982000D01*
G37*
X126160980Y-76171000D02*
X124638991Y-76171000D01*
X124638991Y-73728990D01*
X126160980Y-73728990D01*
X126160980Y-76171000D01*
G36*
X126160980Y-76171000D02*
G01*
X124638991Y-76171000D01*
X124638991Y-73728990D01*
X126160980Y-73728990D01*
X126160980Y-76171000D01*
G37*
X126160980Y-79982000D02*
X124638991Y-79982000D01*
X124638991Y-77640010D01*
X126160980Y-77640010D01*
X126160980Y-79982000D01*
G36*
X126160980Y-79982000D02*
G01*
X124638991Y-79982000D01*
X124638991Y-77640010D01*
X126160980Y-77640010D01*
X126160980Y-79982000D01*
G37*
X128700980Y-76171000D02*
X127178990Y-76171000D01*
X127178990Y-73728990D01*
X128700980Y-73728990D01*
X128700980Y-76171000D01*
G36*
X128700980Y-76171000D02*
G01*
X127178990Y-76171000D01*
X127178990Y-73728990D01*
X128700980Y-73728990D01*
X128700980Y-76171000D01*
G37*
X128700980Y-79982000D02*
X127178990Y-79982000D01*
X127178990Y-77640010D01*
X128700980Y-77640010D01*
X128700980Y-79982000D01*
G36*
X128700980Y-79982000D02*
G01*
X127178990Y-79982000D01*
X127178990Y-77640010D01*
X128700980Y-77640010D01*
X128700980Y-79982000D01*
G37*
X131240980Y-76171000D02*
X129718990Y-76171000D01*
X129718990Y-73728990D01*
X131240980Y-73728990D01*
X131240980Y-76171000D01*
G36*
X131240980Y-76171000D02*
G01*
X129718990Y-76171000D01*
X129718990Y-73728990D01*
X131240980Y-73728990D01*
X131240980Y-76171000D01*
G37*
X131240980Y-79982000D02*
X129718990Y-79982000D01*
X129718990Y-77640010D01*
X131240980Y-77640010D01*
X131240980Y-79982000D01*
G36*
X131240980Y-79982000D02*
G01*
X129718990Y-79982000D01*
X129718990Y-77640010D01*
X131240980Y-77640010D01*
X131240980Y-79982000D01*
G37*
D11*
X145645530Y-122944020D03*
X145645530Y-136085980D03*
D12*
X142064130Y-126014880D03*
X142064130Y-128514240D03*
X142064130Y-130515760D03*
X142064130Y-133015120D03*
D13*
X126060000Y-129375000D03*
X125090000Y-129375000D03*
D14*
X137140000Y-128375000D03*
X138110000Y-128375000D03*
D15*
X116375000Y-121075000D03*
X117175000Y-121075000D03*
X117975000Y-121075000D03*
X121175000Y-121075000D03*
X121975000Y-121075000D03*
X122775000Y-121075000D03*
X116375000Y-121875000D03*
X117175000Y-121875000D03*
X117975000Y-121875000D03*
X121175000Y-121875000D03*
X121975000Y-121875000D03*
X122775000Y-121875000D03*
X116375000Y-122675000D03*
X117175000Y-122675000D03*
X117975000Y-122675000D03*
X121175000Y-122675000D03*
X121975000Y-122675000D03*
X122775000Y-122675000D03*
X116375000Y-123475000D03*
X117175000Y-123475000D03*
X117975000Y-123475000D03*
X121175000Y-123475000D03*
X121975000Y-123475000D03*
X122775000Y-123475000D03*
X116375000Y-124275000D03*
X117175000Y-124275000D03*
X117975000Y-124275000D03*
X121175000Y-124275000D03*
X121975000Y-124275000D03*
X122775000Y-124275000D03*
X116375000Y-125075000D03*
X117175000Y-125075000D03*
X117975000Y-125075000D03*
X121175000Y-125075000D03*
X121975000Y-125075000D03*
X122775000Y-125075000D03*
X116375000Y-125875000D03*
X117175000Y-125875000D03*
X117975000Y-125875000D03*
X121175000Y-125875000D03*
X121975000Y-125875000D03*
X122775000Y-125875000D03*
X116375000Y-126675000D03*
X117175000Y-126675000D03*
X117975000Y-126675000D03*
X121175000Y-126675000D03*
X121975000Y-126675000D03*
X122775000Y-126675000D03*
X116375000Y-127475000D03*
X117175000Y-127475000D03*
X117975000Y-127475000D03*
X121175000Y-127475000D03*
X121975000Y-127475000D03*
X122775000Y-127475000D03*
X116375000Y-128275000D03*
X117175000Y-128275000D03*
X117975000Y-128275000D03*
X121175000Y-128275000D03*
X121975000Y-128275000D03*
X122775000Y-128275000D03*
X116375000Y-129075000D03*
X117175000Y-129075000D03*
X117975000Y-129075000D03*
X121175000Y-129075000D03*
X121975000Y-129075000D03*
X122775000Y-129075000D03*
X116375000Y-129875000D03*
X117175000Y-129875000D03*
X117975000Y-129875000D03*
X121175000Y-129875000D03*
X121975000Y-129875000D03*
X122775000Y-129875000D03*
X116375000Y-130675000D03*
X117175000Y-130675000D03*
X117975000Y-130675000D03*
X121175000Y-130675000D03*
X121975000Y-130675000D03*
X122775000Y-130675000D03*
X116375000Y-131475000D03*
X117175000Y-131475000D03*
X117975000Y-131475000D03*
X121175000Y-131475000D03*
X121975000Y-131475000D03*
X122775000Y-131475000D03*
X116375000Y-132275000D03*
X117175000Y-132275000D03*
X117975000Y-132275000D03*
X121175000Y-132275000D03*
X121975000Y-132275000D03*
X122775000Y-132275000D03*
X116375000Y-133075000D03*
X117175000Y-133075000D03*
X117975000Y-133075000D03*
X121175000Y-133075000D03*
X121975000Y-133075000D03*
X122775000Y-133075000D03*
X128375000Y-121075000D03*
X129175000Y-121075000D03*
X129975000Y-121075000D03*
X133175000Y-121075000D03*
X133975000Y-121075000D03*
X134775000Y-121075000D03*
X128375000Y-121875000D03*
X129175000Y-121875000D03*
X129975000Y-121875000D03*
X133175000Y-121875000D03*
X133975000Y-121875000D03*
X134775000Y-121875000D03*
X128375000Y-122675000D03*
X129175000Y-122675000D03*
X129975000Y-122675000D03*
X133175000Y-122675000D03*
X133975000Y-122675000D03*
X134775000Y-122675000D03*
X128375000Y-123475000D03*
X129175000Y-123475000D03*
X129975000Y-123475000D03*
X133175000Y-123475000D03*
X133975000Y-123475000D03*
X134775000Y-123475000D03*
X128375000Y-124275000D03*
X129175000Y-124275000D03*
X129975000Y-124275000D03*
X133175000Y-124275000D03*
X133975000Y-124275000D03*
X134775000Y-124275000D03*
X128375000Y-125075000D03*
X129175000Y-125075000D03*
X129975000Y-125075000D03*
X133175000Y-125075000D03*
X133975000Y-125075000D03*
X134775000Y-125075000D03*
X128375000Y-125875000D03*
X129175000Y-125875000D03*
X129975000Y-125875000D03*
X133175000Y-125875000D03*
X133975000Y-125875000D03*
X134775000Y-125875000D03*
X128375000Y-126675000D03*
X129175000Y-126675000D03*
X129975000Y-126675000D03*
X133175000Y-126675000D03*
X133975000Y-126675000D03*
X134775000Y-126675000D03*
X128375000Y-127475000D03*
X129175000Y-127475000D03*
X129975000Y-127475000D03*
X133175000Y-127475000D03*
X133975000Y-127475000D03*
X134775000Y-127475000D03*
X128375000Y-128275000D03*
X129175000Y-128275000D03*
X129975000Y-128275000D03*
X133175000Y-128275000D03*
X133975000Y-128275000D03*
X134775000Y-128275000D03*
X128375000Y-129075000D03*
X129175000Y-129075000D03*
X129975000Y-129075000D03*
X133175000Y-129075000D03*
X133975000Y-129075000D03*
X134775000Y-129075000D03*
X128375000Y-129875000D03*
X129175000Y-129875000D03*
X129975000Y-129875000D03*
X133175000Y-129875000D03*
X133975000Y-129875000D03*
X134775000Y-129875000D03*
X128375000Y-130675000D03*
X129175000Y-130675000D03*
X129975000Y-130675000D03*
X133175000Y-130675000D03*
X133975000Y-130675000D03*
X134775000Y-130675000D03*
X128375000Y-131475000D03*
X129175000Y-131475000D03*
X129975000Y-131475000D03*
X133175000Y-131475000D03*
X133975000Y-131475000D03*
X134775000Y-131475000D03*
X128375000Y-132275000D03*
X129175000Y-132275000D03*
X129975000Y-132275000D03*
X133175000Y-132275000D03*
X133975000Y-132275000D03*
X134775000Y-132275000D03*
X128375000Y-133075000D03*
X129175000Y-133075000D03*
X129975000Y-133075000D03*
X133175000Y-133075000D03*
X133975000Y-133075000D03*
X134775000Y-133075000D03*
D16*
X130855000Y-153505000D03*
X130855000Y-154005000D03*
X130855000Y-154505000D03*
X130855000Y-155005000D03*
X130855000Y-155505000D03*
X130855000Y-156005000D03*
X130855000Y-156505000D03*
X130855000Y-157005000D03*
D17*
X131580000Y-157730000D03*
X132080000Y-157730000D03*
X132580000Y-157730000D03*
X133080000Y-157730000D03*
X133580000Y-157730000D03*
X134080000Y-157730000D03*
X134580000Y-157730000D03*
X135080000Y-157730000D03*
D16*
X135805000Y-157005000D03*
X135805000Y-156505000D03*
X135805000Y-156005000D03*
X135805000Y-155505000D03*
X135805000Y-155005000D03*
X135805000Y-154505000D03*
X135805000Y-154005000D03*
X135805000Y-153505000D03*
D17*
X135080000Y-152780000D03*
X134580000Y-152780000D03*
X134080000Y-152780000D03*
X133580000Y-152780000D03*
X133080000Y-152780000D03*
X132580000Y-152780000D03*
X132080000Y-152780000D03*
X131580000Y-152780000D03*
D18*
X133330000Y-155255000D03*
D19*
X105450000Y-120845000D03*
X102910000Y-120845000D03*
X105450000Y-118305000D03*
X102910000Y-118305000D03*
X105450000Y-115765000D03*
X102910000Y-115765000D03*
X105450000Y-113225000D03*
X102910000Y-113225000D03*
X105450000Y-110685000D03*
X102910000Y-110685000D03*
D14*
X137190000Y-104375000D03*
X138160000Y-104375000D03*
D20*
X147340000Y-104740000D03*
X147340000Y-105240000D03*
X147340000Y-105740000D03*
X147340000Y-106240000D03*
X147340000Y-106740000D03*
X147340000Y-107240000D03*
X147340000Y-107740000D03*
X147340000Y-108240000D03*
X147340000Y-108740000D03*
X147340000Y-109240000D03*
X147340000Y-109740000D03*
X147340000Y-110240000D03*
X147340000Y-110740000D03*
X147340000Y-111240000D03*
X147340000Y-111740000D03*
X147340000Y-112240000D03*
X147340000Y-112740000D03*
X147340000Y-113240000D03*
X147340000Y-113740000D03*
D21*
X153290000Y-117340000D03*
X148340000Y-116740000D03*
X148340000Y-102240000D03*
X153290000Y-101640000D03*
D22*
X130025000Y-159537500D03*
X130025000Y-150137500D03*
X122625000Y-157537500D03*
D23*
X125575000Y-146237500D03*
D19*
X126325000Y-158437500D03*
X126325000Y-151237500D03*
D24*
X117175000Y-109975000D03*
X117175000Y-109175000D03*
X117175000Y-108375000D03*
X117175000Y-107575000D03*
X117175000Y-106775000D03*
X117175000Y-105975000D03*
X117175000Y-105175000D03*
X117175000Y-104375000D03*
X117175000Y-103575000D03*
X117175000Y-102775000D03*
X117175000Y-101975000D03*
X117175000Y-101175000D03*
X117175000Y-100375000D03*
X117175000Y-99575000D03*
X117175000Y-98775000D03*
X117175000Y-97975000D03*
X117175000Y-97175000D03*
X117175000Y-96375000D03*
X117175000Y-95575000D03*
X117175000Y-94775000D03*
X117175000Y-93975000D03*
X117175000Y-93175000D03*
X133175000Y-109975000D03*
X133175000Y-109175000D03*
X133175000Y-108375000D03*
X133175000Y-107575000D03*
X133175000Y-106775000D03*
X133175000Y-105975000D03*
X133175000Y-105175000D03*
X133175000Y-104375000D03*
X133175000Y-103575000D03*
X133175000Y-102775000D03*
X133175000Y-101975000D03*
X133175000Y-101175000D03*
X133175000Y-100375000D03*
X133175000Y-99575000D03*
X133175000Y-98775000D03*
X133175000Y-97975000D03*
X133175000Y-97175000D03*
X133175000Y-96375000D03*
X133175000Y-95575000D03*
X133175000Y-94775000D03*
X133175000Y-93975000D03*
X133175000Y-93175000D03*
X133975000Y-109975000D03*
X133975000Y-109175000D03*
X133975000Y-108375000D03*
X133975000Y-107575000D03*
X133975000Y-106775000D03*
X133975000Y-105975000D03*
X133975000Y-105175000D03*
X133975000Y-104375000D03*
X133975000Y-103575000D03*
X133975000Y-102775000D03*
X133975000Y-101975000D03*
X133975000Y-101175000D03*
X133975000Y-100375000D03*
X133975000Y-99575000D03*
X133975000Y-98775000D03*
X133975000Y-97975000D03*
X133975000Y-97175000D03*
X133975000Y-96375000D03*
X133975000Y-95575000D03*
X133975000Y-94775000D03*
X133975000Y-93975000D03*
X133975000Y-93175000D03*
X117975000Y-109975000D03*
X117975000Y-109175000D03*
X117975000Y-108375000D03*
X117975000Y-107575000D03*
X117975000Y-106775000D03*
X117975000Y-105975000D03*
X117975000Y-105175000D03*
X117975000Y-104375000D03*
X117975000Y-103575000D03*
X117975000Y-102775000D03*
X117975000Y-101975000D03*
X117975000Y-101175000D03*
X117975000Y-100375000D03*
X117975000Y-99575000D03*
X117975000Y-98775000D03*
X117975000Y-97975000D03*
X117975000Y-97175000D03*
X117975000Y-96375000D03*
X117975000Y-95575000D03*
X117975000Y-94775000D03*
X117975000Y-93975000D03*
X117975000Y-93175000D03*
X118775000Y-109975000D03*
X118775000Y-109175000D03*
X118775000Y-108375000D03*
X118775000Y-107575000D03*
X118775000Y-106775000D03*
X118775000Y-105975000D03*
X118775000Y-105175000D03*
X118775000Y-104375000D03*
X118775000Y-103575000D03*
X118775000Y-102775000D03*
X118775000Y-101975000D03*
X118775000Y-101175000D03*
X118775000Y-100375000D03*
X118775000Y-99575000D03*
X118775000Y-98775000D03*
X118775000Y-97975000D03*
X118775000Y-97175000D03*
X118775000Y-96375000D03*
X118775000Y-95575000D03*
X118775000Y-94775000D03*
X118775000Y-93975000D03*
X118775000Y-93175000D03*
X119575000Y-109975000D03*
X119575000Y-109175000D03*
X119575000Y-108375000D03*
X119575000Y-107575000D03*
X119575000Y-106775000D03*
X119575000Y-105975000D03*
X119575000Y-105175000D03*
X119575000Y-104375000D03*
X119575000Y-103575000D03*
X119575000Y-102775000D03*
X119575000Y-101975000D03*
X119575000Y-101175000D03*
X119575000Y-100375000D03*
X119575000Y-99575000D03*
X119575000Y-98775000D03*
X119575000Y-97975000D03*
X119575000Y-97175000D03*
X119575000Y-96375000D03*
X119575000Y-95575000D03*
X119575000Y-94775000D03*
X119575000Y-93975000D03*
X119575000Y-93175000D03*
X120375000Y-109975000D03*
X120375000Y-109175000D03*
X120375000Y-108375000D03*
X120375000Y-107575000D03*
X120375000Y-106775000D03*
X120375000Y-105975000D03*
X120375000Y-105175000D03*
X120375000Y-104375000D03*
X120375000Y-103575000D03*
X120375000Y-102775000D03*
X120375000Y-101975000D03*
X120375000Y-101175000D03*
X120375000Y-100375000D03*
X120375000Y-99575000D03*
X120375000Y-98775000D03*
X120375000Y-97975000D03*
X120375000Y-97175000D03*
X120375000Y-96375000D03*
X120375000Y-95575000D03*
X120375000Y-94775000D03*
X120375000Y-93975000D03*
X120375000Y-93175000D03*
X121175000Y-109975000D03*
X121175000Y-109175000D03*
X121175000Y-108375000D03*
X121175000Y-107575000D03*
X121175000Y-106775000D03*
X121175000Y-105975000D03*
X121175000Y-105175000D03*
X121175000Y-104375000D03*
X121175000Y-103575000D03*
X121175000Y-102775000D03*
X121175000Y-101975000D03*
X121175000Y-101175000D03*
X121175000Y-100375000D03*
X121175000Y-99575000D03*
X121175000Y-98775000D03*
X121175000Y-97975000D03*
X121175000Y-97175000D03*
X121175000Y-96375000D03*
X121175000Y-95575000D03*
X121175000Y-94775000D03*
X121175000Y-93975000D03*
X121175000Y-93175000D03*
X121975000Y-109975000D03*
X121975000Y-109175000D03*
X121975000Y-108375000D03*
X121975000Y-107575000D03*
X121975000Y-106775000D03*
X121975000Y-105975000D03*
X121975000Y-105175000D03*
X121975000Y-104375000D03*
X121975000Y-103575000D03*
X121975000Y-102775000D03*
X121975000Y-101975000D03*
X121975000Y-101175000D03*
X121975000Y-100375000D03*
X121975000Y-99575000D03*
X121975000Y-98775000D03*
X121975000Y-97975000D03*
X121975000Y-97175000D03*
X121975000Y-96375000D03*
X121975000Y-95575000D03*
X121975000Y-94775000D03*
X121975000Y-93975000D03*
X121975000Y-93175000D03*
X122775000Y-109975000D03*
X122775000Y-109175000D03*
X122775000Y-108375000D03*
X122775000Y-107575000D03*
X122775000Y-106775000D03*
X122775000Y-105975000D03*
X122775000Y-105175000D03*
X122775000Y-104375000D03*
X122775000Y-103575000D03*
X122775000Y-102775000D03*
X122775000Y-101975000D03*
X122775000Y-101175000D03*
X122775000Y-100375000D03*
X122775000Y-99575000D03*
X122775000Y-98775000D03*
X122775000Y-97975000D03*
X122775000Y-97175000D03*
X122775000Y-96375000D03*
X122775000Y-95575000D03*
X122775000Y-94775000D03*
X122775000Y-93975000D03*
X122775000Y-93175000D03*
X123575000Y-109975000D03*
X123575000Y-109175000D03*
X123575000Y-108375000D03*
X123575000Y-107575000D03*
X123575000Y-106775000D03*
X123575000Y-105975000D03*
X123575000Y-105175000D03*
X123575000Y-104375000D03*
X123575000Y-103575000D03*
X123575000Y-102775000D03*
X123575000Y-101975000D03*
X123575000Y-101175000D03*
X123575000Y-100375000D03*
X123575000Y-99575000D03*
X123575000Y-98775000D03*
X123575000Y-97975000D03*
X123575000Y-97175000D03*
X123575000Y-96375000D03*
X123575000Y-95575000D03*
X123575000Y-94775000D03*
X123575000Y-93975000D03*
X123575000Y-93175000D03*
X124375000Y-109975000D03*
X124375000Y-109175000D03*
X124375000Y-108375000D03*
X124375000Y-107575000D03*
X124375000Y-106775000D03*
X124375000Y-105975000D03*
X124375000Y-105175000D03*
X124375000Y-104375000D03*
X124375000Y-103575000D03*
X124375000Y-102775000D03*
X124375000Y-101975000D03*
X124375000Y-101175000D03*
X124375000Y-100375000D03*
X124375000Y-99575000D03*
X124375000Y-98775000D03*
X124375000Y-97975000D03*
X124375000Y-97175000D03*
X124375000Y-96375000D03*
X124375000Y-95575000D03*
X124375000Y-94775000D03*
X124375000Y-93975000D03*
X124375000Y-93175000D03*
X125175000Y-109975000D03*
X125175000Y-109175000D03*
X125175000Y-108375000D03*
X125175000Y-107575000D03*
X125175000Y-106775000D03*
X125175000Y-105975000D03*
X125175000Y-105175000D03*
X125175000Y-104375000D03*
X125175000Y-103575000D03*
X125175000Y-102775000D03*
X125175000Y-101975000D03*
X125175000Y-101175000D03*
X125175000Y-100375000D03*
X125175000Y-99575000D03*
X125175000Y-98775000D03*
X125175000Y-97975000D03*
X125175000Y-97175000D03*
X125175000Y-96375000D03*
X125175000Y-95575000D03*
X125175000Y-94775000D03*
X125175000Y-93975000D03*
X125175000Y-93175000D03*
X125975000Y-109975000D03*
X125975000Y-109175000D03*
X125975000Y-108375000D03*
X125975000Y-107575000D03*
X125975000Y-106775000D03*
X125975000Y-105975000D03*
X125975000Y-105175000D03*
X125975000Y-104375000D03*
X125975000Y-103575000D03*
X125975000Y-102775000D03*
X125975000Y-101975000D03*
X125975000Y-101175000D03*
X125975000Y-100375000D03*
X125975000Y-99575000D03*
X125975000Y-98775000D03*
X125975000Y-97975000D03*
X125975000Y-97175000D03*
X125975000Y-96375000D03*
X125975000Y-95575000D03*
X125975000Y-94775000D03*
X125975000Y-93975000D03*
X125975000Y-93175000D03*
X126775000Y-109975000D03*
X126775000Y-109175000D03*
X126775000Y-108375000D03*
X126775000Y-107575000D03*
X126775000Y-106775000D03*
X126775000Y-105975000D03*
X126775000Y-105175000D03*
X126775000Y-104375000D03*
X126775000Y-103575000D03*
X126775000Y-102775000D03*
X126775000Y-101975000D03*
X126775000Y-101175000D03*
X126775000Y-100375000D03*
X126775000Y-99575000D03*
X126775000Y-98775000D03*
X126775000Y-97975000D03*
X126775000Y-97175000D03*
X126775000Y-96375000D03*
X126775000Y-95575000D03*
X126775000Y-94775000D03*
X126775000Y-93975000D03*
X126775000Y-93175000D03*
X127575000Y-109975000D03*
X127575000Y-109175000D03*
X127575000Y-108375000D03*
X127575000Y-107575000D03*
X127575000Y-106775000D03*
X127575000Y-105975000D03*
X127575000Y-105175000D03*
X127575000Y-104375000D03*
X127575000Y-103575000D03*
X127575000Y-102775000D03*
X127575000Y-101975000D03*
X127575000Y-101175000D03*
X127575000Y-100375000D03*
X127575000Y-99575000D03*
X127575000Y-98775000D03*
X127575000Y-97975000D03*
X127575000Y-97175000D03*
X127575000Y-96375000D03*
X127575000Y-95575000D03*
X127575000Y-94775000D03*
X127575000Y-93975000D03*
X127575000Y-93175000D03*
X128375000Y-109975000D03*
X128375000Y-109175000D03*
X128375000Y-108375000D03*
X128375000Y-107575000D03*
X128375000Y-106775000D03*
X128375000Y-105975000D03*
X128375000Y-105175000D03*
X128375000Y-104375000D03*
X128375000Y-103575000D03*
X128375000Y-102775000D03*
X128375000Y-101975000D03*
X128375000Y-101175000D03*
X128375000Y-100375000D03*
X128375000Y-99575000D03*
X128375000Y-98775000D03*
X128375000Y-97975000D03*
X128375000Y-97175000D03*
X128375000Y-96375000D03*
X128375000Y-95575000D03*
X128375000Y-94775000D03*
X128375000Y-93975000D03*
X128375000Y-93175000D03*
X129175000Y-109975000D03*
X129175000Y-109175000D03*
X129175000Y-108375000D03*
X129175000Y-107575000D03*
X129175000Y-106775000D03*
X129175000Y-105975000D03*
X129175000Y-105175000D03*
X129175000Y-104375000D03*
X129175000Y-103575000D03*
X129175000Y-102775000D03*
X129175000Y-101975000D03*
X129175000Y-101175000D03*
X129175000Y-100375000D03*
X129175000Y-99575000D03*
X129175000Y-98775000D03*
X129175000Y-97975000D03*
X129175000Y-97175000D03*
X129175000Y-96375000D03*
X129175000Y-95575000D03*
X129175000Y-94775000D03*
X129175000Y-93975000D03*
X129175000Y-93175000D03*
X129975000Y-109975000D03*
X129975000Y-109175000D03*
X129975000Y-108375000D03*
X129975000Y-107575000D03*
X129975000Y-106775000D03*
X129975000Y-105975000D03*
X129975000Y-105175000D03*
X129975000Y-104375000D03*
X129975000Y-103575000D03*
X129975000Y-102775000D03*
X129975000Y-101975000D03*
X129975000Y-101175000D03*
X129975000Y-100375000D03*
X129975000Y-99575000D03*
X129975000Y-98775000D03*
X129975000Y-97975000D03*
X129975000Y-97175000D03*
X129975000Y-96375000D03*
X129975000Y-95575000D03*
X129975000Y-94775000D03*
X129975000Y-93975000D03*
X129975000Y-93175000D03*
X130775000Y-109975000D03*
X130775000Y-109175000D03*
X130775000Y-108375000D03*
X130775000Y-107575000D03*
X130775000Y-106775000D03*
X130775000Y-105975000D03*
X130775000Y-105175000D03*
X130775000Y-104375000D03*
X130775000Y-103575000D03*
X130775000Y-102775000D03*
X130775000Y-101975000D03*
X130775000Y-101175000D03*
X130775000Y-100375000D03*
X130775000Y-99575000D03*
X130775000Y-98775000D03*
X130775000Y-97975000D03*
X130775000Y-97175000D03*
X130775000Y-96375000D03*
X130775000Y-95575000D03*
X130775000Y-94775000D03*
X130775000Y-93975000D03*
X130775000Y-93175000D03*
X131575000Y-109975000D03*
X131575000Y-109175000D03*
X131575000Y-108375000D03*
X131575000Y-107575000D03*
X131575000Y-106775000D03*
X131575000Y-105975000D03*
X131575000Y-105175000D03*
X131575000Y-104375000D03*
X131575000Y-103575000D03*
X131575000Y-102775000D03*
X131575000Y-101975000D03*
X131575000Y-101175000D03*
X131575000Y-100375000D03*
X131575000Y-99575000D03*
X131575000Y-98775000D03*
X131575000Y-97975000D03*
X131575000Y-97175000D03*
X131575000Y-96375000D03*
X131575000Y-95575000D03*
X131575000Y-94775000D03*
X131575000Y-93975000D03*
X131575000Y-93175000D03*
X132375000Y-109975000D03*
X132375000Y-109175000D03*
X132375000Y-108375000D03*
X132375000Y-107575000D03*
X132375000Y-106775000D03*
X132375000Y-105975000D03*
X132375000Y-105175000D03*
X132375000Y-104375000D03*
X132375000Y-103575000D03*
X132375000Y-102775000D03*
X132375000Y-101975000D03*
X132375000Y-101175000D03*
X132375000Y-100375000D03*
X132375000Y-99575000D03*
X132375000Y-98775000D03*
X132375000Y-97975000D03*
X132375000Y-97175000D03*
X132375000Y-96375000D03*
X132375000Y-95575000D03*
X132375000Y-94775000D03*
X132375000Y-93975000D03*
X132375000Y-93175000D03*
D25*
X143090000Y-114695000D03*
X143090000Y-114045000D03*
X143090000Y-113395000D03*
X143090000Y-112745000D03*
X139690000Y-112745000D03*
X139690000Y-113395000D03*
X139690000Y-114045000D03*
X139690000Y-114695000D03*
D26*
X125720000Y-135395000D03*
X125720000Y-134425000D03*
D27*
X134945000Y-159737500D03*
X132755000Y-159737500D03*
X132755000Y-161087500D03*
X134945000Y-161087500D03*
D28*
X135405000Y-78362500D03*
X135405000Y-79202500D03*
D29*
X110960000Y-71350000D03*
X110960000Y-69450000D03*
D30*
X134445000Y-65800000D03*
X134445000Y-66820000D03*
D29*
X113040000Y-71380000D03*
X113040000Y-69480000D03*
X113100000Y-77010000D03*
X113100000Y-75110000D03*
D31*
X114050000Y-94762500D03*
X114050000Y-92937500D03*
D32*
X136320000Y-68222500D03*
X134420000Y-68222500D03*
X135370000Y-70497500D03*
D33*
X102525000Y-87837500D03*
X102525000Y-92762500D03*
D34*
X106840000Y-92670000D03*
X107340000Y-92670000D03*
X107840000Y-92670000D03*
X108340000Y-92670000D03*
D35*
X109052500Y-91957500D03*
X109052500Y-91457500D03*
X109052500Y-90957500D03*
X109052500Y-90457500D03*
D34*
X108340000Y-89745000D03*
X107840000Y-89745000D03*
X107340000Y-89745000D03*
X106840000Y-89745000D03*
D35*
X106127500Y-90457500D03*
X106127500Y-90957500D03*
X106127500Y-91457500D03*
X106127500Y-91957500D03*
D36*
X107590000Y-91207500D03*
D37*
X102050000Y-103750000D03*
X106975000Y-103750000D03*
D38*
X138250000Y-82030000D03*
X138250000Y-83930000D03*
D39*
X139050000Y-155637000D03*
X139050000Y-153097000D03*
X139050000Y-150557000D03*
X139050000Y-148017000D03*
X139050000Y-145477000D03*
D40*
X139050000Y-159447000D03*
X139050000Y-159447000D03*
X153020000Y-159447000D03*
X153020000Y-159447000D03*
X139050000Y-141667000D03*
X139050000Y-141667000D03*
X153020000Y-141667000D03*
D41*
X135380000Y-77245000D03*
X135380000Y-76225000D03*
D12*
X141938600Y-92621100D03*
X141938600Y-90121740D03*
X141938600Y-88120220D03*
X141938600Y-85620860D03*
D11*
X145520000Y-95691960D03*
X145520000Y-82550000D03*
D42*
X106875000Y-80375000D03*
X106375000Y-80375000D03*
X105875000Y-80375000D03*
X105375000Y-80375000D03*
X104875000Y-80375000D03*
X104375000Y-80375000D03*
D43*
X108775000Y-77125000D03*
X102475000Y-77125000D03*
D31*
X111775000Y-91462500D03*
X111775000Y-89637500D03*
D44*
X135845000Y-90575000D03*
X135345000Y-90575000D03*
X134845000Y-90575000D03*
X134345000Y-90575000D03*
X133845000Y-90575000D03*
X133345000Y-90575000D03*
X132845000Y-90575000D03*
X132345000Y-90575000D03*
X131845000Y-90575000D03*
X131345000Y-90575000D03*
X130845000Y-90575000D03*
X130345000Y-90575000D03*
X129845000Y-90575000D03*
X129345000Y-90575000D03*
X128845000Y-90575000D03*
X128345000Y-90575000D03*
X127845000Y-90575000D03*
X127345000Y-90575000D03*
X126845000Y-90575000D03*
X126345000Y-90575000D03*
X125845000Y-90575000D03*
X125345000Y-90575000D03*
X124845000Y-90575000D03*
X124345000Y-90575000D03*
X123845000Y-90575000D03*
X123345000Y-90575000D03*
X122845000Y-90575000D03*
X122345000Y-90575000D03*
X121845000Y-90575000D03*
X121345000Y-90575000D03*
X120845000Y-90575000D03*
X120345000Y-90575000D03*
X119845000Y-90575000D03*
X119345000Y-90575000D03*
X118845000Y-90575000D03*
X118345000Y-90575000D03*
X117845000Y-90575000D03*
X117345000Y-90575000D03*
X116845000Y-90575000D03*
X116345000Y-90575000D03*
D45*
X137515000Y-88875000D03*
X114675000Y-88875000D03*
D41*
X135470000Y-66830000D03*
X135470000Y-65810000D03*
D29*
X111800000Y-87950000D03*
X111800000Y-86050000D03*
D46*
X135445000Y-64710000D03*
X135445000Y-63870000D03*
D47*
X104250000Y-84175000D03*
X101350000Y-84175000D03*
D48*
X102800000Y-82675000D03*
D49*
X134630000Y-74912500D03*
X136530000Y-74912500D03*
X135580000Y-72637500D03*
D50*
X138100000Y-116875000D03*
X138100000Y-119175000D03*
D51*
X144400000Y-119175000D03*
D50*
X138100000Y-121475000D03*
D52*
X103655000Y-142345000D03*
X103655000Y-144885000D03*
X103655000Y-147425000D03*
X103655000Y-149965000D03*
X103655000Y-155045000D03*
X103655000Y-152505000D03*
X118895000Y-160125000D03*
X103655000Y-160125000D03*
X118895000Y-157585000D03*
X118895000Y-155045000D03*
X118895000Y-152505000D03*
X118895000Y-149965000D03*
X118895000Y-147425000D03*
X118895000Y-144885000D03*
X118895000Y-142345000D03*
X103655000Y-157585000D03*
D53*
X109850000Y-86650000D03*
X105750000Y-86650000D03*
D54*
X106325000Y-83275000D03*
X109625000Y-83275000D03*
D41*
X136380000Y-77245000D03*
X136380000Y-76225000D03*
D55*
X108550000Y-158600000D03*
X108550000Y-156060000D03*
X108550000Y-153520000D03*
X108550000Y-150980000D03*
X108550000Y-148440000D03*
X108550000Y-145900000D03*
G36*
X134941111Y-157427088D02*
G01*
X134942000Y-157428751D01*
X134942000Y-158031240D01*
X134941111Y-158032903D01*
X134939235Y-158033088D01*
X134938038Y-158031630D01*
X134922161Y-157951811D01*
X134737839Y-157951811D01*
X134721962Y-158031628D01*
X134720765Y-158033086D01*
X134718889Y-158032901D01*
X134718000Y-158031238D01*
X134718000Y-157428765D01*
X134718889Y-157427102D01*
X134720765Y-157426917D01*
X134721962Y-157428375D01*
X134737835Y-157508186D01*
X134922158Y-157508189D01*
X134938038Y-157428361D01*
X134939235Y-157426903D01*
X134941111Y-157427088D01*
G37*
G36*
X134441111Y-157427088D02*
G01*
X134442000Y-157428751D01*
X134442000Y-158031240D01*
X134441111Y-158032903D01*
X134439235Y-158033088D01*
X134438038Y-158031630D01*
X134422161Y-157951811D01*
X134237839Y-157951811D01*
X134221962Y-158031628D01*
X134220765Y-158033086D01*
X134218889Y-158032901D01*
X134218000Y-158031238D01*
X134218000Y-157428765D01*
X134218889Y-157427102D01*
X134220765Y-157426917D01*
X134221962Y-157428375D01*
X134237835Y-157508186D01*
X134422158Y-157508189D01*
X134438038Y-157428361D01*
X134439235Y-157426903D01*
X134441111Y-157427088D01*
G37*
G36*
X133941111Y-157427088D02*
G01*
X133942000Y-157428751D01*
X133942000Y-158031240D01*
X133941111Y-158032903D01*
X133939235Y-158033088D01*
X133938038Y-158031630D01*
X133922161Y-157951811D01*
X133737839Y-157951811D01*
X133721962Y-158031628D01*
X133720765Y-158033086D01*
X133718889Y-158032901D01*
X133718000Y-158031238D01*
X133718000Y-157428765D01*
X133718889Y-157427102D01*
X133720765Y-157426917D01*
X133721962Y-157428375D01*
X133737835Y-157508186D01*
X133922158Y-157508189D01*
X133938038Y-157428361D01*
X133939235Y-157426903D01*
X133941111Y-157427088D01*
G37*
G36*
X133441111Y-157427088D02*
G01*
X133442000Y-157428751D01*
X133442000Y-158031240D01*
X133441111Y-158032903D01*
X133439235Y-158033088D01*
X133438038Y-158031630D01*
X133422161Y-157951811D01*
X133237839Y-157951811D01*
X133221962Y-158031628D01*
X133220765Y-158033086D01*
X133218889Y-158032901D01*
X133218000Y-158031238D01*
X133218000Y-157428765D01*
X133218889Y-157427102D01*
X133220765Y-157426917D01*
X133221962Y-157428375D01*
X133237835Y-157508186D01*
X133422158Y-157508189D01*
X133438038Y-157428361D01*
X133439235Y-157426903D01*
X133441111Y-157427088D01*
G37*
G36*
X132941111Y-157427088D02*
G01*
X132942000Y-157428751D01*
X132942000Y-158031240D01*
X132941111Y-158032903D01*
X132939235Y-158033088D01*
X132938038Y-158031630D01*
X132922161Y-157951811D01*
X132737839Y-157951811D01*
X132721962Y-158031628D01*
X132720765Y-158033086D01*
X132718889Y-158032901D01*
X132718000Y-158031238D01*
X132718000Y-157428765D01*
X132718889Y-157427102D01*
X132720765Y-157426917D01*
X132721962Y-157428375D01*
X132737835Y-157508186D01*
X132922158Y-157508189D01*
X132938038Y-157428361D01*
X132939235Y-157426903D01*
X132941111Y-157427088D01*
G37*
G36*
X132441111Y-157427088D02*
G01*
X132442000Y-157428751D01*
X132442000Y-158031240D01*
X132441111Y-158032903D01*
X132439235Y-158033088D01*
X132438038Y-158031630D01*
X132422161Y-157951811D01*
X132237839Y-157951811D01*
X132221962Y-158031628D01*
X132220765Y-158033086D01*
X132218889Y-158032901D01*
X132218000Y-158031238D01*
X132218000Y-157428765D01*
X132218889Y-157427102D01*
X132220765Y-157426917D01*
X132221962Y-157428375D01*
X132237835Y-157508186D01*
X132422158Y-157508189D01*
X132438038Y-157428361D01*
X132439235Y-157426903D01*
X132441111Y-157427088D01*
G37*
G36*
X131941111Y-157427088D02*
G01*
X131942000Y-157428751D01*
X131942000Y-158031240D01*
X131941111Y-158032903D01*
X131939235Y-158033088D01*
X131938038Y-158031630D01*
X131922161Y-157951811D01*
X131737839Y-157951811D01*
X131721962Y-158031628D01*
X131720765Y-158033086D01*
X131718889Y-158032901D01*
X131718000Y-158031238D01*
X131718000Y-157428765D01*
X131718889Y-157427102D01*
X131720765Y-157426917D01*
X131721962Y-157428375D01*
X131737835Y-157508186D01*
X131922158Y-157508189D01*
X131938038Y-157428361D01*
X131939235Y-157426903D01*
X131941111Y-157427088D01*
G37*
G36*
X134898397Y-157093905D02*
G01*
X134898554Y-157095803D01*
X134897052Y-157096972D01*
X134897046Y-157096973D01*
X134896717Y-157097000D01*
X131763283Y-157097000D01*
X131761869Y-157096414D01*
X131761868Y-157096413D01*
X131761282Y-157094999D01*
X131761868Y-157093585D01*
X131763282Y-157092999D01*
X134896723Y-157092999D01*
X134898397Y-157093905D01*
G37*
G36*
X136107897Y-156643889D02*
G01*
X136108082Y-156645765D01*
X136106624Y-156646962D01*
X136026812Y-156662835D01*
X136026809Y-156847158D01*
X136106638Y-156863038D01*
X136108096Y-156864235D01*
X136107911Y-156866111D01*
X136106248Y-156867000D01*
X135503757Y-156867000D01*
X135502094Y-156866111D01*
X135501909Y-156864235D01*
X135503367Y-156863038D01*
X135583188Y-156847161D01*
X135583188Y-156662839D01*
X135503371Y-156646962D01*
X135501913Y-156645765D01*
X135502098Y-156643889D01*
X135503761Y-156643000D01*
X136106234Y-156643000D01*
X136107897Y-156643889D01*
G37*
G36*
X131157897Y-156643889D02*
G01*
X131158082Y-156645765D01*
X131156624Y-156646962D01*
X131076812Y-156662835D01*
X131076809Y-156847158D01*
X131156638Y-156863038D01*
X131158096Y-156864235D01*
X131157911Y-156866111D01*
X131156248Y-156867000D01*
X130553757Y-156867000D01*
X130552094Y-156866111D01*
X130551909Y-156864235D01*
X130553367Y-156863038D01*
X130633188Y-156847161D01*
X130633188Y-156662839D01*
X130553371Y-156646962D01*
X130551913Y-156645765D01*
X130552098Y-156643889D01*
X130553761Y-156643000D01*
X131156234Y-156643000D01*
X131157897Y-156643889D01*
G37*
G36*
X136107897Y-156143889D02*
G01*
X136108082Y-156145765D01*
X136106624Y-156146962D01*
X136026812Y-156162835D01*
X136026809Y-156347158D01*
X136106638Y-156363038D01*
X136108096Y-156364235D01*
X136107911Y-156366111D01*
X136106248Y-156367000D01*
X135503757Y-156367000D01*
X135502094Y-156366111D01*
X135501909Y-156364235D01*
X135503367Y-156363038D01*
X135583188Y-156347161D01*
X135583188Y-156162839D01*
X135503371Y-156146962D01*
X135501913Y-156145765D01*
X135502098Y-156143889D01*
X135503761Y-156143000D01*
X136106234Y-156143000D01*
X136107897Y-156143889D01*
G37*
G36*
X131157897Y-156143889D02*
G01*
X131158082Y-156145765D01*
X131156624Y-156146962D01*
X131076812Y-156162835D01*
X131076809Y-156347158D01*
X131156638Y-156363038D01*
X131158096Y-156364235D01*
X131157911Y-156366111D01*
X131156248Y-156367000D01*
X130553757Y-156367000D01*
X130552094Y-156366111D01*
X130551909Y-156364235D01*
X130553367Y-156363038D01*
X130633188Y-156347161D01*
X130633188Y-156162839D01*
X130553371Y-156146962D01*
X130551913Y-156145765D01*
X130552098Y-156143889D01*
X130553761Y-156143000D01*
X131156234Y-156143000D01*
X131157897Y-156143889D01*
G37*
G36*
X136107897Y-155643889D02*
G01*
X136108082Y-155645765D01*
X136106624Y-155646962D01*
X136026812Y-155662835D01*
X136026809Y-155847158D01*
X136106638Y-155863038D01*
X136108096Y-155864235D01*
X136107911Y-155866111D01*
X136106248Y-155867000D01*
X135503757Y-155867000D01*
X135502094Y-155866111D01*
X135501909Y-155864235D01*
X135503367Y-155863038D01*
X135583188Y-155847161D01*
X135583188Y-155662839D01*
X135503371Y-155646962D01*
X135501913Y-155645765D01*
X135502098Y-155643889D01*
X135503761Y-155643000D01*
X136106234Y-155643000D01*
X136107897Y-155643889D01*
G37*
G36*
X131157897Y-155643889D02*
G01*
X131158082Y-155645765D01*
X131156624Y-155646962D01*
X131076812Y-155662835D01*
X131076809Y-155847158D01*
X131156638Y-155863038D01*
X131158096Y-155864235D01*
X131157911Y-155866111D01*
X131156248Y-155867000D01*
X130553757Y-155867000D01*
X130552094Y-155866111D01*
X130551909Y-155864235D01*
X130553367Y-155863038D01*
X130633188Y-155847161D01*
X130633188Y-155662839D01*
X130553371Y-155646962D01*
X130551913Y-155645765D01*
X130552098Y-155643889D01*
X130553761Y-155643000D01*
X131156234Y-155643000D01*
X131157897Y-155643889D01*
G37*
G36*
X136107897Y-155143889D02*
G01*
X136108082Y-155145765D01*
X136106624Y-155146962D01*
X136026812Y-155162835D01*
X136026809Y-155347158D01*
X136106638Y-155363038D01*
X136108096Y-155364235D01*
X136107911Y-155366111D01*
X136106248Y-155367000D01*
X135503757Y-155367000D01*
X135502094Y-155366111D01*
X135501909Y-155364235D01*
X135503367Y-155363038D01*
X135583188Y-155347161D01*
X135583188Y-155162839D01*
X135503371Y-155146962D01*
X135501913Y-155145765D01*
X135502098Y-155143889D01*
X135503761Y-155143000D01*
X136106234Y-155143000D01*
X136107897Y-155143889D01*
G37*
G36*
X131157897Y-155143889D02*
G01*
X131158082Y-155145765D01*
X131156624Y-155146962D01*
X131076812Y-155162835D01*
X131076809Y-155347158D01*
X131156638Y-155363038D01*
X131158096Y-155364235D01*
X131157911Y-155366111D01*
X131156248Y-155367000D01*
X130553757Y-155367000D01*
X130552094Y-155366111D01*
X130551909Y-155364235D01*
X130553367Y-155363038D01*
X130633188Y-155347161D01*
X130633188Y-155162839D01*
X130553371Y-155146962D01*
X130551913Y-155145765D01*
X130552098Y-155143889D01*
X130553761Y-155143000D01*
X131156234Y-155143000D01*
X131157897Y-155143889D01*
G37*
G36*
X136107897Y-154643889D02*
G01*
X136108082Y-154645765D01*
X136106624Y-154646962D01*
X136026812Y-154662835D01*
X136026809Y-154847158D01*
X136106638Y-154863038D01*
X136108096Y-154864235D01*
X136107911Y-154866111D01*
X136106248Y-154867000D01*
X135503757Y-154867000D01*
X135502094Y-154866111D01*
X135501909Y-154864235D01*
X135503367Y-154863038D01*
X135583188Y-154847161D01*
X135583188Y-154662839D01*
X135503371Y-154646962D01*
X135501913Y-154645765D01*
X135502098Y-154643889D01*
X135503761Y-154643000D01*
X136106234Y-154643000D01*
X136107897Y-154643889D01*
G37*
G36*
X131157897Y-154643889D02*
G01*
X131158082Y-154645765D01*
X131156624Y-154646962D01*
X131076812Y-154662835D01*
X131076809Y-154847158D01*
X131156638Y-154863038D01*
X131158096Y-154864235D01*
X131157911Y-154866111D01*
X131156248Y-154867000D01*
X130553757Y-154867000D01*
X130552094Y-154866111D01*
X130551909Y-154864235D01*
X130553367Y-154863038D01*
X130633188Y-154847161D01*
X130633188Y-154662839D01*
X130553371Y-154646962D01*
X130551913Y-154645765D01*
X130552098Y-154643889D01*
X130553761Y-154643000D01*
X131156234Y-154643000D01*
X131157897Y-154643889D01*
G37*
G36*
X136107897Y-154143889D02*
G01*
X136108082Y-154145765D01*
X136106624Y-154146962D01*
X136026812Y-154162835D01*
X136026809Y-154347158D01*
X136106638Y-154363038D01*
X136108096Y-154364235D01*
X136107911Y-154366111D01*
X136106248Y-154367000D01*
X135503757Y-154367000D01*
X135502094Y-154366111D01*
X135501909Y-154364235D01*
X135503367Y-154363038D01*
X135583188Y-154347161D01*
X135583188Y-154162839D01*
X135503371Y-154146962D01*
X135501913Y-154145765D01*
X135502098Y-154143889D01*
X135503761Y-154143000D01*
X136106234Y-154143000D01*
X136107897Y-154143889D01*
G37*
G36*
X131157897Y-154143889D02*
G01*
X131158082Y-154145765D01*
X131156624Y-154146962D01*
X131076812Y-154162835D01*
X131076809Y-154347158D01*
X131156638Y-154363038D01*
X131158096Y-154364235D01*
X131157911Y-154366111D01*
X131156248Y-154367000D01*
X130553757Y-154367000D01*
X130552094Y-154366111D01*
X130551909Y-154364235D01*
X130553367Y-154363038D01*
X130633188Y-154347161D01*
X130633188Y-154162839D01*
X130553371Y-154146962D01*
X130551913Y-154145765D01*
X130552098Y-154143889D01*
X130553761Y-154143000D01*
X131156234Y-154143000D01*
X131157897Y-154143889D01*
G37*
G36*
X136107897Y-153643889D02*
G01*
X136108082Y-153645765D01*
X136106624Y-153646962D01*
X136026812Y-153662835D01*
X136026809Y-153847158D01*
X136106638Y-153863038D01*
X136108096Y-153864235D01*
X136107911Y-153866111D01*
X136106248Y-153867000D01*
X135503757Y-153867000D01*
X135502094Y-153866111D01*
X135501909Y-153864235D01*
X135503367Y-153863038D01*
X135583188Y-153847161D01*
X135583188Y-153662839D01*
X135503371Y-153646962D01*
X135501913Y-153645765D01*
X135502098Y-153643889D01*
X135503761Y-153643000D01*
X136106234Y-153643000D01*
X136107897Y-153643889D01*
G37*
G36*
X131157897Y-153643889D02*
G01*
X131158082Y-153645765D01*
X131156624Y-153646962D01*
X131076812Y-153662835D01*
X131076809Y-153847158D01*
X131156638Y-153863038D01*
X131158096Y-153864235D01*
X131157911Y-153866111D01*
X131156248Y-153867000D01*
X130553757Y-153867000D01*
X130552094Y-153866111D01*
X130551909Y-153864235D01*
X130553367Y-153863038D01*
X130633188Y-153847161D01*
X130633188Y-153662839D01*
X130553371Y-153646962D01*
X130551913Y-153645765D01*
X130552098Y-153643889D01*
X130553761Y-153643000D01*
X131156234Y-153643000D01*
X131157897Y-153643889D01*
G37*
G36*
X134941111Y-152477088D02*
G01*
X134942000Y-152478751D01*
X134942000Y-153081240D01*
X134941111Y-153082903D01*
X134939235Y-153083088D01*
X134938038Y-153081630D01*
X134922161Y-153001811D01*
X134737839Y-153001811D01*
X134721962Y-153081628D01*
X134720765Y-153083086D01*
X134718889Y-153082901D01*
X134718000Y-153081238D01*
X134718000Y-152478765D01*
X134718889Y-152477102D01*
X134720765Y-152476917D01*
X134721962Y-152478375D01*
X134737835Y-152558186D01*
X134922158Y-152558189D01*
X134938038Y-152478361D01*
X134939235Y-152476903D01*
X134941111Y-152477088D01*
G37*
G36*
X134441111Y-152477088D02*
G01*
X134442000Y-152478751D01*
X134442000Y-153081240D01*
X134441111Y-153082903D01*
X134439235Y-153083088D01*
X134438038Y-153081630D01*
X134422161Y-153001811D01*
X134237839Y-153001811D01*
X134221962Y-153081628D01*
X134220765Y-153083086D01*
X134218889Y-153082901D01*
X134218000Y-153081238D01*
X134218000Y-152478765D01*
X134218889Y-152477102D01*
X134220765Y-152476917D01*
X134221962Y-152478375D01*
X134237835Y-152558186D01*
X134422158Y-152558189D01*
X134438038Y-152478361D01*
X134439235Y-152476903D01*
X134441111Y-152477088D01*
G37*
G36*
X133941111Y-152477088D02*
G01*
X133942000Y-152478751D01*
X133942000Y-153081240D01*
X133941111Y-153082903D01*
X133939235Y-153083088D01*
X133938038Y-153081630D01*
X133922161Y-153001811D01*
X133737839Y-153001811D01*
X133721962Y-153081628D01*
X133720765Y-153083086D01*
X133718889Y-153082901D01*
X133718000Y-153081238D01*
X133718000Y-152478765D01*
X133718889Y-152477102D01*
X133720765Y-152476917D01*
X133721962Y-152478375D01*
X133737835Y-152558186D01*
X133922158Y-152558189D01*
X133938038Y-152478361D01*
X133939235Y-152476903D01*
X133941111Y-152477088D01*
G37*
G36*
X133441111Y-152477088D02*
G01*
X133442000Y-152478751D01*
X133442000Y-153081240D01*
X133441111Y-153082903D01*
X133439235Y-153083088D01*
X133438038Y-153081630D01*
X133422161Y-153001811D01*
X133237839Y-153001811D01*
X133221962Y-153081628D01*
X133220765Y-153083086D01*
X133218889Y-153082901D01*
X133218000Y-153081238D01*
X133218000Y-152478765D01*
X133218889Y-152477102D01*
X133220765Y-152476917D01*
X133221962Y-152478375D01*
X133237835Y-152558186D01*
X133422158Y-152558189D01*
X133438038Y-152478361D01*
X133439235Y-152476903D01*
X133441111Y-152477088D01*
G37*
G36*
X132941111Y-152477088D02*
G01*
X132942000Y-152478751D01*
X132942000Y-153081240D01*
X132941111Y-153082903D01*
X132939235Y-153083088D01*
X132938038Y-153081630D01*
X132922161Y-153001811D01*
X132737839Y-153001811D01*
X132721962Y-153081628D01*
X132720765Y-153083086D01*
X132718889Y-153082901D01*
X132718000Y-153081238D01*
X132718000Y-152478765D01*
X132718889Y-152477102D01*
X132720765Y-152476917D01*
X132721962Y-152478375D01*
X132737835Y-152558186D01*
X132922158Y-152558189D01*
X132938038Y-152478361D01*
X132939235Y-152476903D01*
X132941111Y-152477088D01*
G37*
G36*
X132441111Y-152477088D02*
G01*
X132442000Y-152478751D01*
X132442000Y-153081240D01*
X132441111Y-153082903D01*
X132439235Y-153083088D01*
X132438038Y-153081630D01*
X132422161Y-153001811D01*
X132237839Y-153001811D01*
X132221962Y-153081628D01*
X132220765Y-153083086D01*
X132218889Y-153082901D01*
X132218000Y-153081238D01*
X132218000Y-152478765D01*
X132218889Y-152477102D01*
X132220765Y-152476917D01*
X132221962Y-152478375D01*
X132237835Y-152558186D01*
X132422158Y-152558189D01*
X132438038Y-152478361D01*
X132439235Y-152476903D01*
X132441111Y-152477088D01*
G37*
G36*
X131941111Y-152477088D02*
G01*
X131942000Y-152478751D01*
X131942000Y-153081240D01*
X131941111Y-153082903D01*
X131939235Y-153083088D01*
X131938038Y-153081630D01*
X131922161Y-153001811D01*
X131737839Y-153001811D01*
X131721962Y-153081628D01*
X131720765Y-153083086D01*
X131718889Y-153082901D01*
X131718000Y-153081238D01*
X131718000Y-152478765D01*
X131718889Y-152477102D01*
X131720765Y-152476917D01*
X131721962Y-152478375D01*
X131737835Y-152558186D01*
X131922158Y-152558189D01*
X131938038Y-152478361D01*
X131939235Y-152476903D01*
X131941111Y-152477088D01*
G37*
G36*
X148290000Y-113403097D02*
G01*
X148291417Y-113403471D01*
X148292099Y-113405107D01*
X148291214Y-113406642D01*
X148256302Y-113429967D01*
X148256297Y-113550018D01*
X148291226Y-113573360D01*
X148292111Y-113574893D01*
X148291433Y-113576528D01*
X148290000Y-113576910D01*
X148290000Y-113577000D01*
X146390000Y-113577000D01*
X146390000Y-113576916D01*
X146388557Y-113576522D01*
X146387886Y-113574889D01*
X146388770Y-113573360D01*
X146423701Y-113550016D01*
X146423696Y-113429970D01*
X146388779Y-113406641D01*
X146387894Y-113405108D01*
X146388572Y-113403473D01*
X146390000Y-113403092D01*
X146390000Y-113403000D01*
X148290000Y-113403000D01*
X148290000Y-113403097D01*
G37*
G36*
X148290000Y-112903097D02*
G01*
X148291417Y-112903471D01*
X148292099Y-112905107D01*
X148291214Y-112906642D01*
X148256302Y-112929967D01*
X148256297Y-113050018D01*
X148291226Y-113073360D01*
X148292111Y-113074893D01*
X148291433Y-113076528D01*
X148290000Y-113076910D01*
X148290000Y-113077000D01*
X146390000Y-113077000D01*
X146390000Y-113076916D01*
X146388557Y-113076522D01*
X146387886Y-113074889D01*
X146388770Y-113073360D01*
X146423701Y-113050016D01*
X146423696Y-112929970D01*
X146388779Y-112906641D01*
X146387894Y-112905108D01*
X146388572Y-112903473D01*
X146390000Y-112903092D01*
X146390000Y-112903000D01*
X148290000Y-112903000D01*
X148290000Y-112903097D01*
G37*
G36*
X148290000Y-112403094D02*
G01*
X148291425Y-112403472D01*
X148292105Y-112405107D01*
X148291220Y-112406641D01*
X148256300Y-112429975D01*
X148256300Y-112550025D01*
X148291221Y-112573359D01*
X148292106Y-112574892D01*
X148291428Y-112576527D01*
X148290000Y-112576908D01*
X148290000Y-112577000D01*
X146390000Y-112577000D01*
X146390000Y-112576916D01*
X146388556Y-112576518D01*
X146387889Y-112574885D01*
X146388773Y-112573359D01*
X146423699Y-112550023D01*
X146423699Y-112429977D01*
X146388775Y-112406640D01*
X146387890Y-112405106D01*
X146388570Y-112403471D01*
X146390000Y-112403092D01*
X146390000Y-112403000D01*
X148290000Y-112403000D01*
X148290000Y-112403094D01*
G37*
G36*
X148290000Y-111903094D02*
G01*
X148291425Y-111903472D01*
X148292105Y-111905107D01*
X148291220Y-111906641D01*
X148256300Y-111929975D01*
X148256300Y-112050025D01*
X148291221Y-112073359D01*
X148292106Y-112074892D01*
X148291428Y-112076527D01*
X148290000Y-112076908D01*
X148290000Y-112077000D01*
X146390000Y-112077000D01*
X146390000Y-112076916D01*
X146388556Y-112076518D01*
X146387889Y-112074885D01*
X146388773Y-112073359D01*
X146423699Y-112050023D01*
X146423699Y-111929977D01*
X146388775Y-111906640D01*
X146387890Y-111905106D01*
X146388570Y-111903471D01*
X146390000Y-111903092D01*
X146390000Y-111903000D01*
X148290000Y-111903000D01*
X148290000Y-111903094D01*
G37*
G36*
X148290000Y-111403097D02*
G01*
X148291417Y-111403471D01*
X148292099Y-111405107D01*
X148291214Y-111406642D01*
X148256302Y-111429967D01*
X148256297Y-111550018D01*
X148291226Y-111573360D01*
X148292111Y-111574893D01*
X148291433Y-111576528D01*
X148290000Y-111576910D01*
X148290000Y-111577000D01*
X146390000Y-111577000D01*
X146390000Y-111576916D01*
X146388557Y-111576522D01*
X146387886Y-111574889D01*
X146388770Y-111573360D01*
X146423701Y-111550016D01*
X146423696Y-111429970D01*
X146388779Y-111406641D01*
X146387894Y-111405108D01*
X146388572Y-111403473D01*
X146390000Y-111403092D01*
X146390000Y-111403000D01*
X148290000Y-111403000D01*
X148290000Y-111403097D01*
G37*
G36*
X148290000Y-110903094D02*
G01*
X148291425Y-110903472D01*
X148292105Y-110905107D01*
X148291220Y-110906641D01*
X148256300Y-110929975D01*
X148256300Y-111050025D01*
X148291221Y-111073359D01*
X148292106Y-111074892D01*
X148291428Y-111076527D01*
X148290000Y-111076908D01*
X148290000Y-111077000D01*
X146390000Y-111077000D01*
X146390000Y-111076916D01*
X146388556Y-111076518D01*
X146387889Y-111074885D01*
X146388773Y-111073359D01*
X146423699Y-111050023D01*
X146423699Y-110929977D01*
X146388775Y-110906640D01*
X146387890Y-110905106D01*
X146388570Y-110903471D01*
X146390000Y-110903092D01*
X146390000Y-110903000D01*
X148290000Y-110903000D01*
X148290000Y-110903094D01*
G37*
G36*
X148290000Y-110403097D02*
G01*
X148291417Y-110403471D01*
X148292099Y-110405107D01*
X148291214Y-110406642D01*
X148256302Y-110429967D01*
X148256297Y-110550018D01*
X148291226Y-110573360D01*
X148292111Y-110574893D01*
X148291433Y-110576528D01*
X148290000Y-110576910D01*
X148290000Y-110577000D01*
X146390000Y-110577000D01*
X146390000Y-110576916D01*
X146388557Y-110576522D01*
X146387886Y-110574889D01*
X146388770Y-110573360D01*
X146423701Y-110550016D01*
X146423696Y-110429970D01*
X146388779Y-110406641D01*
X146387894Y-110405108D01*
X146388572Y-110403473D01*
X146390000Y-110403092D01*
X146390000Y-110403000D01*
X148290000Y-110403000D01*
X148290000Y-110403097D01*
G37*
G36*
X148290000Y-109903094D02*
G01*
X148291425Y-109903472D01*
X148292105Y-109905107D01*
X148291220Y-109906641D01*
X148256300Y-109929975D01*
X148256300Y-110050025D01*
X148291221Y-110073359D01*
X148292106Y-110074892D01*
X148291428Y-110076527D01*
X148290000Y-110076908D01*
X148290000Y-110077000D01*
X146390000Y-110077000D01*
X146390000Y-110076916D01*
X146388556Y-110076518D01*
X146387889Y-110074885D01*
X146388773Y-110073359D01*
X146423699Y-110050023D01*
X146423699Y-109929977D01*
X146388775Y-109906640D01*
X146387890Y-109905106D01*
X146388570Y-109903471D01*
X146390000Y-109903092D01*
X146390000Y-109903000D01*
X148290000Y-109903000D01*
X148290000Y-109903094D01*
G37*
G36*
X148290000Y-109403094D02*
G01*
X148291425Y-109403472D01*
X148292105Y-109405107D01*
X148291220Y-109406641D01*
X148256300Y-109429975D01*
X148256300Y-109550025D01*
X148291221Y-109573359D01*
X148292106Y-109574892D01*
X148291428Y-109576527D01*
X148290000Y-109576908D01*
X148290000Y-109577000D01*
X146390000Y-109577000D01*
X146390000Y-109576916D01*
X146388556Y-109576518D01*
X146387889Y-109574885D01*
X146388773Y-109573359D01*
X146423699Y-109550023D01*
X146423699Y-109429977D01*
X146388775Y-109406640D01*
X146387890Y-109405106D01*
X146388570Y-109403471D01*
X146390000Y-109403092D01*
X146390000Y-109403000D01*
X148290000Y-109403000D01*
X148290000Y-109403094D01*
G37*
G36*
X148290000Y-108903094D02*
G01*
X148291425Y-108903472D01*
X148292105Y-108905107D01*
X148291220Y-108906641D01*
X148256300Y-108929975D01*
X148256300Y-109050025D01*
X148291221Y-109073359D01*
X148292106Y-109074892D01*
X148291428Y-109076527D01*
X148290000Y-109076908D01*
X148290000Y-109077000D01*
X146390000Y-109077000D01*
X146390000Y-109076916D01*
X146388556Y-109076518D01*
X146387889Y-109074885D01*
X146388773Y-109073359D01*
X146423699Y-109050023D01*
X146423699Y-108929977D01*
X146388775Y-108906640D01*
X146387890Y-108905106D01*
X146388570Y-108903471D01*
X146390000Y-108903092D01*
X146390000Y-108903000D01*
X148290000Y-108903000D01*
X148290000Y-108903094D01*
G37*
G36*
X148290000Y-108403094D02*
G01*
X148291425Y-108403472D01*
X148292105Y-108405107D01*
X148291220Y-108406641D01*
X148256300Y-108429975D01*
X148256300Y-108550025D01*
X148291221Y-108573359D01*
X148292106Y-108574892D01*
X148291428Y-108576527D01*
X148290000Y-108576908D01*
X148290000Y-108577000D01*
X146390000Y-108577000D01*
X146390000Y-108576916D01*
X146388556Y-108576518D01*
X146387889Y-108574885D01*
X146388773Y-108573359D01*
X146423699Y-108550023D01*
X146423699Y-108429977D01*
X146388775Y-108406640D01*
X146387890Y-108405106D01*
X146388570Y-108403471D01*
X146390000Y-108403092D01*
X146390000Y-108403000D01*
X148290000Y-108403000D01*
X148290000Y-108403094D01*
G37*
G36*
X148290000Y-107903097D02*
G01*
X148291417Y-107903471D01*
X148292099Y-107905107D01*
X148291214Y-107906642D01*
X148256302Y-107929967D01*
X148256297Y-108050018D01*
X148291226Y-108073360D01*
X148292111Y-108074893D01*
X148291433Y-108076528D01*
X148290000Y-108076910D01*
X148290000Y-108077000D01*
X146390000Y-108077000D01*
X146390000Y-108076916D01*
X146388557Y-108076522D01*
X146387886Y-108074889D01*
X146388770Y-108073360D01*
X146423701Y-108050016D01*
X146423696Y-107929970D01*
X146388779Y-107906641D01*
X146387894Y-107905108D01*
X146388572Y-107903473D01*
X146390000Y-107903092D01*
X146390000Y-107903000D01*
X148290000Y-107903000D01*
X148290000Y-107903097D01*
G37*
G36*
X148290000Y-107403097D02*
G01*
X148291417Y-107403471D01*
X148292099Y-107405107D01*
X148291214Y-107406642D01*
X148256302Y-107429967D01*
X148256297Y-107550018D01*
X148291226Y-107573360D01*
X148292111Y-107574893D01*
X148291433Y-107576528D01*
X148290000Y-107576910D01*
X148290000Y-107577000D01*
X146390000Y-107577000D01*
X146390000Y-107576916D01*
X146388557Y-107576522D01*
X146387886Y-107574889D01*
X146388770Y-107573360D01*
X146423701Y-107550016D01*
X146423696Y-107429970D01*
X146388779Y-107406641D01*
X146387894Y-107405108D01*
X146388572Y-107403473D01*
X146390000Y-107403092D01*
X146390000Y-107403000D01*
X148290000Y-107403000D01*
X148290000Y-107403097D01*
G37*
G36*
X148290000Y-106903094D02*
G01*
X148291425Y-106903472D01*
X148292105Y-106905107D01*
X148291220Y-106906641D01*
X148256300Y-106929975D01*
X148256300Y-107050025D01*
X148291221Y-107073359D01*
X148292106Y-107074892D01*
X148291428Y-107076527D01*
X148290000Y-107076908D01*
X148290000Y-107077000D01*
X146390000Y-107077000D01*
X146390000Y-107076916D01*
X146388556Y-107076518D01*
X146387889Y-107074885D01*
X146388773Y-107073359D01*
X146423699Y-107050023D01*
X146423699Y-106929977D01*
X146388775Y-106906640D01*
X146387890Y-106905106D01*
X146388570Y-106903471D01*
X146390000Y-106903092D01*
X146390000Y-106903000D01*
X148290000Y-106903000D01*
X148290000Y-106903094D01*
G37*
G36*
X148290000Y-106403094D02*
G01*
X148291425Y-106403472D01*
X148292105Y-106405107D01*
X148291220Y-106406641D01*
X148256300Y-106429975D01*
X148256300Y-106550025D01*
X148291221Y-106573359D01*
X148292106Y-106574892D01*
X148291428Y-106576527D01*
X148290000Y-106576908D01*
X148290000Y-106577000D01*
X146390000Y-106577000D01*
X146390000Y-106576916D01*
X146388556Y-106576518D01*
X146387889Y-106574885D01*
X146388773Y-106573359D01*
X146423699Y-106550023D01*
X146423699Y-106429977D01*
X146388775Y-106406640D01*
X146387890Y-106405106D01*
X146388570Y-106403471D01*
X146390000Y-106403092D01*
X146390000Y-106403000D01*
X148290000Y-106403000D01*
X148290000Y-106403094D01*
G37*
G36*
X148290000Y-105903097D02*
G01*
X148291417Y-105903471D01*
X148292099Y-105905107D01*
X148291214Y-105906642D01*
X148256302Y-105929967D01*
X148256297Y-106050018D01*
X148291226Y-106073360D01*
X148292111Y-106074893D01*
X148291433Y-106076528D01*
X148290000Y-106076910D01*
X148290000Y-106077000D01*
X146390000Y-106077000D01*
X146390000Y-106076916D01*
X146388556Y-106076518D01*
X146387889Y-106074885D01*
X146388773Y-106073359D01*
X146423699Y-106050023D01*
X146423699Y-105929977D01*
X146388775Y-105906640D01*
X146387890Y-105905106D01*
X146388570Y-105903471D01*
X146390000Y-105903092D01*
X146390000Y-105903000D01*
X148290000Y-105903000D01*
X148290000Y-105903097D01*
G37*
G36*
X148290000Y-105403094D02*
G01*
X148291425Y-105403472D01*
X148292105Y-105405107D01*
X148291220Y-105406641D01*
X148256300Y-105429975D01*
X148256300Y-105550025D01*
X148291221Y-105573359D01*
X148292106Y-105574892D01*
X148291428Y-105576527D01*
X148290000Y-105576908D01*
X148290000Y-105577000D01*
X146390000Y-105577000D01*
X146390000Y-105576916D01*
X146388556Y-105576518D01*
X146387889Y-105574885D01*
X146388773Y-105573359D01*
X146423699Y-105550023D01*
X146423699Y-105429977D01*
X146388775Y-105406640D01*
X146387890Y-105405106D01*
X146388570Y-105403471D01*
X146390000Y-105403092D01*
X146390000Y-105403000D01*
X148290000Y-105403000D01*
X148290000Y-105403094D01*
G37*
G36*
X148290000Y-104903097D02*
G01*
X148291417Y-104903471D01*
X148292099Y-104905107D01*
X148291214Y-104906642D01*
X148256302Y-104929967D01*
X148256297Y-105050018D01*
X148291226Y-105073360D01*
X148292111Y-105074893D01*
X148291433Y-105076528D01*
X148290000Y-105076910D01*
X148290000Y-105077000D01*
X146390000Y-105077000D01*
X146390000Y-105076916D01*
X146388557Y-105076522D01*
X146387886Y-105074889D01*
X146388770Y-105073360D01*
X146423701Y-105050016D01*
X146423696Y-104929970D01*
X146388779Y-104906641D01*
X146387894Y-104905108D01*
X146388572Y-104903473D01*
X146390000Y-104903092D01*
X146390000Y-104903000D01*
X148290000Y-104903000D01*
X148290000Y-104903097D01*
G37*
G36*
X108201111Y-92329588D02*
G01*
X108202000Y-92331251D01*
X108202000Y-93008740D01*
X108201111Y-93010403D01*
X108199235Y-93010588D01*
X108198038Y-93009130D01*
X108182161Y-92929311D01*
X107997839Y-92929311D01*
X107981962Y-93009128D01*
X107980765Y-93010586D01*
X107978889Y-93010401D01*
X107978000Y-93008738D01*
X107978000Y-92331265D01*
X107978889Y-92329602D01*
X107980765Y-92329417D01*
X107981962Y-92330875D01*
X107997835Y-92410686D01*
X108182158Y-92410689D01*
X108198038Y-92330861D01*
X108199235Y-92329403D01*
X108201111Y-92329588D01*
G37*
G36*
X107701111Y-92329588D02*
G01*
X107702000Y-92331251D01*
X107702000Y-93008740D01*
X107701111Y-93010403D01*
X107699235Y-93010588D01*
X107698038Y-93009130D01*
X107682161Y-92929311D01*
X107497839Y-92929311D01*
X107481962Y-93009128D01*
X107480765Y-93010586D01*
X107478889Y-93010401D01*
X107478000Y-93008738D01*
X107478000Y-92331265D01*
X107478889Y-92329602D01*
X107480765Y-92329417D01*
X107481962Y-92330875D01*
X107497835Y-92410686D01*
X107682158Y-92410689D01*
X107698038Y-92330861D01*
X107699235Y-92329403D01*
X107701111Y-92329588D01*
G37*
G36*
X107201111Y-92329588D02*
G01*
X107202000Y-92331251D01*
X107202000Y-93008740D01*
X107201111Y-93010403D01*
X107199235Y-93010588D01*
X107198038Y-93009130D01*
X107182161Y-92929311D01*
X106997839Y-92929311D01*
X106981962Y-93009128D01*
X106980765Y-93010586D01*
X106978889Y-93010401D01*
X106978000Y-93008738D01*
X106978000Y-92331265D01*
X106978889Y-92329602D01*
X106980765Y-92329417D01*
X106981962Y-92330875D01*
X106997835Y-92410686D01*
X107182158Y-92410689D01*
X107198038Y-92330861D01*
X107199235Y-92329403D01*
X107201111Y-92329588D01*
G37*
G36*
X108430000Y-92060597D02*
G01*
X108431419Y-92060969D01*
X108432103Y-92062605D01*
X108431218Y-92064141D01*
X108383466Y-92096047D01*
X108383465Y-92216098D01*
X108427641Y-92245616D01*
X108428526Y-92247148D01*
X108427849Y-92248783D01*
X108426140Y-92249241D01*
X108402301Y-92244500D01*
X108277699Y-92244500D01*
X108253853Y-92249242D01*
X108252144Y-92248784D01*
X108251467Y-92247149D01*
X108252352Y-92245617D01*
X108284861Y-92223894D01*
X108236075Y-92063081D01*
X108236383Y-92061309D01*
X108237989Y-92060500D01*
X108430000Y-92060500D01*
X108430000Y-92060597D01*
G37*
G36*
X107943615Y-92061309D02*
G01*
X107943923Y-92063081D01*
X107895137Y-92223898D01*
X107927641Y-92245616D01*
X107928526Y-92247148D01*
X107927849Y-92248783D01*
X107926140Y-92249241D01*
X107902301Y-92244500D01*
X107777699Y-92244500D01*
X107753853Y-92249242D01*
X107752144Y-92248784D01*
X107751467Y-92247149D01*
X107752352Y-92245617D01*
X107784861Y-92223894D01*
X107736075Y-92063081D01*
X107736383Y-92061309D01*
X107737989Y-92060500D01*
X107942009Y-92060500D01*
X107943615Y-92061309D01*
G37*
G36*
X107443615Y-92061309D02*
G01*
X107443923Y-92063081D01*
X107395137Y-92223898D01*
X107427641Y-92245616D01*
X107428526Y-92247148D01*
X107427849Y-92248783D01*
X107426140Y-92249241D01*
X107402301Y-92244500D01*
X107277699Y-92244500D01*
X107253853Y-92249242D01*
X107252144Y-92248784D01*
X107251467Y-92247149D01*
X107252352Y-92245617D01*
X107284861Y-92223894D01*
X107236075Y-92063081D01*
X107236383Y-92061309D01*
X107237989Y-92060500D01*
X107442009Y-92060500D01*
X107443615Y-92061309D01*
G37*
G36*
X106943617Y-92061309D02*
G01*
X106943925Y-92063081D01*
X106895138Y-92223894D01*
X106927646Y-92245617D01*
X106928531Y-92247149D01*
X106927854Y-92248784D01*
X106926145Y-92249242D01*
X106902301Y-92244500D01*
X106777699Y-92244500D01*
X106753857Y-92249242D01*
X106752148Y-92248784D01*
X106751471Y-92247149D01*
X106752356Y-92245617D01*
X106796533Y-92216098D01*
X106796532Y-92096049D01*
X106748779Y-92064141D01*
X106747894Y-92062608D01*
X106748572Y-92060973D01*
X106750000Y-92060592D01*
X106750000Y-92060500D01*
X106942011Y-92060500D01*
X106943617Y-92061309D01*
G37*
G36*
X106736519Y-90366059D02*
G01*
X106736914Y-90367500D01*
X106737000Y-90367500D01*
X106737000Y-92047500D01*
X106736910Y-92047500D01*
X106736524Y-92048933D01*
X106734890Y-92049608D01*
X106733359Y-92048723D01*
X106701448Y-92000966D01*
X106581399Y-92000966D01*
X106551884Y-92045137D01*
X106550352Y-92046022D01*
X106548717Y-92045345D01*
X106548259Y-92043636D01*
X106553000Y-92019801D01*
X106553000Y-91895199D01*
X106548259Y-91871365D01*
X106548717Y-91869656D01*
X106550352Y-91868979D01*
X106551884Y-91869864D01*
X106573597Y-91902361D01*
X106733000Y-91854007D01*
X106733000Y-91560990D01*
X106573593Y-91512638D01*
X106551885Y-91545131D01*
X106550353Y-91546016D01*
X106548718Y-91545339D01*
X106548260Y-91543630D01*
X106553000Y-91519801D01*
X106553000Y-91395199D01*
X106548259Y-91371365D01*
X106548717Y-91369656D01*
X106550352Y-91368979D01*
X106551884Y-91369864D01*
X106573597Y-91402361D01*
X106733000Y-91354007D01*
X106733000Y-91060990D01*
X106573593Y-91012638D01*
X106551885Y-91045131D01*
X106550353Y-91046016D01*
X106548718Y-91045339D01*
X106548260Y-91043630D01*
X106553000Y-91019801D01*
X106553000Y-90895199D01*
X106548259Y-90871365D01*
X106548717Y-90869656D01*
X106550352Y-90868979D01*
X106551884Y-90869864D01*
X106573597Y-90902361D01*
X106733000Y-90854007D01*
X106733000Y-90560993D01*
X106573597Y-90512638D01*
X106551884Y-90545134D01*
X106550352Y-90546019D01*
X106548717Y-90545342D01*
X106548259Y-90543633D01*
X106553000Y-90519801D01*
X106553000Y-90395199D01*
X106548258Y-90371361D01*
X106548716Y-90369652D01*
X106550351Y-90368975D01*
X106551883Y-90369860D01*
X106581398Y-90414032D01*
X106701446Y-90414033D01*
X106733359Y-90366274D01*
X106734886Y-90365390D01*
X106736519Y-90366059D01*
G37*
G36*
X108606389Y-91902361D02*
G01*
X108628119Y-91869846D01*
X108629651Y-91868961D01*
X108631286Y-91869638D01*
X108631744Y-91871347D01*
X108627000Y-91895199D01*
X108627000Y-92019801D01*
X108631741Y-92043640D01*
X108631283Y-92045349D01*
X108629648Y-92046026D01*
X108628116Y-92045141D01*
X108598598Y-92000965D01*
X108478547Y-92000966D01*
X108446641Y-92048718D01*
X108445105Y-92049603D01*
X108443469Y-92048919D01*
X108443097Y-92047500D01*
X108443000Y-92047500D01*
X108443000Y-91855486D01*
X108443809Y-91853880D01*
X108445581Y-91853572D01*
X108606389Y-91902361D01*
G37*
G36*
X109392897Y-91596389D02*
G01*
X109393082Y-91598265D01*
X109391624Y-91599462D01*
X109311812Y-91615335D01*
X109311809Y-91799658D01*
X109391638Y-91815538D01*
X109393096Y-91816735D01*
X109392911Y-91818611D01*
X109391248Y-91819500D01*
X108713757Y-91819500D01*
X108712094Y-91818611D01*
X108711909Y-91816735D01*
X108713367Y-91815538D01*
X108793188Y-91799661D01*
X108793188Y-91615339D01*
X108713371Y-91599462D01*
X108711913Y-91598265D01*
X108712098Y-91596389D01*
X108713761Y-91595500D01*
X109391234Y-91595500D01*
X109392897Y-91596389D01*
G37*
G36*
X106467897Y-91596389D02*
G01*
X106468082Y-91598265D01*
X106466624Y-91599462D01*
X106386812Y-91615335D01*
X106386809Y-91799658D01*
X106466638Y-91815538D01*
X106468096Y-91816735D01*
X106467911Y-91818611D01*
X106466248Y-91819500D01*
X105788757Y-91819500D01*
X105787094Y-91818611D01*
X105786909Y-91816735D01*
X105788367Y-91815538D01*
X105868188Y-91799661D01*
X105868188Y-91615339D01*
X105788371Y-91599462D01*
X105786913Y-91598265D01*
X105787098Y-91596389D01*
X105788761Y-91595500D01*
X106466234Y-91595500D01*
X106467897Y-91596389D01*
G37*
G36*
X108606394Y-91402361D02*
G01*
X108628117Y-91369852D01*
X108629649Y-91368967D01*
X108631284Y-91369644D01*
X108631742Y-91371353D01*
X108627000Y-91395199D01*
X108627000Y-91519801D01*
X108631741Y-91543640D01*
X108631283Y-91545349D01*
X108629648Y-91546026D01*
X108628116Y-91545141D01*
X108606398Y-91512637D01*
X108445581Y-91561423D01*
X108443809Y-91561115D01*
X108443000Y-91559509D01*
X108443000Y-91355489D01*
X108443809Y-91353883D01*
X108445581Y-91353575D01*
X108606394Y-91402361D01*
G37*
G36*
X109392897Y-91096389D02*
G01*
X109393082Y-91098265D01*
X109391624Y-91099462D01*
X109311812Y-91115335D01*
X109311809Y-91299658D01*
X109391638Y-91315538D01*
X109393096Y-91316735D01*
X109392911Y-91318611D01*
X109391248Y-91319500D01*
X108713757Y-91319500D01*
X108712094Y-91318611D01*
X108711909Y-91316735D01*
X108713367Y-91315538D01*
X108793188Y-91299661D01*
X108793188Y-91115339D01*
X108713371Y-91099462D01*
X108711913Y-91098265D01*
X108712098Y-91096389D01*
X108713761Y-91095500D01*
X109391234Y-91095500D01*
X109392897Y-91096389D01*
G37*
G36*
X106467897Y-91096389D02*
G01*
X106468082Y-91098265D01*
X106466624Y-91099462D01*
X106386812Y-91115335D01*
X106386809Y-91299658D01*
X106466638Y-91315538D01*
X106468096Y-91316735D01*
X106467911Y-91318611D01*
X106466248Y-91319500D01*
X105788757Y-91319500D01*
X105787094Y-91318611D01*
X105786909Y-91316735D01*
X105788367Y-91315538D01*
X105868188Y-91299661D01*
X105868188Y-91115339D01*
X105788371Y-91099462D01*
X105786913Y-91098265D01*
X105787098Y-91096389D01*
X105788761Y-91095500D01*
X106466234Y-91095500D01*
X106467897Y-91096389D01*
G37*
G36*
X135681518Y-90023556D02*
G01*
X135681916Y-90025000D01*
X135682000Y-90025000D01*
X135682000Y-91125000D01*
X135681908Y-91125000D01*
X135681527Y-91126428D01*
X135679892Y-91127106D01*
X135678359Y-91126221D01*
X135655025Y-91091300D01*
X135534975Y-91091300D01*
X135511641Y-91126220D01*
X135510107Y-91127105D01*
X135508472Y-91126425D01*
X135508094Y-91125000D01*
X135508000Y-91125000D01*
X135508000Y-90025000D01*
X135508092Y-90025000D01*
X135508471Y-90023570D01*
X135510106Y-90022890D01*
X135511640Y-90023775D01*
X135534977Y-90058699D01*
X135655023Y-90058699D01*
X135678359Y-90023773D01*
X135679885Y-90022889D01*
X135681518Y-90023556D01*
G37*
G36*
X135181518Y-90023556D02*
G01*
X135181916Y-90025000D01*
X135182000Y-90025000D01*
X135182000Y-91125000D01*
X135181908Y-91125000D01*
X135181527Y-91126428D01*
X135179892Y-91127106D01*
X135178359Y-91126221D01*
X135155025Y-91091300D01*
X135034975Y-91091300D01*
X135011641Y-91126220D01*
X135010107Y-91127105D01*
X135008472Y-91126425D01*
X135008094Y-91125000D01*
X135008000Y-91125000D01*
X135008000Y-90025000D01*
X135008092Y-90025000D01*
X135008471Y-90023570D01*
X135010106Y-90022890D01*
X135011640Y-90023775D01*
X135034977Y-90058699D01*
X135155023Y-90058699D01*
X135178359Y-90023773D01*
X135179885Y-90022889D01*
X135181518Y-90023556D01*
G37*
G36*
X134681518Y-90023556D02*
G01*
X134681916Y-90025000D01*
X134682000Y-90025000D01*
X134682000Y-91125000D01*
X134681908Y-91125000D01*
X134681527Y-91126428D01*
X134679892Y-91127106D01*
X134678359Y-91126221D01*
X134655025Y-91091300D01*
X134534975Y-91091300D01*
X134511641Y-91126220D01*
X134510107Y-91127105D01*
X134508472Y-91126425D01*
X134508094Y-91125000D01*
X134508000Y-91125000D01*
X134508000Y-90025000D01*
X134508092Y-90025000D01*
X134508471Y-90023570D01*
X134510106Y-90022890D01*
X134511640Y-90023775D01*
X134534977Y-90058699D01*
X134655023Y-90058699D01*
X134678359Y-90023773D01*
X134679885Y-90022889D01*
X134681518Y-90023556D01*
G37*
G36*
X134181518Y-90023556D02*
G01*
X134181916Y-90025000D01*
X134182000Y-90025000D01*
X134182000Y-91125000D01*
X134181908Y-91125000D01*
X134181527Y-91126428D01*
X134179892Y-91127106D01*
X134178359Y-91126221D01*
X134155025Y-91091300D01*
X134034975Y-91091300D01*
X134011641Y-91126220D01*
X134010107Y-91127105D01*
X134008472Y-91126425D01*
X134008094Y-91125000D01*
X134008000Y-91125000D01*
X134008000Y-90025000D01*
X134008092Y-90025000D01*
X134008471Y-90023570D01*
X134010106Y-90022890D01*
X134011640Y-90023775D01*
X134034977Y-90058699D01*
X134155023Y-90058699D01*
X134178359Y-90023773D01*
X134179885Y-90022889D01*
X134181518Y-90023556D01*
G37*
G36*
X133681518Y-90023556D02*
G01*
X133681916Y-90025000D01*
X133682000Y-90025000D01*
X133682000Y-91125000D01*
X133681908Y-91125000D01*
X133681527Y-91126428D01*
X133679892Y-91127106D01*
X133678359Y-91126221D01*
X133655025Y-91091300D01*
X133534975Y-91091300D01*
X133511641Y-91126220D01*
X133510107Y-91127105D01*
X133508472Y-91126425D01*
X133508094Y-91125000D01*
X133508000Y-91125000D01*
X133508000Y-90025000D01*
X133508092Y-90025000D01*
X133508471Y-90023570D01*
X133510106Y-90022890D01*
X133511640Y-90023775D01*
X133534977Y-90058699D01*
X133655023Y-90058699D01*
X133678359Y-90023773D01*
X133679885Y-90022889D01*
X133681518Y-90023556D01*
G37*
G36*
X133181518Y-90023556D02*
G01*
X133181916Y-90025000D01*
X133182000Y-90025000D01*
X133182000Y-91125000D01*
X133181908Y-91125000D01*
X133181527Y-91126428D01*
X133179892Y-91127106D01*
X133178359Y-91126221D01*
X133155025Y-91091300D01*
X133034975Y-91091300D01*
X133011641Y-91126220D01*
X133010107Y-91127105D01*
X133008472Y-91126425D01*
X133008094Y-91125000D01*
X133008000Y-91125000D01*
X133008000Y-90025000D01*
X133008092Y-90025000D01*
X133008471Y-90023570D01*
X133010106Y-90022890D01*
X133011640Y-90023775D01*
X133034977Y-90058699D01*
X133155023Y-90058699D01*
X133178359Y-90023773D01*
X133179885Y-90022889D01*
X133181518Y-90023556D01*
G37*
G36*
X132681518Y-90023556D02*
G01*
X132681916Y-90025000D01*
X132682000Y-90025000D01*
X132682000Y-91125000D01*
X132681908Y-91125000D01*
X132681527Y-91126428D01*
X132679892Y-91127106D01*
X132678359Y-91126221D01*
X132655025Y-91091300D01*
X132534975Y-91091300D01*
X132511641Y-91126220D01*
X132510107Y-91127105D01*
X132508472Y-91126425D01*
X132508094Y-91125000D01*
X132508000Y-91125000D01*
X132508000Y-90025000D01*
X132508092Y-90025000D01*
X132508471Y-90023570D01*
X132510106Y-90022890D01*
X132511640Y-90023775D01*
X132534977Y-90058699D01*
X132655023Y-90058699D01*
X132678359Y-90023773D01*
X132679885Y-90022889D01*
X132681518Y-90023556D01*
G37*
G36*
X132181518Y-90023556D02*
G01*
X132181916Y-90025000D01*
X132182000Y-90025000D01*
X132182000Y-91125000D01*
X132181908Y-91125000D01*
X132181527Y-91126428D01*
X132179892Y-91127106D01*
X132178359Y-91126221D01*
X132155025Y-91091300D01*
X132034975Y-91091300D01*
X132011641Y-91126220D01*
X132010107Y-91127105D01*
X132008472Y-91126425D01*
X132008094Y-91125000D01*
X132008000Y-91125000D01*
X132008000Y-90025000D01*
X132008092Y-90025000D01*
X132008471Y-90023570D01*
X132010106Y-90022890D01*
X132011640Y-90023775D01*
X132034977Y-90058699D01*
X132155023Y-90058699D01*
X132178359Y-90023773D01*
X132179885Y-90022889D01*
X132181518Y-90023556D01*
G37*
G36*
X131681518Y-90023556D02*
G01*
X131681916Y-90025000D01*
X131682000Y-90025000D01*
X131682000Y-91125000D01*
X131681908Y-91125000D01*
X131681527Y-91126428D01*
X131679892Y-91127106D01*
X131678359Y-91126221D01*
X131655025Y-91091300D01*
X131534975Y-91091300D01*
X131511641Y-91126220D01*
X131510107Y-91127105D01*
X131508472Y-91126425D01*
X131508094Y-91125000D01*
X131508000Y-91125000D01*
X131508000Y-90025000D01*
X131508092Y-90025000D01*
X131508471Y-90023570D01*
X131510106Y-90022890D01*
X131511640Y-90023775D01*
X131534977Y-90058699D01*
X131655023Y-90058699D01*
X131678359Y-90023773D01*
X131679885Y-90022889D01*
X131681518Y-90023556D01*
G37*
G36*
X131181518Y-90023556D02*
G01*
X131181916Y-90025000D01*
X131182000Y-90025000D01*
X131182000Y-91125000D01*
X131181908Y-91125000D01*
X131181527Y-91126428D01*
X131179892Y-91127106D01*
X131178359Y-91126221D01*
X131155025Y-91091300D01*
X131034975Y-91091300D01*
X131011641Y-91126220D01*
X131010107Y-91127105D01*
X131008472Y-91126425D01*
X131008094Y-91125000D01*
X131008000Y-91125000D01*
X131008000Y-90025000D01*
X131008092Y-90025000D01*
X131008471Y-90023570D01*
X131010106Y-90022890D01*
X131011640Y-90023775D01*
X131034977Y-90058699D01*
X131155023Y-90058699D01*
X131178359Y-90023773D01*
X131179885Y-90022889D01*
X131181518Y-90023556D01*
G37*
G36*
X130681518Y-90023556D02*
G01*
X130681916Y-90025000D01*
X130682000Y-90025000D01*
X130682000Y-91125000D01*
X130681908Y-91125000D01*
X130681527Y-91126428D01*
X130679892Y-91127106D01*
X130678359Y-91126221D01*
X130655025Y-91091300D01*
X130534975Y-91091300D01*
X130511641Y-91126220D01*
X130510107Y-91127105D01*
X130508472Y-91126425D01*
X130508094Y-91125000D01*
X130508000Y-91125000D01*
X130508000Y-90025000D01*
X130508092Y-90025000D01*
X130508471Y-90023570D01*
X130510106Y-90022890D01*
X130511640Y-90023775D01*
X130534977Y-90058699D01*
X130655023Y-90058699D01*
X130678359Y-90023773D01*
X130679885Y-90022889D01*
X130681518Y-90023556D01*
G37*
G36*
X130181518Y-90023556D02*
G01*
X130181916Y-90025000D01*
X130182000Y-90025000D01*
X130182000Y-91125000D01*
X130181908Y-91125000D01*
X130181527Y-91126428D01*
X130179892Y-91127106D01*
X130178359Y-91126221D01*
X130155025Y-91091300D01*
X130034975Y-91091300D01*
X130011641Y-91126220D01*
X130010107Y-91127105D01*
X130008472Y-91126425D01*
X130008094Y-91125000D01*
X130008000Y-91125000D01*
X130008000Y-90025000D01*
X130008092Y-90025000D01*
X130008471Y-90023570D01*
X130010106Y-90022890D01*
X130011640Y-90023775D01*
X130034977Y-90058699D01*
X130155023Y-90058699D01*
X130178359Y-90023773D01*
X130179885Y-90022889D01*
X130181518Y-90023556D01*
G37*
G36*
X129681518Y-90023556D02*
G01*
X129681916Y-90025000D01*
X129682000Y-90025000D01*
X129682000Y-91125000D01*
X129681908Y-91125000D01*
X129681527Y-91126428D01*
X129679892Y-91127106D01*
X129678359Y-91126221D01*
X129655025Y-91091300D01*
X129534975Y-91091300D01*
X129511641Y-91126220D01*
X129510107Y-91127105D01*
X129508472Y-91126425D01*
X129508094Y-91125000D01*
X129508000Y-91125000D01*
X129508000Y-90025000D01*
X129508092Y-90025000D01*
X129508471Y-90023570D01*
X129510106Y-90022890D01*
X129511640Y-90023775D01*
X129534977Y-90058699D01*
X129655023Y-90058699D01*
X129678359Y-90023773D01*
X129679885Y-90022889D01*
X129681518Y-90023556D01*
G37*
G36*
X129181518Y-90023556D02*
G01*
X129181916Y-90025000D01*
X129182000Y-90025000D01*
X129182000Y-91125000D01*
X129181908Y-91125000D01*
X129181527Y-91126428D01*
X129179892Y-91127106D01*
X129178359Y-91126221D01*
X129155025Y-91091300D01*
X129034975Y-91091300D01*
X129011641Y-91126220D01*
X129010107Y-91127105D01*
X129008472Y-91126425D01*
X129008094Y-91125000D01*
X129008000Y-91125000D01*
X129008000Y-90025000D01*
X129008092Y-90025000D01*
X129008471Y-90023570D01*
X129010106Y-90022890D01*
X129011640Y-90023775D01*
X129034977Y-90058699D01*
X129155023Y-90058699D01*
X129178359Y-90023773D01*
X129179885Y-90022889D01*
X129181518Y-90023556D01*
G37*
G36*
X128681518Y-90023556D02*
G01*
X128681916Y-90025000D01*
X128682000Y-90025000D01*
X128682000Y-91125000D01*
X128681908Y-91125000D01*
X128681527Y-91126428D01*
X128679892Y-91127106D01*
X128678359Y-91126221D01*
X128655025Y-91091300D01*
X128534975Y-91091300D01*
X128511641Y-91126220D01*
X128510107Y-91127105D01*
X128508472Y-91126425D01*
X128508094Y-91125000D01*
X128508000Y-91125000D01*
X128508000Y-90025000D01*
X128508092Y-90025000D01*
X128508471Y-90023570D01*
X128510106Y-90022890D01*
X128511640Y-90023775D01*
X128534977Y-90058699D01*
X128655023Y-90058699D01*
X128678359Y-90023773D01*
X128679885Y-90022889D01*
X128681518Y-90023556D01*
G37*
G36*
X128181518Y-90023556D02*
G01*
X128181916Y-90025000D01*
X128182000Y-90025000D01*
X128182000Y-91125000D01*
X128181908Y-91125000D01*
X128181527Y-91126428D01*
X128179892Y-91127106D01*
X128178359Y-91126221D01*
X128155025Y-91091300D01*
X128034975Y-91091300D01*
X128011641Y-91126220D01*
X128010107Y-91127105D01*
X128008472Y-91126425D01*
X128008094Y-91125000D01*
X128008000Y-91125000D01*
X128008000Y-90025000D01*
X128008092Y-90025000D01*
X128008471Y-90023570D01*
X128010106Y-90022890D01*
X128011640Y-90023775D01*
X128034977Y-90058699D01*
X128155023Y-90058699D01*
X128178359Y-90023773D01*
X128179885Y-90022889D01*
X128181518Y-90023556D01*
G37*
G36*
X127681518Y-90023556D02*
G01*
X127681916Y-90025000D01*
X127682000Y-90025000D01*
X127682000Y-91125000D01*
X127681908Y-91125000D01*
X127681527Y-91126428D01*
X127679892Y-91127106D01*
X127678359Y-91126221D01*
X127655025Y-91091300D01*
X127534975Y-91091300D01*
X127511641Y-91126220D01*
X127510107Y-91127105D01*
X127508472Y-91126425D01*
X127508094Y-91125000D01*
X127508000Y-91125000D01*
X127508000Y-90025000D01*
X127508092Y-90025000D01*
X127508471Y-90023570D01*
X127510106Y-90022890D01*
X127511640Y-90023775D01*
X127534977Y-90058699D01*
X127655023Y-90058699D01*
X127678359Y-90023773D01*
X127679885Y-90022889D01*
X127681518Y-90023556D01*
G37*
G36*
X127181518Y-90023556D02*
G01*
X127181916Y-90025000D01*
X127182000Y-90025000D01*
X127182000Y-91125000D01*
X127181908Y-91125000D01*
X127181527Y-91126428D01*
X127179892Y-91127106D01*
X127178359Y-91126221D01*
X127155025Y-91091300D01*
X127034975Y-91091300D01*
X127011641Y-91126220D01*
X127010107Y-91127105D01*
X127008472Y-91126425D01*
X127008094Y-91125000D01*
X127008000Y-91125000D01*
X127008000Y-90025000D01*
X127008092Y-90025000D01*
X127008471Y-90023570D01*
X127010106Y-90022890D01*
X127011640Y-90023775D01*
X127034977Y-90058699D01*
X127155023Y-90058699D01*
X127178359Y-90023773D01*
X127179885Y-90022889D01*
X127181518Y-90023556D01*
G37*
G36*
X126681518Y-90023556D02*
G01*
X126681916Y-90025000D01*
X126682000Y-90025000D01*
X126682000Y-91125000D01*
X126681908Y-91125000D01*
X126681527Y-91126428D01*
X126679892Y-91127106D01*
X126678359Y-91126221D01*
X126655025Y-91091300D01*
X126534975Y-91091300D01*
X126511641Y-91126220D01*
X126510107Y-91127105D01*
X126508472Y-91126425D01*
X126508094Y-91125000D01*
X126508000Y-91125000D01*
X126508000Y-90025000D01*
X126508092Y-90025000D01*
X126508471Y-90023570D01*
X126510106Y-90022890D01*
X126511640Y-90023775D01*
X126534977Y-90058699D01*
X126655023Y-90058699D01*
X126678359Y-90023773D01*
X126679885Y-90022889D01*
X126681518Y-90023556D01*
G37*
G36*
X126181518Y-90023556D02*
G01*
X126181916Y-90025000D01*
X126182000Y-90025000D01*
X126182000Y-91125000D01*
X126181908Y-91125000D01*
X126181527Y-91126428D01*
X126179892Y-91127106D01*
X126178359Y-91126221D01*
X126155025Y-91091300D01*
X126034975Y-91091300D01*
X126011641Y-91126220D01*
X126010107Y-91127105D01*
X126008472Y-91126425D01*
X126008094Y-91125000D01*
X126008000Y-91125000D01*
X126008000Y-90025000D01*
X126008092Y-90025000D01*
X126008471Y-90023570D01*
X126010106Y-90022890D01*
X126011640Y-90023775D01*
X126034977Y-90058699D01*
X126155023Y-90058699D01*
X126178359Y-90023773D01*
X126179885Y-90022889D01*
X126181518Y-90023556D01*
G37*
G36*
X125681518Y-90023556D02*
G01*
X125681916Y-90025000D01*
X125682000Y-90025000D01*
X125682000Y-91125000D01*
X125681908Y-91125000D01*
X125681527Y-91126428D01*
X125679892Y-91127106D01*
X125678359Y-91126221D01*
X125655025Y-91091300D01*
X125534975Y-91091300D01*
X125511641Y-91126220D01*
X125510107Y-91127105D01*
X125508472Y-91126425D01*
X125508094Y-91125000D01*
X125508000Y-91125000D01*
X125508000Y-90025000D01*
X125508092Y-90025000D01*
X125508471Y-90023570D01*
X125510106Y-90022890D01*
X125511640Y-90023775D01*
X125534977Y-90058699D01*
X125655023Y-90058699D01*
X125678359Y-90023773D01*
X125679885Y-90022889D01*
X125681518Y-90023556D01*
G37*
G36*
X125181518Y-90023556D02*
G01*
X125181916Y-90025000D01*
X125182000Y-90025000D01*
X125182000Y-91125000D01*
X125181908Y-91125000D01*
X125181527Y-91126428D01*
X125179892Y-91127106D01*
X125178359Y-91126221D01*
X125155025Y-91091300D01*
X125034975Y-91091300D01*
X125011641Y-91126220D01*
X125010107Y-91127105D01*
X125008472Y-91126425D01*
X125008094Y-91125000D01*
X125008000Y-91125000D01*
X125008000Y-90025000D01*
X125008092Y-90025000D01*
X125008471Y-90023570D01*
X125010106Y-90022890D01*
X125011640Y-90023775D01*
X125034977Y-90058699D01*
X125155023Y-90058699D01*
X125178359Y-90023773D01*
X125179885Y-90022889D01*
X125181518Y-90023556D01*
G37*
G36*
X124681518Y-90023556D02*
G01*
X124681916Y-90025000D01*
X124682000Y-90025000D01*
X124682000Y-91125000D01*
X124681908Y-91125000D01*
X124681527Y-91126428D01*
X124679892Y-91127106D01*
X124678359Y-91126221D01*
X124655025Y-91091300D01*
X124534975Y-91091300D01*
X124511641Y-91126220D01*
X124510107Y-91127105D01*
X124508472Y-91126425D01*
X124508094Y-91125000D01*
X124508000Y-91125000D01*
X124508000Y-90025000D01*
X124508092Y-90025000D01*
X124508471Y-90023570D01*
X124510106Y-90022890D01*
X124511640Y-90023775D01*
X124534977Y-90058699D01*
X124655023Y-90058699D01*
X124678359Y-90023773D01*
X124679885Y-90022889D01*
X124681518Y-90023556D01*
G37*
G36*
X124181518Y-90023556D02*
G01*
X124181916Y-90025000D01*
X124182000Y-90025000D01*
X124182000Y-91125000D01*
X124181908Y-91125000D01*
X124181527Y-91126428D01*
X124179892Y-91127106D01*
X124178359Y-91126221D01*
X124155025Y-91091300D01*
X124034975Y-91091300D01*
X124011641Y-91126220D01*
X124010107Y-91127105D01*
X124008472Y-91126425D01*
X124008094Y-91125000D01*
X124008000Y-91125000D01*
X124008000Y-90025000D01*
X124008092Y-90025000D01*
X124008471Y-90023570D01*
X124010106Y-90022890D01*
X124011640Y-90023775D01*
X124034977Y-90058699D01*
X124155023Y-90058699D01*
X124178359Y-90023773D01*
X124179885Y-90022889D01*
X124181518Y-90023556D01*
G37*
G36*
X123681518Y-90023556D02*
G01*
X123681916Y-90025000D01*
X123682000Y-90025000D01*
X123682000Y-91125000D01*
X123681908Y-91125000D01*
X123681527Y-91126428D01*
X123679892Y-91127106D01*
X123678359Y-91126221D01*
X123655025Y-91091300D01*
X123534975Y-91091300D01*
X123511641Y-91126220D01*
X123510107Y-91127105D01*
X123508472Y-91126425D01*
X123508094Y-91125000D01*
X123508000Y-91125000D01*
X123508000Y-90025000D01*
X123508092Y-90025000D01*
X123508471Y-90023570D01*
X123510106Y-90022890D01*
X123511640Y-90023775D01*
X123534977Y-90058699D01*
X123655023Y-90058699D01*
X123678359Y-90023773D01*
X123679885Y-90022889D01*
X123681518Y-90023556D01*
G37*
G36*
X123181518Y-90023556D02*
G01*
X123181916Y-90025000D01*
X123182000Y-90025000D01*
X123182000Y-91125000D01*
X123181908Y-91125000D01*
X123181527Y-91126428D01*
X123179892Y-91127106D01*
X123178359Y-91126221D01*
X123155025Y-91091300D01*
X123034975Y-91091300D01*
X123011641Y-91126220D01*
X123010107Y-91127105D01*
X123008472Y-91126425D01*
X123008094Y-91125000D01*
X123008000Y-91125000D01*
X123008000Y-90025000D01*
X123008092Y-90025000D01*
X123008471Y-90023570D01*
X123010106Y-90022890D01*
X123011640Y-90023775D01*
X123034977Y-90058699D01*
X123155023Y-90058699D01*
X123178359Y-90023773D01*
X123179885Y-90022889D01*
X123181518Y-90023556D01*
G37*
G36*
X122681518Y-90023556D02*
G01*
X122681916Y-90025000D01*
X122682000Y-90025000D01*
X122682000Y-91125000D01*
X122681908Y-91125000D01*
X122681527Y-91126428D01*
X122679892Y-91127106D01*
X122678359Y-91126221D01*
X122655025Y-91091300D01*
X122534975Y-91091300D01*
X122511641Y-91126220D01*
X122510107Y-91127105D01*
X122508472Y-91126425D01*
X122508094Y-91125000D01*
X122508000Y-91125000D01*
X122508000Y-90025000D01*
X122508092Y-90025000D01*
X122508471Y-90023570D01*
X122510106Y-90022890D01*
X122511640Y-90023775D01*
X122534977Y-90058699D01*
X122655023Y-90058699D01*
X122678359Y-90023773D01*
X122679885Y-90022889D01*
X122681518Y-90023556D01*
G37*
G36*
X122181518Y-90023556D02*
G01*
X122181916Y-90025000D01*
X122182000Y-90025000D01*
X122182000Y-91125000D01*
X122181908Y-91125000D01*
X122181527Y-91126428D01*
X122179892Y-91127106D01*
X122178359Y-91126221D01*
X122155025Y-91091300D01*
X122034975Y-91091300D01*
X122011641Y-91126220D01*
X122010107Y-91127105D01*
X122008472Y-91126425D01*
X122008094Y-91125000D01*
X122008000Y-91125000D01*
X122008000Y-90025000D01*
X122008092Y-90025000D01*
X122008471Y-90023570D01*
X122010106Y-90022890D01*
X122011640Y-90023775D01*
X122034977Y-90058699D01*
X122155023Y-90058699D01*
X122178359Y-90023773D01*
X122179885Y-90022889D01*
X122181518Y-90023556D01*
G37*
G36*
X121681518Y-90023556D02*
G01*
X121681916Y-90025000D01*
X121682000Y-90025000D01*
X121682000Y-91125000D01*
X121681908Y-91125000D01*
X121681527Y-91126428D01*
X121679892Y-91127106D01*
X121678359Y-91126221D01*
X121655025Y-91091300D01*
X121534975Y-91091300D01*
X121511641Y-91126220D01*
X121510107Y-91127105D01*
X121508472Y-91126425D01*
X121508094Y-91125000D01*
X121508000Y-91125000D01*
X121508000Y-90025000D01*
X121508092Y-90025000D01*
X121508471Y-90023570D01*
X121510106Y-90022890D01*
X121511640Y-90023775D01*
X121534977Y-90058699D01*
X121655023Y-90058699D01*
X121678359Y-90023773D01*
X121679885Y-90022889D01*
X121681518Y-90023556D01*
G37*
G36*
X121181518Y-90023556D02*
G01*
X121181916Y-90025000D01*
X121182000Y-90025000D01*
X121182000Y-91125000D01*
X121181908Y-91125000D01*
X121181527Y-91126428D01*
X121179892Y-91127106D01*
X121178359Y-91126221D01*
X121155025Y-91091300D01*
X121034975Y-91091300D01*
X121011641Y-91126220D01*
X121010107Y-91127105D01*
X121008472Y-91126425D01*
X121008094Y-91125000D01*
X121008000Y-91125000D01*
X121008000Y-90025000D01*
X121008092Y-90025000D01*
X121008471Y-90023570D01*
X121010106Y-90022890D01*
X121011640Y-90023775D01*
X121034977Y-90058699D01*
X121155023Y-90058699D01*
X121178359Y-90023773D01*
X121179885Y-90022889D01*
X121181518Y-90023556D01*
G37*
G36*
X120681518Y-90023556D02*
G01*
X120681916Y-90025000D01*
X120682000Y-90025000D01*
X120682000Y-91125000D01*
X120681908Y-91125000D01*
X120681527Y-91126428D01*
X120679892Y-91127106D01*
X120678359Y-91126221D01*
X120655025Y-91091300D01*
X120534975Y-91091300D01*
X120511641Y-91126220D01*
X120510107Y-91127105D01*
X120508472Y-91126425D01*
X120508094Y-91125000D01*
X120508000Y-91125000D01*
X120508000Y-90025000D01*
X120508092Y-90025000D01*
X120508471Y-90023570D01*
X120510106Y-90022890D01*
X120511640Y-90023775D01*
X120534977Y-90058699D01*
X120655023Y-90058699D01*
X120678359Y-90023773D01*
X120679885Y-90022889D01*
X120681518Y-90023556D01*
G37*
G36*
X120181518Y-90023556D02*
G01*
X120181916Y-90025000D01*
X120182000Y-90025000D01*
X120182000Y-91125000D01*
X120181908Y-91125000D01*
X120181527Y-91126428D01*
X120179892Y-91127106D01*
X120178359Y-91126221D01*
X120155025Y-91091300D01*
X120034975Y-91091300D01*
X120011641Y-91126220D01*
X120010107Y-91127105D01*
X120008472Y-91126425D01*
X120008094Y-91125000D01*
X120008000Y-91125000D01*
X120008000Y-90025000D01*
X120008092Y-90025000D01*
X120008471Y-90023570D01*
X120010106Y-90022890D01*
X120011640Y-90023775D01*
X120034977Y-90058699D01*
X120155023Y-90058699D01*
X120178359Y-90023773D01*
X120179885Y-90022889D01*
X120181518Y-90023556D01*
G37*
G36*
X119681518Y-90023556D02*
G01*
X119681916Y-90025000D01*
X119682000Y-90025000D01*
X119682000Y-91125000D01*
X119681908Y-91125000D01*
X119681527Y-91126428D01*
X119679892Y-91127106D01*
X119678359Y-91126221D01*
X119655025Y-91091300D01*
X119534975Y-91091300D01*
X119511641Y-91126220D01*
X119510107Y-91127105D01*
X119508472Y-91126425D01*
X119508094Y-91125000D01*
X119508000Y-91125000D01*
X119508000Y-90025000D01*
X119508092Y-90025000D01*
X119508471Y-90023570D01*
X119510106Y-90022890D01*
X119511640Y-90023775D01*
X119534977Y-90058699D01*
X119655023Y-90058699D01*
X119678359Y-90023773D01*
X119679885Y-90022889D01*
X119681518Y-90023556D01*
G37*
G36*
X119181518Y-90023556D02*
G01*
X119181916Y-90025000D01*
X119182000Y-90025000D01*
X119182000Y-91125000D01*
X119181908Y-91125000D01*
X119181527Y-91126428D01*
X119179892Y-91127106D01*
X119178359Y-91126221D01*
X119155025Y-91091300D01*
X119034975Y-91091300D01*
X119011641Y-91126220D01*
X119010107Y-91127105D01*
X119008472Y-91126425D01*
X119008094Y-91125000D01*
X119008000Y-91125000D01*
X119008000Y-90025000D01*
X119008092Y-90025000D01*
X119008471Y-90023570D01*
X119010106Y-90022890D01*
X119011640Y-90023775D01*
X119034977Y-90058699D01*
X119155023Y-90058699D01*
X119178359Y-90023773D01*
X119179885Y-90022889D01*
X119181518Y-90023556D01*
G37*
G36*
X118681518Y-90023556D02*
G01*
X118681916Y-90025000D01*
X118682000Y-90025000D01*
X118682000Y-91125000D01*
X118681908Y-91125000D01*
X118681527Y-91126428D01*
X118679892Y-91127106D01*
X118678359Y-91126221D01*
X118655025Y-91091300D01*
X118534975Y-91091300D01*
X118511641Y-91126220D01*
X118510107Y-91127105D01*
X118508472Y-91126425D01*
X118508094Y-91125000D01*
X118508000Y-91125000D01*
X118508000Y-90025000D01*
X118508092Y-90025000D01*
X118508471Y-90023570D01*
X118510106Y-90022890D01*
X118511640Y-90023775D01*
X118534977Y-90058699D01*
X118655023Y-90058699D01*
X118678359Y-90023773D01*
X118679885Y-90022889D01*
X118681518Y-90023556D01*
G37*
G36*
X118181518Y-90023556D02*
G01*
X118181916Y-90025000D01*
X118182000Y-90025000D01*
X118182000Y-91125000D01*
X118181908Y-91125000D01*
X118181527Y-91126428D01*
X118179892Y-91127106D01*
X118178359Y-91126221D01*
X118155025Y-91091300D01*
X118034975Y-91091300D01*
X118011641Y-91126220D01*
X118010107Y-91127105D01*
X118008472Y-91126425D01*
X118008094Y-91125000D01*
X118008000Y-91125000D01*
X118008000Y-90025000D01*
X118008092Y-90025000D01*
X118008471Y-90023570D01*
X118010106Y-90022890D01*
X118011640Y-90023775D01*
X118034977Y-90058699D01*
X118155023Y-90058699D01*
X118178359Y-90023773D01*
X118179885Y-90022889D01*
X118181518Y-90023556D01*
G37*
G36*
X117681518Y-90023556D02*
G01*
X117681916Y-90025000D01*
X117682000Y-90025000D01*
X117682000Y-91125000D01*
X117681908Y-91125000D01*
X117681527Y-91126428D01*
X117679892Y-91127106D01*
X117678359Y-91126221D01*
X117655025Y-91091300D01*
X117534975Y-91091300D01*
X117511641Y-91126220D01*
X117510107Y-91127105D01*
X117508472Y-91126425D01*
X117508094Y-91125000D01*
X117508000Y-91125000D01*
X117508000Y-90025000D01*
X117508092Y-90025000D01*
X117508471Y-90023570D01*
X117510106Y-90022890D01*
X117511640Y-90023775D01*
X117534977Y-90058699D01*
X117655023Y-90058699D01*
X117678359Y-90023773D01*
X117679885Y-90022889D01*
X117681518Y-90023556D01*
G37*
G36*
X117181518Y-90023556D02*
G01*
X117181916Y-90025000D01*
X117182000Y-90025000D01*
X117182000Y-91125000D01*
X117181908Y-91125000D01*
X117181527Y-91126428D01*
X117179892Y-91127106D01*
X117178359Y-91126221D01*
X117155025Y-91091300D01*
X117034975Y-91091300D01*
X117011641Y-91126220D01*
X117010107Y-91127105D01*
X117008472Y-91126425D01*
X117008094Y-91125000D01*
X117008000Y-91125000D01*
X117008000Y-90025000D01*
X117008092Y-90025000D01*
X117008471Y-90023570D01*
X117010106Y-90022890D01*
X117011640Y-90023775D01*
X117034977Y-90058699D01*
X117155023Y-90058699D01*
X117178359Y-90023773D01*
X117179885Y-90022889D01*
X117181518Y-90023556D01*
G37*
G36*
X116681518Y-90023556D02*
G01*
X116681916Y-90025000D01*
X116682000Y-90025000D01*
X116682000Y-91125000D01*
X116681908Y-91125000D01*
X116681527Y-91126428D01*
X116679892Y-91127106D01*
X116678359Y-91126221D01*
X116655025Y-91091300D01*
X116534975Y-91091300D01*
X116511641Y-91126220D01*
X116510107Y-91127105D01*
X116508472Y-91126425D01*
X116508094Y-91125000D01*
X116508000Y-91125000D01*
X116508000Y-90025000D01*
X116508092Y-90025000D01*
X116508471Y-90023570D01*
X116510106Y-90022890D01*
X116511640Y-90023775D01*
X116534977Y-90058699D01*
X116655023Y-90058699D01*
X116678359Y-90023773D01*
X116679885Y-90022889D01*
X116681518Y-90023556D01*
G37*
G36*
X108606394Y-90902361D02*
G01*
X108628117Y-90869852D01*
X108629649Y-90868967D01*
X108631284Y-90869644D01*
X108631742Y-90871353D01*
X108627000Y-90895199D01*
X108627000Y-91019801D01*
X108631741Y-91043640D01*
X108631283Y-91045349D01*
X108629648Y-91046026D01*
X108628116Y-91045141D01*
X108606398Y-91012637D01*
X108445581Y-91061423D01*
X108443809Y-91061115D01*
X108443000Y-91059509D01*
X108443000Y-90855489D01*
X108443809Y-90853883D01*
X108445581Y-90853575D01*
X108606394Y-90902361D01*
G37*
G36*
X109392897Y-90596389D02*
G01*
X109393082Y-90598265D01*
X109391624Y-90599462D01*
X109311812Y-90615335D01*
X109311809Y-90799658D01*
X109391638Y-90815538D01*
X109393096Y-90816735D01*
X109392911Y-90818611D01*
X109391248Y-90819500D01*
X108713757Y-90819500D01*
X108712094Y-90818611D01*
X108711909Y-90816735D01*
X108713367Y-90815538D01*
X108793188Y-90799661D01*
X108793188Y-90615339D01*
X108713371Y-90599462D01*
X108711913Y-90598265D01*
X108712098Y-90596389D01*
X108713761Y-90595500D01*
X109391234Y-90595500D01*
X109392897Y-90596389D01*
G37*
G36*
X106467897Y-90596389D02*
G01*
X106468082Y-90598265D01*
X106466624Y-90599462D01*
X106386812Y-90615335D01*
X106386809Y-90799658D01*
X106466638Y-90815538D01*
X106468096Y-90816735D01*
X106467911Y-90818611D01*
X106466248Y-90819500D01*
X105788757Y-90819500D01*
X105787094Y-90818611D01*
X105786909Y-90816735D01*
X105788367Y-90815538D01*
X105868188Y-90799661D01*
X105868188Y-90615339D01*
X105788371Y-90599462D01*
X105786913Y-90598265D01*
X105787098Y-90596389D01*
X105788761Y-90595500D01*
X106466234Y-90595500D01*
X106467897Y-90596389D01*
G37*
G36*
X108446641Y-90366279D02*
G01*
X108478549Y-90414032D01*
X108598598Y-90414033D01*
X108628117Y-90369856D01*
X108629649Y-90368971D01*
X108631284Y-90369648D01*
X108631742Y-90371357D01*
X108627000Y-90395199D01*
X108627000Y-90519801D01*
X108631741Y-90543640D01*
X108631283Y-90545349D01*
X108629648Y-90546026D01*
X108628116Y-90545141D01*
X108606398Y-90512637D01*
X108445581Y-90561423D01*
X108443809Y-90561115D01*
X108443000Y-90559509D01*
X108443000Y-90367500D01*
X108443092Y-90367500D01*
X108443473Y-90366072D01*
X108445108Y-90365394D01*
X108446641Y-90366279D01*
G37*
G36*
X108277699Y-90170500D02*
G01*
X108402301Y-90170500D01*
X108426136Y-90165759D01*
X108427845Y-90166217D01*
X108428522Y-90167852D01*
X108427637Y-90169384D01*
X108383466Y-90198899D01*
X108383466Y-90318948D01*
X108431223Y-90350859D01*
X108432108Y-90352390D01*
X108431433Y-90354024D01*
X108430000Y-90354410D01*
X108430000Y-90354500D01*
X107237991Y-90354500D01*
X107236385Y-90353691D01*
X107236077Y-90351919D01*
X107284861Y-90191097D01*
X107252364Y-90169384D01*
X107251479Y-90167852D01*
X107252156Y-90166217D01*
X107253865Y-90165759D01*
X107277699Y-90170500D01*
X107402301Y-90170500D01*
X107426130Y-90165760D01*
X107427839Y-90166218D01*
X107428516Y-90167853D01*
X107427631Y-90169385D01*
X107395138Y-90191093D01*
X107443490Y-90350500D01*
X107736507Y-90350500D01*
X107784861Y-90191097D01*
X107752364Y-90169384D01*
X107751479Y-90167852D01*
X107752156Y-90166217D01*
X107753865Y-90165759D01*
X107777699Y-90170500D01*
X107902301Y-90170500D01*
X107926130Y-90165760D01*
X107927839Y-90166218D01*
X107928516Y-90167853D01*
X107927631Y-90169385D01*
X107895138Y-90191093D01*
X107943490Y-90350500D01*
X108236505Y-90350500D01*
X108284860Y-90191102D01*
X108252356Y-90169382D01*
X108251471Y-90167850D01*
X108252148Y-90166215D01*
X108253857Y-90165757D01*
X108277699Y-90170500D01*
G37*
G36*
X106777699Y-90170500D02*
G01*
X106902301Y-90170500D01*
X106926130Y-90165760D01*
X106927839Y-90166218D01*
X106928516Y-90167853D01*
X106927631Y-90169385D01*
X106895138Y-90191093D01*
X106943920Y-90351919D01*
X106943612Y-90353691D01*
X106942006Y-90354500D01*
X106750000Y-90354500D01*
X106750000Y-90354414D01*
X106748559Y-90354019D01*
X106747890Y-90352386D01*
X106748774Y-90350859D01*
X106796533Y-90318946D01*
X106796532Y-90198898D01*
X106752360Y-90169383D01*
X106751475Y-90167851D01*
X106752152Y-90166216D01*
X106753861Y-90165758D01*
X106777699Y-90170500D01*
G37*
G36*
X108201111Y-89404588D02*
G01*
X108202000Y-89406251D01*
X108202000Y-90083740D01*
X108201111Y-90085403D01*
X108199235Y-90085588D01*
X108198038Y-90084130D01*
X108182161Y-90004311D01*
X107997839Y-90004311D01*
X107981962Y-90084128D01*
X107980765Y-90085586D01*
X107978889Y-90085401D01*
X107978000Y-90083738D01*
X107978000Y-89406265D01*
X107978889Y-89404602D01*
X107980765Y-89404417D01*
X107981962Y-89405875D01*
X107997835Y-89485686D01*
X108182158Y-89485689D01*
X108198038Y-89405861D01*
X108199235Y-89404403D01*
X108201111Y-89404588D01*
G37*
G36*
X107701111Y-89404588D02*
G01*
X107702000Y-89406251D01*
X107702000Y-90083740D01*
X107701111Y-90085403D01*
X107699235Y-90085588D01*
X107698038Y-90084130D01*
X107682161Y-90004311D01*
X107497839Y-90004311D01*
X107481962Y-90084128D01*
X107480765Y-90085586D01*
X107478889Y-90085401D01*
X107478000Y-90083738D01*
X107478000Y-89406265D01*
X107478889Y-89404602D01*
X107480765Y-89404417D01*
X107481962Y-89405875D01*
X107497835Y-89485686D01*
X107682158Y-89485689D01*
X107698038Y-89405861D01*
X107699235Y-89404403D01*
X107701111Y-89404588D01*
G37*
G36*
X107201111Y-89404588D02*
G01*
X107202000Y-89406251D01*
X107202000Y-90083740D01*
X107201111Y-90085403D01*
X107199235Y-90085588D01*
X107198038Y-90084130D01*
X107182161Y-90004311D01*
X106997839Y-90004311D01*
X106981962Y-90084128D01*
X106980765Y-90085586D01*
X106978889Y-90085401D01*
X106978000Y-90083738D01*
X106978000Y-89406265D01*
X106978889Y-89404602D01*
X106980765Y-89404417D01*
X106981962Y-89405875D01*
X106997835Y-89485686D01*
X107182158Y-89485689D01*
X107198038Y-89405861D01*
X107199235Y-89404403D01*
X107201111Y-89404588D01*
G37*
G36*
X106711518Y-79723556D02*
G01*
X106711916Y-79725000D01*
X106712000Y-79725000D01*
X106712000Y-81025000D01*
X106711908Y-81025000D01*
X106711527Y-81026428D01*
X106709892Y-81027106D01*
X106708359Y-81026221D01*
X106685025Y-80991300D01*
X106564975Y-80991300D01*
X106541641Y-81026220D01*
X106540107Y-81027105D01*
X106538472Y-81026425D01*
X106538094Y-81025000D01*
X106538000Y-81025000D01*
X106538000Y-79725000D01*
X106538092Y-79725000D01*
X106538471Y-79723570D01*
X106540106Y-79722890D01*
X106541640Y-79723775D01*
X106564977Y-79758699D01*
X106685023Y-79758699D01*
X106708359Y-79723773D01*
X106709885Y-79722889D01*
X106711518Y-79723556D01*
G37*
G36*
X106211518Y-79723556D02*
G01*
X106211916Y-79725000D01*
X106212000Y-79725000D01*
X106212000Y-81025000D01*
X106211908Y-81025000D01*
X106211527Y-81026428D01*
X106209892Y-81027106D01*
X106208359Y-81026221D01*
X106185025Y-80991300D01*
X106064975Y-80991300D01*
X106041641Y-81026220D01*
X106040107Y-81027105D01*
X106038472Y-81026425D01*
X106038094Y-81025000D01*
X106038000Y-81025000D01*
X106038000Y-79725000D01*
X106038092Y-79725000D01*
X106038471Y-79723570D01*
X106040106Y-79722890D01*
X106041640Y-79723775D01*
X106064977Y-79758699D01*
X106185023Y-79758699D01*
X106208359Y-79723773D01*
X106209885Y-79722889D01*
X106211518Y-79723556D01*
G37*
G36*
X105711518Y-79723556D02*
G01*
X105711916Y-79725000D01*
X105712000Y-79725000D01*
X105712000Y-81025000D01*
X105711908Y-81025000D01*
X105711527Y-81026428D01*
X105709892Y-81027106D01*
X105708359Y-81026221D01*
X105685025Y-80991300D01*
X105564975Y-80991300D01*
X105541641Y-81026220D01*
X105540107Y-81027105D01*
X105538472Y-81026425D01*
X105538094Y-81025000D01*
X105538000Y-81025000D01*
X105538000Y-79725000D01*
X105538092Y-79725000D01*
X105538471Y-79723570D01*
X105540106Y-79722890D01*
X105541640Y-79723775D01*
X105564977Y-79758699D01*
X105685023Y-79758699D01*
X105708359Y-79723773D01*
X105709885Y-79722889D01*
X105711518Y-79723556D01*
G37*
G36*
X105211518Y-79723556D02*
G01*
X105211916Y-79725000D01*
X105212000Y-79725000D01*
X105212000Y-81025000D01*
X105211908Y-81025000D01*
X105211527Y-81026428D01*
X105209892Y-81027106D01*
X105208359Y-81026221D01*
X105185025Y-80991300D01*
X105064975Y-80991300D01*
X105041641Y-81026220D01*
X105040107Y-81027105D01*
X105038472Y-81026425D01*
X105038094Y-81025000D01*
X105038000Y-81025000D01*
X105038000Y-79725000D01*
X105038092Y-79725000D01*
X105038471Y-79723570D01*
X105040106Y-79722890D01*
X105041640Y-79723775D01*
X105064977Y-79758699D01*
X105185023Y-79758699D01*
X105208359Y-79723773D01*
X105209885Y-79722889D01*
X105211518Y-79723556D01*
G37*
G36*
X104711518Y-79723556D02*
G01*
X104711916Y-79725000D01*
X104712000Y-79725000D01*
X104712000Y-81025000D01*
X104711908Y-81025000D01*
X104711527Y-81026428D01*
X104709892Y-81027106D01*
X104708359Y-81026221D01*
X104685025Y-80991300D01*
X104564975Y-80991300D01*
X104541641Y-81026220D01*
X104540107Y-81027105D01*
X104538472Y-81026425D01*
X104538094Y-81025000D01*
X104538000Y-81025000D01*
X104538000Y-79725000D01*
X104538092Y-79725000D01*
X104538471Y-79723570D01*
X104540106Y-79722890D01*
X104541640Y-79723775D01*
X104564977Y-79758699D01*
X104685023Y-79758699D01*
X104708359Y-79723773D01*
X104709885Y-79722889D01*
X104711518Y-79723556D01*
G37*
M02*
