G04 #@! TF.GenerationSoftware,KiCad,Pcbnew,7.0.1*
G04 #@! TF.CreationDate,2024-07-31T19:39:54-07:00*
G04 #@! TF.ProjectId,DFTBoard,44465442-6f61-4726-942e-6b696361645f,rev?*
G04 #@! TF.SameCoordinates,Original*
G04 #@! TF.FileFunction,Legend,Bot*
G04 #@! TF.FilePolarity,Positive*
%FSLAX46Y46*%
G04 Gerber Fmt 4.6, Leading zero omitted, Abs format (unit mm)*
G04 Created by KiCad (PCBNEW 7.0.1) date 2024-07-31 19:39:54*
%MOMM*%
%LPD*%
G01*
G04 APERTURE LIST*
G04 Aperture macros list*
%AMRoundRect*
0 Rectangle with rounded corners*
0 $1 Rounding radius*
0 $2 $3 $4 $5 $6 $7 $8 $9 X,Y pos of 4 corners*
0 Add a 4 corners polygon primitive as box body*
4,1,4,$2,$3,$4,$5,$6,$7,$8,$9,$2,$3,0*
0 Add four circle primitives for the rounded corners*
1,1,$1+$1,$2,$3*
1,1,$1+$1,$4,$5*
1,1,$1+$1,$6,$7*
1,1,$1+$1,$8,$9*
0 Add four rect primitives between the rounded corners*
20,1,$1+$1,$2,$3,$4,$5,0*
20,1,$1+$1,$4,$5,$6,$7,0*
20,1,$1+$1,$6,$7,$8,$9,0*
20,1,$1+$1,$8,$9,$2,$3,0*%
G04 Aperture macros list end*
%ADD10C,0.130000*%
%ADD11C,0.150000*%
%ADD12C,0.127000*%
%ADD13C,0.200000*%
%ADD14C,0.120000*%
%ADD15C,0.250000*%
%ADD16C,0.100000*%
%ADD17C,0.152400*%
%ADD18C,0.508000*%
%ADD19C,0.001000*%
%ADD20C,3.078000*%
%ADD21C,2.030000*%
%ADD22C,1.630000*%
%ADD23RoundRect,0.015000X0.325000X-0.425000X0.325000X0.425000X-0.325000X0.425000X-0.325000X-0.425000X0*%
%ADD24RoundRect,0.162500X0.172500X-0.147500X0.172500X0.147500X-0.172500X0.147500X-0.172500X-0.147500X0*%
%ADD25RoundRect,0.162500X-0.147500X-0.172500X0.147500X-0.172500X0.147500X0.172500X-0.147500X0.172500X0*%
%ADD26RoundRect,0.162500X0.147500X0.172500X-0.147500X0.172500X-0.147500X-0.172500X0.147500X-0.172500X0*%
%ADD27RoundRect,0.162500X-0.172500X0.147500X-0.172500X-0.147500X0.172500X-0.147500X0.172500X0.147500X0*%
%ADD28RoundRect,0.233750X0.256250X-0.218750X0.256250X0.218750X-0.256250X0.218750X-0.256250X-0.218750X0*%
%ADD29RoundRect,0.265000X1.075000X-0.375000X1.075000X0.375000X-1.075000X0.375000X-1.075000X-0.375000X0*%
%ADD30RoundRect,0.265000X0.625000X-0.375000X0.625000X0.375000X-0.625000X0.375000X-0.625000X-0.375000X0*%
%ADD31RoundRect,0.265000X-1.075000X0.375000X-1.075000X-0.375000X1.075000X-0.375000X1.075000X0.375000X0*%
%ADD32RoundRect,0.265000X-0.312500X-1.450000X0.312500X-1.450000X0.312500X1.450000X-0.312500X1.450000X0*%
%ADD33RoundRect,0.015000X0.325000X-0.530000X0.325000X0.530000X-0.325000X0.530000X-0.325000X-0.530000X0*%
%ADD34RoundRect,0.015000X0.710000X0.235000X-0.710000X0.235000X-0.710000X-0.235000X0.710000X-0.235000X0*%
%ADD35RoundRect,0.015000X-0.710000X-0.235000X0.710000X-0.235000X0.710000X0.235000X-0.710000X0.235000X0*%
%ADD36RoundRect,0.265000X-0.375000X-1.075000X0.375000X-1.075000X0.375000X1.075000X-0.375000X1.075000X0*%
%ADD37RoundRect,0.233750X0.218750X0.256250X-0.218750X0.256250X-0.218750X-0.256250X0.218750X-0.256250X0*%
%ADD38RoundRect,0.258750X0.243750X0.456250X-0.243750X0.456250X-0.243750X-0.456250X0.243750X-0.456250X0*%
%ADD39RoundRect,0.015000X-0.425000X-0.140000X0.425000X-0.140000X0.425000X0.140000X-0.425000X0.140000X0*%
%ADD40RoundRect,0.015000X-0.140000X-0.350000X0.140000X-0.350000X0.140000X0.350000X-0.140000X0.350000X0*%
%ADD41RoundRect,0.015000X-0.825000X-1.200000X0.825000X-1.200000X0.825000X1.200000X-0.825000X1.200000X0*%
%ADD42RoundRect,0.233750X-0.218750X-0.256250X0.218750X-0.256250X0.218750X0.256250X-0.218750X0.256250X0*%
%ADD43RoundRect,0.265000X-0.925000X0.412500X-0.925000X-0.412500X0.925000X-0.412500X0.925000X0.412500X0*%
%ADD44RoundRect,0.265000X0.375000X1.075000X-0.375000X1.075000X-0.375000X-1.075000X0.375000X-1.075000X0*%
%ADD45RoundRect,0.015000X-0.325000X0.530000X-0.325000X-0.530000X0.325000X-0.530000X0.325000X0.530000X0*%
%ADD46RoundRect,0.265000X0.312500X1.450000X-0.312500X1.450000X-0.312500X-1.450000X0.312500X-1.450000X0*%
%ADD47RoundRect,0.015000X-0.125000X0.250000X-0.125000X-0.250000X0.125000X-0.250000X0.125000X0.250000X0*%
%ADD48RoundRect,0.015000X-0.800000X0.450000X-0.800000X-0.450000X0.800000X-0.450000X0.800000X0.450000X0*%
%ADD49RoundRect,0.258750X0.456250X-0.243750X0.456250X0.243750X-0.456250X0.243750X-0.456250X-0.243750X0*%
%ADD50RoundRect,0.015000X-0.350000X-0.875000X0.350000X-0.875000X0.350000X0.875000X-0.350000X0.875000X0*%
%ADD51RoundRect,0.015000X-0.650000X-0.750000X0.650000X-0.750000X0.650000X0.750000X-0.650000X0.750000X0*%
%ADD52RoundRect,0.015000X-0.750000X-0.750000X0.750000X-0.750000X0.750000X0.750000X-0.750000X0.750000X0*%
%ADD53RoundRect,0.015000X-0.400000X-0.700000X0.400000X-0.700000X0.400000X0.700000X-0.400000X0.700000X0*%
%ADD54RoundRect,0.015000X-0.500000X-0.775000X0.500000X-0.775000X0.500000X0.775000X-0.500000X0.775000X0*%
%ADD55RoundRect,0.015000X-0.750000X-0.400000X0.750000X-0.400000X0.750000X0.400000X-0.750000X0.400000X0*%
%ADD56RoundRect,0.015000X-0.400000X-0.750000X0.400000X-0.750000X0.400000X0.750000X-0.400000X0.750000X0*%
%ADD57RoundRect,0.265000X0.925000X-0.412500X0.925000X0.412500X-0.925000X0.412500X-0.925000X-0.412500X0*%
%ADD58RoundRect,0.258750X-0.456250X0.243750X-0.456250X-0.243750X0.456250X-0.243750X0.456250X0.243750X0*%
%ADD59C,1.808000*%
%ADD60RoundRect,0.265000X-1.450000X0.312500X-1.450000X-0.312500X1.450000X-0.312500X1.450000X0.312500X0*%
%ADD61RoundRect,0.015000X0.530000X0.325000X-0.530000X0.325000X-0.530000X-0.325000X0.530000X-0.325000X0*%
%ADD62RoundRect,0.240000X0.000000X0.250000X0.000000X-0.250000X0.000000X-0.250000X0.000000X0.250000X0*%
%ADD63RoundRect,0.150000X-0.185000X0.135000X-0.185000X-0.135000X0.185000X-0.135000X0.185000X0.135000X0*%
%ADD64RoundRect,0.265000X1.100000X-0.325000X1.100000X0.325000X-1.100000X0.325000X-1.100000X-0.325000X0*%
%ADD65RoundRect,0.240000X0.225000X0.250000X-0.225000X0.250000X-0.225000X-0.250000X0.225000X-0.250000X0*%
%ADD66RoundRect,0.240000X-0.225000X-0.250000X0.225000X-0.250000X0.225000X0.250000X-0.225000X0.250000X0*%
%ADD67RoundRect,0.150000X0.185000X-0.135000X0.185000X0.135000X-0.185000X0.135000X-0.185000X-0.135000X0*%
%ADD68RoundRect,0.155000X-0.170000X0.140000X-0.170000X-0.140000X0.170000X-0.140000X0.170000X0.140000X0*%
%ADD69RoundRect,0.265000X-1.100000X0.325000X-1.100000X-0.325000X1.100000X-0.325000X1.100000X0.325000X0*%
%ADD70RoundRect,0.265000X0.450000X-0.262500X0.450000X0.262500X-0.450000X0.262500X-0.450000X-0.262500X0*%
%ADD71RoundRect,0.150000X0.135000X0.185000X-0.135000X0.185000X-0.135000X-0.185000X0.135000X-0.185000X0*%
%ADD72RoundRect,0.155000X0.170000X-0.140000X0.170000X0.140000X-0.170000X0.140000X-0.170000X-0.140000X0*%
%ADD73RoundRect,0.265000X-0.325000X-0.650000X0.325000X-0.650000X0.325000X0.650000X-0.325000X0.650000X0*%
%ADD74RoundRect,0.165000X-0.150000X0.250000X-0.150000X-0.250000X0.150000X-0.250000X0.150000X0.250000X0*%
%ADD75RoundRect,0.165000X0.250000X0.150000X-0.250000X0.150000X-0.250000X-0.150000X0.250000X-0.150000X0*%
%ADD76RoundRect,0.165000X0.150000X-0.250000X0.150000X0.250000X-0.150000X0.250000X-0.150000X-0.250000X0*%
%ADD77RoundRect,0.165000X-0.250000X-0.150000X0.250000X-0.150000X0.250000X0.150000X-0.250000X0.150000X0*%
%ADD78RoundRect,0.540000X-0.525000X0.525000X-0.525000X-0.525000X0.525000X-0.525000X0.525000X0.525000X0*%
%ADD79RoundRect,0.265000X1.000000X-1.400000X1.000000X1.400000X-1.000000X1.400000X-1.000000X-1.400000X0*%
%ADD80RoundRect,0.015000X-0.241300X-0.901700X0.241300X-0.901700X0.241300X0.901700X-0.241300X0.901700X0*%
%ADD81RoundRect,0.015000X-0.515000X-0.495300X0.515000X-0.495300X0.515000X0.495300X-0.515000X0.495300X0*%
%ADD82RoundRect,0.015000X-0.330200X-0.647700X0.330200X-0.647700X0.330200X0.647700X-0.330200X0.647700X0*%
%ADD83RoundRect,0.265000X-0.450000X0.262500X-0.450000X-0.262500X0.450000X-0.262500X0.450000X0.262500X0*%
G04 APERTURE END LIST*
D10*
X134788095Y-112375238D02*
X134883333Y-112327619D01*
X134883333Y-112327619D02*
X135026190Y-112327619D01*
X135026190Y-112327619D02*
X135169047Y-112375238D01*
X135169047Y-112375238D02*
X135264285Y-112470476D01*
X135264285Y-112470476D02*
X135311904Y-112565714D01*
X135311904Y-112565714D02*
X135359523Y-112756190D01*
X135359523Y-112756190D02*
X135359523Y-112899047D01*
X135359523Y-112899047D02*
X135311904Y-113089523D01*
X135311904Y-113089523D02*
X135264285Y-113184761D01*
X135264285Y-113184761D02*
X135169047Y-113280000D01*
X135169047Y-113280000D02*
X135026190Y-113327619D01*
X135026190Y-113327619D02*
X134930952Y-113327619D01*
X134930952Y-113327619D02*
X134788095Y-113280000D01*
X134788095Y-113280000D02*
X134740476Y-113232380D01*
X134740476Y-113232380D02*
X134740476Y-112899047D01*
X134740476Y-112899047D02*
X134930952Y-112899047D01*
X134311904Y-113327619D02*
X134311904Y-112660952D01*
X134311904Y-112327619D02*
X134359523Y-112375238D01*
X134359523Y-112375238D02*
X134311904Y-112422857D01*
X134311904Y-112422857D02*
X134264285Y-112375238D01*
X134264285Y-112375238D02*
X134311904Y-112327619D01*
X134311904Y-112327619D02*
X134311904Y-112422857D01*
X133978571Y-112660952D02*
X133597619Y-112660952D01*
X133835714Y-112327619D02*
X133835714Y-113184761D01*
X133835714Y-113184761D02*
X133788095Y-113280000D01*
X133788095Y-113280000D02*
X133692857Y-113327619D01*
X133692857Y-113327619D02*
X133597619Y-113327619D01*
X133264285Y-113327619D02*
X133264285Y-112327619D01*
X132835714Y-113327619D02*
X132835714Y-112803809D01*
X132835714Y-112803809D02*
X132883333Y-112708571D01*
X132883333Y-112708571D02*
X132978571Y-112660952D01*
X132978571Y-112660952D02*
X133121428Y-112660952D01*
X133121428Y-112660952D02*
X133216666Y-112708571D01*
X133216666Y-112708571D02*
X133264285Y-112756190D01*
X131930952Y-112660952D02*
X131930952Y-113327619D01*
X132359523Y-112660952D02*
X132359523Y-113184761D01*
X132359523Y-113184761D02*
X132311904Y-113280000D01*
X132311904Y-113280000D02*
X132216666Y-113327619D01*
X132216666Y-113327619D02*
X132073809Y-113327619D01*
X132073809Y-113327619D02*
X131978571Y-113280000D01*
X131978571Y-113280000D02*
X131930952Y-113232380D01*
X131454761Y-113327619D02*
X131454761Y-112327619D01*
X131454761Y-112708571D02*
X131359523Y-112660952D01*
X131359523Y-112660952D02*
X131169047Y-112660952D01*
X131169047Y-112660952D02*
X131073809Y-112708571D01*
X131073809Y-112708571D02*
X131026190Y-112756190D01*
X131026190Y-112756190D02*
X130978571Y-112851428D01*
X130978571Y-112851428D02*
X130978571Y-113137142D01*
X130978571Y-113137142D02*
X131026190Y-113232380D01*
X131026190Y-113232380D02*
X131073809Y-113280000D01*
X131073809Y-113280000D02*
X131169047Y-113327619D01*
X131169047Y-113327619D02*
X131359523Y-113327619D01*
X131359523Y-113327619D02*
X131454761Y-113280000D01*
X130549999Y-113232380D02*
X130502380Y-113280000D01*
X130502380Y-113280000D02*
X130549999Y-113327619D01*
X130549999Y-113327619D02*
X130597618Y-113280000D01*
X130597618Y-113280000D02*
X130549999Y-113232380D01*
X130549999Y-113232380D02*
X130549999Y-113327619D01*
X130549999Y-112708571D02*
X130502380Y-112756190D01*
X130502380Y-112756190D02*
X130549999Y-112803809D01*
X130549999Y-112803809D02*
X130597618Y-112756190D01*
X130597618Y-112756190D02*
X130549999Y-112708571D01*
X130549999Y-112708571D02*
X130549999Y-112803809D01*
X128597619Y-112280000D02*
X129454761Y-113565714D01*
X128311904Y-113280000D02*
X128169047Y-113327619D01*
X128169047Y-113327619D02*
X127930952Y-113327619D01*
X127930952Y-113327619D02*
X127835714Y-113280000D01*
X127835714Y-113280000D02*
X127788095Y-113232380D01*
X127788095Y-113232380D02*
X127740476Y-113137142D01*
X127740476Y-113137142D02*
X127740476Y-113041904D01*
X127740476Y-113041904D02*
X127788095Y-112946666D01*
X127788095Y-112946666D02*
X127835714Y-112899047D01*
X127835714Y-112899047D02*
X127930952Y-112851428D01*
X127930952Y-112851428D02*
X128121428Y-112803809D01*
X128121428Y-112803809D02*
X128216666Y-112756190D01*
X128216666Y-112756190D02*
X128264285Y-112708571D01*
X128264285Y-112708571D02*
X128311904Y-112613333D01*
X128311904Y-112613333D02*
X128311904Y-112518095D01*
X128311904Y-112518095D02*
X128264285Y-112422857D01*
X128264285Y-112422857D02*
X128216666Y-112375238D01*
X128216666Y-112375238D02*
X128121428Y-112327619D01*
X128121428Y-112327619D02*
X127883333Y-112327619D01*
X127883333Y-112327619D02*
X127740476Y-112375238D01*
X126883333Y-112660952D02*
X126883333Y-113327619D01*
X127311904Y-112660952D02*
X127311904Y-113184761D01*
X127311904Y-113184761D02*
X127264285Y-113280000D01*
X127264285Y-113280000D02*
X127169047Y-113327619D01*
X127169047Y-113327619D02*
X127026190Y-113327619D01*
X127026190Y-113327619D02*
X126930952Y-113280000D01*
X126930952Y-113280000D02*
X126883333Y-113232380D01*
X126407142Y-112660952D02*
X126407142Y-113327619D01*
X126407142Y-112756190D02*
X126359523Y-112708571D01*
X126359523Y-112708571D02*
X126264285Y-112660952D01*
X126264285Y-112660952D02*
X126121428Y-112660952D01*
X126121428Y-112660952D02*
X126026190Y-112708571D01*
X126026190Y-112708571D02*
X125978571Y-112803809D01*
X125978571Y-112803809D02*
X125978571Y-113327619D01*
X125502380Y-112660952D02*
X125502380Y-113327619D01*
X125502380Y-112756190D02*
X125454761Y-112708571D01*
X125454761Y-112708571D02*
X125359523Y-112660952D01*
X125359523Y-112660952D02*
X125216666Y-112660952D01*
X125216666Y-112660952D02*
X125121428Y-112708571D01*
X125121428Y-112708571D02*
X125073809Y-112803809D01*
X125073809Y-112803809D02*
X125073809Y-113327619D01*
X124692856Y-112660952D02*
X124454761Y-113327619D01*
X124216666Y-112660952D02*
X124454761Y-113327619D01*
X124454761Y-113327619D02*
X124549999Y-113565714D01*
X124549999Y-113565714D02*
X124597618Y-113613333D01*
X124597618Y-113613333D02*
X124692856Y-113660952D01*
X123645237Y-112851428D02*
X123645237Y-113327619D01*
X123978570Y-112327619D02*
X123645237Y-112851428D01*
X123645237Y-112851428D02*
X123311904Y-112327619D01*
X122835713Y-113327619D02*
X122930951Y-113280000D01*
X122930951Y-113280000D02*
X122978570Y-113232380D01*
X122978570Y-113232380D02*
X123026189Y-113137142D01*
X123026189Y-113137142D02*
X123026189Y-112851428D01*
X123026189Y-112851428D02*
X122978570Y-112756190D01*
X122978570Y-112756190D02*
X122930951Y-112708571D01*
X122930951Y-112708571D02*
X122835713Y-112660952D01*
X122835713Y-112660952D02*
X122692856Y-112660952D01*
X122692856Y-112660952D02*
X122597618Y-112708571D01*
X122597618Y-112708571D02*
X122549999Y-112756190D01*
X122549999Y-112756190D02*
X122502380Y-112851428D01*
X122502380Y-112851428D02*
X122502380Y-113137142D01*
X122502380Y-113137142D02*
X122549999Y-113232380D01*
X122549999Y-113232380D02*
X122597618Y-113280000D01*
X122597618Y-113280000D02*
X122692856Y-113327619D01*
X122692856Y-113327619D02*
X122835713Y-113327619D01*
X122121427Y-113280000D02*
X122026189Y-113327619D01*
X122026189Y-113327619D02*
X121835713Y-113327619D01*
X121835713Y-113327619D02*
X121740475Y-113280000D01*
X121740475Y-113280000D02*
X121692856Y-113184761D01*
X121692856Y-113184761D02*
X121692856Y-113137142D01*
X121692856Y-113137142D02*
X121740475Y-113041904D01*
X121740475Y-113041904D02*
X121835713Y-112994285D01*
X121835713Y-112994285D02*
X121978570Y-112994285D01*
X121978570Y-112994285D02*
X122073808Y-112946666D01*
X122073808Y-112946666D02*
X122121427Y-112851428D01*
X122121427Y-112851428D02*
X122121427Y-112803809D01*
X122121427Y-112803809D02*
X122073808Y-112708571D01*
X122073808Y-112708571D02*
X121978570Y-112660952D01*
X121978570Y-112660952D02*
X121835713Y-112660952D01*
X121835713Y-112660952D02*
X121740475Y-112708571D01*
X121264284Y-113327619D02*
X121264284Y-112327619D01*
X120835713Y-113327619D02*
X120835713Y-112803809D01*
X120835713Y-112803809D02*
X120883332Y-112708571D01*
X120883332Y-112708571D02*
X120978570Y-112660952D01*
X120978570Y-112660952D02*
X121121427Y-112660952D01*
X121121427Y-112660952D02*
X121216665Y-112708571D01*
X121216665Y-112708571D02*
X121264284Y-112756190D01*
X120359522Y-113327619D02*
X120359522Y-112660952D01*
X120359522Y-112327619D02*
X120407141Y-112375238D01*
X120407141Y-112375238D02*
X120359522Y-112422857D01*
X120359522Y-112422857D02*
X120311903Y-112375238D01*
X120311903Y-112375238D02*
X120359522Y-112327619D01*
X120359522Y-112327619D02*
X120359522Y-112422857D01*
X119883332Y-113327619D02*
X119883332Y-112660952D01*
X119883332Y-112756190D02*
X119835713Y-112708571D01*
X119835713Y-112708571D02*
X119740475Y-112660952D01*
X119740475Y-112660952D02*
X119597618Y-112660952D01*
X119597618Y-112660952D02*
X119502380Y-112708571D01*
X119502380Y-112708571D02*
X119454761Y-112803809D01*
X119454761Y-112803809D02*
X119454761Y-113327619D01*
X119454761Y-112803809D02*
X119407142Y-112708571D01*
X119407142Y-112708571D02*
X119311904Y-112660952D01*
X119311904Y-112660952D02*
X119169047Y-112660952D01*
X119169047Y-112660952D02*
X119073808Y-112708571D01*
X119073808Y-112708571D02*
X119026189Y-112803809D01*
X119026189Y-112803809D02*
X119026189Y-113327619D01*
X118549999Y-113327619D02*
X118549999Y-112660952D01*
X118549999Y-112327619D02*
X118597618Y-112375238D01*
X118597618Y-112375238D02*
X118549999Y-112422857D01*
X118549999Y-112422857D02*
X118502380Y-112375238D01*
X118502380Y-112375238D02*
X118549999Y-112327619D01*
X118549999Y-112327619D02*
X118549999Y-112422857D01*
X118216666Y-112660952D02*
X117835714Y-112660952D01*
X118073809Y-112327619D02*
X118073809Y-113184761D01*
X118073809Y-113184761D02*
X118026190Y-113280000D01*
X118026190Y-113280000D02*
X117930952Y-113327619D01*
X117930952Y-113327619D02*
X117835714Y-113327619D01*
X117549999Y-113280000D02*
X117454761Y-113327619D01*
X117454761Y-113327619D02*
X117264285Y-113327619D01*
X117264285Y-113327619D02*
X117169047Y-113280000D01*
X117169047Y-113280000D02*
X117121428Y-113184761D01*
X117121428Y-113184761D02*
X117121428Y-113137142D01*
X117121428Y-113137142D02*
X117169047Y-113041904D01*
X117169047Y-113041904D02*
X117264285Y-112994285D01*
X117264285Y-112994285D02*
X117407142Y-112994285D01*
X117407142Y-112994285D02*
X117502380Y-112946666D01*
X117502380Y-112946666D02*
X117549999Y-112851428D01*
X117549999Y-112851428D02*
X117549999Y-112803809D01*
X117549999Y-112803809D02*
X117502380Y-112708571D01*
X117502380Y-112708571D02*
X117407142Y-112660952D01*
X117407142Y-112660952D02*
X117264285Y-112660952D01*
X117264285Y-112660952D02*
X117169047Y-112708571D01*
X116264285Y-112660952D02*
X116264285Y-113327619D01*
X116692856Y-112660952D02*
X116692856Y-113184761D01*
X116692856Y-113184761D02*
X116645237Y-113280000D01*
X116645237Y-113280000D02*
X116549999Y-113327619D01*
X116549999Y-113327619D02*
X116407142Y-113327619D01*
X116407142Y-113327619D02*
X116311904Y-113280000D01*
X116311904Y-113280000D02*
X116264285Y-113232380D01*
X115073809Y-112280000D02*
X115930951Y-113565714D01*
X114169047Y-113232380D02*
X114216666Y-113280000D01*
X114216666Y-113280000D02*
X114359523Y-113327619D01*
X114359523Y-113327619D02*
X114454761Y-113327619D01*
X114454761Y-113327619D02*
X114597618Y-113280000D01*
X114597618Y-113280000D02*
X114692856Y-113184761D01*
X114692856Y-113184761D02*
X114740475Y-113089523D01*
X114740475Y-113089523D02*
X114788094Y-112899047D01*
X114788094Y-112899047D02*
X114788094Y-112756190D01*
X114788094Y-112756190D02*
X114740475Y-112565714D01*
X114740475Y-112565714D02*
X114692856Y-112470476D01*
X114692856Y-112470476D02*
X114597618Y-112375238D01*
X114597618Y-112375238D02*
X114454761Y-112327619D01*
X114454761Y-112327619D02*
X114359523Y-112327619D01*
X114359523Y-112327619D02*
X114216666Y-112375238D01*
X114216666Y-112375238D02*
X114169047Y-112422857D01*
X113359523Y-113280000D02*
X113454761Y-113327619D01*
X113454761Y-113327619D02*
X113645237Y-113327619D01*
X113645237Y-113327619D02*
X113740475Y-113280000D01*
X113740475Y-113280000D02*
X113788094Y-113184761D01*
X113788094Y-113184761D02*
X113788094Y-112803809D01*
X113788094Y-112803809D02*
X113740475Y-112708571D01*
X113740475Y-112708571D02*
X113645237Y-112660952D01*
X113645237Y-112660952D02*
X113454761Y-112660952D01*
X113454761Y-112660952D02*
X113359523Y-112708571D01*
X113359523Y-112708571D02*
X113311904Y-112803809D01*
X113311904Y-112803809D02*
X113311904Y-112899047D01*
X113311904Y-112899047D02*
X113788094Y-112994285D01*
X112740475Y-113327619D02*
X112835713Y-113280000D01*
X112835713Y-113280000D02*
X112883332Y-113184761D01*
X112883332Y-113184761D02*
X112883332Y-112327619D01*
X111978570Y-113280000D02*
X112073808Y-113327619D01*
X112073808Y-113327619D02*
X112264284Y-113327619D01*
X112264284Y-113327619D02*
X112359522Y-113280000D01*
X112359522Y-113280000D02*
X112407141Y-113184761D01*
X112407141Y-113184761D02*
X112407141Y-112803809D01*
X112407141Y-112803809D02*
X112359522Y-112708571D01*
X112359522Y-112708571D02*
X112264284Y-112660952D01*
X112264284Y-112660952D02*
X112073808Y-112660952D01*
X112073808Y-112660952D02*
X111978570Y-112708571D01*
X111978570Y-112708571D02*
X111930951Y-112803809D01*
X111930951Y-112803809D02*
X111930951Y-112899047D01*
X111930951Y-112899047D02*
X112407141Y-112994285D01*
X111549998Y-113280000D02*
X111454760Y-113327619D01*
X111454760Y-113327619D02*
X111264284Y-113327619D01*
X111264284Y-113327619D02*
X111169046Y-113280000D01*
X111169046Y-113280000D02*
X111121427Y-113184761D01*
X111121427Y-113184761D02*
X111121427Y-113137142D01*
X111121427Y-113137142D02*
X111169046Y-113041904D01*
X111169046Y-113041904D02*
X111264284Y-112994285D01*
X111264284Y-112994285D02*
X111407141Y-112994285D01*
X111407141Y-112994285D02*
X111502379Y-112946666D01*
X111502379Y-112946666D02*
X111549998Y-112851428D01*
X111549998Y-112851428D02*
X111549998Y-112803809D01*
X111549998Y-112803809D02*
X111502379Y-112708571D01*
X111502379Y-112708571D02*
X111407141Y-112660952D01*
X111407141Y-112660952D02*
X111264284Y-112660952D01*
X111264284Y-112660952D02*
X111169046Y-112708571D01*
X110835712Y-112660952D02*
X110454760Y-112660952D01*
X110692855Y-112327619D02*
X110692855Y-113184761D01*
X110692855Y-113184761D02*
X110645236Y-113280000D01*
X110645236Y-113280000D02*
X110549998Y-113327619D01*
X110549998Y-113327619D02*
X110454760Y-113327619D01*
X110121426Y-113327619D02*
X110121426Y-112660952D01*
X110121426Y-112327619D02*
X110169045Y-112375238D01*
X110169045Y-112375238D02*
X110121426Y-112422857D01*
X110121426Y-112422857D02*
X110073807Y-112375238D01*
X110073807Y-112375238D02*
X110121426Y-112327619D01*
X110121426Y-112327619D02*
X110121426Y-112422857D01*
X109073808Y-113232380D02*
X109121427Y-113280000D01*
X109121427Y-113280000D02*
X109264284Y-113327619D01*
X109264284Y-113327619D02*
X109359522Y-113327619D01*
X109359522Y-113327619D02*
X109502379Y-113280000D01*
X109502379Y-113280000D02*
X109597617Y-113184761D01*
X109597617Y-113184761D02*
X109645236Y-113089523D01*
X109645236Y-113089523D02*
X109692855Y-112899047D01*
X109692855Y-112899047D02*
X109692855Y-112756190D01*
X109692855Y-112756190D02*
X109645236Y-112565714D01*
X109645236Y-112565714D02*
X109597617Y-112470476D01*
X109597617Y-112470476D02*
X109502379Y-112375238D01*
X109502379Y-112375238D02*
X109359522Y-112327619D01*
X109359522Y-112327619D02*
X109264284Y-112327619D01*
X109264284Y-112327619D02*
X109121427Y-112375238D01*
X109121427Y-112375238D02*
X109073808Y-112422857D01*
X108216665Y-113327619D02*
X108216665Y-112803809D01*
X108216665Y-112803809D02*
X108264284Y-112708571D01*
X108264284Y-112708571D02*
X108359522Y-112660952D01*
X108359522Y-112660952D02*
X108549998Y-112660952D01*
X108549998Y-112660952D02*
X108645236Y-112708571D01*
X108216665Y-113280000D02*
X108311903Y-113327619D01*
X108311903Y-113327619D02*
X108549998Y-113327619D01*
X108549998Y-113327619D02*
X108645236Y-113280000D01*
X108645236Y-113280000D02*
X108692855Y-113184761D01*
X108692855Y-113184761D02*
X108692855Y-113089523D01*
X108692855Y-113089523D02*
X108645236Y-112994285D01*
X108645236Y-112994285D02*
X108549998Y-112946666D01*
X108549998Y-112946666D02*
X108311903Y-112946666D01*
X108311903Y-112946666D02*
X108216665Y-112899047D01*
X107597617Y-113327619D02*
X107692855Y-113280000D01*
X107692855Y-113280000D02*
X107740474Y-113184761D01*
X107740474Y-113184761D02*
X107740474Y-112327619D01*
X107073807Y-113327619D02*
X107169045Y-113280000D01*
X107169045Y-113280000D02*
X107216664Y-113184761D01*
X107216664Y-113184761D02*
X107216664Y-112327619D01*
X135311904Y-114947619D02*
X135311904Y-113947619D01*
X135311904Y-113947619D02*
X135073809Y-113947619D01*
X135073809Y-113947619D02*
X134930952Y-113995238D01*
X134930952Y-113995238D02*
X134835714Y-114090476D01*
X134835714Y-114090476D02*
X134788095Y-114185714D01*
X134788095Y-114185714D02*
X134740476Y-114376190D01*
X134740476Y-114376190D02*
X134740476Y-114519047D01*
X134740476Y-114519047D02*
X134788095Y-114709523D01*
X134788095Y-114709523D02*
X134835714Y-114804761D01*
X134835714Y-114804761D02*
X134930952Y-114900000D01*
X134930952Y-114900000D02*
X135073809Y-114947619D01*
X135073809Y-114947619D02*
X135311904Y-114947619D01*
X133883333Y-114280952D02*
X133883333Y-114947619D01*
X134311904Y-114280952D02*
X134311904Y-114804761D01*
X134311904Y-114804761D02*
X134264285Y-114900000D01*
X134264285Y-114900000D02*
X134169047Y-114947619D01*
X134169047Y-114947619D02*
X134026190Y-114947619D01*
X134026190Y-114947619D02*
X133930952Y-114900000D01*
X133930952Y-114900000D02*
X133883333Y-114852380D01*
X132978571Y-114947619D02*
X132978571Y-114423809D01*
X132978571Y-114423809D02*
X133026190Y-114328571D01*
X133026190Y-114328571D02*
X133121428Y-114280952D01*
X133121428Y-114280952D02*
X133311904Y-114280952D01*
X133311904Y-114280952D02*
X133407142Y-114328571D01*
X132978571Y-114900000D02*
X133073809Y-114947619D01*
X133073809Y-114947619D02*
X133311904Y-114947619D01*
X133311904Y-114947619D02*
X133407142Y-114900000D01*
X133407142Y-114900000D02*
X133454761Y-114804761D01*
X133454761Y-114804761D02*
X133454761Y-114709523D01*
X133454761Y-114709523D02*
X133407142Y-114614285D01*
X133407142Y-114614285D02*
X133311904Y-114566666D01*
X133311904Y-114566666D02*
X133073809Y-114566666D01*
X133073809Y-114566666D02*
X132978571Y-114519047D01*
X132359523Y-114947619D02*
X132454761Y-114900000D01*
X132454761Y-114900000D02*
X132502380Y-114804761D01*
X132502380Y-114804761D02*
X132502380Y-113947619D01*
X130788094Y-114900000D02*
X130883332Y-114947619D01*
X130883332Y-114947619D02*
X131073808Y-114947619D01*
X131073808Y-114947619D02*
X131169046Y-114900000D01*
X131169046Y-114900000D02*
X131216665Y-114852380D01*
X131216665Y-114852380D02*
X131264284Y-114757142D01*
X131264284Y-114757142D02*
X131264284Y-114471428D01*
X131264284Y-114471428D02*
X131216665Y-114376190D01*
X131216665Y-114376190D02*
X131169046Y-114328571D01*
X131169046Y-114328571D02*
X131073808Y-114280952D01*
X131073808Y-114280952D02*
X130883332Y-114280952D01*
X130883332Y-114280952D02*
X130788094Y-114328571D01*
X130216665Y-114947619D02*
X130311903Y-114900000D01*
X130311903Y-114900000D02*
X130359522Y-114852380D01*
X130359522Y-114852380D02*
X130407141Y-114757142D01*
X130407141Y-114757142D02*
X130407141Y-114471428D01*
X130407141Y-114471428D02*
X130359522Y-114376190D01*
X130359522Y-114376190D02*
X130311903Y-114328571D01*
X130311903Y-114328571D02*
X130216665Y-114280952D01*
X130216665Y-114280952D02*
X130073808Y-114280952D01*
X130073808Y-114280952D02*
X129978570Y-114328571D01*
X129978570Y-114328571D02*
X129930951Y-114376190D01*
X129930951Y-114376190D02*
X129883332Y-114471428D01*
X129883332Y-114471428D02*
X129883332Y-114757142D01*
X129883332Y-114757142D02*
X129930951Y-114852380D01*
X129930951Y-114852380D02*
X129978570Y-114900000D01*
X129978570Y-114900000D02*
X130073808Y-114947619D01*
X130073808Y-114947619D02*
X130216665Y-114947619D01*
X129454760Y-114947619D02*
X129454760Y-114280952D01*
X129454760Y-114471428D02*
X129407141Y-114376190D01*
X129407141Y-114376190D02*
X129359522Y-114328571D01*
X129359522Y-114328571D02*
X129264284Y-114280952D01*
X129264284Y-114280952D02*
X129169046Y-114280952D01*
X128454760Y-114900000D02*
X128549998Y-114947619D01*
X128549998Y-114947619D02*
X128740474Y-114947619D01*
X128740474Y-114947619D02*
X128835712Y-114900000D01*
X128835712Y-114900000D02*
X128883331Y-114804761D01*
X128883331Y-114804761D02*
X128883331Y-114423809D01*
X128883331Y-114423809D02*
X128835712Y-114328571D01*
X128835712Y-114328571D02*
X128740474Y-114280952D01*
X128740474Y-114280952D02*
X128549998Y-114280952D01*
X128549998Y-114280952D02*
X128454760Y-114328571D01*
X128454760Y-114328571D02*
X128407141Y-114423809D01*
X128407141Y-114423809D02*
X128407141Y-114519047D01*
X128407141Y-114519047D02*
X128883331Y-114614285D01*
X127264283Y-114661904D02*
X126788093Y-114661904D01*
X127359521Y-114947619D02*
X127026188Y-113947619D01*
X127026188Y-113947619D02*
X126692855Y-114947619D01*
X125788093Y-114947619D02*
X126121426Y-114471428D01*
X126359521Y-114947619D02*
X126359521Y-113947619D01*
X126359521Y-113947619D02*
X125978569Y-113947619D01*
X125978569Y-113947619D02*
X125883331Y-113995238D01*
X125883331Y-113995238D02*
X125835712Y-114042857D01*
X125835712Y-114042857D02*
X125788093Y-114138095D01*
X125788093Y-114138095D02*
X125788093Y-114280952D01*
X125788093Y-114280952D02*
X125835712Y-114376190D01*
X125835712Y-114376190D02*
X125883331Y-114423809D01*
X125883331Y-114423809D02*
X125978569Y-114471428D01*
X125978569Y-114471428D02*
X126359521Y-114471428D01*
X125359521Y-114947619D02*
X125359521Y-113947619D01*
X125359521Y-113947619D02*
X125026188Y-114661904D01*
X125026188Y-114661904D02*
X124692855Y-113947619D01*
X124692855Y-113947619D02*
X124692855Y-114947619D01*
X122883331Y-114852380D02*
X122930950Y-114900000D01*
X122930950Y-114900000D02*
X123073807Y-114947619D01*
X123073807Y-114947619D02*
X123169045Y-114947619D01*
X123169045Y-114947619D02*
X123311902Y-114900000D01*
X123311902Y-114900000D02*
X123407140Y-114804761D01*
X123407140Y-114804761D02*
X123454759Y-114709523D01*
X123454759Y-114709523D02*
X123502378Y-114519047D01*
X123502378Y-114519047D02*
X123502378Y-114376190D01*
X123502378Y-114376190D02*
X123454759Y-114185714D01*
X123454759Y-114185714D02*
X123407140Y-114090476D01*
X123407140Y-114090476D02*
X123311902Y-113995238D01*
X123311902Y-113995238D02*
X123169045Y-113947619D01*
X123169045Y-113947619D02*
X123073807Y-113947619D01*
X123073807Y-113947619D02*
X122930950Y-113995238D01*
X122930950Y-113995238D02*
X122883331Y-114042857D01*
X122311902Y-114947619D02*
X122407140Y-114900000D01*
X122407140Y-114900000D02*
X122454759Y-114852380D01*
X122454759Y-114852380D02*
X122502378Y-114757142D01*
X122502378Y-114757142D02*
X122502378Y-114471428D01*
X122502378Y-114471428D02*
X122454759Y-114376190D01*
X122454759Y-114376190D02*
X122407140Y-114328571D01*
X122407140Y-114328571D02*
X122311902Y-114280952D01*
X122311902Y-114280952D02*
X122169045Y-114280952D01*
X122169045Y-114280952D02*
X122073807Y-114328571D01*
X122073807Y-114328571D02*
X122026188Y-114376190D01*
X122026188Y-114376190D02*
X121978569Y-114471428D01*
X121978569Y-114471428D02*
X121978569Y-114757142D01*
X121978569Y-114757142D02*
X122026188Y-114852380D01*
X122026188Y-114852380D02*
X122073807Y-114900000D01*
X122073807Y-114900000D02*
X122169045Y-114947619D01*
X122169045Y-114947619D02*
X122311902Y-114947619D01*
X121549997Y-114947619D02*
X121549997Y-114280952D01*
X121549997Y-114471428D02*
X121502378Y-114376190D01*
X121502378Y-114376190D02*
X121454759Y-114328571D01*
X121454759Y-114328571D02*
X121359521Y-114280952D01*
X121359521Y-114280952D02*
X121264283Y-114280952D01*
X121073806Y-114280952D02*
X120692854Y-114280952D01*
X120930949Y-113947619D02*
X120930949Y-114804761D01*
X120930949Y-114804761D02*
X120883330Y-114900000D01*
X120883330Y-114900000D02*
X120788092Y-114947619D01*
X120788092Y-114947619D02*
X120692854Y-114947619D01*
X119978568Y-114900000D02*
X120073806Y-114947619D01*
X120073806Y-114947619D02*
X120264282Y-114947619D01*
X120264282Y-114947619D02*
X120359520Y-114900000D01*
X120359520Y-114900000D02*
X120407139Y-114804761D01*
X120407139Y-114804761D02*
X120407139Y-114423809D01*
X120407139Y-114423809D02*
X120359520Y-114328571D01*
X120359520Y-114328571D02*
X120264282Y-114280952D01*
X120264282Y-114280952D02*
X120073806Y-114280952D01*
X120073806Y-114280952D02*
X119978568Y-114328571D01*
X119978568Y-114328571D02*
X119930949Y-114423809D01*
X119930949Y-114423809D02*
X119930949Y-114519047D01*
X119930949Y-114519047D02*
X120407139Y-114614285D01*
X119597615Y-114947619D02*
X119073806Y-114280952D01*
X119597615Y-114280952D02*
X119073806Y-114947619D01*
X117978567Y-114661904D02*
X117502377Y-114661904D01*
X118073805Y-114947619D02*
X117740472Y-113947619D01*
X117740472Y-113947619D02*
X117407139Y-114947619D01*
X117026186Y-114947619D02*
X116835710Y-114947619D01*
X116835710Y-114947619D02*
X116740472Y-114900000D01*
X116740472Y-114900000D02*
X116692853Y-114852380D01*
X116692853Y-114852380D02*
X116597615Y-114709523D01*
X116597615Y-114709523D02*
X116549996Y-114519047D01*
X116549996Y-114519047D02*
X116549996Y-114138095D01*
X116549996Y-114138095D02*
X116597615Y-114042857D01*
X116597615Y-114042857D02*
X116645234Y-113995238D01*
X116645234Y-113995238D02*
X116740472Y-113947619D01*
X116740472Y-113947619D02*
X116930948Y-113947619D01*
X116930948Y-113947619D02*
X117026186Y-113995238D01*
X117026186Y-113995238D02*
X117073805Y-114042857D01*
X117073805Y-114042857D02*
X117121424Y-114138095D01*
X117121424Y-114138095D02*
X117121424Y-114376190D01*
X117121424Y-114376190D02*
X117073805Y-114471428D01*
X117073805Y-114471428D02*
X117026186Y-114519047D01*
X117026186Y-114519047D02*
X116930948Y-114566666D01*
X116930948Y-114566666D02*
X116740472Y-114566666D01*
X116740472Y-114566666D02*
X116645234Y-114519047D01*
X116645234Y-114519047D02*
X116597615Y-114471428D01*
X116597615Y-114471428D02*
X116549996Y-114376190D01*
X134788095Y-116567619D02*
X135359523Y-116567619D01*
X135073809Y-116567619D02*
X135073809Y-115567619D01*
X135073809Y-115567619D02*
X135169047Y-115710476D01*
X135169047Y-115710476D02*
X135264285Y-115805714D01*
X135264285Y-115805714D02*
X135359523Y-115853333D01*
X133835714Y-115615238D02*
X133930952Y-115567619D01*
X133930952Y-115567619D02*
X134073809Y-115567619D01*
X134073809Y-115567619D02*
X134216666Y-115615238D01*
X134216666Y-115615238D02*
X134311904Y-115710476D01*
X134311904Y-115710476D02*
X134359523Y-115805714D01*
X134359523Y-115805714D02*
X134407142Y-115996190D01*
X134407142Y-115996190D02*
X134407142Y-116139047D01*
X134407142Y-116139047D02*
X134359523Y-116329523D01*
X134359523Y-116329523D02*
X134311904Y-116424761D01*
X134311904Y-116424761D02*
X134216666Y-116520000D01*
X134216666Y-116520000D02*
X134073809Y-116567619D01*
X134073809Y-116567619D02*
X133978571Y-116567619D01*
X133978571Y-116567619D02*
X133835714Y-116520000D01*
X133835714Y-116520000D02*
X133788095Y-116472380D01*
X133788095Y-116472380D02*
X133788095Y-116139047D01*
X133788095Y-116139047D02*
X133978571Y-116139047D01*
X133026190Y-116043809D02*
X132883333Y-116091428D01*
X132883333Y-116091428D02*
X132835714Y-116139047D01*
X132835714Y-116139047D02*
X132788095Y-116234285D01*
X132788095Y-116234285D02*
X132788095Y-116377142D01*
X132788095Y-116377142D02*
X132835714Y-116472380D01*
X132835714Y-116472380D02*
X132883333Y-116520000D01*
X132883333Y-116520000D02*
X132978571Y-116567619D01*
X132978571Y-116567619D02*
X133359523Y-116567619D01*
X133359523Y-116567619D02*
X133359523Y-115567619D01*
X133359523Y-115567619D02*
X133026190Y-115567619D01*
X133026190Y-115567619D02*
X132930952Y-115615238D01*
X132930952Y-115615238D02*
X132883333Y-115662857D01*
X132883333Y-115662857D02*
X132835714Y-115758095D01*
X132835714Y-115758095D02*
X132835714Y-115853333D01*
X132835714Y-115853333D02*
X132883333Y-115948571D01*
X132883333Y-115948571D02*
X132930952Y-115996190D01*
X132930952Y-115996190D02*
X133026190Y-116043809D01*
X133026190Y-116043809D02*
X133359523Y-116043809D01*
X131026190Y-116567619D02*
X131359523Y-116091428D01*
X131597618Y-116567619D02*
X131597618Y-115567619D01*
X131597618Y-115567619D02*
X131216666Y-115567619D01*
X131216666Y-115567619D02*
X131121428Y-115615238D01*
X131121428Y-115615238D02*
X131073809Y-115662857D01*
X131073809Y-115662857D02*
X131026190Y-115758095D01*
X131026190Y-115758095D02*
X131026190Y-115900952D01*
X131026190Y-115900952D02*
X131073809Y-115996190D01*
X131073809Y-115996190D02*
X131121428Y-116043809D01*
X131121428Y-116043809D02*
X131216666Y-116091428D01*
X131216666Y-116091428D02*
X131597618Y-116091428D01*
X130645237Y-116281904D02*
X130169047Y-116281904D01*
X130740475Y-116567619D02*
X130407142Y-115567619D01*
X130407142Y-115567619D02*
X130073809Y-116567619D01*
X129740475Y-116567619D02*
X129740475Y-115567619D01*
X129740475Y-115567619D02*
X129407142Y-116281904D01*
X129407142Y-116281904D02*
X129073809Y-115567619D01*
X129073809Y-115567619D02*
X129073809Y-116567619D01*
X135407142Y-117187619D02*
X134788095Y-117187619D01*
X134788095Y-117187619D02*
X135121428Y-117568571D01*
X135121428Y-117568571D02*
X134978571Y-117568571D01*
X134978571Y-117568571D02*
X134883333Y-117616190D01*
X134883333Y-117616190D02*
X134835714Y-117663809D01*
X134835714Y-117663809D02*
X134788095Y-117759047D01*
X134788095Y-117759047D02*
X134788095Y-117997142D01*
X134788095Y-117997142D02*
X134835714Y-118092380D01*
X134835714Y-118092380D02*
X134883333Y-118140000D01*
X134883333Y-118140000D02*
X134978571Y-118187619D01*
X134978571Y-118187619D02*
X135264285Y-118187619D01*
X135264285Y-118187619D02*
X135359523Y-118140000D01*
X135359523Y-118140000D02*
X135407142Y-118092380D01*
X134407142Y-117282857D02*
X134359523Y-117235238D01*
X134359523Y-117235238D02*
X134264285Y-117187619D01*
X134264285Y-117187619D02*
X134026190Y-117187619D01*
X134026190Y-117187619D02*
X133930952Y-117235238D01*
X133930952Y-117235238D02*
X133883333Y-117282857D01*
X133883333Y-117282857D02*
X133835714Y-117378095D01*
X133835714Y-117378095D02*
X133835714Y-117473333D01*
X133835714Y-117473333D02*
X133883333Y-117616190D01*
X133883333Y-117616190D02*
X134454761Y-118187619D01*
X134454761Y-118187619D02*
X133835714Y-118187619D01*
X133407142Y-118187619D02*
X133407142Y-117187619D01*
X133407142Y-117187619D02*
X133073809Y-117901904D01*
X133073809Y-117901904D02*
X132740476Y-117187619D01*
X132740476Y-117187619D02*
X132740476Y-118187619D01*
X131930952Y-117663809D02*
X131788095Y-117711428D01*
X131788095Y-117711428D02*
X131740476Y-117759047D01*
X131740476Y-117759047D02*
X131692857Y-117854285D01*
X131692857Y-117854285D02*
X131692857Y-117997142D01*
X131692857Y-117997142D02*
X131740476Y-118092380D01*
X131740476Y-118092380D02*
X131788095Y-118140000D01*
X131788095Y-118140000D02*
X131883333Y-118187619D01*
X131883333Y-118187619D02*
X132264285Y-118187619D01*
X132264285Y-118187619D02*
X132264285Y-117187619D01*
X132264285Y-117187619D02*
X131930952Y-117187619D01*
X131930952Y-117187619D02*
X131835714Y-117235238D01*
X131835714Y-117235238D02*
X131788095Y-117282857D01*
X131788095Y-117282857D02*
X131740476Y-117378095D01*
X131740476Y-117378095D02*
X131740476Y-117473333D01*
X131740476Y-117473333D02*
X131788095Y-117568571D01*
X131788095Y-117568571D02*
X131835714Y-117616190D01*
X131835714Y-117616190D02*
X131930952Y-117663809D01*
X131930952Y-117663809D02*
X132264285Y-117663809D01*
X129930952Y-118187619D02*
X130264285Y-117711428D01*
X130502380Y-118187619D02*
X130502380Y-117187619D01*
X130502380Y-117187619D02*
X130121428Y-117187619D01*
X130121428Y-117187619D02*
X130026190Y-117235238D01*
X130026190Y-117235238D02*
X129978571Y-117282857D01*
X129978571Y-117282857D02*
X129930952Y-117378095D01*
X129930952Y-117378095D02*
X129930952Y-117520952D01*
X129930952Y-117520952D02*
X129978571Y-117616190D01*
X129978571Y-117616190D02*
X130026190Y-117663809D01*
X130026190Y-117663809D02*
X130121428Y-117711428D01*
X130121428Y-117711428D02*
X130502380Y-117711428D01*
X129311904Y-117187619D02*
X129121428Y-117187619D01*
X129121428Y-117187619D02*
X129026190Y-117235238D01*
X129026190Y-117235238D02*
X128930952Y-117330476D01*
X128930952Y-117330476D02*
X128883333Y-117520952D01*
X128883333Y-117520952D02*
X128883333Y-117854285D01*
X128883333Y-117854285D02*
X128930952Y-118044761D01*
X128930952Y-118044761D02*
X129026190Y-118140000D01*
X129026190Y-118140000D02*
X129121428Y-118187619D01*
X129121428Y-118187619D02*
X129311904Y-118187619D01*
X129311904Y-118187619D02*
X129407142Y-118140000D01*
X129407142Y-118140000D02*
X129502380Y-118044761D01*
X129502380Y-118044761D02*
X129549999Y-117854285D01*
X129549999Y-117854285D02*
X129549999Y-117520952D01*
X129549999Y-117520952D02*
X129502380Y-117330476D01*
X129502380Y-117330476D02*
X129407142Y-117235238D01*
X129407142Y-117235238D02*
X129311904Y-117187619D01*
X128454761Y-118187619D02*
X128454761Y-117187619D01*
X128454761Y-117187619D02*
X128121428Y-117901904D01*
X128121428Y-117901904D02*
X127788095Y-117187619D01*
X127788095Y-117187619D02*
X127788095Y-118187619D01*
X134883333Y-119140952D02*
X134883333Y-119807619D01*
X135121428Y-118760000D02*
X135359523Y-119474285D01*
X135359523Y-119474285D02*
X134740476Y-119474285D01*
X133835714Y-118855238D02*
X133930952Y-118807619D01*
X133930952Y-118807619D02*
X134073809Y-118807619D01*
X134073809Y-118807619D02*
X134216666Y-118855238D01*
X134216666Y-118855238D02*
X134311904Y-118950476D01*
X134311904Y-118950476D02*
X134359523Y-119045714D01*
X134359523Y-119045714D02*
X134407142Y-119236190D01*
X134407142Y-119236190D02*
X134407142Y-119379047D01*
X134407142Y-119379047D02*
X134359523Y-119569523D01*
X134359523Y-119569523D02*
X134311904Y-119664761D01*
X134311904Y-119664761D02*
X134216666Y-119760000D01*
X134216666Y-119760000D02*
X134073809Y-119807619D01*
X134073809Y-119807619D02*
X133978571Y-119807619D01*
X133978571Y-119807619D02*
X133835714Y-119760000D01*
X133835714Y-119760000D02*
X133788095Y-119712380D01*
X133788095Y-119712380D02*
X133788095Y-119379047D01*
X133788095Y-119379047D02*
X133978571Y-119379047D01*
X132169047Y-119760000D02*
X132264285Y-119807619D01*
X132264285Y-119807619D02*
X132454761Y-119807619D01*
X132454761Y-119807619D02*
X132549999Y-119760000D01*
X132549999Y-119760000D02*
X132597618Y-119712380D01*
X132597618Y-119712380D02*
X132645237Y-119617142D01*
X132645237Y-119617142D02*
X132645237Y-119331428D01*
X132645237Y-119331428D02*
X132597618Y-119236190D01*
X132597618Y-119236190D02*
X132549999Y-119188571D01*
X132549999Y-119188571D02*
X132454761Y-119140952D01*
X132454761Y-119140952D02*
X132264285Y-119140952D01*
X132264285Y-119140952D02*
X132169047Y-119188571D01*
X131597618Y-119807619D02*
X131692856Y-119760000D01*
X131692856Y-119760000D02*
X131740475Y-119712380D01*
X131740475Y-119712380D02*
X131788094Y-119617142D01*
X131788094Y-119617142D02*
X131788094Y-119331428D01*
X131788094Y-119331428D02*
X131740475Y-119236190D01*
X131740475Y-119236190D02*
X131692856Y-119188571D01*
X131692856Y-119188571D02*
X131597618Y-119140952D01*
X131597618Y-119140952D02*
X131454761Y-119140952D01*
X131454761Y-119140952D02*
X131359523Y-119188571D01*
X131359523Y-119188571D02*
X131311904Y-119236190D01*
X131311904Y-119236190D02*
X131264285Y-119331428D01*
X131264285Y-119331428D02*
X131264285Y-119617142D01*
X131264285Y-119617142D02*
X131311904Y-119712380D01*
X131311904Y-119712380D02*
X131359523Y-119760000D01*
X131359523Y-119760000D02*
X131454761Y-119807619D01*
X131454761Y-119807619D02*
X131597618Y-119807619D01*
X130835713Y-119807619D02*
X130835713Y-119140952D01*
X130835713Y-119236190D02*
X130788094Y-119188571D01*
X130788094Y-119188571D02*
X130692856Y-119140952D01*
X130692856Y-119140952D02*
X130549999Y-119140952D01*
X130549999Y-119140952D02*
X130454761Y-119188571D01*
X130454761Y-119188571D02*
X130407142Y-119283809D01*
X130407142Y-119283809D02*
X130407142Y-119807619D01*
X130407142Y-119283809D02*
X130359523Y-119188571D01*
X130359523Y-119188571D02*
X130264285Y-119140952D01*
X130264285Y-119140952D02*
X130121428Y-119140952D01*
X130121428Y-119140952D02*
X130026189Y-119188571D01*
X130026189Y-119188571D02*
X129978570Y-119283809D01*
X129978570Y-119283809D02*
X129978570Y-119807619D01*
X129502380Y-119807619D02*
X129502380Y-119140952D01*
X129502380Y-119236190D02*
X129454761Y-119188571D01*
X129454761Y-119188571D02*
X129359523Y-119140952D01*
X129359523Y-119140952D02*
X129216666Y-119140952D01*
X129216666Y-119140952D02*
X129121428Y-119188571D01*
X129121428Y-119188571D02*
X129073809Y-119283809D01*
X129073809Y-119283809D02*
X129073809Y-119807619D01*
X129073809Y-119283809D02*
X129026190Y-119188571D01*
X129026190Y-119188571D02*
X128930952Y-119140952D01*
X128930952Y-119140952D02*
X128788095Y-119140952D01*
X128788095Y-119140952D02*
X128692856Y-119188571D01*
X128692856Y-119188571D02*
X128645237Y-119283809D01*
X128645237Y-119283809D02*
X128645237Y-119807619D01*
X128169047Y-119712380D02*
X128121428Y-119760000D01*
X128121428Y-119760000D02*
X128169047Y-119807619D01*
X128169047Y-119807619D02*
X128216666Y-119760000D01*
X128216666Y-119760000D02*
X128169047Y-119712380D01*
X128169047Y-119712380D02*
X128169047Y-119807619D01*
X127645238Y-119760000D02*
X127645238Y-119807619D01*
X127645238Y-119807619D02*
X127692857Y-119902857D01*
X127692857Y-119902857D02*
X127740476Y-119950476D01*
X126550000Y-118807619D02*
X126311905Y-119807619D01*
X126311905Y-119807619D02*
X126121429Y-119093333D01*
X126121429Y-119093333D02*
X125930953Y-119807619D01*
X125930953Y-119807619D02*
X125692858Y-118807619D01*
X125311905Y-119807619D02*
X125311905Y-119140952D01*
X125311905Y-118807619D02*
X125359524Y-118855238D01*
X125359524Y-118855238D02*
X125311905Y-118902857D01*
X125311905Y-118902857D02*
X125264286Y-118855238D01*
X125264286Y-118855238D02*
X125311905Y-118807619D01*
X125311905Y-118807619D02*
X125311905Y-118902857D01*
X124502382Y-119283809D02*
X124835715Y-119283809D01*
X124835715Y-119807619D02*
X124835715Y-118807619D01*
X124835715Y-118807619D02*
X124359525Y-118807619D01*
X123978572Y-119807619D02*
X123978572Y-119140952D01*
X123978572Y-118807619D02*
X124026191Y-118855238D01*
X124026191Y-118855238D02*
X123978572Y-118902857D01*
X123978572Y-118902857D02*
X123930953Y-118855238D01*
X123930953Y-118855238D02*
X123978572Y-118807619D01*
X123978572Y-118807619D02*
X123978572Y-118902857D01*
X122311906Y-119140952D02*
X122311906Y-119807619D01*
X122550001Y-118760000D02*
X122788096Y-119474285D01*
X122788096Y-119474285D02*
X122169049Y-119474285D01*
X121740477Y-119760000D02*
X121740477Y-119807619D01*
X121740477Y-119807619D02*
X121788096Y-119902857D01*
X121788096Y-119902857D02*
X121835715Y-119950476D01*
X120216668Y-119283809D02*
X120073811Y-119331428D01*
X120073811Y-119331428D02*
X120026192Y-119379047D01*
X120026192Y-119379047D02*
X119978573Y-119474285D01*
X119978573Y-119474285D02*
X119978573Y-119617142D01*
X119978573Y-119617142D02*
X120026192Y-119712380D01*
X120026192Y-119712380D02*
X120073811Y-119760000D01*
X120073811Y-119760000D02*
X120169049Y-119807619D01*
X120169049Y-119807619D02*
X120550001Y-119807619D01*
X120550001Y-119807619D02*
X120550001Y-118807619D01*
X120550001Y-118807619D02*
X120216668Y-118807619D01*
X120216668Y-118807619D02*
X120121430Y-118855238D01*
X120121430Y-118855238D02*
X120073811Y-118902857D01*
X120073811Y-118902857D02*
X120026192Y-118998095D01*
X120026192Y-118998095D02*
X120026192Y-119093333D01*
X120026192Y-119093333D02*
X120073811Y-119188571D01*
X120073811Y-119188571D02*
X120121430Y-119236190D01*
X120121430Y-119236190D02*
X120216668Y-119283809D01*
X120216668Y-119283809D02*
X120550001Y-119283809D01*
X119073811Y-119807619D02*
X119550001Y-119807619D01*
X119550001Y-119807619D02*
X119550001Y-118807619D01*
X118740477Y-119283809D02*
X118407144Y-119283809D01*
X118264287Y-119807619D02*
X118740477Y-119807619D01*
X118740477Y-119807619D02*
X118740477Y-118807619D01*
X118740477Y-118807619D02*
X118264287Y-118807619D01*
X116597620Y-118807619D02*
X117073810Y-118807619D01*
X117073810Y-118807619D02*
X117121429Y-119283809D01*
X117121429Y-119283809D02*
X117073810Y-119236190D01*
X117073810Y-119236190D02*
X116978572Y-119188571D01*
X116978572Y-119188571D02*
X116740477Y-119188571D01*
X116740477Y-119188571D02*
X116645239Y-119236190D01*
X116645239Y-119236190D02*
X116597620Y-119283809D01*
X116597620Y-119283809D02*
X116550001Y-119379047D01*
X116550001Y-119379047D02*
X116550001Y-119617142D01*
X116550001Y-119617142D02*
X116597620Y-119712380D01*
X116597620Y-119712380D02*
X116645239Y-119760000D01*
X116645239Y-119760000D02*
X116740477Y-119807619D01*
X116740477Y-119807619D02*
X116978572Y-119807619D01*
X116978572Y-119807619D02*
X117073810Y-119760000D01*
X117073810Y-119760000D02*
X117121429Y-119712380D01*
X111179523Y-79840000D02*
X111036666Y-79887619D01*
X111036666Y-79887619D02*
X110798571Y-79887619D01*
X110798571Y-79887619D02*
X110703333Y-79840000D01*
X110703333Y-79840000D02*
X110655714Y-79792380D01*
X110655714Y-79792380D02*
X110608095Y-79697142D01*
X110608095Y-79697142D02*
X110608095Y-79601904D01*
X110608095Y-79601904D02*
X110655714Y-79506666D01*
X110655714Y-79506666D02*
X110703333Y-79459047D01*
X110703333Y-79459047D02*
X110798571Y-79411428D01*
X110798571Y-79411428D02*
X110989047Y-79363809D01*
X110989047Y-79363809D02*
X111084285Y-79316190D01*
X111084285Y-79316190D02*
X111131904Y-79268571D01*
X111131904Y-79268571D02*
X111179523Y-79173333D01*
X111179523Y-79173333D02*
X111179523Y-79078095D01*
X111179523Y-79078095D02*
X111131904Y-78982857D01*
X111131904Y-78982857D02*
X111084285Y-78935238D01*
X111084285Y-78935238D02*
X110989047Y-78887619D01*
X110989047Y-78887619D02*
X110750952Y-78887619D01*
X110750952Y-78887619D02*
X110608095Y-78935238D01*
X110179523Y-79887619D02*
X110179523Y-78887619D01*
X110179523Y-78887619D02*
X109941428Y-78887619D01*
X109941428Y-78887619D02*
X109798571Y-78935238D01*
X109798571Y-78935238D02*
X109703333Y-79030476D01*
X109703333Y-79030476D02*
X109655714Y-79125714D01*
X109655714Y-79125714D02*
X109608095Y-79316190D01*
X109608095Y-79316190D02*
X109608095Y-79459047D01*
X109608095Y-79459047D02*
X109655714Y-79649523D01*
X109655714Y-79649523D02*
X109703333Y-79744761D01*
X109703333Y-79744761D02*
X109798571Y-79840000D01*
X109798571Y-79840000D02*
X109941428Y-79887619D01*
X109941428Y-79887619D02*
X110179523Y-79887619D01*
X108560475Y-78982857D02*
X108369999Y-78840000D01*
X108369999Y-78840000D02*
X108179523Y-78982857D01*
X111586190Y-158778571D02*
X111586190Y-159111904D01*
X111062380Y-159111904D02*
X112062380Y-159111904D01*
X112062380Y-159111904D02*
X112062380Y-158635714D01*
X112062380Y-158397618D02*
X112062380Y-157826190D01*
X111062380Y-158111904D02*
X112062380Y-158111904D01*
X111062380Y-157492856D02*
X112062380Y-157492856D01*
X112062380Y-157492856D02*
X112062380Y-157254761D01*
X112062380Y-157254761D02*
X112014761Y-157111904D01*
X112014761Y-157111904D02*
X111919523Y-157016666D01*
X111919523Y-157016666D02*
X111824285Y-156969047D01*
X111824285Y-156969047D02*
X111633809Y-156921428D01*
X111633809Y-156921428D02*
X111490952Y-156921428D01*
X111490952Y-156921428D02*
X111300476Y-156969047D01*
X111300476Y-156969047D02*
X111205238Y-157016666D01*
X111205238Y-157016666D02*
X111110000Y-157111904D01*
X111110000Y-157111904D02*
X111062380Y-157254761D01*
X111062380Y-157254761D02*
X111062380Y-157492856D01*
X111062380Y-156492856D02*
X112062380Y-156492856D01*
X111443333Y-156016666D02*
X111443333Y-155254762D01*
X112062380Y-154778571D02*
X111252857Y-154778571D01*
X111252857Y-154778571D02*
X111157619Y-154730952D01*
X111157619Y-154730952D02*
X111110000Y-154683333D01*
X111110000Y-154683333D02*
X111062380Y-154588095D01*
X111062380Y-154588095D02*
X111062380Y-154397619D01*
X111062380Y-154397619D02*
X111110000Y-154302381D01*
X111110000Y-154302381D02*
X111157619Y-154254762D01*
X111157619Y-154254762D02*
X111252857Y-154207143D01*
X111252857Y-154207143D02*
X112062380Y-154207143D01*
X111348095Y-153778571D02*
X111348095Y-153302381D01*
X111062380Y-153873809D02*
X112062380Y-153540476D01*
X112062380Y-153540476D02*
X111062380Y-153207143D01*
X111062380Y-152302381D02*
X111538571Y-152635714D01*
X111062380Y-152873809D02*
X112062380Y-152873809D01*
X112062380Y-152873809D02*
X112062380Y-152492857D01*
X112062380Y-152492857D02*
X112014761Y-152397619D01*
X112014761Y-152397619D02*
X111967142Y-152350000D01*
X111967142Y-152350000D02*
X111871904Y-152302381D01*
X111871904Y-152302381D02*
X111729047Y-152302381D01*
X111729047Y-152302381D02*
X111633809Y-152350000D01*
X111633809Y-152350000D02*
X111586190Y-152397619D01*
X111586190Y-152397619D02*
X111538571Y-152492857D01*
X111538571Y-152492857D02*
X111538571Y-152873809D01*
X112062380Y-152016666D02*
X112062380Y-151445238D01*
X111062380Y-151730952D02*
X112062380Y-151730952D01*
X111729047Y-150445237D02*
X111062380Y-150207142D01*
X111062380Y-150207142D02*
X111729047Y-149969047D01*
X134863333Y-89180952D02*
X134863333Y-89847619D01*
X135101428Y-88800000D02*
X135339523Y-89514285D01*
X135339523Y-89514285D02*
X134720476Y-89514285D01*
X133815714Y-88895238D02*
X133910952Y-88847619D01*
X133910952Y-88847619D02*
X134053809Y-88847619D01*
X134053809Y-88847619D02*
X134196666Y-88895238D01*
X134196666Y-88895238D02*
X134291904Y-88990476D01*
X134291904Y-88990476D02*
X134339523Y-89085714D01*
X134339523Y-89085714D02*
X134387142Y-89276190D01*
X134387142Y-89276190D02*
X134387142Y-89419047D01*
X134387142Y-89419047D02*
X134339523Y-89609523D01*
X134339523Y-89609523D02*
X134291904Y-89704761D01*
X134291904Y-89704761D02*
X134196666Y-89800000D01*
X134196666Y-89800000D02*
X134053809Y-89847619D01*
X134053809Y-89847619D02*
X133958571Y-89847619D01*
X133958571Y-89847619D02*
X133815714Y-89800000D01*
X133815714Y-89800000D02*
X133768095Y-89752380D01*
X133768095Y-89752380D02*
X133768095Y-89419047D01*
X133768095Y-89419047D02*
X133958571Y-89419047D01*
X132149047Y-89800000D02*
X132244285Y-89847619D01*
X132244285Y-89847619D02*
X132434761Y-89847619D01*
X132434761Y-89847619D02*
X132529999Y-89800000D01*
X132529999Y-89800000D02*
X132577618Y-89752380D01*
X132577618Y-89752380D02*
X132625237Y-89657142D01*
X132625237Y-89657142D02*
X132625237Y-89371428D01*
X132625237Y-89371428D02*
X132577618Y-89276190D01*
X132577618Y-89276190D02*
X132529999Y-89228571D01*
X132529999Y-89228571D02*
X132434761Y-89180952D01*
X132434761Y-89180952D02*
X132244285Y-89180952D01*
X132244285Y-89180952D02*
X132149047Y-89228571D01*
X131577618Y-89847619D02*
X131672856Y-89800000D01*
X131672856Y-89800000D02*
X131720475Y-89752380D01*
X131720475Y-89752380D02*
X131768094Y-89657142D01*
X131768094Y-89657142D02*
X131768094Y-89371428D01*
X131768094Y-89371428D02*
X131720475Y-89276190D01*
X131720475Y-89276190D02*
X131672856Y-89228571D01*
X131672856Y-89228571D02*
X131577618Y-89180952D01*
X131577618Y-89180952D02*
X131434761Y-89180952D01*
X131434761Y-89180952D02*
X131339523Y-89228571D01*
X131339523Y-89228571D02*
X131291904Y-89276190D01*
X131291904Y-89276190D02*
X131244285Y-89371428D01*
X131244285Y-89371428D02*
X131244285Y-89657142D01*
X131244285Y-89657142D02*
X131291904Y-89752380D01*
X131291904Y-89752380D02*
X131339523Y-89800000D01*
X131339523Y-89800000D02*
X131434761Y-89847619D01*
X131434761Y-89847619D02*
X131577618Y-89847619D01*
X130815713Y-89847619D02*
X130815713Y-89180952D01*
X130815713Y-89276190D02*
X130768094Y-89228571D01*
X130768094Y-89228571D02*
X130672856Y-89180952D01*
X130672856Y-89180952D02*
X130529999Y-89180952D01*
X130529999Y-89180952D02*
X130434761Y-89228571D01*
X130434761Y-89228571D02*
X130387142Y-89323809D01*
X130387142Y-89323809D02*
X130387142Y-89847619D01*
X130387142Y-89323809D02*
X130339523Y-89228571D01*
X130339523Y-89228571D02*
X130244285Y-89180952D01*
X130244285Y-89180952D02*
X130101428Y-89180952D01*
X130101428Y-89180952D02*
X130006189Y-89228571D01*
X130006189Y-89228571D02*
X129958570Y-89323809D01*
X129958570Y-89323809D02*
X129958570Y-89847619D01*
X129482380Y-89847619D02*
X129482380Y-89180952D01*
X129482380Y-89276190D02*
X129434761Y-89228571D01*
X129434761Y-89228571D02*
X129339523Y-89180952D01*
X129339523Y-89180952D02*
X129196666Y-89180952D01*
X129196666Y-89180952D02*
X129101428Y-89228571D01*
X129101428Y-89228571D02*
X129053809Y-89323809D01*
X129053809Y-89323809D02*
X129053809Y-89847619D01*
X129053809Y-89323809D02*
X129006190Y-89228571D01*
X129006190Y-89228571D02*
X128910952Y-89180952D01*
X128910952Y-89180952D02*
X128768095Y-89180952D01*
X128768095Y-89180952D02*
X128672856Y-89228571D01*
X128672856Y-89228571D02*
X128625237Y-89323809D01*
X128625237Y-89323809D02*
X128625237Y-89847619D01*
X126577618Y-89847619D02*
X126625238Y-89847619D01*
X126625238Y-89847619D02*
X126720476Y-89800000D01*
X126720476Y-89800000D02*
X126863333Y-89657142D01*
X126863333Y-89657142D02*
X127101428Y-89371428D01*
X127101428Y-89371428D02*
X127196666Y-89228571D01*
X127196666Y-89228571D02*
X127244285Y-89085714D01*
X127244285Y-89085714D02*
X127244285Y-88990476D01*
X127244285Y-88990476D02*
X127196666Y-88895238D01*
X127196666Y-88895238D02*
X127101428Y-88847619D01*
X127101428Y-88847619D02*
X127053809Y-88847619D01*
X127053809Y-88847619D02*
X126958571Y-88895238D01*
X126958571Y-88895238D02*
X126910952Y-88990476D01*
X126910952Y-88990476D02*
X126910952Y-89038095D01*
X126910952Y-89038095D02*
X126958571Y-89133333D01*
X126958571Y-89133333D02*
X127006190Y-89180952D01*
X127006190Y-89180952D02*
X127291904Y-89371428D01*
X127291904Y-89371428D02*
X127339523Y-89419047D01*
X127339523Y-89419047D02*
X127387142Y-89514285D01*
X127387142Y-89514285D02*
X127387142Y-89657142D01*
X127387142Y-89657142D02*
X127339523Y-89752380D01*
X127339523Y-89752380D02*
X127291904Y-89800000D01*
X127291904Y-89800000D02*
X127196666Y-89847619D01*
X127196666Y-89847619D02*
X127053809Y-89847619D01*
X127053809Y-89847619D02*
X126958571Y-89800000D01*
X126958571Y-89800000D02*
X126910952Y-89752380D01*
X126910952Y-89752380D02*
X126768095Y-89561904D01*
X126768095Y-89561904D02*
X126720476Y-89419047D01*
X126720476Y-89419047D02*
X126720476Y-89323809D01*
X124958571Y-89800000D02*
X125053809Y-89847619D01*
X125053809Y-89847619D02*
X125244285Y-89847619D01*
X125244285Y-89847619D02*
X125339523Y-89800000D01*
X125339523Y-89800000D02*
X125387142Y-89752380D01*
X125387142Y-89752380D02*
X125434761Y-89657142D01*
X125434761Y-89657142D02*
X125434761Y-89371428D01*
X125434761Y-89371428D02*
X125387142Y-89276190D01*
X125387142Y-89276190D02*
X125339523Y-89228571D01*
X125339523Y-89228571D02*
X125244285Y-89180952D01*
X125244285Y-89180952D02*
X125053809Y-89180952D01*
X125053809Y-89180952D02*
X124958571Y-89228571D01*
X124101428Y-89847619D02*
X124101428Y-89323809D01*
X124101428Y-89323809D02*
X124149047Y-89228571D01*
X124149047Y-89228571D02*
X124244285Y-89180952D01*
X124244285Y-89180952D02*
X124434761Y-89180952D01*
X124434761Y-89180952D02*
X124529999Y-89228571D01*
X124101428Y-89800000D02*
X124196666Y-89847619D01*
X124196666Y-89847619D02*
X124434761Y-89847619D01*
X124434761Y-89847619D02*
X124529999Y-89800000D01*
X124529999Y-89800000D02*
X124577618Y-89704761D01*
X124577618Y-89704761D02*
X124577618Y-89609523D01*
X124577618Y-89609523D02*
X124529999Y-89514285D01*
X124529999Y-89514285D02*
X124434761Y-89466666D01*
X124434761Y-89466666D02*
X124196666Y-89466666D01*
X124196666Y-89466666D02*
X124101428Y-89419047D01*
X123482380Y-89847619D02*
X123577618Y-89800000D01*
X123577618Y-89800000D02*
X123625237Y-89704761D01*
X123625237Y-89704761D02*
X123625237Y-88847619D01*
X122958570Y-89847619D02*
X123053808Y-89800000D01*
X123053808Y-89800000D02*
X123101427Y-89704761D01*
X123101427Y-89704761D02*
X123101427Y-88847619D01*
X122577617Y-89847619D02*
X122577617Y-89180952D01*
X122577617Y-88847619D02*
X122625236Y-88895238D01*
X122625236Y-88895238D02*
X122577617Y-88942857D01*
X122577617Y-88942857D02*
X122529998Y-88895238D01*
X122529998Y-88895238D02*
X122577617Y-88847619D01*
X122577617Y-88847619D02*
X122577617Y-88942857D01*
X122101427Y-89180952D02*
X122101427Y-89847619D01*
X122101427Y-89276190D02*
X122053808Y-89228571D01*
X122053808Y-89228571D02*
X121958570Y-89180952D01*
X121958570Y-89180952D02*
X121815713Y-89180952D01*
X121815713Y-89180952D02*
X121720475Y-89228571D01*
X121720475Y-89228571D02*
X121672856Y-89323809D01*
X121672856Y-89323809D02*
X121672856Y-89847619D01*
X120768094Y-89180952D02*
X120768094Y-89990476D01*
X120768094Y-89990476D02*
X120815713Y-90085714D01*
X120815713Y-90085714D02*
X120863332Y-90133333D01*
X120863332Y-90133333D02*
X120958570Y-90180952D01*
X120958570Y-90180952D02*
X121101427Y-90180952D01*
X121101427Y-90180952D02*
X121196665Y-90133333D01*
X120768094Y-89800000D02*
X120863332Y-89847619D01*
X120863332Y-89847619D02*
X121053808Y-89847619D01*
X121053808Y-89847619D02*
X121149046Y-89800000D01*
X121149046Y-89800000D02*
X121196665Y-89752380D01*
X121196665Y-89752380D02*
X121244284Y-89657142D01*
X121244284Y-89657142D02*
X121244284Y-89371428D01*
X121244284Y-89371428D02*
X121196665Y-89276190D01*
X121196665Y-89276190D02*
X121149046Y-89228571D01*
X121149046Y-89228571D02*
X121053808Y-89180952D01*
X121053808Y-89180952D02*
X120863332Y-89180952D01*
X120863332Y-89180952D02*
X120768094Y-89228571D01*
X119672855Y-88942857D02*
X119482379Y-88800000D01*
X119482379Y-88800000D02*
X119291903Y-88942857D01*
X154699047Y-73631904D02*
X154032380Y-73631904D01*
X154603809Y-73631904D02*
X154651428Y-73584285D01*
X154651428Y-73584285D02*
X154699047Y-73489047D01*
X154699047Y-73489047D02*
X154699047Y-73346190D01*
X154699047Y-73346190D02*
X154651428Y-73250952D01*
X154651428Y-73250952D02*
X154556190Y-73203333D01*
X154556190Y-73203333D02*
X154032380Y-73203333D01*
X154032380Y-72298571D02*
X154556190Y-72298571D01*
X154556190Y-72298571D02*
X154651428Y-72346190D01*
X154651428Y-72346190D02*
X154699047Y-72441428D01*
X154699047Y-72441428D02*
X154699047Y-72631904D01*
X154699047Y-72631904D02*
X154651428Y-72727142D01*
X154080000Y-72298571D02*
X154032380Y-72393809D01*
X154032380Y-72393809D02*
X154032380Y-72631904D01*
X154032380Y-72631904D02*
X154080000Y-72727142D01*
X154080000Y-72727142D02*
X154175238Y-72774761D01*
X154175238Y-72774761D02*
X154270476Y-72774761D01*
X154270476Y-72774761D02*
X154365714Y-72727142D01*
X154365714Y-72727142D02*
X154413333Y-72631904D01*
X154413333Y-72631904D02*
X154413333Y-72393809D01*
X154413333Y-72393809D02*
X154460952Y-72298571D01*
X154699047Y-71822380D02*
X154032380Y-71822380D01*
X154603809Y-71822380D02*
X154651428Y-71774761D01*
X154651428Y-71774761D02*
X154699047Y-71679523D01*
X154699047Y-71679523D02*
X154699047Y-71536666D01*
X154699047Y-71536666D02*
X154651428Y-71441428D01*
X154651428Y-71441428D02*
X154556190Y-71393809D01*
X154556190Y-71393809D02*
X154032380Y-71393809D01*
X154032380Y-70774761D02*
X154080000Y-70869999D01*
X154080000Y-70869999D02*
X154127619Y-70917618D01*
X154127619Y-70917618D02*
X154222857Y-70965237D01*
X154222857Y-70965237D02*
X154508571Y-70965237D01*
X154508571Y-70965237D02*
X154603809Y-70917618D01*
X154603809Y-70917618D02*
X154651428Y-70869999D01*
X154651428Y-70869999D02*
X154699047Y-70774761D01*
X154699047Y-70774761D02*
X154699047Y-70631904D01*
X154699047Y-70631904D02*
X154651428Y-70536666D01*
X154651428Y-70536666D02*
X154603809Y-70489047D01*
X154603809Y-70489047D02*
X154508571Y-70441428D01*
X154508571Y-70441428D02*
X154222857Y-70441428D01*
X154222857Y-70441428D02*
X154127619Y-70489047D01*
X154127619Y-70489047D02*
X154080000Y-70536666D01*
X154080000Y-70536666D02*
X154032380Y-70631904D01*
X154032380Y-70631904D02*
X154032380Y-70774761D01*
X154080000Y-69298570D02*
X154032380Y-69155713D01*
X154032380Y-69155713D02*
X154032380Y-68917618D01*
X154032380Y-68917618D02*
X154080000Y-68822380D01*
X154080000Y-68822380D02*
X154127619Y-68774761D01*
X154127619Y-68774761D02*
X154222857Y-68727142D01*
X154222857Y-68727142D02*
X154318095Y-68727142D01*
X154318095Y-68727142D02*
X154413333Y-68774761D01*
X154413333Y-68774761D02*
X154460952Y-68822380D01*
X154460952Y-68822380D02*
X154508571Y-68917618D01*
X154508571Y-68917618D02*
X154556190Y-69108094D01*
X154556190Y-69108094D02*
X154603809Y-69203332D01*
X154603809Y-69203332D02*
X154651428Y-69250951D01*
X154651428Y-69250951D02*
X154746666Y-69298570D01*
X154746666Y-69298570D02*
X154841904Y-69298570D01*
X154841904Y-69298570D02*
X154937142Y-69250951D01*
X154937142Y-69250951D02*
X154984761Y-69203332D01*
X154984761Y-69203332D02*
X155032380Y-69108094D01*
X155032380Y-69108094D02*
X155032380Y-68869999D01*
X155032380Y-68869999D02*
X154984761Y-68727142D01*
X154032380Y-68298570D02*
X155032380Y-68298570D01*
X154032380Y-67822380D02*
X155032380Y-67822380D01*
X155032380Y-67822380D02*
X154318095Y-67489047D01*
X154318095Y-67489047D02*
X155032380Y-67155714D01*
X155032380Y-67155714D02*
X154032380Y-67155714D01*
X154699047Y-66012856D02*
X154032380Y-65774761D01*
X154032380Y-65774761D02*
X154699047Y-65536666D01*
D11*
X149427380Y-90912142D02*
X149475000Y-90864523D01*
X149475000Y-90864523D02*
X149522619Y-90721666D01*
X149522619Y-90721666D02*
X149522619Y-90626428D01*
X149522619Y-90626428D02*
X149475000Y-90483571D01*
X149475000Y-90483571D02*
X149379761Y-90388333D01*
X149379761Y-90388333D02*
X149284523Y-90340714D01*
X149284523Y-90340714D02*
X149094047Y-90293095D01*
X149094047Y-90293095D02*
X148951190Y-90293095D01*
X148951190Y-90293095D02*
X148760714Y-90340714D01*
X148760714Y-90340714D02*
X148665476Y-90388333D01*
X148665476Y-90388333D02*
X148570238Y-90483571D01*
X148570238Y-90483571D02*
X148522619Y-90626428D01*
X148522619Y-90626428D02*
X148522619Y-90721666D01*
X148522619Y-90721666D02*
X148570238Y-90864523D01*
X148570238Y-90864523D02*
X148617857Y-90912142D01*
X148522619Y-91769285D02*
X148522619Y-91578809D01*
X148522619Y-91578809D02*
X148570238Y-91483571D01*
X148570238Y-91483571D02*
X148617857Y-91435952D01*
X148617857Y-91435952D02*
X148760714Y-91340714D01*
X148760714Y-91340714D02*
X148951190Y-91293095D01*
X148951190Y-91293095D02*
X149332142Y-91293095D01*
X149332142Y-91293095D02*
X149427380Y-91340714D01*
X149427380Y-91340714D02*
X149475000Y-91388333D01*
X149475000Y-91388333D02*
X149522619Y-91483571D01*
X149522619Y-91483571D02*
X149522619Y-91674047D01*
X149522619Y-91674047D02*
X149475000Y-91769285D01*
X149475000Y-91769285D02*
X149427380Y-91816904D01*
X149427380Y-91816904D02*
X149332142Y-91864523D01*
X149332142Y-91864523D02*
X149094047Y-91864523D01*
X149094047Y-91864523D02*
X148998809Y-91816904D01*
X148998809Y-91816904D02*
X148951190Y-91769285D01*
X148951190Y-91769285D02*
X148903571Y-91674047D01*
X148903571Y-91674047D02*
X148903571Y-91483571D01*
X148903571Y-91483571D02*
X148951190Y-91388333D01*
X148951190Y-91388333D02*
X148998809Y-91340714D01*
X148998809Y-91340714D02*
X149094047Y-91293095D01*
X149522619Y-92340714D02*
X149522619Y-92531190D01*
X149522619Y-92531190D02*
X149475000Y-92626428D01*
X149475000Y-92626428D02*
X149427380Y-92674047D01*
X149427380Y-92674047D02*
X149284523Y-92769285D01*
X149284523Y-92769285D02*
X149094047Y-92816904D01*
X149094047Y-92816904D02*
X148713095Y-92816904D01*
X148713095Y-92816904D02*
X148617857Y-92769285D01*
X148617857Y-92769285D02*
X148570238Y-92721666D01*
X148570238Y-92721666D02*
X148522619Y-92626428D01*
X148522619Y-92626428D02*
X148522619Y-92435952D01*
X148522619Y-92435952D02*
X148570238Y-92340714D01*
X148570238Y-92340714D02*
X148617857Y-92293095D01*
X148617857Y-92293095D02*
X148713095Y-92245476D01*
X148713095Y-92245476D02*
X148951190Y-92245476D01*
X148951190Y-92245476D02*
X149046428Y-92293095D01*
X149046428Y-92293095D02*
X149094047Y-92340714D01*
X149094047Y-92340714D02*
X149141666Y-92435952D01*
X149141666Y-92435952D02*
X149141666Y-92626428D01*
X149141666Y-92626428D02*
X149094047Y-92721666D01*
X149094047Y-92721666D02*
X149046428Y-92769285D01*
X149046428Y-92769285D02*
X148951190Y-92816904D01*
X144837380Y-86042142D02*
X144885000Y-85994523D01*
X144885000Y-85994523D02*
X144932619Y-85851666D01*
X144932619Y-85851666D02*
X144932619Y-85756428D01*
X144932619Y-85756428D02*
X144885000Y-85613571D01*
X144885000Y-85613571D02*
X144789761Y-85518333D01*
X144789761Y-85518333D02*
X144694523Y-85470714D01*
X144694523Y-85470714D02*
X144504047Y-85423095D01*
X144504047Y-85423095D02*
X144361190Y-85423095D01*
X144361190Y-85423095D02*
X144170714Y-85470714D01*
X144170714Y-85470714D02*
X144075476Y-85518333D01*
X144075476Y-85518333D02*
X143980238Y-85613571D01*
X143980238Y-85613571D02*
X143932619Y-85756428D01*
X143932619Y-85756428D02*
X143932619Y-85851666D01*
X143932619Y-85851666D02*
X143980238Y-85994523D01*
X143980238Y-85994523D02*
X144027857Y-86042142D01*
X144265952Y-86899285D02*
X144932619Y-86899285D01*
X143885000Y-86661190D02*
X144599285Y-86423095D01*
X144599285Y-86423095D02*
X144599285Y-87042142D01*
X143932619Y-87327857D02*
X143932619Y-87946904D01*
X143932619Y-87946904D02*
X144313571Y-87613571D01*
X144313571Y-87613571D02*
X144313571Y-87756428D01*
X144313571Y-87756428D02*
X144361190Y-87851666D01*
X144361190Y-87851666D02*
X144408809Y-87899285D01*
X144408809Y-87899285D02*
X144504047Y-87946904D01*
X144504047Y-87946904D02*
X144742142Y-87946904D01*
X144742142Y-87946904D02*
X144837380Y-87899285D01*
X144837380Y-87899285D02*
X144885000Y-87851666D01*
X144885000Y-87851666D02*
X144932619Y-87756428D01*
X144932619Y-87756428D02*
X144932619Y-87470714D01*
X144932619Y-87470714D02*
X144885000Y-87375476D01*
X144885000Y-87375476D02*
X144837380Y-87327857D01*
X147431666Y-76807381D02*
X147431666Y-76093096D01*
X147431666Y-76093096D02*
X147384047Y-75950239D01*
X147384047Y-75950239D02*
X147288809Y-75855001D01*
X147288809Y-75855001D02*
X147145952Y-75807381D01*
X147145952Y-75807381D02*
X147050714Y-75807381D01*
X148431666Y-75807381D02*
X147860238Y-75807381D01*
X148145952Y-75807381D02*
X148145952Y-76807381D01*
X148145952Y-76807381D02*
X148050714Y-76664524D01*
X148050714Y-76664524D02*
X147955476Y-76569286D01*
X147955476Y-76569286D02*
X147860238Y-76521667D01*
D12*
X105200000Y-95765533D02*
X104700000Y-95765533D01*
X103600000Y-93765533D02*
X103600000Y-95765533D01*
X105200000Y-93765533D02*
X104700000Y-93765533D01*
X106300000Y-93765533D02*
X106300000Y-95765533D01*
D13*
X105780000Y-96685533D02*
G75*
G03*
X105780000Y-96685533I-100000J0D01*
G01*
D14*
X112545000Y-126027779D02*
X112545000Y-125702221D01*
X113565000Y-126027779D02*
X113565000Y-125702221D01*
X105195000Y-141417064D02*
X105195000Y-140212936D01*
X107915000Y-141417064D02*
X107915000Y-140212936D01*
X140520000Y-99742064D02*
X140520000Y-98537936D01*
X142340000Y-99742064D02*
X142340000Y-98537936D01*
X147490000Y-144112936D02*
X147490000Y-145317064D01*
X144770000Y-144112936D02*
X144770000Y-145317064D01*
X107268748Y-122980000D02*
X110041252Y-122980000D01*
X107268748Y-126400000D02*
X110041252Y-126400000D01*
X104970000Y-137115000D02*
X104970000Y-135315000D01*
X108190000Y-135315000D02*
X108190000Y-137765000D01*
D12*
X136192500Y-147515000D02*
X133092500Y-147515000D01*
X133092500Y-144415000D02*
X136192500Y-144415000D01*
D13*
X138304300Y-144465000D02*
G75*
G03*
X138304300Y-144465000I-111800J0D01*
G01*
D14*
X136477936Y-96580000D02*
X137682064Y-96580000D01*
X136477936Y-99300000D02*
X137682064Y-99300000D01*
X135194692Y-136684413D02*
X134869134Y-136684413D01*
X135194692Y-135664413D02*
X134869134Y-135664413D01*
X101720000Y-141367064D02*
X101720000Y-140162936D01*
X104440000Y-141367064D02*
X104440000Y-140162936D01*
X123433578Y-97885000D02*
X122916422Y-97885000D01*
X123433578Y-96465000D02*
X122916422Y-96465000D01*
X138805000Y-137371250D02*
X139605000Y-137371250D01*
X138805000Y-137471250D02*
X138805000Y-137371250D01*
X138805000Y-140471250D02*
X138405000Y-140471250D01*
X138805000Y-140571250D02*
X138805000Y-140471250D01*
X139605000Y-140571250D02*
X138805000Y-140571250D01*
X141205000Y-137371250D02*
X142005000Y-137371250D01*
X141205000Y-140571250D02*
X142005000Y-140571250D01*
X142005000Y-137371250D02*
X142005000Y-137471250D01*
X142005000Y-140571250D02*
X142005000Y-140471250D01*
X144082221Y-138871250D02*
X144407779Y-138871250D01*
X144082221Y-139891250D02*
X144407779Y-139891250D01*
X139882221Y-133971250D02*
X140207779Y-133971250D01*
X139882221Y-134991250D02*
X140207779Y-134991250D01*
X139882221Y-135471250D02*
X140207779Y-135471250D01*
X139882221Y-136491250D02*
X140207779Y-136491250D01*
X136935000Y-135144029D02*
X136935000Y-134818471D01*
X137955000Y-135144029D02*
X137955000Y-134818471D01*
X136865000Y-138837779D02*
X136865000Y-138512221D01*
X137885000Y-138837779D02*
X137885000Y-138512221D01*
X141490000Y-149375279D02*
X141490000Y-149049721D01*
X142510000Y-149375279D02*
X142510000Y-149049721D01*
X131087221Y-157290000D02*
X131412779Y-157290000D01*
X131087221Y-158310000D02*
X131412779Y-158310000D01*
X132890000Y-153787779D02*
X132890000Y-153462221D01*
X133910000Y-153787779D02*
X133910000Y-153462221D01*
X131400279Y-156685000D02*
X131074721Y-156685000D01*
X131400279Y-155665000D02*
X131074721Y-155665000D01*
X139790000Y-149425279D02*
X139790000Y-149099721D01*
X140810000Y-149425279D02*
X140810000Y-149099721D01*
X124985000Y-149327500D02*
X124985000Y-153537500D01*
X121965000Y-149327500D02*
X124985000Y-149327500D01*
X121965000Y-153537500D02*
X121965000Y-149327500D01*
X122852936Y-137405000D02*
X124057064Y-137405000D01*
X122852936Y-140125000D02*
X124057064Y-140125000D01*
X103452064Y-85235000D02*
X102247936Y-85235000D01*
X103452064Y-82515000D02*
X102247936Y-82515000D01*
X136212221Y-101465000D02*
X136537779Y-101465000D01*
X136212221Y-102485000D02*
X136537779Y-102485000D01*
X104490000Y-135315000D02*
X104490000Y-137115000D01*
X101270000Y-137115000D02*
X101270000Y-134665000D01*
X117866252Y-141525000D02*
X115093748Y-141525000D01*
X117866252Y-138105000D02*
X115093748Y-138105000D01*
X109942779Y-142575000D02*
X109617221Y-142575000D01*
X109942779Y-141555000D02*
X109617221Y-141555000D01*
X108770000Y-138065000D02*
X108770000Y-136265000D01*
X111990000Y-136265000D02*
X111990000Y-138715000D01*
X111035000Y-102765000D02*
X111035000Y-104765000D01*
X113275000Y-104765000D02*
X113275000Y-103765000D01*
X103452064Y-88535000D02*
X102247936Y-88535000D01*
X103452064Y-85815000D02*
X102247936Y-85815000D01*
X137087221Y-104615000D02*
X137412779Y-104615000D01*
X137087221Y-105635000D02*
X137412779Y-105635000D01*
X137170000Y-110229828D02*
X137170000Y-109712672D01*
X138590000Y-110229828D02*
X138590000Y-109712672D01*
X110265000Y-119790000D02*
X110265000Y-121590000D01*
X107045000Y-121590000D02*
X107045000Y-119140000D01*
X111937221Y-121390000D02*
X112262779Y-121390000D01*
X111937221Y-122410000D02*
X112262779Y-122410000D01*
D11*
X103125000Y-66565000D02*
X115075000Y-66565000D01*
X103125000Y-78015000D02*
X103125000Y-66565000D01*
X103125000Y-78015000D02*
X115075000Y-78015000D01*
X115075000Y-66565000D02*
X115075000Y-78015000D01*
D14*
X128840000Y-154760000D02*
X128840000Y-150550000D01*
X131860000Y-154760000D02*
X128840000Y-154760000D01*
X131860000Y-150550000D02*
X131860000Y-154760000D01*
X142590000Y-103181422D02*
X142590000Y-103698578D01*
X141170000Y-103181422D02*
X141170000Y-103698578D01*
X139479721Y-145055000D02*
X139805279Y-145055000D01*
X139479721Y-146075000D02*
X139805279Y-146075000D01*
X110868748Y-106155000D02*
X113641252Y-106155000D01*
X110868748Y-109575000D02*
X113641252Y-109575000D01*
X132265000Y-96937779D02*
X132265000Y-96612221D01*
X133285000Y-96937779D02*
X133285000Y-96612221D01*
X135845000Y-94542064D02*
X135845000Y-93337936D01*
X138565000Y-94542064D02*
X138565000Y-93337936D01*
X132962221Y-101465000D02*
X133287779Y-101465000D01*
X132962221Y-102485000D02*
X133287779Y-102485000D01*
X144240000Y-144162936D02*
X144240000Y-145367064D01*
X141520000Y-144162936D02*
X141520000Y-145367064D01*
D11*
X109820000Y-161140000D02*
X109820000Y-143360000D01*
X109820000Y-143360000D02*
X103470000Y-143360000D01*
X103470000Y-161140000D02*
X109820000Y-161140000D01*
X103470000Y-143360000D02*
X103470000Y-161140000D01*
D14*
X112982064Y-101156250D02*
X111777936Y-101156250D01*
X112982064Y-98436250D02*
X111777936Y-98436250D01*
X105265000Y-128778748D02*
X105265000Y-131551252D01*
X101845000Y-128778748D02*
X101845000Y-131551252D01*
X108355000Y-131775000D02*
X106555000Y-131775000D01*
X106555000Y-128555000D02*
X109005000Y-128555000D01*
X106892221Y-132255000D02*
X107217779Y-132255000D01*
X106892221Y-133275000D02*
X107217779Y-133275000D01*
D11*
X108900000Y-98715533D02*
X108900000Y-106815533D01*
X102800000Y-98715533D02*
X102800000Y-106815533D01*
D15*
X104070000Y-97809467D02*
G75*
G03*
X104070000Y-97809467I-125000J0D01*
G01*
D14*
X110280000Y-93171359D02*
X110280000Y-93478641D01*
X109520000Y-93171359D02*
X109520000Y-93478641D01*
X145400000Y-92266252D02*
X145400000Y-90843748D01*
X148120000Y-92266252D02*
X148120000Y-90843748D01*
X102265580Y-91160000D02*
X101984420Y-91160000D01*
X102265580Y-90140000D02*
X101984420Y-90140000D01*
X106609420Y-85840000D02*
X106890580Y-85840000D01*
X106609420Y-86860000D02*
X106890580Y-86860000D01*
X105695000Y-91703641D02*
X105695000Y-91396359D01*
X106455000Y-91703641D02*
X106455000Y-91396359D01*
X105235000Y-90872164D02*
X105235000Y-91087836D01*
X104515000Y-90872164D02*
X104515000Y-91087836D01*
X148130000Y-85973748D02*
X148130000Y-87396252D01*
X145410000Y-85973748D02*
X145410000Y-87396252D01*
X145065000Y-79364564D02*
X145065000Y-78910436D01*
X146535000Y-79364564D02*
X146535000Y-78910436D01*
X109353641Y-90280000D02*
X109046359Y-90280000D01*
X109353641Y-89520000D02*
X109046359Y-89520000D01*
X149835000Y-79617064D02*
X149835000Y-79162936D01*
X151305000Y-79617064D02*
X151305000Y-79162936D01*
X114892000Y-84969208D02*
X114892000Y-84753536D01*
X115612000Y-84969208D02*
X115612000Y-84753536D01*
X106609420Y-87490000D02*
X106890580Y-87490000D01*
X106609420Y-88510000D02*
X106890580Y-88510000D01*
X107163748Y-83315000D02*
X108586252Y-83315000D01*
X107163748Y-85135000D02*
X108586252Y-85135000D01*
D16*
X116310000Y-64000000D02*
X140310000Y-64000000D01*
X140310000Y-64000000D02*
X140310000Y-88000000D01*
X140310000Y-88000000D02*
X116310000Y-88000000D01*
X116310000Y-88000000D02*
X116310000Y-64000000D01*
D14*
X152325000Y-79657064D02*
X152325000Y-79202936D01*
X153795000Y-79657064D02*
X153795000Y-79202936D01*
X111510000Y-87442164D02*
X111510000Y-87657836D01*
X110790000Y-87442164D02*
X110790000Y-87657836D01*
X110280000Y-91221359D02*
X110280000Y-91528641D01*
X109520000Y-91221359D02*
X109520000Y-91528641D01*
X115607000Y-82823536D02*
X115607000Y-83039208D01*
X114887000Y-82823536D02*
X114887000Y-83039208D01*
X111510000Y-85417164D02*
X111510000Y-85632836D01*
X110790000Y-85417164D02*
X110790000Y-85632836D01*
X152067500Y-134210000D02*
X152067500Y-127710000D01*
X152067500Y-134210000D02*
X143557500Y-134210000D01*
X152067500Y-127710000D02*
X143557500Y-127710000D01*
X143015000Y-79339564D02*
X143015000Y-78885436D01*
X144485000Y-79339564D02*
X144485000Y-78885436D01*
D17*
X142608800Y-68728607D02*
X142608800Y-64907558D01*
X142608800Y-74478646D02*
X142608800Y-70971396D01*
X143927060Y-76347001D02*
X143674076Y-76347001D01*
X144043687Y-63393001D02*
X151486313Y-63393001D01*
X151855924Y-76347001D02*
X151602940Y-76347001D01*
X152921200Y-64907558D02*
X152921200Y-68728607D01*
X152921200Y-70971396D02*
X152921200Y-74478646D01*
D18*
X154115000Y-76270001D02*
G75*
G03*
X154115000Y-76270001I-381000J0D01*
G01*
D14*
X151145000Y-83212936D02*
X151145000Y-83667064D01*
X149675000Y-83212936D02*
X149675000Y-83667064D01*
X147115000Y-79364564D02*
X147115000Y-78910436D01*
X148585000Y-79364564D02*
X148585000Y-78910436D01*
%LPC*%
D19*
X137421660Y-146655073D02*
X137429620Y-146655630D01*
X137437550Y-146656603D01*
X137445420Y-146657990D01*
X137453200Y-146659787D01*
X137460880Y-146661989D01*
X137468430Y-146664590D01*
X137475840Y-146667582D01*
X137483080Y-146670958D01*
X137490130Y-146674708D01*
X137496980Y-146678822D01*
X137503600Y-146683289D01*
X137509980Y-146688096D01*
X137516100Y-146693230D01*
X137521940Y-146698678D01*
X137527490Y-146704424D01*
X137532730Y-146710453D01*
X137537650Y-146716747D01*
X137542230Y-146723290D01*
X137546460Y-146730064D01*
X137550330Y-146737051D01*
X137553840Y-146744230D01*
X137556960Y-146751583D01*
X137559690Y-146759089D01*
X137562020Y-146766728D01*
X137563960Y-146774478D01*
X137565480Y-146782319D01*
X137566590Y-146790229D01*
X137567290Y-146798187D01*
X137567570Y-146806169D01*
X137567500Y-146810000D01*
X137567500Y-147070000D01*
X137567570Y-147073830D01*
X137567290Y-147081820D01*
X137566590Y-147089770D01*
X137565480Y-147097680D01*
X137563960Y-147105520D01*
X137562020Y-147113270D01*
X137559690Y-147120910D01*
X137556960Y-147128420D01*
X137553830Y-147135770D01*
X137550330Y-147142950D01*
X137546460Y-147149940D01*
X137542230Y-147156710D01*
X137537650Y-147163250D01*
X137532730Y-147169550D01*
X137527490Y-147175580D01*
X137521940Y-147181320D01*
X137516100Y-147186770D01*
X137509980Y-147191910D01*
X137503600Y-147196710D01*
X137496980Y-147201180D01*
X137490130Y-147205290D01*
X137483080Y-147209040D01*
X137475840Y-147212420D01*
X137468430Y-147215410D01*
X137460880Y-147218010D01*
X137453200Y-147220210D01*
X137445420Y-147222010D01*
X137437550Y-147223400D01*
X137429620Y-147224370D01*
X137421650Y-147224930D01*
X137417500Y-147225000D01*
X136197500Y-147225000D01*
X136193690Y-147225070D01*
X136185300Y-147224740D01*
X136176950Y-147223940D01*
X136168650Y-147222670D01*
X136160440Y-147220930D01*
X136152340Y-147218740D01*
X136144380Y-147216090D01*
X136136570Y-147213000D01*
X136128960Y-147209470D01*
X136121550Y-147205510D01*
X136114390Y-147201150D01*
X136107470Y-147196390D01*
X136100840Y-147191240D01*
X136094510Y-147185730D01*
X136088500Y-147179870D01*
X136082830Y-147173680D01*
X136077520Y-147167190D01*
X136072580Y-147160400D01*
X136068030Y-147153340D01*
X136063890Y-147146040D01*
X136060170Y-147138520D01*
X136056880Y-147130800D01*
X136054020Y-147122910D01*
X136051620Y-147114860D01*
X136049680Y-147106700D01*
X136048200Y-147098440D01*
X136047180Y-147090110D01*
X136046640Y-147081730D01*
X136046570Y-147073340D01*
X136046980Y-147064950D01*
X136047500Y-147060000D01*
X136047500Y-146810000D01*
X136047430Y-146806168D01*
X136047710Y-146798185D01*
X136048410Y-146790227D01*
X136049520Y-146782317D01*
X136051040Y-146774476D01*
X136052980Y-146766726D01*
X136055310Y-146759087D01*
X136058040Y-146751581D01*
X136061170Y-146744228D01*
X136064670Y-146737049D01*
X136068540Y-146730063D01*
X136072770Y-146723289D01*
X136077350Y-146716746D01*
X136082270Y-146710451D01*
X136087510Y-146704423D01*
X136093060Y-146698677D01*
X136098900Y-146693229D01*
X136105020Y-146688095D01*
X136111400Y-146683288D01*
X136118020Y-146678821D01*
X136124870Y-146674707D01*
X136131920Y-146670957D01*
X136139160Y-146667581D01*
X136146570Y-146664589D01*
X136154120Y-146661989D01*
X136161800Y-146659787D01*
X136169580Y-146657990D01*
X136177450Y-146656603D01*
X136185380Y-146655630D01*
X136193350Y-146655072D01*
X136197500Y-146655000D01*
X137417500Y-146655000D01*
X137421660Y-146655073D01*
G36*
X137421660Y-146655073D02*
G01*
X137429620Y-146655630D01*
X137437550Y-146656603D01*
X137445420Y-146657990D01*
X137453200Y-146659787D01*
X137460880Y-146661989D01*
X137468430Y-146664590D01*
X137475840Y-146667582D01*
X137483080Y-146670958D01*
X137490130Y-146674708D01*
X137496980Y-146678822D01*
X137503600Y-146683289D01*
X137509980Y-146688096D01*
X137516100Y-146693230D01*
X137521940Y-146698678D01*
X137527490Y-146704424D01*
X137532730Y-146710453D01*
X137537650Y-146716747D01*
X137542230Y-146723290D01*
X137546460Y-146730064D01*
X137550330Y-146737051D01*
X137553840Y-146744230D01*
X137556960Y-146751583D01*
X137559690Y-146759089D01*
X137562020Y-146766728D01*
X137563960Y-146774478D01*
X137565480Y-146782319D01*
X137566590Y-146790229D01*
X137567290Y-146798187D01*
X137567570Y-146806169D01*
X137567500Y-146810000D01*
X137567500Y-147070000D01*
X137567570Y-147073830D01*
X137567290Y-147081820D01*
X137566590Y-147089770D01*
X137565480Y-147097680D01*
X137563960Y-147105520D01*
X137562020Y-147113270D01*
X137559690Y-147120910D01*
X137556960Y-147128420D01*
X137553830Y-147135770D01*
X137550330Y-147142950D01*
X137546460Y-147149940D01*
X137542230Y-147156710D01*
X137537650Y-147163250D01*
X137532730Y-147169550D01*
X137527490Y-147175580D01*
X137521940Y-147181320D01*
X137516100Y-147186770D01*
X137509980Y-147191910D01*
X137503600Y-147196710D01*
X137496980Y-147201180D01*
X137490130Y-147205290D01*
X137483080Y-147209040D01*
X137475840Y-147212420D01*
X137468430Y-147215410D01*
X137460880Y-147218010D01*
X137453200Y-147220210D01*
X137445420Y-147222010D01*
X137437550Y-147223400D01*
X137429620Y-147224370D01*
X137421650Y-147224930D01*
X137417500Y-147225000D01*
X136197500Y-147225000D01*
X136193690Y-147225070D01*
X136185300Y-147224740D01*
X136176950Y-147223940D01*
X136168650Y-147222670D01*
X136160440Y-147220930D01*
X136152340Y-147218740D01*
X136144380Y-147216090D01*
X136136570Y-147213000D01*
X136128960Y-147209470D01*
X136121550Y-147205510D01*
X136114390Y-147201150D01*
X136107470Y-147196390D01*
X136100840Y-147191240D01*
X136094510Y-147185730D01*
X136088500Y-147179870D01*
X136082830Y-147173680D01*
X136077520Y-147167190D01*
X136072580Y-147160400D01*
X136068030Y-147153340D01*
X136063890Y-147146040D01*
X136060170Y-147138520D01*
X136056880Y-147130800D01*
X136054020Y-147122910D01*
X136051620Y-147114860D01*
X136049680Y-147106700D01*
X136048200Y-147098440D01*
X136047180Y-147090110D01*
X136046640Y-147081730D01*
X136046570Y-147073340D01*
X136046980Y-147064950D01*
X136047500Y-147060000D01*
X136047500Y-146810000D01*
X136047430Y-146806168D01*
X136047710Y-146798185D01*
X136048410Y-146790227D01*
X136049520Y-146782317D01*
X136051040Y-146774476D01*
X136052980Y-146766726D01*
X136055310Y-146759087D01*
X136058040Y-146751581D01*
X136061170Y-146744228D01*
X136064670Y-146737049D01*
X136068540Y-146730063D01*
X136072770Y-146723289D01*
X136077350Y-146716746D01*
X136082270Y-146710451D01*
X136087510Y-146704423D01*
X136093060Y-146698677D01*
X136098900Y-146693229D01*
X136105020Y-146688095D01*
X136111400Y-146683288D01*
X136118020Y-146678821D01*
X136124870Y-146674707D01*
X136131920Y-146670957D01*
X136139160Y-146667581D01*
X136146570Y-146664589D01*
X136154120Y-146661989D01*
X136161800Y-146659787D01*
X136169580Y-146657990D01*
X136177450Y-146656603D01*
X136185380Y-146655630D01*
X136193350Y-146655072D01*
X136197500Y-146655000D01*
X137417500Y-146655000D01*
X137421660Y-146655073D01*
G37*
X137421660Y-146005073D02*
X137429620Y-146005630D01*
X137437550Y-146006603D01*
X137445420Y-146007990D01*
X137453200Y-146009787D01*
X137460880Y-146011989D01*
X137468430Y-146014590D01*
X137475840Y-146017582D01*
X137483080Y-146020958D01*
X137490130Y-146024708D01*
X137496980Y-146028822D01*
X137503600Y-146033289D01*
X137509980Y-146038096D01*
X137516100Y-146043230D01*
X137521940Y-146048678D01*
X137527490Y-146054424D01*
X137532730Y-146060453D01*
X137537650Y-146066747D01*
X137542230Y-146073290D01*
X137546460Y-146080064D01*
X137550330Y-146087051D01*
X137553840Y-146094230D01*
X137556960Y-146101583D01*
X137559690Y-146109089D01*
X137562020Y-146116728D01*
X137563960Y-146124478D01*
X137565480Y-146132319D01*
X137566590Y-146140229D01*
X137567290Y-146148187D01*
X137567570Y-146156169D01*
X137567500Y-146160000D01*
X137567500Y-146420000D01*
X137567570Y-146423832D01*
X137567290Y-146431815D01*
X137566590Y-146439773D01*
X137565480Y-146447683D01*
X137563960Y-146455524D01*
X137562020Y-146463274D01*
X137559690Y-146470913D01*
X137556960Y-146478419D01*
X137553830Y-146485772D01*
X137550330Y-146492951D01*
X137546460Y-146499937D01*
X137542230Y-146506711D01*
X137537650Y-146513254D01*
X137532730Y-146519549D01*
X137527490Y-146525577D01*
X137521940Y-146531323D01*
X137516100Y-146536771D01*
X137509980Y-146541905D01*
X137503600Y-146546712D01*
X137496980Y-146551179D01*
X137490130Y-146555293D01*
X137483080Y-146559043D01*
X137475840Y-146562419D01*
X137468430Y-146565411D01*
X137460880Y-146568011D01*
X137453200Y-146570213D01*
X137445420Y-146572010D01*
X137437550Y-146573397D01*
X137429620Y-146574370D01*
X137421650Y-146574928D01*
X137417500Y-146575000D01*
X136197500Y-146575000D01*
X136193690Y-146575067D01*
X136185300Y-146574740D01*
X136176950Y-146573940D01*
X136168650Y-146572670D01*
X136160440Y-146570935D01*
X136152340Y-146568739D01*
X136144380Y-146566090D01*
X136136570Y-146562995D01*
X136128960Y-146559466D01*
X136121550Y-146555512D01*
X136114390Y-146551148D01*
X136107470Y-146546386D01*
X136100840Y-146541241D01*
X136094510Y-146535731D01*
X136088500Y-146529872D01*
X136082830Y-146523684D01*
X136077520Y-146517186D01*
X136072580Y-146510399D01*
X136068030Y-146503343D01*
X136063890Y-146496043D01*
X136060170Y-146488521D01*
X136056880Y-146480800D01*
X136054020Y-146472907D01*
X136051620Y-146464865D01*
X136049680Y-146456700D01*
X136048200Y-146448438D01*
X136047180Y-146440106D01*
X136046640Y-146431731D01*
X136046570Y-146423338D01*
X136046980Y-146414954D01*
X136047500Y-146410000D01*
X136047500Y-146160000D01*
X136047430Y-146156168D01*
X136047710Y-146148185D01*
X136048410Y-146140227D01*
X136049520Y-146132317D01*
X136051040Y-146124476D01*
X136052980Y-146116726D01*
X136055310Y-146109087D01*
X136058040Y-146101581D01*
X136061170Y-146094228D01*
X136064670Y-146087049D01*
X136068540Y-146080063D01*
X136072770Y-146073289D01*
X136077350Y-146066746D01*
X136082270Y-146060451D01*
X136087510Y-146054423D01*
X136093060Y-146048677D01*
X136098900Y-146043229D01*
X136105020Y-146038095D01*
X136111400Y-146033288D01*
X136118020Y-146028821D01*
X136124870Y-146024707D01*
X136131920Y-146020957D01*
X136139160Y-146017581D01*
X136146570Y-146014589D01*
X136154120Y-146011989D01*
X136161800Y-146009787D01*
X136169580Y-146007990D01*
X136177450Y-146006603D01*
X136185380Y-146005630D01*
X136193350Y-146005072D01*
X136197500Y-146005000D01*
X137417500Y-146005000D01*
X137421660Y-146005073D01*
G36*
X137421660Y-146005073D02*
G01*
X137429620Y-146005630D01*
X137437550Y-146006603D01*
X137445420Y-146007990D01*
X137453200Y-146009787D01*
X137460880Y-146011989D01*
X137468430Y-146014590D01*
X137475840Y-146017582D01*
X137483080Y-146020958D01*
X137490130Y-146024708D01*
X137496980Y-146028822D01*
X137503600Y-146033289D01*
X137509980Y-146038096D01*
X137516100Y-146043230D01*
X137521940Y-146048678D01*
X137527490Y-146054424D01*
X137532730Y-146060453D01*
X137537650Y-146066747D01*
X137542230Y-146073290D01*
X137546460Y-146080064D01*
X137550330Y-146087051D01*
X137553840Y-146094230D01*
X137556960Y-146101583D01*
X137559690Y-146109089D01*
X137562020Y-146116728D01*
X137563960Y-146124478D01*
X137565480Y-146132319D01*
X137566590Y-146140229D01*
X137567290Y-146148187D01*
X137567570Y-146156169D01*
X137567500Y-146160000D01*
X137567500Y-146420000D01*
X137567570Y-146423832D01*
X137567290Y-146431815D01*
X137566590Y-146439773D01*
X137565480Y-146447683D01*
X137563960Y-146455524D01*
X137562020Y-146463274D01*
X137559690Y-146470913D01*
X137556960Y-146478419D01*
X137553830Y-146485772D01*
X137550330Y-146492951D01*
X137546460Y-146499937D01*
X137542230Y-146506711D01*
X137537650Y-146513254D01*
X137532730Y-146519549D01*
X137527490Y-146525577D01*
X137521940Y-146531323D01*
X137516100Y-146536771D01*
X137509980Y-146541905D01*
X137503600Y-146546712D01*
X137496980Y-146551179D01*
X137490130Y-146555293D01*
X137483080Y-146559043D01*
X137475840Y-146562419D01*
X137468430Y-146565411D01*
X137460880Y-146568011D01*
X137453200Y-146570213D01*
X137445420Y-146572010D01*
X137437550Y-146573397D01*
X137429620Y-146574370D01*
X137421650Y-146574928D01*
X137417500Y-146575000D01*
X136197500Y-146575000D01*
X136193690Y-146575067D01*
X136185300Y-146574740D01*
X136176950Y-146573940D01*
X136168650Y-146572670D01*
X136160440Y-146570935D01*
X136152340Y-146568739D01*
X136144380Y-146566090D01*
X136136570Y-146562995D01*
X136128960Y-146559466D01*
X136121550Y-146555512D01*
X136114390Y-146551148D01*
X136107470Y-146546386D01*
X136100840Y-146541241D01*
X136094510Y-146535731D01*
X136088500Y-146529872D01*
X136082830Y-146523684D01*
X136077520Y-146517186D01*
X136072580Y-146510399D01*
X136068030Y-146503343D01*
X136063890Y-146496043D01*
X136060170Y-146488521D01*
X136056880Y-146480800D01*
X136054020Y-146472907D01*
X136051620Y-146464865D01*
X136049680Y-146456700D01*
X136048200Y-146448438D01*
X136047180Y-146440106D01*
X136046640Y-146431731D01*
X136046570Y-146423338D01*
X136046980Y-146414954D01*
X136047500Y-146410000D01*
X136047500Y-146160000D01*
X136047430Y-146156168D01*
X136047710Y-146148185D01*
X136048410Y-146140227D01*
X136049520Y-146132317D01*
X136051040Y-146124476D01*
X136052980Y-146116726D01*
X136055310Y-146109087D01*
X136058040Y-146101581D01*
X136061170Y-146094228D01*
X136064670Y-146087049D01*
X136068540Y-146080063D01*
X136072770Y-146073289D01*
X136077350Y-146066746D01*
X136082270Y-146060451D01*
X136087510Y-146054423D01*
X136093060Y-146048677D01*
X136098900Y-146043229D01*
X136105020Y-146038095D01*
X136111400Y-146033288D01*
X136118020Y-146028821D01*
X136124870Y-146024707D01*
X136131920Y-146020957D01*
X136139160Y-146017581D01*
X136146570Y-146014589D01*
X136154120Y-146011989D01*
X136161800Y-146009787D01*
X136169580Y-146007990D01*
X136177450Y-146006603D01*
X136185380Y-146005630D01*
X136193350Y-146005072D01*
X136197500Y-146005000D01*
X137417500Y-146005000D01*
X137421660Y-146005073D01*
G37*
X137421660Y-145355073D02*
X137429620Y-145355630D01*
X137437550Y-145356603D01*
X137445420Y-145357990D01*
X137453200Y-145359787D01*
X137460880Y-145361989D01*
X137468430Y-145364590D01*
X137475840Y-145367582D01*
X137483080Y-145370958D01*
X137490130Y-145374708D01*
X137496980Y-145378822D01*
X137503600Y-145383289D01*
X137509980Y-145388096D01*
X137516100Y-145393230D01*
X137521940Y-145398678D01*
X137527490Y-145404424D01*
X137532730Y-145410453D01*
X137537650Y-145416747D01*
X137542230Y-145423290D01*
X137546460Y-145430064D01*
X137550330Y-145437051D01*
X137553840Y-145444230D01*
X137556960Y-145451583D01*
X137559690Y-145459089D01*
X137562020Y-145466728D01*
X137563960Y-145474478D01*
X137565480Y-145482319D01*
X137566590Y-145490229D01*
X137567290Y-145498187D01*
X137567570Y-145506169D01*
X137567500Y-145510000D01*
X137567500Y-145770000D01*
X137567570Y-145773832D01*
X137567290Y-145781815D01*
X137566590Y-145789773D01*
X137565480Y-145797683D01*
X137563960Y-145805524D01*
X137562020Y-145813274D01*
X137559690Y-145820913D01*
X137556960Y-145828419D01*
X137553830Y-145835772D01*
X137550330Y-145842951D01*
X137546460Y-145849937D01*
X137542230Y-145856711D01*
X137537650Y-145863254D01*
X137532730Y-145869549D01*
X137527490Y-145875577D01*
X137521940Y-145881323D01*
X137516100Y-145886771D01*
X137509980Y-145891905D01*
X137503600Y-145896712D01*
X137496980Y-145901179D01*
X137490130Y-145905293D01*
X137483080Y-145909043D01*
X137475840Y-145912419D01*
X137468430Y-145915411D01*
X137460880Y-145918011D01*
X137453200Y-145920213D01*
X137445420Y-145922010D01*
X137437550Y-145923397D01*
X137429620Y-145924370D01*
X137421650Y-145924928D01*
X137417500Y-145925000D01*
X136197500Y-145925000D01*
X136193690Y-145925067D01*
X136185300Y-145924740D01*
X136176950Y-145923940D01*
X136168650Y-145922670D01*
X136160440Y-145920935D01*
X136152340Y-145918739D01*
X136144380Y-145916090D01*
X136136570Y-145912995D01*
X136128960Y-145909466D01*
X136121550Y-145905512D01*
X136114390Y-145901148D01*
X136107470Y-145896385D01*
X136100840Y-145891241D01*
X136094510Y-145885731D01*
X136088500Y-145879872D01*
X136082830Y-145873684D01*
X136077520Y-145867186D01*
X136072580Y-145860399D01*
X136068030Y-145853343D01*
X136063890Y-145846043D01*
X136060170Y-145838521D01*
X136056880Y-145830800D01*
X136054020Y-145822907D01*
X136051620Y-145814865D01*
X136049680Y-145806700D01*
X136048200Y-145798438D01*
X136047180Y-145790106D01*
X136046640Y-145781731D01*
X136046570Y-145773338D01*
X136046980Y-145764954D01*
X136047500Y-145760000D01*
X136047500Y-145510000D01*
X136047430Y-145506168D01*
X136047710Y-145498185D01*
X136048410Y-145490227D01*
X136049520Y-145482317D01*
X136051040Y-145474476D01*
X136052980Y-145466726D01*
X136055310Y-145459087D01*
X136058040Y-145451581D01*
X136061170Y-145444228D01*
X136064670Y-145437049D01*
X136068540Y-145430063D01*
X136072770Y-145423289D01*
X136077350Y-145416746D01*
X136082270Y-145410451D01*
X136087510Y-145404423D01*
X136093060Y-145398677D01*
X136098900Y-145393229D01*
X136105020Y-145388095D01*
X136111400Y-145383288D01*
X136118020Y-145378821D01*
X136124870Y-145374707D01*
X136131920Y-145370957D01*
X136139160Y-145367581D01*
X136146570Y-145364589D01*
X136154120Y-145361989D01*
X136161800Y-145359787D01*
X136169580Y-145357990D01*
X136177450Y-145356603D01*
X136185380Y-145355630D01*
X136193350Y-145355072D01*
X136197500Y-145355000D01*
X137417500Y-145355000D01*
X137421660Y-145355073D01*
G36*
X137421660Y-145355073D02*
G01*
X137429620Y-145355630D01*
X137437550Y-145356603D01*
X137445420Y-145357990D01*
X137453200Y-145359787D01*
X137460880Y-145361989D01*
X137468430Y-145364590D01*
X137475840Y-145367582D01*
X137483080Y-145370958D01*
X137490130Y-145374708D01*
X137496980Y-145378822D01*
X137503600Y-145383289D01*
X137509980Y-145388096D01*
X137516100Y-145393230D01*
X137521940Y-145398678D01*
X137527490Y-145404424D01*
X137532730Y-145410453D01*
X137537650Y-145416747D01*
X137542230Y-145423290D01*
X137546460Y-145430064D01*
X137550330Y-145437051D01*
X137553840Y-145444230D01*
X137556960Y-145451583D01*
X137559690Y-145459089D01*
X137562020Y-145466728D01*
X137563960Y-145474478D01*
X137565480Y-145482319D01*
X137566590Y-145490229D01*
X137567290Y-145498187D01*
X137567570Y-145506169D01*
X137567500Y-145510000D01*
X137567500Y-145770000D01*
X137567570Y-145773832D01*
X137567290Y-145781815D01*
X137566590Y-145789773D01*
X137565480Y-145797683D01*
X137563960Y-145805524D01*
X137562020Y-145813274D01*
X137559690Y-145820913D01*
X137556960Y-145828419D01*
X137553830Y-145835772D01*
X137550330Y-145842951D01*
X137546460Y-145849937D01*
X137542230Y-145856711D01*
X137537650Y-145863254D01*
X137532730Y-145869549D01*
X137527490Y-145875577D01*
X137521940Y-145881323D01*
X137516100Y-145886771D01*
X137509980Y-145891905D01*
X137503600Y-145896712D01*
X137496980Y-145901179D01*
X137490130Y-145905293D01*
X137483080Y-145909043D01*
X137475840Y-145912419D01*
X137468430Y-145915411D01*
X137460880Y-145918011D01*
X137453200Y-145920213D01*
X137445420Y-145922010D01*
X137437550Y-145923397D01*
X137429620Y-145924370D01*
X137421650Y-145924928D01*
X137417500Y-145925000D01*
X136197500Y-145925000D01*
X136193690Y-145925067D01*
X136185300Y-145924740D01*
X136176950Y-145923940D01*
X136168650Y-145922670D01*
X136160440Y-145920935D01*
X136152340Y-145918739D01*
X136144380Y-145916090D01*
X136136570Y-145912995D01*
X136128960Y-145909466D01*
X136121550Y-145905512D01*
X136114390Y-145901148D01*
X136107470Y-145896385D01*
X136100840Y-145891241D01*
X136094510Y-145885731D01*
X136088500Y-145879872D01*
X136082830Y-145873684D01*
X136077520Y-145867186D01*
X136072580Y-145860399D01*
X136068030Y-145853343D01*
X136063890Y-145846043D01*
X136060170Y-145838521D01*
X136056880Y-145830800D01*
X136054020Y-145822907D01*
X136051620Y-145814865D01*
X136049680Y-145806700D01*
X136048200Y-145798438D01*
X136047180Y-145790106D01*
X136046640Y-145781731D01*
X136046570Y-145773338D01*
X136046980Y-145764954D01*
X136047500Y-145760000D01*
X136047500Y-145510000D01*
X136047430Y-145506168D01*
X136047710Y-145498185D01*
X136048410Y-145490227D01*
X136049520Y-145482317D01*
X136051040Y-145474476D01*
X136052980Y-145466726D01*
X136055310Y-145459087D01*
X136058040Y-145451581D01*
X136061170Y-145444228D01*
X136064670Y-145437049D01*
X136068540Y-145430063D01*
X136072770Y-145423289D01*
X136077350Y-145416746D01*
X136082270Y-145410451D01*
X136087510Y-145404423D01*
X136093060Y-145398677D01*
X136098900Y-145393229D01*
X136105020Y-145388095D01*
X136111400Y-145383288D01*
X136118020Y-145378821D01*
X136124870Y-145374707D01*
X136131920Y-145370957D01*
X136139160Y-145367581D01*
X136146570Y-145364589D01*
X136154120Y-145361989D01*
X136161800Y-145359787D01*
X136169580Y-145357990D01*
X136177450Y-145356603D01*
X136185380Y-145355630D01*
X136193350Y-145355072D01*
X136197500Y-145355000D01*
X137417500Y-145355000D01*
X137421660Y-145355073D01*
G37*
X137421660Y-144705070D02*
X137429620Y-144705630D01*
X137437550Y-144706600D01*
X137445420Y-144707990D01*
X137453200Y-144709790D01*
X137460880Y-144711990D01*
X137468430Y-144714590D01*
X137475840Y-144717580D01*
X137483080Y-144720960D01*
X137490130Y-144724710D01*
X137496980Y-144728820D01*
X137503600Y-144733290D01*
X137509980Y-144738100D01*
X137516100Y-144743230D01*
X137521940Y-144748680D01*
X137527490Y-144754420D01*
X137532730Y-144760450D01*
X137537650Y-144766750D01*
X137542230Y-144773290D01*
X137546460Y-144780060D01*
X137550330Y-144787050D01*
X137553840Y-144794230D01*
X137556960Y-144801580D01*
X137559690Y-144809090D01*
X137562020Y-144816730D01*
X137563960Y-144824480D01*
X137565480Y-144832320D01*
X137566590Y-144840230D01*
X137567290Y-144848190D01*
X137567570Y-144856170D01*
X137567500Y-144860000D01*
X137567500Y-145120000D01*
X137567570Y-145123832D01*
X137567290Y-145131815D01*
X137566590Y-145139773D01*
X137565480Y-145147683D01*
X137563960Y-145155524D01*
X137562020Y-145163274D01*
X137559690Y-145170913D01*
X137556960Y-145178419D01*
X137553830Y-145185772D01*
X137550330Y-145192951D01*
X137546460Y-145199937D01*
X137542230Y-145206711D01*
X137537650Y-145213254D01*
X137532730Y-145219549D01*
X137527490Y-145225577D01*
X137521940Y-145231323D01*
X137516100Y-145236771D01*
X137509980Y-145241905D01*
X137503600Y-145246712D01*
X137496980Y-145251179D01*
X137490130Y-145255293D01*
X137483080Y-145259043D01*
X137475840Y-145262419D01*
X137468430Y-145265411D01*
X137460880Y-145268011D01*
X137453200Y-145270213D01*
X137445420Y-145272010D01*
X137437550Y-145273397D01*
X137429620Y-145274370D01*
X137421650Y-145274928D01*
X137417500Y-145275000D01*
X136197500Y-145275000D01*
X136193690Y-145275067D01*
X136185300Y-145274740D01*
X136176950Y-145273940D01*
X136168650Y-145272670D01*
X136160440Y-145270935D01*
X136152340Y-145268739D01*
X136144380Y-145266090D01*
X136136570Y-145262995D01*
X136128960Y-145259466D01*
X136121550Y-145255512D01*
X136114390Y-145251148D01*
X136107470Y-145246386D01*
X136100840Y-145241241D01*
X136094510Y-145235731D01*
X136088500Y-145229872D01*
X136082830Y-145223684D01*
X136077520Y-145217186D01*
X136072580Y-145210399D01*
X136068030Y-145203343D01*
X136063890Y-145196043D01*
X136060170Y-145188521D01*
X136056880Y-145180800D01*
X136054020Y-145172907D01*
X136051620Y-145164865D01*
X136049680Y-145156700D01*
X136048200Y-145148438D01*
X136047180Y-145140106D01*
X136046640Y-145131731D01*
X136046570Y-145123338D01*
X136046980Y-145114954D01*
X136047500Y-145110000D01*
X136047500Y-144860000D01*
X136047430Y-144856170D01*
X136047710Y-144848180D01*
X136048410Y-144840230D01*
X136049520Y-144832320D01*
X136051040Y-144824480D01*
X136052980Y-144816730D01*
X136055310Y-144809090D01*
X136058040Y-144801580D01*
X136061170Y-144794230D01*
X136064670Y-144787050D01*
X136068540Y-144780060D01*
X136072770Y-144773290D01*
X136077350Y-144766750D01*
X136082270Y-144760450D01*
X136087510Y-144754420D01*
X136093060Y-144748680D01*
X136098900Y-144743230D01*
X136105020Y-144738090D01*
X136111400Y-144733290D01*
X136118020Y-144728820D01*
X136124870Y-144724710D01*
X136131920Y-144720960D01*
X136139160Y-144717580D01*
X136146570Y-144714590D01*
X136154120Y-144711990D01*
X136161800Y-144709790D01*
X136169580Y-144707990D01*
X136177450Y-144706600D01*
X136185380Y-144705630D01*
X136193350Y-144705070D01*
X136197500Y-144705000D01*
X137417500Y-144705000D01*
X137421660Y-144705070D01*
G36*
X137421660Y-144705070D02*
G01*
X137429620Y-144705630D01*
X137437550Y-144706600D01*
X137445420Y-144707990D01*
X137453200Y-144709790D01*
X137460880Y-144711990D01*
X137468430Y-144714590D01*
X137475840Y-144717580D01*
X137483080Y-144720960D01*
X137490130Y-144724710D01*
X137496980Y-144728820D01*
X137503600Y-144733290D01*
X137509980Y-144738100D01*
X137516100Y-144743230D01*
X137521940Y-144748680D01*
X137527490Y-144754420D01*
X137532730Y-144760450D01*
X137537650Y-144766750D01*
X137542230Y-144773290D01*
X137546460Y-144780060D01*
X137550330Y-144787050D01*
X137553840Y-144794230D01*
X137556960Y-144801580D01*
X137559690Y-144809090D01*
X137562020Y-144816730D01*
X137563960Y-144824480D01*
X137565480Y-144832320D01*
X137566590Y-144840230D01*
X137567290Y-144848190D01*
X137567570Y-144856170D01*
X137567500Y-144860000D01*
X137567500Y-145120000D01*
X137567570Y-145123832D01*
X137567290Y-145131815D01*
X137566590Y-145139773D01*
X137565480Y-145147683D01*
X137563960Y-145155524D01*
X137562020Y-145163274D01*
X137559690Y-145170913D01*
X137556960Y-145178419D01*
X137553830Y-145185772D01*
X137550330Y-145192951D01*
X137546460Y-145199937D01*
X137542230Y-145206711D01*
X137537650Y-145213254D01*
X137532730Y-145219549D01*
X137527490Y-145225577D01*
X137521940Y-145231323D01*
X137516100Y-145236771D01*
X137509980Y-145241905D01*
X137503600Y-145246712D01*
X137496980Y-145251179D01*
X137490130Y-145255293D01*
X137483080Y-145259043D01*
X137475840Y-145262419D01*
X137468430Y-145265411D01*
X137460880Y-145268011D01*
X137453200Y-145270213D01*
X137445420Y-145272010D01*
X137437550Y-145273397D01*
X137429620Y-145274370D01*
X137421650Y-145274928D01*
X137417500Y-145275000D01*
X136197500Y-145275000D01*
X136193690Y-145275067D01*
X136185300Y-145274740D01*
X136176950Y-145273940D01*
X136168650Y-145272670D01*
X136160440Y-145270935D01*
X136152340Y-145268739D01*
X136144380Y-145266090D01*
X136136570Y-145262995D01*
X136128960Y-145259466D01*
X136121550Y-145255512D01*
X136114390Y-145251148D01*
X136107470Y-145246386D01*
X136100840Y-145241241D01*
X136094510Y-145235731D01*
X136088500Y-145229872D01*
X136082830Y-145223684D01*
X136077520Y-145217186D01*
X136072580Y-145210399D01*
X136068030Y-145203343D01*
X136063890Y-145196043D01*
X136060170Y-145188521D01*
X136056880Y-145180800D01*
X136054020Y-145172907D01*
X136051620Y-145164865D01*
X136049680Y-145156700D01*
X136048200Y-145148438D01*
X136047180Y-145140106D01*
X136046640Y-145131731D01*
X136046570Y-145123338D01*
X136046980Y-145114954D01*
X136047500Y-145110000D01*
X136047500Y-144860000D01*
X136047430Y-144856170D01*
X136047710Y-144848180D01*
X136048410Y-144840230D01*
X136049520Y-144832320D01*
X136051040Y-144824480D01*
X136052980Y-144816730D01*
X136055310Y-144809090D01*
X136058040Y-144801580D01*
X136061170Y-144794230D01*
X136064670Y-144787050D01*
X136068540Y-144780060D01*
X136072770Y-144773290D01*
X136077350Y-144766750D01*
X136082270Y-144760450D01*
X136087510Y-144754420D01*
X136093060Y-144748680D01*
X136098900Y-144743230D01*
X136105020Y-144738090D01*
X136111400Y-144733290D01*
X136118020Y-144728820D01*
X136124870Y-144724710D01*
X136131920Y-144720960D01*
X136139160Y-144717580D01*
X136146570Y-144714590D01*
X136154120Y-144711990D01*
X136161800Y-144709790D01*
X136169580Y-144707990D01*
X136177450Y-144706600D01*
X136185380Y-144705630D01*
X136193350Y-144705070D01*
X136197500Y-144705000D01*
X137417500Y-144705000D01*
X137421660Y-144705070D01*
G37*
X133099700Y-146655260D02*
X133108050Y-146656060D01*
X133116350Y-146657330D01*
X133124560Y-146659065D01*
X133132660Y-146661261D01*
X133140620Y-146663910D01*
X133148430Y-146667005D01*
X133156040Y-146670534D01*
X133163450Y-146674488D01*
X133170610Y-146678852D01*
X133177530Y-146683614D01*
X133184160Y-146688759D01*
X133190490Y-146694269D01*
X133196500Y-146700128D01*
X133202170Y-146706316D01*
X133207480Y-146712814D01*
X133212420Y-146719601D01*
X133216970Y-146726657D01*
X133221110Y-146733957D01*
X133224830Y-146741479D01*
X133228120Y-146749200D01*
X133230980Y-146757093D01*
X133233380Y-146765135D01*
X133235320Y-146773300D01*
X133236800Y-146781562D01*
X133237820Y-146789894D01*
X133238360Y-146798269D01*
X133238430Y-146806662D01*
X133238020Y-146815046D01*
X133237500Y-146820000D01*
X133237500Y-147070000D01*
X133237570Y-147073830D01*
X133237290Y-147081820D01*
X133236590Y-147089770D01*
X133235480Y-147097680D01*
X133233960Y-147105520D01*
X133232020Y-147113270D01*
X133229690Y-147120910D01*
X133226960Y-147128420D01*
X133223830Y-147135770D01*
X133220330Y-147142950D01*
X133216460Y-147149940D01*
X133212230Y-147156710D01*
X133207650Y-147163250D01*
X133202730Y-147169550D01*
X133197490Y-147175580D01*
X133191940Y-147181320D01*
X133186100Y-147186770D01*
X133179980Y-147191910D01*
X133173600Y-147196710D01*
X133166980Y-147201180D01*
X133160130Y-147205290D01*
X133153080Y-147209040D01*
X133145840Y-147212420D01*
X133138430Y-147215410D01*
X133130880Y-147218010D01*
X133123200Y-147220210D01*
X133115420Y-147222010D01*
X133107550Y-147223400D01*
X133099620Y-147224370D01*
X133091650Y-147224930D01*
X133087500Y-147225000D01*
X131867500Y-147225000D01*
X131863340Y-147224930D01*
X131855380Y-147224370D01*
X131847450Y-147223400D01*
X131839580Y-147222010D01*
X131831800Y-147220210D01*
X131824120Y-147218010D01*
X131816570Y-147215410D01*
X131809160Y-147212420D01*
X131801920Y-147209040D01*
X131794870Y-147205290D01*
X131788020Y-147201180D01*
X131781400Y-147196710D01*
X131775020Y-147191900D01*
X131768900Y-147186770D01*
X131763060Y-147181320D01*
X131757510Y-147175580D01*
X131752270Y-147169550D01*
X131747350Y-147163250D01*
X131742770Y-147156710D01*
X131738540Y-147149940D01*
X131734670Y-147142950D01*
X131731160Y-147135770D01*
X131728040Y-147128420D01*
X131725310Y-147120910D01*
X131722980Y-147113270D01*
X131721040Y-147105520D01*
X131719520Y-147097680D01*
X131718410Y-147089770D01*
X131717710Y-147081810D01*
X131717430Y-147073830D01*
X131717500Y-147070000D01*
X131717500Y-146810000D01*
X131717430Y-146806168D01*
X131717710Y-146798185D01*
X131718410Y-146790227D01*
X131719520Y-146782317D01*
X131721040Y-146774476D01*
X131722980Y-146766726D01*
X131725310Y-146759087D01*
X131728040Y-146751581D01*
X131731170Y-146744228D01*
X131734670Y-146737049D01*
X131738540Y-146730063D01*
X131742770Y-146723289D01*
X131747350Y-146716746D01*
X131752270Y-146710451D01*
X131757510Y-146704423D01*
X131763060Y-146698677D01*
X131768900Y-146693229D01*
X131775020Y-146688095D01*
X131781400Y-146683288D01*
X131788020Y-146678821D01*
X131794870Y-146674707D01*
X131801920Y-146670957D01*
X131809160Y-146667581D01*
X131816570Y-146664589D01*
X131824120Y-146661989D01*
X131831800Y-146659787D01*
X131839580Y-146657990D01*
X131847450Y-146656603D01*
X131855380Y-146655630D01*
X131863350Y-146655072D01*
X131867500Y-146655000D01*
X133087500Y-146655000D01*
X133091310Y-146654933D01*
X133099700Y-146655260D01*
G36*
X133099700Y-146655260D02*
G01*
X133108050Y-146656060D01*
X133116350Y-146657330D01*
X133124560Y-146659065D01*
X133132660Y-146661261D01*
X133140620Y-146663910D01*
X133148430Y-146667005D01*
X133156040Y-146670534D01*
X133163450Y-146674488D01*
X133170610Y-146678852D01*
X133177530Y-146683614D01*
X133184160Y-146688759D01*
X133190490Y-146694269D01*
X133196500Y-146700128D01*
X133202170Y-146706316D01*
X133207480Y-146712814D01*
X133212420Y-146719601D01*
X133216970Y-146726657D01*
X133221110Y-146733957D01*
X133224830Y-146741479D01*
X133228120Y-146749200D01*
X133230980Y-146757093D01*
X133233380Y-146765135D01*
X133235320Y-146773300D01*
X133236800Y-146781562D01*
X133237820Y-146789894D01*
X133238360Y-146798269D01*
X133238430Y-146806662D01*
X133238020Y-146815046D01*
X133237500Y-146820000D01*
X133237500Y-147070000D01*
X133237570Y-147073830D01*
X133237290Y-147081820D01*
X133236590Y-147089770D01*
X133235480Y-147097680D01*
X133233960Y-147105520D01*
X133232020Y-147113270D01*
X133229690Y-147120910D01*
X133226960Y-147128420D01*
X133223830Y-147135770D01*
X133220330Y-147142950D01*
X133216460Y-147149940D01*
X133212230Y-147156710D01*
X133207650Y-147163250D01*
X133202730Y-147169550D01*
X133197490Y-147175580D01*
X133191940Y-147181320D01*
X133186100Y-147186770D01*
X133179980Y-147191910D01*
X133173600Y-147196710D01*
X133166980Y-147201180D01*
X133160130Y-147205290D01*
X133153080Y-147209040D01*
X133145840Y-147212420D01*
X133138430Y-147215410D01*
X133130880Y-147218010D01*
X133123200Y-147220210D01*
X133115420Y-147222010D01*
X133107550Y-147223400D01*
X133099620Y-147224370D01*
X133091650Y-147224930D01*
X133087500Y-147225000D01*
X131867500Y-147225000D01*
X131863340Y-147224930D01*
X131855380Y-147224370D01*
X131847450Y-147223400D01*
X131839580Y-147222010D01*
X131831800Y-147220210D01*
X131824120Y-147218010D01*
X131816570Y-147215410D01*
X131809160Y-147212420D01*
X131801920Y-147209040D01*
X131794870Y-147205290D01*
X131788020Y-147201180D01*
X131781400Y-147196710D01*
X131775020Y-147191900D01*
X131768900Y-147186770D01*
X131763060Y-147181320D01*
X131757510Y-147175580D01*
X131752270Y-147169550D01*
X131747350Y-147163250D01*
X131742770Y-147156710D01*
X131738540Y-147149940D01*
X131734670Y-147142950D01*
X131731160Y-147135770D01*
X131728040Y-147128420D01*
X131725310Y-147120910D01*
X131722980Y-147113270D01*
X131721040Y-147105520D01*
X131719520Y-147097680D01*
X131718410Y-147089770D01*
X131717710Y-147081810D01*
X131717430Y-147073830D01*
X131717500Y-147070000D01*
X131717500Y-146810000D01*
X131717430Y-146806168D01*
X131717710Y-146798185D01*
X131718410Y-146790227D01*
X131719520Y-146782317D01*
X131721040Y-146774476D01*
X131722980Y-146766726D01*
X131725310Y-146759087D01*
X131728040Y-146751581D01*
X131731170Y-146744228D01*
X131734670Y-146737049D01*
X131738540Y-146730063D01*
X131742770Y-146723289D01*
X131747350Y-146716746D01*
X131752270Y-146710451D01*
X131757510Y-146704423D01*
X131763060Y-146698677D01*
X131768900Y-146693229D01*
X131775020Y-146688095D01*
X131781400Y-146683288D01*
X131788020Y-146678821D01*
X131794870Y-146674707D01*
X131801920Y-146670957D01*
X131809160Y-146667581D01*
X131816570Y-146664589D01*
X131824120Y-146661989D01*
X131831800Y-146659787D01*
X131839580Y-146657990D01*
X131847450Y-146656603D01*
X131855380Y-146655630D01*
X131863350Y-146655072D01*
X131867500Y-146655000D01*
X133087500Y-146655000D01*
X133091310Y-146654933D01*
X133099700Y-146655260D01*
G37*
X133099700Y-146005260D02*
X133108050Y-146006060D01*
X133116350Y-146007330D01*
X133124560Y-146009065D01*
X133132660Y-146011261D01*
X133140620Y-146013910D01*
X133148430Y-146017005D01*
X133156040Y-146020534D01*
X133163450Y-146024488D01*
X133170610Y-146028852D01*
X133177530Y-146033615D01*
X133184160Y-146038759D01*
X133190490Y-146044269D01*
X133196500Y-146050128D01*
X133202170Y-146056316D01*
X133207480Y-146062814D01*
X133212420Y-146069601D01*
X133216970Y-146076657D01*
X133221110Y-146083957D01*
X133224830Y-146091479D01*
X133228120Y-146099200D01*
X133230980Y-146107093D01*
X133233380Y-146115135D01*
X133235320Y-146123300D01*
X133236800Y-146131562D01*
X133237820Y-146139894D01*
X133238360Y-146148269D01*
X133238430Y-146156662D01*
X133238020Y-146165046D01*
X133237500Y-146170000D01*
X133237500Y-146420000D01*
X133237570Y-146423832D01*
X133237290Y-146431815D01*
X133236590Y-146439773D01*
X133235480Y-146447683D01*
X133233960Y-146455524D01*
X133232020Y-146463274D01*
X133229690Y-146470913D01*
X133226960Y-146478419D01*
X133223830Y-146485772D01*
X133220330Y-146492951D01*
X133216460Y-146499937D01*
X133212230Y-146506711D01*
X133207650Y-146513254D01*
X133202730Y-146519549D01*
X133197490Y-146525577D01*
X133191940Y-146531323D01*
X133186100Y-146536771D01*
X133179980Y-146541905D01*
X133173600Y-146546712D01*
X133166980Y-146551179D01*
X133160130Y-146555293D01*
X133153080Y-146559043D01*
X133145840Y-146562419D01*
X133138430Y-146565411D01*
X133130880Y-146568011D01*
X133123200Y-146570213D01*
X133115420Y-146572010D01*
X133107550Y-146573397D01*
X133099620Y-146574370D01*
X133091650Y-146574928D01*
X133087500Y-146575000D01*
X131867500Y-146575000D01*
X131863340Y-146574927D01*
X131855380Y-146574370D01*
X131847450Y-146573397D01*
X131839580Y-146572010D01*
X131831800Y-146570213D01*
X131824120Y-146568011D01*
X131816570Y-146565410D01*
X131809160Y-146562418D01*
X131801920Y-146559042D01*
X131794870Y-146555292D01*
X131788020Y-146551178D01*
X131781400Y-146546711D01*
X131775020Y-146541904D01*
X131768900Y-146536770D01*
X131763060Y-146531322D01*
X131757510Y-146525576D01*
X131752270Y-146519547D01*
X131747350Y-146513253D01*
X131742770Y-146506710D01*
X131738540Y-146499936D01*
X131734670Y-146492949D01*
X131731160Y-146485770D01*
X131728040Y-146478417D01*
X131725310Y-146470911D01*
X131722980Y-146463272D01*
X131721040Y-146455522D01*
X131719520Y-146447681D01*
X131718410Y-146439771D01*
X131717710Y-146431813D01*
X131717430Y-146423831D01*
X131717500Y-146420000D01*
X131717500Y-146160000D01*
X131717430Y-146156168D01*
X131717710Y-146148185D01*
X131718410Y-146140227D01*
X131719520Y-146132317D01*
X131721040Y-146124476D01*
X131722980Y-146116726D01*
X131725310Y-146109087D01*
X131728040Y-146101581D01*
X131731170Y-146094228D01*
X131734670Y-146087049D01*
X131738540Y-146080063D01*
X131742770Y-146073289D01*
X131747350Y-146066746D01*
X131752270Y-146060451D01*
X131757510Y-146054423D01*
X131763060Y-146048677D01*
X131768900Y-146043229D01*
X131775020Y-146038095D01*
X131781400Y-146033288D01*
X131788020Y-146028821D01*
X131794870Y-146024707D01*
X131801920Y-146020957D01*
X131809160Y-146017581D01*
X131816570Y-146014589D01*
X131824120Y-146011989D01*
X131831800Y-146009787D01*
X131839580Y-146007990D01*
X131847450Y-146006603D01*
X131855380Y-146005630D01*
X131863350Y-146005072D01*
X131867500Y-146005000D01*
X133087500Y-146005000D01*
X133091310Y-146004933D01*
X133099700Y-146005260D01*
G36*
X133099700Y-146005260D02*
G01*
X133108050Y-146006060D01*
X133116350Y-146007330D01*
X133124560Y-146009065D01*
X133132660Y-146011261D01*
X133140620Y-146013910D01*
X133148430Y-146017005D01*
X133156040Y-146020534D01*
X133163450Y-146024488D01*
X133170610Y-146028852D01*
X133177530Y-146033615D01*
X133184160Y-146038759D01*
X133190490Y-146044269D01*
X133196500Y-146050128D01*
X133202170Y-146056316D01*
X133207480Y-146062814D01*
X133212420Y-146069601D01*
X133216970Y-146076657D01*
X133221110Y-146083957D01*
X133224830Y-146091479D01*
X133228120Y-146099200D01*
X133230980Y-146107093D01*
X133233380Y-146115135D01*
X133235320Y-146123300D01*
X133236800Y-146131562D01*
X133237820Y-146139894D01*
X133238360Y-146148269D01*
X133238430Y-146156662D01*
X133238020Y-146165046D01*
X133237500Y-146170000D01*
X133237500Y-146420000D01*
X133237570Y-146423832D01*
X133237290Y-146431815D01*
X133236590Y-146439773D01*
X133235480Y-146447683D01*
X133233960Y-146455524D01*
X133232020Y-146463274D01*
X133229690Y-146470913D01*
X133226960Y-146478419D01*
X133223830Y-146485772D01*
X133220330Y-146492951D01*
X133216460Y-146499937D01*
X133212230Y-146506711D01*
X133207650Y-146513254D01*
X133202730Y-146519549D01*
X133197490Y-146525577D01*
X133191940Y-146531323D01*
X133186100Y-146536771D01*
X133179980Y-146541905D01*
X133173600Y-146546712D01*
X133166980Y-146551179D01*
X133160130Y-146555293D01*
X133153080Y-146559043D01*
X133145840Y-146562419D01*
X133138430Y-146565411D01*
X133130880Y-146568011D01*
X133123200Y-146570213D01*
X133115420Y-146572010D01*
X133107550Y-146573397D01*
X133099620Y-146574370D01*
X133091650Y-146574928D01*
X133087500Y-146575000D01*
X131867500Y-146575000D01*
X131863340Y-146574927D01*
X131855380Y-146574370D01*
X131847450Y-146573397D01*
X131839580Y-146572010D01*
X131831800Y-146570213D01*
X131824120Y-146568011D01*
X131816570Y-146565410D01*
X131809160Y-146562418D01*
X131801920Y-146559042D01*
X131794870Y-146555292D01*
X131788020Y-146551178D01*
X131781400Y-146546711D01*
X131775020Y-146541904D01*
X131768900Y-146536770D01*
X131763060Y-146531322D01*
X131757510Y-146525576D01*
X131752270Y-146519547D01*
X131747350Y-146513253D01*
X131742770Y-146506710D01*
X131738540Y-146499936D01*
X131734670Y-146492949D01*
X131731160Y-146485770D01*
X131728040Y-146478417D01*
X131725310Y-146470911D01*
X131722980Y-146463272D01*
X131721040Y-146455522D01*
X131719520Y-146447681D01*
X131718410Y-146439771D01*
X131717710Y-146431813D01*
X131717430Y-146423831D01*
X131717500Y-146420000D01*
X131717500Y-146160000D01*
X131717430Y-146156168D01*
X131717710Y-146148185D01*
X131718410Y-146140227D01*
X131719520Y-146132317D01*
X131721040Y-146124476D01*
X131722980Y-146116726D01*
X131725310Y-146109087D01*
X131728040Y-146101581D01*
X131731170Y-146094228D01*
X131734670Y-146087049D01*
X131738540Y-146080063D01*
X131742770Y-146073289D01*
X131747350Y-146066746D01*
X131752270Y-146060451D01*
X131757510Y-146054423D01*
X131763060Y-146048677D01*
X131768900Y-146043229D01*
X131775020Y-146038095D01*
X131781400Y-146033288D01*
X131788020Y-146028821D01*
X131794870Y-146024707D01*
X131801920Y-146020957D01*
X131809160Y-146017581D01*
X131816570Y-146014589D01*
X131824120Y-146011989D01*
X131831800Y-146009787D01*
X131839580Y-146007990D01*
X131847450Y-146006603D01*
X131855380Y-146005630D01*
X131863350Y-146005072D01*
X131867500Y-146005000D01*
X133087500Y-146005000D01*
X133091310Y-146004933D01*
X133099700Y-146005260D01*
G37*
X133099700Y-145355260D02*
X133108050Y-145356060D01*
X133116350Y-145357330D01*
X133124560Y-145359065D01*
X133132660Y-145361261D01*
X133140620Y-145363910D01*
X133148430Y-145367005D01*
X133156040Y-145370534D01*
X133163450Y-145374488D01*
X133170610Y-145378852D01*
X133177530Y-145383614D01*
X133184160Y-145388759D01*
X133190490Y-145394269D01*
X133196500Y-145400128D01*
X133202170Y-145406316D01*
X133207480Y-145412814D01*
X133212420Y-145419601D01*
X133216970Y-145426657D01*
X133221110Y-145433957D01*
X133224830Y-145441479D01*
X133228120Y-145449200D01*
X133230980Y-145457093D01*
X133233380Y-145465135D01*
X133235320Y-145473300D01*
X133236800Y-145481562D01*
X133237820Y-145489894D01*
X133238360Y-145498269D01*
X133238430Y-145506662D01*
X133238020Y-145515046D01*
X133237500Y-145520000D01*
X133237500Y-145770000D01*
X133237570Y-145773832D01*
X133237290Y-145781815D01*
X133236590Y-145789773D01*
X133235480Y-145797683D01*
X133233960Y-145805524D01*
X133232020Y-145813274D01*
X133229690Y-145820913D01*
X133226960Y-145828419D01*
X133223830Y-145835772D01*
X133220330Y-145842951D01*
X133216460Y-145849937D01*
X133212230Y-145856711D01*
X133207650Y-145863254D01*
X133202730Y-145869549D01*
X133197490Y-145875577D01*
X133191940Y-145881323D01*
X133186100Y-145886771D01*
X133179980Y-145891905D01*
X133173600Y-145896712D01*
X133166980Y-145901179D01*
X133160130Y-145905293D01*
X133153080Y-145909043D01*
X133145840Y-145912419D01*
X133138430Y-145915411D01*
X133130880Y-145918011D01*
X133123200Y-145920213D01*
X133115420Y-145922010D01*
X133107550Y-145923397D01*
X133099620Y-145924370D01*
X133091650Y-145924928D01*
X133087500Y-145925000D01*
X131867500Y-145925000D01*
X131863340Y-145924927D01*
X131855380Y-145924370D01*
X131847450Y-145923397D01*
X131839580Y-145922010D01*
X131831800Y-145920213D01*
X131824120Y-145918011D01*
X131816570Y-145915410D01*
X131809160Y-145912418D01*
X131801920Y-145909042D01*
X131794870Y-145905292D01*
X131788020Y-145901178D01*
X131781400Y-145896711D01*
X131775020Y-145891904D01*
X131768900Y-145886770D01*
X131763060Y-145881322D01*
X131757510Y-145875576D01*
X131752270Y-145869547D01*
X131747350Y-145863253D01*
X131742770Y-145856710D01*
X131738540Y-145849936D01*
X131734670Y-145842949D01*
X131731160Y-145835770D01*
X131728040Y-145828417D01*
X131725310Y-145820911D01*
X131722980Y-145813272D01*
X131721040Y-145805522D01*
X131719520Y-145797681D01*
X131718410Y-145789771D01*
X131717710Y-145781813D01*
X131717430Y-145773831D01*
X131717500Y-145770000D01*
X131717500Y-145510000D01*
X131717430Y-145506168D01*
X131717710Y-145498185D01*
X131718410Y-145490227D01*
X131719520Y-145482317D01*
X131721040Y-145474476D01*
X131722980Y-145466726D01*
X131725310Y-145459087D01*
X131728040Y-145451581D01*
X131731170Y-145444228D01*
X131734670Y-145437049D01*
X131738540Y-145430063D01*
X131742770Y-145423289D01*
X131747350Y-145416746D01*
X131752270Y-145410451D01*
X131757510Y-145404423D01*
X131763060Y-145398677D01*
X131768900Y-145393229D01*
X131775020Y-145388095D01*
X131781400Y-145383288D01*
X131788020Y-145378821D01*
X131794870Y-145374707D01*
X131801920Y-145370957D01*
X131809160Y-145367581D01*
X131816570Y-145364589D01*
X131824120Y-145361989D01*
X131831800Y-145359787D01*
X131839580Y-145357990D01*
X131847450Y-145356603D01*
X131855380Y-145355630D01*
X131863350Y-145355072D01*
X131867500Y-145355000D01*
X133087500Y-145355000D01*
X133091310Y-145354933D01*
X133099700Y-145355260D01*
G36*
X133099700Y-145355260D02*
G01*
X133108050Y-145356060D01*
X133116350Y-145357330D01*
X133124560Y-145359065D01*
X133132660Y-145361261D01*
X133140620Y-145363910D01*
X133148430Y-145367005D01*
X133156040Y-145370534D01*
X133163450Y-145374488D01*
X133170610Y-145378852D01*
X133177530Y-145383614D01*
X133184160Y-145388759D01*
X133190490Y-145394269D01*
X133196500Y-145400128D01*
X133202170Y-145406316D01*
X133207480Y-145412814D01*
X133212420Y-145419601D01*
X133216970Y-145426657D01*
X133221110Y-145433957D01*
X133224830Y-145441479D01*
X133228120Y-145449200D01*
X133230980Y-145457093D01*
X133233380Y-145465135D01*
X133235320Y-145473300D01*
X133236800Y-145481562D01*
X133237820Y-145489894D01*
X133238360Y-145498269D01*
X133238430Y-145506662D01*
X133238020Y-145515046D01*
X133237500Y-145520000D01*
X133237500Y-145770000D01*
X133237570Y-145773832D01*
X133237290Y-145781815D01*
X133236590Y-145789773D01*
X133235480Y-145797683D01*
X133233960Y-145805524D01*
X133232020Y-145813274D01*
X133229690Y-145820913D01*
X133226960Y-145828419D01*
X133223830Y-145835772D01*
X133220330Y-145842951D01*
X133216460Y-145849937D01*
X133212230Y-145856711D01*
X133207650Y-145863254D01*
X133202730Y-145869549D01*
X133197490Y-145875577D01*
X133191940Y-145881323D01*
X133186100Y-145886771D01*
X133179980Y-145891905D01*
X133173600Y-145896712D01*
X133166980Y-145901179D01*
X133160130Y-145905293D01*
X133153080Y-145909043D01*
X133145840Y-145912419D01*
X133138430Y-145915411D01*
X133130880Y-145918011D01*
X133123200Y-145920213D01*
X133115420Y-145922010D01*
X133107550Y-145923397D01*
X133099620Y-145924370D01*
X133091650Y-145924928D01*
X133087500Y-145925000D01*
X131867500Y-145925000D01*
X131863340Y-145924927D01*
X131855380Y-145924370D01*
X131847450Y-145923397D01*
X131839580Y-145922010D01*
X131831800Y-145920213D01*
X131824120Y-145918011D01*
X131816570Y-145915410D01*
X131809160Y-145912418D01*
X131801920Y-145909042D01*
X131794870Y-145905292D01*
X131788020Y-145901178D01*
X131781400Y-145896711D01*
X131775020Y-145891904D01*
X131768900Y-145886770D01*
X131763060Y-145881322D01*
X131757510Y-145875576D01*
X131752270Y-145869547D01*
X131747350Y-145863253D01*
X131742770Y-145856710D01*
X131738540Y-145849936D01*
X131734670Y-145842949D01*
X131731160Y-145835770D01*
X131728040Y-145828417D01*
X131725310Y-145820911D01*
X131722980Y-145813272D01*
X131721040Y-145805522D01*
X131719520Y-145797681D01*
X131718410Y-145789771D01*
X131717710Y-145781813D01*
X131717430Y-145773831D01*
X131717500Y-145770000D01*
X131717500Y-145510000D01*
X131717430Y-145506168D01*
X131717710Y-145498185D01*
X131718410Y-145490227D01*
X131719520Y-145482317D01*
X131721040Y-145474476D01*
X131722980Y-145466726D01*
X131725310Y-145459087D01*
X131728040Y-145451581D01*
X131731170Y-145444228D01*
X131734670Y-145437049D01*
X131738540Y-145430063D01*
X131742770Y-145423289D01*
X131747350Y-145416746D01*
X131752270Y-145410451D01*
X131757510Y-145404423D01*
X131763060Y-145398677D01*
X131768900Y-145393229D01*
X131775020Y-145388095D01*
X131781400Y-145383288D01*
X131788020Y-145378821D01*
X131794870Y-145374707D01*
X131801920Y-145370957D01*
X131809160Y-145367581D01*
X131816570Y-145364589D01*
X131824120Y-145361989D01*
X131831800Y-145359787D01*
X131839580Y-145357990D01*
X131847450Y-145356603D01*
X131855380Y-145355630D01*
X131863350Y-145355072D01*
X131867500Y-145355000D01*
X133087500Y-145355000D01*
X133091310Y-145354933D01*
X133099700Y-145355260D01*
G37*
X133099700Y-144705260D02*
X133108050Y-144706060D01*
X133116350Y-144707330D01*
X133124560Y-144709070D01*
X133132660Y-144711260D01*
X133140620Y-144713910D01*
X133148430Y-144717000D01*
X133156040Y-144720530D01*
X133163450Y-144724490D01*
X133170610Y-144728850D01*
X133177530Y-144733610D01*
X133184160Y-144738760D01*
X133190490Y-144744270D01*
X133196500Y-144750130D01*
X133202170Y-144756320D01*
X133207480Y-144762810D01*
X133212420Y-144769600D01*
X133216970Y-144776660D01*
X133221110Y-144783960D01*
X133224830Y-144791480D01*
X133228120Y-144799200D01*
X133230980Y-144807090D01*
X133233380Y-144815140D01*
X133235320Y-144823300D01*
X133236800Y-144831560D01*
X133237820Y-144839890D01*
X133238360Y-144848270D01*
X133238430Y-144856660D01*
X133238020Y-144865050D01*
X133237500Y-144870000D01*
X133237500Y-145120000D01*
X133237570Y-145123832D01*
X133237290Y-145131815D01*
X133236590Y-145139773D01*
X133235480Y-145147683D01*
X133233960Y-145155524D01*
X133232020Y-145163274D01*
X133229690Y-145170913D01*
X133226960Y-145178419D01*
X133223830Y-145185772D01*
X133220330Y-145192951D01*
X133216460Y-145199937D01*
X133212230Y-145206711D01*
X133207650Y-145213254D01*
X133202730Y-145219549D01*
X133197490Y-145225577D01*
X133191940Y-145231323D01*
X133186100Y-145236771D01*
X133179980Y-145241905D01*
X133173600Y-145246712D01*
X133166980Y-145251179D01*
X133160130Y-145255293D01*
X133153080Y-145259043D01*
X133145840Y-145262419D01*
X133138430Y-145265411D01*
X133130880Y-145268011D01*
X133123200Y-145270213D01*
X133115420Y-145272010D01*
X133107550Y-145273397D01*
X133099620Y-145274370D01*
X133091650Y-145274928D01*
X133087500Y-145275000D01*
X131867500Y-145275000D01*
X131863340Y-145274927D01*
X131855380Y-145274370D01*
X131847450Y-145273397D01*
X131839580Y-145272010D01*
X131831800Y-145270213D01*
X131824120Y-145268011D01*
X131816570Y-145265410D01*
X131809160Y-145262418D01*
X131801920Y-145259042D01*
X131794870Y-145255292D01*
X131788020Y-145251178D01*
X131781400Y-145246711D01*
X131775020Y-145241904D01*
X131768900Y-145236770D01*
X131763060Y-145231322D01*
X131757510Y-145225576D01*
X131752270Y-145219547D01*
X131747350Y-145213253D01*
X131742770Y-145206710D01*
X131738540Y-145199936D01*
X131734670Y-145192949D01*
X131731160Y-145185770D01*
X131728040Y-145178417D01*
X131725310Y-145170911D01*
X131722980Y-145163272D01*
X131721040Y-145155522D01*
X131719520Y-145147681D01*
X131718410Y-145139771D01*
X131717710Y-145131813D01*
X131717430Y-145123831D01*
X131717500Y-145120000D01*
X131717500Y-144860000D01*
X131717430Y-144856170D01*
X131717710Y-144848180D01*
X131718410Y-144840230D01*
X131719520Y-144832320D01*
X131721040Y-144824480D01*
X131722980Y-144816730D01*
X131725310Y-144809090D01*
X131728040Y-144801580D01*
X131731170Y-144794230D01*
X131734670Y-144787050D01*
X131738540Y-144780060D01*
X131742770Y-144773290D01*
X131747350Y-144766750D01*
X131752270Y-144760450D01*
X131757510Y-144754420D01*
X131763060Y-144748680D01*
X131768900Y-144743230D01*
X131775020Y-144738090D01*
X131781400Y-144733290D01*
X131788020Y-144728820D01*
X131794870Y-144724710D01*
X131801920Y-144720960D01*
X131809160Y-144717580D01*
X131816570Y-144714590D01*
X131824120Y-144711990D01*
X131831800Y-144709790D01*
X131839580Y-144707990D01*
X131847450Y-144706600D01*
X131855380Y-144705630D01*
X131863350Y-144705070D01*
X131867500Y-144705000D01*
X133087500Y-144705000D01*
X133091310Y-144704930D01*
X133099700Y-144705260D01*
G36*
X133099700Y-144705260D02*
G01*
X133108050Y-144706060D01*
X133116350Y-144707330D01*
X133124560Y-144709070D01*
X133132660Y-144711260D01*
X133140620Y-144713910D01*
X133148430Y-144717000D01*
X133156040Y-144720530D01*
X133163450Y-144724490D01*
X133170610Y-144728850D01*
X133177530Y-144733610D01*
X133184160Y-144738760D01*
X133190490Y-144744270D01*
X133196500Y-144750130D01*
X133202170Y-144756320D01*
X133207480Y-144762810D01*
X133212420Y-144769600D01*
X133216970Y-144776660D01*
X133221110Y-144783960D01*
X133224830Y-144791480D01*
X133228120Y-144799200D01*
X133230980Y-144807090D01*
X133233380Y-144815140D01*
X133235320Y-144823300D01*
X133236800Y-144831560D01*
X133237820Y-144839890D01*
X133238360Y-144848270D01*
X133238430Y-144856660D01*
X133238020Y-144865050D01*
X133237500Y-144870000D01*
X133237500Y-145120000D01*
X133237570Y-145123832D01*
X133237290Y-145131815D01*
X133236590Y-145139773D01*
X133235480Y-145147683D01*
X133233960Y-145155524D01*
X133232020Y-145163274D01*
X133229690Y-145170913D01*
X133226960Y-145178419D01*
X133223830Y-145185772D01*
X133220330Y-145192951D01*
X133216460Y-145199937D01*
X133212230Y-145206711D01*
X133207650Y-145213254D01*
X133202730Y-145219549D01*
X133197490Y-145225577D01*
X133191940Y-145231323D01*
X133186100Y-145236771D01*
X133179980Y-145241905D01*
X133173600Y-145246712D01*
X133166980Y-145251179D01*
X133160130Y-145255293D01*
X133153080Y-145259043D01*
X133145840Y-145262419D01*
X133138430Y-145265411D01*
X133130880Y-145268011D01*
X133123200Y-145270213D01*
X133115420Y-145272010D01*
X133107550Y-145273397D01*
X133099620Y-145274370D01*
X133091650Y-145274928D01*
X133087500Y-145275000D01*
X131867500Y-145275000D01*
X131863340Y-145274927D01*
X131855380Y-145274370D01*
X131847450Y-145273397D01*
X131839580Y-145272010D01*
X131831800Y-145270213D01*
X131824120Y-145268011D01*
X131816570Y-145265410D01*
X131809160Y-145262418D01*
X131801920Y-145259042D01*
X131794870Y-145255292D01*
X131788020Y-145251178D01*
X131781400Y-145246711D01*
X131775020Y-145241904D01*
X131768900Y-145236770D01*
X131763060Y-145231322D01*
X131757510Y-145225576D01*
X131752270Y-145219547D01*
X131747350Y-145213253D01*
X131742770Y-145206710D01*
X131738540Y-145199936D01*
X131734670Y-145192949D01*
X131731160Y-145185770D01*
X131728040Y-145178417D01*
X131725310Y-145170911D01*
X131722980Y-145163272D01*
X131721040Y-145155522D01*
X131719520Y-145147681D01*
X131718410Y-145139771D01*
X131717710Y-145131813D01*
X131717430Y-145123831D01*
X131717500Y-145120000D01*
X131717500Y-144860000D01*
X131717430Y-144856170D01*
X131717710Y-144848180D01*
X131718410Y-144840230D01*
X131719520Y-144832320D01*
X131721040Y-144824480D01*
X131722980Y-144816730D01*
X131725310Y-144809090D01*
X131728040Y-144801580D01*
X131731170Y-144794230D01*
X131734670Y-144787050D01*
X131738540Y-144780060D01*
X131742770Y-144773290D01*
X131747350Y-144766750D01*
X131752270Y-144760450D01*
X131757510Y-144754420D01*
X131763060Y-144748680D01*
X131768900Y-144743230D01*
X131775020Y-144738090D01*
X131781400Y-144733290D01*
X131788020Y-144728820D01*
X131794870Y-144724710D01*
X131801920Y-144720960D01*
X131809160Y-144717580D01*
X131816570Y-144714590D01*
X131824120Y-144711990D01*
X131831800Y-144709790D01*
X131839580Y-144707990D01*
X131847450Y-144706600D01*
X131855380Y-144705630D01*
X131863350Y-144705070D01*
X131867500Y-144705000D01*
X133087500Y-144705000D01*
X133091310Y-144704930D01*
X133099700Y-144705260D01*
G37*
G36*
X108225000Y-105065533D02*
G01*
X103475000Y-105065533D01*
X103475000Y-100465533D01*
X108225000Y-100465533D01*
X108225000Y-105065533D01*
G37*
D20*
X145645530Y-136085980D03*
X145645530Y-122944020D03*
D21*
X105450000Y-120845000D03*
X102910000Y-120845000D03*
X105450000Y-118305000D03*
X102910000Y-118305000D03*
X105450000Y-115765000D03*
X102910000Y-115765000D03*
X105450000Y-113225000D03*
X102910000Y-113225000D03*
X105450000Y-110685000D03*
X102910000Y-110685000D03*
D22*
X153290000Y-117340000D03*
X148340000Y-116740000D03*
X148340000Y-102240000D03*
X153290000Y-101640000D03*
D21*
X126325000Y-158437500D03*
X126325000Y-151237500D03*
D20*
X145520000Y-95691960D03*
X145520000Y-82550000D03*
D23*
X105775000Y-95540533D03*
X104125000Y-95540533D03*
X104125000Y-93990533D03*
X105775000Y-93990533D03*
D24*
X111580000Y-112225000D03*
X111580000Y-111255000D03*
D25*
X130440000Y-130275000D03*
X131410000Y-130275000D03*
X132740000Y-131125000D03*
X133710000Y-131125000D03*
X129640000Y-131775000D03*
X130610000Y-131775000D03*
X134640000Y-131925000D03*
X135610000Y-131925000D03*
X129640000Y-132725000D03*
X130610000Y-132725000D03*
D24*
X132625000Y-129010000D03*
X132625000Y-128040000D03*
D26*
X132660000Y-132075000D03*
X131690000Y-132075000D03*
D25*
X132740000Y-130175000D03*
X133710000Y-130175000D03*
D26*
X133710000Y-133025000D03*
X132740000Y-133025000D03*
D24*
X130525000Y-128310000D03*
X130525000Y-127340000D03*
D25*
X129590000Y-129325000D03*
X130560000Y-129325000D03*
D26*
X128060000Y-128525000D03*
X127090000Y-128525000D03*
D27*
X107200000Y-107630533D03*
X107200000Y-108600533D03*
D25*
X100765000Y-100875000D03*
X101735000Y-100875000D03*
D26*
X119275000Y-105270000D03*
X118305000Y-105270000D03*
D28*
X113055000Y-126652500D03*
X113055000Y-125077500D03*
D29*
X106555000Y-142215000D03*
X106555000Y-139415000D03*
D30*
X141430000Y-100540000D03*
X141430000Y-97740000D03*
D31*
X146130000Y-143315000D03*
X146130000Y-146115000D03*
D32*
X106517500Y-124690000D03*
X110792500Y-124690000D03*
D25*
X106870000Y-118290000D03*
X107840000Y-118290000D03*
D24*
X117525000Y-103210000D03*
X117525000Y-102240000D03*
D26*
X140140000Y-144265000D03*
X139170000Y-144265000D03*
X128060000Y-134225000D03*
X127090000Y-134225000D03*
D25*
X101765000Y-93965533D03*
X102735000Y-93965533D03*
D33*
X107530000Y-137315000D03*
X106580000Y-137315000D03*
X105630000Y-137315000D03*
X105630000Y-135115000D03*
X106580000Y-135115000D03*
X107530000Y-135115000D03*
D27*
X124075000Y-94290000D03*
X124075000Y-95260000D03*
D25*
X140495000Y-95640000D03*
X141465000Y-95640000D03*
D24*
X135627076Y-142322836D03*
X135627076Y-141352836D03*
D25*
X132244576Y-143462836D03*
X133214576Y-143462836D03*
D24*
X127925000Y-127160000D03*
X127925000Y-126190000D03*
X115975000Y-126360000D03*
X115975000Y-125390000D03*
D27*
X122475000Y-105490000D03*
X122475000Y-106460000D03*
D26*
X120325000Y-104280000D03*
X119355000Y-104280000D03*
D24*
X152225000Y-144060000D03*
X152225000Y-143090000D03*
D34*
X136807500Y-144990000D03*
X136807500Y-145640000D03*
X136807500Y-146290000D03*
X136807500Y-146940000D03*
D35*
X132477500Y-146940000D03*
X132477500Y-146290000D03*
X132477500Y-145640000D03*
X132477500Y-144990000D03*
D27*
X122375000Y-128590000D03*
X122375000Y-129560000D03*
X132060000Y-99785000D03*
X132060000Y-100755000D03*
X129575000Y-102290000D03*
X129575000Y-103260000D03*
D36*
X135680000Y-97940000D03*
X138480000Y-97940000D03*
D26*
X118420000Y-94800000D03*
X117450000Y-94800000D03*
D37*
X135819413Y-136174413D03*
X134244413Y-136174413D03*
D29*
X103080000Y-142165000D03*
X103080000Y-139365000D03*
D24*
X101850000Y-96450533D03*
X101850000Y-95480533D03*
D38*
X124112500Y-97175000D03*
X122237500Y-97175000D03*
D27*
X119975000Y-100740000D03*
X119975000Y-101710000D03*
D25*
X125490000Y-95975000D03*
X126460000Y-95975000D03*
D27*
X123075000Y-94290000D03*
X123075000Y-95260000D03*
D26*
X130460000Y-95975000D03*
X129490000Y-95975000D03*
D27*
X111790000Y-80735000D03*
X111790000Y-81705000D03*
D26*
X118460000Y-95975000D03*
X117490000Y-95975000D03*
D27*
X120775000Y-93490000D03*
X120775000Y-94460000D03*
X119975000Y-95890000D03*
X119975000Y-96860000D03*
D25*
X127090000Y-97575000D03*
X128060000Y-97575000D03*
D26*
X122460000Y-103125000D03*
X121490000Y-103125000D03*
X123260000Y-101675000D03*
X122290000Y-101675000D03*
D24*
X127850000Y-104060000D03*
X127850000Y-103090000D03*
D27*
X126225000Y-99940000D03*
X126225000Y-100910000D03*
D26*
X128860000Y-100975000D03*
X127890000Y-100975000D03*
X118435000Y-106275000D03*
X117465000Y-106275000D03*
X127260000Y-106475000D03*
X126290000Y-106475000D03*
D24*
X137645000Y-141966250D03*
X137645000Y-140996250D03*
D27*
X133575000Y-126990000D03*
X133575000Y-127960000D03*
D26*
X125660000Y-102225000D03*
X124690000Y-102225000D03*
D39*
X138930000Y-139971250D03*
X138930000Y-139471250D03*
X138930000Y-138971250D03*
X138930000Y-138471250D03*
X138930000Y-137971250D03*
X141880000Y-137971250D03*
X141880000Y-138471250D03*
X141880000Y-138971250D03*
X141880000Y-139471250D03*
X141880000Y-139971250D03*
D40*
X140155000Y-137421250D03*
X140155000Y-140521250D03*
D41*
X140405000Y-138971250D03*
D40*
X140655000Y-137421250D03*
X140655000Y-140521250D03*
D27*
X146345000Y-139096250D03*
X146345000Y-140066250D03*
D24*
X143245000Y-141666250D03*
X143245000Y-140696250D03*
D42*
X143457500Y-139381250D03*
X145032500Y-139381250D03*
D24*
X142105000Y-136256250D03*
X142105000Y-135286250D03*
D42*
X139257500Y-134481250D03*
X140832500Y-134481250D03*
X139257500Y-135981250D03*
X140832500Y-135981250D03*
D25*
X140760000Y-141781250D03*
X141730000Y-141781250D03*
D28*
X137445000Y-135768750D03*
X137445000Y-134193750D03*
X137375000Y-139462500D03*
X137375000Y-137887500D03*
D25*
X133490000Y-125475000D03*
X134460000Y-125475000D03*
D26*
X135260000Y-123875000D03*
X134290000Y-123875000D03*
D24*
X138220000Y-113705000D03*
X138220000Y-112735000D03*
X138220000Y-115605000D03*
X138220000Y-114635000D03*
X136320000Y-113705000D03*
X136320000Y-112735000D03*
X136320000Y-115605000D03*
X136320000Y-114635000D03*
X137280000Y-113705000D03*
X137280000Y-112735000D03*
X137280000Y-115595000D03*
X137280000Y-114625000D03*
D26*
X122460000Y-104075000D03*
X121490000Y-104075000D03*
D24*
X121475000Y-106460000D03*
X121475000Y-105490000D03*
D28*
X142000000Y-150000000D03*
X142000000Y-148425000D03*
D26*
X135710000Y-156550000D03*
X134740000Y-156550000D03*
D25*
X134865000Y-153525000D03*
X135835000Y-153525000D03*
D24*
X138950000Y-149192500D03*
X138950000Y-148222500D03*
D25*
X134715000Y-155550000D03*
X135685000Y-155550000D03*
D27*
X133500000Y-156490000D03*
X133500000Y-157460000D03*
D25*
X134605000Y-158400000D03*
X135575000Y-158400000D03*
D42*
X130462500Y-157800000D03*
X132037500Y-157800000D03*
D27*
X139000000Y-100865000D03*
X139000000Y-101835000D03*
X133200000Y-141165000D03*
X133200000Y-142135000D03*
D24*
X136080000Y-139515000D03*
X136080000Y-138545000D03*
X143425000Y-149097500D03*
X143425000Y-148127500D03*
D25*
X133940000Y-161000000D03*
X134910000Y-161000000D03*
D28*
X133400000Y-154412500D03*
X133400000Y-152837500D03*
D37*
X132025000Y-156175000D03*
X130450000Y-156175000D03*
D28*
X140300000Y-150050000D03*
X140300000Y-148475000D03*
D43*
X123475000Y-150250000D03*
X123475000Y-153325000D03*
D27*
X110430000Y-102955000D03*
X110430000Y-103925000D03*
D26*
X128060000Y-129475000D03*
X127090000Y-129475000D03*
X127110000Y-130775000D03*
X126140000Y-130775000D03*
D25*
X135090000Y-129375000D03*
X136060000Y-129375000D03*
D36*
X122055000Y-138765000D03*
X124855000Y-138765000D03*
D44*
X104250000Y-83875000D03*
X101450000Y-83875000D03*
D42*
X135587500Y-101975000D03*
X137162500Y-101975000D03*
D24*
X125925000Y-98135000D03*
X125925000Y-97165000D03*
D45*
X101930000Y-135115000D03*
X102880000Y-135115000D03*
X103830000Y-135115000D03*
X103830000Y-137315000D03*
X102880000Y-137315000D03*
X101930000Y-137315000D03*
D46*
X118617500Y-139815000D03*
X114342500Y-139815000D03*
D37*
X110567500Y-142065000D03*
X108992500Y-142065000D03*
D33*
X111330000Y-138265000D03*
X110380000Y-138265000D03*
X109430000Y-138265000D03*
X109430000Y-136065000D03*
X111330000Y-136065000D03*
D26*
X103765000Y-133715000D03*
X102795000Y-133715000D03*
D24*
X101000000Y-140410000D03*
X101000000Y-139440000D03*
D47*
X111405000Y-103315000D03*
X111905000Y-103315000D03*
X112405000Y-103315000D03*
X112905000Y-103315000D03*
X112905000Y-105215000D03*
X112405000Y-105215000D03*
X111905000Y-105215000D03*
X111405000Y-105215000D03*
D48*
X112155000Y-104265000D03*
D26*
X113015000Y-102046250D03*
X112045000Y-102046250D03*
D24*
X113955000Y-102850000D03*
X113955000Y-101880000D03*
D27*
X113955000Y-103780000D03*
X113955000Y-104750000D03*
D44*
X104250000Y-87175000D03*
X101450000Y-87175000D03*
D25*
X126282924Y-139492164D03*
X127252924Y-139492164D03*
D26*
X139485000Y-147150000D03*
X138515000Y-147150000D03*
D24*
X105250000Y-97800533D03*
X105250000Y-96830533D03*
X107050000Y-95250533D03*
X107050000Y-94280533D03*
X106450000Y-97800533D03*
X106450000Y-96830533D03*
D26*
X104985000Y-92550000D03*
X104015000Y-92550000D03*
D42*
X136462500Y-105125000D03*
X138037500Y-105125000D03*
D49*
X137880000Y-110908750D03*
X137880000Y-109033750D03*
D25*
X135790000Y-103500000D03*
X136760000Y-103500000D03*
D45*
X107705000Y-119590000D03*
X108655000Y-119590000D03*
X109605000Y-119590000D03*
X109605000Y-121790000D03*
X107705000Y-121790000D03*
D42*
X111312500Y-121900000D03*
X112887500Y-121900000D03*
D27*
X146123750Y-114155000D03*
X146123750Y-115125000D03*
D25*
X133415000Y-159700000D03*
X134385000Y-159700000D03*
D27*
X131175000Y-105490000D03*
X131175000Y-106460000D03*
D24*
X121460000Y-100145000D03*
X121460000Y-99175000D03*
D26*
X144230000Y-138181250D03*
X143260000Y-138181250D03*
D50*
X112300000Y-66990000D03*
X111200000Y-66990000D03*
X110100000Y-66990000D03*
X109000000Y-66990000D03*
X107900000Y-66990000D03*
D51*
X103300000Y-67115000D03*
D50*
X106800000Y-66990000D03*
D52*
X114750000Y-67115000D03*
D53*
X115075000Y-75365000D03*
D50*
X105700000Y-66990000D03*
X104600000Y-66990000D03*
D54*
X114600000Y-77790000D03*
D55*
X103450000Y-76215000D03*
D56*
X103125000Y-74715000D03*
D57*
X130350000Y-153837500D03*
X130350000Y-150762500D03*
D58*
X141880000Y-102502500D03*
X141880000Y-104377500D03*
D42*
X138855000Y-145565000D03*
X140430000Y-145565000D03*
D32*
X110117500Y-107865000D03*
X114392500Y-107865000D03*
D26*
X127210000Y-131725000D03*
X126240000Y-131725000D03*
D27*
X129575000Y-105490000D03*
X129575000Y-106460000D03*
X123925000Y-103890000D03*
X123925000Y-104860000D03*
D26*
X124860000Y-100725000D03*
X123890000Y-100725000D03*
D24*
X129500000Y-98935000D03*
X129500000Y-97965000D03*
D28*
X132775000Y-97562500D03*
X132775000Y-95987500D03*
D29*
X137205000Y-95340000D03*
X137205000Y-92540000D03*
D42*
X132337500Y-101975000D03*
X133912500Y-101975000D03*
D25*
X135090000Y-130325000D03*
X136060000Y-130325000D03*
D24*
X131475000Y-129360000D03*
X131475000Y-128390000D03*
D31*
X142880000Y-143365000D03*
X142880000Y-146165000D03*
D59*
X108550000Y-158600000D03*
X108550000Y-156060000D03*
X108550000Y-153520000D03*
X108550000Y-150980000D03*
X108550000Y-148440000D03*
X108550000Y-145900000D03*
D24*
X127975000Y-100060000D03*
X127975000Y-99090000D03*
X124875000Y-104860000D03*
X124875000Y-103890000D03*
D27*
X126375000Y-104590000D03*
X126375000Y-105560000D03*
D25*
X105265000Y-108565533D03*
X106235000Y-108565533D03*
X129640000Y-133675000D03*
X130610000Y-133675000D03*
D27*
X134625000Y-133490000D03*
X134625000Y-134460000D03*
D24*
X129575000Y-127160000D03*
X129575000Y-126190000D03*
D26*
X128710000Y-132725000D03*
X127740000Y-132725000D03*
D25*
X141346250Y-114215000D03*
X142316250Y-114215000D03*
X143446250Y-114215000D03*
X144416250Y-114215000D03*
D26*
X150275000Y-112570000D03*
X149305000Y-112570000D03*
D44*
X113780000Y-99796250D03*
X110980000Y-99796250D03*
D24*
X109455000Y-134750000D03*
X109455000Y-133780000D03*
D60*
X103555000Y-128027500D03*
X103555000Y-132302500D03*
D61*
X108555000Y-129215000D03*
X108555000Y-130165000D03*
X108555000Y-131115000D03*
X106355000Y-131115000D03*
X106355000Y-129215000D03*
D42*
X106267500Y-132765000D03*
X107842500Y-132765000D03*
D27*
X110125000Y-96590000D03*
X110125000Y-97560000D03*
D25*
X114790000Y-134875000D03*
X115760000Y-134875000D03*
D26*
X150245000Y-111500000D03*
X149275000Y-111500000D03*
D25*
X101365000Y-97765533D03*
X102335000Y-97765533D03*
D62*
X103945000Y-98865533D03*
X105215000Y-98865533D03*
X106485000Y-98865533D03*
X107755000Y-98865533D03*
X107755000Y-106665533D03*
X106485000Y-106665533D03*
X105215000Y-106665533D03*
X103945000Y-106665533D03*
D27*
X101150000Y-98990000D03*
X101150000Y-99960000D03*
D63*
X109900000Y-92815000D03*
X109900000Y-93835000D03*
D64*
X146760000Y-93030000D03*
X146760000Y-90080000D03*
D65*
X102900000Y-90650000D03*
X101350000Y-90650000D03*
D66*
X105975000Y-86350000D03*
X107525000Y-86350000D03*
D67*
X106075000Y-92060000D03*
X106075000Y-91040000D03*
D68*
X104875000Y-90500000D03*
X104875000Y-91460000D03*
D69*
X146770000Y-85210000D03*
X146770000Y-88160000D03*
D70*
X145800000Y-80050000D03*
X145800000Y-78225000D03*
D71*
X109710000Y-89900000D03*
X108690000Y-89900000D03*
D70*
X150570000Y-80302500D03*
X150570000Y-78477500D03*
D72*
X115252000Y-85341372D03*
X115252000Y-84381372D03*
D66*
X105975000Y-88000000D03*
X107525000Y-88000000D03*
D73*
X106400000Y-84225000D03*
X109350000Y-84225000D03*
D74*
X120310000Y-64650000D03*
X121310000Y-64650000D03*
X122310000Y-64650000D03*
X123310000Y-64650000D03*
X124310000Y-64650000D03*
X125310000Y-64650000D03*
X126310000Y-64650000D03*
X127310000Y-64650000D03*
X128310000Y-64650000D03*
X129310000Y-64650000D03*
X130310000Y-64650000D03*
X131310000Y-64650000D03*
X132310000Y-64650000D03*
X133310000Y-64650000D03*
X134310000Y-64650000D03*
X135310000Y-64650000D03*
X136310000Y-64650000D03*
D75*
X139660000Y-68250000D03*
X139660000Y-69250000D03*
X139660000Y-70250000D03*
X139660000Y-71250000D03*
X139660000Y-72250000D03*
X139660000Y-73250000D03*
X139660000Y-74250000D03*
X139660000Y-75250000D03*
X139660000Y-76250000D03*
X139660000Y-77250000D03*
X139660000Y-78250000D03*
X139660000Y-79250000D03*
X139660000Y-80250000D03*
X139660000Y-81250000D03*
X139660000Y-82250000D03*
X139660000Y-83250000D03*
X139660000Y-84250000D03*
D76*
X136360000Y-87350000D03*
X135360000Y-87350000D03*
X134360000Y-87350000D03*
X133360000Y-87350000D03*
X132360000Y-87350000D03*
X131360000Y-87350000D03*
X130360000Y-87350000D03*
X129360000Y-87350000D03*
X128360000Y-87350000D03*
X127360000Y-87350000D03*
X126360000Y-87350000D03*
X125360000Y-87350000D03*
X124360000Y-87350000D03*
X123360000Y-87350000D03*
X122360000Y-87350000D03*
X121360000Y-87350000D03*
X120360000Y-87350000D03*
D77*
X117010000Y-84050000D03*
X117010000Y-83050000D03*
X117010000Y-82050000D03*
X117010000Y-81050000D03*
X117010000Y-80050000D03*
X117010000Y-79050000D03*
X117010000Y-78050000D03*
X117010000Y-77050000D03*
X117010000Y-76050000D03*
X117010000Y-75050000D03*
X117010000Y-74050000D03*
X117010000Y-73050000D03*
X117010000Y-72050000D03*
X117010000Y-71050000D03*
X117010000Y-70050000D03*
X117010000Y-69050000D03*
X117010000Y-68050000D03*
D78*
X135810000Y-68350000D03*
X132010000Y-68350000D03*
X128210000Y-68350000D03*
X124410000Y-68350000D03*
X120610000Y-68350000D03*
X135760000Y-72150000D03*
X128210000Y-72150000D03*
X120610000Y-72150000D03*
X135760000Y-75950000D03*
X131960000Y-75950000D03*
X124360000Y-75950000D03*
X120610000Y-75950000D03*
X135710000Y-79750000D03*
X128160000Y-79750000D03*
X120560000Y-79750000D03*
X135710000Y-83550000D03*
X131910000Y-83550000D03*
X128160000Y-83550000D03*
X124310000Y-83550000D03*
X120560000Y-83550000D03*
D70*
X153060000Y-80342500D03*
X153060000Y-78517500D03*
D68*
X111150000Y-87070000D03*
X111150000Y-88030000D03*
D63*
X109900000Y-90865000D03*
X109900000Y-91885000D03*
D68*
X115247000Y-82451372D03*
X115247000Y-83411372D03*
X111150000Y-85045000D03*
X111150000Y-86005000D03*
D79*
X150557500Y-130960000D03*
X143757500Y-130960000D03*
D70*
X143750000Y-80025000D03*
X143750000Y-78200000D03*
D80*
X143100036Y-75600000D03*
X152429964Y-75600000D03*
X143100000Y-69850001D03*
X152430000Y-69850001D03*
D81*
X143300000Y-64130000D03*
X152230000Y-64130000D03*
D82*
X149670000Y-76270001D03*
X147130000Y-76270001D03*
X145860000Y-76270001D03*
X150940000Y-76270001D03*
X148400000Y-76270001D03*
X144590000Y-76270001D03*
D83*
X150410000Y-82527500D03*
X150410000Y-84352500D03*
D70*
X147850000Y-80050000D03*
X147850000Y-78225000D03*
M02*
