G04 #@! TF.GenerationSoftware,KiCad,Pcbnew,7.0.1*
G04 #@! TF.CreationDate,2024-07-31T19:39:54-07:00*
G04 #@! TF.ProjectId,DFTBoard,44465442-6f61-4726-942e-6b696361645f,rev?*
G04 #@! TF.SameCoordinates,Original*
G04 #@! TF.FileFunction,Soldermask,Bot*
G04 #@! TF.FilePolarity,Negative*
%FSLAX46Y46*%
G04 Gerber Fmt 4.6, Leading zero omitted, Abs format (unit mm)*
G04 Created by KiCad (PCBNEW 7.0.1) date 2024-07-31 19:39:54*
%MOMM*%
%LPD*%
G01*
G04 APERTURE LIST*
G04 Aperture macros list*
%AMRoundRect*
0 Rectangle with rounded corners*
0 $1 Rounding radius*
0 $2 $3 $4 $5 $6 $7 $8 $9 X,Y pos of 4 corners*
0 Add a 4 corners polygon primitive as box body*
4,1,4,$2,$3,$4,$5,$6,$7,$8,$9,$2,$3,0*
0 Add four circle primitives for the rounded corners*
1,1,$1+$1,$2,$3*
1,1,$1+$1,$4,$5*
1,1,$1+$1,$6,$7*
1,1,$1+$1,$8,$9*
0 Add four rect primitives between the rounded corners*
20,1,$1+$1,$2,$3,$4,$5,0*
20,1,$1+$1,$4,$5,$6,$7,0*
20,1,$1+$1,$6,$7,$8,$9,0*
20,1,$1+$1,$8,$9,$2,$3,0*%
G04 Aperture macros list end*
%ADD10C,0.001000*%
%ADD11C,3.078000*%
%ADD12C,2.030000*%
%ADD13C,1.630000*%
%ADD14RoundRect,0.015000X0.325000X-0.425000X0.325000X0.425000X-0.325000X0.425000X-0.325000X-0.425000X0*%
%ADD15RoundRect,0.162500X0.172500X-0.147500X0.172500X0.147500X-0.172500X0.147500X-0.172500X-0.147500X0*%
%ADD16RoundRect,0.162500X-0.147500X-0.172500X0.147500X-0.172500X0.147500X0.172500X-0.147500X0.172500X0*%
%ADD17RoundRect,0.162500X0.147500X0.172500X-0.147500X0.172500X-0.147500X-0.172500X0.147500X-0.172500X0*%
%ADD18RoundRect,0.162500X-0.172500X0.147500X-0.172500X-0.147500X0.172500X-0.147500X0.172500X0.147500X0*%
%ADD19RoundRect,0.233750X0.256250X-0.218750X0.256250X0.218750X-0.256250X0.218750X-0.256250X-0.218750X0*%
%ADD20RoundRect,0.265000X1.075000X-0.375000X1.075000X0.375000X-1.075000X0.375000X-1.075000X-0.375000X0*%
%ADD21RoundRect,0.265000X0.625000X-0.375000X0.625000X0.375000X-0.625000X0.375000X-0.625000X-0.375000X0*%
%ADD22RoundRect,0.265000X-1.075000X0.375000X-1.075000X-0.375000X1.075000X-0.375000X1.075000X0.375000X0*%
%ADD23RoundRect,0.265000X-0.312500X-1.450000X0.312500X-1.450000X0.312500X1.450000X-0.312500X1.450000X0*%
%ADD24RoundRect,0.015000X0.325000X-0.530000X0.325000X0.530000X-0.325000X0.530000X-0.325000X-0.530000X0*%
%ADD25RoundRect,0.015000X0.710000X0.235000X-0.710000X0.235000X-0.710000X-0.235000X0.710000X-0.235000X0*%
%ADD26RoundRect,0.015000X-0.710000X-0.235000X0.710000X-0.235000X0.710000X0.235000X-0.710000X0.235000X0*%
%ADD27RoundRect,0.265000X-0.375000X-1.075000X0.375000X-1.075000X0.375000X1.075000X-0.375000X1.075000X0*%
%ADD28RoundRect,0.233750X0.218750X0.256250X-0.218750X0.256250X-0.218750X-0.256250X0.218750X-0.256250X0*%
%ADD29RoundRect,0.258750X0.243750X0.456250X-0.243750X0.456250X-0.243750X-0.456250X0.243750X-0.456250X0*%
%ADD30RoundRect,0.015000X-0.425000X-0.140000X0.425000X-0.140000X0.425000X0.140000X-0.425000X0.140000X0*%
%ADD31RoundRect,0.015000X-0.140000X-0.350000X0.140000X-0.350000X0.140000X0.350000X-0.140000X0.350000X0*%
%ADD32RoundRect,0.015000X-0.825000X-1.200000X0.825000X-1.200000X0.825000X1.200000X-0.825000X1.200000X0*%
%ADD33RoundRect,0.233750X-0.218750X-0.256250X0.218750X-0.256250X0.218750X0.256250X-0.218750X0.256250X0*%
%ADD34RoundRect,0.265000X-0.925000X0.412500X-0.925000X-0.412500X0.925000X-0.412500X0.925000X0.412500X0*%
%ADD35RoundRect,0.265000X0.375000X1.075000X-0.375000X1.075000X-0.375000X-1.075000X0.375000X-1.075000X0*%
%ADD36RoundRect,0.015000X-0.325000X0.530000X-0.325000X-0.530000X0.325000X-0.530000X0.325000X0.530000X0*%
%ADD37RoundRect,0.265000X0.312500X1.450000X-0.312500X1.450000X-0.312500X-1.450000X0.312500X-1.450000X0*%
%ADD38RoundRect,0.015000X-0.125000X0.250000X-0.125000X-0.250000X0.125000X-0.250000X0.125000X0.250000X0*%
%ADD39RoundRect,0.015000X-0.800000X0.450000X-0.800000X-0.450000X0.800000X-0.450000X0.800000X0.450000X0*%
%ADD40RoundRect,0.258750X0.456250X-0.243750X0.456250X0.243750X-0.456250X0.243750X-0.456250X-0.243750X0*%
%ADD41RoundRect,0.015000X-0.350000X-0.875000X0.350000X-0.875000X0.350000X0.875000X-0.350000X0.875000X0*%
%ADD42RoundRect,0.015000X-0.650000X-0.750000X0.650000X-0.750000X0.650000X0.750000X-0.650000X0.750000X0*%
%ADD43RoundRect,0.015000X-0.750000X-0.750000X0.750000X-0.750000X0.750000X0.750000X-0.750000X0.750000X0*%
%ADD44RoundRect,0.015000X-0.400000X-0.700000X0.400000X-0.700000X0.400000X0.700000X-0.400000X0.700000X0*%
%ADD45RoundRect,0.015000X-0.500000X-0.775000X0.500000X-0.775000X0.500000X0.775000X-0.500000X0.775000X0*%
%ADD46RoundRect,0.015000X-0.750000X-0.400000X0.750000X-0.400000X0.750000X0.400000X-0.750000X0.400000X0*%
%ADD47RoundRect,0.015000X-0.400000X-0.750000X0.400000X-0.750000X0.400000X0.750000X-0.400000X0.750000X0*%
%ADD48RoundRect,0.265000X0.925000X-0.412500X0.925000X0.412500X-0.925000X0.412500X-0.925000X-0.412500X0*%
%ADD49RoundRect,0.258750X-0.456250X0.243750X-0.456250X-0.243750X0.456250X-0.243750X0.456250X0.243750X0*%
%ADD50C,1.808000*%
%ADD51RoundRect,0.265000X-1.450000X0.312500X-1.450000X-0.312500X1.450000X-0.312500X1.450000X0.312500X0*%
%ADD52RoundRect,0.015000X0.530000X0.325000X-0.530000X0.325000X-0.530000X-0.325000X0.530000X-0.325000X0*%
%ADD53RoundRect,0.240000X0.000000X0.250000X0.000000X-0.250000X0.000000X-0.250000X0.000000X0.250000X0*%
%ADD54RoundRect,0.150000X-0.185000X0.135000X-0.185000X-0.135000X0.185000X-0.135000X0.185000X0.135000X0*%
%ADD55RoundRect,0.265000X1.100000X-0.325000X1.100000X0.325000X-1.100000X0.325000X-1.100000X-0.325000X0*%
%ADD56RoundRect,0.240000X0.225000X0.250000X-0.225000X0.250000X-0.225000X-0.250000X0.225000X-0.250000X0*%
%ADD57RoundRect,0.240000X-0.225000X-0.250000X0.225000X-0.250000X0.225000X0.250000X-0.225000X0.250000X0*%
%ADD58RoundRect,0.150000X0.185000X-0.135000X0.185000X0.135000X-0.185000X0.135000X-0.185000X-0.135000X0*%
%ADD59RoundRect,0.155000X-0.170000X0.140000X-0.170000X-0.140000X0.170000X-0.140000X0.170000X0.140000X0*%
%ADD60RoundRect,0.265000X-1.100000X0.325000X-1.100000X-0.325000X1.100000X-0.325000X1.100000X0.325000X0*%
%ADD61RoundRect,0.265000X0.450000X-0.262500X0.450000X0.262500X-0.450000X0.262500X-0.450000X-0.262500X0*%
%ADD62RoundRect,0.150000X0.135000X0.185000X-0.135000X0.185000X-0.135000X-0.185000X0.135000X-0.185000X0*%
%ADD63RoundRect,0.155000X0.170000X-0.140000X0.170000X0.140000X-0.170000X0.140000X-0.170000X-0.140000X0*%
%ADD64RoundRect,0.265000X-0.325000X-0.650000X0.325000X-0.650000X0.325000X0.650000X-0.325000X0.650000X0*%
%ADD65RoundRect,0.165000X-0.150000X0.250000X-0.150000X-0.250000X0.150000X-0.250000X0.150000X0.250000X0*%
%ADD66RoundRect,0.165000X0.250000X0.150000X-0.250000X0.150000X-0.250000X-0.150000X0.250000X-0.150000X0*%
%ADD67RoundRect,0.165000X0.150000X-0.250000X0.150000X0.250000X-0.150000X0.250000X-0.150000X-0.250000X0*%
%ADD68RoundRect,0.165000X-0.250000X-0.150000X0.250000X-0.150000X0.250000X0.150000X-0.250000X0.150000X0*%
%ADD69RoundRect,0.540000X-0.525000X0.525000X-0.525000X-0.525000X0.525000X-0.525000X0.525000X0.525000X0*%
%ADD70RoundRect,0.265000X1.000000X-1.400000X1.000000X1.400000X-1.000000X1.400000X-1.000000X-1.400000X0*%
%ADD71RoundRect,0.015000X-0.241300X-0.901700X0.241300X-0.901700X0.241300X0.901700X-0.241300X0.901700X0*%
%ADD72RoundRect,0.015000X-0.515000X-0.495300X0.515000X-0.495300X0.515000X0.495300X-0.515000X0.495300X0*%
%ADD73RoundRect,0.015000X-0.330200X-0.647700X0.330200X-0.647700X0.330200X0.647700X-0.330200X0.647700X0*%
%ADD74RoundRect,0.265000X-0.450000X0.262500X-0.450000X-0.262500X0.450000X-0.262500X0.450000X0.262500X0*%
G04 APERTURE END LIST*
D10*
X137421660Y-146655073D02*
X137429620Y-146655630D01*
X137437550Y-146656603D01*
X137445420Y-146657990D01*
X137453200Y-146659787D01*
X137460880Y-146661989D01*
X137468430Y-146664590D01*
X137475840Y-146667582D01*
X137483080Y-146670958D01*
X137490130Y-146674708D01*
X137496980Y-146678822D01*
X137503600Y-146683289D01*
X137509980Y-146688096D01*
X137516100Y-146693230D01*
X137521940Y-146698678D01*
X137527490Y-146704424D01*
X137532730Y-146710453D01*
X137537650Y-146716747D01*
X137542230Y-146723290D01*
X137546460Y-146730064D01*
X137550330Y-146737051D01*
X137553840Y-146744230D01*
X137556960Y-146751583D01*
X137559690Y-146759089D01*
X137562020Y-146766728D01*
X137563960Y-146774478D01*
X137565480Y-146782319D01*
X137566590Y-146790229D01*
X137567290Y-146798187D01*
X137567570Y-146806169D01*
X137567500Y-146810000D01*
X137567500Y-147070000D01*
X137567570Y-147073830D01*
X137567290Y-147081820D01*
X137566590Y-147089770D01*
X137565480Y-147097680D01*
X137563960Y-147105520D01*
X137562020Y-147113270D01*
X137559690Y-147120910D01*
X137556960Y-147128420D01*
X137553830Y-147135770D01*
X137550330Y-147142950D01*
X137546460Y-147149940D01*
X137542230Y-147156710D01*
X137537650Y-147163250D01*
X137532730Y-147169550D01*
X137527490Y-147175580D01*
X137521940Y-147181320D01*
X137516100Y-147186770D01*
X137509980Y-147191910D01*
X137503600Y-147196710D01*
X137496980Y-147201180D01*
X137490130Y-147205290D01*
X137483080Y-147209040D01*
X137475840Y-147212420D01*
X137468430Y-147215410D01*
X137460880Y-147218010D01*
X137453200Y-147220210D01*
X137445420Y-147222010D01*
X137437550Y-147223400D01*
X137429620Y-147224370D01*
X137421650Y-147224930D01*
X137417500Y-147225000D01*
X136197500Y-147225000D01*
X136193690Y-147225070D01*
X136185300Y-147224740D01*
X136176950Y-147223940D01*
X136168650Y-147222670D01*
X136160440Y-147220930D01*
X136152340Y-147218740D01*
X136144380Y-147216090D01*
X136136570Y-147213000D01*
X136128960Y-147209470D01*
X136121550Y-147205510D01*
X136114390Y-147201150D01*
X136107470Y-147196390D01*
X136100840Y-147191240D01*
X136094510Y-147185730D01*
X136088500Y-147179870D01*
X136082830Y-147173680D01*
X136077520Y-147167190D01*
X136072580Y-147160400D01*
X136068030Y-147153340D01*
X136063890Y-147146040D01*
X136060170Y-147138520D01*
X136056880Y-147130800D01*
X136054020Y-147122910D01*
X136051620Y-147114860D01*
X136049680Y-147106700D01*
X136048200Y-147098440D01*
X136047180Y-147090110D01*
X136046640Y-147081730D01*
X136046570Y-147073340D01*
X136046980Y-147064950D01*
X136047500Y-147060000D01*
X136047500Y-146810000D01*
X136047430Y-146806168D01*
X136047710Y-146798185D01*
X136048410Y-146790227D01*
X136049520Y-146782317D01*
X136051040Y-146774476D01*
X136052980Y-146766726D01*
X136055310Y-146759087D01*
X136058040Y-146751581D01*
X136061170Y-146744228D01*
X136064670Y-146737049D01*
X136068540Y-146730063D01*
X136072770Y-146723289D01*
X136077350Y-146716746D01*
X136082270Y-146710451D01*
X136087510Y-146704423D01*
X136093060Y-146698677D01*
X136098900Y-146693229D01*
X136105020Y-146688095D01*
X136111400Y-146683288D01*
X136118020Y-146678821D01*
X136124870Y-146674707D01*
X136131920Y-146670957D01*
X136139160Y-146667581D01*
X136146570Y-146664589D01*
X136154120Y-146661989D01*
X136161800Y-146659787D01*
X136169580Y-146657990D01*
X136177450Y-146656603D01*
X136185380Y-146655630D01*
X136193350Y-146655072D01*
X136197500Y-146655000D01*
X137417500Y-146655000D01*
X137421660Y-146655073D01*
G36*
X137421660Y-146655073D02*
G01*
X137429620Y-146655630D01*
X137437550Y-146656603D01*
X137445420Y-146657990D01*
X137453200Y-146659787D01*
X137460880Y-146661989D01*
X137468430Y-146664590D01*
X137475840Y-146667582D01*
X137483080Y-146670958D01*
X137490130Y-146674708D01*
X137496980Y-146678822D01*
X137503600Y-146683289D01*
X137509980Y-146688096D01*
X137516100Y-146693230D01*
X137521940Y-146698678D01*
X137527490Y-146704424D01*
X137532730Y-146710453D01*
X137537650Y-146716747D01*
X137542230Y-146723290D01*
X137546460Y-146730064D01*
X137550330Y-146737051D01*
X137553840Y-146744230D01*
X137556960Y-146751583D01*
X137559690Y-146759089D01*
X137562020Y-146766728D01*
X137563960Y-146774478D01*
X137565480Y-146782319D01*
X137566590Y-146790229D01*
X137567290Y-146798187D01*
X137567570Y-146806169D01*
X137567500Y-146810000D01*
X137567500Y-147070000D01*
X137567570Y-147073830D01*
X137567290Y-147081820D01*
X137566590Y-147089770D01*
X137565480Y-147097680D01*
X137563960Y-147105520D01*
X137562020Y-147113270D01*
X137559690Y-147120910D01*
X137556960Y-147128420D01*
X137553830Y-147135770D01*
X137550330Y-147142950D01*
X137546460Y-147149940D01*
X137542230Y-147156710D01*
X137537650Y-147163250D01*
X137532730Y-147169550D01*
X137527490Y-147175580D01*
X137521940Y-147181320D01*
X137516100Y-147186770D01*
X137509980Y-147191910D01*
X137503600Y-147196710D01*
X137496980Y-147201180D01*
X137490130Y-147205290D01*
X137483080Y-147209040D01*
X137475840Y-147212420D01*
X137468430Y-147215410D01*
X137460880Y-147218010D01*
X137453200Y-147220210D01*
X137445420Y-147222010D01*
X137437550Y-147223400D01*
X137429620Y-147224370D01*
X137421650Y-147224930D01*
X137417500Y-147225000D01*
X136197500Y-147225000D01*
X136193690Y-147225070D01*
X136185300Y-147224740D01*
X136176950Y-147223940D01*
X136168650Y-147222670D01*
X136160440Y-147220930D01*
X136152340Y-147218740D01*
X136144380Y-147216090D01*
X136136570Y-147213000D01*
X136128960Y-147209470D01*
X136121550Y-147205510D01*
X136114390Y-147201150D01*
X136107470Y-147196390D01*
X136100840Y-147191240D01*
X136094510Y-147185730D01*
X136088500Y-147179870D01*
X136082830Y-147173680D01*
X136077520Y-147167190D01*
X136072580Y-147160400D01*
X136068030Y-147153340D01*
X136063890Y-147146040D01*
X136060170Y-147138520D01*
X136056880Y-147130800D01*
X136054020Y-147122910D01*
X136051620Y-147114860D01*
X136049680Y-147106700D01*
X136048200Y-147098440D01*
X136047180Y-147090110D01*
X136046640Y-147081730D01*
X136046570Y-147073340D01*
X136046980Y-147064950D01*
X136047500Y-147060000D01*
X136047500Y-146810000D01*
X136047430Y-146806168D01*
X136047710Y-146798185D01*
X136048410Y-146790227D01*
X136049520Y-146782317D01*
X136051040Y-146774476D01*
X136052980Y-146766726D01*
X136055310Y-146759087D01*
X136058040Y-146751581D01*
X136061170Y-146744228D01*
X136064670Y-146737049D01*
X136068540Y-146730063D01*
X136072770Y-146723289D01*
X136077350Y-146716746D01*
X136082270Y-146710451D01*
X136087510Y-146704423D01*
X136093060Y-146698677D01*
X136098900Y-146693229D01*
X136105020Y-146688095D01*
X136111400Y-146683288D01*
X136118020Y-146678821D01*
X136124870Y-146674707D01*
X136131920Y-146670957D01*
X136139160Y-146667581D01*
X136146570Y-146664589D01*
X136154120Y-146661989D01*
X136161800Y-146659787D01*
X136169580Y-146657990D01*
X136177450Y-146656603D01*
X136185380Y-146655630D01*
X136193350Y-146655072D01*
X136197500Y-146655000D01*
X137417500Y-146655000D01*
X137421660Y-146655073D01*
G37*
X137421660Y-146005073D02*
X137429620Y-146005630D01*
X137437550Y-146006603D01*
X137445420Y-146007990D01*
X137453200Y-146009787D01*
X137460880Y-146011989D01*
X137468430Y-146014590D01*
X137475840Y-146017582D01*
X137483080Y-146020958D01*
X137490130Y-146024708D01*
X137496980Y-146028822D01*
X137503600Y-146033289D01*
X137509980Y-146038096D01*
X137516100Y-146043230D01*
X137521940Y-146048678D01*
X137527490Y-146054424D01*
X137532730Y-146060453D01*
X137537650Y-146066747D01*
X137542230Y-146073290D01*
X137546460Y-146080064D01*
X137550330Y-146087051D01*
X137553840Y-146094230D01*
X137556960Y-146101583D01*
X137559690Y-146109089D01*
X137562020Y-146116728D01*
X137563960Y-146124478D01*
X137565480Y-146132319D01*
X137566590Y-146140229D01*
X137567290Y-146148187D01*
X137567570Y-146156169D01*
X137567500Y-146160000D01*
X137567500Y-146420000D01*
X137567570Y-146423832D01*
X137567290Y-146431815D01*
X137566590Y-146439773D01*
X137565480Y-146447683D01*
X137563960Y-146455524D01*
X137562020Y-146463274D01*
X137559690Y-146470913D01*
X137556960Y-146478419D01*
X137553830Y-146485772D01*
X137550330Y-146492951D01*
X137546460Y-146499937D01*
X137542230Y-146506711D01*
X137537650Y-146513254D01*
X137532730Y-146519549D01*
X137527490Y-146525577D01*
X137521940Y-146531323D01*
X137516100Y-146536771D01*
X137509980Y-146541905D01*
X137503600Y-146546712D01*
X137496980Y-146551179D01*
X137490130Y-146555293D01*
X137483080Y-146559043D01*
X137475840Y-146562419D01*
X137468430Y-146565411D01*
X137460880Y-146568011D01*
X137453200Y-146570213D01*
X137445420Y-146572010D01*
X137437550Y-146573397D01*
X137429620Y-146574370D01*
X137421650Y-146574928D01*
X137417500Y-146575000D01*
X136197500Y-146575000D01*
X136193690Y-146575067D01*
X136185300Y-146574740D01*
X136176950Y-146573940D01*
X136168650Y-146572670D01*
X136160440Y-146570935D01*
X136152340Y-146568739D01*
X136144380Y-146566090D01*
X136136570Y-146562995D01*
X136128960Y-146559466D01*
X136121550Y-146555512D01*
X136114390Y-146551148D01*
X136107470Y-146546386D01*
X136100840Y-146541241D01*
X136094510Y-146535731D01*
X136088500Y-146529872D01*
X136082830Y-146523684D01*
X136077520Y-146517186D01*
X136072580Y-146510399D01*
X136068030Y-146503343D01*
X136063890Y-146496043D01*
X136060170Y-146488521D01*
X136056880Y-146480800D01*
X136054020Y-146472907D01*
X136051620Y-146464865D01*
X136049680Y-146456700D01*
X136048200Y-146448438D01*
X136047180Y-146440106D01*
X136046640Y-146431731D01*
X136046570Y-146423338D01*
X136046980Y-146414954D01*
X136047500Y-146410000D01*
X136047500Y-146160000D01*
X136047430Y-146156168D01*
X136047710Y-146148185D01*
X136048410Y-146140227D01*
X136049520Y-146132317D01*
X136051040Y-146124476D01*
X136052980Y-146116726D01*
X136055310Y-146109087D01*
X136058040Y-146101581D01*
X136061170Y-146094228D01*
X136064670Y-146087049D01*
X136068540Y-146080063D01*
X136072770Y-146073289D01*
X136077350Y-146066746D01*
X136082270Y-146060451D01*
X136087510Y-146054423D01*
X136093060Y-146048677D01*
X136098900Y-146043229D01*
X136105020Y-146038095D01*
X136111400Y-146033288D01*
X136118020Y-146028821D01*
X136124870Y-146024707D01*
X136131920Y-146020957D01*
X136139160Y-146017581D01*
X136146570Y-146014589D01*
X136154120Y-146011989D01*
X136161800Y-146009787D01*
X136169580Y-146007990D01*
X136177450Y-146006603D01*
X136185380Y-146005630D01*
X136193350Y-146005072D01*
X136197500Y-146005000D01*
X137417500Y-146005000D01*
X137421660Y-146005073D01*
G36*
X137421660Y-146005073D02*
G01*
X137429620Y-146005630D01*
X137437550Y-146006603D01*
X137445420Y-146007990D01*
X137453200Y-146009787D01*
X137460880Y-146011989D01*
X137468430Y-146014590D01*
X137475840Y-146017582D01*
X137483080Y-146020958D01*
X137490130Y-146024708D01*
X137496980Y-146028822D01*
X137503600Y-146033289D01*
X137509980Y-146038096D01*
X137516100Y-146043230D01*
X137521940Y-146048678D01*
X137527490Y-146054424D01*
X137532730Y-146060453D01*
X137537650Y-146066747D01*
X137542230Y-146073290D01*
X137546460Y-146080064D01*
X137550330Y-146087051D01*
X137553840Y-146094230D01*
X137556960Y-146101583D01*
X137559690Y-146109089D01*
X137562020Y-146116728D01*
X137563960Y-146124478D01*
X137565480Y-146132319D01*
X137566590Y-146140229D01*
X137567290Y-146148187D01*
X137567570Y-146156169D01*
X137567500Y-146160000D01*
X137567500Y-146420000D01*
X137567570Y-146423832D01*
X137567290Y-146431815D01*
X137566590Y-146439773D01*
X137565480Y-146447683D01*
X137563960Y-146455524D01*
X137562020Y-146463274D01*
X137559690Y-146470913D01*
X137556960Y-146478419D01*
X137553830Y-146485772D01*
X137550330Y-146492951D01*
X137546460Y-146499937D01*
X137542230Y-146506711D01*
X137537650Y-146513254D01*
X137532730Y-146519549D01*
X137527490Y-146525577D01*
X137521940Y-146531323D01*
X137516100Y-146536771D01*
X137509980Y-146541905D01*
X137503600Y-146546712D01*
X137496980Y-146551179D01*
X137490130Y-146555293D01*
X137483080Y-146559043D01*
X137475840Y-146562419D01*
X137468430Y-146565411D01*
X137460880Y-146568011D01*
X137453200Y-146570213D01*
X137445420Y-146572010D01*
X137437550Y-146573397D01*
X137429620Y-146574370D01*
X137421650Y-146574928D01*
X137417500Y-146575000D01*
X136197500Y-146575000D01*
X136193690Y-146575067D01*
X136185300Y-146574740D01*
X136176950Y-146573940D01*
X136168650Y-146572670D01*
X136160440Y-146570935D01*
X136152340Y-146568739D01*
X136144380Y-146566090D01*
X136136570Y-146562995D01*
X136128960Y-146559466D01*
X136121550Y-146555512D01*
X136114390Y-146551148D01*
X136107470Y-146546386D01*
X136100840Y-146541241D01*
X136094510Y-146535731D01*
X136088500Y-146529872D01*
X136082830Y-146523684D01*
X136077520Y-146517186D01*
X136072580Y-146510399D01*
X136068030Y-146503343D01*
X136063890Y-146496043D01*
X136060170Y-146488521D01*
X136056880Y-146480800D01*
X136054020Y-146472907D01*
X136051620Y-146464865D01*
X136049680Y-146456700D01*
X136048200Y-146448438D01*
X136047180Y-146440106D01*
X136046640Y-146431731D01*
X136046570Y-146423338D01*
X136046980Y-146414954D01*
X136047500Y-146410000D01*
X136047500Y-146160000D01*
X136047430Y-146156168D01*
X136047710Y-146148185D01*
X136048410Y-146140227D01*
X136049520Y-146132317D01*
X136051040Y-146124476D01*
X136052980Y-146116726D01*
X136055310Y-146109087D01*
X136058040Y-146101581D01*
X136061170Y-146094228D01*
X136064670Y-146087049D01*
X136068540Y-146080063D01*
X136072770Y-146073289D01*
X136077350Y-146066746D01*
X136082270Y-146060451D01*
X136087510Y-146054423D01*
X136093060Y-146048677D01*
X136098900Y-146043229D01*
X136105020Y-146038095D01*
X136111400Y-146033288D01*
X136118020Y-146028821D01*
X136124870Y-146024707D01*
X136131920Y-146020957D01*
X136139160Y-146017581D01*
X136146570Y-146014589D01*
X136154120Y-146011989D01*
X136161800Y-146009787D01*
X136169580Y-146007990D01*
X136177450Y-146006603D01*
X136185380Y-146005630D01*
X136193350Y-146005072D01*
X136197500Y-146005000D01*
X137417500Y-146005000D01*
X137421660Y-146005073D01*
G37*
X137421660Y-145355073D02*
X137429620Y-145355630D01*
X137437550Y-145356603D01*
X137445420Y-145357990D01*
X137453200Y-145359787D01*
X137460880Y-145361989D01*
X137468430Y-145364590D01*
X137475840Y-145367582D01*
X137483080Y-145370958D01*
X137490130Y-145374708D01*
X137496980Y-145378822D01*
X137503600Y-145383289D01*
X137509980Y-145388096D01*
X137516100Y-145393230D01*
X137521940Y-145398678D01*
X137527490Y-145404424D01*
X137532730Y-145410453D01*
X137537650Y-145416747D01*
X137542230Y-145423290D01*
X137546460Y-145430064D01*
X137550330Y-145437051D01*
X137553840Y-145444230D01*
X137556960Y-145451583D01*
X137559690Y-145459089D01*
X137562020Y-145466728D01*
X137563960Y-145474478D01*
X137565480Y-145482319D01*
X137566590Y-145490229D01*
X137567290Y-145498187D01*
X137567570Y-145506169D01*
X137567500Y-145510000D01*
X137567500Y-145770000D01*
X137567570Y-145773832D01*
X137567290Y-145781815D01*
X137566590Y-145789773D01*
X137565480Y-145797683D01*
X137563960Y-145805524D01*
X137562020Y-145813274D01*
X137559690Y-145820913D01*
X137556960Y-145828419D01*
X137553830Y-145835772D01*
X137550330Y-145842951D01*
X137546460Y-145849937D01*
X137542230Y-145856711D01*
X137537650Y-145863254D01*
X137532730Y-145869549D01*
X137527490Y-145875577D01*
X137521940Y-145881323D01*
X137516100Y-145886771D01*
X137509980Y-145891905D01*
X137503600Y-145896712D01*
X137496980Y-145901179D01*
X137490130Y-145905293D01*
X137483080Y-145909043D01*
X137475840Y-145912419D01*
X137468430Y-145915411D01*
X137460880Y-145918011D01*
X137453200Y-145920213D01*
X137445420Y-145922010D01*
X137437550Y-145923397D01*
X137429620Y-145924370D01*
X137421650Y-145924928D01*
X137417500Y-145925000D01*
X136197500Y-145925000D01*
X136193690Y-145925067D01*
X136185300Y-145924740D01*
X136176950Y-145923940D01*
X136168650Y-145922670D01*
X136160440Y-145920935D01*
X136152340Y-145918739D01*
X136144380Y-145916090D01*
X136136570Y-145912995D01*
X136128960Y-145909466D01*
X136121550Y-145905512D01*
X136114390Y-145901148D01*
X136107470Y-145896385D01*
X136100840Y-145891241D01*
X136094510Y-145885731D01*
X136088500Y-145879872D01*
X136082830Y-145873684D01*
X136077520Y-145867186D01*
X136072580Y-145860399D01*
X136068030Y-145853343D01*
X136063890Y-145846043D01*
X136060170Y-145838521D01*
X136056880Y-145830800D01*
X136054020Y-145822907D01*
X136051620Y-145814865D01*
X136049680Y-145806700D01*
X136048200Y-145798438D01*
X136047180Y-145790106D01*
X136046640Y-145781731D01*
X136046570Y-145773338D01*
X136046980Y-145764954D01*
X136047500Y-145760000D01*
X136047500Y-145510000D01*
X136047430Y-145506168D01*
X136047710Y-145498185D01*
X136048410Y-145490227D01*
X136049520Y-145482317D01*
X136051040Y-145474476D01*
X136052980Y-145466726D01*
X136055310Y-145459087D01*
X136058040Y-145451581D01*
X136061170Y-145444228D01*
X136064670Y-145437049D01*
X136068540Y-145430063D01*
X136072770Y-145423289D01*
X136077350Y-145416746D01*
X136082270Y-145410451D01*
X136087510Y-145404423D01*
X136093060Y-145398677D01*
X136098900Y-145393229D01*
X136105020Y-145388095D01*
X136111400Y-145383288D01*
X136118020Y-145378821D01*
X136124870Y-145374707D01*
X136131920Y-145370957D01*
X136139160Y-145367581D01*
X136146570Y-145364589D01*
X136154120Y-145361989D01*
X136161800Y-145359787D01*
X136169580Y-145357990D01*
X136177450Y-145356603D01*
X136185380Y-145355630D01*
X136193350Y-145355072D01*
X136197500Y-145355000D01*
X137417500Y-145355000D01*
X137421660Y-145355073D01*
G36*
X137421660Y-145355073D02*
G01*
X137429620Y-145355630D01*
X137437550Y-145356603D01*
X137445420Y-145357990D01*
X137453200Y-145359787D01*
X137460880Y-145361989D01*
X137468430Y-145364590D01*
X137475840Y-145367582D01*
X137483080Y-145370958D01*
X137490130Y-145374708D01*
X137496980Y-145378822D01*
X137503600Y-145383289D01*
X137509980Y-145388096D01*
X137516100Y-145393230D01*
X137521940Y-145398678D01*
X137527490Y-145404424D01*
X137532730Y-145410453D01*
X137537650Y-145416747D01*
X137542230Y-145423290D01*
X137546460Y-145430064D01*
X137550330Y-145437051D01*
X137553840Y-145444230D01*
X137556960Y-145451583D01*
X137559690Y-145459089D01*
X137562020Y-145466728D01*
X137563960Y-145474478D01*
X137565480Y-145482319D01*
X137566590Y-145490229D01*
X137567290Y-145498187D01*
X137567570Y-145506169D01*
X137567500Y-145510000D01*
X137567500Y-145770000D01*
X137567570Y-145773832D01*
X137567290Y-145781815D01*
X137566590Y-145789773D01*
X137565480Y-145797683D01*
X137563960Y-145805524D01*
X137562020Y-145813274D01*
X137559690Y-145820913D01*
X137556960Y-145828419D01*
X137553830Y-145835772D01*
X137550330Y-145842951D01*
X137546460Y-145849937D01*
X137542230Y-145856711D01*
X137537650Y-145863254D01*
X137532730Y-145869549D01*
X137527490Y-145875577D01*
X137521940Y-145881323D01*
X137516100Y-145886771D01*
X137509980Y-145891905D01*
X137503600Y-145896712D01*
X137496980Y-145901179D01*
X137490130Y-145905293D01*
X137483080Y-145909043D01*
X137475840Y-145912419D01*
X137468430Y-145915411D01*
X137460880Y-145918011D01*
X137453200Y-145920213D01*
X137445420Y-145922010D01*
X137437550Y-145923397D01*
X137429620Y-145924370D01*
X137421650Y-145924928D01*
X137417500Y-145925000D01*
X136197500Y-145925000D01*
X136193690Y-145925067D01*
X136185300Y-145924740D01*
X136176950Y-145923940D01*
X136168650Y-145922670D01*
X136160440Y-145920935D01*
X136152340Y-145918739D01*
X136144380Y-145916090D01*
X136136570Y-145912995D01*
X136128960Y-145909466D01*
X136121550Y-145905512D01*
X136114390Y-145901148D01*
X136107470Y-145896385D01*
X136100840Y-145891241D01*
X136094510Y-145885731D01*
X136088500Y-145879872D01*
X136082830Y-145873684D01*
X136077520Y-145867186D01*
X136072580Y-145860399D01*
X136068030Y-145853343D01*
X136063890Y-145846043D01*
X136060170Y-145838521D01*
X136056880Y-145830800D01*
X136054020Y-145822907D01*
X136051620Y-145814865D01*
X136049680Y-145806700D01*
X136048200Y-145798438D01*
X136047180Y-145790106D01*
X136046640Y-145781731D01*
X136046570Y-145773338D01*
X136046980Y-145764954D01*
X136047500Y-145760000D01*
X136047500Y-145510000D01*
X136047430Y-145506168D01*
X136047710Y-145498185D01*
X136048410Y-145490227D01*
X136049520Y-145482317D01*
X136051040Y-145474476D01*
X136052980Y-145466726D01*
X136055310Y-145459087D01*
X136058040Y-145451581D01*
X136061170Y-145444228D01*
X136064670Y-145437049D01*
X136068540Y-145430063D01*
X136072770Y-145423289D01*
X136077350Y-145416746D01*
X136082270Y-145410451D01*
X136087510Y-145404423D01*
X136093060Y-145398677D01*
X136098900Y-145393229D01*
X136105020Y-145388095D01*
X136111400Y-145383288D01*
X136118020Y-145378821D01*
X136124870Y-145374707D01*
X136131920Y-145370957D01*
X136139160Y-145367581D01*
X136146570Y-145364589D01*
X136154120Y-145361989D01*
X136161800Y-145359787D01*
X136169580Y-145357990D01*
X136177450Y-145356603D01*
X136185380Y-145355630D01*
X136193350Y-145355072D01*
X136197500Y-145355000D01*
X137417500Y-145355000D01*
X137421660Y-145355073D01*
G37*
X137421660Y-144705070D02*
X137429620Y-144705630D01*
X137437550Y-144706600D01*
X137445420Y-144707990D01*
X137453200Y-144709790D01*
X137460880Y-144711990D01*
X137468430Y-144714590D01*
X137475840Y-144717580D01*
X137483080Y-144720960D01*
X137490130Y-144724710D01*
X137496980Y-144728820D01*
X137503600Y-144733290D01*
X137509980Y-144738100D01*
X137516100Y-144743230D01*
X137521940Y-144748680D01*
X137527490Y-144754420D01*
X137532730Y-144760450D01*
X137537650Y-144766750D01*
X137542230Y-144773290D01*
X137546460Y-144780060D01*
X137550330Y-144787050D01*
X137553840Y-144794230D01*
X137556960Y-144801580D01*
X137559690Y-144809090D01*
X137562020Y-144816730D01*
X137563960Y-144824480D01*
X137565480Y-144832320D01*
X137566590Y-144840230D01*
X137567290Y-144848190D01*
X137567570Y-144856170D01*
X137567500Y-144860000D01*
X137567500Y-145120000D01*
X137567570Y-145123832D01*
X137567290Y-145131815D01*
X137566590Y-145139773D01*
X137565480Y-145147683D01*
X137563960Y-145155524D01*
X137562020Y-145163274D01*
X137559690Y-145170913D01*
X137556960Y-145178419D01*
X137553830Y-145185772D01*
X137550330Y-145192951D01*
X137546460Y-145199937D01*
X137542230Y-145206711D01*
X137537650Y-145213254D01*
X137532730Y-145219549D01*
X137527490Y-145225577D01*
X137521940Y-145231323D01*
X137516100Y-145236771D01*
X137509980Y-145241905D01*
X137503600Y-145246712D01*
X137496980Y-145251179D01*
X137490130Y-145255293D01*
X137483080Y-145259043D01*
X137475840Y-145262419D01*
X137468430Y-145265411D01*
X137460880Y-145268011D01*
X137453200Y-145270213D01*
X137445420Y-145272010D01*
X137437550Y-145273397D01*
X137429620Y-145274370D01*
X137421650Y-145274928D01*
X137417500Y-145275000D01*
X136197500Y-145275000D01*
X136193690Y-145275067D01*
X136185300Y-145274740D01*
X136176950Y-145273940D01*
X136168650Y-145272670D01*
X136160440Y-145270935D01*
X136152340Y-145268739D01*
X136144380Y-145266090D01*
X136136570Y-145262995D01*
X136128960Y-145259466D01*
X136121550Y-145255512D01*
X136114390Y-145251148D01*
X136107470Y-145246386D01*
X136100840Y-145241241D01*
X136094510Y-145235731D01*
X136088500Y-145229872D01*
X136082830Y-145223684D01*
X136077520Y-145217186D01*
X136072580Y-145210399D01*
X136068030Y-145203343D01*
X136063890Y-145196043D01*
X136060170Y-145188521D01*
X136056880Y-145180800D01*
X136054020Y-145172907D01*
X136051620Y-145164865D01*
X136049680Y-145156700D01*
X136048200Y-145148438D01*
X136047180Y-145140106D01*
X136046640Y-145131731D01*
X136046570Y-145123338D01*
X136046980Y-145114954D01*
X136047500Y-145110000D01*
X136047500Y-144860000D01*
X136047430Y-144856170D01*
X136047710Y-144848180D01*
X136048410Y-144840230D01*
X136049520Y-144832320D01*
X136051040Y-144824480D01*
X136052980Y-144816730D01*
X136055310Y-144809090D01*
X136058040Y-144801580D01*
X136061170Y-144794230D01*
X136064670Y-144787050D01*
X136068540Y-144780060D01*
X136072770Y-144773290D01*
X136077350Y-144766750D01*
X136082270Y-144760450D01*
X136087510Y-144754420D01*
X136093060Y-144748680D01*
X136098900Y-144743230D01*
X136105020Y-144738090D01*
X136111400Y-144733290D01*
X136118020Y-144728820D01*
X136124870Y-144724710D01*
X136131920Y-144720960D01*
X136139160Y-144717580D01*
X136146570Y-144714590D01*
X136154120Y-144711990D01*
X136161800Y-144709790D01*
X136169580Y-144707990D01*
X136177450Y-144706600D01*
X136185380Y-144705630D01*
X136193350Y-144705070D01*
X136197500Y-144705000D01*
X137417500Y-144705000D01*
X137421660Y-144705070D01*
G36*
X137421660Y-144705070D02*
G01*
X137429620Y-144705630D01*
X137437550Y-144706600D01*
X137445420Y-144707990D01*
X137453200Y-144709790D01*
X137460880Y-144711990D01*
X137468430Y-144714590D01*
X137475840Y-144717580D01*
X137483080Y-144720960D01*
X137490130Y-144724710D01*
X137496980Y-144728820D01*
X137503600Y-144733290D01*
X137509980Y-144738100D01*
X137516100Y-144743230D01*
X137521940Y-144748680D01*
X137527490Y-144754420D01*
X137532730Y-144760450D01*
X137537650Y-144766750D01*
X137542230Y-144773290D01*
X137546460Y-144780060D01*
X137550330Y-144787050D01*
X137553840Y-144794230D01*
X137556960Y-144801580D01*
X137559690Y-144809090D01*
X137562020Y-144816730D01*
X137563960Y-144824480D01*
X137565480Y-144832320D01*
X137566590Y-144840230D01*
X137567290Y-144848190D01*
X137567570Y-144856170D01*
X137567500Y-144860000D01*
X137567500Y-145120000D01*
X137567570Y-145123832D01*
X137567290Y-145131815D01*
X137566590Y-145139773D01*
X137565480Y-145147683D01*
X137563960Y-145155524D01*
X137562020Y-145163274D01*
X137559690Y-145170913D01*
X137556960Y-145178419D01*
X137553830Y-145185772D01*
X137550330Y-145192951D01*
X137546460Y-145199937D01*
X137542230Y-145206711D01*
X137537650Y-145213254D01*
X137532730Y-145219549D01*
X137527490Y-145225577D01*
X137521940Y-145231323D01*
X137516100Y-145236771D01*
X137509980Y-145241905D01*
X137503600Y-145246712D01*
X137496980Y-145251179D01*
X137490130Y-145255293D01*
X137483080Y-145259043D01*
X137475840Y-145262419D01*
X137468430Y-145265411D01*
X137460880Y-145268011D01*
X137453200Y-145270213D01*
X137445420Y-145272010D01*
X137437550Y-145273397D01*
X137429620Y-145274370D01*
X137421650Y-145274928D01*
X137417500Y-145275000D01*
X136197500Y-145275000D01*
X136193690Y-145275067D01*
X136185300Y-145274740D01*
X136176950Y-145273940D01*
X136168650Y-145272670D01*
X136160440Y-145270935D01*
X136152340Y-145268739D01*
X136144380Y-145266090D01*
X136136570Y-145262995D01*
X136128960Y-145259466D01*
X136121550Y-145255512D01*
X136114390Y-145251148D01*
X136107470Y-145246386D01*
X136100840Y-145241241D01*
X136094510Y-145235731D01*
X136088500Y-145229872D01*
X136082830Y-145223684D01*
X136077520Y-145217186D01*
X136072580Y-145210399D01*
X136068030Y-145203343D01*
X136063890Y-145196043D01*
X136060170Y-145188521D01*
X136056880Y-145180800D01*
X136054020Y-145172907D01*
X136051620Y-145164865D01*
X136049680Y-145156700D01*
X136048200Y-145148438D01*
X136047180Y-145140106D01*
X136046640Y-145131731D01*
X136046570Y-145123338D01*
X136046980Y-145114954D01*
X136047500Y-145110000D01*
X136047500Y-144860000D01*
X136047430Y-144856170D01*
X136047710Y-144848180D01*
X136048410Y-144840230D01*
X136049520Y-144832320D01*
X136051040Y-144824480D01*
X136052980Y-144816730D01*
X136055310Y-144809090D01*
X136058040Y-144801580D01*
X136061170Y-144794230D01*
X136064670Y-144787050D01*
X136068540Y-144780060D01*
X136072770Y-144773290D01*
X136077350Y-144766750D01*
X136082270Y-144760450D01*
X136087510Y-144754420D01*
X136093060Y-144748680D01*
X136098900Y-144743230D01*
X136105020Y-144738090D01*
X136111400Y-144733290D01*
X136118020Y-144728820D01*
X136124870Y-144724710D01*
X136131920Y-144720960D01*
X136139160Y-144717580D01*
X136146570Y-144714590D01*
X136154120Y-144711990D01*
X136161800Y-144709790D01*
X136169580Y-144707990D01*
X136177450Y-144706600D01*
X136185380Y-144705630D01*
X136193350Y-144705070D01*
X136197500Y-144705000D01*
X137417500Y-144705000D01*
X137421660Y-144705070D01*
G37*
X133099700Y-146655260D02*
X133108050Y-146656060D01*
X133116350Y-146657330D01*
X133124560Y-146659065D01*
X133132660Y-146661261D01*
X133140620Y-146663910D01*
X133148430Y-146667005D01*
X133156040Y-146670534D01*
X133163450Y-146674488D01*
X133170610Y-146678852D01*
X133177530Y-146683614D01*
X133184160Y-146688759D01*
X133190490Y-146694269D01*
X133196500Y-146700128D01*
X133202170Y-146706316D01*
X133207480Y-146712814D01*
X133212420Y-146719601D01*
X133216970Y-146726657D01*
X133221110Y-146733957D01*
X133224830Y-146741479D01*
X133228120Y-146749200D01*
X133230980Y-146757093D01*
X133233380Y-146765135D01*
X133235320Y-146773300D01*
X133236800Y-146781562D01*
X133237820Y-146789894D01*
X133238360Y-146798269D01*
X133238430Y-146806662D01*
X133238020Y-146815046D01*
X133237500Y-146820000D01*
X133237500Y-147070000D01*
X133237570Y-147073830D01*
X133237290Y-147081820D01*
X133236590Y-147089770D01*
X133235480Y-147097680D01*
X133233960Y-147105520D01*
X133232020Y-147113270D01*
X133229690Y-147120910D01*
X133226960Y-147128420D01*
X133223830Y-147135770D01*
X133220330Y-147142950D01*
X133216460Y-147149940D01*
X133212230Y-147156710D01*
X133207650Y-147163250D01*
X133202730Y-147169550D01*
X133197490Y-147175580D01*
X133191940Y-147181320D01*
X133186100Y-147186770D01*
X133179980Y-147191910D01*
X133173600Y-147196710D01*
X133166980Y-147201180D01*
X133160130Y-147205290D01*
X133153080Y-147209040D01*
X133145840Y-147212420D01*
X133138430Y-147215410D01*
X133130880Y-147218010D01*
X133123200Y-147220210D01*
X133115420Y-147222010D01*
X133107550Y-147223400D01*
X133099620Y-147224370D01*
X133091650Y-147224930D01*
X133087500Y-147225000D01*
X131867500Y-147225000D01*
X131863340Y-147224930D01*
X131855380Y-147224370D01*
X131847450Y-147223400D01*
X131839580Y-147222010D01*
X131831800Y-147220210D01*
X131824120Y-147218010D01*
X131816570Y-147215410D01*
X131809160Y-147212420D01*
X131801920Y-147209040D01*
X131794870Y-147205290D01*
X131788020Y-147201180D01*
X131781400Y-147196710D01*
X131775020Y-147191900D01*
X131768900Y-147186770D01*
X131763060Y-147181320D01*
X131757510Y-147175580D01*
X131752270Y-147169550D01*
X131747350Y-147163250D01*
X131742770Y-147156710D01*
X131738540Y-147149940D01*
X131734670Y-147142950D01*
X131731160Y-147135770D01*
X131728040Y-147128420D01*
X131725310Y-147120910D01*
X131722980Y-147113270D01*
X131721040Y-147105520D01*
X131719520Y-147097680D01*
X131718410Y-147089770D01*
X131717710Y-147081810D01*
X131717430Y-147073830D01*
X131717500Y-147070000D01*
X131717500Y-146810000D01*
X131717430Y-146806168D01*
X131717710Y-146798185D01*
X131718410Y-146790227D01*
X131719520Y-146782317D01*
X131721040Y-146774476D01*
X131722980Y-146766726D01*
X131725310Y-146759087D01*
X131728040Y-146751581D01*
X131731170Y-146744228D01*
X131734670Y-146737049D01*
X131738540Y-146730063D01*
X131742770Y-146723289D01*
X131747350Y-146716746D01*
X131752270Y-146710451D01*
X131757510Y-146704423D01*
X131763060Y-146698677D01*
X131768900Y-146693229D01*
X131775020Y-146688095D01*
X131781400Y-146683288D01*
X131788020Y-146678821D01*
X131794870Y-146674707D01*
X131801920Y-146670957D01*
X131809160Y-146667581D01*
X131816570Y-146664589D01*
X131824120Y-146661989D01*
X131831800Y-146659787D01*
X131839580Y-146657990D01*
X131847450Y-146656603D01*
X131855380Y-146655630D01*
X131863350Y-146655072D01*
X131867500Y-146655000D01*
X133087500Y-146655000D01*
X133091310Y-146654933D01*
X133099700Y-146655260D01*
G36*
X133099700Y-146655260D02*
G01*
X133108050Y-146656060D01*
X133116350Y-146657330D01*
X133124560Y-146659065D01*
X133132660Y-146661261D01*
X133140620Y-146663910D01*
X133148430Y-146667005D01*
X133156040Y-146670534D01*
X133163450Y-146674488D01*
X133170610Y-146678852D01*
X133177530Y-146683614D01*
X133184160Y-146688759D01*
X133190490Y-146694269D01*
X133196500Y-146700128D01*
X133202170Y-146706316D01*
X133207480Y-146712814D01*
X133212420Y-146719601D01*
X133216970Y-146726657D01*
X133221110Y-146733957D01*
X133224830Y-146741479D01*
X133228120Y-146749200D01*
X133230980Y-146757093D01*
X133233380Y-146765135D01*
X133235320Y-146773300D01*
X133236800Y-146781562D01*
X133237820Y-146789894D01*
X133238360Y-146798269D01*
X133238430Y-146806662D01*
X133238020Y-146815046D01*
X133237500Y-146820000D01*
X133237500Y-147070000D01*
X133237570Y-147073830D01*
X133237290Y-147081820D01*
X133236590Y-147089770D01*
X133235480Y-147097680D01*
X133233960Y-147105520D01*
X133232020Y-147113270D01*
X133229690Y-147120910D01*
X133226960Y-147128420D01*
X133223830Y-147135770D01*
X133220330Y-147142950D01*
X133216460Y-147149940D01*
X133212230Y-147156710D01*
X133207650Y-147163250D01*
X133202730Y-147169550D01*
X133197490Y-147175580D01*
X133191940Y-147181320D01*
X133186100Y-147186770D01*
X133179980Y-147191910D01*
X133173600Y-147196710D01*
X133166980Y-147201180D01*
X133160130Y-147205290D01*
X133153080Y-147209040D01*
X133145840Y-147212420D01*
X133138430Y-147215410D01*
X133130880Y-147218010D01*
X133123200Y-147220210D01*
X133115420Y-147222010D01*
X133107550Y-147223400D01*
X133099620Y-147224370D01*
X133091650Y-147224930D01*
X133087500Y-147225000D01*
X131867500Y-147225000D01*
X131863340Y-147224930D01*
X131855380Y-147224370D01*
X131847450Y-147223400D01*
X131839580Y-147222010D01*
X131831800Y-147220210D01*
X131824120Y-147218010D01*
X131816570Y-147215410D01*
X131809160Y-147212420D01*
X131801920Y-147209040D01*
X131794870Y-147205290D01*
X131788020Y-147201180D01*
X131781400Y-147196710D01*
X131775020Y-147191900D01*
X131768900Y-147186770D01*
X131763060Y-147181320D01*
X131757510Y-147175580D01*
X131752270Y-147169550D01*
X131747350Y-147163250D01*
X131742770Y-147156710D01*
X131738540Y-147149940D01*
X131734670Y-147142950D01*
X131731160Y-147135770D01*
X131728040Y-147128420D01*
X131725310Y-147120910D01*
X131722980Y-147113270D01*
X131721040Y-147105520D01*
X131719520Y-147097680D01*
X131718410Y-147089770D01*
X131717710Y-147081810D01*
X131717430Y-147073830D01*
X131717500Y-147070000D01*
X131717500Y-146810000D01*
X131717430Y-146806168D01*
X131717710Y-146798185D01*
X131718410Y-146790227D01*
X131719520Y-146782317D01*
X131721040Y-146774476D01*
X131722980Y-146766726D01*
X131725310Y-146759087D01*
X131728040Y-146751581D01*
X131731170Y-146744228D01*
X131734670Y-146737049D01*
X131738540Y-146730063D01*
X131742770Y-146723289D01*
X131747350Y-146716746D01*
X131752270Y-146710451D01*
X131757510Y-146704423D01*
X131763060Y-146698677D01*
X131768900Y-146693229D01*
X131775020Y-146688095D01*
X131781400Y-146683288D01*
X131788020Y-146678821D01*
X131794870Y-146674707D01*
X131801920Y-146670957D01*
X131809160Y-146667581D01*
X131816570Y-146664589D01*
X131824120Y-146661989D01*
X131831800Y-146659787D01*
X131839580Y-146657990D01*
X131847450Y-146656603D01*
X131855380Y-146655630D01*
X131863350Y-146655072D01*
X131867500Y-146655000D01*
X133087500Y-146655000D01*
X133091310Y-146654933D01*
X133099700Y-146655260D01*
G37*
X133099700Y-146005260D02*
X133108050Y-146006060D01*
X133116350Y-146007330D01*
X133124560Y-146009065D01*
X133132660Y-146011261D01*
X133140620Y-146013910D01*
X133148430Y-146017005D01*
X133156040Y-146020534D01*
X133163450Y-146024488D01*
X133170610Y-146028852D01*
X133177530Y-146033615D01*
X133184160Y-146038759D01*
X133190490Y-146044269D01*
X133196500Y-146050128D01*
X133202170Y-146056316D01*
X133207480Y-146062814D01*
X133212420Y-146069601D01*
X133216970Y-146076657D01*
X133221110Y-146083957D01*
X133224830Y-146091479D01*
X133228120Y-146099200D01*
X133230980Y-146107093D01*
X133233380Y-146115135D01*
X133235320Y-146123300D01*
X133236800Y-146131562D01*
X133237820Y-146139894D01*
X133238360Y-146148269D01*
X133238430Y-146156662D01*
X133238020Y-146165046D01*
X133237500Y-146170000D01*
X133237500Y-146420000D01*
X133237570Y-146423832D01*
X133237290Y-146431815D01*
X133236590Y-146439773D01*
X133235480Y-146447683D01*
X133233960Y-146455524D01*
X133232020Y-146463274D01*
X133229690Y-146470913D01*
X133226960Y-146478419D01*
X133223830Y-146485772D01*
X133220330Y-146492951D01*
X133216460Y-146499937D01*
X133212230Y-146506711D01*
X133207650Y-146513254D01*
X133202730Y-146519549D01*
X133197490Y-146525577D01*
X133191940Y-146531323D01*
X133186100Y-146536771D01*
X133179980Y-146541905D01*
X133173600Y-146546712D01*
X133166980Y-146551179D01*
X133160130Y-146555293D01*
X133153080Y-146559043D01*
X133145840Y-146562419D01*
X133138430Y-146565411D01*
X133130880Y-146568011D01*
X133123200Y-146570213D01*
X133115420Y-146572010D01*
X133107550Y-146573397D01*
X133099620Y-146574370D01*
X133091650Y-146574928D01*
X133087500Y-146575000D01*
X131867500Y-146575000D01*
X131863340Y-146574927D01*
X131855380Y-146574370D01*
X131847450Y-146573397D01*
X131839580Y-146572010D01*
X131831800Y-146570213D01*
X131824120Y-146568011D01*
X131816570Y-146565410D01*
X131809160Y-146562418D01*
X131801920Y-146559042D01*
X131794870Y-146555292D01*
X131788020Y-146551178D01*
X131781400Y-146546711D01*
X131775020Y-146541904D01*
X131768900Y-146536770D01*
X131763060Y-146531322D01*
X131757510Y-146525576D01*
X131752270Y-146519547D01*
X131747350Y-146513253D01*
X131742770Y-146506710D01*
X131738540Y-146499936D01*
X131734670Y-146492949D01*
X131731160Y-146485770D01*
X131728040Y-146478417D01*
X131725310Y-146470911D01*
X131722980Y-146463272D01*
X131721040Y-146455522D01*
X131719520Y-146447681D01*
X131718410Y-146439771D01*
X131717710Y-146431813D01*
X131717430Y-146423831D01*
X131717500Y-146420000D01*
X131717500Y-146160000D01*
X131717430Y-146156168D01*
X131717710Y-146148185D01*
X131718410Y-146140227D01*
X131719520Y-146132317D01*
X131721040Y-146124476D01*
X131722980Y-146116726D01*
X131725310Y-146109087D01*
X131728040Y-146101581D01*
X131731170Y-146094228D01*
X131734670Y-146087049D01*
X131738540Y-146080063D01*
X131742770Y-146073289D01*
X131747350Y-146066746D01*
X131752270Y-146060451D01*
X131757510Y-146054423D01*
X131763060Y-146048677D01*
X131768900Y-146043229D01*
X131775020Y-146038095D01*
X131781400Y-146033288D01*
X131788020Y-146028821D01*
X131794870Y-146024707D01*
X131801920Y-146020957D01*
X131809160Y-146017581D01*
X131816570Y-146014589D01*
X131824120Y-146011989D01*
X131831800Y-146009787D01*
X131839580Y-146007990D01*
X131847450Y-146006603D01*
X131855380Y-146005630D01*
X131863350Y-146005072D01*
X131867500Y-146005000D01*
X133087500Y-146005000D01*
X133091310Y-146004933D01*
X133099700Y-146005260D01*
G36*
X133099700Y-146005260D02*
G01*
X133108050Y-146006060D01*
X133116350Y-146007330D01*
X133124560Y-146009065D01*
X133132660Y-146011261D01*
X133140620Y-146013910D01*
X133148430Y-146017005D01*
X133156040Y-146020534D01*
X133163450Y-146024488D01*
X133170610Y-146028852D01*
X133177530Y-146033615D01*
X133184160Y-146038759D01*
X133190490Y-146044269D01*
X133196500Y-146050128D01*
X133202170Y-146056316D01*
X133207480Y-146062814D01*
X133212420Y-146069601D01*
X133216970Y-146076657D01*
X133221110Y-146083957D01*
X133224830Y-146091479D01*
X133228120Y-146099200D01*
X133230980Y-146107093D01*
X133233380Y-146115135D01*
X133235320Y-146123300D01*
X133236800Y-146131562D01*
X133237820Y-146139894D01*
X133238360Y-146148269D01*
X133238430Y-146156662D01*
X133238020Y-146165046D01*
X133237500Y-146170000D01*
X133237500Y-146420000D01*
X133237570Y-146423832D01*
X133237290Y-146431815D01*
X133236590Y-146439773D01*
X133235480Y-146447683D01*
X133233960Y-146455524D01*
X133232020Y-146463274D01*
X133229690Y-146470913D01*
X133226960Y-146478419D01*
X133223830Y-146485772D01*
X133220330Y-146492951D01*
X133216460Y-146499937D01*
X133212230Y-146506711D01*
X133207650Y-146513254D01*
X133202730Y-146519549D01*
X133197490Y-146525577D01*
X133191940Y-146531323D01*
X133186100Y-146536771D01*
X133179980Y-146541905D01*
X133173600Y-146546712D01*
X133166980Y-146551179D01*
X133160130Y-146555293D01*
X133153080Y-146559043D01*
X133145840Y-146562419D01*
X133138430Y-146565411D01*
X133130880Y-146568011D01*
X133123200Y-146570213D01*
X133115420Y-146572010D01*
X133107550Y-146573397D01*
X133099620Y-146574370D01*
X133091650Y-146574928D01*
X133087500Y-146575000D01*
X131867500Y-146575000D01*
X131863340Y-146574927D01*
X131855380Y-146574370D01*
X131847450Y-146573397D01*
X131839580Y-146572010D01*
X131831800Y-146570213D01*
X131824120Y-146568011D01*
X131816570Y-146565410D01*
X131809160Y-146562418D01*
X131801920Y-146559042D01*
X131794870Y-146555292D01*
X131788020Y-146551178D01*
X131781400Y-146546711D01*
X131775020Y-146541904D01*
X131768900Y-146536770D01*
X131763060Y-146531322D01*
X131757510Y-146525576D01*
X131752270Y-146519547D01*
X131747350Y-146513253D01*
X131742770Y-146506710D01*
X131738540Y-146499936D01*
X131734670Y-146492949D01*
X131731160Y-146485770D01*
X131728040Y-146478417D01*
X131725310Y-146470911D01*
X131722980Y-146463272D01*
X131721040Y-146455522D01*
X131719520Y-146447681D01*
X131718410Y-146439771D01*
X131717710Y-146431813D01*
X131717430Y-146423831D01*
X131717500Y-146420000D01*
X131717500Y-146160000D01*
X131717430Y-146156168D01*
X131717710Y-146148185D01*
X131718410Y-146140227D01*
X131719520Y-146132317D01*
X131721040Y-146124476D01*
X131722980Y-146116726D01*
X131725310Y-146109087D01*
X131728040Y-146101581D01*
X131731170Y-146094228D01*
X131734670Y-146087049D01*
X131738540Y-146080063D01*
X131742770Y-146073289D01*
X131747350Y-146066746D01*
X131752270Y-146060451D01*
X131757510Y-146054423D01*
X131763060Y-146048677D01*
X131768900Y-146043229D01*
X131775020Y-146038095D01*
X131781400Y-146033288D01*
X131788020Y-146028821D01*
X131794870Y-146024707D01*
X131801920Y-146020957D01*
X131809160Y-146017581D01*
X131816570Y-146014589D01*
X131824120Y-146011989D01*
X131831800Y-146009787D01*
X131839580Y-146007990D01*
X131847450Y-146006603D01*
X131855380Y-146005630D01*
X131863350Y-146005072D01*
X131867500Y-146005000D01*
X133087500Y-146005000D01*
X133091310Y-146004933D01*
X133099700Y-146005260D01*
G37*
X133099700Y-145355260D02*
X133108050Y-145356060D01*
X133116350Y-145357330D01*
X133124560Y-145359065D01*
X133132660Y-145361261D01*
X133140620Y-145363910D01*
X133148430Y-145367005D01*
X133156040Y-145370534D01*
X133163450Y-145374488D01*
X133170610Y-145378852D01*
X133177530Y-145383614D01*
X133184160Y-145388759D01*
X133190490Y-145394269D01*
X133196500Y-145400128D01*
X133202170Y-145406316D01*
X133207480Y-145412814D01*
X133212420Y-145419601D01*
X133216970Y-145426657D01*
X133221110Y-145433957D01*
X133224830Y-145441479D01*
X133228120Y-145449200D01*
X133230980Y-145457093D01*
X133233380Y-145465135D01*
X133235320Y-145473300D01*
X133236800Y-145481562D01*
X133237820Y-145489894D01*
X133238360Y-145498269D01*
X133238430Y-145506662D01*
X133238020Y-145515046D01*
X133237500Y-145520000D01*
X133237500Y-145770000D01*
X133237570Y-145773832D01*
X133237290Y-145781815D01*
X133236590Y-145789773D01*
X133235480Y-145797683D01*
X133233960Y-145805524D01*
X133232020Y-145813274D01*
X133229690Y-145820913D01*
X133226960Y-145828419D01*
X133223830Y-145835772D01*
X133220330Y-145842951D01*
X133216460Y-145849937D01*
X133212230Y-145856711D01*
X133207650Y-145863254D01*
X133202730Y-145869549D01*
X133197490Y-145875577D01*
X133191940Y-145881323D01*
X133186100Y-145886771D01*
X133179980Y-145891905D01*
X133173600Y-145896712D01*
X133166980Y-145901179D01*
X133160130Y-145905293D01*
X133153080Y-145909043D01*
X133145840Y-145912419D01*
X133138430Y-145915411D01*
X133130880Y-145918011D01*
X133123200Y-145920213D01*
X133115420Y-145922010D01*
X133107550Y-145923397D01*
X133099620Y-145924370D01*
X133091650Y-145924928D01*
X133087500Y-145925000D01*
X131867500Y-145925000D01*
X131863340Y-145924927D01*
X131855380Y-145924370D01*
X131847450Y-145923397D01*
X131839580Y-145922010D01*
X131831800Y-145920213D01*
X131824120Y-145918011D01*
X131816570Y-145915410D01*
X131809160Y-145912418D01*
X131801920Y-145909042D01*
X131794870Y-145905292D01*
X131788020Y-145901178D01*
X131781400Y-145896711D01*
X131775020Y-145891904D01*
X131768900Y-145886770D01*
X131763060Y-145881322D01*
X131757510Y-145875576D01*
X131752270Y-145869547D01*
X131747350Y-145863253D01*
X131742770Y-145856710D01*
X131738540Y-145849936D01*
X131734670Y-145842949D01*
X131731160Y-145835770D01*
X131728040Y-145828417D01*
X131725310Y-145820911D01*
X131722980Y-145813272D01*
X131721040Y-145805522D01*
X131719520Y-145797681D01*
X131718410Y-145789771D01*
X131717710Y-145781813D01*
X131717430Y-145773831D01*
X131717500Y-145770000D01*
X131717500Y-145510000D01*
X131717430Y-145506168D01*
X131717710Y-145498185D01*
X131718410Y-145490227D01*
X131719520Y-145482317D01*
X131721040Y-145474476D01*
X131722980Y-145466726D01*
X131725310Y-145459087D01*
X131728040Y-145451581D01*
X131731170Y-145444228D01*
X131734670Y-145437049D01*
X131738540Y-145430063D01*
X131742770Y-145423289D01*
X131747350Y-145416746D01*
X131752270Y-145410451D01*
X131757510Y-145404423D01*
X131763060Y-145398677D01*
X131768900Y-145393229D01*
X131775020Y-145388095D01*
X131781400Y-145383288D01*
X131788020Y-145378821D01*
X131794870Y-145374707D01*
X131801920Y-145370957D01*
X131809160Y-145367581D01*
X131816570Y-145364589D01*
X131824120Y-145361989D01*
X131831800Y-145359787D01*
X131839580Y-145357990D01*
X131847450Y-145356603D01*
X131855380Y-145355630D01*
X131863350Y-145355072D01*
X131867500Y-145355000D01*
X133087500Y-145355000D01*
X133091310Y-145354933D01*
X133099700Y-145355260D01*
G36*
X133099700Y-145355260D02*
G01*
X133108050Y-145356060D01*
X133116350Y-145357330D01*
X133124560Y-145359065D01*
X133132660Y-145361261D01*
X133140620Y-145363910D01*
X133148430Y-145367005D01*
X133156040Y-145370534D01*
X133163450Y-145374488D01*
X133170610Y-145378852D01*
X133177530Y-145383614D01*
X133184160Y-145388759D01*
X133190490Y-145394269D01*
X133196500Y-145400128D01*
X133202170Y-145406316D01*
X133207480Y-145412814D01*
X133212420Y-145419601D01*
X133216970Y-145426657D01*
X133221110Y-145433957D01*
X133224830Y-145441479D01*
X133228120Y-145449200D01*
X133230980Y-145457093D01*
X133233380Y-145465135D01*
X133235320Y-145473300D01*
X133236800Y-145481562D01*
X133237820Y-145489894D01*
X133238360Y-145498269D01*
X133238430Y-145506662D01*
X133238020Y-145515046D01*
X133237500Y-145520000D01*
X133237500Y-145770000D01*
X133237570Y-145773832D01*
X133237290Y-145781815D01*
X133236590Y-145789773D01*
X133235480Y-145797683D01*
X133233960Y-145805524D01*
X133232020Y-145813274D01*
X133229690Y-145820913D01*
X133226960Y-145828419D01*
X133223830Y-145835772D01*
X133220330Y-145842951D01*
X133216460Y-145849937D01*
X133212230Y-145856711D01*
X133207650Y-145863254D01*
X133202730Y-145869549D01*
X133197490Y-145875577D01*
X133191940Y-145881323D01*
X133186100Y-145886771D01*
X133179980Y-145891905D01*
X133173600Y-145896712D01*
X133166980Y-145901179D01*
X133160130Y-145905293D01*
X133153080Y-145909043D01*
X133145840Y-145912419D01*
X133138430Y-145915411D01*
X133130880Y-145918011D01*
X133123200Y-145920213D01*
X133115420Y-145922010D01*
X133107550Y-145923397D01*
X133099620Y-145924370D01*
X133091650Y-145924928D01*
X133087500Y-145925000D01*
X131867500Y-145925000D01*
X131863340Y-145924927D01*
X131855380Y-145924370D01*
X131847450Y-145923397D01*
X131839580Y-145922010D01*
X131831800Y-145920213D01*
X131824120Y-145918011D01*
X131816570Y-145915410D01*
X131809160Y-145912418D01*
X131801920Y-145909042D01*
X131794870Y-145905292D01*
X131788020Y-145901178D01*
X131781400Y-145896711D01*
X131775020Y-145891904D01*
X131768900Y-145886770D01*
X131763060Y-145881322D01*
X131757510Y-145875576D01*
X131752270Y-145869547D01*
X131747350Y-145863253D01*
X131742770Y-145856710D01*
X131738540Y-145849936D01*
X131734670Y-145842949D01*
X131731160Y-145835770D01*
X131728040Y-145828417D01*
X131725310Y-145820911D01*
X131722980Y-145813272D01*
X131721040Y-145805522D01*
X131719520Y-145797681D01*
X131718410Y-145789771D01*
X131717710Y-145781813D01*
X131717430Y-145773831D01*
X131717500Y-145770000D01*
X131717500Y-145510000D01*
X131717430Y-145506168D01*
X131717710Y-145498185D01*
X131718410Y-145490227D01*
X131719520Y-145482317D01*
X131721040Y-145474476D01*
X131722980Y-145466726D01*
X131725310Y-145459087D01*
X131728040Y-145451581D01*
X131731170Y-145444228D01*
X131734670Y-145437049D01*
X131738540Y-145430063D01*
X131742770Y-145423289D01*
X131747350Y-145416746D01*
X131752270Y-145410451D01*
X131757510Y-145404423D01*
X131763060Y-145398677D01*
X131768900Y-145393229D01*
X131775020Y-145388095D01*
X131781400Y-145383288D01*
X131788020Y-145378821D01*
X131794870Y-145374707D01*
X131801920Y-145370957D01*
X131809160Y-145367581D01*
X131816570Y-145364589D01*
X131824120Y-145361989D01*
X131831800Y-145359787D01*
X131839580Y-145357990D01*
X131847450Y-145356603D01*
X131855380Y-145355630D01*
X131863350Y-145355072D01*
X131867500Y-145355000D01*
X133087500Y-145355000D01*
X133091310Y-145354933D01*
X133099700Y-145355260D01*
G37*
X133099700Y-144705260D02*
X133108050Y-144706060D01*
X133116350Y-144707330D01*
X133124560Y-144709070D01*
X133132660Y-144711260D01*
X133140620Y-144713910D01*
X133148430Y-144717000D01*
X133156040Y-144720530D01*
X133163450Y-144724490D01*
X133170610Y-144728850D01*
X133177530Y-144733610D01*
X133184160Y-144738760D01*
X133190490Y-144744270D01*
X133196500Y-144750130D01*
X133202170Y-144756320D01*
X133207480Y-144762810D01*
X133212420Y-144769600D01*
X133216970Y-144776660D01*
X133221110Y-144783960D01*
X133224830Y-144791480D01*
X133228120Y-144799200D01*
X133230980Y-144807090D01*
X133233380Y-144815140D01*
X133235320Y-144823300D01*
X133236800Y-144831560D01*
X133237820Y-144839890D01*
X133238360Y-144848270D01*
X133238430Y-144856660D01*
X133238020Y-144865050D01*
X133237500Y-144870000D01*
X133237500Y-145120000D01*
X133237570Y-145123832D01*
X133237290Y-145131815D01*
X133236590Y-145139773D01*
X133235480Y-145147683D01*
X133233960Y-145155524D01*
X133232020Y-145163274D01*
X133229690Y-145170913D01*
X133226960Y-145178419D01*
X133223830Y-145185772D01*
X133220330Y-145192951D01*
X133216460Y-145199937D01*
X133212230Y-145206711D01*
X133207650Y-145213254D01*
X133202730Y-145219549D01*
X133197490Y-145225577D01*
X133191940Y-145231323D01*
X133186100Y-145236771D01*
X133179980Y-145241905D01*
X133173600Y-145246712D01*
X133166980Y-145251179D01*
X133160130Y-145255293D01*
X133153080Y-145259043D01*
X133145840Y-145262419D01*
X133138430Y-145265411D01*
X133130880Y-145268011D01*
X133123200Y-145270213D01*
X133115420Y-145272010D01*
X133107550Y-145273397D01*
X133099620Y-145274370D01*
X133091650Y-145274928D01*
X133087500Y-145275000D01*
X131867500Y-145275000D01*
X131863340Y-145274927D01*
X131855380Y-145274370D01*
X131847450Y-145273397D01*
X131839580Y-145272010D01*
X131831800Y-145270213D01*
X131824120Y-145268011D01*
X131816570Y-145265410D01*
X131809160Y-145262418D01*
X131801920Y-145259042D01*
X131794870Y-145255292D01*
X131788020Y-145251178D01*
X131781400Y-145246711D01*
X131775020Y-145241904D01*
X131768900Y-145236770D01*
X131763060Y-145231322D01*
X131757510Y-145225576D01*
X131752270Y-145219547D01*
X131747350Y-145213253D01*
X131742770Y-145206710D01*
X131738540Y-145199936D01*
X131734670Y-145192949D01*
X131731160Y-145185770D01*
X131728040Y-145178417D01*
X131725310Y-145170911D01*
X131722980Y-145163272D01*
X131721040Y-145155522D01*
X131719520Y-145147681D01*
X131718410Y-145139771D01*
X131717710Y-145131813D01*
X131717430Y-145123831D01*
X131717500Y-145120000D01*
X131717500Y-144860000D01*
X131717430Y-144856170D01*
X131717710Y-144848180D01*
X131718410Y-144840230D01*
X131719520Y-144832320D01*
X131721040Y-144824480D01*
X131722980Y-144816730D01*
X131725310Y-144809090D01*
X131728040Y-144801580D01*
X131731170Y-144794230D01*
X131734670Y-144787050D01*
X131738540Y-144780060D01*
X131742770Y-144773290D01*
X131747350Y-144766750D01*
X131752270Y-144760450D01*
X131757510Y-144754420D01*
X131763060Y-144748680D01*
X131768900Y-144743230D01*
X131775020Y-144738090D01*
X131781400Y-144733290D01*
X131788020Y-144728820D01*
X131794870Y-144724710D01*
X131801920Y-144720960D01*
X131809160Y-144717580D01*
X131816570Y-144714590D01*
X131824120Y-144711990D01*
X131831800Y-144709790D01*
X131839580Y-144707990D01*
X131847450Y-144706600D01*
X131855380Y-144705630D01*
X131863350Y-144705070D01*
X131867500Y-144705000D01*
X133087500Y-144705000D01*
X133091310Y-144704930D01*
X133099700Y-144705260D01*
G36*
X133099700Y-144705260D02*
G01*
X133108050Y-144706060D01*
X133116350Y-144707330D01*
X133124560Y-144709070D01*
X133132660Y-144711260D01*
X133140620Y-144713910D01*
X133148430Y-144717000D01*
X133156040Y-144720530D01*
X133163450Y-144724490D01*
X133170610Y-144728850D01*
X133177530Y-144733610D01*
X133184160Y-144738760D01*
X133190490Y-144744270D01*
X133196500Y-144750130D01*
X133202170Y-144756320D01*
X133207480Y-144762810D01*
X133212420Y-144769600D01*
X133216970Y-144776660D01*
X133221110Y-144783960D01*
X133224830Y-144791480D01*
X133228120Y-144799200D01*
X133230980Y-144807090D01*
X133233380Y-144815140D01*
X133235320Y-144823300D01*
X133236800Y-144831560D01*
X133237820Y-144839890D01*
X133238360Y-144848270D01*
X133238430Y-144856660D01*
X133238020Y-144865050D01*
X133237500Y-144870000D01*
X133237500Y-145120000D01*
X133237570Y-145123832D01*
X133237290Y-145131815D01*
X133236590Y-145139773D01*
X133235480Y-145147683D01*
X133233960Y-145155524D01*
X133232020Y-145163274D01*
X133229690Y-145170913D01*
X133226960Y-145178419D01*
X133223830Y-145185772D01*
X133220330Y-145192951D01*
X133216460Y-145199937D01*
X133212230Y-145206711D01*
X133207650Y-145213254D01*
X133202730Y-145219549D01*
X133197490Y-145225577D01*
X133191940Y-145231323D01*
X133186100Y-145236771D01*
X133179980Y-145241905D01*
X133173600Y-145246712D01*
X133166980Y-145251179D01*
X133160130Y-145255293D01*
X133153080Y-145259043D01*
X133145840Y-145262419D01*
X133138430Y-145265411D01*
X133130880Y-145268011D01*
X133123200Y-145270213D01*
X133115420Y-145272010D01*
X133107550Y-145273397D01*
X133099620Y-145274370D01*
X133091650Y-145274928D01*
X133087500Y-145275000D01*
X131867500Y-145275000D01*
X131863340Y-145274927D01*
X131855380Y-145274370D01*
X131847450Y-145273397D01*
X131839580Y-145272010D01*
X131831800Y-145270213D01*
X131824120Y-145268011D01*
X131816570Y-145265410D01*
X131809160Y-145262418D01*
X131801920Y-145259042D01*
X131794870Y-145255292D01*
X131788020Y-145251178D01*
X131781400Y-145246711D01*
X131775020Y-145241904D01*
X131768900Y-145236770D01*
X131763060Y-145231322D01*
X131757510Y-145225576D01*
X131752270Y-145219547D01*
X131747350Y-145213253D01*
X131742770Y-145206710D01*
X131738540Y-145199936D01*
X131734670Y-145192949D01*
X131731160Y-145185770D01*
X131728040Y-145178417D01*
X131725310Y-145170911D01*
X131722980Y-145163272D01*
X131721040Y-145155522D01*
X131719520Y-145147681D01*
X131718410Y-145139771D01*
X131717710Y-145131813D01*
X131717430Y-145123831D01*
X131717500Y-145120000D01*
X131717500Y-144860000D01*
X131717430Y-144856170D01*
X131717710Y-144848180D01*
X131718410Y-144840230D01*
X131719520Y-144832320D01*
X131721040Y-144824480D01*
X131722980Y-144816730D01*
X131725310Y-144809090D01*
X131728040Y-144801580D01*
X131731170Y-144794230D01*
X131734670Y-144787050D01*
X131738540Y-144780060D01*
X131742770Y-144773290D01*
X131747350Y-144766750D01*
X131752270Y-144760450D01*
X131757510Y-144754420D01*
X131763060Y-144748680D01*
X131768900Y-144743230D01*
X131775020Y-144738090D01*
X131781400Y-144733290D01*
X131788020Y-144728820D01*
X131794870Y-144724710D01*
X131801920Y-144720960D01*
X131809160Y-144717580D01*
X131816570Y-144714590D01*
X131824120Y-144711990D01*
X131831800Y-144709790D01*
X131839580Y-144707990D01*
X131847450Y-144706600D01*
X131855380Y-144705630D01*
X131863350Y-144705070D01*
X131867500Y-144705000D01*
X133087500Y-144705000D01*
X133091310Y-144704930D01*
X133099700Y-144705260D01*
G37*
G36*
X108225000Y-105065533D02*
G01*
X103475000Y-105065533D01*
X103475000Y-100465533D01*
X108225000Y-100465533D01*
X108225000Y-105065533D01*
G37*
D11*
X145645530Y-136085980D03*
X145645530Y-122944020D03*
D12*
X105450000Y-120845000D03*
X102910000Y-120845000D03*
X105450000Y-118305000D03*
X102910000Y-118305000D03*
X105450000Y-115765000D03*
X102910000Y-115765000D03*
X105450000Y-113225000D03*
X102910000Y-113225000D03*
X105450000Y-110685000D03*
X102910000Y-110685000D03*
D13*
X153290000Y-117340000D03*
X148340000Y-116740000D03*
X148340000Y-102240000D03*
X153290000Y-101640000D03*
D12*
X126325000Y-158437500D03*
X126325000Y-151237500D03*
D11*
X145520000Y-95691960D03*
X145520000Y-82550000D03*
D14*
X105775000Y-95540533D03*
X104125000Y-95540533D03*
X104125000Y-93990533D03*
X105775000Y-93990533D03*
D15*
X111580000Y-112225000D03*
X111580000Y-111255000D03*
D16*
X130440000Y-130275000D03*
X131410000Y-130275000D03*
X132740000Y-131125000D03*
X133710000Y-131125000D03*
X129640000Y-131775000D03*
X130610000Y-131775000D03*
X134640000Y-131925000D03*
X135610000Y-131925000D03*
X129640000Y-132725000D03*
X130610000Y-132725000D03*
D15*
X132625000Y-129010000D03*
X132625000Y-128040000D03*
D17*
X132660000Y-132075000D03*
X131690000Y-132075000D03*
D16*
X132740000Y-130175000D03*
X133710000Y-130175000D03*
D17*
X133710000Y-133025000D03*
X132740000Y-133025000D03*
D15*
X130525000Y-128310000D03*
X130525000Y-127340000D03*
D16*
X129590000Y-129325000D03*
X130560000Y-129325000D03*
D17*
X128060000Y-128525000D03*
X127090000Y-128525000D03*
D18*
X107200000Y-107630533D03*
X107200000Y-108600533D03*
D16*
X100765000Y-100875000D03*
X101735000Y-100875000D03*
D17*
X119275000Y-105270000D03*
X118305000Y-105270000D03*
D19*
X113055000Y-126652500D03*
X113055000Y-125077500D03*
D20*
X106555000Y-142215000D03*
X106555000Y-139415000D03*
D21*
X141430000Y-100540000D03*
X141430000Y-97740000D03*
D22*
X146130000Y-143315000D03*
X146130000Y-146115000D03*
D23*
X106517500Y-124690000D03*
X110792500Y-124690000D03*
D16*
X106870000Y-118290000D03*
X107840000Y-118290000D03*
D15*
X117525000Y-103210000D03*
X117525000Y-102240000D03*
D17*
X140140000Y-144265000D03*
X139170000Y-144265000D03*
X128060000Y-134225000D03*
X127090000Y-134225000D03*
D16*
X101765000Y-93965533D03*
X102735000Y-93965533D03*
D24*
X107530000Y-137315000D03*
X106580000Y-137315000D03*
X105630000Y-137315000D03*
X105630000Y-135115000D03*
X106580000Y-135115000D03*
X107530000Y-135115000D03*
D18*
X124075000Y-94290000D03*
X124075000Y-95260000D03*
D16*
X140495000Y-95640000D03*
X141465000Y-95640000D03*
D15*
X135627076Y-142322836D03*
X135627076Y-141352836D03*
D16*
X132244576Y-143462836D03*
X133214576Y-143462836D03*
D15*
X127925000Y-127160000D03*
X127925000Y-126190000D03*
X115975000Y-126360000D03*
X115975000Y-125390000D03*
D18*
X122475000Y-105490000D03*
X122475000Y-106460000D03*
D17*
X120325000Y-104280000D03*
X119355000Y-104280000D03*
D15*
X152225000Y-144060000D03*
X152225000Y-143090000D03*
D25*
X136807500Y-144990000D03*
X136807500Y-145640000D03*
X136807500Y-146290000D03*
X136807500Y-146940000D03*
D26*
X132477500Y-146940000D03*
X132477500Y-146290000D03*
X132477500Y-145640000D03*
X132477500Y-144990000D03*
D18*
X122375000Y-128590000D03*
X122375000Y-129560000D03*
X132060000Y-99785000D03*
X132060000Y-100755000D03*
X129575000Y-102290000D03*
X129575000Y-103260000D03*
D27*
X135680000Y-97940000D03*
X138480000Y-97940000D03*
D17*
X118420000Y-94800000D03*
X117450000Y-94800000D03*
D28*
X135819413Y-136174413D03*
X134244413Y-136174413D03*
D20*
X103080000Y-142165000D03*
X103080000Y-139365000D03*
D15*
X101850000Y-96450533D03*
X101850000Y-95480533D03*
D29*
X124112500Y-97175000D03*
X122237500Y-97175000D03*
D18*
X119975000Y-100740000D03*
X119975000Y-101710000D03*
D16*
X125490000Y-95975000D03*
X126460000Y-95975000D03*
D18*
X123075000Y-94290000D03*
X123075000Y-95260000D03*
D17*
X130460000Y-95975000D03*
X129490000Y-95975000D03*
D18*
X111790000Y-80735000D03*
X111790000Y-81705000D03*
D17*
X118460000Y-95975000D03*
X117490000Y-95975000D03*
D18*
X120775000Y-93490000D03*
X120775000Y-94460000D03*
X119975000Y-95890000D03*
X119975000Y-96860000D03*
D16*
X127090000Y-97575000D03*
X128060000Y-97575000D03*
D17*
X122460000Y-103125000D03*
X121490000Y-103125000D03*
X123260000Y-101675000D03*
X122290000Y-101675000D03*
D15*
X127850000Y-104060000D03*
X127850000Y-103090000D03*
D18*
X126225000Y-99940000D03*
X126225000Y-100910000D03*
D17*
X128860000Y-100975000D03*
X127890000Y-100975000D03*
X118435000Y-106275000D03*
X117465000Y-106275000D03*
X127260000Y-106475000D03*
X126290000Y-106475000D03*
D15*
X137645000Y-141966250D03*
X137645000Y-140996250D03*
D18*
X133575000Y-126990000D03*
X133575000Y-127960000D03*
D17*
X125660000Y-102225000D03*
X124690000Y-102225000D03*
D30*
X138930000Y-139971250D03*
X138930000Y-139471250D03*
X138930000Y-138971250D03*
X138930000Y-138471250D03*
X138930000Y-137971250D03*
X141880000Y-137971250D03*
X141880000Y-138471250D03*
X141880000Y-138971250D03*
X141880000Y-139471250D03*
X141880000Y-139971250D03*
D31*
X140155000Y-137421250D03*
X140155000Y-140521250D03*
D32*
X140405000Y-138971250D03*
D31*
X140655000Y-137421250D03*
X140655000Y-140521250D03*
D18*
X146345000Y-139096250D03*
X146345000Y-140066250D03*
D15*
X143245000Y-141666250D03*
X143245000Y-140696250D03*
D33*
X143457500Y-139381250D03*
X145032500Y-139381250D03*
D15*
X142105000Y-136256250D03*
X142105000Y-135286250D03*
D33*
X139257500Y-134481250D03*
X140832500Y-134481250D03*
X139257500Y-135981250D03*
X140832500Y-135981250D03*
D16*
X140760000Y-141781250D03*
X141730000Y-141781250D03*
D19*
X137445000Y-135768750D03*
X137445000Y-134193750D03*
X137375000Y-139462500D03*
X137375000Y-137887500D03*
D16*
X133490000Y-125475000D03*
X134460000Y-125475000D03*
D17*
X135260000Y-123875000D03*
X134290000Y-123875000D03*
D15*
X138220000Y-113705000D03*
X138220000Y-112735000D03*
X138220000Y-115605000D03*
X138220000Y-114635000D03*
X136320000Y-113705000D03*
X136320000Y-112735000D03*
X136320000Y-115605000D03*
X136320000Y-114635000D03*
X137280000Y-113705000D03*
X137280000Y-112735000D03*
X137280000Y-115595000D03*
X137280000Y-114625000D03*
D17*
X122460000Y-104075000D03*
X121490000Y-104075000D03*
D15*
X121475000Y-106460000D03*
X121475000Y-105490000D03*
D19*
X142000000Y-150000000D03*
X142000000Y-148425000D03*
D17*
X135710000Y-156550000D03*
X134740000Y-156550000D03*
D16*
X134865000Y-153525000D03*
X135835000Y-153525000D03*
D15*
X138950000Y-149192500D03*
X138950000Y-148222500D03*
D16*
X134715000Y-155550000D03*
X135685000Y-155550000D03*
D18*
X133500000Y-156490000D03*
X133500000Y-157460000D03*
D16*
X134605000Y-158400000D03*
X135575000Y-158400000D03*
D33*
X130462500Y-157800000D03*
X132037500Y-157800000D03*
D18*
X139000000Y-100865000D03*
X139000000Y-101835000D03*
X133200000Y-141165000D03*
X133200000Y-142135000D03*
D15*
X136080000Y-139515000D03*
X136080000Y-138545000D03*
X143425000Y-149097500D03*
X143425000Y-148127500D03*
D16*
X133940000Y-161000000D03*
X134910000Y-161000000D03*
D19*
X133400000Y-154412500D03*
X133400000Y-152837500D03*
D28*
X132025000Y-156175000D03*
X130450000Y-156175000D03*
D19*
X140300000Y-150050000D03*
X140300000Y-148475000D03*
D34*
X123475000Y-150250000D03*
X123475000Y-153325000D03*
D18*
X110430000Y-102955000D03*
X110430000Y-103925000D03*
D17*
X128060000Y-129475000D03*
X127090000Y-129475000D03*
X127110000Y-130775000D03*
X126140000Y-130775000D03*
D16*
X135090000Y-129375000D03*
X136060000Y-129375000D03*
D27*
X122055000Y-138765000D03*
X124855000Y-138765000D03*
D35*
X104250000Y-83875000D03*
X101450000Y-83875000D03*
D33*
X135587500Y-101975000D03*
X137162500Y-101975000D03*
D15*
X125925000Y-98135000D03*
X125925000Y-97165000D03*
D36*
X101930000Y-135115000D03*
X102880000Y-135115000D03*
X103830000Y-135115000D03*
X103830000Y-137315000D03*
X102880000Y-137315000D03*
X101930000Y-137315000D03*
D37*
X118617500Y-139815000D03*
X114342500Y-139815000D03*
D28*
X110567500Y-142065000D03*
X108992500Y-142065000D03*
D24*
X111330000Y-138265000D03*
X110380000Y-138265000D03*
X109430000Y-138265000D03*
X109430000Y-136065000D03*
X111330000Y-136065000D03*
D17*
X103765000Y-133715000D03*
X102795000Y-133715000D03*
D15*
X101000000Y-140410000D03*
X101000000Y-139440000D03*
D38*
X111405000Y-103315000D03*
X111905000Y-103315000D03*
X112405000Y-103315000D03*
X112905000Y-103315000D03*
X112905000Y-105215000D03*
X112405000Y-105215000D03*
X111905000Y-105215000D03*
X111405000Y-105215000D03*
D39*
X112155000Y-104265000D03*
D17*
X113015000Y-102046250D03*
X112045000Y-102046250D03*
D15*
X113955000Y-102850000D03*
X113955000Y-101880000D03*
D18*
X113955000Y-103780000D03*
X113955000Y-104750000D03*
D35*
X104250000Y-87175000D03*
X101450000Y-87175000D03*
D16*
X126282924Y-139492164D03*
X127252924Y-139492164D03*
D17*
X139485000Y-147150000D03*
X138515000Y-147150000D03*
D15*
X105250000Y-97800533D03*
X105250000Y-96830533D03*
X107050000Y-95250533D03*
X107050000Y-94280533D03*
X106450000Y-97800533D03*
X106450000Y-96830533D03*
D17*
X104985000Y-92550000D03*
X104015000Y-92550000D03*
D33*
X136462500Y-105125000D03*
X138037500Y-105125000D03*
D40*
X137880000Y-110908750D03*
X137880000Y-109033750D03*
D16*
X135790000Y-103500000D03*
X136760000Y-103500000D03*
D36*
X107705000Y-119590000D03*
X108655000Y-119590000D03*
X109605000Y-119590000D03*
X109605000Y-121790000D03*
X107705000Y-121790000D03*
D33*
X111312500Y-121900000D03*
X112887500Y-121900000D03*
D18*
X146123750Y-114155000D03*
X146123750Y-115125000D03*
D16*
X133415000Y-159700000D03*
X134385000Y-159700000D03*
D18*
X131175000Y-105490000D03*
X131175000Y-106460000D03*
D15*
X121460000Y-100145000D03*
X121460000Y-99175000D03*
D17*
X144230000Y-138181250D03*
X143260000Y-138181250D03*
D41*
X112300000Y-66990000D03*
X111200000Y-66990000D03*
X110100000Y-66990000D03*
X109000000Y-66990000D03*
X107900000Y-66990000D03*
D42*
X103300000Y-67115000D03*
D41*
X106800000Y-66990000D03*
D43*
X114750000Y-67115000D03*
D44*
X115075000Y-75365000D03*
D41*
X105700000Y-66990000D03*
X104600000Y-66990000D03*
D45*
X114600000Y-77790000D03*
D46*
X103450000Y-76215000D03*
D47*
X103125000Y-74715000D03*
D48*
X130350000Y-153837500D03*
X130350000Y-150762500D03*
D49*
X141880000Y-102502500D03*
X141880000Y-104377500D03*
D33*
X138855000Y-145565000D03*
X140430000Y-145565000D03*
D23*
X110117500Y-107865000D03*
X114392500Y-107865000D03*
D17*
X127210000Y-131725000D03*
X126240000Y-131725000D03*
D18*
X129575000Y-105490000D03*
X129575000Y-106460000D03*
X123925000Y-103890000D03*
X123925000Y-104860000D03*
D17*
X124860000Y-100725000D03*
X123890000Y-100725000D03*
D15*
X129500000Y-98935000D03*
X129500000Y-97965000D03*
D19*
X132775000Y-97562500D03*
X132775000Y-95987500D03*
D20*
X137205000Y-95340000D03*
X137205000Y-92540000D03*
D33*
X132337500Y-101975000D03*
X133912500Y-101975000D03*
D16*
X135090000Y-130325000D03*
X136060000Y-130325000D03*
D15*
X131475000Y-129360000D03*
X131475000Y-128390000D03*
D22*
X142880000Y-143365000D03*
X142880000Y-146165000D03*
D50*
X108550000Y-158600000D03*
X108550000Y-156060000D03*
X108550000Y-153520000D03*
X108550000Y-150980000D03*
X108550000Y-148440000D03*
X108550000Y-145900000D03*
D15*
X127975000Y-100060000D03*
X127975000Y-99090000D03*
X124875000Y-104860000D03*
X124875000Y-103890000D03*
D18*
X126375000Y-104590000D03*
X126375000Y-105560000D03*
D16*
X105265000Y-108565533D03*
X106235000Y-108565533D03*
X129640000Y-133675000D03*
X130610000Y-133675000D03*
D18*
X134625000Y-133490000D03*
X134625000Y-134460000D03*
D15*
X129575000Y-127160000D03*
X129575000Y-126190000D03*
D17*
X128710000Y-132725000D03*
X127740000Y-132725000D03*
D16*
X141346250Y-114215000D03*
X142316250Y-114215000D03*
X143446250Y-114215000D03*
X144416250Y-114215000D03*
D17*
X150275000Y-112570000D03*
X149305000Y-112570000D03*
D35*
X113780000Y-99796250D03*
X110980000Y-99796250D03*
D15*
X109455000Y-134750000D03*
X109455000Y-133780000D03*
D51*
X103555000Y-128027500D03*
X103555000Y-132302500D03*
D52*
X108555000Y-129215000D03*
X108555000Y-130165000D03*
X108555000Y-131115000D03*
X106355000Y-131115000D03*
X106355000Y-129215000D03*
D33*
X106267500Y-132765000D03*
X107842500Y-132765000D03*
D18*
X110125000Y-96590000D03*
X110125000Y-97560000D03*
D16*
X114790000Y-134875000D03*
X115760000Y-134875000D03*
D17*
X150245000Y-111500000D03*
X149275000Y-111500000D03*
D16*
X101365000Y-97765533D03*
X102335000Y-97765533D03*
D53*
X103945000Y-98865533D03*
X105215000Y-98865533D03*
X106485000Y-98865533D03*
X107755000Y-98865533D03*
X107755000Y-106665533D03*
X106485000Y-106665533D03*
X105215000Y-106665533D03*
X103945000Y-106665533D03*
D18*
X101150000Y-98990000D03*
X101150000Y-99960000D03*
D54*
X109900000Y-92815000D03*
X109900000Y-93835000D03*
D55*
X146760000Y-93030000D03*
X146760000Y-90080000D03*
D56*
X102900000Y-90650000D03*
X101350000Y-90650000D03*
D57*
X105975000Y-86350000D03*
X107525000Y-86350000D03*
D58*
X106075000Y-92060000D03*
X106075000Y-91040000D03*
D59*
X104875000Y-90500000D03*
X104875000Y-91460000D03*
D60*
X146770000Y-85210000D03*
X146770000Y-88160000D03*
D61*
X145800000Y-80050000D03*
X145800000Y-78225000D03*
D62*
X109710000Y-89900000D03*
X108690000Y-89900000D03*
D61*
X150570000Y-80302500D03*
X150570000Y-78477500D03*
D63*
X115252000Y-85341372D03*
X115252000Y-84381372D03*
D57*
X105975000Y-88000000D03*
X107525000Y-88000000D03*
D64*
X106400000Y-84225000D03*
X109350000Y-84225000D03*
D65*
X120310000Y-64650000D03*
X121310000Y-64650000D03*
X122310000Y-64650000D03*
X123310000Y-64650000D03*
X124310000Y-64650000D03*
X125310000Y-64650000D03*
X126310000Y-64650000D03*
X127310000Y-64650000D03*
X128310000Y-64650000D03*
X129310000Y-64650000D03*
X130310000Y-64650000D03*
X131310000Y-64650000D03*
X132310000Y-64650000D03*
X133310000Y-64650000D03*
X134310000Y-64650000D03*
X135310000Y-64650000D03*
X136310000Y-64650000D03*
D66*
X139660000Y-68250000D03*
X139660000Y-69250000D03*
X139660000Y-70250000D03*
X139660000Y-71250000D03*
X139660000Y-72250000D03*
X139660000Y-73250000D03*
X139660000Y-74250000D03*
X139660000Y-75250000D03*
X139660000Y-76250000D03*
X139660000Y-77250000D03*
X139660000Y-78250000D03*
X139660000Y-79250000D03*
X139660000Y-80250000D03*
X139660000Y-81250000D03*
X139660000Y-82250000D03*
X139660000Y-83250000D03*
X139660000Y-84250000D03*
D67*
X136360000Y-87350000D03*
X135360000Y-87350000D03*
X134360000Y-87350000D03*
X133360000Y-87350000D03*
X132360000Y-87350000D03*
X131360000Y-87350000D03*
X130360000Y-87350000D03*
X129360000Y-87350000D03*
X128360000Y-87350000D03*
X127360000Y-87350000D03*
X126360000Y-87350000D03*
X125360000Y-87350000D03*
X124360000Y-87350000D03*
X123360000Y-87350000D03*
X122360000Y-87350000D03*
X121360000Y-87350000D03*
X120360000Y-87350000D03*
D68*
X117010000Y-84050000D03*
X117010000Y-83050000D03*
X117010000Y-82050000D03*
X117010000Y-81050000D03*
X117010000Y-80050000D03*
X117010000Y-79050000D03*
X117010000Y-78050000D03*
X117010000Y-77050000D03*
X117010000Y-76050000D03*
X117010000Y-75050000D03*
X117010000Y-74050000D03*
X117010000Y-73050000D03*
X117010000Y-72050000D03*
X117010000Y-71050000D03*
X117010000Y-70050000D03*
X117010000Y-69050000D03*
X117010000Y-68050000D03*
D69*
X135810000Y-68350000D03*
X132010000Y-68350000D03*
X128210000Y-68350000D03*
X124410000Y-68350000D03*
X120610000Y-68350000D03*
X135760000Y-72150000D03*
X128210000Y-72150000D03*
X120610000Y-72150000D03*
X135760000Y-75950000D03*
X131960000Y-75950000D03*
X124360000Y-75950000D03*
X120610000Y-75950000D03*
X135710000Y-79750000D03*
X128160000Y-79750000D03*
X120560000Y-79750000D03*
X135710000Y-83550000D03*
X131910000Y-83550000D03*
X128160000Y-83550000D03*
X124310000Y-83550000D03*
X120560000Y-83550000D03*
D61*
X153060000Y-80342500D03*
X153060000Y-78517500D03*
D59*
X111150000Y-87070000D03*
X111150000Y-88030000D03*
D54*
X109900000Y-90865000D03*
X109900000Y-91885000D03*
D59*
X115247000Y-82451372D03*
X115247000Y-83411372D03*
X111150000Y-85045000D03*
X111150000Y-86005000D03*
D70*
X150557500Y-130960000D03*
X143757500Y-130960000D03*
D61*
X143750000Y-80025000D03*
X143750000Y-78200000D03*
D71*
X143100036Y-75600000D03*
X152429964Y-75600000D03*
X143100000Y-69850001D03*
X152430000Y-69850001D03*
D72*
X143300000Y-64130000D03*
X152230000Y-64130000D03*
D73*
X149670000Y-76270001D03*
X147130000Y-76270001D03*
X145860000Y-76270001D03*
X150940000Y-76270001D03*
X148400000Y-76270001D03*
X144590000Y-76270001D03*
D74*
X150410000Y-82527500D03*
X150410000Y-84352500D03*
D61*
X147850000Y-80050000D03*
X147850000Y-78225000D03*
G36*
X137525226Y-146538146D02*
G01*
X137524997Y-146539905D01*
X137497583Y-146580934D01*
X137497583Y-146649066D01*
X137524997Y-146690094D01*
X137525228Y-146691849D01*
X137523975Y-146693099D01*
X137522879Y-146692953D01*
X137522850Y-146693104D01*
X137517301Y-146692000D01*
X137513027Y-146692000D01*
X137511742Y-146691532D01*
X137509051Y-146689274D01*
X137502720Y-146684504D01*
X137496172Y-146680087D01*
X137489376Y-146676005D01*
X137482412Y-146672302D01*
X137475236Y-146668956D01*
X137467905Y-146665995D01*
X137460434Y-146663421D01*
X137452830Y-146661241D01*
X137445130Y-146659462D01*
X137437321Y-146658086D01*
X137429467Y-146657122D01*
X137421604Y-146656572D01*
X137417474Y-146656500D01*
X136197527Y-146656500D01*
X136193406Y-146656571D01*
X136185533Y-146657122D01*
X136177681Y-146658086D01*
X136169876Y-146659461D01*
X136162169Y-146661241D01*
X136154564Y-146663421D01*
X136147106Y-146665990D01*
X136139755Y-146668958D01*
X136132588Y-146672301D01*
X136125615Y-146676010D01*
X136118827Y-146680086D01*
X136112267Y-146684512D01*
X136105948Y-146689273D01*
X136103257Y-146691532D01*
X136101971Y-146692000D01*
X136097699Y-146692000D01*
X136092150Y-146693104D01*
X136092120Y-146692956D01*
X136091015Y-146693099D01*
X136089767Y-146691848D01*
X136089999Y-146690096D01*
X136117416Y-146649065D01*
X136117416Y-146580935D01*
X136090000Y-146539904D01*
X136089769Y-146538149D01*
X136091022Y-146536899D01*
X136092120Y-146537044D01*
X136092150Y-146536896D01*
X136097699Y-146538000D01*
X136098653Y-146538000D01*
X136099966Y-146538491D01*
X136101806Y-146540092D01*
X136108341Y-146545163D01*
X136115202Y-146549886D01*
X136122284Y-146554202D01*
X136129656Y-146558136D01*
X136137163Y-146561616D01*
X136144874Y-146564672D01*
X136152801Y-146567310D01*
X136160783Y-146569473D01*
X136168923Y-146571194D01*
X136177142Y-146572451D01*
X136185412Y-146573244D01*
X136193686Y-146573566D01*
X136197474Y-146573500D01*
X137417474Y-146573500D01*
X137421594Y-146573428D01*
X137429466Y-146572877D01*
X137437321Y-146571913D01*
X137445130Y-146570537D01*
X137452830Y-146568758D01*
X137460440Y-146566576D01*
X137467893Y-146564009D01*
X137475236Y-146561044D01*
X137482412Y-146557698D01*
X137489376Y-146553995D01*
X137496175Y-146549912D01*
X137502720Y-146545496D01*
X137509041Y-146540733D01*
X137511742Y-146538468D01*
X137513028Y-146538000D01*
X137517301Y-146538000D01*
X137522850Y-146536896D01*
X137522880Y-146537047D01*
X137523966Y-146536896D01*
X137525226Y-146538146D01*
G37*
G36*
X133195226Y-146538146D02*
G01*
X133194997Y-146539905D01*
X133167583Y-146580934D01*
X133167583Y-146649066D01*
X133194998Y-146690094D01*
X133195230Y-146691846D01*
X133193982Y-146693097D01*
X133192879Y-146692955D01*
X133192850Y-146693104D01*
X133187301Y-146692000D01*
X133186347Y-146692000D01*
X133185034Y-146691509D01*
X133183202Y-146689914D01*
X133176658Y-146684836D01*
X133169788Y-146680108D01*
X133162715Y-146675797D01*
X133155343Y-146671863D01*
X133147844Y-146668386D01*
X133140125Y-146665327D01*
X133132202Y-146662690D01*
X133124232Y-146660529D01*
X133116075Y-146658805D01*
X133107858Y-146657548D01*
X133099587Y-146656755D01*
X133091313Y-146656433D01*
X133087526Y-146656500D01*
X131867527Y-146656500D01*
X131863406Y-146656571D01*
X131855533Y-146657122D01*
X131847681Y-146658086D01*
X131839876Y-146659461D01*
X131832169Y-146661241D01*
X131824564Y-146663421D01*
X131817106Y-146665990D01*
X131809755Y-146668958D01*
X131802588Y-146672301D01*
X131795615Y-146676010D01*
X131788827Y-146680086D01*
X131782267Y-146684512D01*
X131775948Y-146689273D01*
X131773257Y-146691532D01*
X131771971Y-146692000D01*
X131767699Y-146692000D01*
X131762150Y-146693104D01*
X131762120Y-146692956D01*
X131761015Y-146693099D01*
X131759767Y-146691848D01*
X131759999Y-146690096D01*
X131787416Y-146649065D01*
X131787416Y-146580935D01*
X131760001Y-146539904D01*
X131759771Y-146538146D01*
X131761029Y-146536897D01*
X131762120Y-146537046D01*
X131762150Y-146536896D01*
X131767699Y-146538000D01*
X131771972Y-146538000D01*
X131773257Y-146538468D01*
X131775938Y-146540717D01*
X131782267Y-146545486D01*
X131788827Y-146549912D01*
X131795615Y-146553988D01*
X131802588Y-146557697D01*
X131809755Y-146561040D01*
X131817106Y-146564008D01*
X131824564Y-146566578D01*
X131832169Y-146568758D01*
X131839876Y-146570538D01*
X131847681Y-146571913D01*
X131855533Y-146572877D01*
X131863395Y-146573427D01*
X131867527Y-146573500D01*
X133087474Y-146573500D01*
X133091594Y-146573428D01*
X133099466Y-146572877D01*
X133107321Y-146571913D01*
X133115130Y-146570537D01*
X133122830Y-146568758D01*
X133130440Y-146566576D01*
X133137893Y-146564009D01*
X133145236Y-146561044D01*
X133152412Y-146557698D01*
X133159376Y-146553995D01*
X133166175Y-146549912D01*
X133172720Y-146545496D01*
X133179041Y-146540733D01*
X133181742Y-146538468D01*
X133183028Y-146538000D01*
X133187301Y-146538000D01*
X133192850Y-146536896D01*
X133192880Y-146537047D01*
X133193966Y-146536896D01*
X133195226Y-146538146D01*
G37*
G36*
X137525226Y-145888146D02*
G01*
X137524997Y-145889905D01*
X137497583Y-145930934D01*
X137497583Y-145999066D01*
X137524997Y-146040094D01*
X137525228Y-146041849D01*
X137523975Y-146043099D01*
X137522879Y-146042953D01*
X137522850Y-146043104D01*
X137517301Y-146042000D01*
X137513027Y-146042000D01*
X137511742Y-146041532D01*
X137509051Y-146039274D01*
X137502720Y-146034504D01*
X137496172Y-146030087D01*
X137489376Y-146026005D01*
X137482412Y-146022302D01*
X137475236Y-146018956D01*
X137467905Y-146015995D01*
X137460434Y-146013421D01*
X137452830Y-146011241D01*
X137445130Y-146009462D01*
X137437321Y-146008086D01*
X137429467Y-146007122D01*
X137421604Y-146006572D01*
X137417474Y-146006500D01*
X136197527Y-146006500D01*
X136193406Y-146006571D01*
X136185533Y-146007122D01*
X136177681Y-146008086D01*
X136169876Y-146009461D01*
X136162169Y-146011241D01*
X136154564Y-146013421D01*
X136147106Y-146015990D01*
X136139755Y-146018958D01*
X136132588Y-146022301D01*
X136125615Y-146026010D01*
X136118827Y-146030086D01*
X136112267Y-146034512D01*
X136105948Y-146039273D01*
X136103257Y-146041532D01*
X136101971Y-146042000D01*
X136097699Y-146042000D01*
X136092150Y-146043104D01*
X136092120Y-146042956D01*
X136091015Y-146043099D01*
X136089767Y-146041848D01*
X136089999Y-146040096D01*
X136117416Y-145999065D01*
X136117416Y-145930935D01*
X136090000Y-145889904D01*
X136089769Y-145888149D01*
X136091022Y-145886899D01*
X136092120Y-145887044D01*
X136092150Y-145886896D01*
X136097699Y-145888000D01*
X136098653Y-145888000D01*
X136099966Y-145888491D01*
X136101797Y-145890085D01*
X136108361Y-145895177D01*
X136115198Y-145899883D01*
X136122284Y-145904202D01*
X136129656Y-145908136D01*
X136137163Y-145911616D01*
X136144874Y-145914672D01*
X136152801Y-145917310D01*
X136160783Y-145919473D01*
X136168923Y-145921194D01*
X136177142Y-145922451D01*
X136185412Y-145923244D01*
X136193686Y-145923566D01*
X136197474Y-145923500D01*
X137417474Y-145923500D01*
X137421594Y-145923428D01*
X137429466Y-145922877D01*
X137437321Y-145921913D01*
X137445130Y-145920537D01*
X137452830Y-145918758D01*
X137460440Y-145916576D01*
X137467893Y-145914009D01*
X137475236Y-145911044D01*
X137482412Y-145907698D01*
X137489376Y-145903995D01*
X137496172Y-145899913D01*
X137502720Y-145895496D01*
X137509041Y-145890733D01*
X137511742Y-145888468D01*
X137513028Y-145888000D01*
X137517301Y-145888000D01*
X137522850Y-145886896D01*
X137522880Y-145887047D01*
X137523966Y-145886896D01*
X137525226Y-145888146D01*
G37*
G36*
X133195226Y-145888146D02*
G01*
X133194997Y-145889905D01*
X133167583Y-145930934D01*
X133167583Y-145999066D01*
X133194998Y-146040094D01*
X133195230Y-146041846D01*
X133193982Y-146043097D01*
X133192879Y-146042955D01*
X133192850Y-146043104D01*
X133187301Y-146042000D01*
X133186347Y-146042000D01*
X133185034Y-146041509D01*
X133183194Y-146039907D01*
X133176642Y-146034825D01*
X133169788Y-146030108D01*
X133162715Y-146025797D01*
X133155343Y-146021863D01*
X133147844Y-146018386D01*
X133140125Y-146015327D01*
X133132202Y-146012690D01*
X133124232Y-146010529D01*
X133116075Y-146008805D01*
X133107858Y-146007548D01*
X133099587Y-146006755D01*
X133091313Y-146006433D01*
X133087526Y-146006500D01*
X131867527Y-146006500D01*
X131863406Y-146006571D01*
X131855533Y-146007122D01*
X131847681Y-146008086D01*
X131839876Y-146009461D01*
X131832169Y-146011241D01*
X131824564Y-146013421D01*
X131817106Y-146015990D01*
X131809755Y-146018958D01*
X131802588Y-146022301D01*
X131795615Y-146026010D01*
X131788827Y-146030086D01*
X131782267Y-146034512D01*
X131775948Y-146039273D01*
X131773257Y-146041532D01*
X131771971Y-146042000D01*
X131767699Y-146042000D01*
X131762150Y-146043104D01*
X131762120Y-146042956D01*
X131761015Y-146043099D01*
X131759767Y-146041848D01*
X131759999Y-146040096D01*
X131787416Y-145999065D01*
X131787416Y-145930935D01*
X131760001Y-145889904D01*
X131759771Y-145888146D01*
X131761029Y-145886897D01*
X131762120Y-145887046D01*
X131762150Y-145886896D01*
X131767699Y-145888000D01*
X131771972Y-145888000D01*
X131773257Y-145888468D01*
X131775938Y-145890717D01*
X131782267Y-145895486D01*
X131788827Y-145899912D01*
X131795615Y-145903988D01*
X131802588Y-145907697D01*
X131809755Y-145911040D01*
X131817106Y-145914008D01*
X131824564Y-145916578D01*
X131832169Y-145918758D01*
X131839876Y-145920538D01*
X131847681Y-145921913D01*
X131855533Y-145922877D01*
X131863395Y-145923427D01*
X131867527Y-145923500D01*
X133087474Y-145923500D01*
X133091594Y-145923428D01*
X133099466Y-145922877D01*
X133107321Y-145921913D01*
X133115130Y-145920537D01*
X133122830Y-145918758D01*
X133130440Y-145916576D01*
X133137893Y-145914009D01*
X133145236Y-145911044D01*
X133152412Y-145907698D01*
X133159376Y-145903995D01*
X133166172Y-145899913D01*
X133172720Y-145895496D01*
X133179041Y-145890733D01*
X133181742Y-145888468D01*
X133183028Y-145888000D01*
X133187301Y-145888000D01*
X133192850Y-145886896D01*
X133192880Y-145887047D01*
X133193966Y-145886896D01*
X133195226Y-145888146D01*
G37*
G36*
X137525226Y-145238146D02*
G01*
X137524997Y-145239905D01*
X137497583Y-145280934D01*
X137497583Y-145349066D01*
X137524997Y-145390094D01*
X137525228Y-145391849D01*
X137523975Y-145393099D01*
X137522879Y-145392953D01*
X137522850Y-145393104D01*
X137517301Y-145392000D01*
X137513027Y-145392000D01*
X137511742Y-145391532D01*
X137509051Y-145389274D01*
X137502720Y-145384504D01*
X137496172Y-145380087D01*
X137489376Y-145376005D01*
X137482412Y-145372302D01*
X137475236Y-145368956D01*
X137467905Y-145365995D01*
X137460434Y-145363421D01*
X137452830Y-145361241D01*
X137445130Y-145359462D01*
X137437321Y-145358086D01*
X137429467Y-145357122D01*
X137421604Y-145356572D01*
X137417474Y-145356500D01*
X136197527Y-145356500D01*
X136193406Y-145356571D01*
X136185533Y-145357122D01*
X136177681Y-145358086D01*
X136169876Y-145359461D01*
X136162169Y-145361241D01*
X136154564Y-145363421D01*
X136147106Y-145365990D01*
X136139755Y-145368958D01*
X136132588Y-145372301D01*
X136125615Y-145376010D01*
X136118827Y-145380086D01*
X136112267Y-145384512D01*
X136105948Y-145389273D01*
X136103257Y-145391532D01*
X136101971Y-145392000D01*
X136097699Y-145392000D01*
X136092150Y-145393104D01*
X136092120Y-145392956D01*
X136091015Y-145393099D01*
X136089767Y-145391848D01*
X136089999Y-145390096D01*
X136117416Y-145349065D01*
X136117416Y-145280935D01*
X136090000Y-145239904D01*
X136089769Y-145238149D01*
X136091022Y-145236899D01*
X136092120Y-145237044D01*
X136092150Y-145236896D01*
X136097699Y-145238000D01*
X136098653Y-145238000D01*
X136099966Y-145238491D01*
X136101806Y-145240092D01*
X136108341Y-145245163D01*
X136115202Y-145249886D01*
X136122284Y-145254202D01*
X136129656Y-145258136D01*
X136137163Y-145261616D01*
X136144874Y-145264672D01*
X136152801Y-145267310D01*
X136160783Y-145269473D01*
X136168923Y-145271194D01*
X136177142Y-145272451D01*
X136185412Y-145273244D01*
X136193686Y-145273566D01*
X136197474Y-145273500D01*
X137417474Y-145273500D01*
X137421594Y-145273428D01*
X137429466Y-145272877D01*
X137437321Y-145271913D01*
X137445130Y-145270537D01*
X137452830Y-145268758D01*
X137460440Y-145266576D01*
X137467893Y-145264009D01*
X137475236Y-145261044D01*
X137482412Y-145257698D01*
X137489376Y-145253995D01*
X137496175Y-145249912D01*
X137502720Y-145245496D01*
X137509041Y-145240733D01*
X137511742Y-145238468D01*
X137513028Y-145238000D01*
X137517301Y-145238000D01*
X137522850Y-145236896D01*
X137522880Y-145237047D01*
X137523966Y-145236896D01*
X137525226Y-145238146D01*
G37*
G36*
X133195226Y-145238146D02*
G01*
X133194997Y-145239905D01*
X133167583Y-145280934D01*
X133167583Y-145349066D01*
X133194998Y-145390094D01*
X133195230Y-145391846D01*
X133193982Y-145393097D01*
X133192879Y-145392955D01*
X133192850Y-145393104D01*
X133187301Y-145392000D01*
X133186347Y-145392000D01*
X133185034Y-145391509D01*
X133183202Y-145389914D01*
X133176658Y-145384836D01*
X133169788Y-145380108D01*
X133162715Y-145375797D01*
X133155343Y-145371863D01*
X133147844Y-145368386D01*
X133140125Y-145365327D01*
X133132202Y-145362690D01*
X133124232Y-145360529D01*
X133116075Y-145358805D01*
X133107858Y-145357548D01*
X133099587Y-145356755D01*
X133091313Y-145356433D01*
X133087526Y-145356500D01*
X131867527Y-145356500D01*
X131863406Y-145356571D01*
X131855533Y-145357122D01*
X131847681Y-145358086D01*
X131839876Y-145359461D01*
X131832169Y-145361241D01*
X131824564Y-145363421D01*
X131817106Y-145365990D01*
X131809755Y-145368958D01*
X131802588Y-145372301D01*
X131795615Y-145376010D01*
X131788827Y-145380086D01*
X131782267Y-145384512D01*
X131775948Y-145389273D01*
X131773257Y-145391532D01*
X131771971Y-145392000D01*
X131767699Y-145392000D01*
X131762150Y-145393104D01*
X131762120Y-145392956D01*
X131761015Y-145393099D01*
X131759767Y-145391848D01*
X131759999Y-145390096D01*
X131787416Y-145349065D01*
X131787416Y-145280935D01*
X131760001Y-145239904D01*
X131759771Y-145238146D01*
X131761029Y-145236897D01*
X131762120Y-145237046D01*
X131762150Y-145236896D01*
X131767699Y-145238000D01*
X131771972Y-145238000D01*
X131773257Y-145238468D01*
X131775938Y-145240717D01*
X131782267Y-145245486D01*
X131788827Y-145249912D01*
X131795615Y-145253988D01*
X131802588Y-145257697D01*
X131809755Y-145261040D01*
X131817106Y-145264008D01*
X131824564Y-145266578D01*
X131832169Y-145268758D01*
X131839876Y-145270538D01*
X131847681Y-145271913D01*
X131855533Y-145272877D01*
X131863395Y-145273427D01*
X131867527Y-145273500D01*
X133087474Y-145273500D01*
X133091594Y-145273428D01*
X133099466Y-145272877D01*
X133107321Y-145271913D01*
X133115130Y-145270537D01*
X133122830Y-145268758D01*
X133130440Y-145266576D01*
X133137893Y-145264009D01*
X133145236Y-145261044D01*
X133152412Y-145257698D01*
X133159376Y-145253995D01*
X133166175Y-145249912D01*
X133172720Y-145245496D01*
X133179041Y-145240733D01*
X133181742Y-145238468D01*
X133183028Y-145238000D01*
X133187301Y-145238000D01*
X133192850Y-145236896D01*
X133192880Y-145237047D01*
X133193966Y-145236896D01*
X133195226Y-145238146D01*
G37*
G36*
X140501414Y-140184836D02*
G01*
X140502000Y-140186250D01*
X140502000Y-140871250D01*
X140501908Y-140871250D01*
X140501527Y-140872678D01*
X140499892Y-140873356D01*
X140498359Y-140872471D01*
X140465025Y-140822584D01*
X140344975Y-140822584D01*
X140311641Y-140872469D01*
X140310106Y-140873354D01*
X140308470Y-140872672D01*
X140308095Y-140871250D01*
X140308000Y-140871250D01*
X140308000Y-140186250D01*
X140308586Y-140184836D01*
X140310000Y-140184250D01*
X140500000Y-140184250D01*
X140501414Y-140184836D01*
G37*
G36*
X139566111Y-137780842D02*
G01*
X139567000Y-137782505D01*
X139567000Y-140159993D01*
X139566111Y-140161656D01*
X139564235Y-140161841D01*
X139563038Y-140160383D01*
X139550040Y-140095038D01*
X139402850Y-140065760D01*
X139371641Y-140112469D01*
X139370106Y-140113354D01*
X139368470Y-140112672D01*
X139368095Y-140111250D01*
X139368000Y-140111250D01*
X139368000Y-139831250D01*
X139368095Y-139831250D01*
X139368474Y-139829827D01*
X139370109Y-139829149D01*
X139371642Y-139830034D01*
X139403591Y-139877857D01*
X139563000Y-139829507D01*
X139563000Y-139612993D01*
X139403591Y-139564642D01*
X139371642Y-139612464D01*
X139370107Y-139613349D01*
X139368471Y-139612667D01*
X139368097Y-139611250D01*
X139368000Y-139611250D01*
X139368000Y-139331250D01*
X139368092Y-139331250D01*
X139368473Y-139329822D01*
X139370108Y-139329144D01*
X139371641Y-139330029D01*
X139403598Y-139377857D01*
X139563000Y-139329503D01*
X139563000Y-139112993D01*
X139403591Y-139064642D01*
X139371642Y-139112464D01*
X139370107Y-139113349D01*
X139368471Y-139112667D01*
X139368097Y-139111250D01*
X139368000Y-139111250D01*
X139368000Y-138831250D01*
X139368092Y-138831250D01*
X139368473Y-138829822D01*
X139370108Y-138829144D01*
X139371641Y-138830029D01*
X139403598Y-138877857D01*
X139563000Y-138829503D01*
X139563000Y-138612993D01*
X139403591Y-138564642D01*
X139371642Y-138612464D01*
X139370107Y-138613349D01*
X139368471Y-138612667D01*
X139368097Y-138611250D01*
X139368000Y-138611250D01*
X139368000Y-138331250D01*
X139368094Y-138331250D01*
X139368468Y-138329826D01*
X139370104Y-138329142D01*
X139371640Y-138330027D01*
X139403598Y-138377857D01*
X139563000Y-138329503D01*
X139563000Y-138112993D01*
X139403591Y-138064642D01*
X139371642Y-138112463D01*
X139370105Y-138113348D01*
X139368469Y-138112664D01*
X139368099Y-138111250D01*
X139368000Y-138111250D01*
X139368000Y-137831250D01*
X139368092Y-137831250D01*
X139368469Y-137829823D01*
X139370105Y-137829141D01*
X139371640Y-137830026D01*
X139402854Y-137876739D01*
X139550040Y-137847459D01*
X139563038Y-137782115D01*
X139564235Y-137780657D01*
X139566111Y-137780842D01*
G37*
G36*
X141406388Y-139877858D02*
G01*
X141438361Y-139830017D01*
X141439892Y-139829132D01*
X141441526Y-139829807D01*
X141441915Y-139831250D01*
X141442000Y-139831250D01*
X141442000Y-140111250D01*
X141441914Y-140111250D01*
X141441521Y-140112688D01*
X141439887Y-140113359D01*
X141438359Y-140112475D01*
X141407141Y-140065758D01*
X141259955Y-140095042D01*
X141246962Y-140160374D01*
X141245765Y-140161832D01*
X141243889Y-140161647D01*
X141243000Y-140159984D01*
X141243000Y-139830982D01*
X141243809Y-139829376D01*
X141245581Y-139829068D01*
X141406388Y-139877858D01*
G37*
G36*
X142305000Y-139624345D02*
G01*
X142306422Y-139624720D01*
X142307104Y-139626356D01*
X142306219Y-139627891D01*
X142256334Y-139661225D01*
X142256334Y-139781275D01*
X142306221Y-139814609D01*
X142307106Y-139816142D01*
X142306428Y-139817777D01*
X142305000Y-139818158D01*
X142305000Y-139818250D01*
X141455000Y-139818250D01*
X141455000Y-139818164D01*
X141453562Y-139817771D01*
X141452891Y-139816137D01*
X141453775Y-139814609D01*
X141503665Y-139781274D01*
X141503665Y-139661226D01*
X141453778Y-139627890D01*
X141452893Y-139626352D01*
X141453578Y-139624716D01*
X141455000Y-139624346D01*
X141455000Y-139624250D01*
X142305000Y-139624250D01*
X142305000Y-139624345D01*
G37*
G36*
X139355000Y-139624344D02*
G01*
X139356425Y-139624722D01*
X139357105Y-139626357D01*
X139356220Y-139627891D01*
X139306334Y-139661225D01*
X139306334Y-139781275D01*
X139356222Y-139814609D01*
X139357107Y-139816141D01*
X139356430Y-139817775D01*
X139355000Y-139818159D01*
X139355000Y-139818250D01*
X138505000Y-139818250D01*
X138505000Y-139818164D01*
X138503559Y-139817769D01*
X138502890Y-139816136D01*
X138503774Y-139814609D01*
X138553665Y-139781274D01*
X138553665Y-139661226D01*
X138503776Y-139627890D01*
X138502891Y-139626355D01*
X138503573Y-139624719D01*
X138505000Y-139624342D01*
X138505000Y-139624250D01*
X139355000Y-139624250D01*
X139355000Y-139624344D01*
G37*
G36*
X141406388Y-139377858D02*
G01*
X141438361Y-139330017D01*
X141439892Y-139329132D01*
X141441526Y-139329807D01*
X141441915Y-139331250D01*
X141442000Y-139331250D01*
X141442000Y-139611250D01*
X141441910Y-139611250D01*
X141441524Y-139612683D01*
X141439890Y-139613358D01*
X141438359Y-139612473D01*
X141406396Y-139564641D01*
X141245581Y-139613428D01*
X141243809Y-139613120D01*
X141243000Y-139611514D01*
X141243000Y-139330982D01*
X141243809Y-139329376D01*
X141245581Y-139329068D01*
X141406388Y-139377858D01*
G37*
G36*
X142305000Y-139124345D02*
G01*
X142306422Y-139124720D01*
X142307104Y-139126356D01*
X142306219Y-139127891D01*
X142256334Y-139161225D01*
X142256334Y-139281275D01*
X142306221Y-139314609D01*
X142307106Y-139316142D01*
X142306428Y-139317777D01*
X142305000Y-139318158D01*
X142305000Y-139318250D01*
X141455000Y-139318250D01*
X141455000Y-139318164D01*
X141453562Y-139317771D01*
X141452891Y-139316137D01*
X141453775Y-139314609D01*
X141503665Y-139281274D01*
X141503665Y-139161226D01*
X141453778Y-139127890D01*
X141452893Y-139126352D01*
X141453578Y-139124716D01*
X141455000Y-139124346D01*
X141455000Y-139124250D01*
X142305000Y-139124250D01*
X142305000Y-139124345D01*
G37*
G36*
X139355000Y-139124344D02*
G01*
X139356425Y-139124722D01*
X139357105Y-139126357D01*
X139356220Y-139127891D01*
X139306334Y-139161225D01*
X139306334Y-139281275D01*
X139356222Y-139314609D01*
X139357107Y-139316141D01*
X139356430Y-139317775D01*
X139355000Y-139318159D01*
X139355000Y-139318250D01*
X138505000Y-139318250D01*
X138505000Y-139318164D01*
X138503559Y-139317769D01*
X138502890Y-139316136D01*
X138503774Y-139314609D01*
X138553665Y-139281274D01*
X138553665Y-139161226D01*
X138503776Y-139127890D01*
X138502891Y-139126355D01*
X138503573Y-139124719D01*
X138505000Y-139124342D01*
X138505000Y-139124250D01*
X139355000Y-139124250D01*
X139355000Y-139124344D01*
G37*
G36*
X141406388Y-138877858D02*
G01*
X141438361Y-138830017D01*
X141439892Y-138829132D01*
X141441526Y-138829807D01*
X141441915Y-138831250D01*
X141442000Y-138831250D01*
X141442000Y-139111250D01*
X141441910Y-139111250D01*
X141441524Y-139112683D01*
X141439890Y-139113358D01*
X141438359Y-139112473D01*
X141406396Y-139064641D01*
X141245581Y-139113428D01*
X141243809Y-139113120D01*
X141243000Y-139111514D01*
X141243000Y-138830982D01*
X141243809Y-138829376D01*
X141245581Y-138829068D01*
X141406388Y-138877858D01*
G37*
G36*
X142305000Y-138624345D02*
G01*
X142306422Y-138624720D01*
X142307104Y-138626356D01*
X142306219Y-138627891D01*
X142256334Y-138661225D01*
X142256334Y-138781275D01*
X142306221Y-138814609D01*
X142307106Y-138816142D01*
X142306428Y-138817777D01*
X142305000Y-138818158D01*
X142305000Y-138818250D01*
X141455000Y-138818250D01*
X141455000Y-138818164D01*
X141453562Y-138817771D01*
X141452891Y-138816137D01*
X141453775Y-138814609D01*
X141503665Y-138781274D01*
X141503665Y-138661226D01*
X141453778Y-138627890D01*
X141452893Y-138626352D01*
X141453578Y-138624716D01*
X141455000Y-138624346D01*
X141455000Y-138624250D01*
X142305000Y-138624250D01*
X142305000Y-138624345D01*
G37*
G36*
X139355000Y-138624344D02*
G01*
X139356425Y-138624722D01*
X139357105Y-138626357D01*
X139356220Y-138627891D01*
X139306334Y-138661225D01*
X139306334Y-138781275D01*
X139356222Y-138814609D01*
X139357107Y-138816141D01*
X139356430Y-138817775D01*
X139355000Y-138818159D01*
X139355000Y-138818250D01*
X138505000Y-138818250D01*
X138505000Y-138818164D01*
X138503559Y-138817769D01*
X138502890Y-138816136D01*
X138503774Y-138814609D01*
X138553665Y-138781274D01*
X138553665Y-138661226D01*
X138503776Y-138627890D01*
X138502891Y-138626355D01*
X138503573Y-138624719D01*
X138505000Y-138624342D01*
X138505000Y-138624250D01*
X139355000Y-138624250D01*
X139355000Y-138624344D01*
G37*
G36*
X141406388Y-138377858D02*
G01*
X141438361Y-138330015D01*
X141439890Y-138329131D01*
X141441523Y-138329802D01*
X141441918Y-138331250D01*
X141442000Y-138331250D01*
X141442000Y-138611250D01*
X141441910Y-138611250D01*
X141441524Y-138612683D01*
X141439890Y-138613358D01*
X141438359Y-138612473D01*
X141406396Y-138564641D01*
X141245581Y-138613428D01*
X141243809Y-138613120D01*
X141243000Y-138611514D01*
X141243000Y-138330982D01*
X141243809Y-138329376D01*
X141245581Y-138329068D01*
X141406388Y-138377858D01*
G37*
G36*
X142305000Y-138124350D02*
G01*
X142306413Y-138124715D01*
X142307101Y-138126352D01*
X142306216Y-138127891D01*
X142256335Y-138161220D01*
X142256332Y-138281271D01*
X142306223Y-138314609D01*
X142307108Y-138316140D01*
X142306433Y-138317774D01*
X142305000Y-138318160D01*
X142305000Y-138318250D01*
X141455000Y-138318250D01*
X141455000Y-138318162D01*
X141453565Y-138317776D01*
X141452888Y-138316142D01*
X141453773Y-138314610D01*
X141503666Y-138281270D01*
X141503663Y-138161222D01*
X141453779Y-138127891D01*
X141452894Y-138126358D01*
X141453572Y-138124723D01*
X141455000Y-138124342D01*
X141455000Y-138124250D01*
X142305000Y-138124250D01*
X142305000Y-138124350D01*
G37*
G36*
X139355000Y-138124348D02*
G01*
X139356416Y-138124717D01*
X139357102Y-138126353D01*
X139356217Y-138127891D01*
X139306335Y-138161221D01*
X139306332Y-138281271D01*
X139356225Y-138314609D01*
X139357109Y-138316137D01*
X139356438Y-138317771D01*
X139355000Y-138318164D01*
X139355000Y-138318250D01*
X138505000Y-138318250D01*
X138505000Y-138318164D01*
X138503562Y-138317771D01*
X138502891Y-138316137D01*
X138503775Y-138314609D01*
X138553666Y-138281270D01*
X138553663Y-138161222D01*
X138503779Y-138127891D01*
X138502894Y-138126358D01*
X138503572Y-138124723D01*
X138505000Y-138124342D01*
X138505000Y-138124250D01*
X139355000Y-138124250D01*
X139355000Y-138124348D01*
G37*
G36*
X141246962Y-137782125D02*
G01*
X141259955Y-137847455D01*
X141407137Y-137876741D01*
X141438360Y-137830018D01*
X141439887Y-137829134D01*
X141441519Y-137829802D01*
X141441918Y-137831250D01*
X141442000Y-137831250D01*
X141442000Y-138111250D01*
X141441909Y-138111250D01*
X141441522Y-138112678D01*
X141439888Y-138113353D01*
X141438358Y-138112468D01*
X141406404Y-138064641D01*
X141245581Y-138113423D01*
X141243809Y-138113115D01*
X141243000Y-138111509D01*
X141243000Y-137782515D01*
X141243889Y-137780852D01*
X141245765Y-137780667D01*
X141246962Y-137782125D01*
G37*
G36*
X140501519Y-137069809D02*
G01*
X140501914Y-137071250D01*
X140502000Y-137071250D01*
X140502000Y-137756250D01*
X140501414Y-137757664D01*
X140500000Y-137758250D01*
X140310000Y-137758250D01*
X140308586Y-137757664D01*
X140308000Y-137756250D01*
X140308000Y-137071250D01*
X140308092Y-137071250D01*
X140308469Y-137069823D01*
X140310105Y-137069141D01*
X140311640Y-137070026D01*
X140344976Y-137119915D01*
X140465024Y-137119915D01*
X140498359Y-137070024D01*
X140499886Y-137069140D01*
X140501519Y-137069809D01*
G37*
G36*
X106596023Y-118021913D02*
G01*
X106595838Y-118023789D01*
X106574254Y-118056093D01*
X106562000Y-118117699D01*
X106562000Y-118462301D01*
X106574254Y-118523906D01*
X106595834Y-118556204D01*
X106596019Y-118558080D01*
X106594561Y-118559277D01*
X106592757Y-118558729D01*
X106555862Y-118521834D01*
X106431045Y-118554251D01*
X106429668Y-118554114D01*
X106428709Y-118553116D01*
X106428628Y-118551734D01*
X106443526Y-118502621D01*
X106462990Y-118305000D01*
X106443526Y-118107378D01*
X106421505Y-118034784D01*
X106421586Y-118033402D01*
X106422545Y-118032404D01*
X106423922Y-118032267D01*
X106549216Y-118064810D01*
X106592761Y-118021264D01*
X106594565Y-118020716D01*
X106596023Y-118021913D01*
G37*
G36*
X112766111Y-104974586D02*
G01*
X112767000Y-104976249D01*
X112767000Y-105453742D01*
X112766111Y-105455405D01*
X112764235Y-105455590D01*
X112763038Y-105454132D01*
X112747163Y-105374312D01*
X112562837Y-105374312D01*
X112546962Y-105454128D01*
X112545765Y-105455586D01*
X112543889Y-105455401D01*
X112543000Y-105453738D01*
X112543000Y-104976266D01*
X112543889Y-104974603D01*
X112545765Y-104974418D01*
X112546962Y-104975876D01*
X112562832Y-105055684D01*
X112747157Y-105055689D01*
X112763038Y-104975859D01*
X112764235Y-104974401D01*
X112766111Y-104974586D01*
G37*
G36*
X112266111Y-104974586D02*
G01*
X112267000Y-104976249D01*
X112267000Y-105453742D01*
X112266111Y-105455405D01*
X112264235Y-105455590D01*
X112263038Y-105454132D01*
X112247163Y-105374312D01*
X112062837Y-105374312D01*
X112046962Y-105454128D01*
X112045765Y-105455586D01*
X112043889Y-105455401D01*
X112043000Y-105453738D01*
X112043000Y-104976266D01*
X112043889Y-104974603D01*
X112045765Y-104974418D01*
X112046962Y-104975876D01*
X112062832Y-105055684D01*
X112247157Y-105055689D01*
X112263038Y-104975859D01*
X112264235Y-104974401D01*
X112266111Y-104974586D01*
G37*
G36*
X111766111Y-104974586D02*
G01*
X111767000Y-104976249D01*
X111767000Y-105453742D01*
X111766111Y-105455405D01*
X111764235Y-105455590D01*
X111763038Y-105454132D01*
X111747163Y-105374312D01*
X111562837Y-105374312D01*
X111546962Y-105454128D01*
X111545765Y-105455586D01*
X111543889Y-105455401D01*
X111543000Y-105453738D01*
X111543000Y-104976266D01*
X111543889Y-104974603D01*
X111545765Y-104974418D01*
X111546962Y-104975876D01*
X111562832Y-105055684D01*
X111747157Y-105055689D01*
X111763038Y-104975859D01*
X111764235Y-104974401D01*
X111766111Y-104974586D01*
G37*
G36*
X112471109Y-104728657D02*
G01*
X112471617Y-104730196D01*
X112451486Y-104934581D01*
X112519135Y-104948038D01*
X112520593Y-104949235D01*
X112520408Y-104951111D01*
X112518745Y-104952000D01*
X112291239Y-104952000D01*
X112289576Y-104951111D01*
X112289391Y-104949235D01*
X112290849Y-104948038D01*
X112358513Y-104934574D01*
X112338377Y-104730196D01*
X112338885Y-104728657D01*
X112340367Y-104728000D01*
X112469627Y-104728000D01*
X112471109Y-104728657D01*
G37*
G36*
X111971115Y-104728657D02*
G01*
X111971623Y-104730196D01*
X111951486Y-104934574D01*
X112019150Y-104948038D01*
X112020608Y-104949235D01*
X112020423Y-104951111D01*
X112018760Y-104952000D01*
X111791236Y-104952000D01*
X111789573Y-104951111D01*
X111789388Y-104949235D01*
X111790846Y-104948038D01*
X111858513Y-104934571D01*
X111838375Y-104730196D01*
X111838883Y-104728657D01*
X111840365Y-104728000D01*
X111969633Y-104728000D01*
X111971115Y-104728657D01*
G37*
G36*
X111471120Y-104728657D02*
G01*
X111471628Y-104730196D01*
X111451485Y-104934567D01*
X111519163Y-104948038D01*
X111520621Y-104949235D01*
X111520436Y-104951111D01*
X111518773Y-104952000D01*
X111291255Y-104952000D01*
X111289523Y-104951000D01*
X111289523Y-104949000D01*
X111291255Y-104948000D01*
X111413567Y-104947997D01*
X111433505Y-104745402D01*
X111365890Y-104731962D01*
X111364432Y-104730766D01*
X111364617Y-104728889D01*
X111366280Y-104728000D01*
X111469638Y-104728000D01*
X111471120Y-104728657D01*
G37*
G36*
X112020382Y-103578889D02*
G01*
X112020567Y-103580766D01*
X112019109Y-103581962D01*
X111951492Y-103595403D01*
X111971434Y-103798000D01*
X112338561Y-103798000D01*
X112358507Y-103595410D01*
X112290877Y-103581962D01*
X112289419Y-103580765D01*
X112289604Y-103578889D01*
X112291267Y-103578000D01*
X112518722Y-103578000D01*
X112520385Y-103578889D01*
X112520570Y-103580765D01*
X112519112Y-103581962D01*
X112451492Y-103595406D01*
X112471437Y-103798000D01*
X112838556Y-103798000D01*
X112858508Y-103595417D01*
X112790869Y-103581962D01*
X112789411Y-103580765D01*
X112789596Y-103578889D01*
X112791259Y-103578000D01*
X112894627Y-103578000D01*
X112896109Y-103578657D01*
X112896617Y-103580196D01*
X112876486Y-103784581D01*
X112944135Y-103798038D01*
X112945593Y-103799235D01*
X112945408Y-103801111D01*
X112943745Y-103802000D01*
X111840378Y-103802000D01*
X111838896Y-103801343D01*
X111838388Y-103799804D01*
X111858507Y-103595403D01*
X111790890Y-103581962D01*
X111789432Y-103580766D01*
X111789617Y-103578889D01*
X111791280Y-103578000D01*
X112018719Y-103578000D01*
X112020382Y-103578889D01*
G37*
G36*
X112766111Y-103074586D02*
G01*
X112767000Y-103076249D01*
X112767000Y-103553742D01*
X112766111Y-103555405D01*
X112764235Y-103555590D01*
X112763038Y-103554132D01*
X112747163Y-103474312D01*
X112562837Y-103474312D01*
X112546962Y-103554128D01*
X112545765Y-103555586D01*
X112543889Y-103555401D01*
X112543000Y-103553738D01*
X112543000Y-103076266D01*
X112543889Y-103074603D01*
X112545765Y-103074418D01*
X112546962Y-103075876D01*
X112562832Y-103155684D01*
X112747157Y-103155689D01*
X112763038Y-103075859D01*
X112764235Y-103074401D01*
X112766111Y-103074586D01*
G37*
G36*
X112266111Y-103074586D02*
G01*
X112267000Y-103076249D01*
X112267000Y-103553742D01*
X112266111Y-103555405D01*
X112264235Y-103555590D01*
X112263038Y-103554132D01*
X112247163Y-103474312D01*
X112062837Y-103474312D01*
X112046962Y-103554128D01*
X112045765Y-103555586D01*
X112043889Y-103555401D01*
X112043000Y-103553738D01*
X112043000Y-103076266D01*
X112043889Y-103074603D01*
X112045765Y-103074418D01*
X112046962Y-103075876D01*
X112062832Y-103155684D01*
X112247157Y-103155689D01*
X112263038Y-103075859D01*
X112264235Y-103074401D01*
X112266111Y-103074586D01*
G37*
G36*
X111766111Y-103074586D02*
G01*
X111767000Y-103076249D01*
X111767000Y-103553742D01*
X111766111Y-103555405D01*
X111764235Y-103555590D01*
X111763038Y-103554132D01*
X111747163Y-103474312D01*
X111562837Y-103474312D01*
X111546962Y-103554128D01*
X111545765Y-103555586D01*
X111543889Y-103555401D01*
X111543000Y-103553738D01*
X111543000Y-103076266D01*
X111543889Y-103074603D01*
X111545765Y-103074418D01*
X111546962Y-103075876D01*
X111562832Y-103155684D01*
X111747157Y-103155689D01*
X111763038Y-103075859D01*
X111764235Y-103074401D01*
X111766111Y-103074586D01*
G37*
M02*
