G04 #@! TF.GenerationSoftware,KiCad,Pcbnew,7.0.1*
G04 #@! TF.CreationDate,2024-07-31T19:39:54-07:00*
G04 #@! TF.ProjectId,DFTBoard,44465442-6f61-4726-942e-6b696361645f,rev?*
G04 #@! TF.SameCoordinates,Original*
G04 #@! TF.FileFunction,Paste,Top*
G04 #@! TF.FilePolarity,Positive*
%FSLAX46Y46*%
G04 Gerber Fmt 4.6, Leading zero omitted, Abs format (unit mm)*
G04 Created by KiCad (PCBNEW 7.0.1) date 2024-07-31 19:39:54*
%MOMM*%
%LPD*%
G01*
G04 APERTURE LIST*
G04 Aperture macros list*
%AMRoundRect*
0 Rectangle with rounded corners*
0 $1 Rounding radius*
0 $2 $3 $4 $5 $6 $7 $8 $9 X,Y pos of 4 corners*
0 Add a 4 corners polygon primitive as box body*
4,1,4,$2,$3,$4,$5,$6,$7,$8,$9,$2,$3,0*
0 Add four circle primitives for the rounded corners*
1,1,$1+$1,$2,$3*
1,1,$1+$1,$4,$5*
1,1,$1+$1,$6,$7*
1,1,$1+$1,$8,$9*
0 Add four rect primitives between the rounded corners*
20,1,$1+$1,$2,$3,$4,$5,0*
20,1,$1+$1,$4,$5,$6,$7,0*
20,1,$1+$1,$6,$7,$8,$9,0*
20,1,$1+$1,$8,$9,$2,$3,0*%
G04 Aperture macros list end*
%ADD10C,0.010000*%
%ADD11R,2.727960X0.967740*%
%ADD12RoundRect,0.071300X0.147500X0.172500X-0.147500X0.172500X-0.147500X-0.172500X0.147500X-0.172500X0*%
%ADD13RoundRect,0.071300X-0.147500X-0.172500X0.147500X-0.172500X0.147500X0.172500X-0.147500X0.172500X0*%
%ADD14C,0.177600*%
%ADD15RoundRect,0.245000X-0.245000X-0.245000X0.245000X-0.245000X0.245000X0.245000X-0.245000X0.245000X0*%
%ADD16RoundRect,0.000000X-0.298800X-0.048800X0.298800X-0.048800X0.298800X0.048800X-0.298800X0.048800X0*%
%ADD17RoundRect,0.000000X-0.048800X-0.298800X0.048800X-0.298800X0.048800X0.298800X-0.048800X0.298800X0*%
%ADD18R,1.747600X0.147600*%
%ADD19R,2.647600X2.047600*%
%ADD20R,2.047600X2.647600*%
%ADD21C,0.247600*%
%ADD22R,1.447600X0.147600*%
%ADD23RoundRect,0.071300X-0.172500X0.147500X-0.172500X-0.147500X0.172500X-0.147500X0.172500X0.147500X0*%
%ADD24R,0.507600X0.747600*%
%ADD25RoundRect,0.000000X0.048800X-0.103800X0.048800X0.103800X-0.048800X0.103800X-0.048800X-0.103800X0*%
%ADD26RoundRect,0.173800X0.475000X-0.250000X0.475000X0.250000X-0.475000X0.250000X-0.475000X-0.250000X0*%
%ADD27RoundRect,0.058800X-0.185000X0.135000X-0.185000X-0.135000X0.185000X-0.135000X0.185000X0.135000X0*%
%ADD28RoundRect,0.173800X0.450000X-0.262500X0.450000X0.262500X-0.450000X0.262500X-0.450000X-0.262500X0*%
%ADD29RoundRect,0.073800X-0.150000X0.512500X-0.150000X-0.512500X0.150000X-0.512500X0.150000X0.512500X0*%
%ADD30RoundRect,0.173800X-0.925000X0.787500X-0.925000X-0.787500X0.925000X-0.787500X0.925000X0.787500X0*%
%ADD31RoundRect,0.182500X0.182500X-0.182500X0.182500X0.182500X-0.182500X0.182500X-0.182500X-0.182500X0*%
%ADD32RoundRect,0.000000X0.048800X-0.336300X0.048800X0.336300X-0.048800X0.336300X-0.048800X-0.336300X0*%
%ADD33RoundRect,0.000000X0.336300X-0.048800X0.336300X0.048800X-0.336300X0.048800X-0.336300X-0.048800X0*%
%ADD34RoundRect,0.173800X-0.787500X-0.925000X0.787500X-0.925000X0.787500X0.925000X-0.787500X0.925000X0*%
%ADD35RoundRect,0.173800X-0.475000X0.250000X-0.475000X-0.250000X0.475000X-0.250000X0.475000X0.250000X0*%
%ADD36C,1.625600*%
%ADD37C,3.047600*%
%ADD38RoundRect,0.058800X0.185000X-0.135000X0.185000X0.135000X-0.185000X0.135000X-0.185000X-0.135000X0*%
%ADD39R,0.147600X1.147600*%
%ADD40R,1.647600X2.047600*%
%ADD41R,0.147600X0.947600*%
%ADD42R,2.147600X2.947600*%
%ADD43RoundRect,0.000000X-0.048800X0.103800X-0.048800X-0.103800X0.048800X-0.103800X0.048800X0.103800X0*%
%ADD44R,1.267610X2.187600*%
%ADD45R,1.267610X2.087600*%
%ADD46R,0.847600X2.047600*%
%ADD47R,0.847600X0.847600*%
%ADD48RoundRect,0.073800X0.150000X-0.512500X0.150000X0.512500X-0.150000X0.512500X-0.150000X-0.512500X0*%
%ADD49R,1.847600X1.347600*%
%ADD50R,1.847600X3.647600*%
%ADD51R,1.752600X1.752600*%
%ADD52RoundRect,0.173799X0.450001X1.450001X-0.450001X1.450001X-0.450001X-1.450001X0.450001X-1.450001X0*%
%ADD53RoundRect,0.148800X-0.225000X-0.375000X0.225000X-0.375000X0.225000X0.375000X-0.225000X0.375000X0*%
G04 APERTURE END LIST*
D10*
X141130010Y-75817000D02*
X139709990Y-75817000D01*
X139709990Y-73477000D01*
X141130010Y-73477000D01*
X141130010Y-75817000D01*
G36*
X141130010Y-75817000D02*
G01*
X139709990Y-75817000D01*
X139709990Y-73477000D01*
X141130010Y-73477000D01*
X141130010Y-75817000D01*
G37*
X141130010Y-79628000D02*
X139709990Y-79628000D01*
X139709990Y-77388000D01*
X141130010Y-77388000D01*
X141130010Y-79628000D01*
G36*
X141130010Y-79628000D02*
G01*
X139709990Y-79628000D01*
X139709990Y-77388000D01*
X141130010Y-77388000D01*
X141130010Y-79628000D01*
G37*
X143670010Y-75817000D02*
X142249990Y-75817000D01*
X142249990Y-73477000D01*
X143670010Y-73477000D01*
X143670010Y-75817000D01*
G36*
X143670010Y-75817000D02*
G01*
X142249990Y-75817000D01*
X142249990Y-73477000D01*
X143670010Y-73477000D01*
X143670010Y-75817000D01*
G37*
X143670010Y-79628000D02*
X142249990Y-79628000D01*
X142249990Y-77388000D01*
X143670010Y-77388000D01*
X143670010Y-79628000D01*
G36*
X143670010Y-79628000D02*
G01*
X142249990Y-79628000D01*
X142249990Y-77388000D01*
X143670010Y-77388000D01*
X143670010Y-79628000D01*
G37*
X146210006Y-75817000D02*
X144789990Y-75817000D01*
X144789990Y-73477000D01*
X146210006Y-73477000D01*
X146210006Y-75817000D01*
G36*
X146210006Y-75817000D02*
G01*
X144789990Y-75817000D01*
X144789990Y-73477000D01*
X146210006Y-73477000D01*
X146210006Y-75817000D01*
G37*
X146210006Y-79628000D02*
X144789990Y-79628000D01*
X144789990Y-77388000D01*
X146210006Y-77388000D01*
X146210006Y-79628000D01*
G36*
X146210006Y-79628000D02*
G01*
X144789990Y-79628000D01*
X144789990Y-77388000D01*
X146210006Y-77388000D01*
X146210006Y-79628000D01*
G37*
X148750010Y-75817000D02*
X147329994Y-75817000D01*
X147329994Y-73477000D01*
X148750010Y-73477000D01*
X148750010Y-75817000D01*
G36*
X148750010Y-75817000D02*
G01*
X147329994Y-75817000D01*
X147329994Y-73477000D01*
X148750010Y-73477000D01*
X148750010Y-75817000D01*
G37*
X148750010Y-79628000D02*
X147329994Y-79628000D01*
X147329994Y-77388000D01*
X148750010Y-77388000D01*
X148750010Y-79628000D01*
G36*
X148750010Y-79628000D02*
G01*
X147329994Y-79628000D01*
X147329994Y-77388000D01*
X148750010Y-77388000D01*
X148750010Y-79628000D01*
G37*
X151290010Y-75817000D02*
X149869990Y-75817000D01*
X149869990Y-73477000D01*
X151290010Y-73477000D01*
X151290010Y-75817000D01*
G36*
X151290010Y-75817000D02*
G01*
X149869990Y-75817000D01*
X149869990Y-73477000D01*
X151290010Y-73477000D01*
X151290010Y-75817000D01*
G37*
X151290010Y-79628000D02*
X149869990Y-79628000D01*
X149869990Y-77388000D01*
X151290010Y-77388000D01*
X151290010Y-79628000D01*
G36*
X151290010Y-79628000D02*
G01*
X149869990Y-79628000D01*
X149869990Y-77388000D01*
X151290010Y-77388000D01*
X151290010Y-79628000D01*
G37*
X153830010Y-75817000D02*
X152409990Y-75817000D01*
X152409990Y-73477000D01*
X153830010Y-73477000D01*
X153830010Y-75817000D01*
G36*
X153830010Y-75817000D02*
G01*
X152409990Y-75817000D01*
X152409990Y-73477000D01*
X153830010Y-73477000D01*
X153830010Y-75817000D01*
G37*
X153830010Y-79628000D02*
X152409990Y-79628000D01*
X152409990Y-77388000D01*
X153830010Y-77388000D01*
X153830010Y-79628000D01*
G36*
X153830010Y-79628000D02*
G01*
X152409990Y-79628000D01*
X152409990Y-77388000D01*
X153830010Y-77388000D01*
X153830010Y-79628000D01*
G37*
X118490010Y-76120000D02*
X117069990Y-76120000D01*
X117069990Y-73780000D01*
X118490010Y-73780000D01*
X118490010Y-76120000D01*
G36*
X118490010Y-76120000D02*
G01*
X117069990Y-76120000D01*
X117069990Y-73780000D01*
X118490010Y-73780000D01*
X118490010Y-76120000D01*
G37*
X118490010Y-79931000D02*
X117069990Y-79931000D01*
X117069990Y-77691000D01*
X118490010Y-77691000D01*
X118490010Y-79931000D01*
G36*
X118490010Y-79931000D02*
G01*
X117069990Y-79931000D01*
X117069990Y-77691000D01*
X118490010Y-77691000D01*
X118490010Y-79931000D01*
G37*
X121030010Y-76120000D02*
X119609990Y-76120000D01*
X119609990Y-73780000D01*
X121030010Y-73780000D01*
X121030010Y-76120000D01*
G36*
X121030010Y-76120000D02*
G01*
X119609990Y-76120000D01*
X119609990Y-73780000D01*
X121030010Y-73780000D01*
X121030010Y-76120000D01*
G37*
X121030010Y-79931000D02*
X119609990Y-79931000D01*
X119609990Y-77691000D01*
X121030010Y-77691000D01*
X121030010Y-79931000D01*
G36*
X121030010Y-79931000D02*
G01*
X119609990Y-79931000D01*
X119609990Y-77691000D01*
X121030010Y-77691000D01*
X121030010Y-79931000D01*
G37*
X123570006Y-76120000D02*
X122149990Y-76120000D01*
X122149990Y-73780000D01*
X123570006Y-73780000D01*
X123570006Y-76120000D01*
G36*
X123570006Y-76120000D02*
G01*
X122149990Y-76120000D01*
X122149990Y-73780000D01*
X123570006Y-73780000D01*
X123570006Y-76120000D01*
G37*
X123570006Y-79931000D02*
X122149990Y-79931000D01*
X122149990Y-77691000D01*
X123570006Y-77691000D01*
X123570006Y-79931000D01*
G36*
X123570006Y-79931000D02*
G01*
X122149990Y-79931000D01*
X122149990Y-77691000D01*
X123570006Y-77691000D01*
X123570006Y-79931000D01*
G37*
X126110010Y-76120000D02*
X124689994Y-76120000D01*
X124689994Y-73780000D01*
X126110010Y-73780000D01*
X126110010Y-76120000D01*
G36*
X126110010Y-76120000D02*
G01*
X124689994Y-76120000D01*
X124689994Y-73780000D01*
X126110010Y-73780000D01*
X126110010Y-76120000D01*
G37*
X126110010Y-79931000D02*
X124689994Y-79931000D01*
X124689994Y-77691000D01*
X126110010Y-77691000D01*
X126110010Y-79931000D01*
G36*
X126110010Y-79931000D02*
G01*
X124689994Y-79931000D01*
X124689994Y-77691000D01*
X126110010Y-77691000D01*
X126110010Y-79931000D01*
G37*
X128650010Y-76120000D02*
X127229990Y-76120000D01*
X127229990Y-73780000D01*
X128650010Y-73780000D01*
X128650010Y-76120000D01*
G36*
X128650010Y-76120000D02*
G01*
X127229990Y-76120000D01*
X127229990Y-73780000D01*
X128650010Y-73780000D01*
X128650010Y-76120000D01*
G37*
X128650010Y-79931000D02*
X127229990Y-79931000D01*
X127229990Y-77691000D01*
X128650010Y-77691000D01*
X128650010Y-79931000D01*
G36*
X128650010Y-79931000D02*
G01*
X127229990Y-79931000D01*
X127229990Y-77691000D01*
X128650010Y-77691000D01*
X128650010Y-79931000D01*
G37*
X131190010Y-76120000D02*
X129769990Y-76120000D01*
X129769990Y-73780000D01*
X131190010Y-73780000D01*
X131190010Y-76120000D01*
G36*
X131190010Y-76120000D02*
G01*
X129769990Y-76120000D01*
X129769990Y-73780000D01*
X131190010Y-73780000D01*
X131190010Y-76120000D01*
G37*
X131190010Y-79931000D02*
X129769990Y-79931000D01*
X129769990Y-77691000D01*
X131190010Y-77691000D01*
X131190010Y-79931000D01*
G36*
X131190010Y-79931000D02*
G01*
X129769990Y-79931000D01*
X129769990Y-77691000D01*
X131190010Y-77691000D01*
X131190010Y-79931000D01*
G37*
D11*
X142064130Y-133015120D03*
X142064130Y-130515760D03*
X142064130Y-128514240D03*
X142064130Y-126014880D03*
D12*
X126060000Y-129375000D03*
X125090000Y-129375000D03*
D13*
X137140000Y-128375000D03*
X138110000Y-128375000D03*
D14*
X116375000Y-121075000D03*
X117175000Y-121075000D03*
X117975000Y-121075000D03*
X121175000Y-121075000D03*
X121975000Y-121075000D03*
X122775000Y-121075000D03*
X116375000Y-121875000D03*
X117175000Y-121875000D03*
X117975000Y-121875000D03*
X121175000Y-121875000D03*
X121975000Y-121875000D03*
X122775000Y-121875000D03*
X116375000Y-122675000D03*
X117175000Y-122675000D03*
X117975000Y-122675000D03*
X121175000Y-122675000D03*
X121975000Y-122675000D03*
X122775000Y-122675000D03*
X116375000Y-123475000D03*
X117175000Y-123475000D03*
X117975000Y-123475000D03*
X121175000Y-123475000D03*
X121975000Y-123475000D03*
X122775000Y-123475000D03*
X116375000Y-124275000D03*
X117175000Y-124275000D03*
X117975000Y-124275000D03*
X121175000Y-124275000D03*
X121975000Y-124275000D03*
X122775000Y-124275000D03*
X116375000Y-125075000D03*
X117175000Y-125075000D03*
X117975000Y-125075000D03*
X121175000Y-125075000D03*
X121975000Y-125075000D03*
X122775000Y-125075000D03*
X116375000Y-125875000D03*
X117175000Y-125875000D03*
X117975000Y-125875000D03*
X121175000Y-125875000D03*
X121975000Y-125875000D03*
X122775000Y-125875000D03*
X116375000Y-126675000D03*
X117175000Y-126675000D03*
X117975000Y-126675000D03*
X121175000Y-126675000D03*
X121975000Y-126675000D03*
X122775000Y-126675000D03*
X116375000Y-127475000D03*
X117175000Y-127475000D03*
X117975000Y-127475000D03*
X121175000Y-127475000D03*
X121975000Y-127475000D03*
X122775000Y-127475000D03*
X116375000Y-128275000D03*
X117175000Y-128275000D03*
X117975000Y-128275000D03*
X121175000Y-128275000D03*
X121975000Y-128275000D03*
X122775000Y-128275000D03*
X116375000Y-129075000D03*
X117175000Y-129075000D03*
X117975000Y-129075000D03*
X121175000Y-129075000D03*
X121975000Y-129075000D03*
X122775000Y-129075000D03*
X116375000Y-129875000D03*
X117175000Y-129875000D03*
X117975000Y-129875000D03*
X121175000Y-129875000D03*
X121975000Y-129875000D03*
X122775000Y-129875000D03*
X116375000Y-130675000D03*
X117175000Y-130675000D03*
X117975000Y-130675000D03*
X121175000Y-130675000D03*
X121975000Y-130675000D03*
X122775000Y-130675000D03*
X116375000Y-131475000D03*
X117175000Y-131475000D03*
X117975000Y-131475000D03*
X121175000Y-131475000D03*
X121975000Y-131475000D03*
X122775000Y-131475000D03*
X116375000Y-132275000D03*
X117175000Y-132275000D03*
X117975000Y-132275000D03*
X121175000Y-132275000D03*
X121975000Y-132275000D03*
X122775000Y-132275000D03*
X116375000Y-133075000D03*
X117175000Y-133075000D03*
X117975000Y-133075000D03*
X121175000Y-133075000D03*
X121975000Y-133075000D03*
X122775000Y-133075000D03*
X128375000Y-121075000D03*
X129175000Y-121075000D03*
X129975000Y-121075000D03*
X133175000Y-121075000D03*
X133975000Y-121075000D03*
X134775000Y-121075000D03*
X128375000Y-121875000D03*
X129175000Y-121875000D03*
X129975000Y-121875000D03*
X133175000Y-121875000D03*
X133975000Y-121875000D03*
X134775000Y-121875000D03*
X128375000Y-122675000D03*
X129175000Y-122675000D03*
X129975000Y-122675000D03*
X133175000Y-122675000D03*
X133975000Y-122675000D03*
X134775000Y-122675000D03*
X128375000Y-123475000D03*
X129175000Y-123475000D03*
X129975000Y-123475000D03*
X133175000Y-123475000D03*
X133975000Y-123475000D03*
X134775000Y-123475000D03*
X128375000Y-124275000D03*
X129175000Y-124275000D03*
X129975000Y-124275000D03*
X133175000Y-124275000D03*
X133975000Y-124275000D03*
X134775000Y-124275000D03*
X128375000Y-125075000D03*
X129175000Y-125075000D03*
X129975000Y-125075000D03*
X133175000Y-125075000D03*
X133975000Y-125075000D03*
X134775000Y-125075000D03*
X128375000Y-125875000D03*
X129175000Y-125875000D03*
X129975000Y-125875000D03*
X133175000Y-125875000D03*
X133975000Y-125875000D03*
X134775000Y-125875000D03*
X128375000Y-126675000D03*
X129175000Y-126675000D03*
X129975000Y-126675000D03*
X133175000Y-126675000D03*
X133975000Y-126675000D03*
X134775000Y-126675000D03*
X128375000Y-127475000D03*
X129175000Y-127475000D03*
X129975000Y-127475000D03*
X133175000Y-127475000D03*
X133975000Y-127475000D03*
X134775000Y-127475000D03*
X128375000Y-128275000D03*
X129175000Y-128275000D03*
X129975000Y-128275000D03*
X133175000Y-128275000D03*
X133975000Y-128275000D03*
X134775000Y-128275000D03*
X128375000Y-129075000D03*
X129175000Y-129075000D03*
X129975000Y-129075000D03*
X133175000Y-129075000D03*
X133975000Y-129075000D03*
X134775000Y-129075000D03*
X128375000Y-129875000D03*
X129175000Y-129875000D03*
X129975000Y-129875000D03*
X133175000Y-129875000D03*
X133975000Y-129875000D03*
X134775000Y-129875000D03*
X128375000Y-130675000D03*
X129175000Y-130675000D03*
X129975000Y-130675000D03*
X133175000Y-130675000D03*
X133975000Y-130675000D03*
X134775000Y-130675000D03*
X128375000Y-131475000D03*
X129175000Y-131475000D03*
X129975000Y-131475000D03*
X133175000Y-131475000D03*
X133975000Y-131475000D03*
X134775000Y-131475000D03*
X128375000Y-132275000D03*
X129175000Y-132275000D03*
X129975000Y-132275000D03*
X133175000Y-132275000D03*
X133975000Y-132275000D03*
X134775000Y-132275000D03*
X128375000Y-133075000D03*
X129175000Y-133075000D03*
X129975000Y-133075000D03*
X133175000Y-133075000D03*
X133975000Y-133075000D03*
X134775000Y-133075000D03*
D15*
X132110000Y-154035000D03*
X132110000Y-155255000D03*
X132110000Y-156475000D03*
X133330000Y-154035000D03*
X133330000Y-155255000D03*
X133330000Y-156475000D03*
X134550000Y-154035000D03*
X134550000Y-155255000D03*
X134550000Y-156475000D03*
D16*
X130855000Y-153505000D03*
X130855000Y-154005000D03*
X130855000Y-154505000D03*
X130855000Y-155005000D03*
X130855000Y-155505000D03*
X130855000Y-156005000D03*
X130855000Y-156505000D03*
X130855000Y-157005000D03*
D17*
X131580000Y-157730000D03*
X132080000Y-157730000D03*
X132580000Y-157730000D03*
X133080000Y-157730000D03*
X133580000Y-157730000D03*
X134080000Y-157730000D03*
X134580000Y-157730000D03*
X135080000Y-157730000D03*
D16*
X135805000Y-157005000D03*
X135805000Y-156505000D03*
X135805000Y-156005000D03*
X135805000Y-155505000D03*
X135805000Y-155005000D03*
X135805000Y-154505000D03*
X135805000Y-154005000D03*
X135805000Y-153505000D03*
D17*
X135080000Y-152780000D03*
X134580000Y-152780000D03*
X134080000Y-152780000D03*
X133580000Y-152780000D03*
X133080000Y-152780000D03*
X132580000Y-152780000D03*
X132080000Y-152780000D03*
X131580000Y-152780000D03*
D13*
X137190000Y-104375000D03*
X138160000Y-104375000D03*
D18*
X147340000Y-104740000D03*
X147340000Y-105240000D03*
X147340000Y-105740000D03*
X147340000Y-106240000D03*
X147340000Y-106740000D03*
X147340000Y-107240000D03*
X147340000Y-107740000D03*
X147340000Y-108240000D03*
X147340000Y-108740000D03*
X147340000Y-109240000D03*
X147340000Y-109740000D03*
X147340000Y-110240000D03*
X147340000Y-110740000D03*
X147340000Y-111240000D03*
X147340000Y-111740000D03*
X147340000Y-112240000D03*
X147340000Y-112740000D03*
X147340000Y-113240000D03*
X147340000Y-113740000D03*
D19*
X130025000Y-159537500D03*
X130025000Y-150137500D03*
X122625000Y-157537500D03*
D20*
X125575000Y-146237500D03*
D21*
X117175000Y-109975000D03*
X117175000Y-109175000D03*
X117175000Y-108375000D03*
X117175000Y-107575000D03*
X117175000Y-106775000D03*
X117175000Y-105975000D03*
X117175000Y-105175000D03*
X117175000Y-104375000D03*
X117175000Y-103575000D03*
X117175000Y-102775000D03*
X117175000Y-101975000D03*
X117175000Y-101175000D03*
X117175000Y-100375000D03*
X117175000Y-99575000D03*
X117175000Y-98775000D03*
X117175000Y-97975000D03*
X117175000Y-97175000D03*
X117175000Y-96375000D03*
X117175000Y-95575000D03*
X117175000Y-94775000D03*
X117175000Y-93975000D03*
X117175000Y-93175000D03*
X133175000Y-109975000D03*
X133175000Y-109175000D03*
X133175000Y-108375000D03*
X133175000Y-107575000D03*
X133175000Y-106775000D03*
X133175000Y-105975000D03*
X133175000Y-105175000D03*
X133175000Y-104375000D03*
X133175000Y-103575000D03*
X133175000Y-102775000D03*
X133175000Y-101975000D03*
X133175000Y-101175000D03*
X133175000Y-100375000D03*
X133175000Y-99575000D03*
X133175000Y-98775000D03*
X133175000Y-97975000D03*
X133175000Y-97175000D03*
X133175000Y-96375000D03*
X133175000Y-95575000D03*
X133175000Y-94775000D03*
X133175000Y-93975000D03*
X133175000Y-93175000D03*
X133975000Y-109975000D03*
X133975000Y-109175000D03*
X133975000Y-108375000D03*
X133975000Y-107575000D03*
X133975000Y-106775000D03*
X133975000Y-105975000D03*
X133975000Y-105175000D03*
X133975000Y-104375000D03*
X133975000Y-103575000D03*
X133975000Y-102775000D03*
X133975000Y-101975000D03*
X133975000Y-101175000D03*
X133975000Y-100375000D03*
X133975000Y-99575000D03*
X133975000Y-98775000D03*
X133975000Y-97975000D03*
X133975000Y-97175000D03*
X133975000Y-96375000D03*
X133975000Y-95575000D03*
X133975000Y-94775000D03*
X133975000Y-93975000D03*
X133975000Y-93175000D03*
X117975000Y-109975000D03*
X117975000Y-109175000D03*
X117975000Y-108375000D03*
X117975000Y-107575000D03*
X117975000Y-106775000D03*
X117975000Y-105975000D03*
X117975000Y-105175000D03*
X117975000Y-104375000D03*
X117975000Y-103575000D03*
X117975000Y-102775000D03*
X117975000Y-101975000D03*
X117975000Y-101175000D03*
X117975000Y-100375000D03*
X117975000Y-99575000D03*
X117975000Y-98775000D03*
X117975000Y-97975000D03*
X117975000Y-97175000D03*
X117975000Y-96375000D03*
X117975000Y-95575000D03*
X117975000Y-94775000D03*
X117975000Y-93975000D03*
X117975000Y-93175000D03*
X118775000Y-109975000D03*
X118775000Y-109175000D03*
X118775000Y-108375000D03*
X118775000Y-107575000D03*
X118775000Y-106775000D03*
X118775000Y-105975000D03*
X118775000Y-105175000D03*
X118775000Y-104375000D03*
X118775000Y-103575000D03*
X118775000Y-102775000D03*
X118775000Y-101975000D03*
X118775000Y-101175000D03*
X118775000Y-100375000D03*
X118775000Y-99575000D03*
X118775000Y-98775000D03*
X118775000Y-97975000D03*
X118775000Y-97175000D03*
X118775000Y-96375000D03*
X118775000Y-95575000D03*
X118775000Y-94775000D03*
X118775000Y-93975000D03*
X118775000Y-93175000D03*
X119575000Y-109975000D03*
X119575000Y-109175000D03*
X119575000Y-108375000D03*
X119575000Y-107575000D03*
X119575000Y-106775000D03*
X119575000Y-105975000D03*
X119575000Y-105175000D03*
X119575000Y-104375000D03*
X119575000Y-103575000D03*
X119575000Y-102775000D03*
X119575000Y-101975000D03*
X119575000Y-101175000D03*
X119575000Y-100375000D03*
X119575000Y-99575000D03*
X119575000Y-98775000D03*
X119575000Y-97975000D03*
X119575000Y-97175000D03*
X119575000Y-96375000D03*
X119575000Y-95575000D03*
X119575000Y-94775000D03*
X119575000Y-93975000D03*
X119575000Y-93175000D03*
X120375000Y-109975000D03*
X120375000Y-109175000D03*
X120375000Y-108375000D03*
X120375000Y-107575000D03*
X120375000Y-106775000D03*
X120375000Y-105975000D03*
X120375000Y-105175000D03*
X120375000Y-104375000D03*
X120375000Y-103575000D03*
X120375000Y-102775000D03*
X120375000Y-101975000D03*
X120375000Y-101175000D03*
X120375000Y-100375000D03*
X120375000Y-99575000D03*
X120375000Y-98775000D03*
X120375000Y-97975000D03*
X120375000Y-97175000D03*
X120375000Y-96375000D03*
X120375000Y-95575000D03*
X120375000Y-94775000D03*
X120375000Y-93975000D03*
X120375000Y-93175000D03*
X121175000Y-109975000D03*
X121175000Y-109175000D03*
X121175000Y-108375000D03*
X121175000Y-107575000D03*
X121175000Y-106775000D03*
X121175000Y-105975000D03*
X121175000Y-105175000D03*
X121175000Y-104375000D03*
X121175000Y-103575000D03*
X121175000Y-102775000D03*
X121175000Y-101975000D03*
X121175000Y-101175000D03*
X121175000Y-100375000D03*
X121175000Y-99575000D03*
X121175000Y-98775000D03*
X121175000Y-97975000D03*
X121175000Y-97175000D03*
X121175000Y-96375000D03*
X121175000Y-95575000D03*
X121175000Y-94775000D03*
X121175000Y-93975000D03*
X121175000Y-93175000D03*
X121975000Y-109975000D03*
X121975000Y-109175000D03*
X121975000Y-108375000D03*
X121975000Y-107575000D03*
X121975000Y-106775000D03*
X121975000Y-105975000D03*
X121975000Y-105175000D03*
X121975000Y-104375000D03*
X121975000Y-103575000D03*
X121975000Y-102775000D03*
X121975000Y-101975000D03*
X121975000Y-101175000D03*
X121975000Y-100375000D03*
X121975000Y-99575000D03*
X121975000Y-98775000D03*
X121975000Y-97975000D03*
X121975000Y-97175000D03*
X121975000Y-96375000D03*
X121975000Y-95575000D03*
X121975000Y-94775000D03*
X121975000Y-93975000D03*
X121975000Y-93175000D03*
X122775000Y-109975000D03*
X122775000Y-109175000D03*
X122775000Y-108375000D03*
X122775000Y-107575000D03*
X122775000Y-106775000D03*
X122775000Y-105975000D03*
X122775000Y-105175000D03*
X122775000Y-104375000D03*
X122775000Y-103575000D03*
X122775000Y-102775000D03*
X122775000Y-101975000D03*
X122775000Y-101175000D03*
X122775000Y-100375000D03*
X122775000Y-99575000D03*
X122775000Y-98775000D03*
X122775000Y-97975000D03*
X122775000Y-97175000D03*
X122775000Y-96375000D03*
X122775000Y-95575000D03*
X122775000Y-94775000D03*
X122775000Y-93975000D03*
X122775000Y-93175000D03*
X123575000Y-109975000D03*
X123575000Y-109175000D03*
X123575000Y-108375000D03*
X123575000Y-107575000D03*
X123575000Y-106775000D03*
X123575000Y-105975000D03*
X123575000Y-105175000D03*
X123575000Y-104375000D03*
X123575000Y-103575000D03*
X123575000Y-102775000D03*
X123575000Y-101975000D03*
X123575000Y-101175000D03*
X123575000Y-100375000D03*
X123575000Y-99575000D03*
X123575000Y-98775000D03*
X123575000Y-97975000D03*
X123575000Y-97175000D03*
X123575000Y-96375000D03*
X123575000Y-95575000D03*
X123575000Y-94775000D03*
X123575000Y-93975000D03*
X123575000Y-93175000D03*
X124375000Y-109975000D03*
X124375000Y-109175000D03*
X124375000Y-108375000D03*
X124375000Y-107575000D03*
X124375000Y-106775000D03*
X124375000Y-105975000D03*
X124375000Y-105175000D03*
X124375000Y-104375000D03*
X124375000Y-103575000D03*
X124375000Y-102775000D03*
X124375000Y-101975000D03*
X124375000Y-101175000D03*
X124375000Y-100375000D03*
X124375000Y-99575000D03*
X124375000Y-98775000D03*
X124375000Y-97975000D03*
X124375000Y-97175000D03*
X124375000Y-96375000D03*
X124375000Y-95575000D03*
X124375000Y-94775000D03*
X124375000Y-93975000D03*
X124375000Y-93175000D03*
X125175000Y-109975000D03*
X125175000Y-109175000D03*
X125175000Y-108375000D03*
X125175000Y-107575000D03*
X125175000Y-106775000D03*
X125175000Y-105975000D03*
X125175000Y-105175000D03*
X125175000Y-104375000D03*
X125175000Y-103575000D03*
X125175000Y-102775000D03*
X125175000Y-101975000D03*
X125175000Y-101175000D03*
X125175000Y-100375000D03*
X125175000Y-99575000D03*
X125175000Y-98775000D03*
X125175000Y-97975000D03*
X125175000Y-97175000D03*
X125175000Y-96375000D03*
X125175000Y-95575000D03*
X125175000Y-94775000D03*
X125175000Y-93975000D03*
X125175000Y-93175000D03*
X125975000Y-109975000D03*
X125975000Y-109175000D03*
X125975000Y-108375000D03*
X125975000Y-107575000D03*
X125975000Y-106775000D03*
X125975000Y-105975000D03*
X125975000Y-105175000D03*
X125975000Y-104375000D03*
X125975000Y-103575000D03*
X125975000Y-102775000D03*
X125975000Y-101975000D03*
X125975000Y-101175000D03*
X125975000Y-100375000D03*
X125975000Y-99575000D03*
X125975000Y-98775000D03*
X125975000Y-97975000D03*
X125975000Y-97175000D03*
X125975000Y-96375000D03*
X125975000Y-95575000D03*
X125975000Y-94775000D03*
X125975000Y-93975000D03*
X125975000Y-93175000D03*
X126775000Y-109975000D03*
X126775000Y-109175000D03*
X126775000Y-108375000D03*
X126775000Y-107575000D03*
X126775000Y-106775000D03*
X126775000Y-105975000D03*
X126775000Y-105175000D03*
X126775000Y-104375000D03*
X126775000Y-103575000D03*
X126775000Y-102775000D03*
X126775000Y-101975000D03*
X126775000Y-101175000D03*
X126775000Y-100375000D03*
X126775000Y-99575000D03*
X126775000Y-98775000D03*
X126775000Y-97975000D03*
X126775000Y-97175000D03*
X126775000Y-96375000D03*
X126775000Y-95575000D03*
X126775000Y-94775000D03*
X126775000Y-93975000D03*
X126775000Y-93175000D03*
X127575000Y-109975000D03*
X127575000Y-109175000D03*
X127575000Y-108375000D03*
X127575000Y-107575000D03*
X127575000Y-106775000D03*
X127575000Y-105975000D03*
X127575000Y-105175000D03*
X127575000Y-104375000D03*
X127575000Y-103575000D03*
X127575000Y-102775000D03*
X127575000Y-101975000D03*
X127575000Y-101175000D03*
X127575000Y-100375000D03*
X127575000Y-99575000D03*
X127575000Y-98775000D03*
X127575000Y-97975000D03*
X127575000Y-97175000D03*
X127575000Y-96375000D03*
X127575000Y-95575000D03*
X127575000Y-94775000D03*
X127575000Y-93975000D03*
X127575000Y-93175000D03*
X128375000Y-109975000D03*
X128375000Y-109175000D03*
X128375000Y-108375000D03*
X128375000Y-107575000D03*
X128375000Y-106775000D03*
X128375000Y-105975000D03*
X128375000Y-105175000D03*
X128375000Y-104375000D03*
X128375000Y-103575000D03*
X128375000Y-102775000D03*
X128375000Y-101975000D03*
X128375000Y-101175000D03*
X128375000Y-100375000D03*
X128375000Y-99575000D03*
X128375000Y-98775000D03*
X128375000Y-97975000D03*
X128375000Y-97175000D03*
X128375000Y-96375000D03*
X128375000Y-95575000D03*
X128375000Y-94775000D03*
X128375000Y-93975000D03*
X128375000Y-93175000D03*
X129175000Y-109975000D03*
X129175000Y-109175000D03*
X129175000Y-108375000D03*
X129175000Y-107575000D03*
X129175000Y-106775000D03*
X129175000Y-105975000D03*
X129175000Y-105175000D03*
X129175000Y-104375000D03*
X129175000Y-103575000D03*
X129175000Y-102775000D03*
X129175000Y-101975000D03*
X129175000Y-101175000D03*
X129175000Y-100375000D03*
X129175000Y-99575000D03*
X129175000Y-98775000D03*
X129175000Y-97975000D03*
X129175000Y-97175000D03*
X129175000Y-96375000D03*
X129175000Y-95575000D03*
X129175000Y-94775000D03*
X129175000Y-93975000D03*
X129175000Y-93175000D03*
X129975000Y-109975000D03*
X129975000Y-109175000D03*
X129975000Y-108375000D03*
X129975000Y-107575000D03*
X129975000Y-106775000D03*
X129975000Y-105975000D03*
X129975000Y-105175000D03*
X129975000Y-104375000D03*
X129975000Y-103575000D03*
X129975000Y-102775000D03*
X129975000Y-101975000D03*
X129975000Y-101175000D03*
X129975000Y-100375000D03*
X129975000Y-99575000D03*
X129975000Y-98775000D03*
X129975000Y-97975000D03*
X129975000Y-97175000D03*
X129975000Y-96375000D03*
X129975000Y-95575000D03*
X129975000Y-94775000D03*
X129975000Y-93975000D03*
X129975000Y-93175000D03*
X130775000Y-109975000D03*
X130775000Y-109175000D03*
X130775000Y-108375000D03*
X130775000Y-107575000D03*
X130775000Y-106775000D03*
X130775000Y-105975000D03*
X130775000Y-105175000D03*
X130775000Y-104375000D03*
X130775000Y-103575000D03*
X130775000Y-102775000D03*
X130775000Y-101975000D03*
X130775000Y-101175000D03*
X130775000Y-100375000D03*
X130775000Y-99575000D03*
X130775000Y-98775000D03*
X130775000Y-97975000D03*
X130775000Y-97175000D03*
X130775000Y-96375000D03*
X130775000Y-95575000D03*
X130775000Y-94775000D03*
X130775000Y-93975000D03*
X130775000Y-93175000D03*
X131575000Y-109975000D03*
X131575000Y-109175000D03*
X131575000Y-108375000D03*
X131575000Y-107575000D03*
X131575000Y-106775000D03*
X131575000Y-105975000D03*
X131575000Y-105175000D03*
X131575000Y-104375000D03*
X131575000Y-103575000D03*
X131575000Y-102775000D03*
X131575000Y-101975000D03*
X131575000Y-101175000D03*
X131575000Y-100375000D03*
X131575000Y-99575000D03*
X131575000Y-98775000D03*
X131575000Y-97975000D03*
X131575000Y-97175000D03*
X131575000Y-96375000D03*
X131575000Y-95575000D03*
X131575000Y-94775000D03*
X131575000Y-93975000D03*
X131575000Y-93175000D03*
X132375000Y-109975000D03*
X132375000Y-109175000D03*
X132375000Y-108375000D03*
X132375000Y-107575000D03*
X132375000Y-106775000D03*
X132375000Y-105975000D03*
X132375000Y-105175000D03*
X132375000Y-104375000D03*
X132375000Y-103575000D03*
X132375000Y-102775000D03*
X132375000Y-101975000D03*
X132375000Y-101175000D03*
X132375000Y-100375000D03*
X132375000Y-99575000D03*
X132375000Y-98775000D03*
X132375000Y-97975000D03*
X132375000Y-97175000D03*
X132375000Y-96375000D03*
X132375000Y-95575000D03*
X132375000Y-94775000D03*
X132375000Y-93975000D03*
X132375000Y-93175000D03*
D22*
X143090000Y-114695000D03*
X143090000Y-114045000D03*
X143090000Y-113395000D03*
X143090000Y-112745000D03*
X139690000Y-112745000D03*
X139690000Y-113395000D03*
X139690000Y-114045000D03*
X139690000Y-114695000D03*
D23*
X125720000Y-134425000D03*
X125720000Y-135395000D03*
D24*
X134945000Y-159737500D03*
X132755000Y-159737500D03*
X132755000Y-161087500D03*
X134945000Y-161087500D03*
D25*
X135405000Y-78362500D03*
X135405000Y-79202500D03*
D26*
X110960000Y-71350000D03*
X110960000Y-69450000D03*
D27*
X134445000Y-65800000D03*
X134445000Y-66820000D03*
D26*
X113040000Y-71380000D03*
X113040000Y-69480000D03*
X113100000Y-77010000D03*
X113100000Y-75110000D03*
D28*
X114050000Y-94762500D03*
X114050000Y-92937500D03*
D29*
X136320000Y-68222500D03*
X134420000Y-68222500D03*
X135370000Y-70497500D03*
D30*
X102525000Y-87837500D03*
X102525000Y-92762500D03*
D31*
X107170000Y-91627500D03*
X108010000Y-91627500D03*
X107170000Y-90787500D03*
X108010000Y-90787500D03*
D32*
X106840000Y-92670000D03*
X107340000Y-92670000D03*
X107840000Y-92670000D03*
X108340000Y-92670000D03*
D33*
X109052500Y-91957500D03*
X109052500Y-91457500D03*
X109052500Y-90957500D03*
X109052500Y-90457500D03*
D32*
X108340000Y-89745000D03*
X107840000Y-89745000D03*
X107340000Y-89745000D03*
X106840000Y-89745000D03*
D33*
X106127500Y-90457500D03*
X106127500Y-90957500D03*
X106127500Y-91457500D03*
X106127500Y-91957500D03*
D34*
X102050000Y-103750000D03*
X106975000Y-103750000D03*
D35*
X138250000Y-82030000D03*
X138250000Y-83930000D03*
D36*
X139050000Y-155637000D03*
X139050000Y-153097000D03*
X139050000Y-150557000D03*
X139050000Y-148017000D03*
X139050000Y-145477000D03*
D37*
X139050000Y-159447000D03*
X139050000Y-159447000D03*
X153020000Y-159447000D03*
X153020000Y-159447000D03*
X139050000Y-141667000D03*
X139050000Y-141667000D03*
X153020000Y-141667000D03*
D38*
X135380000Y-77245000D03*
X135380000Y-76225000D03*
D11*
X141938600Y-92621100D03*
X141938600Y-90121740D03*
X141938600Y-88120220D03*
X141938600Y-85620860D03*
D39*
X106875000Y-80375000D03*
X106375000Y-80375000D03*
X105875000Y-80375000D03*
X105375000Y-80375000D03*
X104875000Y-80375000D03*
X104375000Y-80375000D03*
D40*
X108775000Y-77125000D03*
X102475000Y-77125000D03*
D28*
X111775000Y-91462500D03*
X111775000Y-89637500D03*
D41*
X135845000Y-90575000D03*
X135345000Y-90575000D03*
X134845000Y-90575000D03*
X134345000Y-90575000D03*
X133845000Y-90575000D03*
X133345000Y-90575000D03*
X132845000Y-90575000D03*
X132345000Y-90575000D03*
X131845000Y-90575000D03*
X131345000Y-90575000D03*
X130845000Y-90575000D03*
X130345000Y-90575000D03*
X129845000Y-90575000D03*
X129345000Y-90575000D03*
X128845000Y-90575000D03*
X128345000Y-90575000D03*
X127845000Y-90575000D03*
X127345000Y-90575000D03*
X126845000Y-90575000D03*
X126345000Y-90575000D03*
X125845000Y-90575000D03*
X125345000Y-90575000D03*
X124845000Y-90575000D03*
X124345000Y-90575000D03*
X123845000Y-90575000D03*
X123345000Y-90575000D03*
X122845000Y-90575000D03*
X122345000Y-90575000D03*
X121845000Y-90575000D03*
X121345000Y-90575000D03*
X120845000Y-90575000D03*
X120345000Y-90575000D03*
X119845000Y-90575000D03*
X119345000Y-90575000D03*
X118845000Y-90575000D03*
X118345000Y-90575000D03*
X117845000Y-90575000D03*
X117345000Y-90575000D03*
X116845000Y-90575000D03*
X116345000Y-90575000D03*
D42*
X137515000Y-88875000D03*
X114675000Y-88875000D03*
D38*
X135470000Y-66830000D03*
X135470000Y-65810000D03*
D26*
X111800000Y-87950000D03*
X111800000Y-86050000D03*
D43*
X135445000Y-64710000D03*
X135445000Y-63870000D03*
D44*
X140420000Y-74647000D03*
D45*
X140420000Y-78508000D03*
D44*
X142960000Y-74647000D03*
D45*
X142960000Y-78508000D03*
D44*
X145500000Y-74647000D03*
D45*
X145500000Y-78508000D03*
D44*
X148040000Y-74647000D03*
D45*
X148040000Y-78508000D03*
D44*
X150580000Y-74647000D03*
D45*
X150580000Y-78508000D03*
D44*
X153120000Y-74647000D03*
D45*
X153120000Y-78508000D03*
D46*
X104250000Y-84175000D03*
X101350000Y-84175000D03*
D47*
X102800000Y-82675000D03*
D48*
X134630000Y-74912500D03*
X136530000Y-74912500D03*
X135580000Y-72637500D03*
D49*
X138100000Y-116875000D03*
X138100000Y-119175000D03*
D50*
X144400000Y-119175000D03*
D49*
X138100000Y-121475000D03*
D51*
X103655000Y-142345000D03*
X103655000Y-144885000D03*
X103655000Y-147425000D03*
X103655000Y-149965000D03*
X103655000Y-155045000D03*
X103655000Y-152505000D03*
X118895000Y-160125000D03*
X103655000Y-160125000D03*
X118895000Y-157585000D03*
X118895000Y-155045000D03*
X118895000Y-152505000D03*
X118895000Y-149965000D03*
X118895000Y-147425000D03*
X118895000Y-144885000D03*
X118895000Y-142345000D03*
X103655000Y-157585000D03*
D52*
X109850000Y-86650000D03*
X105750000Y-86650000D03*
D44*
X117780000Y-74950000D03*
D45*
X117780000Y-78811000D03*
D44*
X120320000Y-74950000D03*
D45*
X120320000Y-78811000D03*
D44*
X122860000Y-74950000D03*
D45*
X122860000Y-78811000D03*
D44*
X125400000Y-74950000D03*
D45*
X125400000Y-78811000D03*
D44*
X127940000Y-74950000D03*
D45*
X127940000Y-78811000D03*
D44*
X130480000Y-74950000D03*
D45*
X130480000Y-78811000D03*
D53*
X106325000Y-83275000D03*
X109625000Y-83275000D03*
D38*
X136380000Y-77245000D03*
X136380000Y-76225000D03*
M02*
