M48
; DRILL file {KiCad 7.0.1} date Sun Jul 28 16:45:11 2024
; FORMAT={-:-/ absolute / inch / decimal}
; #@! TF.CreationDate,2024-07-28T16:45:11-07:00
; #@! TF.GenerationSoftware,Kicad,Pcbnew,7.0.1
; #@! TF.FileFunction,Plated,1,6,PTH
FMAT,2
INCH
; #@! TA.AperFunction,Plated,PTH,ViaDrill
T1C0.0039
; #@! TA.AperFunction,Plated,PTH,ComponentDrill
T2C0.0079
; #@! TA.AperFunction,Plated,PTH,ViaDrill
T3C0.0098
; #@! TA.AperFunction,Plated,PTH,ComponentDrill
T4C0.0400
; #@! TA.AperFunction,Plated,PTH,ComponentDrill
T5C0.0472
; #@! TA.AperFunction,Plated,PTH,ComponentDrill
T6C0.0512
; #@! TA.AperFunction,Plated,PTH,ComponentDrill
T7C0.0669
; #@! TA.AperFunction,Plated,PTH,ComponentDrill
T8C0.0940
%
G90
G05
T1
X4.6604Y-4.2805
X4.6888Y-3.901
X5.1638Y-4.0591
T2
X4.2126Y-3.5676
X4.2126Y-3.6141
X4.2591Y-3.5676
X4.2591Y-3.6141
T3
X3.9764Y-5.528
X3.98Y-3.9715
X3.9823Y-3.9354
X3.986Y-5.4467
X3.9909Y-4.1843
X3.9911Y-3.8484
X3.9959Y-3.3022
X3.9961Y-3.3927
X4.0069Y-3.7106
X4.0098Y-3.7973
X4.015Y-5.3195
X4.0165Y-4.8752
X4.0343Y-5.4833
X4.0364Y-3.6521
X4.0366Y-5.2215
X4.0474Y-5.2808
X4.0551Y-3.311
X4.0626Y-2.9429
X4.0713Y-2.6378
X4.0772Y-5.9008
X4.0809Y-6.3041
X4.0831Y-5.7043
X4.0839Y-5.8055
X4.0866Y-3.9911
X4.0866Y-6.0055
X4.0929Y-3.0
X4.1024Y-3.7608
X4.103Y-5.635
X4.1035Y-3.2252
X4.1043Y-3.4321
X4.1087Y-4.0598
X4.1205Y-2.6421
X4.1437Y-5.5512
X4.1453Y-5.037
X4.1555Y-3.8484
X4.1626Y-2.6378
X4.1644Y-3.6988
X4.1663Y-3.4665
X4.1698Y-5.2111
X4.1713Y-3.5266
X4.1734Y-4.221
X4.1742Y-3.4085
X4.1782Y-3.581
X4.1823Y-4.2728
X4.185Y-3.3307
X4.1894Y-3.2028
X4.1909Y-3.8122
X4.1909Y-5.1634
X4.1921Y-5.598
X4.1951Y-5.4071
X4.1951Y-5.4888
X4.2Y-3.9862
X4.2008Y-3.8632
X4.2055Y-2.6398
X4.2106Y-3.2213
X4.2106Y-4.1762
X4.2204Y-4.293
X4.2224Y-4.2382
X4.2254Y-3.5333
X4.2307Y-5.2748
X4.2313Y-3.4656
X4.2352Y-3.3996
X4.2433Y-4.602
X4.2472Y-2.6378
X4.2491Y-5.2297
X4.253Y-4.7598
X4.2648Y-3.6532
X4.2679Y-4.4602
X4.2746Y-5.5846
X4.2785Y-4.9173
X4.2798Y-4.3825
X4.2798Y-4.7063
X4.2819Y-5.1226
X4.2844Y-3.499
X4.2913Y-2.6394
X4.2945Y-3.3266
X4.2972Y-3.6201
X4.3134Y-2.7193
X4.3137Y-4.8868
X4.3137Y-5.3565
X4.3142Y-4.7929
X4.3169Y-4.1486
X4.3304Y-3.6959
X4.3327Y-2.6366
X4.3373Y-3.805
X4.3441Y-6.2189
X4.346Y-5.4422
X4.3522Y-3.287
X4.3551Y-6.1528
X4.3573Y-3.7352
X4.3668Y-3.9212
X4.3673Y-3.3994
X4.3685Y-2.8102
X4.3787Y-2.6378
X4.3933Y-4.2134
X4.3957Y-3.1914
X4.3993Y-4.4178
X4.4012Y-3.5236
X4.4032Y-4.5677
X4.4035Y-3.7825
X4.4053Y-3.2229
X4.4086Y-4.4493
X4.4088Y-4.0168
X4.4127Y-4.1069
X4.4128Y-2.6937
X4.4193Y-4.3435
X4.4211Y-3.8996
X4.4216Y-4.2069
X4.4272Y-6.2189
X4.4331Y-6.1407
X4.437Y-5.4213
X4.447Y-3.7895
X4.4476Y-2.8252
X4.4543Y-2.948
X4.4547Y-5.4636
X4.463Y-2.665
X4.4709Y-3.6598
X4.4715Y-3.9518
X4.4933Y-3.1252
X4.498Y-4.3258
X4.4987Y-5.5001
X4.5128Y-4.2992
X4.513Y-3.0622
X4.5193Y-2.6433
X4.5251Y-5.3036
X4.5331Y-2.9626
X4.535Y-5.9295
X4.539Y-5.7417
X4.5392Y-4.2835
X4.5407Y-4.2592
X4.5424Y-4.2203
X4.5551Y-3.7382
X4.5559Y-3.2028
X4.5561Y-4.144
X4.5571Y-5.3465
X4.5594Y-3.3098
X4.5659Y-4.751
X4.5659Y-4.7825
X4.5659Y-4.814
X4.5659Y-4.8455
X4.5659Y-4.877
X4.5659Y-4.94
X4.5659Y-4.9715
X4.5659Y-5.0344
X4.5659Y-5.0974
X4.5659Y-5.1604
X4.5665Y-3.9226
X4.5754Y-5.2455
X4.5795Y-4.1846
X4.5941Y-4.128
X4.5942Y-4.0885
X4.5957Y-2.8795
X4.5974Y-4.877
X4.5974Y-4.9085
X4.5974Y-4.94
X4.5974Y-4.9715
X4.5974Y-5.003
X4.5974Y-5.0659
X4.5974Y-5.0974
X4.5974Y-5.1289
X4.5974Y-5.1604
X4.5974Y-5.1919
X4.5974Y-5.2234
X4.5977Y-4.845
X4.6051Y-2.7969
X4.6058Y-3.8592
X4.6067Y-2.8378
X4.6083Y-2.7531
X4.6282Y-4.2194
X4.6283Y-4.3456
X4.6287Y-5.003
X4.6289Y-4.0291
X4.6289Y-4.188
X4.6289Y-4.314
X4.6289Y-4.751
X4.6289Y-4.94
X4.6289Y-5.0344
X4.6289Y-5.0974
X4.6289Y-5.1919
X4.6289Y-5.2234
X4.629Y-4.2826
X4.6291Y-4.7822
X4.6295Y-3.936
X4.6296Y-4.0929
X4.6353Y-4.1621
X4.6367Y-3.1033
X4.637Y-3.2291
X4.6386Y-3.7709
X4.639Y-2.9496
X4.6524Y-3.1665
X4.6594Y-4.188
X4.6604Y-4.0607
X4.6604Y-3.9675
X4.6604Y-4.314
X4.6604Y-4.751
X4.6604Y-4.7825
X4.6604Y-4.814
X4.6604Y-4.9085
X4.6604Y-4.94
X4.6604Y-5.0344
X4.6604Y-5.0659
X4.6604Y-5.0974
X4.6604Y-5.1289
X4.6604Y-5.1919
X4.6611Y-4.3456
X4.6615Y-4.2196
X4.6677Y-3.0276
X4.671Y-4.0117
X4.6807Y-5.9162
X4.6809Y-6.2041
X4.6815Y-6.0051
X4.6822Y-3.867
X4.6846Y-5.8287
X4.6914Y-4.1872
X4.6919Y-4.0609
X4.6919Y-4.2825
X4.6919Y-4.314
X4.6919Y-4.814
X4.6919Y-4.8455
X4.6921Y-4.3455
X4.6921Y-4.0291
X4.6926Y-4.2194
X4.6983Y-3.5507
X4.7039Y-3.5285
X4.7062Y-3.891
X4.7186Y-3.5831
X4.7227Y-4.1877
X4.7228Y-4.0626
X4.7233Y-4.2194
X4.7234Y-3.8147
X4.7234Y-4.1572
X4.7234Y-4.251
X4.7234Y-4.2825
X4.7234Y-4.3455
X4.7234Y-5.0817
X4.7237Y-4.0322
X4.7241Y-3.7785
X4.7259Y-3.9718
X4.727Y-5.752
X4.7288Y-3.6887
X4.7377Y-3.55
X4.7377Y-3.085
X4.7413Y-2.9331
X4.747Y-5.1289
X4.7471Y-4.8974
X4.7543Y-3.6846
X4.7544Y-4.2202
X4.7545Y-4.2512
X4.7548Y-4.1575
X4.7549Y-3.7156
X4.7549Y-4.2825
X4.7549Y-4.314
X4.7549Y-4.3455
X4.7549Y-4.9715
X4.7549Y-5.1604
X4.7549Y-5.2234
X4.7556Y-4.062
X4.7557Y-4.1857
X4.7668Y-2.5306
X4.7705Y-4.0154
X4.7719Y-5.7873
X4.7768Y-5.8372
X4.7776Y-3.5818
X4.7785Y-3.5207
X4.7857Y-4.1875
X4.7857Y-4.1564
X4.7859Y-4.0934
X4.7861Y-4.1243
X4.7862Y-4.0623
X4.7864Y-4.2825
X4.7864Y-4.314
X4.7864Y-4.3455
X4.7864Y-4.751
X4.7864Y-4.7825
X4.7864Y-4.814
X4.7864Y-4.8455
X4.7864Y-4.9085
X4.7864Y-5.003
X4.7864Y-5.0344
X4.7864Y-5.1604
X4.7864Y-5.2234
X4.7866Y-4.251
X4.7869Y-4.2195
X4.8068Y-5.4631
X4.8122Y-6.3315
X4.8173Y-3.9986
X4.8178Y-3.8422
X4.8179Y-4.062
X4.8179Y-4.0934
X4.8179Y-4.2195
X4.8179Y-4.251
X4.8179Y-4.2825
X4.8179Y-4.314
X4.8179Y-4.751
X4.8179Y-4.7825
X4.8179Y-4.814
X4.8179Y-4.8455
X4.8179Y-4.877
X4.8179Y-4.9085
X4.8179Y-4.94
X4.8179Y-4.9715
X4.8179Y-5.003
X4.8179Y-5.0659
X4.8179Y-5.1289
X4.8179Y-5.1604
X4.8179Y-5.1919
X4.8179Y-5.2234
X4.818Y-4.1255
X4.818Y-4.188
X4.818Y-4.0305
X4.8182Y-4.1572
X4.8186Y-3.9673
X4.8191Y-3.9045
X4.8191Y-3.9364
X4.8358Y-2.9512
X4.8382Y-3.102
X4.8482Y-4.001
X4.8483Y-3.9673
X4.8486Y-3.9055
X4.8491Y-5.1919
X4.8491Y-4.9401
X4.8493Y-4.0319
X4.8494Y-4.1572
X4.8494Y-4.188
X4.8494Y-4.2195
X4.8494Y-4.251
X4.8494Y-4.2825
X4.8494Y-4.314
X4.8494Y-4.3455
X4.8494Y-4.3809
X4.8494Y-4.751
X4.8494Y-4.7825
X4.8494Y-4.814
X4.8494Y-4.8462
X4.8494Y-4.9087
X4.8494Y-5.0344
X4.8494Y-5.1289
X4.8494Y-5.2234
X4.8494Y-4.1252
X4.8495Y-4.0628
X4.85Y-3.7148
X4.8502Y-3.9364
X4.8505Y-4.0934
X4.8534Y-3.7375
X4.8646Y-3.524
X4.8703Y-5.8265
X4.8713Y-5.679
X4.8715Y-6.0509
X4.8742Y-5.6504
X4.8749Y-3.7395
X4.8803Y-4.1253
X4.8808Y-3.8422
X4.8809Y-3.6868
X4.8809Y-3.7156
X4.8809Y-3.9674
X4.8809Y-4.0934
X4.8809Y-4.1572
X4.8809Y-4.188
X4.8809Y-4.2195
X4.8809Y-4.251
X4.8809Y-4.2825
X4.8809Y-4.314
X4.8809Y-4.3455
X4.8809Y-4.0627
X4.8811Y-3.9364
X4.8816Y-3.9985
X4.8826Y-3.9029
X4.8834Y-4.0292
X4.8888Y-5.1289
X4.8957Y-3.5815
X4.91Y-4.0945
X4.9117Y-3.905
X4.9117Y-3.9364
X4.9121Y-4.0626
X4.9122Y-4.1573
X4.9124Y-3.9984
X4.9124Y-4.0305
X4.9124Y-4.1254
X4.9124Y-4.188
X4.9124Y-4.2195
X4.9124Y-4.251
X4.9124Y-4.2825
X4.9124Y-4.314
X4.9124Y-4.3455
X4.9125Y-3.9674
X4.9146Y-3.8573
X4.9148Y-3.5512
X4.9175Y-5.4691
X4.926Y-6.0563
X4.9351Y-3.566
X4.9378Y-3.1024
X4.9402Y-2.9283
X4.9436Y-3.9683
X4.9439Y-4.0305
X4.9439Y-4.188
X4.9439Y-4.2195
X4.9444Y-4.0612
X4.9445Y-4.0929
X4.9445Y-3.7786
X4.9451Y-4.1259
X4.9469Y-3.3874
X4.948Y-3.5177
X4.9486Y-5.3196
X4.9717Y-5.4898
X4.9748Y-4.0612
X4.9748Y-6.0264
X4.9752Y-4.2507
X4.9754Y-3.7156
X4.9754Y-3.7785
X4.9754Y-4.188
X4.9754Y-4.2195
X4.9754Y-4.2825
X4.9754Y-4.314
X4.9754Y-4.3455
X4.9755Y-3.9367
X4.9755Y-3.9044
X4.9757Y-4.0925
X4.9759Y-3.9692
X4.9793Y-4.0169
X4.9973Y-6.031
X5.0035Y-5.2945
X5.0051Y-6.1157
X5.0061Y-3.842
X5.0065Y-3.874
X5.0068Y-3.9367
X5.0069Y-3.905
X5.0069Y-4.0305
X5.0069Y-4.062
X5.0069Y-4.188
X5.0069Y-4.2195
X5.0069Y-4.251
X5.0069Y-4.2825
X5.0069Y-4.314
X5.0069Y-4.3455
X5.0069Y-4.1575
X5.0071Y-4.0939
X5.0074Y-4.1255
X5.0075Y-3.9697
X5.012Y-5.4927
X5.0256Y-4.9114
X5.0335Y-6.1201
X5.0335Y-3.5795
X5.0344Y-4.9636
X5.0346Y-3.8568
X5.037Y-2.9535
X5.0374Y-3.0787
X5.0378Y-3.9367
X5.0379Y-4.0312
X5.0382Y-3.5102
X5.0384Y-3.9045
X5.0384Y-4.0935
X5.0384Y-4.2195
X5.0384Y-4.251
X5.0384Y-4.2825
X5.0384Y-4.314
X5.0384Y-4.3455
X5.0384Y-4.751
X5.0384Y-4.7825
X5.0384Y-4.814
X5.0384Y-4.877
X5.0384Y-5.0344
X5.0384Y-5.192
X5.0384Y-5.2549
X5.0384Y-5.1292
X5.0384Y-4.0624
X5.0385Y-5.0032
X5.0385Y-3.9682
X5.0385Y-4.188
X5.0387Y-4.8445
X5.0389Y-4.1269
X5.0413Y-4.1587
X5.0516Y-2.5461
X5.0527Y-3.5503
X5.0548Y-5.3188
X5.0572Y-5.6462
X5.0591Y-6.126
X5.0693Y-4.2195
X5.0694Y-4.0625
X5.0694Y-3.9052
X5.0696Y-5.0979
X5.0699Y-5.1607
X5.0699Y-4.125
X5.0699Y-4.0935
X5.0699Y-4.251
X5.0699Y-4.2825
X5.0699Y-4.314
X5.0699Y-4.3455
X5.0699Y-4.9419
X5.0699Y-5.1292
X5.0699Y-5.192
X5.0699Y-5.2234
X5.0699Y-5.2549
X5.0699Y-3.9686
X5.0699Y-5.0347
X5.0704Y-4.0307
X5.0707Y-4.9004
X5.0712Y-4.1881
X5.0729Y-3.583
X5.0758Y-6.1732
X5.0801Y-3.7318
X5.0902Y-6.1994
X5.0932Y-6.1385
X5.0933Y-3.5319
X5.0937Y-4.1283
X5.0992Y-3.6877
X5.1003Y-3.7785
X5.1004Y-3.9042
X5.1012Y-5.0347
X5.1014Y-4.0935
X5.1014Y-4.314
X5.1014Y-4.3455
X5.1014Y-4.751
X5.1014Y-4.7825
X5.1014Y-4.877
X5.1014Y-4.94
X5.1014Y-5.065
X5.1014Y-5.1289
X5.1014Y-5.1919
X5.1014Y-5.2234
X5.1014Y-5.2549
X5.1015Y-4.2824
X5.1016Y-4.2198
X5.1016Y-4.0303
X5.1017Y-4.8113
X5.1017Y-4.8452
X5.1019Y-4.0623
X5.1019Y-4.1558
X5.102Y-4.1883
X5.1023Y-3.9358
X5.1024Y-5.0977
X5.1037Y-3.9969
X5.1038Y-6.1696
X5.1122Y-3.5508
X5.1138Y-5.7917
X5.1163Y-6.2867
X5.1173Y-6.3567
X5.1179Y-3.919
X5.1182Y-3.7006
X5.1215Y-6.1567
X5.126Y-5.9213
X5.1291Y-2.5461
X5.1298Y-4.0004
X5.1309Y-4.22
X5.1312Y-3.7499
X5.1312Y-4.1534
X5.1312Y-3.7189
X5.1314Y-4.9712
X5.1324Y-3.7778
X5.1326Y-4.2521
X5.1327Y-3.8404
X5.1328Y-4.2828
X5.1329Y-4.314
X5.1329Y-4.3455
X5.1329Y-4.751
X5.1329Y-4.7825
X5.1329Y-4.8455
X5.1329Y-4.94
X5.1329Y-5.1289
X5.1329Y-4.1263
X5.1335Y-4.0622
X5.1342Y-3.9679
X5.1343Y-4.0935
X5.1365Y-2.9373
X5.1365Y-3.0984
X5.1407Y-4.814
X5.1486Y-4.3691
X5.15Y-4.0476
X5.1622Y-3.6882
X5.1634Y-3.717
X5.1634Y-3.747
X5.1643Y-3.8428
X5.1643Y-4.1263
X5.1643Y-4.2828
X5.1644Y-4.0949
X5.1644Y-4.314
X5.1644Y-4.3455
X5.165Y-4.2508
X5.165Y-4.1873
X5.165Y-4.1558
X5.1651Y-3.9995
X5.1663Y-5.7293
X5.1664Y-3.971
X5.1685Y-2.5465
X5.1686Y-3.9092
X5.1701Y-3.8863
X5.1768Y-3.7656
X5.1787Y-3.7951
X5.1843Y-3.7077
X5.1903Y-3.7298
X5.1904Y-3.5823
X5.1916Y-6.1535
X5.1921Y-5.9527
X5.1949Y-4.188
X5.195Y-4.2505
X5.1952Y-3.7792
X5.1952Y-4.1257
X5.1952Y-4.0306
X5.1952Y-3.8422
X5.1957Y-4.0606
X5.1959Y-4.2828
X5.1959Y-4.314
X5.1959Y-4.3455
X5.1972Y-3.81
X5.1972Y-4.0935
X5.1977Y-3.6508
X5.2087Y-2.5449
X5.2098Y-3.4417
X5.2106Y-3.5492
X5.2116Y-3.6326
X5.2134Y-3.9814
X5.2198Y-4.2438
X5.2213Y-6.1238
X5.2218Y-3.95
X5.2224Y-5.0783
X5.2232Y-3.7232
X5.224Y-4.1843
X5.2254Y-4.9085
X5.2256Y-3.9024
X5.2267Y-4.2826
X5.2271Y-4.9717
X5.2272Y-3.8097
X5.2274Y-4.314
X5.2274Y-4.7825
X5.2274Y-4.814
X5.2274Y-5.1289
X5.2274Y-5.1919
X5.2276Y-6.3421
X5.2276Y-5.1605
X5.2279Y-3.841
X5.228Y-3.7785
X5.2282Y-3.6836
X5.2289Y-3.7472
X5.2291Y-3.5929
X5.2293Y-6.2895
X5.232Y-4.1202
X5.2362Y-3.6617
X5.2364Y-5.7575
X5.2364Y-5.7073
X5.2388Y-5.6063
X5.2396Y-5.651
X5.2402Y-6.2411
X5.2421Y-5.5571
X5.2425Y-4.0792
X5.243Y-4.2454
X5.2433Y-4.1402
X5.2437Y-4.172
X5.2438Y-3.8882
X5.2443Y-3.9841
X5.2469Y-3.6362
X5.2488Y-2.5461
X5.2495Y-3.5823
X5.2515Y-3.9532
X5.2522Y-5.978
X5.2545Y-3.9084
X5.2551Y-6.0807
X5.2571Y-6.1587
X5.258Y-3.7475
X5.2582Y-4.0625
X5.2589Y-4.314
X5.2589Y-4.3449
X5.2589Y-4.751
X5.2589Y-4.7825
X5.2589Y-4.8455
X5.2589Y-4.9085
X5.2589Y-4.94
X5.2589Y-4.9715
X5.2589Y-5.003
X5.2589Y-5.0344
X5.2589Y-5.0974
X5.2589Y-5.2234
X5.2589Y-6.2136
X5.2595Y-4.2827
X5.2619Y-3.507
X5.2693Y-3.5472
X5.2709Y-3.8894
X5.2849Y-5.9755
X5.289Y-3.7504
X5.2904Y-4.7825
X5.2904Y-4.814
X5.2904Y-4.8455
X5.2904Y-4.877
X5.2904Y-4.9085
X5.2904Y-4.94
X5.2904Y-5.003
X5.2904Y-5.0344
X5.2904Y-5.0974
X5.2904Y-5.1289
X5.2904Y-5.1604
X5.2904Y-5.1919
X5.2904Y-5.2234
X5.2941Y-4.289
X5.2946Y-6.2316
X5.2953Y-2.5913
X5.2972Y-5.3866
X5.2991Y-4.1085
X5.3012Y-2.9425
X5.3015Y-3.7855
X5.3016Y-5.5173
X5.3021Y-6.043
X5.3029Y-3.9812
X5.3037Y-3.8232
X5.3051Y-6.1585
X5.3085Y-3.5669
X5.31Y-6.2904
X5.3101Y-4.0772
X5.311Y-6.3376
X5.3143Y-6.1292
X5.3154Y-2.5031
X5.3185Y-4.7501
X5.319Y-3.7163
X5.3191Y-3.685
X5.3216Y-4.8142
X5.3218Y-4.8473
X5.3219Y-4.7825
X5.3219Y-4.877
X5.3219Y-4.9085
X5.3219Y-4.94
X5.3219Y-5.1604
X5.3219Y-5.2234
X5.3225Y-4.1136
X5.3228Y-3.7433
X5.3238Y-5.6228
X5.3267Y-3.8588
X5.3322Y-6.0129
X5.3335Y-2.5759
X5.3365Y-3.6624
X5.3396Y-5.5645
X5.3579Y-5.4798
X5.3583Y-6.1624
X5.3585Y-5.4468
X5.3605Y-6.083
X5.3628Y-5.0319
X5.3634Y-4.1059
X5.3644Y-4.5518
X5.3646Y-4.9705
X5.3661Y-4.5955
X5.3663Y-4.5144
X5.3667Y-4.3958
X5.3669Y-4.4384
X5.367Y-6.1211
X5.3685Y-4.8661
X5.3696Y-5.1756
X5.3696Y-5.2189
X5.3701Y-5.5594
X5.3701Y-3.9755
X5.3707Y-3.0445
X5.3726Y-5.7588
X5.3764Y-3.7569
X5.3788Y-5.695
X5.3835Y-4.4142
X5.3862Y-3.9592
X5.3889Y-2.6347
X5.3937Y-3.9826
X5.4001Y-5.7312
X5.4037Y-4.5384
X5.4063Y-4.3025
X5.4067Y-4.4047
X5.4101Y-5.4446
X5.4101Y-5.4798
X5.4103Y-5.0965
X5.4107Y-5.1619
X5.4112Y-5.2832
X5.4114Y-5.3273
X5.4167Y-3.9287
X5.4167Y-5.0035
X5.4185Y-4.9421
X5.419Y-3.9515
X5.4228Y-3.9876
X5.4236Y-4.08
X5.4248Y-4.0472
X5.4262Y-3.6189
X5.4264Y-5.1886
X5.4308Y-5.132
X5.4309Y-3.3153
X5.4354Y-5.0541
X5.437Y-4.8354
X5.4396Y-4.0032
X5.4417Y-5.3198
X5.4461Y-4.7893
X5.4466Y-5.4025
X5.4496Y-4.4492
X5.4496Y-4.5484
X5.4548Y-3.8304
X5.456Y-4.0959
X5.456Y-5.6754
X5.4688Y-5.8763
X5.472Y-4.3797
X5.4744Y-6.1274
X5.4756Y-3.1665
X5.4764Y-3.122
X5.4779Y-3.4943
X5.4779Y-3.5231
X5.4819Y-5.4025
X5.4839Y-4.0638
X5.4842Y-5.8498
X5.4908Y-3.935
X5.5012Y-2.6878
X5.5019Y-5.4745
X5.5044Y-4.3988
X5.505Y-5.0846
X5.505Y-5.1134
X5.5053Y-5.8429
X5.5069Y-3.9075
X5.5263Y-4.0557
X5.5283Y-5.9152
X5.5294Y-3.7678
X5.5298Y-5.1736
X5.5339Y-2.9402
X5.5341Y-5.7969
X5.548Y-5.0957
X5.5484Y-6.3594
X5.5493Y-3.1091
X5.5591Y-4.0909
X5.5756Y-3.7693
X5.5831Y-3.9591
X5.5874Y-3.8429
X5.5876Y-5.8396
X5.5925Y-5.9066
X5.5987Y-4.0247
X5.604Y-3.415
X5.6098Y-6.1772
X5.6139Y-4.7042
X5.6139Y-2.9324
X5.6189Y-4.585
X5.6193Y-3.9075
X5.6202Y-3.098
X5.6219Y-5.2943
X5.6219Y-5.3262
X5.6219Y-5.4035
X5.6219Y-5.5828
X5.6245Y-3.6695
X5.6248Y-5.9965
X5.6258Y-5.7618
X5.6457Y-5.8721
X5.6469Y-4.2327
X5.6469Y-4.3611
X5.6469Y-4.4071
X5.6553Y-4.5429
X5.66Y-5.6726
X5.6808Y-3.9949
X5.6992Y-3.164
X5.7135Y-5.4402
X5.7138Y-4.5795
X5.7173Y-3.1128
X5.7263Y-4.9784
X5.7287Y-5.013
X5.7301Y-5.5386
X5.7303Y-4.3622
X5.7315Y-2.9398
X5.7472Y-4.1289
X5.7472Y-4.1577
X5.753Y-5.6481
X5.7567Y-5.9921
X5.7581Y-5.7516
X5.7582Y-4.5339
X5.7587Y-6.3524
X5.7606Y-6.1874
X5.7642Y-4.5035
X5.7787Y-3.1835
X5.7787Y-3.6624
X5.7791Y-3.3569
X5.7876Y-4.9762
X5.7992Y-4.2611
X5.8024Y-4.2027
X5.8039Y-4.1436
X5.8138Y-4.3208
X5.8138Y-4.4389
X5.8148Y-5.2098
X5.8185Y-5.0161
X5.8256Y-2.9362
X5.8619Y-3.0894
X5.873Y-4.4159
X5.878Y-4.389
X5.902Y-5.9902
X5.9043Y-3.4287
X5.9071Y-3.5894
X5.9126Y-6.1843
X5.9157Y-4.387
X5.9165Y-4.428
X5.9189Y-6.3654
X5.9217Y-3.3201
X5.9264Y-3.1641
X5.9283Y-3.0909
X5.9461Y-3.0
X5.9518Y-5.6407
X5.9931Y-5.6717
X6.0056Y-4.736
X6.0122Y-4.9949
X6.0264Y-3.1249
X6.0268Y-5.4142
X6.0283Y-2.9389
X6.0299Y-3.1701
X6.0571Y-3.4287
X6.0661Y-3.5941
X6.0728Y-3.0941
T4
X4.2736Y-5.7441
X4.2736Y-5.8441
X4.2736Y-5.9441
X4.2736Y-6.0441
X4.2736Y-6.1441
X4.2736Y-6.2441
T5
X4.0516Y-4.3577
X4.0516Y-4.4577
X4.0516Y-4.5577
X4.0516Y-4.6577
X4.0516Y-4.7577
X4.1516Y-4.3577
X4.1516Y-4.4577
X4.1516Y-4.5577
X4.1516Y-4.6577
X4.1516Y-4.7577
T6
X5.8402Y-4.0252
X5.8402Y-4.5961
X6.035Y-4.0016
X6.035Y-4.6197
T7
X4.9734Y-5.9542
X4.9734Y-6.2377
T8
X5.7291Y-3.25
X5.7291Y-3.7674
X5.7341Y-4.8403
X5.7341Y-5.3577
T0
M30
