M48
; DRILL file {KiCad 8.0.6} date 2024-12-01T18:19:09-0800
; FORMAT={-:-/ absolute / inch / decimal}
; #@! TF.CreationDate,2024-12-01T18:19:09-08:00
; #@! TF.GenerationSoftware,Kicad,Pcbnew,8.0.6
; #@! TF.FileFunction,Plated,1,6,PTH
FMAT,2
INCH
; #@! TA.AperFunction,Plated,PTH,ViaDrill
T1C0.0079
; #@! TA.AperFunction,Plated,PTH,ViaDrill
T2C0.0118
; #@! TA.AperFunction,Plated,PTH,ComponentDrill
T3C0.0236
; #@! TA.AperFunction,Plated,PTH,ComponentDrill
T4C0.0394
%
G90
G05
T1
X3.6388Y-1.7071
X3.6457Y-1.5917
X3.6555Y-2.0478
X3.6555Y-2.0886
X3.672Y-1.5691
X3.6888Y-1.7071
X3.6888Y-1.9906
X3.7046Y-1.5889
X3.7205Y-1.6055
X3.7209Y-1.7634
X3.7209Y-1.9217
X3.7362Y-1.9681
X3.7376Y-1.7161
X3.7516Y-1.8579
X3.7665Y-2.2925
X3.7673Y-2.0311
X3.7677Y-2.2528
X3.7701Y-1.9394
X3.7764Y-1.7937
X3.7815Y-1.637
X3.7971Y-1.9996
X3.798Y-1.6854
X3.8075Y-2.2142
X3.8079Y-2.126
X3.8079Y-2.2508
X3.8134Y-1.8902
X3.8146Y-1.8264
X3.8157Y-2.0476
X3.8165Y-1.5295
X3.8312Y-1.9358
X3.837Y-1.9902
X3.8441Y-2.2535
X3.8457Y-1.7315
X3.8461Y-1.7634
X3.8461Y-1.6992
X3.8465Y-1.6024
X3.8476Y-1.9201
X3.8476Y-2.213
X3.848Y-1.8256
X3.8513Y-2.1209
X3.874Y-1.6355
X3.8756Y-1.772
X3.8776Y-1.8264
X3.8776Y-1.7976
X3.878Y-1.8571
X3.8787Y-1.9209
X3.8815Y-1.5951
X3.8846Y-2.2126
X3.8862Y-2.2543
X3.8874Y-2.1354
X3.8883Y-1.8783
X3.9031Y-2.0248
X3.9083Y-1.5213
X3.9083Y-1.763
X3.9091Y-1.6024
X3.9091Y-1.8276
X3.9091Y-1.952
X3.9094Y-1.8891
X3.9102Y-1.6681
X3.9124Y-1.7041
X3.9181Y-1.7319
X3.9256Y-2.252
X3.9304Y-1.7745
X3.9322Y-1.6057
X3.9344Y-1.96
X3.9352Y-1.9843
X3.9381Y-1.8577
X3.9382Y-1.6681
X3.9406Y-1.9197
X3.9409Y-1.6346
X3.9421Y-1.888
X3.9693Y-1.5771
X3.9719Y-1.9858
X3.972Y-1.7634
X3.972Y-1.8012
X3.9724Y-1.9197
X3.9728Y-1.7031
X3.9734Y-1.9608
X3.974Y-1.8252
X3.9744Y-1.8563
X3.9756Y-2.0634
X4.0014Y-1.6667
X4.0035Y-1.7634
X4.0035Y-1.7319
X4.0035Y-1.8252
X4.0035Y-1.6059
X4.0039Y-1.9608
X4.0051Y-1.8881
X4.0053Y-1.9839
X4.0076Y-1.9171
X4.0153Y-1.5673
X4.0193Y-1.685
X4.0244Y-1.7445
X4.0305Y-1.9809
X4.0339Y-1.9152
X4.0346Y-2.0157
X4.035Y-1.7634
X4.035Y-1.6689
X4.035Y-1.7004
X4.0587Y-1.7083
X4.0589Y-1.6689
X4.0665Y-2.0154
X4.0665Y-1.8579
X4.0669Y-1.765
X4.0827Y-1.811
X4.0972Y-1.7665
X4.098Y-1.7949
X4.098Y-1.8575
X4.098Y-1.9524
X4.1Y-1.6362
X4.101Y-1.6694
X4.1295Y-1.7671
X4.1295Y-1.8522
X4.1295Y-1.8894
X4.1298Y-1.7274
X4.1303Y-2.0665
X4.1609Y-1.604
X4.161Y-1.8264
X4.161Y-1.9839
X4.161Y-1.7319
X4.1639Y-1.67
X4.17Y-1.6385
X4.2024Y-1.8965
X4.226Y-1.8929
X4.2425Y-1.7531
X4.2441Y-2.013
X4.2657Y-1.6311
X4.2827Y-1.9669
X4.2913Y-2.0492
X4.3096Y-1.9742
X4.3547Y-2.0252
X4.3602Y-1.8799
X4.3602Y-1.9177
X4.3618Y-1.7319
X4.3663Y-1.7999
X4.3685Y-1.6169
X4.3961Y-1.8169
X4.3984Y-1.6843
X4.3988Y-1.7287
X4.4016Y-1.8594
X4.407Y-1.9411
X4.4076Y-1.9894
X4.4083Y-1.774
X4.4109Y-1.8923
X4.4449Y-1.7091
X4.4479Y-1.9469
X4.4575Y-1.8602
X4.4823Y-1.7319
X4.5024Y-1.8453
X4.507Y-1.7389
X4.5075Y-1.6016
X4.5075Y-1.6394
X4.5091Y-1.9155
X4.5094Y-1.7685
X4.5291Y-2.0091
X4.5445Y-1.776
X4.5499Y-1.7519
X4.5512Y-1.8799
X4.5524Y-1.6544
X4.5591Y-1.9307
X4.5776Y-1.6177
X4.5916Y-1.7519
X4.5992Y-2.0041
X4.6098Y-1.7681
X4.6114Y-2.0553
X4.6421Y-1.6185
X4.6425Y-1.9098
X4.6427Y-1.6421
X4.6431Y-1.8785
X4.6433Y-1.5843
X4.6449Y-1.7929
X4.6457Y-1.8413
X4.6469Y-1.9569
X4.6496Y-1.7127
X4.6547Y-1.665
X4.6594Y-2.0559
X4.6596Y-2.0041
X4.7203Y-1.835
X4.7335Y-1.8886
X4.752Y-1.949
X4.8201Y-2.0425
X4.8837Y-1.8352
X4.8846Y-1.9799
X4.9059Y-1.6937
X4.9075Y-1.6661
X4.9083Y-1.6394
X4.923Y-1.9593
X4.9232Y-1.8713
X4.924Y-1.9984
X4.9256Y-1.8933
X4.9423Y-2.1009
X4.9445Y-1.6736
X4.9523Y-2.1297
X4.9567Y-1.9535
X4.972Y-1.6752
X4.9721Y-2.1469
X4.9839Y-1.7465
X4.9988Y-1.676
X5.0197Y-2.0417
X5.0252Y-2.2067
X5.0256Y-1.963
X5.0267Y-2.0622
X5.0413Y-1.7972
X5.0638Y-1.6362
X5.0642Y-2.2079
X5.0693Y-1.7618
X5.0739Y-1.7941
X5.0976Y-1.8197
X5.1008Y-1.6823
X5.1165Y-1.8031
X5.137Y-1.822
X5.1543Y-1.8039
X5.174Y-1.8236
X5.1949Y-1.8028
X5.2154Y-1.811
X5.2331Y-1.7815
X5.2587Y-1.7988
X5.2953Y-1.8
X5.2961Y-1.6925
X5.3102Y-2.2118
X5.328Y-1.8382
X5.328Y-1.876
X5.3299Y-1.9142
X5.3457Y-2.2098
X5.3677Y-1.8031
X5.3677Y-1.9134
X5.3756Y-2.1043
X5.3811Y-2.2787
X5.3823Y-2.0283
X5.3831Y-1.9831
X5.4055Y-1.9134
X5.4201Y-2.0055
X5.4273Y-1.7598
X5.4299Y-1.8354
X5.4333Y-1.6699
X5.4346Y-1.585
X5.4555Y-2.1327
X5.498Y-2.213
X5.5048Y-2.168
X5.5281Y-1.9853
X5.5311Y-1.9559
X5.5469Y-2.174
X5.5574Y-1.9232
X5.5594Y-1.8795
X5.5641Y-2.0638
X5.5709Y-1.9035
X5.5735Y-2.0042
X5.5905Y-1.9469
X5.6137Y-2.1339
X5.6196Y-1.9705
X5.6244Y-2.0886
X5.6563Y-2.0863
X5.6576Y-1.9732
X5.6866Y-2.1705
X5.6885Y-1.948
X5.6893Y-2.1087
X5.6905Y-2.0012
X5.6913Y-2.0516
X5.7334Y-1.9488
X5.7346Y-2.0
X5.7362Y-2.0543
X5.7389Y-2.1122
X5.7393Y-2.1701
T2
X4.9406Y-1.737
T4
X3.5539Y-1.4929
X3.5543Y-2.3933
X3.6539Y-1.4929
X3.6543Y-2.3933
X3.7539Y-1.4929
X3.7543Y-2.3933
X3.8539Y-1.4929
X3.8543Y-2.3933
X3.9539Y-1.4929
X3.9543Y-2.3933
X4.0539Y-1.4929
X4.0543Y-2.3933
X4.1535Y-2.1906
X4.1535Y-2.2906
X4.1539Y-1.4929
X4.1543Y-2.3933
X4.2535Y-2.1906
X4.2535Y-2.2906
X4.2539Y-1.4929
X4.2543Y-2.3933
X4.3535Y-2.1906
X4.3535Y-2.2906
X4.3539Y-1.4929
X4.3543Y-2.3933
X4.4535Y-2.1906
X4.4535Y-2.2906
X4.4539Y-1.4929
X4.4543Y-2.3933
X4.5535Y-2.1906
X4.5535Y-2.2906
X4.5539Y-1.4929
X4.5543Y-2.3933
X4.6535Y-2.1906
X4.6535Y-2.2906
X4.6539Y-1.4929
X4.6543Y-2.3933
X4.7539Y-1.4929
X4.7543Y-2.3933
X4.7783Y-2.1705
X4.7783Y-2.2705
X4.8539Y-1.4929
X4.8543Y-2.3933
X4.8783Y-2.1705
X4.8783Y-2.2705
X4.9539Y-1.4929
X4.9543Y-2.3933
X5.0539Y-1.4929
X5.0543Y-2.3933
X5.1539Y-1.4929
X5.1543Y-2.3933
X5.2539Y-1.4929
X5.2543Y-2.3933
X5.3539Y-1.4929
X5.3543Y-2.3933
X5.4539Y-1.4929
X5.4543Y-2.3933
X5.5539Y-1.4929
X5.5543Y-2.3933
X5.6539Y-1.4929
X5.6543Y-2.3933
X5.7539Y-1.4929
X5.7543Y-2.3933
T3
G00X5.6147Y-1.8693
M15
G01X5.658Y-1.8693
M16
G05
G00X5.6147Y-2.2094
M15
G01X5.658Y-2.2094
M16
G05
G00X5.7852Y-1.8693
M15
G01X5.8167Y-1.8693
M16
G05
G00X5.7852Y-2.2094
M15
G01X5.8167Y-2.2094
M16
G05
M30
