%TF.GenerationSoftware,KiCad,Pcbnew,8.0.6*%
%TF.CreationDate,2024-12-01T18:19:07-08:00*%
%TF.ProjectId,SYNC-VT,53594e43-2d56-4542-9e6b-696361645f70,rev?*%
%TF.SameCoordinates,Original*%
%TF.FileFunction,Paste,Bot*%
%TF.FilePolarity,Positive*%
%FSLAX46Y46*%
G04 Gerber Fmt 4.6, Leading zero omitted, Abs format (unit mm)*
G04 Created by KiCad (PCBNEW 8.0.6) date 2024-12-01 18:19:07*
%MOMM*%
%LPD*%
G01*
G04 APERTURE LIST*
G04 Aperture macros list*
%AMRoundRect*
0 Rectangle with rounded corners*
0 $1 Rounding radius*
0 $2 $3 $4 $5 $6 $7 $8 $9 X,Y pos of 4 corners*
0 Add a 4 corners polygon primitive as box body*
4,1,4,$2,$3,$4,$5,$6,$7,$8,$9,$2,$3,0*
0 Add four circle primitives for the rounded corners*
1,1,$1+$1,$2,$3*
1,1,$1+$1,$4,$5*
1,1,$1+$1,$6,$7*
1,1,$1+$1,$8,$9*
0 Add four rect primitives between the rounded corners*
20,1,$1+$1,$2,$3,$4,$5,0*
20,1,$1+$1,$4,$5,$6,$7,0*
20,1,$1+$1,$6,$7,$8,$9,0*
20,1,$1+$1,$8,$9,$2,$3,0*%
G04 Aperture macros list end*
%ADD10R,1.050000X0.650000*%
%ADD11RoundRect,0.140000X-0.170000X0.140000X-0.170000X-0.140000X0.170000X-0.140000X0.170000X0.140000X0*%
%ADD12RoundRect,0.140000X0.170000X-0.140000X0.170000X0.140000X-0.170000X0.140000X-0.170000X-0.140000X0*%
%ADD13RoundRect,0.140000X-0.140000X-0.170000X0.140000X-0.170000X0.140000X0.170000X-0.140000X0.170000X0*%
%ADD14RoundRect,0.140000X0.140000X0.170000X-0.140000X0.170000X-0.140000X-0.170000X0.140000X-0.170000X0*%
%ADD15RoundRect,0.150000X0.150000X0.200000X-0.150000X0.200000X-0.150000X-0.200000X0.150000X-0.200000X0*%
%ADD16RoundRect,0.079500X-0.100500X0.079500X-0.100500X-0.079500X0.100500X-0.079500X0.100500X0.079500X0*%
%ADD17RoundRect,0.249999X-0.450001X-1.450001X0.450001X-1.450001X0.450001X1.450001X-0.450001X1.450001X0*%
%ADD18RoundRect,0.150000X-0.150000X0.650000X-0.150000X-0.650000X0.150000X-0.650000X0.150000X0.650000X0*%
%ADD19RoundRect,0.147500X0.147500X0.172500X-0.147500X0.172500X-0.147500X-0.172500X0.147500X-0.172500X0*%
%ADD20R,0.600000X0.250000*%
%ADD21R,0.900000X0.250000*%
%ADD22R,0.250000X0.450000*%
%ADD23R,0.900000X1.100000*%
%ADD24RoundRect,0.079500X0.079500X0.100500X-0.079500X0.100500X-0.079500X-0.100500X0.079500X-0.100500X0*%
%ADD25RoundRect,0.249999X0.395001X-0.395001X0.395001X0.395001X-0.395001X0.395001X-0.395001X-0.395001X0*%
%ADD26RoundRect,0.050000X0.050000X-0.387500X0.050000X0.387500X-0.050000X0.387500X-0.050000X-0.387500X0*%
%ADD27RoundRect,0.050000X0.387500X-0.050000X0.387500X0.050000X-0.387500X0.050000X-0.387500X-0.050000X0*%
%ADD28RoundRect,0.150000X-0.587500X-0.150000X0.587500X-0.150000X0.587500X0.150000X-0.587500X0.150000X0*%
%ADD29R,1.200000X1.400000*%
%ADD30RoundRect,0.147500X-0.172500X0.147500X-0.172500X-0.147500X0.172500X-0.147500X0.172500X0.147500X0*%
%ADD31RoundRect,0.150000X0.512500X0.150000X-0.512500X0.150000X-0.512500X-0.150000X0.512500X-0.150000X0*%
%ADD32RoundRect,0.140000X-0.140000X-0.180000X0.140000X-0.180000X0.140000X0.180000X-0.140000X0.180000X0*%
%ADD33RoundRect,0.087500X-0.175000X-0.087500X0.175000X-0.087500X0.175000X0.087500X-0.175000X0.087500X0*%
%ADD34RoundRect,0.150000X-0.150000X-0.200000X0.150000X-0.200000X0.150000X0.200000X-0.150000X0.200000X0*%
G04 APERTURE END LIST*
D10*
%TO.C,J2*%
X138005000Y-40265000D03*
X133855000Y-40265000D03*
X138005000Y-42415000D03*
X133855000Y-42415000D03*
%TD*%
%TO.C,J1*%
X124045000Y-44460000D03*
X119895000Y-44460000D03*
X124045000Y-46610000D03*
X119895000Y-46610000D03*
%TD*%
D11*
%TO.C,C12*%
X114520000Y-48150000D03*
X114520000Y-47190000D03*
%TD*%
D12*
%TO.C,C11*%
X110790000Y-43990000D03*
X110790000Y-44950000D03*
%TD*%
D11*
%TO.C,C5*%
X110750000Y-48710000D03*
X110750000Y-47750000D03*
%TD*%
D13*
%TO.C,C2*%
X123790000Y-52640000D03*
X124750000Y-52640000D03*
%TD*%
D14*
%TO.C,R40*%
X104780000Y-40580000D03*
X103820000Y-40580000D03*
%TD*%
D11*
%TO.C,R36*%
X125560000Y-45180000D03*
X125560000Y-44220000D03*
%TD*%
D15*
%TO.C,D4*%
X139742500Y-48350000D03*
X141142500Y-48350000D03*
%TD*%
D14*
%TO.C,C4*%
X125030000Y-49750000D03*
X124070000Y-49750000D03*
%TD*%
D13*
%TO.C,C33*%
X135330000Y-47650000D03*
X136290000Y-47650000D03*
%TD*%
D12*
%TO.C,R11*%
X99280000Y-50790000D03*
X99280000Y-49830000D03*
%TD*%
D13*
%TO.C,R41*%
X97300000Y-39800000D03*
X98260000Y-39800000D03*
%TD*%
D14*
%TO.C,R6*%
X118090001Y-52205001D03*
X117130001Y-52205001D03*
%TD*%
D13*
%TO.C,C29*%
X136730000Y-50370000D03*
X137690000Y-50370000D03*
%TD*%
D16*
%TO.C,FB1*%
X98270000Y-43745000D03*
X98270000Y-44435000D03*
%TD*%
D14*
%TO.C,R12*%
X98640000Y-42610000D03*
X97680000Y-42610000D03*
%TD*%
D13*
%TO.C,C28*%
X135380000Y-45660000D03*
X136340000Y-45660000D03*
%TD*%
%TO.C,R14*%
X97280000Y-41360000D03*
X98240000Y-41360000D03*
%TD*%
D17*
%TO.C,L1*%
X120250000Y-41620000D03*
X124350000Y-41620000D03*
%TD*%
D13*
%TO.C,C36*%
X137310000Y-48600000D03*
X138270000Y-48600000D03*
%TD*%
%TO.C,R32*%
X138700000Y-56150000D03*
X139660000Y-56150000D03*
%TD*%
D14*
%TO.C,R18*%
X100970000Y-42530000D03*
X100010000Y-42530000D03*
%TD*%
D13*
%TO.C,R23*%
X106780002Y-51120000D03*
X107740002Y-51120000D03*
%TD*%
%TO.C,C31*%
X133500000Y-45710000D03*
X134460000Y-45710000D03*
%TD*%
%TO.C,C25*%
X104010000Y-41560000D03*
X104970000Y-41560000D03*
%TD*%
D14*
%TO.C,R13*%
X98630000Y-47910000D03*
X97670000Y-47910000D03*
%TD*%
%TO.C,R19*%
X102520000Y-41560000D03*
X101560000Y-41560000D03*
%TD*%
%TO.C,R21*%
X100140000Y-39560000D03*
X99180000Y-39560000D03*
%TD*%
D12*
%TO.C,R38*%
X129270000Y-44750000D03*
X129270000Y-43790000D03*
%TD*%
D18*
%TO.C,U5*%
X92425000Y-43360000D03*
X93695000Y-43360000D03*
X94965000Y-43360000D03*
X96235000Y-43360000D03*
X96235000Y-50560000D03*
X94965000Y-50560000D03*
X93695000Y-50560000D03*
X92425000Y-50560000D03*
%TD*%
D19*
%TO.C,D2*%
X104115000Y-44160000D03*
X103145000Y-44160000D03*
%TD*%
D12*
%TO.C,R17*%
X99260000Y-41630000D03*
X99260000Y-40670000D03*
%TD*%
D13*
%TO.C,R33*%
X142748750Y-53040000D03*
X143708750Y-53040000D03*
%TD*%
D14*
%TO.C,R25*%
X112740002Y-49450000D03*
X111780002Y-49450000D03*
%TD*%
D13*
%TO.C,R1*%
X117220000Y-41100000D03*
X118180000Y-41100000D03*
%TD*%
%TO.C,R42*%
X102880000Y-39530000D03*
X103840000Y-39530000D03*
%TD*%
%TO.C,R34*%
X142698750Y-50090000D03*
X143658750Y-50090000D03*
%TD*%
D14*
%TO.C,C16*%
X96730000Y-52150000D03*
X95770000Y-52150000D03*
%TD*%
D20*
%TO.C,U2*%
X116480000Y-50230000D03*
D21*
X116630000Y-49730000D03*
D22*
X116330000Y-49055001D03*
X116830002Y-49055001D03*
X117330001Y-49055001D03*
X117830000Y-49055001D03*
X118330002Y-49055001D03*
D21*
X118030002Y-49730000D03*
X118030002Y-50230000D03*
D22*
X118330002Y-50904999D03*
X117830000Y-50904999D03*
X117330001Y-50904999D03*
X116830002Y-50904999D03*
X116330000Y-50904999D03*
%TD*%
D23*
%TO.C,X1*%
X107940002Y-44180000D03*
X107940002Y-45880000D03*
X106640002Y-45880000D03*
X106640002Y-44180000D03*
%TD*%
D14*
%TO.C,R24*%
X112740002Y-50550000D03*
X111780002Y-50550000D03*
%TD*%
D13*
%TO.C,R35*%
X125680000Y-46140000D03*
X126640000Y-46140000D03*
%TD*%
D11*
%TO.C,C26*%
X92850000Y-52090000D03*
X92850000Y-53050000D03*
%TD*%
D13*
%TO.C,C17*%
X98310000Y-48920000D03*
X99270000Y-48920000D03*
%TD*%
D14*
%TO.C,R15*%
X102550000Y-40560000D03*
X101590000Y-40560000D03*
%TD*%
%TO.C,C32*%
X128910000Y-45780000D03*
X127950000Y-45780000D03*
%TD*%
%TO.C,C35*%
X128600000Y-56050000D03*
X127640000Y-56050000D03*
%TD*%
D12*
%TO.C,C37*%
X140920000Y-56230000D03*
X140920000Y-55270000D03*
%TD*%
D13*
%TO.C,R22*%
X103160000Y-43180000D03*
X104120000Y-43180000D03*
%TD*%
%TO.C,R20*%
X100070000Y-43480000D03*
X101030000Y-43480000D03*
%TD*%
%TO.C,C6*%
X136710000Y-51520000D03*
X137670000Y-51520000D03*
%TD*%
%TO.C,C18*%
X99090000Y-44780000D03*
X100050000Y-44780000D03*
%TD*%
D14*
%TO.C,C24*%
X100470000Y-47990000D03*
X99510000Y-47990000D03*
%TD*%
D12*
%TO.C,C8*%
X115020002Y-51050000D03*
X115020002Y-50090000D03*
%TD*%
D13*
%TO.C,C7*%
X135380000Y-48620000D03*
X136340000Y-48620000D03*
%TD*%
D16*
%TO.C,FB2*%
X99290000Y-46415000D03*
X99290000Y-47105000D03*
%TD*%
D14*
%TO.C,C22*%
X102320000Y-47370000D03*
X101360000Y-47370000D03*
%TD*%
%TO.C,R4*%
X117840002Y-45570000D03*
X116880002Y-45570000D03*
%TD*%
D12*
%TO.C,R2*%
X116270002Y-41090000D03*
X116270002Y-40130000D03*
%TD*%
D14*
%TO.C,C34*%
X125070000Y-50760000D03*
X124110000Y-50760000D03*
%TD*%
D13*
%TO.C,C30*%
X135330000Y-46660000D03*
X136290000Y-46660000D03*
%TD*%
%TO.C,C15*%
X101050000Y-46360000D03*
X102010000Y-46360000D03*
%TD*%
D24*
%TO.C,FB3*%
X108260002Y-42830000D03*
X107570002Y-42830000D03*
%TD*%
D25*
%TO.C,U9*%
X129430000Y-51670000D03*
X131030000Y-51670000D03*
X129430000Y-50070000D03*
X131030000Y-50070000D03*
D26*
X132830000Y-54307500D03*
X132430000Y-54307500D03*
X132030000Y-54307500D03*
X131630000Y-54307500D03*
X131230000Y-54307500D03*
X130830000Y-54307500D03*
X130430000Y-54307500D03*
X130030000Y-54307500D03*
X129630000Y-54307500D03*
X129230000Y-54307500D03*
X128830000Y-54307500D03*
X128430000Y-54307500D03*
X128030000Y-54307500D03*
X127630000Y-54307500D03*
D27*
X126792500Y-53470000D03*
X126792500Y-53070000D03*
X126792500Y-52670000D03*
X126792500Y-52270000D03*
X126792500Y-51870000D03*
X126792500Y-51470000D03*
X126792500Y-51070000D03*
X126792500Y-50670000D03*
X126792500Y-50270000D03*
X126792500Y-49870000D03*
X126792500Y-49470000D03*
X126792500Y-49070000D03*
X126792500Y-48670000D03*
X126792500Y-48270000D03*
D26*
X127630000Y-47432500D03*
X128030000Y-47432500D03*
X128430000Y-47432500D03*
X128830000Y-47432500D03*
X129230000Y-47432500D03*
X129630000Y-47432500D03*
X130030000Y-47432500D03*
X130430000Y-47432500D03*
X130830000Y-47432500D03*
X131230000Y-47432500D03*
X131630000Y-47432500D03*
X132030000Y-47432500D03*
X132430000Y-47432500D03*
X132830000Y-47432500D03*
D27*
X133667500Y-48270000D03*
X133667500Y-48670000D03*
X133667500Y-49070000D03*
X133667500Y-49470000D03*
X133667500Y-49870000D03*
X133667500Y-50270000D03*
X133667500Y-50670000D03*
X133667500Y-51070000D03*
X133667500Y-51470000D03*
X133667500Y-51870000D03*
X133667500Y-52270000D03*
X133667500Y-52670000D03*
X133667500Y-53070000D03*
X133667500Y-53470000D03*
%TD*%
D28*
%TO.C,U8*%
X137852500Y-46600000D03*
X137852500Y-44700000D03*
X139727500Y-45650000D03*
%TD*%
D14*
%TO.C,C3*%
X121110000Y-47970000D03*
X120150000Y-47970000D03*
%TD*%
D13*
%TO.C,R3*%
X117135001Y-47715001D03*
X118095001Y-47715001D03*
%TD*%
D29*
%TO.C,Y1*%
X120690000Y-51850000D03*
X120690000Y-49650000D03*
X122390000Y-49650000D03*
X122390000Y-51850000D03*
%TD*%
D13*
%TO.C,C20*%
X100950000Y-44950000D03*
X101910000Y-44950000D03*
%TD*%
D30*
%TO.C,D1*%
X98210000Y-49855000D03*
X98210000Y-50825000D03*
%TD*%
D31*
%TO.C,U11*%
X128637500Y-40630000D03*
X128637500Y-41580000D03*
X128637500Y-42530000D03*
X126362500Y-42530000D03*
X126362500Y-40630000D03*
%TD*%
D12*
%TO.C,C14*%
X100100000Y-47000000D03*
X100100000Y-46040000D03*
%TD*%
D11*
%TO.C,C23*%
X98420000Y-45690000D03*
X98420000Y-46650000D03*
%TD*%
D14*
%TO.C,C27*%
X108300000Y-47300000D03*
X107340000Y-47300000D03*
%TD*%
D12*
%TO.C,R16*%
X100170000Y-41650000D03*
X100170000Y-40690000D03*
%TD*%
%TO.C,C10*%
X114840002Y-44380000D03*
X114840002Y-43420000D03*
%TD*%
D13*
%TO.C,C21*%
X101590000Y-48780000D03*
X102550000Y-48780000D03*
%TD*%
D20*
%TO.C,U1*%
X116340002Y-43484999D03*
D21*
X116490002Y-42984999D03*
D22*
X116190002Y-42310000D03*
X116690004Y-42310000D03*
X117190003Y-42310000D03*
X117690002Y-42310000D03*
X118190004Y-42310000D03*
D21*
X117890004Y-42984999D03*
X117890004Y-43484999D03*
D22*
X118190004Y-44159998D03*
X117690002Y-44159998D03*
X117190003Y-44159998D03*
X116690004Y-44159998D03*
X116190002Y-44159998D03*
%TD*%
D13*
%TO.C,R37*%
X136750000Y-56130000D03*
X137710000Y-56130000D03*
%TD*%
D14*
%TO.C,C38*%
X135780000Y-56130000D03*
X134820000Y-56130000D03*
%TD*%
D12*
%TO.C,R5*%
X116220002Y-47720000D03*
X116220002Y-46760000D03*
%TD*%
D32*
%TO.C,FLASH1*%
X138142500Y-53792500D03*
X138142500Y-54592500D03*
X138842500Y-53792500D03*
X138842500Y-54592500D03*
D33*
X137205000Y-54942500D03*
X137205000Y-54442500D03*
X137205000Y-53942500D03*
X137205000Y-53442500D03*
X139780000Y-53442500D03*
X139780000Y-53942500D03*
X139780000Y-54442500D03*
X139780000Y-54942500D03*
%TD*%
D34*
%TO.C,D3*%
X128027500Y-44300000D03*
X126627500Y-44300000D03*
%TD*%
D14*
%TO.C,R10*%
X114020000Y-45430000D03*
X113060000Y-45430000D03*
%TD*%
D13*
%TO.C,C1*%
X111740002Y-47260000D03*
X112700002Y-47260000D03*
%TD*%
D14*
%TO.C,R27*%
X112690002Y-43910000D03*
X111730002Y-43910000D03*
%TD*%
D11*
%TO.C,C9*%
X114490002Y-40679998D03*
X114490002Y-41639998D03*
%TD*%
D12*
%TO.C,R8*%
X113800000Y-44270000D03*
X113800000Y-43310000D03*
%TD*%
D14*
%TO.C,R28*%
X112680002Y-42820000D03*
X111720002Y-42820000D03*
%TD*%
%TO.C,R26*%
X112690002Y-48340000D03*
X111730002Y-48340000D03*
%TD*%
M02*
